<?xml version="1.0" encoding="UTF-8"?>
<!DOCTYPE svg PUBLIC "-//W3C//DTD SVG 1.1//EN"
    "http://www.w3.org/Graphics/SVG/1.1/DTD/svg11.dtd">

<svg xmlns="http://www.w3.org/2000/svg" xmlns:xlink="http://www.w3.org/1999/xlink" version="1.1" width="500.00000000000256" height="500" viewBox="-60.0 -59.99999999999967 119.99999999999999 119.99999999999936">
    <g>
        <rect x="-60.0" y="-59.99999999999967" width="119.99999999999999" height="119.99999999999936" fill="#CBD4C2" />
        <path style="fill:none;stroke:#50514F;stroke-width:0.1px;stroke-linecap:square" d="M 11.90476190476211,-35.71428571428479 L 11.90476190476211,-40.47619047618947 L 11.90476190476211,-45.238095238094154 L 16.66666666666679,-45.238095238094154 L 16.66666666666679,-49.999999999998835 L 21.42857142857147,-49.999999999998835 L 21.42857142857147,-45.238095238094154 L 21.42857142857147,-40.47619047618947 L 21.42857142857147,-35.71428571428479 L 21.42857142857147,-30.952380952380114 L 16.66666666666679,-30.952380952380114 L 16.66666666666679,-26.190476190475433 L 11.90476190476211,-26.190476190475433 L 11.90476190476211,-30.952380952380114 L 11.904761904762106,-35.71428571428479 L 16.66666666666679,-35.71428571428479 L 21.42857142857147,-35.7142857142848 L 21.42857142857147,-30.952380952380114 L 26.19047619047615,-30.952380952380118 L 26.19047619047615,-26.190476190475437 L 21.42857142857147,-26.190476190475433 L 16.666666666666792,-26.190476190475433 L 16.666666666666792,-21.428571428570752 L 16.666666666666792,-16.66666666666607 L 11.904761904762113,-16.66666666666607 L 11.904761904762115,-11.90476190476139 L 7.142857142857434,-11.90476190476139 L 7.142857142857432,-16.66666666666607 L 7.14285714285743,-21.428571428570752 L 11.904761904762111,-21.428571428570752 L 16.666666666666792,-21.428571428570756 L 16.666666666666792,-16.666666666666075 L 21.428571428571473,-16.666666666666078 L 21.42857142857148,-11.904761904761399 L 16.666666666666796,-11.904761904761394 L 11.904761904762115,-11.90476190476139 L 11.904761904762111,-16.66666666666607 L 11.90476190476211,-21.428571428570752 L 16.66666666666679,-21.428571428570756 L 16.666666666666785,-26.190476190475437 L 21.428571428571466,-26.19047619047544 L 21.42857142857147,-21.42857142857076 L 21.428571428571473,-16.666666666666078 L 21.42857142857148,-11.904761904761399 L 21.428571428571484,-7.142857142856717 L 16.666666666666803,-7.1428571428567125 L 16.666666666666806,-2.380952380952032 L 11.904761904762125,-2.3809523809520274 L 11.904761904762122,-7.142857142856709 L 11.904761904762116,-11.90476190476139 L 11.904761904762113,-16.66666666666607 L 11.90476190476211,-21.428571428570752 L 16.66666666666679,-21.428571428570756 L 16.666666666666785,-26.190476190475437 L 21.428571428571466,-26.19047619047544 L 21.42857142857147,-21.42857142857076 L 21.428571428571473,-16.666666666666078 L 21.42857142857148,-11.904761904761399 L 21.428571428571484,-7.142857142856717 L 16.666666666666803,-7.1428571428567125 L 16.666666666666806,-2.380952380952032 L 11.904761904762125,-2.3809523809520274 L 11.904761904762122,-7.142857142856709 L 11.904761904762115,-11.90476190476139 L 16.6666666666668,-11.904761904761394 L 21.42857142857148,-11.904761904761399 L 21.428571428571487,-7.142857142856717 L 26.19047619047617,-7.142857142856721 L 26.190476190476172,-2.3809523809520403 L 21.42857142857149,-2.380952380952032 L 16.66666666666681,-2.3809523809520234 L 16.666666666666817,2.3809523809526536 L 16.666666666666824,7.142857142857334 L 11.904761904762143,7.142857142857343 L 11.904761904762148,11.904761904762024 L 7.142857142857467,11.904761904762033 L 7.142857142857461,7.142857142857351 L 7.142857142857454,2.3809523809526705 L 11.904761904762134,2.380952380952662 L 16.666666666666814,2.3809523809526536 L 16.666666666666824,7.142857142857334 L 21.428571428571505,7.142857142857326 L 21.428571428571512,11.904761904762006 L 16.66666666666683,11.904761904762015 L 11.904761904762148,11.904761904762024 L 11.90476190476214,7.142857142857343 L 11.904761904762134,2.380952380952662 L 16.666666666666814,2.3809523809526536 L 16.666666666666806,-2.3809523809520274 L 21.428571428571487,-2.380952380952036 L 21.428571428571495,2.380952380952645 L 21.428571428571505,7.142857142857326 L 21.428571428571512,11.904761904762006 L 21.428571428571523,16.66666666666669 L 16.666666666666842,16.666666666666696 L 16.66666666666685,21.428571428571377 L 11.904761904762168,21.428571428571384 L 11.90476190476216,16.666666666666703 L 11.904761904762148,11.904761904762024 L 16.66666666666683,11.904761904762015 L 21.428571428571512,11.904761904762006 L 21.428571428571523,16.66666666666669 L 26.190476190476204,16.66666666666668 L 26.190476190476215,21.42857142857136 L 21.428571428571534,21.42857142857137 L 16.666666666666853,21.428571428571377 L 11.904761904762172,21.428571428571384 L 7.142857142857491,21.428571428571395 L 7.142857142857481,16.666666666666714 L 2.3809523809527993,16.66666666666672 L 2.380952380952789,11.90476190476204 L 7.14285714285747,11.904761904762033 L 11.90476190476215,11.904761904762024 L 11.904761904762161,16.666666666666703 L 11.904761904762172,21.428571428571384 L 7.142857142857491,21.428571428571395 L 7.142857142857501,26.190476190476076 L 2.3809523809528206,26.190476190476083 L 2.380952380952809,21.428571428571402 L 2.3809523809527975,16.66666666666672 L -2.3809523809518836,16.666666666666732 L -7.142857142856565,16.66666666666674 L -7.142857142856576,11.904761904762058 L -11.904761904761255,11.904761904762067 L -11.904761904761267,7.142857142857386 L -7.142857142856586,7.142857142857377 L -2.380952380951905,7.142857142857368 L -2.380952380951892,11.904761904762049 L -2.3809523809518796,16.666666666666732 L -7.142857142856561,16.66666666666674 L -7.142857142856548,21.42857142857142 L -11.904761904761228,21.428571428571427 L -11.90476190476124,16.666666666666746 L -11.904761904761255,11.904761904762067 L -7.142857142856573,11.904761904762049 L -2.380952380951892,11.904761904762033 L -2.3809523809518796,16.666666666666714 L 2.3809523809528015,16.666666666666696 L 2.3809523809528144,21.428571428571377 L -2.3809523809518667,21.428571428571395 L -7.142857142856548,21.428571428571413 L -11.904761904761228,21.428571428571427 L -16.66666666666591,21.428571428571445 L -16.666666666665922,16.666666666666764 L -21.428571428570603,16.66666666666678 L -21.428571428570617,11.9047619047621 L -16.666666666665936,11.904761904762083 L -11.904761904761255,11.904761904762067 L -11.904761904761267,7.142857142857386 L -11.90476190476128,2.3809523809527042 L -7.142857142856599,2.3809523809526874 L -7.142857142856611,-2.3809523809519937 L -2.38095238095193,-2.3809523809520066 L -2.3809523809519155,2.3809523809526705 L -2.380952380951901,7.142857142857351 L -2.3809523809518858,11.904761904762033 L -2.380952380951871,16.666666666666714 L -7.142857142856552,16.666666666666732 L -7.1428571428565375,21.428571428571413 L -11.904761904761221,21.428571428571427 L -11.904761904761237,16.666666666666746 L -11.904761904761255,11.904761904762067 L -7.142857142856573,11.904761904762049 L -2.380952380951892,11.904761904762033 L -2.3809523809518773,16.666666666666714 L 2.3809523809528037,16.666666666666696 L 2.3809523809528197,21.428571428571377 L -2.3809523809518627,21.428571428571395 L -7.142857142856544,21.428571428571413 L -7.142857142856529,26.190476190476094 L -7.142857142856514,30.952380952380775 L -11.904761904761195,30.95238095238079 L -11.904761904761179,35.714285714285474 L -16.666666666665858,35.71428571428549 L -16.666666666665876,30.952380952380807 L -16.666666666665893,26.190476190476126 L -11.904761904761212,26.190476190476108 L -7.142857142856531,26.190476190476094 L -7.142857142856514,30.952380952380775 L -2.380952380951833,30.952380952380757 L -2.380952380951816,35.71428571428544 L -7.1428571428564975,35.71428571428545 L -11.904761904761179,35.714285714285474 L -11.904761904761195,30.95238095238079 L -11.904761904761212,26.190476190476108 L -7.142857142856531,26.190476190476094 L -7.142857142856548,21.428571428571413 L -2.3809523809518667,21.428571428571395 L -2.38095238095185,26.190476190476076 L -2.380952380951833,30.952380952380757 L -2.380952380951816,35.71428571428544 L -2.380952380951799,40.47619047619012 L -7.14285714285648,40.47619047619013 L -7.142857142856463,45.238095238094814 L -11.904761904761145,45.238095238094836 L -11.90476190476116,40.476190476190155 L -11.904761904761179,35.714285714285474 L -7.1428571428564975,35.71428571428545 L -2.380952380951816,35.71428571428544 L -2.380952380951797,40.47619047619012 L 2.380952380952884,40.476190476190105 L 2.380952380952903,45.238095238094786 L -2.380952380951778,45.2380952380948 L -7.142857142856459,45.238095238094814 L -11.90476190476114,45.238095238094836 L -16.666666666665822,45.23809523809485 L -16.666666666665844,40.47619047619017 L -21.428571428570525,40.47619047619018 L -21.428571428570546,35.7142857142855 L -16.666666666665865,35.71428571428549 L -11.904761904761182,35.714285714285474 L -11.90476190476116,40.476190476190155 L -11.90476190476114,45.238095238094836 L -16.666666666665822,45.23809523809485 L -16.6666666666658,49.99999999999953 L -21.428571428570482,49.999999999999545 L -21.428571428570503,45.238095238094864 L -21.428571428570525,40.47619047619018 L -26.190476190475206,40.476190476190204 L -30.952380952379887,40.47619047619022 L -30.9523809523799,35.71428571428554 L -35.714285714284586,35.71428571428556 L -35.7142857142846,30.952380952380874 L -30.95238095237992,30.952380952380857 L -26.190476190475238,30.952380952380842 L -26.190476190475216,35.71428571428552 L -26.190476190475195,40.476190476190204 L -30.952380952379876,40.47619047619022 L -30.95238095237985,45.2380952380949 L -35.714285714284536,45.23809523809492 L -35.71428571428456,40.47619047619024 L -35.714285714284586,35.71428571428556 L -30.9523809523799,35.71428571428553 L -26.19047619047522,35.7142857142855 L -26.1904761904752,40.47619047619018 L -21.428571428570518,40.47619047619017 L -21.428571428570496,45.23809523809485 L -26.190476190475177,45.238095238094864 L -30.95238095237986,45.238095238094886 L -35.71428571428454,45.2380952380949 L -40.476190476189224,45.23809523809492 L -40.476190476189245,40.47619047619024 L -45.238095238093926,40.476190476190254 L -45.238095238093955,35.71428571428557 L -40.476190476189274,35.714285714285545 L -35.71428571428459,35.71428571428552 L -35.714285714284564,40.476190476190204 L -35.71428571428454,45.238095238094886 L -40.476190476189224,45.2380952380949 L -40.476190476189196,49.99999999999958 L -45.23809523809388,49.9999999999996 L -45.238095238093905,45.23809523809492 L -45.238095238093926,40.47619047619024 L -45.238095238093955,35.71428571428556 L -45.238095238093976,30.952380952380874 L -40.476190476189295,30.95238095238085 L -40.47619047618932,26.19047619047617 L -35.71428571428464,26.190476190476144 L -35.714285714284614,30.952380952380825 L -35.71428571428459,35.7142857142855 L -40.476190476189274,35.71428571428553 L -45.238095238093955,35.71428571428556 L -45.238095238093976,30.952380952380874 L -49.99999999999866,30.9523809523809 L -49.999999999998685,26.190476190476218 L -45.238095238094004,26.190476190476193 L -40.47619047618932,26.19047619047617 L -40.47619047618935,21.428571428571487 L -40.47619047618937,16.666666666666806 L -35.71428571428469,16.66666666666678 L -35.71428571428472,11.9047619047621 L -30.952380952380036,11.904761904762076 L -30.95238095238001,16.666666666666757 L -30.952380952379986,21.428571428571438 L -35.71428571428467,21.428571428571463 L -40.47619047618935,21.428571428571487 L -40.47619047618937,16.666666666666806 L -45.238095238094054,16.66666666666683 L -45.23809523809408,11.90476190476215 L -40.4761904761894,11.904761904762125 L -35.71428571428472,11.9047619047621 L -35.71428571428469,16.66666666666678 L -35.71428571428467,21.428571428571463 L -40.47619047618935,21.428571428571487 L -40.47619047618932,26.19047619047617 L -45.238095238094004,26.190476190476193 L -45.23809523809403,21.428571428571512 L -45.238095238094054,16.66666666666683 L -45.23809523809408,11.90476190476215 L -45.238095238094104,7.14285714285747 L -40.47619047618942,7.142857142857444 L -40.47619047618945,2.3809523809527633 L -35.71428571428477,2.380952380952738 L -35.71428571428474,7.1428571428574195 L -35.71428571428472,11.9047619047621 L -35.71428571428469,16.66666666666678 L -35.71428571428467,21.428571428571463 L -40.47619047618935,21.428571428571487 L -40.47619047618932,26.19047619047617 L -45.238095238094004,26.190476190476193 L -45.23809523809403,21.428571428571512 L -45.238095238094054,16.66666666666683 L -45.23809523809408,11.90476190476215 L -45.238095238094104,7.14285714285747 L -40.47619047618942,7.142857142857444 L -40.47619047618945,2.3809523809527633 L -35.71428571428477,2.380952380952738 L -35.71428571428474,7.1428571428574195 L -35.71428571428472,11.9047619047621 L -40.4761904761894,11.904761904762134 L -45.23809523809408,11.904761904762168 L -45.23809523809412,7.142857142857487 L -49.9999999999988,7.142857142857521 L -49.99999999999883,2.3809523809528397 L -45.23809523809415,2.380952380952806 L -40.476190476189466,2.3809523809527717 L -40.4761904761895,-2.3809523809519093 L -40.47619047618954,-7.14285714285659 L -35.714285714284856,-7.14285714285662 L -35.71428571428489,-11.904761904761301 L -30.952380952380206,-11.90476190476133 L -30.952380952380175,-7.142857142856649 L -30.95238095238014,-2.3809523809519684 L -35.71428571428482,-2.3809523809519386 L -40.4761904761895,-2.3809523809519093 L -40.47619047618954,-7.14285714285659 L -45.23809523809422,-7.142857142856561 L -45.23809523809425,-11.90476190476124 L -40.47619047618957,-11.904761904761271 L -35.71428571428489,-11.904761904761301 L -35.714285714284856,-7.14285714285662 L -35.71428571428482,-2.3809523809519386 L -40.4761904761895,-2.380952380951905 L -40.476190476189466,2.3809523809527717 L -45.23809523809415,2.380952380952806 L -45.23809523809418,-2.380952380951875 L -45.23809523809422,-7.142857142856556 L -45.23809523809425,-11.904761904761237 L -45.23809523809428,-16.66666666666592 L -40.4761904761896,-16.666666666665954 L -40.476190476189636,-21.428571428570635 L -35.714285714284955,-21.428571428570667 L -35.71428571428492,-16.666666666665986 L -35.71428571428489,-11.904761904761305 L -40.47619047618957,-11.904761904761271 L -45.23809523809425,-11.904761904761237 L -45.23809523809428,-16.66666666666592 L -49.99999999999896,-16.666666666665886 L -49.999999999999,-21.428571428570567 L -45.23809523809432,-21.4285714285706 L -40.476190476189636,-21.428571428570635 L -35.714285714284955,-21.428571428570667 L -30.952380952380274,-21.428571428570702 L -30.952380952380242,-16.66666666666602 L -26.19047619047556,-16.666666666666053 L -26.190476190475525,-11.904761904761372 L -30.952380952380206,-11.904761904761338 L -35.71428571428489,-11.904761904761305 L -35.71428571428492,-16.666666666665986 L -35.714285714284955,-21.428571428570667 L -30.952380952380274,-21.428571428570702 L -30.95238095238031,-26.190476190475383 L -26.19047619047563,-26.19047619047542 L -26.190476190475593,-21.428571428570738 L -26.19047619047556,-16.666666666666057 L -21.42857142857088,-16.666666666666092 L -16.6666666666662,-16.66666666666613 L -16.666666666666163,-11.904761904761449 L -11.904761904761482,-11.904761904761482 L -11.904761904761449,-7.142857142856801 L -16.66666666666613,-7.1428571428567675 L -21.428571428570812,-7.142857142856734 L -21.428571428570844,-11.904761904761415 L -21.42857142857088,-16.666666666666096 L -16.6666666666662,-16.66666666666613 L -16.66666666666623,-21.428571428570812 L -11.90476190476155,-21.428571428570848 L -11.904761904761513,-16.666666666666167 L -11.904761904761473,-11.904761904761488 L -16.666666666666156,-11.904761904761449 L -21.428571428570837,-11.904761904761411 L -21.428571428570873,-16.666666666666092 L -26.19047619047556,-16.666666666666053 L -26.190476190475593,-21.428571428570734 L -21.428571428570912,-21.428571428570773 L -16.66666666666623,-21.428571428570812 L -11.90476190476155,-21.428571428570848 L -7.14285714285687,-21.428571428570887 L -7.1428571428568315,-16.666666666666206 L -2.38095238095215,-16.666666666666245 L -2.3809523809521123,-11.904761904761562 L -7.142857142856793,-11.904761904761525 L -11.904761904761473,-11.904761904761488 L -16.666666666666156,-11.904761904761449 L -21.428571428570837,-11.904761904761411 L -21.428571428570873,-16.666666666666092 L -26.19047619047556,-16.666666666666053 L -26.190476190475604,-21.428571428570734 L -21.428571428570923,-21.428571428570773 L -16.66666666666624,-21.428571428570812 L -11.904761904761559,-21.428571428570848 L -7.142857142856878,-21.428571428570887 L -7.1428571428568395,-16.666666666666206 L -2.3809523809521584,-16.666666666666245 L -2.3809523809521207,-11.904761904761562 L -7.142857142856801,-11.904761904761525 L -11.904761904761482,-11.904761904761488 L -11.904761904761521,-16.666666666666167 L -11.904761904761559,-21.428571428570848 L -7.142857142856878,-21.428571428570887 L -7.142857142856916,-26.190476190475568 L -2.380952380952235,-26.19047619047561 L -2.3809523809521944,-21.42857142857093 L -2.3809523809521544,-16.66666666666625 L 2.3809523809525266,-16.666666666666288 L 7.142857142857208,-16.66666666666633 L 7.142857142857248,-11.904761904761648 L 11.904761904761928,-11.904761904761685 L 11.904761904761969,-7.142857142857005 L 7.142857142857288,-7.142857142856962 L 2.380952380952607,-7.14285714285692 L 2.380952380952567,-11.904761904761601 L 2.3809523809525266,-16.66666666666628 L 7.142857142857208,-16.666666666666323 L 7.142857142857167,-21.428571428571004 L 11.904761904761848,-21.428571428571043 L 11.90476190476189,-16.666666666666362 L 11.904761904761932,-11.904761904761681 L 7.14285714285725,-11.904761904761639 L 2.380952380952569,-11.904761904761596 L 2.3809523809525266,-16.666666666666277 L -2.3809523809521544,-16.666666666666234 L -2.3809523809521966,-21.428571428570915 L 2.3809523809524844,-21.428571428570958 L 7.142857142857165,-21.428571428571 L 11.904761904761846,-21.428571428571043 L 16.666666666666526,-21.428571428571086 L 16.66666666666657,-16.666666666666405 L 21.42857142857125,-16.666666666666448 L 21.428571428571292,-11.904761904761767 L 16.66666666666661,-11.904761904761724 L 11.904761904761932,-11.904761904761681 L 11.90476190476189,-16.666666666666362 L 11.904761904761845,-21.428571428571043 L 16.666666666666526,-21.428571428571086 L 16.666666666666483,-26.190476190475767 L 21.428571428571168,-26.19047619047581 L 21.428571428571207,-21.42857142857113 L 21.42857142857125,-16.666666666666448 L 21.428571428571292,-11.904761904761767 L 21.428571428571335,-7.142857142857085 L 16.666666666666657,-7.142857142857043 L 16.6666666666667,-2.380952380952362 L 11.90476190476202,-2.380952380952319 L 11.904761904761976,-7.142857142857 L 11.904761904761932,-11.904761904761681 L 16.66666666666661,-11.904761904761724 L 21.428571428571292,-11.904761904761767 L 21.428571428571335,-7.142857142857085 L 26.190476190476016,-7.142857142857127 L 26.190476190476062,-2.380952380952446 L 21.42857142857138,-2.3809523809523996 L 16.6666666666667,-2.3809523809523534 L 16.666666666666746,2.3809523809523276 L 16.66666666666679,7.142857142857013 L 11.90476190476211,7.142857142857055 L 11.904761904762154,11.904761904761736 L 7.142857142857472,11.904761904761779 L 7.142857142857427,7.142857142857098 L 7.142857142857381,2.3809523809524165 L 11.904761904762061,2.3809523809523703 L 16.666666666666742,2.3809523809523236 L 16.66666666666679,7.142857142857005 L 21.42857142857147,7.142857142856962 L 21.428571428571516,11.904761904761644 L 16.666666666666835,11.904761904761685 L 11.904761904762156,11.904761904761727 L 11.90476190476211,7.142857142857047 L 11.904761904762061,2.380952380952366 L 16.666666666666742,2.380952380952319 L 16.666666666666696,-2.380952380952362 L 21.428571428571377,-2.380952380952408 L 21.428571428571423,2.380952380952273 L 21.42857142857147,7.142857142856954 L 21.428571428571516,11.904761904761635 L 21.428571428571562,16.666666666666316 L 16.66666666666688,16.666666666666366 L 16.66666666666693,21.428571428571047 L 11.904761904762248,21.4285714285711 L 11.904761904762202,16.66666666666642 L 11.904761904762154,11.904761904761736 L 7.142857142857472,11.904761904761788 L 2.380952380952791,11.904761904761838 L 2.3809523809527446,7.142857142857157 L -2.3809523809519364,7.142857142857208 L -2.380952380951983,2.3809523809525266 L 2.380952380952698,2.38095238095248 L 7.142857142857379,2.3809523809524338 L 11.90476190476206,2.380952380952387 L 16.666666666666742,2.3809523809523405 L 16.66666666666679,7.142857142857022 L 21.42857142857147,7.142857142856971 L 21.428571428571523,11.904761904761651 L 16.66666666666684,11.904761904761703 L 11.904761904762157,11.904761904761754 L 11.90476190476211,7.142857142857072 L 11.90476190476206,2.380952380952391 L 16.666666666666742,2.3809523809523405 L 16.666666666666693,-2.3809523809523405 L 21.428571428571374,-2.380952380952391 L 21.428571428571423,2.38095238095229 L 21.42857142857147,7.142857142856971 L 26.19047619047615,7.14285714285692 L 30.95238095238083,7.14285714285687 L 30.952380952380885,11.90476190476155 L 35.714285714285566,11.9047619047615 L 35.714285714285616,16.66666666666618 L 30.952380952380935,16.66666666666623 L 26.190476190476254,16.66666666666628 L 26.190476190476204,11.904761904761601 L 26.19047619047615,7.14285714285692 L 30.95238095238083,7.14285714285687 L 30.952380952380782,2.380952380952188 L 35.71428571428546,2.3809523809521376 L 35.714285714285516,7.142857142856818 L 35.714285714285566,11.9047619047615 L 30.952380952380885,11.90476190476155 L 26.190476190476204,11.904761904761601 L 26.19047619047615,7.14285714285692 L 21.42857142857147,7.142857142856971 L 21.42857142857142,2.38095238095229 L 26.1904761904761,2.380952380952239 L 30.952380952380782,2.380952380952188 L 35.71428571428546,2.3809523809521376 L 40.47619047619014,2.380952380952087 L 40.4761904761902,7.1428571428567675 L 45.23809523809488,7.142857142856717 L 45.23809523809493,11.904761904761399 L 40.47619047619025,11.904761904761449 L 35.714285714285566,11.9047619047615 L 35.714285714285516,7.142857142856818 L 35.71428571428546,2.3809523809521376 L 40.47619047619014,2.380952380952087 L 40.47619047619009,-2.380952380952594 L 45.23809523809477,-2.380952380952645 L 45.23809523809482,2.380952380952036 L 45.23809523809488,7.142857142856717 L 45.23809523809493,11.904761904761399 L 45.23809523809498,16.666666666666078 L 40.4761904761903,16.66666666666613 L 40.47619047619035,21.428571428570812 L 35.714285714285666,21.428571428570862 L 35.71428571428561,16.66666666666618 L 35.71428571428556,11.9047619047615 L 40.47619047619024,11.904761904761449 L 45.23809523809492,11.904761904761399 L 45.23809523809498,16.666666666666078 L 49.99999999999966,16.66666666666603 L 49.99999999999971,21.42857142857071 L 45.23809523809503,21.42857142857076 L 40.47619047619035,21.428571428570812 L 40.476190476190396,26.190476190475493 L 40.47619047619046,30.952380952380175 L 35.71428571428578,30.952380952380224 L 35.71428571428583,35.714285714284905 L 30.95238095238115,35.714285714284955 L 30.952380952381095,30.952380952380274 L 30.95238095238104,26.190476190475593 L 35.71428571428572,26.190476190475543 L 40.476190476190396,26.190476190475493 L 40.47619047619046,30.952380952380175 L 45.23809523809514,30.95238095238012 L 45.2380952380952,35.714285714284806 L 40.47619047619052,35.71428571428486 L 35.71428571428583,35.71428571428492 L 35.71428571428578,30.952380952380242 L 35.71428571428572,26.19047619047556 L 40.476190476190396,26.1904761904755 L 40.47619047619035,21.42857142857082 L 45.23809523809503,21.42857142857076 L 45.23809523809508,26.19047619047544 L 45.23809523809514,30.95238095238012 L 45.2380952380952,35.714285714284806 L 45.23809523809525,40.47619047618949 L 40.47619047619057,40.476190476189544 L 40.47619047619062,45.238095238094225 L 35.71428571428594,45.238095238094274 L 35.714285714285886,40.47619047618959 L 35.71428571428583,35.71428571428491 L 40.47619047619052,35.714285714284856 L 45.2380952380952,35.71428571428479 L 45.23809523809525,40.47619047618947 L 49.99999999999993,40.476190476189416 L 49.999999999999986,45.238095238094104 L 45.238095238095305,45.238095238094154 L 40.476190476190624,45.23809523809421 L 35.71428571428594,45.23809523809426 L 30.952380952381265,45.23809523809431 L 30.952380952381205,40.47619047618963 L 26.190476190476524,40.476190476189686 L 26.190476190476463,35.714285714285005 L 30.952380952381144,35.71428571428495 L 35.71428571428583,35.71428571428489 L 35.714285714285886,40.47619047618957 L 35.71428571428594,45.23809523809424 L 30.952380952381265,45.238095238094296 L 30.952380952381322,49.99999999999898 L 26.19047619047664,49.99999999999903 L 26.190476190476584,45.238095238094346 L 26.190476190476524,40.476190476189664 L 21.428571428571843,40.47619047618972 L 16.66666666666716,40.47619047618978 L 16.6666666666671,35.7142857142851 L 11.904761904762422,35.71428571428516 L 11.904761904762362,30.952380952380476 L 16.666666666667044,30.95238095238042 L 21.428571428571725,30.95238095238036 L 21.428571428571782,35.71428571428504 L 21.428571428571843,40.47619047618972 L 16.66666666666716,40.47619047618978 L 16.666666666667222,45.23809523809446 L 11.90476190476254,45.23809523809453 L 11.90476190476248,40.47619047618985 L 11.90476190476242,35.71428571428517 L 16.6666666666671,35.71428571428511 L 21.428571428571782,35.71428571428505 L 21.428571428571843,40.47619047618973 L 26.190476190476524,40.47619047618967 L 26.190476190476588,45.238095238094346 L 21.428571428571907,45.23809523809441 L 16.666666666667226,45.23809523809448 L 11.904761904762545,45.238095238094544 L 7.1428571428578636,45.238095238094616 L 7.142857142857802,40.476190476189934 L 2.380952380953121,40.47619047618999 L 2.3809523809530595,35.71428571428531 L 7.142857142857741,35.71428571428525 L 11.904761904762422,35.71428571428519 L 16.6666666666671,35.71428571428513 L 21.428571428571782,35.714285714285076 L 21.428571428571843,40.47619047618976 L 26.190476190476524,40.47619047618969 L 26.190476190476588,45.238095238094374 L 21.428571428571907,45.238095238094445 L 16.666666666667226,45.23809523809451 L 11.904761904762545,45.23809523809458 L 7.1428571428578636,45.238095238094644 L 7.1428571428578,40.47619047618996 L 2.3809523809531186,40.47619047619003 L 2.3809523809530564,35.714285714285346 L 7.142857142857737,35.71428571428528 L 11.904761904762417,35.714285714285225 L 11.90476190476248,40.476190476189906 L 11.904761904762545,45.23809523809458 L 7.1428571428578636,45.238095238094644 L 7.142857142857927,49.999999999999325 L 2.3809523809532456,49.999999999999396 L 2.380952380953182,45.238095238094715 L 2.3809523809531186,40.476190476190034 L -2.3809523809515625,40.476190476190105 L -7.1428571428562435,40.47619047619017 L -7.142857142856307,35.71428571428549 L -11.904761904760989,35.71428571428556 L -11.90476190476105,30.952380952380874 L -7.1428571428563705,30.952380952380807 L -2.380952380951689,30.95238095238074 L -2.3809523809516255,35.714285714285424 L -2.3809523809515625,40.476190476190105 L -7.1428571428562435,40.47619047619017 L -7.14285714285618,45.23809523809485 L -11.90476190476086,45.23809523809492 L -11.904761904760925,40.47619047619024 L -11.904761904760989,35.71428571428556 L -7.142857142856307,35.71428571428549 L -2.3809523809516255,35.714285714285424 L -2.3809523809515603,40.476190476190105 L 2.380952380953121,40.476190476190034 L 2.3809523809531865,45.238095238094715 L -2.3809523809514945,45.238095238094786 L -7.142857142856176,45.23809523809485 L -11.904761904760857,45.23809523809492 L -16.666666666665538,45.238095238094985 L -16.666666666665606,40.476190476190304 L -21.428571428570287,40.476190476190375 L -21.428571428570354,35.714285714285694 L -16.666666666665673,35.71428571428562 L -11.904761904760992,35.71428571428556 L -11.904761904760925,40.47619047619024 L -11.904761904760857,45.23809523809492 L -16.666666666665538,45.238095238094985 L -16.66666666666547,49.999999999999666 L -21.42857142857015,49.99999999999974 L -21.42857142857022,45.238095238095056 L -21.428571428570287,40.476190476190375 L -21.428571428570354,35.714285714285694 L -21.42857142857042,30.95238095238101 L -16.66666666666574,30.952380952380942 L -16.666666666665808,26.19047619047626 L -11.904761904761127,26.190476190476193 L -11.90476190476106,30.952380952380874 L -11.904761904760992,35.71428571428556 L -16.666666666665673,35.71428571428562 L -21.428571428570354,35.714285714285694 L -21.42857142857042,30.95238095238101 L -26.190476190475103,30.952380952381077 L -26.19047619047517,26.190476190476396 L -21.42857142857049,26.19047619047633 L -16.666666666665808,26.19047619047626 L -16.666666666665876,21.42857142857158 L -16.666666666665943,16.6666666666669 L -11.904761904761262,16.66666666666683 L -11.90476190476133,11.90476190476215 L -7.142857142856649,11.904761904762083 L -7.142857142856579,16.666666666666764 L -7.14285714285651,21.428571428571445 L -11.904761904761191,21.428571428571512 L -16.666666666665872,21.42857142857158 L -16.66666666666594,16.6666666666669 L -21.42857142857062,16.666666666666966 L -21.428571428570688,11.904761904762287 L -16.666666666666007,11.904761904762218 L -11.904761904761326,11.90476190476215 L -11.904761904761255,16.66666666666683 L -11.904761904761182,21.428571428571512 L -16.666666666665865,21.42857142857158 L -16.66666666666579,26.19047619047626 L -21.42857142857047,26.19047619047633 L -21.428571428570546,21.428571428571647 L -21.428571428570617,16.666666666666966 L -21.428571428570688,11.904761904762287 L -21.42857142857076,7.142857142857605 L -16.666666666666078,7.142857142857538 L -16.666666666666153,2.3809523809528566 L -11.90476190476147,2.380952380952789 L -11.904761904761399,7.14285714285747 L -11.904761904761326,11.90476190476215 L -11.904761904761255,16.66666666666683 L -11.904761904761182,21.428571428571512 L -16.666666666665865,21.42857142857158 L -16.66666666666579,26.19047619047626 L -21.42857142857047,26.19047619047633 L -21.428571428570546,21.428571428571647 L -21.428571428570617,16.666666666666966 L -21.428571428570688,11.904761904762287 L -21.42857142857076,7.142857142857605 L -16.666666666666078,7.142857142857529 L -16.666666666666153,2.380952380952848 L -11.90476190476147,2.3809523809527717 L -11.904761904761399,7.142857142857453 L -11.904761904761326,11.904761904762134 L -16.666666666666007,11.90476190476221 L -21.428571428570688,11.904761904762287 L -21.42857142857076,7.142857142857605 L -26.19047619047544,7.1428571428576815 L -26.19047619047552,2.3809523809530004 L -21.428571428570837,2.380952380952924 L -16.666666666666156,2.380952380952848 L -16.666666666666227,-2.380952380951833 L -16.6666666666663,-7.142857142856514 L -11.904761904761617,-7.142857142856586 L -11.90476190476169,-11.904761904761267 L -7.142857142857009,-11.904761904761338 L -7.142857142856937,-7.142857142856657 L -7.142857142856865,-2.380952380951977 L -11.904761904761546,-2.380952380951901 L -16.666666666666227,-2.3809523809518245 L -16.666666666666302,-7.1428571428565055 L -21.428571428570983,-7.142857142856429 L -21.42857142857106,-11.904761904761111 L -16.66666666666638,-11.904761904761187 L -11.904761904761699,-11.904761904761262 L -11.904761904761623,-7.142857142856582 L -11.904761904761546,-2.380952380951901 L -16.666666666666227,-2.3809523809518245 L -16.666666666666153,2.3809523809528566 L -21.428571428570834,2.3809523809529325 L -21.42857142857091,-2.3809523809517485 L -21.428571428570983,-7.142857142856429 L -21.42857142857106,-11.904761904761111 L -21.428571428571136,-16.66666666666579 L -16.666666666666455,-16.66666666666587 L -16.666666666666533,-21.42857142857055 L -11.90476190476185,-21.428571428570624 L -11.904761904761774,-16.666666666665943 L -11.904761904761699,-11.904761904761262 L -16.66666666666638,-11.904761904761187 L -21.42857142857106,-11.904761904761111 L -21.428571428571136,-16.66666666666579 L -26.190476190475813,-16.666666666665716 L -26.190476190475888,-21.428571428570397 L -21.428571428571207,-21.42857142857047 L -16.666666666666526,-21.42857142857055 L -11.904761904761846,-21.428571428570624 L -7.142857142857165,-21.428571428570702 L -7.142857142857089,-16.66666666666602 L -2.380952380952408,-16.666666666666096 L -2.38095238095233,-11.904761904761415 L -7.142857142857013,-11.904761904761338 L -11.904761904761694,-11.904761904761262 L -11.90476190476177,-16.666666666665943 L -11.904761904761846,-21.428571428570624 L -7.142857142857165,-21.428571428570702 L -7.142857142857242,-26.190476190475383 L -2.3809523809525603,-26.19047619047546 L -2.380952380952482,-21.42857142857078 L -2.380952380952404,-16.6666666666661 L 2.380952380952277,-16.666666666666178 L 7.1428571428569585,-16.666666666666256 L 7.142857142857037,-11.904761904761576 L 11.904761904761717,-11.904761904761651 L 11.904761904761795,-7.142857142856971 L 7.142857142857115,-7.14285714285689 L 2.3809523809524338,-7.14285714285681 L 2.380952380952355,-11.904761904761491 L 2.380952380952277,-16.66666666666617 L 7.1428571428569585,-16.666666666666252 L 7.142857142856879,-21.428571428570933 L 11.904761904761559,-21.428571428571015 L 11.904761904761639,-16.666666666666334 L 11.90476190476172,-11.904761904761651 L 7.142857142857038,-11.904761904761571 L 2.3809523809523574,-11.904761904761491 L 2.380952380952277,-16.66666666666617 L -2.380952380952404,-16.666666666666092 L -2.3809523809524844,-21.428571428570773 L 2.3809523809521966,-21.42857142857085 L 7.142857142856878,-21.428571428570933 L 11.904761904761559,-21.428571428571015 L 16.66666666666624,-21.428571428571093 L 16.66666666666632,-16.666666666666412 L 21.428571428571,-16.666666666666494 L 21.428571428571082,-11.904761904761813 L 16.6666666666664,-11.904761904761733 L 11.90476190476172,-11.904761904761651 L 11.9047619047618,-7.142857142856971 L 11.90476190476188,-2.38095238095229 L 7.1428571428572,-2.3809523809522095 L 7.142857142857281,2.3809523809524715 L 2.3809523809525985,2.380952380952552 L 2.380952380952518,-2.380952380952129 L 2.3809523809524378,-7.14285714285681 L 2.3809523809523574,-11.904761904761491 L 2.380952380952277,-16.66666666666617 L 7.1428571428569585,-16.666666666666256 L 7.142857142856877,-21.428571428570937 L 11.904761904761559,-21.42857142857102 L 11.904761904761639,-16.666666666666337 L 11.904761904761722,-11.904761904761656 L 7.14285714285704,-11.904761904761576 L 2.3809523809523596,-11.904761904761495 L 2.380952380952277,-16.666666666666178 L -2.380952380952404,-16.666666666666092 L -2.3809523809524866,-21.428571428570777 L 2.3809523809521944,-21.42857142857086 L 7.142857142856876,-21.428571428570937 L 7.142857142856793,-26.190476190475618 L 7.142857142856711,-30.9523809523803 L 11.904761904761392,-30.952380952380384 L 11.90476190476131,-35.71428571428507 L 16.66666666666599,-35.71428571428515 L 16.666666666666075,-30.95238095238047 L 16.666666666666156,-26.19047619047579 L 11.904761904761473,-26.190476190475703 L 7.142857142856794,-26.190476190475618 L 7.142857142856711,-30.9523809523803 L 2.3809523809520297,-30.952380952380214 L 2.3809523809519453,-35.7142857142849 L 7.142857142856626,-35.71428571428498 L 11.904761904761306,-35.71428571428507 L 11.904761904761392,-30.952380952380384 L 11.904761904761477,-26.190476190475703 L 7.142857142856794,-26.190476190475618 L 7.142857142856879,-21.428571428570937 L 2.3809523809521966,-21.42857142857085 L 2.3809523809521123,-26.190476190475533 L 2.3809523809520274,-30.952380952380214 L 2.380952380951943,-35.7142857142849 L 2.3809523809518582,-40.47619047618958 L 7.142857142856539,-40.476190476189664 L 7.142857142856455,-45.238095238094346 L 11.904761904761136,-45.23809523809443 L 11.904761904761221,-40.47619047618975 L 11.904761904761306,-35.71428571428507 L 7.142857142856626,-35.71428571428498 L 2.3809523809519453,-35.71428571428489 L 2.3809523809518582,-40.47619047618958 L -2.380952380952823,-40.476190476189494 L -2.3809523809529094,-45.23809523809417 L 2.3809523809517716,-45.23809523809426 L 7.142857142856453,-45.238095238094346 L 11.904761904761134,-45.23809523809443 L 16.666666666665815,-45.23809523809452 L 16.6666666666659,-40.47619047618984 L 21.42857142857058,-40.47619047618993 L 21.428571428570667,-35.714285714285246 L 16.66666666666599,-35.714285714285154 L 11.904761904761306,-35.71428571428507 L 11.904761904761221,-40.47619047618975 L 11.904761904761134,-45.23809523809443 L 16.66666666666581,-45.23809523809452 L 16.666666666665726,-49.999999999999204 L 21.428571428570404,-49.99999999999929 L 21.428571428570493,-45.23809523809461 L 21.42857142857058,-40.47619047618993 L 26.190476190475263,-40.476190476190006 L 30.952380952379944,-40.47619047619009 L 30.952380952380032,-35.71428571428542 L 35.71428571428471,-35.7142857142855 L 35.714285714284806,-30.952380952380825 L 30.95238095238012,-30.952380952380736 L 26.19047619047544,-30.952380952380647 L 26.19047619047535,-35.714285714285325 L 26.190476190475263,-40.476190476190006 L 30.952380952379944,-40.47619047619009 L 30.952380952379855,-45.23809523809477 L 35.714285714284536,-45.238095238094864 L 35.71428571428463,-40.47619047619018 L 35.71428571428471,-35.7142857142855 L 30.952380952380032,-35.71428571428542 L 26.19047619047535,-35.714285714285325 L 26.190476190475263,-40.476190476190006 L 21.42857142857058,-40.47619047618991 L 21.428571428570493,-45.23809523809461 L 26.190476190475174,-45.23809523809469 L 30.952380952379855,-45.23809523809477 L 35.714285714284536,-45.238095238094864 L 40.47619047618922,-45.238095238094964 L 40.47619047618931,-40.47619047619028 L 45.23809523809399,-40.47619047619036 L 45.23809523809408,-35.71428571428568 L 40.4761904761894,-35.714285714285595 L 35.71428571428471,-35.7142857142855 L 35.71428571428463,-40.47619047619018 L 35.714285714284536,-45.238095238094864 L 40.47619047618922,-45.238095238094964 L 40.47619047618913,-49.999999999999645 L 45.23809523809381,-49.99999999999972 L 45.238095238093905,-45.23809523809504 L 45.238095238094,-40.47619047619036 L 45.23809523809409,-35.71428571428568 L 45.23809523809418,-30.952380952381002 L 40.4761904761895,-30.952380952380913 L 40.47619047618959,-26.190476190476232 L 35.71428571428491,-26.19047619047614 L 35.71428571428482,-30.95238095238082 L 35.71428571428473,-35.7142857142855 L 40.47619047618941,-35.714285714285595 L 45.23809523809409,-35.71428571428569 L 45.23809523809418,-30.952380952381006 L 49.99999999999886,-30.952380952381098 L 49.999999999998956,-26.190476190476414 L 45.238095238094274,-26.19047619047632 L 40.47619047618959,-26.19047619047623 L 40.476190476189686,-21.428571428571548 L 40.47619047618978,-16.666666666666867 L 35.7142857142851,-16.666666666666774 L 35.71428571428519,-11.904761904762092 L 30.952380952380512,-11.904761904762 L 30.95238095238042,-16.66666666666668 L 30.952380952380324,-21.42857142857136 L 35.714285714285005,-21.428571428571455 L 40.476190476189686,-21.428571428571548 L 40.47619047618978,-16.666666666666867 L 45.23809523809446,-16.66666666666696 L 45.23809523809455,-11.904761904762278 L 40.47619047618987,-11.904761904762184 L 35.71428571428519,-11.904761904762092 L 35.7142857142851,-16.666666666666774 L 35.714285714285005,-21.428571428571455 L 40.476190476189686,-21.428571428571548 L 40.47619047618959,-26.19047619047623 L 45.238095238094274,-26.190476190476325 L 45.23809523809437,-21.428571428571644 L 45.23809523809446,-16.666666666666963 L 45.23809523809455,-11.904761904762282 L 45.238095238094644,-7.142857142857601 L 40.47619047618996,-7.142857142857508 L 40.47619047619006,-2.380952380952827 L 35.71428571428538,-2.380952380952734 L 35.71428571428528,-7.142857142857415 L 35.71428571428518,-11.904761904762095 L 35.71428571428509,-16.666666666666778 L 35.71428571428499,-21.42857142857146 L 40.47619047618967,-21.428571428571555 L 40.47619047618957,-26.190476190476236 L 45.23809523809425,-26.19047619047633 L 45.23809523809435,-21.428571428571647 L 45.23809523809445,-16.666666666666966 L 45.238095238094544,-11.904761904762287 L 45.23809523809464,-7.142857142857605 L 40.476190476189956,-7.142857142857508 L 40.47619047619006,-2.380952380952827 L 35.71428571428538,-2.3809523809527295 L 35.71428571428528,-7.142857142857411 L 35.71428571428518,-11.904761904762092 L 40.47619047618986,-11.90476190476219 L 45.238095238094544,-11.904761904762287 L 45.23809523809464,-7.142857142857605 L 49.99999999999932,-7.142857142857703 L 49.999999999999424,-2.3809523809530213 L 45.23809523809474,-2.380952380952924 L 40.47619047619006,-2.380952380952827 L 40.47619047619016,2.3809523809518542 L 40.476190476190254,7.142857142856539 L 35.71428571428557,7.1428571428566405 L 35.71428571428567,11.904761904761322 L 30.952380952380988,11.904761904761424 L 30.952380952380892,7.142857142856743 L 30.952380952380796,2.380952380952061 L 35.714285714285474,2.380952380951964 L 40.47619047619016,2.3809523809518667 L 40.476190476190254,7.142857142856548 L 45.238095238094935,7.142857142856446 L 45.23809523809503,11.904761904761127 L 40.47619047619035,11.904761904761228 L 35.71428571428567,11.90476190476133 L 35.71428571428557,7.142857142856649 L 35.714285714285474,2.3809523809519684 L 40.47619047619016,2.380952380951871 L 40.47619047619006,-2.38095238095281 L 45.23809523809474,-2.380952380952907 L 45.23809523809484,2.380952380951774 L 45.23809523809494,7.142857142856455 L 45.23809523809504,11.904761904761136 L 45.23809523809515,16.666666666665815 L 40.47619047619047,16.66666666666592 L 40.47619047619057,21.4285714285706 L 35.714285714285886,21.428571428570702 L 35.714285714285786,16.66666666666602 L 35.71428571428568,11.904761904761338 L 40.47619047619036,11.904761904761237 L 45.23809523809504,11.904761904761136 L 45.23809523809515,16.666666666665815 L 49.99999999999983,16.666666666665716 L 49.99999999999993,21.428571428570397 L 45.23809523809525,21.428571428570496 L 40.47619047619057,21.4285714285706 L 35.714285714285886,21.428571428570702 L 30.952380952381205,21.4285714285708 L 30.9523809523811,16.66666666666612 L 26.19047619047642,16.666666666666224 L 26.19047619047632,11.904761904761543 L 30.952380952381002,11.90476190476144 L 35.71428571428568,11.904761904761338 L 35.714285714285786,16.66666666666602 L 35.714285714285886,21.428571428570702 L 30.952380952381205,21.4285714285708 L 30.952380952381308,26.190476190475483 L 26.190476190476627,26.190476190475586 L 26.190476190476524,21.428571428570905 L 26.19047619047642,16.666666666666224 L 21.42857142857174,16.666666666666323 L 16.66666666666706,16.666666666666426 L 16.66666666666696,11.904761904761745 L 11.904761904762278,11.904761904761846 L 11.904761904762173,7.142857142857165 L 16.666666666666856,7.142857142857064 L 21.428571428571537,7.142857142856962 L 21.42857142857164,11.904761904761644 L 21.42857142857174,16.666666666666323 L 16.666666666667062,16.666666666666426 L 16.666666666667165,21.428571428571107 L 11.904761904762484,21.428571428571207 L 11.904761904762381,16.666666666666526 L 11.904761904762278,11.904761904761846 L 16.66666666666696,11.904761904761745 L 21.42857142857164,11.904761904761644 L 21.42857142857174,16.666666666666323 L 26.19047619047642,16.666666666666224 L 26.190476190476527,21.428571428570905 L 21.428571428571846,21.428571428571004 L 16.666666666667165,21.428571428571107 L 11.904761904762484,21.428571428571207 L 7.142857142857804,21.42857142857131 L 7.142857142857699,16.66666666666663 L 2.380952380953018,16.666666666666732 L 2.3809523809529134,11.904761904762049 L 7.142857142857594,11.904761904761948 L 11.904761904762276,11.904761904761846 L 16.666666666666956,11.904761904761745 L 21.42857142857164,11.904761904761644 L 21.42857142857174,16.666666666666323 L 26.19047619047642,16.666666666666224 L 26.19047619047653,21.428571428570905 L 21.42857142857185,21.428571428571004 L 16.66666666666717,21.428571428571107 L 11.904761904762488,21.428571428571207 L 7.142857142857806,21.42857142857131 L 7.1428571428577,16.66666666666663 L 2.3809523809530195,16.666666666666732 L 2.3809523809529134,11.904761904762049 L 7.142857142857594,11.904761904761939 L 11.904761904762276,11.904761904761829 L 11.904761904762381,16.66666666666651 L 11.90476190476249,21.428571428571193 L 7.1428571428578085,21.428571428571303 L 7.142857142857914,26.190476190475984 L 2.380952380953233,26.190476190476094 L 2.380952380953126,21.428571428571413 L 2.3809523809530195,16.666666666666732 L -2.3809523809516615,16.666666666666842 L -7.142857142856343,16.666666666666952 L -7.1428571428564505,11.90476190476227 L -11.904761904761132,11.90476190476238 L -11.904761904761237,7.142857142857698 L -7.142857142856556,7.142857142857588 L -2.380952380951875,7.142857142857478 L -2.3809523809517676,11.90476190476216 L -2.3809523809516597,16.666666666666842 L -7.14285714285634,16.666666666666952 L -7.142857142856233,21.428571428571633 L -11.904761904760916,21.42857142857174 L -11.904761904761026,16.66666666666706 L -11.904761904761136,11.90476190476238 L -7.142857142856455,11.90476190476227 L -2.380952380951774,11.90476190476216 L -2.380952380951666,16.666666666666842 L 2.380952380953015,16.666666666666732 L 2.380952380953124,21.428571428571413 L -2.380952380951558,21.428571428571523 L -7.142857142856239,21.428571428571633 L -11.904761904760921,21.42857142857174 L -16.666666666665602,21.42857142857185 L -16.666666666665712,16.66666666666717 L -21.428571428570393,16.66666666666728 L -21.428571428570503,11.9047619047626 L -16.666666666665822,11.90476190476249 L -11.90476190476114,11.90476190476238 L -11.90476190476103,16.66666666666706 L -11.904761904760921,21.42857142857174 L -16.666666666665602,21.42857142857185 L -16.666666666665492,26.19047619047653 L -21.428571428570173,26.19047619047664 L -21.428571428570283,21.42857142857196 L -21.428571428570393,16.66666666666728 L -21.428571428570503,11.9047619047626 L -21.428571428570613,7.142857142857919 L -16.666666666665932,7.1428571428578085 L -16.666666666666043,2.380952380953127 L -11.90476190476136,2.3809523809530173 L -11.90476190476125,7.142857142857698 L -11.90476190476114,11.90476190476238 L -16.666666666665822,11.90476190476249 L -21.428571428570503,11.9047619047626 L -21.428571428570613,7.142857142857919 L -26.190476190475295,7.142857142858028 L -26.190476190475408,2.3809523809533473 L -21.428571428570727,2.380952380953237 L -16.666666666666046,2.380952380953127 L -16.666666666666156,-2.380952380951554 L -16.666666666666266,-7.142857142856235 L -11.904761904761584,-7.142857142856345 L -11.904761904761694,-11.904761904761026 L -7.142857142857013,-11.904761904761136 L -7.142857142856899,-7.142857142856455 L -7.142857142856784,-2.380952380951774 L -11.904761904761466,-2.3809523809516597 L -16.666666666666146,-2.3809523809515456 L -16.66666666666626,-7.142857142856227 L -21.42857142857094,-7.142857142856112 L -21.428571428571058,-11.904761904760793 L -16.666666666666377,-11.904761904760907 L -11.904761904761694,-11.904761904761022 L -11.90476190476158,-7.14285714285634 L -11.904761904761466,-2.3809523809516597 L -16.666666666666146,-2.3809523809515456 L -16.666666666666032,2.3809523809531354 L -21.428571428570713,2.3809523809532456 L -21.428571428570827,-2.3809523809514355 L -21.42857142857094,-7.1428571428561165 L -21.428571428571058,-11.904761904760797 L -21.42857142857117,-16.666666666665478 L -16.66666666666649,-16.66666666666559 L -16.666666666666604,-21.428571428570272 L -11.904761904761923,-21.42857142857039 L -11.90476190476181,-16.66666666666571 L -11.904761904761694,-11.904761904761026 L -7.142857142857013,-11.90476190476114 L -2.380952380952332,-11.904761904761255 L -2.380952380952218,-7.142857142856573 L 2.380952380952463,-7.142857142856688 L 2.380952380952577,-2.3809523809520066 L -2.380952380952104,-2.380952380951892 L -7.142857142856784,-2.380952380951778 L -11.904761904761466,-2.3809523809516637 L -16.666666666666146,-2.3809523809515496 L -16.66666666666626,-7.142857142856231 L -21.42857142857094,-7.1428571428561165 L -21.428571428571058,-11.904761904760797 L -16.666666666666377,-11.904761904760912 L -11.904761904761694,-11.904761904761026 L -11.90476190476158,-7.142857142856345 L -11.904761904761466,-2.3809523809516637 L -16.666666666666146,-2.3809523809515496 L -16.666666666666032,2.380952380953127 L -21.428571428570713,2.3809523809532456 L -21.428571428570834,-2.3809523809514355 L -21.42857142857095,-7.1428571428561165 L -26.19047619047563,-7.142857142856002 L -30.95238095238031,-7.142857142855888 L -30.952380952380427,-11.90476190476057 L -35.71428571428511,-11.904761904760456 L -35.714285714285225,-16.666666666665137 L -30.952380952380544,-16.666666666665254 L -26.190476190475863,-16.66666666666537 L -26.190476190475746,-11.904761904760692 L -26.19047619047563,-7.142857142856011 L -30.95238095238031,-7.142857142855893 L -30.95238095238019,-2.380952380951211 L -35.71428571428487,-2.3809523809510926 L -35.71428571428499,-7.142857142855774 L -35.71428571428511,-11.904761904760456 L -30.952380952380427,-11.904761904760573 L -26.190476190475746,-11.904761904760692 L -26.19047619047563,-7.142857142856011 L -21.428571428570947,-7.142857142856129 L -21.428571428570827,-2.380952380951448 L -26.190476190475508,-2.3809523809513298 L -30.95238095238019,-2.380952380951211 L -35.71428571428487,-2.3809523809510926 L -40.47619047618955,-2.3809523809509745 L -40.47619047618967,-7.1428571428556555 L -45.23809523809435,-7.142857142855537 L -45.23809523809447,-11.904761904760218 L -40.476190476189785,-11.904761904760337 L -35.71428571428511,-11.904761904760456 L -35.71428571428499,-7.142857142855774 L -35.71428571428487,-2.3809523809510926 L -40.47619047618955,-2.3809523809509745 L -40.47619047618944,2.3809523809537025 L -45.23809523809412,2.3809523809538207 L -45.23809523809423,-2.3809523809508604 L -45.23809523809435,-7.142857142855541 L -45.23809523809447,-11.904761904760223 L -45.23809523809459,-16.666666666664902 L -40.476190476189906,-16.666666666665023 L -40.47619047619003,-21.428571428569704 L -35.714285714285346,-21.42857142856982 L -35.714285714285225,-16.66666666666514 L -35.71428571428511,-11.90476190476046 L -40.476190476189785,-11.904761904760337 L -45.23809523809447,-11.904761904760214 L -45.23809523809459,-16.666666666664895 L -49.99999999999927,-16.66666666666477 L -49.99999999999939,-21.42857142856945 L -45.23809523809471,-21.428571428569576 L -40.47619047619003,-21.428571428569693 L -40.47619047619014,-26.190476190474374 L -40.47619047619026,-30.952380952379055 L -35.71428571428558,-30.95238095237918 L -35.7142857142857,-35.71428571428386 L -30.95238095238102,-35.71428571428398 L -30.9523809523809,-30.9523809523793 L -30.952380952380782,-26.19047619047462 L -35.71428571428546,-26.190476190474495 L -40.47619047619014,-26.190476190474374 L -40.47619047619026,-30.952380952379055 L -45.23809523809494,-30.952380952378935 L -45.23809523809506,-35.71428571428361 L -40.47619047619038,-35.71428571428374 L -35.7142857142857,-35.71428571428386 L -35.71428571428557,-30.95238095237918 L -35.714285714285445,-26.1904761904745 L -40.476190476190126,-26.190476190474374 L -40.47619047619,-21.428571428569693 L -45.23809523809468,-21.428571428569573 L -45.23809523809481,-26.190476190474254 L -45.238095238094935,-30.952380952378935 L -45.23809523809506,-35.71428571428361 L -45.23809523809519,-40.4761904761883 L -40.47619047619051,-40.47619047618842 L -40.47619047619064,-45.2380952380931 L -35.71428571428596,-45.23809523809323 L -35.71428571428583,-40.47619047618855 L -35.7142857142857,-35.71428571428387 L -40.47619047619038,-35.71428571428374 L -45.23809523809506,-35.71428571428361 L -45.23809523809519,-40.47619047618829 L -49.99999999999987,-40.47619047618817 L -50.0,-45.23809523809285 L -45.23809523809532,-45.23809523809298 L -40.47619047619064,-45.2380952380931 L -35.71428571428596,-45.23809523809323 L -30.952380952381272,-45.23809523809335 L -30.952380952381144,-40.47619047618867 L -26.190476190476463,-40.47619047618879 L -26.19047619047634,-35.71428571428412 L -30.95238095238102,-35.71428571428399 L -35.7142857142857,-35.71428571428387 L -35.71428571428583,-40.47619047618855 L -35.71428571428596,-45.23809523809323 L -30.952380952381272,-45.23809523809335 L -30.9523809523814,-49.99999999999803 L -26.19047619047672,-49.99999999999816 L -26.19047619047659,-45.23809523809348 L -26.190476190476463,-40.4761904761888 L -21.428571428571782,-40.476190476188926 L -16.6666666666671,-40.476190476189046 L -16.666666666666977,-35.714285714284365 L -11.904761904762294,-35.71428571428449 L -11.904761904762168,-30.952380952379812 L -16.66666666666685,-30.952380952379688 L -21.42857142857153,-30.95238095237956 L -21.428571428571658,-35.71428571428424 L -21.428571428571782,-40.47619047618892 L -16.6666666666671,-40.476190476189046 L -16.66666666666723,-45.23809523809373 L -11.904761904762548,-45.238095238093855 L -11.904761904762422,-40.476190476189174 L -11.904761904762294,-35.71428571428449 L -16.666666666666977,-35.714285714284365 L -21.428571428571658,-35.71428571428424 L -21.428571428571782,-40.47619047618892 L -26.190476190476463,-40.47619047618879 L -26.19047619047659,-45.23809523809347 L -21.42857142857191,-45.2380952380936 L -16.66666666666723,-45.23809523809373 L -11.904761904762548,-45.238095238093855 L -7.142857142857867,-45.238095238093976 L -7.142857142857741,-40.476190476189295 L -2.3809523809530595,-40.47619047618944 L -2.3809523809529307,-35.71428571428475 L -7.142857142857614,-35.71428571428462 L -11.904761904762294,-35.71428571428449 L -16.666666666666977,-35.714285714284365 L -21.428571428571658,-35.71428571428423 L -21.42857142857179,-40.47619047618892 L -26.190476190476474,-40.47619047618879 L -26.1904761904766,-45.23809523809347 L -21.428571428571917,-45.2380952380936 L -16.666666666667236,-45.23809523809373 L -11.904761904762557,-45.238095238093855 L -7.142857142857876,-45.238095238093976 L -7.1428571428577445,-40.476190476189295 L -2.380952380953064,-40.47619047618944 L -2.3809523809529347,-35.714285714284756 L -7.142857142857614,-35.71428571428462 L -11.904761904762294,-35.71428571428449 L -11.904761904762426,-40.476190476189174 L -11.904761904762557,-45.238095238093855 L -7.142857142857876,-45.238095238093976 L -7.142857142858007,-49.99999999999866 L -2.380952380953326,-49.9999999999988 L -2.380952380953195,-45.23809523809412 L -2.380952380953064,-40.47619047618944 L 2.380952380951617,-40.47619047618957 L 7.142857142856299,-40.47619047618969 L 7.142857142856429,-35.71428571428501 L 11.904761904761111,-35.71428571428515 L 11.90476190476124,-30.952380952380466 L 7.142857142856561,-30.952380952380334 L 2.3809523809518796,-30.952380952380203 L 2.3809523809517485,-35.714285714284884 L 2.380952380951617,-40.47619047618957 L 7.142857142856299,-40.47619047618969 L 7.142857142856167,-45.238095238094374 L 11.904761904760848,-45.2380952380945 L 11.90476190476098,-40.47619047618982 L 11.904761904761113,-35.71428571428515 L 7.142857142856432,-35.71428571428501 L 2.3809523809517503,-35.71428571428488 L 2.380952380951617,-40.47619047618956 L -2.380952380953064,-40.47619047618944 L -2.380952380953197,-45.23809523809412 L 2.380952380951484,-45.23809523809424 L 7.142857142856165,-45.238095238094374 L 11.904761904760846,-45.23809523809451 L 16.666666666665527,-45.23809523809464 L 16.66666666666566,-40.476190476189956 L 21.42857142857034,-40.47619047619009 L 21.42857142857047,-35.71428571428541 L 16.666666666665794,-35.71428571428528 L 11.904761904761113,-35.71428571428515 " />
    </g>
</svg>
