<?xml version="1.0" encoding="UTF-8"?>
<!DOCTYPE svg PUBLIC "-//W3C//DTD SVG 1.1//EN"
    "http://www.w3.org/Graphics/SVG/1.1/DTD/svg11.dtd">

<svg xmlns="http://www.w3.org/2000/svg" xmlns:xlink="http://www.w3.org/1999/xlink" version="1.1" width="499.9999999999998" height="500" viewBox="-50.39999999999998 -50.39999999999999 64.79999999999998 64.80000000000001">
    <g>
        <rect x="-50.39999999999998" y="-50.39999999999999" width="64.79999999999998" height="64.80000000000001" fill="#CBD4C2" />
        <path style="fill:none;stroke:#50514F;stroke-width:0.1px;stroke-linecap:square" d="M 0.0,0.0 L 6.123233995736766e-17,-1.0 " />
        <path style="fill:none;stroke:#50514F;stroke-width:0.1px;stroke-linecap:square" d="M -0.9999999999999999,-1.0000000000000002 L -0.9999999999999998,-2.0 L -0.9999999999999997,-3.0 L -1.9999999999999996,-3.0 L -1.9999999999999998,-2.0 L -2.0,-1.0 L -1.0,-0.9999999999999998 " />
        <path style="fill:none;stroke:#50514F;stroke-width:0.1px;stroke-linecap:square" d="M 0.0,-0.9999999999999996 L 3.061616997868383e-16,-1.9999999999999996 L 6.123233995736766e-16,-2.9999999999999996 " />
        <path style="fill:none;stroke:#50514F;stroke-width:0.1px;stroke-linecap:square" d="M 1.0000000000000007,-2.999999999999999 L 1.0000000000000009,-3.999999999999999 L 1.000000000000001,-4.999999999999999 L 2.000000000000001,-4.999999999999999 L 2.000000000000001,-3.999999999999999 L 2.000000000000001,-2.999999999999999 L 1.0000000000000009,-2.999999999999999 " />
        <path style="fill:none;stroke:#50514F;stroke-width:0.1px;stroke-linecap:square" d="M 8.881784197001252e-16,-2.999999999999999 L 9.494107596574928e-16,-3.999999999999999 L 1.0106430996148604e-15,-4.999999999999999 L 1.071875439572228e-15,-5.999999999999999 " />
        <path style="fill:none;stroke:#50514F;stroke-width:0.1px;stroke-linecap:square" d="M -0.9999999999999989,-5.999999999999999 L -0.9999999999999988,-6.999999999999999 " />
        <path style="fill:none;stroke:#50514F;stroke-width:0.1px;stroke-linecap:square" d="M -1.9999999999999987,-6.999999999999999 L -1.9999999999999987,-7.999999999999999 L -1.9999999999999987,-9.0 L -2.9999999999999987,-9.0 L -2.9999999999999987,-8.0 L -2.9999999999999987,-7.0 L -1.9999999999999987,-7.0 " />
        <path style="fill:none;stroke:#50514F;stroke-width:0.1px;stroke-linecap:square" d="M -0.9999999999999987,-7.0 L -0.9999999999999983,-8.0 L -0.999999999999998,-9.0 " />
        <path style="fill:none;stroke:#50514F;stroke-width:0.1px;stroke-linecap:square" d="M 1.9984014443252818e-15,-9.0 L 2.30456314411212e-15,-10.0 L 2.6107248438989583e-15,-11.0 L 1.0000000000000027,-11.0 L 1.0000000000000024,-10.0 L 1.0000000000000022,-9.0 L 2.220446049250313e-15,-9.0 " />
        <path style="fill:none;stroke:#50514F;stroke-width:0.1px;stroke-linecap:square" d="M -0.9999999999999978,-9.0 L -0.9999999999999977,-10.0 L -0.9999999999999976,-11.0 L -0.9999999999999974,-12.0 L -0.9999999999999973,-13.0 " />
        <path style="fill:none;stroke:#50514F;stroke-width:0.1px;stroke-linecap:square" d="M -1.9999999999999973,-13.0 L -1.9999999999999973,-14.0 L -1.9999999999999973,-15.0 L -2.9999999999999973,-15.0 L -2.9999999999999973,-14.0 L -2.9999999999999973,-13.0 L -1.9999999999999973,-13.0 " />
        <path style="fill:none;stroke:#50514F;stroke-width:0.1px;stroke-linecap:square" d="M -0.9999999999999973,-13.0 L -0.999999999999997,-14.0 L -0.9999999999999967,-15.0 " />
        <path style="fill:none;stroke:#50514F;stroke-width:0.1px;stroke-linecap:square" d="M 3.3306690738754696e-15,-15.0 L 3.636830773662308e-15,-16.0 L 3.942992473449147e-15,-17.0 L 1.000000000000004,-17.0 L 1.0000000000000038,-16.0 L 1.0000000000000036,-15.0 L 3.552713678800501e-15,-15.0 " />
        <path style="fill:none;stroke:#50514F;stroke-width:0.1px;stroke-linecap:square" d="M -0.9999999999999964,-15.0 L -0.9999999999999963,-16.0 L -0.9999999999999962,-17.0 L -0.9999999999999961,-18.0 L -1.999999999999996,-18.0 " />
        <path style="fill:none;stroke:#50514F;stroke-width:0.1px;stroke-linecap:square" d="M -1.9999999999999962,-17.0 L -2.9999999999999964,-17.0 L -3.9999999999999964,-17.0 L -3.9999999999999964,-16.0 L -2.9999999999999964,-16.0 L -1.9999999999999964,-16.0 L -1.9999999999999962,-17.0 " />
        <path style="fill:none;stroke:#50514F;stroke-width:0.1px;stroke-linecap:square" d="M -1.999999999999996,-18.0 L -2.999999999999996,-18.0 L -3.999999999999996,-18.0 " />
        <path style="fill:none;stroke:#50514F;stroke-width:0.1px;stroke-linecap:square" d="M -3.9999999999999956,-19.0 L -4.999999999999996,-19.0 L -5.999999999999996,-19.0 L -5.999999999999996,-20.0 L -4.999999999999996,-20.0 L -3.9999999999999956,-20.0 L -3.9999999999999956,-19.0 " />
        <path style="fill:none;stroke:#50514F;stroke-width:0.1px;stroke-linecap:square" d="M -3.9999999999999956,-18.0 L -4.999999999999996,-18.0 L -5.999999999999996,-18.0 L -6.999999999999996,-18.0 L -6.999999999999996,-17.0 " />
        <path style="fill:none;stroke:#50514F;stroke-width:0.1px;stroke-linecap:square" d="M -5.999999999999996,-17.0 L -5.999999999999996,-16.0 L -5.999999999999996,-15.0 L -4.999999999999996,-15.0 L -4.999999999999996,-16.0 L -4.999999999999996,-17.0 L -5.999999999999996,-17.0 " />
        <path style="fill:none;stroke:#50514F;stroke-width:0.1px;stroke-linecap:square" d="M -6.999999999999996,-17.0 L -6.999999999999996,-16.0 L -6.999999999999996,-15.0 " />
        <path style="fill:none;stroke:#50514F;stroke-width:0.1px;stroke-linecap:square" d="M -7.999999999999996,-15.0 L -7.999999999999996,-14.0 L -7.999999999999996,-13.0 L -8.999999999999996,-13.0 L -8.999999999999996,-14.0 L -8.999999999999996,-15.0 L -7.9999999999999964,-15.0 " />
        <path style="fill:none;stroke:#50514F;stroke-width:0.1px;stroke-linecap:square" d="M -6.9999999999999964,-15.0 L -6.9999999999999964,-14.0 L -6.9999999999999964,-13.0 L -6.9999999999999964,-12.0 L -6.9999999999999964,-11.0 " />
        <path style="fill:none;stroke:#50514F;stroke-width:0.1px;stroke-linecap:square" d="M -5.9999999999999964,-11.0 L -5.9999999999999964,-10.0 L -5.9999999999999964,-9.0 L -4.9999999999999964,-9.0 L -4.9999999999999964,-10.0 L -4.9999999999999964,-11.0 L -5.9999999999999964,-11.0 " />
        <path style="fill:none;stroke:#50514F;stroke-width:0.1px;stroke-linecap:square" d="M -6.9999999999999964,-11.0 L -6.9999999999999964,-10.0 L -6.9999999999999964,-9.0 " />
        <path style="fill:none;stroke:#50514F;stroke-width:0.1px;stroke-linecap:square" d="M -7.9999999999999964,-9.0 L -7.9999999999999964,-8.0 L -7.9999999999999964,-7.0 L -8.999999999999996,-7.0 L -8.999999999999996,-8.0 L -8.999999999999996,-9.0 L -7.9999999999999964,-9.0 " />
        <path style="fill:none;stroke:#50514F;stroke-width:0.1px;stroke-linecap:square" d="M -6.9999999999999964,-9.0 L -6.9999999999999964,-8.0 L -6.9999999999999964,-7.0 L -6.9999999999999964,-6.0 L -5.9999999999999964,-6.0 " />
        <path style="fill:none;stroke:#50514F;stroke-width:0.1px;stroke-linecap:square" d="M -5.9999999999999964,-7.0 L -4.9999999999999964,-7.0 L -3.9999999999999964,-7.0 L -3.999999999999996,-8.0 L -4.9999999999999964,-8.0 L -5.9999999999999964,-8.0 L -5.9999999999999964,-7.0 " />
        <path style="fill:none;stroke:#50514F;stroke-width:0.1px;stroke-linecap:square" d="M -5.9999999999999964,-6.0 L -4.9999999999999964,-5.999999999999999 L -3.9999999999999964,-5.999999999999998 " />
        <path style="fill:none;stroke:#50514F;stroke-width:0.1px;stroke-linecap:square" d="M -3.999999999999997,-4.999999999999998 L -2.999999999999997,-4.999999999999997 L -1.999999999999997,-4.9999999999999964 L -1.9999999999999973,-3.9999999999999964 L -2.9999999999999973,-3.999999999999997 L -3.9999999999999973,-3.9999999999999973 L -3.999999999999997,-4.999999999999997 " />
        <path style="fill:none;stroke:#50514F;stroke-width:0.1px;stroke-linecap:square" d="M -3.9999999999999964,-5.999999999999997 L -2.9999999999999964,-5.999999999999997 L -1.9999999999999964,-5.999999999999997 L -0.9999999999999964,-5.999999999999997 " />
        <path style="fill:none;stroke:#50514F;stroke-width:0.1px;stroke-linecap:square" d="M 3.552713678800501e-15,-5.999999999999997 L 3.858875378587339e-15,-6.999999999999997 " />
        <path style="fill:none;stroke:#50514F;stroke-width:0.1px;stroke-linecap:square" d="M -0.9999999999999961,-6.999999999999997 L -0.9999999999999958,-7.999999999999997 L -0.9999999999999954,-8.999999999999996 L -1.9999999999999956,-8.999999999999996 L -1.999999999999996,-7.9999999999999964 L -1.9999999999999964,-6.9999999999999964 L -0.9999999999999964,-6.999999999999996 " />
        <path style="fill:none;stroke:#50514F;stroke-width:0.1px;stroke-linecap:square" d="M 3.552713678800501e-15,-6.999999999999995 L 4.10380473841681e-15,-7.999999999999995 L 4.654895798033119e-15,-8.999999999999995 " />
        <path style="fill:none;stroke:#50514F;stroke-width:0.1px;stroke-linecap:square" d="M 1.0000000000000047,-8.999999999999995 L 1.000000000000005,-9.999999999999995 L 1.0000000000000056,-10.999999999999995 L 2.0000000000000053,-10.999999999999995 L 2.000000000000005,-9.999999999999995 L 2.0000000000000044,-8.999999999999995 L 1.0000000000000044,-8.999999999999995 " />
        <path style="fill:none;stroke:#50514F;stroke-width:0.1px;stroke-linecap:square" d="M 4.440892098500626e-15,-8.999999999999995 L 4.747053798287464e-15,-9.999999999999995 L 5.053215498074302e-15,-10.999999999999995 L 5.35937719786114e-15,-11.999999999999995 L 5.665538897647978e-15,-12.999999999999995 " />
        <path style="fill:none;stroke:#50514F;stroke-width:0.1px;stroke-linecap:square" d="M -0.9999999999999943,-12.999999999999995 L -0.999999999999994,-13.999999999999995 L -0.9999999999999937,-14.999999999999995 L -1.9999999999999938,-14.999999999999995 L -1.9999999999999942,-13.999999999999995 L -1.9999999999999947,-12.999999999999995 L -0.9999999999999947,-12.999999999999995 " />
        <path style="fill:none;stroke:#50514F;stroke-width:0.1px;stroke-linecap:square" d="M 5.329070518200751e-15,-12.999999999999995 L 5.88016157781706e-15,-13.999999999999995 L 6.431252637433369e-15,-14.999999999999995 " />
        <path style="fill:none;stroke:#50514F;stroke-width:0.1px;stroke-linecap:square" d="M 1.0000000000000064,-14.999999999999995 L 1.0000000000000069,-15.999999999999995 L 1.0000000000000073,-16.999999999999993 L 2.000000000000007,-16.999999999999993 L 2.0000000000000067,-15.999999999999993 L 2.000000000000006,-14.999999999999993 L 1.0000000000000062,-14.999999999999993 " />
        <path style="fill:none;stroke:#50514F;stroke-width:0.1px;stroke-linecap:square" d="M 6.217248937900877e-15,-14.999999999999993 L 6.5234106376877145e-15,-15.999999999999993 L 6.829572337474552e-15,-16.999999999999993 L 7.13573403726139e-15,-17.999999999999993 " />
        <path style="fill:none;stroke:#50514F;stroke-width:0.1px;stroke-linecap:square" d="M 1.000000000000007,-17.999999999999993 L 1.0000000000000073,-18.999999999999993 " />
        <path style="fill:none;stroke:#50514F;stroke-width:0.1px;stroke-linecap:square" d="M 7.327471962526033e-15,-18.999999999999993 L 7.633633662312871e-15,-19.999999999999993 L 7.939795362099709e-15,-20.999999999999993 L -0.999999999999992,-20.999999999999993 L -0.9999999999999925,-19.999999999999993 L -0.9999999999999929,-18.999999999999993 L 7.105427357601002e-15,-18.999999999999993 " />
        <path style="fill:none;stroke:#50514F;stroke-width:0.1px;stroke-linecap:square" d="M 1.000000000000007,-18.999999999999993 L 1.0000000000000075,-19.999999999999993 L 1.000000000000008,-20.999999999999993 " />
        <path style="fill:none;stroke:#50514F;stroke-width:0.1px;stroke-linecap:square" d="M 2.000000000000008,-20.999999999999993 L 2.0000000000000084,-21.999999999999993 L 2.000000000000009,-22.999999999999993 L 3.000000000000009,-22.999999999999993 L 3.0000000000000084,-21.999999999999993 L 3.000000000000008,-20.999999999999993 L 2.000000000000008,-20.999999999999993 " />
        <path style="fill:none;stroke:#50514F;stroke-width:0.1px;stroke-linecap:square" d="M 1.000000000000008,-20.999999999999993 L 1.0000000000000082,-21.999999999999993 L 1.0000000000000084,-22.999999999999993 L 1.0000000000000087,-23.999999999999993 L 1.0000000000000089,-24.999999999999993 " />
        <path style="fill:none;stroke:#50514F;stroke-width:0.1px;stroke-linecap:square" d="M 8.881784197001252e-15,-24.999999999999993 L 9.18794589678809e-15,-25.999999999999993 L 9.494107596574928e-15,-26.999999999999993 L -0.9999999999999905,-26.999999999999993 L -0.9999999999999909,-25.999999999999993 L -0.9999999999999913,-24.999999999999993 L 8.659739592076221e-15,-24.999999999999993 " />
        <path style="fill:none;stroke:#50514F;stroke-width:0.1px;stroke-linecap:square" d="M 1.0000000000000087,-24.999999999999993 L 1.000000000000009,-25.999999999999993 L 1.0000000000000095,-26.999999999999993 " />
        <path style="fill:none;stroke:#50514F;stroke-width:0.1px;stroke-linecap:square" d="M 2.0000000000000098,-26.999999999999993 L 2.00000000000001,-27.999999999999993 L 2.0000000000000107,-28.999999999999993 L 3.0000000000000107,-28.999999999999993 L 3.00000000000001,-27.999999999999993 L 3.0000000000000098,-26.999999999999993 L 2.0000000000000098,-26.999999999999993 " />
        <path style="fill:none;stroke:#50514F;stroke-width:0.1px;stroke-linecap:square" d="M 1.0000000000000098,-26.999999999999993 L 1.00000000000001,-27.999999999999993 L 1.0000000000000102,-28.999999999999993 L 1.0000000000000104,-29.999999999999993 L 2.0000000000000107,-29.999999999999993 " />
        <path style="fill:none;stroke:#50514F;stroke-width:0.1px;stroke-linecap:square" d="M 2.000000000000011,-30.999999999999993 L 3.000000000000011,-30.999999999999993 L 4.000000000000011,-30.999999999999993 L 4.000000000000011,-31.999999999999993 L 3.0000000000000107,-31.999999999999993 L 2.0000000000000107,-31.999999999999993 L 2.00000000000001,-30.999999999999993 " />
        <path style="fill:none;stroke:#50514F;stroke-width:0.1px;stroke-linecap:square" d="M 2.0000000000000098,-29.999999999999993 L 3.0000000000000098,-29.999999999999993 L 4.00000000000001,-29.999999999999993 " />
        <path style="fill:none;stroke:#50514F;stroke-width:0.1px;stroke-linecap:square" d="M 4.00000000000001,-28.999999999999993 L 5.00000000000001,-28.999999999999993 L 6.00000000000001,-28.999999999999993 L 6.00000000000001,-27.999999999999993 L 5.00000000000001,-27.999999999999993 L 4.00000000000001,-27.999999999999993 L 4.00000000000001,-28.999999999999993 " />
        <path style="fill:none;stroke:#50514F;stroke-width:0.1px;stroke-linecap:square" d="M 4.00000000000001,-29.999999999999993 L 5.00000000000001,-29.999999999999993 L 6.00000000000001,-29.999999999999993 L 7.00000000000001,-29.999999999999993 L 7.00000000000001,-28.999999999999993 " />
        <path style="fill:none;stroke:#50514F;stroke-width:0.1px;stroke-linecap:square" d="M 8.00000000000001,-28.999999999999993 L 8.00000000000001,-27.999999999999993 L 8.00000000000001,-26.999999999999993 L 9.00000000000001,-26.999999999999993 L 9.00000000000001,-27.999999999999993 L 9.00000000000001,-28.999999999999993 L 8.00000000000001,-28.999999999999993 " />
        <path style="fill:none;stroke:#50514F;stroke-width:0.1px;stroke-linecap:square" d="M 7.000000000000011,-28.999999999999993 L 7.000000000000011,-27.999999999999993 L 7.000000000000011,-26.999999999999993 " />
        <path style="fill:none;stroke:#50514F;stroke-width:0.1px;stroke-linecap:square" d="M 6.000000000000011,-26.999999999999993 L 6.000000000000011,-25.999999999999993 L 6.000000000000011,-24.999999999999993 L 5.000000000000011,-24.999999999999993 L 5.000000000000011,-25.999999999999993 L 5.000000000000011,-26.999999999999993 L 6.000000000000011,-26.999999999999993 " />
        <path style="fill:none;stroke:#50514F;stroke-width:0.1px;stroke-linecap:square" d="M 7.000000000000011,-26.999999999999993 L 7.000000000000011,-25.999999999999993 L 7.000000000000011,-24.999999999999993 L 7.000000000000011,-23.999999999999993 L 7.000000000000011,-22.999999999999993 " />
        <path style="fill:none;stroke:#50514F;stroke-width:0.1px;stroke-linecap:square" d="M 8.00000000000001,-22.999999999999993 L 8.00000000000001,-21.999999999999993 L 8.00000000000001,-20.999999999999993 L 9.00000000000001,-20.999999999999993 L 9.00000000000001,-21.999999999999993 L 9.00000000000001,-22.999999999999993 L 8.00000000000001,-22.999999999999993 " />
        <path style="fill:none;stroke:#50514F;stroke-width:0.1px;stroke-linecap:square" d="M 7.000000000000011,-22.999999999999993 L 7.000000000000011,-21.999999999999993 L 7.000000000000011,-20.999999999999993 " />
        <path style="fill:none;stroke:#50514F;stroke-width:0.1px;stroke-linecap:square" d="M 6.000000000000011,-20.999999999999993 L 6.000000000000011,-19.999999999999993 L 6.000000000000011,-18.999999999999993 L 5.000000000000011,-18.999999999999993 L 5.000000000000011,-19.999999999999993 L 5.000000000000011,-20.999999999999993 L 6.000000000000011,-20.999999999999993 " />
        <path style="fill:none;stroke:#50514F;stroke-width:0.1px;stroke-linecap:square" d="M 7.000000000000011,-20.999999999999993 L 7.000000000000011,-19.999999999999993 L 7.000000000000011,-18.999999999999993 L 7.000000000000011,-17.999999999999993 L 6.000000000000011,-17.999999999999993 " />
        <path style="fill:none;stroke:#50514F;stroke-width:0.1px;stroke-linecap:square" d="M 6.000000000000011,-16.999999999999993 L 5.000000000000011,-16.999999999999993 L 4.000000000000011,-16.999999999999993 L 4.000000000000011,-15.999999999999993 L 5.000000000000011,-15.999999999999993 L 6.000000000000011,-15.999999999999993 L 6.000000000000011,-16.999999999999993 " />
        <path style="fill:none;stroke:#50514F;stroke-width:0.1px;stroke-linecap:square" d="M 6.000000000000011,-17.999999999999993 L 5.000000000000011,-17.999999999999993 L 4.000000000000011,-17.999999999999993 " />
        <path style="fill:none;stroke:#50514F;stroke-width:0.1px;stroke-linecap:square" d="M 4.000000000000011,-18.999999999999993 L 3.0000000000000107,-18.999999999999993 L 2.0000000000000107,-18.999999999999993 L 2.000000000000011,-19.999999999999993 L 3.000000000000011,-19.999999999999993 L 4.000000000000011,-19.999999999999993 L 4.000000000000011,-18.999999999999993 " />
        <path style="fill:none;stroke:#50514F;stroke-width:0.1px;stroke-linecap:square" d="M 4.000000000000011,-17.999999999999993 L 3.0000000000000107,-17.999999999999993 L 2.0000000000000107,-17.999999999999993 L 1.0000000000000107,-17.999999999999993 " />
        <path style="fill:none;stroke:#50514F;stroke-width:0.1px;stroke-linecap:square" d="M 1.0658141036401503e-14,-17.999999999999993 L 1.071937337635887e-14,-18.999999999999993 " />
        <path style="fill:none;stroke:#50514F;stroke-width:0.1px;stroke-linecap:square" d="M -0.9999999999999892,-18.999999999999993 L -0.9999999999999891,-19.999999999999993 L -0.999999999999989,-20.999999999999993 L -1.999999999999989,-20.999999999999993 L -1.9999999999999891,-19.999999999999993 L -1.9999999999999893,-18.999999999999993 L -0.9999999999999893,-18.999999999999993 " />
        <path style="fill:none;stroke:#50514F;stroke-width:0.1px;stroke-linecap:square" d="M 1.0658141036401503e-14,-18.999999999999993 L 1.096430273618834e-14,-19.999999999999993 L 1.1270464435975179e-14,-20.999999999999993 " />
        <path style="fill:none;stroke:#50514F;stroke-width:0.1px;stroke-linecap:square" d="M 1.0000000000000113,-20.999999999999993 L 1.0000000000000115,-21.999999999999993 L 1.0000000000000118,-22.999999999999993 L 2.0000000000000115,-22.999999999999993 L 2.0000000000000115,-21.999999999999993 L 2.0000000000000115,-20.999999999999993 L 1.0000000000000115,-20.999999999999993 " />
        <path style="fill:none;stroke:#50514F;stroke-width:0.1px;stroke-linecap:square" d="M 1.1546319456101628e-14,-20.999999999999993 L 1.1607551796058996e-14,-21.999999999999993 L 1.1668784136016363e-14,-22.999999999999993 L 1.173001647597373e-14,-23.999999999999993 L 1.1791248815931098e-14,-24.999999999999993 " />
        <path style="fill:none;stroke:#50514F;stroke-width:0.1px;stroke-linecap:square" d="M -0.9999999999999882,-24.999999999999993 L -0.9999999999999881,-25.999999999999993 L -0.999999999999988,-26.999999999999993 L -1.999999999999988,-26.999999999999993 L -1.9999999999999882,-25.999999999999993 L -1.9999999999999885,-24.999999999999993 L -0.9999999999999885,-24.999999999999993 " />
        <path style="fill:none;stroke:#50514F;stroke-width:0.1px;stroke-linecap:square" d="M 1.1546319456101628e-14,-24.999999999999993 L 1.1852481155888466e-14,-25.999999999999993 L 1.2158642855675304e-14,-26.999999999999993 " />
        <path style="fill:none;stroke:#50514F;stroke-width:0.1px;stroke-linecap:square" d="M 1.0000000000000122,-26.999999999999993 L 1.0000000000000124,-27.999999999999993 L 1.0000000000000127,-28.999999999999993 L 2.0000000000000124,-28.999999999999993 L 2.0000000000000124,-27.999999999999993 L 2.0000000000000124,-26.999999999999993 L 1.0000000000000124,-26.999999999999993 " />
        <path style="fill:none;stroke:#50514F;stroke-width:0.1px;stroke-linecap:square" d="M 1.2434497875801753e-14,-26.999999999999993 L 1.2495730215759121e-14,-27.999999999999993 L 1.2556962555716488e-14,-28.999999999999993 L 1.2618194895673856e-14,-29.999999999999993 L 1.2679427235631224e-14,-30.999999999999993 " />
        <path style="fill:none;stroke:#50514F;stroke-width:0.1px;stroke-linecap:square" d="M -0.9999999999999873,-30.999999999999993 L -0.9999999999999872,-31.999999999999993 L -0.9999999999999871,-32.99999999999999 L -1.9999999999999871,-32.99999999999999 L -1.9999999999999873,-31.999999999999993 L -1.9999999999999876,-30.999999999999993 L -0.9999999999999876,-30.999999999999993 " />
        <path style="fill:none;stroke:#50514F;stroke-width:0.1px;stroke-linecap:square" d="M 1.2434497875801753e-14,-30.999999999999993 L 1.2740659575588591e-14,-31.999999999999993 L 1.3046821275375429e-14,-32.99999999999999 " />
        <path style="fill:none;stroke:#50514F;stroke-width:0.1px;stroke-linecap:square" d="M 1.000000000000013,-32.99999999999999 L 1.0000000000000133,-33.99999999999999 L 1.0000000000000135,-34.99999999999999 L 2.0000000000000133,-34.99999999999999 L 2.0000000000000133,-33.99999999999999 L 2.0000000000000133,-32.99999999999999 L 1.0000000000000133,-32.99999999999999 " />
        <path style="fill:none;stroke:#50514F;stroke-width:0.1px;stroke-linecap:square" d="M 1.3322676295501878e-14,-32.99999999999999 L 1.3383908635459246e-14,-33.99999999999999 L 1.3445140975416614e-14,-34.99999999999999 L 1.3506373315373981e-14,-35.99999999999999 L -0.9999999999999865,-35.99999999999999 " />
        <path style="fill:none;stroke:#50514F;stroke-width:0.1px;stroke-linecap:square" d="M -0.9999999999999867,-34.99999999999999 L -1.9999999999999867,-34.99999999999999 L -2.9999999999999867,-34.99999999999999 L -2.9999999999999867,-33.99999999999999 L -1.9999999999999867,-33.99999999999999 L -0.9999999999999867,-33.99999999999999 L -0.9999999999999863,-34.99999999999999 " />
        <path style="fill:none;stroke:#50514F;stroke-width:0.1px;stroke-linecap:square" d="M -0.999999999999986,-35.99999999999999 L -1.999999999999986,-35.99999999999999 L -2.999999999999986,-35.99999999999999 " />
        <path style="fill:none;stroke:#50514F;stroke-width:0.1px;stroke-linecap:square" d="M -2.9999999999999853,-36.99999999999999 L -3.9999999999999853,-36.99999999999999 L -4.999999999999986,-36.99999999999999 L -4.999999999999986,-37.99999999999999 L -3.999999999999986,-37.99999999999999 L -2.999999999999986,-37.99999999999999 L -2.999999999999986,-36.99999999999999 " />
        <path style="fill:none;stroke:#50514F;stroke-width:0.1px;stroke-linecap:square" d="M -2.999999999999986,-35.99999999999999 L -3.999999999999986,-35.99999999999999 L -4.999999999999986,-35.99999999999999 L -5.999999999999986,-35.99999999999999 " />
        <path style="fill:none;stroke:#50514F;stroke-width:0.1px;stroke-linecap:square" d="M -5.999999999999986,-34.99999999999999 L -6.999999999999986,-34.99999999999999 " />
        <path style="fill:none;stroke:#50514F;stroke-width:0.1px;stroke-linecap:square" d="M -6.999999999999986,-33.99999999999999 L -7.999999999999986,-33.99999999999999 L -8.999999999999986,-33.99999999999999 L -8.999999999999986,-32.99999999999999 L -7.999999999999986,-32.99999999999999 L -6.999999999999986,-32.99999999999999 L -6.999999999999986,-33.99999999999999 " />
        <path style="fill:none;stroke:#50514F;stroke-width:0.1px;stroke-linecap:square" d="M -6.999999999999986,-34.99999999999999 L -7.999999999999986,-34.99999999999999 L -8.999999999999986,-34.99999999999999 " />
        <path style="fill:none;stroke:#50514F;stroke-width:0.1px;stroke-linecap:square" d="M -8.999999999999986,-35.99999999999999 L -9.999999999999986,-35.99999999999999 L -10.999999999999986,-35.99999999999999 L -10.999999999999986,-36.99999999999999 L -9.999999999999986,-36.99999999999999 L -8.999999999999986,-36.99999999999999 L -8.999999999999986,-35.99999999999999 " />
        <path style="fill:none;stroke:#50514F;stroke-width:0.1px;stroke-linecap:square" d="M -8.999999999999986,-34.99999999999999 L -9.999999999999986,-34.99999999999999 L -10.999999999999986,-34.99999999999999 L -11.999999999999986,-34.99999999999999 L -12.999999999999986,-34.99999999999999 " />
        <path style="fill:none;stroke:#50514F;stroke-width:0.1px;stroke-linecap:square" d="M -12.999999999999986,-33.99999999999999 L -13.999999999999986,-33.99999999999999 L -14.999999999999986,-33.99999999999999 L -14.999999999999986,-32.99999999999999 L -13.999999999999986,-32.99999999999999 L -12.999999999999986,-32.99999999999999 L -12.999999999999986,-33.99999999999999 " />
        <path style="fill:none;stroke:#50514F;stroke-width:0.1px;stroke-linecap:square" d="M -12.999999999999986,-34.99999999999999 L -13.999999999999986,-34.99999999999999 L -14.999999999999986,-34.99999999999999 " />
        <path style="fill:none;stroke:#50514F;stroke-width:0.1px;stroke-linecap:square" d="M -14.999999999999986,-35.99999999999999 L -15.999999999999986,-35.99999999999999 L -16.999999999999986,-35.99999999999999 L -16.999999999999986,-36.99999999999999 L -15.999999999999986,-36.99999999999999 L -14.999999999999986,-36.99999999999999 L -14.999999999999986,-35.99999999999999 " />
        <path style="fill:none;stroke:#50514F;stroke-width:0.1px;stroke-linecap:square" d="M -14.999999999999986,-34.99999999999999 L -15.999999999999986,-34.99999999999999 L -16.999999999999986,-34.99999999999999 L -17.999999999999986,-34.99999999999999 L -17.999999999999986,-33.99999999999999 " />
        <path style="fill:none;stroke:#50514F;stroke-width:0.1px;stroke-linecap:square" d="M -16.999999999999986,-33.99999999999999 L -16.999999999999986,-32.99999999999999 L -16.999999999999986,-31.999999999999993 L -15.999999999999986,-31.999999999999993 L -15.999999999999986,-32.99999999999999 L -15.999999999999986,-33.99999999999999 L -16.999999999999986,-33.99999999999999 " />
        <path style="fill:none;stroke:#50514F;stroke-width:0.1px;stroke-linecap:square" d="M -17.999999999999986,-33.99999999999999 L -17.999999999999986,-32.99999999999999 L -17.999999999999986,-31.999999999999993 " />
        <path style="fill:none;stroke:#50514F;stroke-width:0.1px;stroke-linecap:square" d="M -18.999999999999986,-31.999999999999993 L -18.999999999999986,-30.999999999999993 L -18.999999999999986,-29.999999999999993 L -19.999999999999986,-29.999999999999993 L -19.999999999999986,-30.999999999999993 L -19.999999999999986,-31.999999999999993 L -18.999999999999986,-31.999999999999993 " />
        <path style="fill:none;stroke:#50514F;stroke-width:0.1px;stroke-linecap:square" d="M -17.999999999999986,-31.999999999999993 L -17.999999999999986,-30.999999999999993 L -17.999999999999986,-29.999999999999993 L -17.999999999999986,-28.999999999999993 L -16.999999999999986,-28.999999999999993 " />
        <path style="fill:none;stroke:#50514F;stroke-width:0.1px;stroke-linecap:square" d="M -16.999999999999986,-29.999999999999993 L -15.999999999999986,-29.999999999999993 L -14.999999999999986,-29.999999999999993 L -14.999999999999986,-30.999999999999993 L -15.999999999999986,-30.999999999999993 L -16.999999999999986,-30.999999999999993 L -16.999999999999986,-29.999999999999993 " />
        <path style="fill:none;stroke:#50514F;stroke-width:0.1px;stroke-linecap:square" d="M -16.999999999999986,-28.999999999999993 L -15.999999999999986,-28.999999999999993 L -14.999999999999986,-28.999999999999993 " />
        <path style="fill:none;stroke:#50514F;stroke-width:0.1px;stroke-linecap:square" d="M -14.999999999999986,-27.999999999999993 L -13.999999999999986,-27.999999999999993 L -12.999999999999986,-27.999999999999993 L -12.999999999999986,-26.999999999999993 L -13.999999999999986,-26.999999999999993 L -14.999999999999986,-26.999999999999993 L -14.999999999999986,-27.999999999999993 " />
        <path style="fill:none;stroke:#50514F;stroke-width:0.1px;stroke-linecap:square" d="M -14.999999999999986,-28.999999999999993 L -13.999999999999986,-28.999999999999993 L -12.999999999999986,-28.999999999999993 L -11.999999999999986,-28.999999999999993 L -10.999999999999986,-28.999999999999993 " />
        <path style="fill:none;stroke:#50514F;stroke-width:0.1px;stroke-linecap:square" d="M -10.999999999999986,-29.999999999999993 L -9.999999999999986,-29.999999999999993 L -8.999999999999986,-29.999999999999993 L -8.999999999999986,-30.999999999999993 L -9.999999999999986,-30.999999999999993 L -10.999999999999986,-30.999999999999993 L -10.999999999999986,-29.999999999999993 " />
        <path style="fill:none;stroke:#50514F;stroke-width:0.1px;stroke-linecap:square" d="M -10.999999999999986,-28.999999999999993 L -9.999999999999986,-28.999999999999993 L -8.999999999999986,-28.999999999999993 " />
        <path style="fill:none;stroke:#50514F;stroke-width:0.1px;stroke-linecap:square" d="M -8.999999999999986,-27.999999999999993 L -7.999999999999986,-27.999999999999993 L -6.999999999999986,-27.999999999999993 L -6.999999999999986,-26.999999999999993 L -7.999999999999986,-26.999999999999993 L -8.999999999999986,-26.999999999999993 L -8.999999999999986,-27.999999999999993 " />
        <path style="fill:none;stroke:#50514F;stroke-width:0.1px;stroke-linecap:square" d="M -8.999999999999986,-28.999999999999993 L -7.999999999999986,-28.999999999999993 L -6.999999999999986,-28.999999999999993 L -5.999999999999986,-28.999999999999993 L -5.999999999999986,-29.999999999999993 " />
        <path style="fill:none;stroke:#50514F;stroke-width:0.1px;stroke-linecap:square" d="M -6.999999999999986,-29.999999999999993 L -6.999999999999986,-30.999999999999993 L -6.999999999999986,-31.999999999999993 L -7.999999999999986,-31.999999999999993 L -7.999999999999986,-30.999999999999993 L -7.999999999999986,-29.999999999999993 L -6.999999999999986,-29.999999999999993 " />
        <path style="fill:none;stroke:#50514F;stroke-width:0.1px;stroke-linecap:square" d="M -5.999999999999986,-29.999999999999993 L -5.999999999999985,-30.999999999999993 L -5.999999999999984,-31.999999999999993 " />
        <path style="fill:none;stroke:#50514F;stroke-width:0.1px;stroke-linecap:square" d="M -4.999999999999984,-31.999999999999993 L -4.999999999999983,-32.99999999999999 L -4.999999999999982,-33.99999999999999 L -3.9999999999999822,-33.99999999999999 L -3.9999999999999827,-32.99999999999999 L -3.999999999999983,-31.999999999999993 L -4.999999999999983,-31.999999999999993 " />
        <path style="fill:none;stroke:#50514F;stroke-width:0.1px;stroke-linecap:square" d="M -5.999999999999983,-31.999999999999993 L -5.999999999999983,-32.99999999999999 L -5.999999999999983,-33.99999999999999 L -5.999999999999983,-34.99999999999999 " />
        <path style="fill:none;stroke:#50514F;stroke-width:0.1px;stroke-linecap:square" d="M -5.999999999999983,-35.99999999999999 L -6.999999999999983,-35.99999999999999 " />
        <path style="fill:none;stroke:#50514F;stroke-width:0.1px;stroke-linecap:square" d="M -6.999999999999983,-34.99999999999999 L -7.999999999999983,-34.99999999999999 L -8.999999999999982,-34.99999999999999 L -8.999999999999982,-33.99999999999999 L -7.999999999999982,-33.99999999999999 L -6.999999999999982,-33.99999999999999 L -6.999999999999981,-34.99999999999999 " />
        <path style="fill:none;stroke:#50514F;stroke-width:0.1px;stroke-linecap:square" d="M -6.9999999999999805,-35.99999999999999 L -7.9999999999999805,-35.99999999999999 L -8.99999999999998,-35.99999999999999 " />
        <path style="fill:none;stroke:#50514F;stroke-width:0.1px;stroke-linecap:square" d="M -8.99999999999998,-36.99999999999999 L -9.99999999999998,-36.99999999999999 L -10.99999999999998,-36.99999999999999 L -10.99999999999998,-37.99999999999999 L -9.99999999999998,-37.99999999999999 L -8.99999999999998,-37.99999999999999 L -8.99999999999998,-36.99999999999999 " />
        <path style="fill:none;stroke:#50514F;stroke-width:0.1px;stroke-linecap:square" d="M -8.99999999999998,-35.99999999999999 L -9.99999999999998,-35.99999999999999 L -10.99999999999998,-35.99999999999999 L -11.99999999999998,-35.99999999999999 L -12.99999999999998,-35.99999999999999 " />
        <path style="fill:none;stroke:#50514F;stroke-width:0.1px;stroke-linecap:square" d="M -12.99999999999998,-34.99999999999999 L -13.99999999999998,-34.99999999999999 L -14.99999999999998,-34.99999999999999 L -14.99999999999998,-33.99999999999999 L -13.99999999999998,-33.99999999999999 L -12.99999999999998,-33.99999999999999 L -12.99999999999998,-34.99999999999999 " />
        <path style="fill:none;stroke:#50514F;stroke-width:0.1px;stroke-linecap:square" d="M -12.99999999999998,-35.99999999999999 L -13.99999999999998,-35.99999999999999 L -14.99999999999998,-35.99999999999999 " />
        <path style="fill:none;stroke:#50514F;stroke-width:0.1px;stroke-linecap:square" d="M -14.99999999999998,-36.99999999999999 L -15.99999999999998,-36.99999999999999 L -16.99999999999998,-36.99999999999999 L -16.99999999999998,-37.99999999999999 L -15.999999999999979,-37.99999999999999 L -14.999999999999979,-37.99999999999999 L -14.999999999999979,-36.99999999999999 " />
        <path style="fill:none;stroke:#50514F;stroke-width:0.1px;stroke-linecap:square" d="M -14.999999999999979,-35.99999999999999 L -15.999999999999979,-35.99999999999999 L -16.99999999999998,-35.99999999999999 L -17.99999999999998,-35.99999999999999 " />
        <path style="fill:none;stroke:#50514F;stroke-width:0.1px;stroke-linecap:square" d="M -17.99999999999998,-36.99999999999999 L -18.99999999999998,-36.99999999999999 " />
        <path style="fill:none;stroke:#50514F;stroke-width:0.1px;stroke-linecap:square" d="M -18.99999999999998,-35.99999999999999 L -19.99999999999998,-35.99999999999999 L -20.99999999999998,-35.99999999999999 L -20.99999999999998,-34.99999999999999 L -19.99999999999998,-34.99999999999999 L -18.99999999999998,-34.99999999999999 L -18.99999999999998,-35.99999999999999 " />
        <path style="fill:none;stroke:#50514F;stroke-width:0.1px;stroke-linecap:square" d="M -18.99999999999998,-36.99999999999999 L -19.99999999999998,-36.99999999999999 L -20.99999999999998,-36.99999999999999 " />
        <path style="fill:none;stroke:#50514F;stroke-width:0.1px;stroke-linecap:square" d="M -20.99999999999998,-37.99999999999999 L -21.99999999999998,-37.99999999999999 L -22.99999999999998,-37.99999999999999 L -22.99999999999998,-38.99999999999999 L -21.99999999999998,-38.99999999999999 L -20.99999999999998,-38.99999999999999 L -20.99999999999998,-37.99999999999999 " />
        <path style="fill:none;stroke:#50514F;stroke-width:0.1px;stroke-linecap:square" d="M -20.99999999999998,-36.99999999999999 L -21.99999999999998,-36.99999999999999 L -22.99999999999998,-36.99999999999999 L -23.99999999999998,-36.99999999999999 L -24.99999999999998,-36.99999999999999 " />
        <path style="fill:none;stroke:#50514F;stroke-width:0.1px;stroke-linecap:square" d="M -24.99999999999998,-35.99999999999999 L -25.99999999999998,-35.99999999999999 L -26.99999999999998,-35.99999999999999 L -26.99999999999998,-34.99999999999999 L -25.99999999999998,-34.99999999999999 L -24.99999999999998,-34.99999999999999 L -24.99999999999998,-35.99999999999999 " />
        <path style="fill:none;stroke:#50514F;stroke-width:0.1px;stroke-linecap:square" d="M -24.99999999999998,-36.99999999999999 L -25.99999999999998,-36.99999999999999 L -26.99999999999998,-36.99999999999999 " />
        <path style="fill:none;stroke:#50514F;stroke-width:0.1px;stroke-linecap:square" d="M -26.99999999999998,-37.99999999999999 L -27.99999999999998,-37.99999999999999 L -28.99999999999998,-37.99999999999999 L -28.99999999999998,-38.99999999999999 L -27.99999999999998,-38.99999999999999 L -26.99999999999998,-38.99999999999999 L -26.99999999999998,-37.99999999999999 " />
        <path style="fill:none;stroke:#50514F;stroke-width:0.1px;stroke-linecap:square" d="M -26.99999999999998,-36.99999999999999 L -27.99999999999998,-36.99999999999999 L -28.99999999999998,-36.99999999999999 L -29.99999999999998,-36.99999999999999 L -29.99999999999998,-37.99999999999999 " />
        <path style="fill:none;stroke:#50514F;stroke-width:0.1px;stroke-linecap:square" d="M -30.99999999999998,-37.99999999999999 L -30.99999999999998,-38.99999999999999 L -30.99999999999998,-39.99999999999999 L -31.99999999999998,-39.99999999999999 L -31.99999999999998,-38.99999999999999 L -31.99999999999998,-37.99999999999999 L -30.99999999999998,-37.99999999999999 " />
        <path style="fill:none;stroke:#50514F;stroke-width:0.1px;stroke-linecap:square" d="M -29.99999999999998,-37.99999999999999 L -29.99999999999998,-38.99999999999999 L -29.99999999999998,-39.99999999999999 " />
        <path style="fill:none;stroke:#50514F;stroke-width:0.1px;stroke-linecap:square" d="M -28.99999999999998,-39.99999999999999 L -28.99999999999998,-40.99999999999999 L -28.99999999999998,-41.99999999999999 L -27.99999999999998,-41.99999999999999 L -27.99999999999998,-40.99999999999999 L -27.99999999999998,-39.99999999999999 L -28.99999999999998,-39.99999999999999 " />
        <path style="fill:none;stroke:#50514F;stroke-width:0.1px;stroke-linecap:square" d="M -29.99999999999998,-39.99999999999999 L -29.99999999999998,-40.99999999999999 L -29.99999999999998,-41.99999999999999 L -29.99999999999998,-42.99999999999999 L -28.99999999999998,-42.99999999999999 " />
        <path style="fill:none;stroke:#50514F;stroke-width:0.1px;stroke-linecap:square" d="M -28.99999999999998,-43.99999999999999 L -27.99999999999998,-43.99999999999999 L -26.99999999999998,-43.99999999999999 L -26.99999999999998,-44.99999999999999 L -27.99999999999998,-44.99999999999999 L -28.99999999999998,-44.99999999999999 L -28.99999999999998,-43.99999999999999 " />
        <path style="fill:none;stroke:#50514F;stroke-width:0.1px;stroke-linecap:square" d="M -28.99999999999998,-42.99999999999999 L -27.99999999999998,-42.99999999999999 L -26.99999999999998,-42.99999999999999 " />
        <path style="fill:none;stroke:#50514F;stroke-width:0.1px;stroke-linecap:square" d="M -26.99999999999998,-41.99999999999999 L -25.99999999999998,-41.99999999999999 L -24.99999999999998,-41.99999999999999 L -24.99999999999998,-40.99999999999999 L -25.99999999999998,-40.99999999999999 L -26.99999999999998,-40.99999999999999 L -26.99999999999998,-41.99999999999999 " />
        <path style="fill:none;stroke:#50514F;stroke-width:0.1px;stroke-linecap:square" d="M -26.99999999999998,-42.99999999999999 L -25.99999999999998,-42.99999999999999 L -24.99999999999998,-42.99999999999999 L -23.99999999999998,-42.99999999999999 L -22.99999999999998,-42.99999999999999 " />
        <path style="fill:none;stroke:#50514F;stroke-width:0.1px;stroke-linecap:square" d="M -22.99999999999998,-43.99999999999999 L -21.99999999999998,-43.99999999999999 L -20.99999999999998,-43.99999999999999 L -20.99999999999998,-44.99999999999999 L -21.99999999999998,-44.99999999999999 L -22.99999999999998,-44.99999999999999 L -22.99999999999998,-43.99999999999999 " />
        <path style="fill:none;stroke:#50514F;stroke-width:0.1px;stroke-linecap:square" d="M -22.99999999999998,-42.99999999999999 L -21.99999999999998,-42.99999999999999 L -20.99999999999998,-42.99999999999999 " />
        <path style="fill:none;stroke:#50514F;stroke-width:0.1px;stroke-linecap:square" d="M -20.99999999999998,-41.99999999999999 L -19.99999999999998,-41.99999999999999 L -18.99999999999998,-41.99999999999999 L -18.99999999999998,-40.99999999999999 L -19.99999999999998,-40.99999999999999 L -20.99999999999998,-40.99999999999999 L -20.99999999999998,-41.99999999999999 " />
        <path style="fill:none;stroke:#50514F;stroke-width:0.1px;stroke-linecap:square" d="M -20.99999999999998,-42.99999999999999 L -19.99999999999998,-42.99999999999999 L -18.99999999999998,-42.99999999999999 L -17.99999999999998,-42.99999999999999 L -17.99999999999998,-41.99999999999999 " />
        <path style="fill:none;stroke:#50514F;stroke-width:0.1px;stroke-linecap:square" d="M -16.99999999999998,-41.99999999999999 L -16.99999999999998,-40.99999999999999 L -16.99999999999998,-39.99999999999999 L -15.999999999999979,-39.99999999999999 L -15.999999999999979,-40.99999999999999 L -15.999999999999979,-41.99999999999999 L -16.99999999999998,-41.99999999999999 " />
        <path style="fill:none;stroke:#50514F;stroke-width:0.1px;stroke-linecap:square" d="M -17.99999999999998,-41.99999999999999 L -17.99999999999998,-40.99999999999999 L -17.99999999999998,-39.99999999999999 " />
        <path style="fill:none;stroke:#50514F;stroke-width:0.1px;stroke-linecap:square" d="M -18.99999999999998,-39.99999999999999 L -18.99999999999998,-38.99999999999999 L -18.99999999999998,-37.99999999999999 L -19.99999999999998,-37.99999999999999 L -19.99999999999998,-38.99999999999999 L -19.99999999999998,-39.99999999999999 L -18.99999999999998,-39.99999999999999 " />
        <path style="fill:none;stroke:#50514F;stroke-width:0.1px;stroke-linecap:square" d="M -17.99999999999998,-39.99999999999999 L -17.99999999999998,-38.99999999999999 L -17.99999999999998,-37.99999999999999 L -17.99999999999998,-36.99999999999999 " />
        <path style="fill:none;stroke:#50514F;stroke-width:0.1px;stroke-linecap:square" d="M -17.99999999999998,-35.99999999999999 L -18.99999999999998,-35.99999999999999 " />
        <path style="fill:none;stroke:#50514F;stroke-width:0.1px;stroke-linecap:square" d="M -18.99999999999998,-34.99999999999999 L -19.99999999999998,-34.99999999999999 L -20.99999999999998,-34.99999999999999 L -20.99999999999998,-33.99999999999999 L -19.99999999999998,-33.99999999999999 L -18.99999999999998,-33.99999999999999 L -18.99999999999998,-34.99999999999999 " />
        <path style="fill:none;stroke:#50514F;stroke-width:0.1px;stroke-linecap:square" d="M -18.99999999999998,-35.99999999999999 L -19.99999999999998,-35.99999999999999 L -20.99999999999998,-35.99999999999999 " />
        <path style="fill:none;stroke:#50514F;stroke-width:0.1px;stroke-linecap:square" d="M -20.99999999999998,-36.99999999999999 L -21.99999999999998,-36.99999999999999 L -22.99999999999998,-36.99999999999999 L -22.99999999999998,-37.99999999999999 L -21.99999999999998,-37.99999999999999 L -20.99999999999998,-37.99999999999999 L -20.99999999999998,-36.99999999999999 " />
        <path style="fill:none;stroke:#50514F;stroke-width:0.1px;stroke-linecap:square" d="M -20.99999999999998,-35.99999999999999 L -21.99999999999998,-35.99999999999999 L -22.99999999999998,-35.99999999999999 L -23.99999999999998,-35.99999999999999 L -24.99999999999998,-35.99999999999999 " />
        <path style="fill:none;stroke:#50514F;stroke-width:0.1px;stroke-linecap:square" d="M -24.99999999999998,-34.99999999999999 L -25.99999999999998,-34.99999999999999 L -26.99999999999998,-34.99999999999999 L -26.99999999999998,-33.99999999999999 L -25.99999999999998,-33.99999999999999 L -24.99999999999998,-33.99999999999999 L -24.99999999999998,-34.99999999999999 " />
        <path style="fill:none;stroke:#50514F;stroke-width:0.1px;stroke-linecap:square" d="M -24.99999999999998,-35.99999999999999 L -25.99999999999998,-35.99999999999999 L -26.99999999999998,-35.99999999999999 " />
        <path style="fill:none;stroke:#50514F;stroke-width:0.1px;stroke-linecap:square" d="M -26.99999999999998,-36.99999999999999 L -27.99999999999998,-36.99999999999999 L -28.99999999999998,-36.99999999999999 L -28.99999999999998,-37.99999999999999 L -27.99999999999998,-37.99999999999999 L -26.99999999999998,-37.99999999999999 L -26.99999999999998,-36.99999999999999 " />
        <path style="fill:none;stroke:#50514F;stroke-width:0.1px;stroke-linecap:square" d="M -26.99999999999998,-35.99999999999999 L -27.99999999999998,-35.99999999999999 L -28.99999999999998,-35.99999999999999 L -29.99999999999998,-35.99999999999999 L -30.99999999999998,-35.99999999999999 " />
        <path style="fill:none;stroke:#50514F;stroke-width:0.1px;stroke-linecap:square" d="M -30.99999999999998,-34.99999999999999 L -31.99999999999998,-34.99999999999999 L -32.99999999999998,-34.99999999999999 L -32.99999999999998,-33.99999999999999 L -31.99999999999998,-33.99999999999999 L -30.99999999999998,-33.99999999999999 L -30.99999999999998,-34.99999999999999 " />
        <path style="fill:none;stroke:#50514F;stroke-width:0.1px;stroke-linecap:square" d="M -30.99999999999998,-35.99999999999999 L -31.99999999999998,-35.99999999999999 L -32.99999999999998,-35.99999999999999 " />
        <path style="fill:none;stroke:#50514F;stroke-width:0.1px;stroke-linecap:square" d="M -32.99999999999998,-36.99999999999999 L -33.99999999999998,-36.99999999999999 L -34.99999999999998,-36.99999999999999 L -34.99999999999998,-37.99999999999999 L -33.99999999999998,-37.99999999999999 L -32.99999999999998,-37.99999999999999 L -32.99999999999998,-36.99999999999999 " />
        <path style="fill:none;stroke:#50514F;stroke-width:0.1px;stroke-linecap:square" d="M -32.99999999999998,-35.99999999999999 L -33.99999999999998,-35.99999999999999 L -34.99999999999998,-35.99999999999999 L -35.99999999999998,-35.99999999999999 L -35.99999999999998,-34.99999999999999 " />
        <path style="fill:none;stroke:#50514F;stroke-width:0.1px;stroke-linecap:square" d="M -34.99999999999998,-34.99999999999999 L -34.99999999999998,-33.99999999999999 L -34.99999999999998,-32.99999999999999 L -33.99999999999998,-32.99999999999999 L -33.99999999999998,-33.99999999999999 L -33.99999999999998,-34.99999999999999 L -34.99999999999998,-34.99999999999999 " />
        <path style="fill:none;stroke:#50514F;stroke-width:0.1px;stroke-linecap:square" d="M -35.99999999999998,-34.99999999999999 L -35.99999999999998,-33.99999999999999 L -35.99999999999998,-32.99999999999999 " />
        <path style="fill:none;stroke:#50514F;stroke-width:0.1px;stroke-linecap:square" d="M -36.99999999999998,-32.99999999999999 L -36.99999999999998,-31.999999999999993 L -36.99999999999998,-30.999999999999993 L -37.99999999999998,-30.999999999999993 L -37.99999999999998,-31.999999999999993 L -37.99999999999998,-32.99999999999999 L -36.99999999999998,-32.99999999999999 " />
        <path style="fill:none;stroke:#50514F;stroke-width:0.1px;stroke-linecap:square" d="M -35.99999999999998,-32.99999999999999 L -35.99999999999998,-31.999999999999993 L -35.99999999999998,-30.999999999999993 L -35.99999999999998,-29.999999999999993 " />
        <path style="fill:none;stroke:#50514F;stroke-width:0.1px;stroke-linecap:square" d="M -34.99999999999998,-29.999999999999993 L -34.99999999999998,-28.999999999999993 " />
        <path style="fill:none;stroke:#50514F;stroke-width:0.1px;stroke-linecap:square" d="M -33.99999999999998,-28.999999999999993 L -33.99999999999998,-27.999999999999993 L -33.99999999999998,-26.999999999999993 L -32.99999999999998,-26.999999999999993 L -32.99999999999998,-27.999999999999993 L -32.99999999999998,-28.999999999999993 L -33.99999999999998,-28.999999999999993 " />
        <path style="fill:none;stroke:#50514F;stroke-width:0.1px;stroke-linecap:square" d="M -34.99999999999998,-28.999999999999993 L -34.99999999999998,-27.999999999999993 L -34.99999999999998,-26.999999999999993 " />
        <path style="fill:none;stroke:#50514F;stroke-width:0.1px;stroke-linecap:square" d="M -35.99999999999998,-26.999999999999993 L -35.99999999999998,-25.999999999999993 L -35.99999999999998,-24.999999999999993 L -36.99999999999998,-24.999999999999993 L -36.99999999999998,-25.999999999999993 L -36.99999999999998,-26.999999999999993 L -35.99999999999998,-26.999999999999993 " />
        <path style="fill:none;stroke:#50514F;stroke-width:0.1px;stroke-linecap:square" d="M -34.99999999999998,-26.999999999999993 L -34.99999999999998,-25.999999999999993 L -34.99999999999998,-24.999999999999993 L -34.99999999999998,-23.999999999999993 L -34.99999999999998,-22.999999999999993 " />
        <path style="fill:none;stroke:#50514F;stroke-width:0.1px;stroke-linecap:square" d="M -33.99999999999998,-22.999999999999993 L -33.99999999999998,-21.999999999999993 L -33.99999999999998,-20.999999999999993 L -32.99999999999998,-20.999999999999993 L -32.99999999999998,-21.999999999999993 L -32.99999999999998,-22.999999999999993 L -33.99999999999998,-22.999999999999993 " />
        <path style="fill:none;stroke:#50514F;stroke-width:0.1px;stroke-linecap:square" d="M -34.99999999999998,-22.999999999999993 L -34.99999999999998,-21.999999999999993 L -34.99999999999998,-20.999999999999993 " />
        <path style="fill:none;stroke:#50514F;stroke-width:0.1px;stroke-linecap:square" d="M -35.99999999999998,-20.999999999999993 L -35.99999999999998,-19.999999999999993 L -35.99999999999998,-18.999999999999993 L -36.99999999999998,-18.999999999999993 L -36.99999999999998,-19.999999999999993 L -36.99999999999998,-20.999999999999993 L -35.99999999999998,-20.999999999999993 " />
        <path style="fill:none;stroke:#50514F;stroke-width:0.1px;stroke-linecap:square" d="M -34.99999999999998,-20.999999999999993 L -34.99999999999998,-19.999999999999993 L -34.99999999999998,-18.999999999999993 L -34.99999999999998,-17.999999999999993 L -33.99999999999998,-17.999999999999993 " />
        <path style="fill:none;stroke:#50514F;stroke-width:0.1px;stroke-linecap:square" d="M -33.99999999999998,-18.999999999999993 L -32.99999999999998,-18.999999999999993 L -31.99999999999998,-18.999999999999993 L -31.99999999999998,-19.999999999999993 L -32.99999999999998,-19.999999999999993 L -33.99999999999998,-19.999999999999993 L -33.99999999999998,-18.999999999999993 " />
        <path style="fill:none;stroke:#50514F;stroke-width:0.1px;stroke-linecap:square" d="M -33.99999999999998,-17.999999999999993 L -32.99999999999998,-17.999999999999993 L -31.99999999999998,-17.999999999999993 " />
        <path style="fill:none;stroke:#50514F;stroke-width:0.1px;stroke-linecap:square" d="M -31.99999999999998,-16.999999999999993 L -30.99999999999998,-16.999999999999993 L -29.99999999999998,-16.999999999999993 L -29.99999999999998,-15.999999999999993 L -30.99999999999998,-15.999999999999993 L -31.99999999999998,-15.999999999999993 L -31.99999999999998,-16.999999999999993 " />
        <path style="fill:none;stroke:#50514F;stroke-width:0.1px;stroke-linecap:square" d="M -31.99999999999998,-17.999999999999993 L -30.99999999999998,-17.999999999999993 L -29.99999999999998,-17.999999999999993 L -28.99999999999998,-17.999999999999993 L -28.99999999999998,-18.999999999999993 " />
        <path style="fill:none;stroke:#50514F;stroke-width:0.1px;stroke-linecap:square" d="M -29.99999999999998,-18.999999999999993 L -29.99999999999998,-19.999999999999993 L -29.99999999999998,-20.999999999999993 L -30.99999999999998,-20.999999999999993 L -30.99999999999998,-19.999999999999993 L -30.99999999999998,-18.999999999999993 L -29.99999999999998,-18.999999999999993 " />
        <path style="fill:none;stroke:#50514F;stroke-width:0.1px;stroke-linecap:square" d="M -28.99999999999998,-18.999999999999993 L -28.99999999999998,-19.999999999999993 L -28.99999999999998,-20.999999999999993 " />
        <path style="fill:none;stroke:#50514F;stroke-width:0.1px;stroke-linecap:square" d="M -27.99999999999998,-20.999999999999993 L -27.99999999999998,-21.999999999999993 L -27.99999999999998,-22.999999999999993 L -26.99999999999998,-22.999999999999993 L -26.99999999999998,-21.999999999999993 L -26.99999999999998,-20.999999999999993 L -27.99999999999998,-20.999999999999993 " />
        <path style="fill:none;stroke:#50514F;stroke-width:0.1px;stroke-linecap:square" d="M -28.99999999999998,-20.999999999999993 L -28.99999999999998,-21.999999999999993 L -28.99999999999998,-22.999999999999993 L -28.99999999999998,-23.999999999999993 L -28.99999999999998,-24.999999999999993 " />
        <path style="fill:none;stroke:#50514F;stroke-width:0.1px;stroke-linecap:square" d="M -29.99999999999998,-24.999999999999993 L -29.99999999999998,-25.999999999999993 L -29.99999999999998,-26.999999999999993 L -30.99999999999998,-26.999999999999993 L -30.99999999999998,-25.999999999999993 L -30.99999999999998,-24.999999999999993 L -29.99999999999998,-24.999999999999993 " />
        <path style="fill:none;stroke:#50514F;stroke-width:0.1px;stroke-linecap:square" d="M -28.99999999999998,-24.999999999999993 L -28.99999999999998,-25.999999999999993 L -28.99999999999998,-26.999999999999993 " />
        <path style="fill:none;stroke:#50514F;stroke-width:0.1px;stroke-linecap:square" d="M -27.99999999999998,-26.999999999999993 L -27.99999999999998,-27.999999999999993 L -27.99999999999998,-28.999999999999993 L -26.99999999999998,-28.999999999999993 L -26.99999999999998,-27.999999999999993 L -26.99999999999998,-26.999999999999993 L -27.99999999999998,-26.999999999999993 " />
        <path style="fill:none;stroke:#50514F;stroke-width:0.1px;stroke-linecap:square" d="M -28.99999999999998,-26.999999999999993 L -28.99999999999998,-27.999999999999993 L -28.99999999999998,-28.999999999999993 L -28.99999999999998,-29.999999999999993 L -29.99999999999998,-29.999999999999993 " />
        <path style="fill:none;stroke:#50514F;stroke-width:0.1px;stroke-linecap:square" d="M -29.99999999999998,-28.999999999999993 L -30.99999999999998,-28.999999999999993 L -31.99999999999998,-28.999999999999993 L -31.99999999999998,-27.999999999999993 L -30.99999999999998,-27.999999999999993 L -29.99999999999998,-27.999999999999993 L -29.99999999999998,-28.999999999999993 " />
        <path style="fill:none;stroke:#50514F;stroke-width:0.1px;stroke-linecap:square" d="M -29.99999999999998,-29.999999999999993 L -30.99999999999998,-29.999999999999993 L -31.99999999999998,-29.999999999999993 " />
        <path style="fill:none;stroke:#50514F;stroke-width:0.1px;stroke-linecap:square" d="M -31.99999999999998,-30.999999999999993 L -32.99999999999998,-30.999999999999993 L -33.99999999999998,-30.999999999999993 L -33.99999999999998,-31.999999999999993 L -32.99999999999998,-31.999999999999993 L -31.99999999999998,-31.999999999999993 L -31.99999999999998,-30.999999999999993 " />
        <path style="fill:none;stroke:#50514F;stroke-width:0.1px;stroke-linecap:square" d="M -31.99999999999998,-29.999999999999993 L -32.99999999999998,-29.999999999999993 L -33.99999999999998,-29.999999999999993 L -34.99999999999998,-29.999999999999993 " />
        <path style="fill:none;stroke:#50514F;stroke-width:0.1px;stroke-linecap:square" d="M -35.99999999999998,-29.999999999999993 L -35.99999999999998,-28.999999999999993 " />
        <path style="fill:none;stroke:#50514F;stroke-width:0.1px;stroke-linecap:square" d="M -34.99999999999998,-28.999999999999993 L -34.99999999999998,-27.999999999999993 L -34.99999999999998,-26.999999999999993 L -33.99999999999998,-26.999999999999993 L -33.99999999999998,-27.999999999999993 L -33.99999999999998,-28.999999999999993 L -34.99999999999998,-28.999999999999993 " />
        <path style="fill:none;stroke:#50514F;stroke-width:0.1px;stroke-linecap:square" d="M -35.99999999999998,-28.999999999999993 L -35.99999999999998,-27.999999999999993 L -35.99999999999998,-26.999999999999993 " />
        <path style="fill:none;stroke:#50514F;stroke-width:0.1px;stroke-linecap:square" d="M -36.99999999999998,-26.999999999999993 L -36.99999999999998,-25.999999999999993 L -36.99999999999998,-24.999999999999993 L -37.99999999999998,-24.999999999999993 L -37.99999999999998,-25.999999999999993 L -37.99999999999998,-26.999999999999993 L -36.99999999999998,-26.999999999999993 " />
        <path style="fill:none;stroke:#50514F;stroke-width:0.1px;stroke-linecap:square" d="M -35.99999999999998,-26.999999999999993 L -35.99999999999998,-25.999999999999993 L -35.99999999999998,-24.999999999999993 L -35.99999999999998,-23.999999999999993 L -35.99999999999998,-22.999999999999993 " />
        <path style="fill:none;stroke:#50514F;stroke-width:0.1px;stroke-linecap:square" d="M -34.99999999999998,-22.999999999999993 L -34.99999999999998,-21.999999999999993 L -34.99999999999998,-20.999999999999993 L -33.99999999999998,-20.999999999999993 L -33.99999999999998,-21.999999999999993 L -33.99999999999998,-22.999999999999993 L -34.99999999999998,-22.999999999999993 " />
        <path style="fill:none;stroke:#50514F;stroke-width:0.1px;stroke-linecap:square" d="M -35.99999999999998,-22.999999999999993 L -35.99999999999998,-21.999999999999993 L -35.99999999999998,-20.999999999999993 " />
        <path style="fill:none;stroke:#50514F;stroke-width:0.1px;stroke-linecap:square" d="M -36.99999999999998,-20.999999999999993 L -36.99999999999998,-19.999999999999993 L -36.99999999999998,-18.999999999999993 L -37.99999999999998,-18.999999999999993 L -37.99999999999998,-19.999999999999993 L -37.99999999999998,-20.999999999999993 L -36.99999999999998,-20.999999999999993 " />
        <path style="fill:none;stroke:#50514F;stroke-width:0.1px;stroke-linecap:square" d="M -35.99999999999998,-20.999999999999993 L -35.99999999999998,-19.999999999999993 L -35.99999999999998,-18.999999999999993 L -35.99999999999998,-17.999999999999993 " />
        <path style="fill:none;stroke:#50514F;stroke-width:0.1px;stroke-linecap:square" d="M -36.99999999999998,-17.999999999999993 L -36.99999999999998,-16.999999999999993 " />
        <path style="fill:none;stroke:#50514F;stroke-width:0.1px;stroke-linecap:square" d="M -35.99999999999998,-16.999999999999993 L -35.99999999999998,-15.999999999999993 L -35.99999999999998,-14.999999999999993 L -34.99999999999998,-14.999999999999993 L -34.99999999999998,-15.999999999999993 L -34.99999999999998,-16.999999999999993 L -35.99999999999998,-16.999999999999993 " />
        <path style="fill:none;stroke:#50514F;stroke-width:0.1px;stroke-linecap:square" d="M -36.99999999999998,-16.999999999999993 L -36.99999999999998,-15.999999999999993 L -36.99999999999998,-14.999999999999993 " />
        <path style="fill:none;stroke:#50514F;stroke-width:0.1px;stroke-linecap:square" d="M -37.99999999999998,-14.999999999999993 L -37.99999999999998,-13.999999999999993 L -37.99999999999998,-12.999999999999993 L -38.99999999999998,-12.999999999999993 L -38.99999999999998,-13.999999999999993 L -38.99999999999998,-14.999999999999993 L -37.99999999999998,-14.999999999999993 " />
        <path style="fill:none;stroke:#50514F;stroke-width:0.1px;stroke-linecap:square" d="M -36.99999999999998,-14.999999999999993 L -36.99999999999998,-13.999999999999993 L -36.99999999999998,-12.999999999999993 L -36.99999999999998,-11.999999999999993 L -36.99999999999998,-10.999999999999993 " />
        <path style="fill:none;stroke:#50514F;stroke-width:0.1px;stroke-linecap:square" d="M -35.99999999999998,-10.999999999999993 L -35.99999999999998,-9.999999999999993 L -35.99999999999998,-8.999999999999993 L -34.99999999999998,-8.999999999999993 L -34.99999999999998,-9.999999999999993 L -34.99999999999998,-10.999999999999993 L -35.99999999999998,-10.999999999999993 " />
        <path style="fill:none;stroke:#50514F;stroke-width:0.1px;stroke-linecap:square" d="M -36.99999999999998,-10.999999999999993 L -36.99999999999998,-9.999999999999993 L -36.99999999999998,-8.999999999999993 " />
        <path style="fill:none;stroke:#50514F;stroke-width:0.1px;stroke-linecap:square" d="M -37.99999999999998,-8.999999999999993 L -37.99999999999998,-7.999999999999993 L -37.99999999999998,-6.999999999999993 L -38.99999999999998,-6.999999999999994 L -38.99999999999998,-7.999999999999994 L -38.99999999999998,-8.999999999999993 L -37.99999999999998,-8.999999999999993 " />
        <path style="fill:none;stroke:#50514F;stroke-width:0.1px;stroke-linecap:square" d="M -36.99999999999998,-8.999999999999993 L -36.99999999999998,-7.999999999999993 L -36.99999999999998,-6.999999999999993 L -36.99999999999998,-5.999999999999993 L -37.99999999999998,-5.999999999999993 " />
        <path style="fill:none;stroke:#50514F;stroke-width:0.1px;stroke-linecap:square" d="M -37.99999999999998,-4.999999999999993 L -38.99999999999998,-4.999999999999993 L -39.99999999999998,-4.999999999999993 L -39.99999999999998,-3.999999999999993 L -38.99999999999998,-3.9999999999999925 L -37.99999999999998,-3.999999999999992 L -37.99999999999998,-4.999999999999992 " />
        <path style="fill:none;stroke:#50514F;stroke-width:0.1px;stroke-linecap:square" d="M -37.99999999999998,-5.999999999999992 L -38.99999999999998,-5.999999999999993 L -39.99999999999998,-5.999999999999994 " />
        <path style="fill:none;stroke:#50514F;stroke-width:0.1px;stroke-linecap:square" d="M -39.99999999999998,-6.999999999999994 L -40.99999999999998,-6.999999999999995 L -41.99999999999998,-6.999999999999996 L -41.99999999999998,-7.999999999999996 L -40.99999999999998,-7.999999999999995 L -39.99999999999998,-7.999999999999994 L -39.99999999999998,-6.999999999999994 " />
        <path style="fill:none;stroke:#50514F;stroke-width:0.1px;stroke-linecap:square" d="M -39.99999999999998,-5.999999999999994 L -40.99999999999998,-5.999999999999994 L -41.99999999999998,-5.999999999999994 L -42.99999999999998,-5.999999999999994 L -42.99999999999998,-6.999999999999994 " />
        <path style="fill:none;stroke:#50514F;stroke-width:0.1px;stroke-linecap:square" d="M -43.99999999999998,-6.999999999999994 L -43.99999999999998,-7.999999999999994 L -43.99999999999998,-8.999999999999993 L -44.99999999999998,-8.999999999999993 L -44.99999999999998,-7.999999999999993 L -44.99999999999998,-6.999999999999993 L -43.99999999999998,-6.999999999999992 " />
        <path style="fill:none;stroke:#50514F;stroke-width:0.1px;stroke-linecap:square" d="M -42.99999999999998,-6.999999999999991 L -42.99999999999998,-7.999999999999991 L -42.99999999999998,-8.999999999999991 " />
        <path style="fill:none;stroke:#50514F;stroke-width:0.1px;stroke-linecap:square" d="M -41.99999999999998,-8.999999999999991 L -41.99999999999998,-9.999999999999991 L -41.99999999999998,-10.999999999999991 L -40.99999999999998,-10.999999999999991 L -40.99999999999998,-9.999999999999991 L -40.99999999999998,-8.999999999999991 L -41.99999999999998,-8.999999999999991 " />
        <path style="fill:none;stroke:#50514F;stroke-width:0.1px;stroke-linecap:square" d="M -42.99999999999998,-8.999999999999991 L -42.99999999999998,-9.999999999999991 L -42.99999999999998,-10.999999999999991 L -42.99999999999998,-11.999999999999991 L -42.99999999999998,-12.999999999999991 " />
        <path style="fill:none;stroke:#50514F;stroke-width:0.1px;stroke-linecap:square" d="M -43.99999999999998,-12.999999999999991 L -43.99999999999998,-13.999999999999991 L -43.99999999999998,-14.999999999999991 L -44.99999999999998,-14.999999999999991 L -44.99999999999998,-13.999999999999991 L -44.99999999999998,-12.999999999999991 L -43.99999999999998,-12.999999999999991 " />
        <path style="fill:none;stroke:#50514F;stroke-width:0.1px;stroke-linecap:square" d="M -42.99999999999998,-12.999999999999991 L -42.99999999999998,-13.999999999999991 L -42.99999999999998,-14.999999999999991 " />
        <path style="fill:none;stroke:#50514F;stroke-width:0.1px;stroke-linecap:square" d="M -41.99999999999998,-14.999999999999991 L -41.99999999999998,-15.999999999999991 L -41.99999999999998,-16.999999999999993 L -40.99999999999998,-16.999999999999993 L -40.99999999999998,-15.999999999999993 L -40.99999999999998,-14.999999999999993 L -41.99999999999998,-14.999999999999993 " />
        <path style="fill:none;stroke:#50514F;stroke-width:0.1px;stroke-linecap:square" d="M -42.99999999999998,-14.999999999999993 L -42.99999999999998,-15.999999999999993 L -42.99999999999998,-16.999999999999993 L -42.99999999999998,-17.999999999999993 L -41.99999999999998,-17.999999999999993 " />
        <path style="fill:none;stroke:#50514F;stroke-width:0.1px;stroke-linecap:square" d="M -41.99999999999998,-18.999999999999993 L -40.99999999999998,-18.999999999999993 L -39.99999999999998,-18.999999999999993 L -39.99999999999998,-19.999999999999993 L -40.99999999999998,-19.999999999999993 L -41.99999999999998,-19.999999999999993 L -41.99999999999998,-18.999999999999993 " />
        <path style="fill:none;stroke:#50514F;stroke-width:0.1px;stroke-linecap:square" d="M -41.99999999999998,-17.999999999999993 L -40.99999999999998,-17.999999999999993 L -39.99999999999998,-17.999999999999993 " />
        <path style="fill:none;stroke:#50514F;stroke-width:0.1px;stroke-linecap:square" d="M -39.99999999999998,-16.999999999999993 L -38.99999999999998,-16.999999999999993 L -37.99999999999998,-16.999999999999993 L -37.99999999999998,-15.999999999999993 L -38.99999999999998,-15.999999999999993 L -39.99999999999998,-15.999999999999993 L -39.99999999999998,-16.999999999999993 " />
        <path style="fill:none;stroke:#50514F;stroke-width:0.1px;stroke-linecap:square" d="M -39.99999999999998,-17.999999999999993 L -38.99999999999998,-17.999999999999993 L -37.99999999999998,-17.999999999999993 L -36.99999999999998,-17.999999999999993 " />
        <path style="fill:none;stroke:#50514F;stroke-width:0.1px;stroke-linecap:square" d="M -35.99999999999998,-17.999999999999993 L -35.99999999999998,-16.999999999999993 " />
        <path style="fill:none;stroke:#50514F;stroke-width:0.1px;stroke-linecap:square" d="M -34.99999999999998,-16.999999999999993 L -34.99999999999998,-15.999999999999993 L -34.99999999999998,-14.999999999999993 L -33.99999999999998,-14.999999999999993 L -33.99999999999998,-15.999999999999993 L -33.99999999999998,-16.999999999999993 L -34.99999999999998,-16.999999999999993 " />
        <path style="fill:none;stroke:#50514F;stroke-width:0.1px;stroke-linecap:square" d="M -35.99999999999998,-16.999999999999993 L -35.99999999999998,-15.999999999999993 L -35.99999999999998,-14.999999999999993 " />
        <path style="fill:none;stroke:#50514F;stroke-width:0.1px;stroke-linecap:square" d="M -36.99999999999998,-14.999999999999993 L -36.99999999999998,-13.999999999999993 L -36.99999999999998,-12.999999999999993 L -37.99999999999998,-12.999999999999993 L -37.99999999999998,-13.999999999999993 L -37.99999999999998,-14.999999999999993 L -36.99999999999998,-14.999999999999993 " />
        <path style="fill:none;stroke:#50514F;stroke-width:0.1px;stroke-linecap:square" d="M -35.99999999999998,-14.999999999999993 L -35.99999999999998,-13.999999999999993 L -35.99999999999998,-12.999999999999993 L -35.99999999999998,-11.999999999999993 L -35.99999999999998,-10.999999999999993 " />
        <path style="fill:none;stroke:#50514F;stroke-width:0.1px;stroke-linecap:square" d="M -34.99999999999998,-10.999999999999993 L -34.99999999999998,-9.999999999999993 L -34.99999999999998,-8.999999999999993 L -33.99999999999998,-8.999999999999993 L -33.99999999999998,-9.999999999999993 L -33.99999999999998,-10.999999999999993 L -34.99999999999998,-10.999999999999993 " />
        <path style="fill:none;stroke:#50514F;stroke-width:0.1px;stroke-linecap:square" d="M -35.99999999999998,-10.999999999999993 L -35.99999999999998,-9.999999999999993 L -35.99999999999998,-8.999999999999993 " />
        <path style="fill:none;stroke:#50514F;stroke-width:0.1px;stroke-linecap:square" d="M -36.99999999999998,-8.999999999999993 L -36.99999999999998,-7.999999999999993 L -36.99999999999998,-6.999999999999993 L -37.99999999999998,-6.999999999999993 L -37.99999999999998,-7.999999999999993 L -37.99999999999998,-8.999999999999993 L -36.99999999999998,-8.999999999999993 " />
        <path style="fill:none;stroke:#50514F;stroke-width:0.1px;stroke-linecap:square" d="M -35.99999999999998,-8.999999999999993 L -35.99999999999998,-7.999999999999993 L -35.99999999999998,-6.999999999999993 L -35.99999999999998,-5.999999999999993 L -35.99999999999998,-4.999999999999993 " />
        <path style="fill:none;stroke:#50514F;stroke-width:0.1px;stroke-linecap:square" d="M -34.99999999999998,-4.999999999999993 L -34.99999999999998,-3.999999999999993 L -34.99999999999998,-2.999999999999993 L -33.99999999999998,-2.9999999999999925 L -33.99999999999998,-3.9999999999999925 L -33.99999999999998,-4.999999999999993 L -34.99999999999998,-4.999999999999993 " />
        <path style="fill:none;stroke:#50514F;stroke-width:0.1px;stroke-linecap:square" d="M -35.99999999999998,-4.999999999999993 L -35.99999999999998,-3.999999999999993 L -35.99999999999998,-2.999999999999993 " />
        <path style="fill:none;stroke:#50514F;stroke-width:0.1px;stroke-linecap:square" d="M -36.99999999999998,-2.9999999999999933 L -36.99999999999998,-1.9999999999999933 L -36.99999999999998,-0.9999999999999933 L -37.99999999999998,-0.9999999999999937 L -37.99999999999998,-1.9999999999999938 L -37.99999999999998,-2.999999999999994 L -36.99999999999998,-2.9999999999999933 " />
        <path style="fill:none;stroke:#50514F;stroke-width:0.1px;stroke-linecap:square" d="M -35.99999999999998,-2.999999999999993 L -35.99999999999998,-1.999999999999993 L -35.99999999999998,-0.9999999999999929 L -35.99999999999998,7.105427357601002e-15 L -34.99999999999998,7.350356717430472e-15 " />
        <path style="fill:none;stroke:#50514F;stroke-width:0.1px;stroke-linecap:square" d="M -34.99999999999998,-0.9999999999999927 L -33.99999999999998,-0.9999999999999925 L -32.99999999999998,-0.9999999999999922 L -32.99999999999998,-1.9999999999999922 L -33.99999999999998,-1.9999999999999927 L -34.99999999999998,-1.9999999999999931 L -34.99999999999998,-0.9999999999999931 " />
        <path style="fill:none;stroke:#50514F;stroke-width:0.1px;stroke-linecap:square" d="M -34.99999999999998,6.8833827526759706e-15 L -33.99999999999998,7.373241472334911e-15 L -32.99999999999998,7.863100191993852e-15 " />
        <path style="fill:none;stroke:#50514F;stroke-width:0.1px;stroke-linecap:square" d="M -32.99999999999998,1.0000000000000078 L -31.99999999999998,1.0000000000000082 L -30.99999999999998,1.0000000000000087 L -30.99999999999998,2.000000000000009 L -31.99999999999998,2.0000000000000084 L -32.99999999999998,2.000000000000008 L -32.99999999999998,1.000000000000008 " />
        <path style="fill:none;stroke:#50514F;stroke-width:0.1px;stroke-linecap:square" d="M -32.99999999999998,7.993605777301127e-15 L -31.99999999999998,8.238535137130597e-15 L -30.99999999999998,8.483464496960068e-15 L -29.99999999999998,8.728393856789538e-15 " />
        <path style="fill:none;stroke:#50514F;stroke-width:0.1px;stroke-linecap:square" d="M -29.99999999999998,-0.9999999999999912 L -28.99999999999998,-0.999999999999991 " />
        <path style="fill:none;stroke:#50514F;stroke-width:0.1px;stroke-linecap:square" d="M -28.99999999999998,-1.9999999999999911 L -27.99999999999998,-1.999999999999991 L -26.99999999999998,-1.9999999999999907 L -26.99999999999998,-2.9999999999999907 L -27.99999999999998,-2.999999999999991 L -28.99999999999998,-2.9999999999999916 L -28.99999999999998,-1.9999999999999916 " />
        <path style="fill:none;stroke:#50514F;stroke-width:0.1px;stroke-linecap:square" d="M -28.99999999999998,-0.9999999999999916 L -27.99999999999998,-0.9999999999999911 L -26.99999999999998,-0.9999999999999907 " />
        <path style="fill:none;stroke:#50514F;stroke-width:0.1px;stroke-linecap:square" d="M -26.99999999999998,9.325873406851315e-15 L -25.99999999999998,9.815732126510256e-15 L -24.99999999999998,1.0305590846169196e-14 L -24.99999999999998,1.0000000000000102 L -25.99999999999998,1.0000000000000098 L -26.99999999999998,1.0000000000000093 L -26.99999999999998,9.325873406851315e-15 " />
        <path style="fill:none;stroke:#50514F;stroke-width:0.1px;stroke-linecap:square" d="M -26.99999999999998,-0.9999999999999907 L -25.99999999999998,-0.9999999999999905 L -24.99999999999998,-0.9999999999999902 L -23.99999999999998,-0.99999999999999 L -22.99999999999998,-0.9999999999999898 " />
        <path style="fill:none;stroke:#50514F;stroke-width:0.1px;stroke-linecap:square" d="M -22.99999999999998,-1.9999999999999898 L -21.99999999999998,-1.9999999999999896 L -20.99999999999998,-1.9999999999999893 L -20.99999999999998,-2.9999999999999893 L -21.99999999999998,-2.99999999999999 L -22.99999999999998,-2.9999999999999902 L -22.99999999999998,-1.9999999999999902 " />
        <path style="fill:none;stroke:#50514F;stroke-width:0.1px;stroke-linecap:square" d="M -22.99999999999998,-0.9999999999999902 L -21.99999999999998,-0.9999999999999898 L -20.99999999999998,-0.9999999999999893 " />
        <path style="fill:none;stroke:#50514F;stroke-width:0.1px;stroke-linecap:square" d="M -20.99999999999998,1.0658141036401503e-14 L -19.99999999999998,1.1147999756060443e-14 L -18.99999999999998,1.1637858475719384e-14 L -18.99999999999998,1.0000000000000115 L -19.99999999999998,1.000000000000011 L -20.99999999999998,1.0000000000000107 L -20.99999999999998,1.0658141036401503e-14 " />
        <path style="fill:none;stroke:#50514F;stroke-width:0.1px;stroke-linecap:square" d="M -20.99999999999998,-0.9999999999999893 L -19.99999999999998,-0.9999999999999891 L -18.99999999999998,-0.9999999999999889 L -17.99999999999998,-0.9999999999999887 L -17.99999999999998,-1.9999999999999887 " />
        <path style="fill:none;stroke:#50514F;stroke-width:0.1px;stroke-linecap:square" d="M -18.99999999999998,-1.9999999999999891 L -18.99999999999998,-2.9999999999999893 L -18.99999999999998,-3.9999999999999893 L -19.99999999999998,-3.99999999999999 L -19.99999999999998,-2.99999999999999 L -19.99999999999998,-1.9999999999999898 L -18.99999999999998,-1.9999999999999893 " />
        <path style="fill:none;stroke:#50514F;stroke-width:0.1px;stroke-linecap:square" d="M -17.99999999999998,-1.999999999999989 L -17.99999999999998,-2.999999999999989 L -17.99999999999998,-3.999999999999989 " />
        <path style="fill:none;stroke:#50514F;stroke-width:0.1px;stroke-linecap:square" d="M -16.99999999999998,-3.9999999999999885 L -16.99999999999998,-4.9999999999999885 L -16.99999999999998,-5.9999999999999885 L -15.999999999999979,-5.999999999999988 L -15.999999999999979,-4.999999999999988 L -15.999999999999979,-3.9999999999999876 L -16.99999999999998,-3.999999999999988 " />
        <path style="fill:none;stroke:#50514F;stroke-width:0.1px;stroke-linecap:square" d="M -17.99999999999998,-3.9999999999999885 L -17.99999999999998,-4.9999999999999885 L -17.99999999999998,-5.9999999999999885 L -17.99999999999998,-6.9999999999999885 L -18.99999999999998,-6.9999999999999885 " />
        <path style="fill:none;stroke:#50514F;stroke-width:0.1px;stroke-linecap:square" d="M -18.99999999999998,-5.9999999999999885 L -19.99999999999998,-5.9999999999999885 L -20.99999999999998,-5.9999999999999885 L -20.99999999999998,-4.9999999999999885 L -19.99999999999998,-4.999999999999988 L -18.99999999999998,-4.999999999999987 L -18.99999999999998,-5.999999999999987 " />
        <path style="fill:none;stroke:#50514F;stroke-width:0.1px;stroke-linecap:square" d="M -18.99999999999998,-6.999999999999987 L -19.99999999999998,-6.999999999999988 L -20.99999999999998,-6.9999999999999885 " />
        <path style="fill:none;stroke:#50514F;stroke-width:0.1px;stroke-linecap:square" d="M -20.99999999999998,-7.9999999999999885 L -21.99999999999998,-7.999999999999989 L -22.99999999999998,-7.99999999999999 L -22.99999999999998,-8.99999999999999 L -21.99999999999998,-8.99999999999999 L -20.99999999999998,-8.99999999999999 L -20.99999999999998,-7.999999999999989 " />
        <path style="fill:none;stroke:#50514F;stroke-width:0.1px;stroke-linecap:square" d="M -20.99999999999998,-6.999999999999989 L -21.99999999999998,-6.999999999999989 L -22.99999999999998,-6.999999999999989 L -23.99999999999998,-6.999999999999989 L -24.99999999999998,-6.999999999999989 " />
        <path style="fill:none;stroke:#50514F;stroke-width:0.1px;stroke-linecap:square" d="M -24.99999999999998,-5.999999999999989 L -25.99999999999998,-5.999999999999989 L -26.99999999999998,-5.999999999999989 L -26.99999999999998,-4.999999999999989 L -25.99999999999998,-4.9999999999999885 L -24.99999999999998,-4.999999999999988 L -24.99999999999998,-5.999999999999988 " />
        <path style="fill:none;stroke:#50514F;stroke-width:0.1px;stroke-linecap:square" d="M -24.99999999999998,-6.999999999999988 L -25.99999999999998,-6.9999999999999885 L -26.99999999999998,-6.999999999999989 " />
        <path style="fill:none;stroke:#50514F;stroke-width:0.1px;stroke-linecap:square" d="M -26.99999999999998,-7.999999999999989 L -27.99999999999998,-7.99999999999999 L -28.99999999999998,-7.999999999999991 L -28.99999999999998,-8.999999999999991 L -27.99999999999998,-8.999999999999991 L -26.99999999999998,-8.999999999999991 L -26.99999999999998,-7.999999999999991 " />
        <path style="fill:none;stroke:#50514F;stroke-width:0.1px;stroke-linecap:square" d="M -26.99999999999998,-6.999999999999991 L -27.99999999999998,-6.999999999999991 L -28.99999999999998,-6.999999999999991 L -29.99999999999998,-6.999999999999991 L -29.99999999999998,-5.999999999999991 " />
        <path style="fill:none;stroke:#50514F;stroke-width:0.1px;stroke-linecap:square" d="M -28.99999999999998,-5.99999999999999 L -28.99999999999998,-4.99999999999999 L -28.99999999999998,-3.9999999999999902 L -27.99999999999998,-3.99999999999999 L -27.99999999999998,-4.999999999999989 L -27.99999999999998,-5.999999999999989 L -28.99999999999998,-5.99999999999999 " />
        <path style="fill:none;stroke:#50514F;stroke-width:0.1px;stroke-linecap:square" d="M -29.99999999999998,-5.999999999999991 L -29.99999999999998,-4.999999999999991 L -29.99999999999998,-3.999999999999991 " />
        <path style="fill:none;stroke:#50514F;stroke-width:0.1px;stroke-linecap:square" d="M -30.99999999999998,-3.9999999999999916 L -30.99999999999998,-2.9999999999999916 L -30.99999999999998,-1.9999999999999916 L -31.99999999999998,-1.9999999999999922 L -31.99999999999998,-2.999999999999992 L -31.99999999999998,-3.999999999999992 L -30.99999999999998,-3.9999999999999916 " />
        <path style="fill:none;stroke:#50514F;stroke-width:0.1px;stroke-linecap:square" d="M -29.99999999999998,-3.999999999999991 L -29.99999999999998,-2.999999999999991 L -29.99999999999998,-1.9999999999999911 L -29.99999999999998,-0.9999999999999911 " />
        <path style="fill:none;stroke:#50514F;stroke-width:0.1px;stroke-linecap:square" d="M -29.99999999999998,8.881784197001252e-15 L -28.99999999999998,9.371642916660193e-15 " />
        <path style="fill:none;stroke:#50514F;stroke-width:0.1px;stroke-linecap:square" d="M -28.99999999999998,-0.9999999999999907 L -27.99999999999998,-0.9999999999999902 L -26.99999999999998,-0.9999999999999898 L -26.99999999999998,-1.9999999999999898 L -27.99999999999998,-1.9999999999999905 L -28.99999999999998,-1.9999999999999911 L -28.99999999999998,-0.9999999999999911 " />
        <path style="fill:none;stroke:#50514F;stroke-width:0.1px;stroke-linecap:square" d="M -28.99999999999998,8.881784197001252e-15 L -27.99999999999998,9.616572276489665e-15 L -26.99999999999998,1.0351360355978077e-14 " />
        <path style="fill:none;stroke:#50514F;stroke-width:0.1px;stroke-linecap:square" d="M -26.99999999999998,1.0000000000000104 L -25.99999999999998,1.000000000000011 L -24.99999999999998,1.0000000000000118 L -24.99999999999998,2.0000000000000115 L -25.99999999999998,2.000000000000011 L -26.99999999999998,2.0000000000000107 L -26.99999999999998,1.0000000000000107 " />
        <path style="fill:none;stroke:#50514F;stroke-width:0.1px;stroke-linecap:square" d="M -26.99999999999998,1.0658141036401503e-14 L -25.99999999999998,1.1147999756060443e-14 L -24.99999999999998,1.1637858475719384e-14 L -23.99999999999998,1.2127717195378325e-14 L -22.99999999999998,1.2617575915037265e-14 " />
        <path style="fill:none;stroke:#50514F;stroke-width:0.1px;stroke-linecap:square" d="M -22.99999999999998,-0.9999999999999873 L -21.99999999999998,-0.9999999999999869 L -20.99999999999998,-0.9999999999999865 L -20.99999999999998,-1.9999999999999865 L -21.99999999999998,-1.9999999999999871 L -22.99999999999998,-1.9999999999999878 L -22.99999999999998,-0.9999999999999878 " />
        <path style="fill:none;stroke:#50514F;stroke-width:0.1px;stroke-linecap:square" d="M -22.99999999999998,1.2212453270876722e-14 L -21.99999999999998,1.2947241350365134e-14 L -20.99999999999998,1.3682029429853547e-14 " />
        <path style="fill:none;stroke:#50514F;stroke-width:0.1px;stroke-linecap:square" d="M -20.99999999999998,1.0000000000000138 L -19.99999999999998,1.0000000000000144 L -18.99999999999998,1.000000000000015 L -18.99999999999998,2.000000000000015 L -19.99999999999998,2.0000000000000147 L -20.99999999999998,2.000000000000014 L -20.99999999999998,1.0000000000000142 " />
        <path style="fill:none;stroke:#50514F;stroke-width:0.1px;stroke-linecap:square" d="M -20.99999999999998,1.4210854715202004e-14 L -19.99999999999998,1.4700713434860944e-14 L -18.99999999999998,1.5190572154519885e-14 L -17.99999999999998,1.5680430874178825e-14 " />
        <path style="fill:none;stroke:#50514F;stroke-width:0.1px;stroke-linecap:square" d="M -17.99999999999998,1.0000000000000158 L -16.99999999999998,1.0000000000000162 " />
        <path style="fill:none;stroke:#50514F;stroke-width:0.1px;stroke-linecap:square" d="M -16.99999999999998,1.6209256159527285e-14 L -15.999999999999979,1.6699114879186226e-14 L -14.999999999999979,1.7188973598845167e-14 L -14.999999999999979,-0.9999999999999828 L -15.999999999999979,-0.9999999999999835 L -16.99999999999998,-0.9999999999999841 L -16.99999999999998,1.587618925213974e-14 " />
        <path style="fill:none;stroke:#50514F;stroke-width:0.1px;stroke-linecap:square" d="M -16.99999999999998,1.000000000000016 L -15.999999999999979,1.0000000000000167 L -14.999999999999979,1.0000000000000173 " />
        <path style="fill:none;stroke:#50514F;stroke-width:0.1px;stroke-linecap:square" d="M -14.999999999999979,2.0000000000000173 L -13.999999999999979,2.000000000000018 L -12.999999999999979,2.000000000000019 L -12.999999999999979,3.000000000000019 L -13.999999999999979,3.0000000000000187 L -14.999999999999979,3.000000000000018 L -14.999999999999979,2.000000000000018 " />
        <path style="fill:none;stroke:#50514F;stroke-width:0.1px;stroke-linecap:square" d="M -14.999999999999979,1.0000000000000182 L -13.999999999999979,1.0000000000000187 L -12.999999999999979,1.000000000000019 L -11.999999999999979,1.0000000000000195 L -10.999999999999979,1.00000000000002 " />
        <path style="fill:none;stroke:#50514F;stroke-width:0.1px;stroke-linecap:square" d="M -10.999999999999979,1.9984014443252818e-14 L -9.999999999999979,2.0473873162911758e-14 L -8.999999999999979,2.09637318825707e-14 L -8.999999999999979,-0.999999999999979 L -9.999999999999979,-0.9999999999999797 L -10.999999999999979,-0.9999999999999803 L -10.999999999999979,1.965094753586527e-14 " />
        <path style="fill:none;stroke:#50514F;stroke-width:0.1px;stroke-linecap:square" d="M -10.999999999999979,1.0000000000000195 L -9.999999999999979,1.0000000000000202 L -8.999999999999979,1.0000000000000209 " />
        <path style="fill:none;stroke:#50514F;stroke-width:0.1px;stroke-linecap:square" d="M -8.999999999999979,2.000000000000021 L -7.999999999999979,2.0000000000000218 L -6.999999999999979,2.0000000000000226 L -6.99999999999998,3.0000000000000226 L -7.99999999999998,3.000000000000022 L -8.999999999999979,3.0000000000000218 L -8.999999999999979,2.0000000000000218 " />
        <path style="fill:none;stroke:#50514F;stroke-width:0.1px;stroke-linecap:square" d="M -8.999999999999979,1.0000000000000218 L -7.999999999999979,1.0000000000000222 L -6.999999999999979,1.0000000000000226 L -5.999999999999979,1.000000000000023 L -5.999999999999979,2.000000000000023 " />
        <path style="fill:none;stroke:#50514F;stroke-width:0.1px;stroke-linecap:square" d="M -4.999999999999979,2.0000000000000235 L -4.999999999999979,3.0000000000000235 L -4.999999999999979,4.000000000000023 L -3.9999999999999787,4.000000000000024 L -3.9999999999999782,3.000000000000024 L -3.999999999999978,2.000000000000024 L -4.999999999999978,2.0000000000000235 " />
        <path style="fill:none;stroke:#50514F;stroke-width:0.1px;stroke-linecap:square" d="M -5.999999999999978,2.000000000000023 L -5.999999999999979,3.000000000000023 L -5.99999999999998,4.000000000000023 " />
        <path style="fill:none;stroke:#50514F;stroke-width:0.1px;stroke-linecap:square" d="M -6.99999999999998,4.000000000000022 L -6.9999999999999805,5.000000000000022 L -6.999999999999981,6.000000000000022 L -7.999999999999981,6.000000000000021 L -7.9999999999999805,5.000000000000021 L -7.99999999999998,4.000000000000021 L -6.99999999999998,4.000000000000022 " />
        <path style="fill:none;stroke:#50514F;stroke-width:0.1px;stroke-linecap:square" d="M -5.99999999999998,4.000000000000023 L -5.99999999999998,5.000000000000023 L -5.99999999999998,6.000000000000023 L -5.99999999999998,7.000000000000023 L -6.99999999999998,7.000000000000023 " />
        <path style="fill:none;stroke:#50514F;stroke-width:0.1px;stroke-linecap:square" d="M -6.99999999999998,8.000000000000023 L -7.99999999999998,8.000000000000023 L -8.999999999999979,8.000000000000023 L -8.999999999999979,9.000000000000023 L -7.999999999999979,9.000000000000023 L -6.999999999999979,9.000000000000023 L -6.999999999999978,8.000000000000023 " />
        <path style="fill:none;stroke:#50514F;stroke-width:0.1px;stroke-linecap:square" d="M -6.999999999999977,7.000000000000023 L -7.999999999999977,7.000000000000022 L -8.999999999999977,7.000000000000021 " />
        <path style="fill:none;stroke:#50514F;stroke-width:0.1px;stroke-linecap:square" d="M -8.999999999999977,6.000000000000021 L -9.999999999999977,6.00000000000002 L -10.999999999999977,6.0000000000000195 L -10.999999999999977,5.0000000000000195 L -9.999999999999977,5.00000000000002 L -8.999999999999977,5.000000000000021 L -8.999999999999977,6.000000000000021 " />
        <path style="fill:none;stroke:#50514F;stroke-width:0.1px;stroke-linecap:square" d="M -8.999999999999977,7.000000000000021 L -9.999999999999977,7.000000000000021 L -10.999999999999977,7.000000000000021 L -11.999999999999977,7.000000000000021 L -12.999999999999977,7.000000000000021 " />
        <path style="fill:none;stroke:#50514F;stroke-width:0.1px;stroke-linecap:square" d="M -12.999999999999977,8.000000000000021 L -13.999999999999977,8.000000000000021 L -14.999999999999977,8.000000000000021 L -14.999999999999977,9.000000000000021 L -13.999999999999977,9.000000000000021 L -12.999999999999977,9.000000000000021 L -12.999999999999977,8.000000000000021 " />
        <path style="fill:none;stroke:#50514F;stroke-width:0.1px;stroke-linecap:square" d="M -12.999999999999977,7.000000000000021 L -13.999999999999977,7.00000000000002 L -14.999999999999977,7.0000000000000195 " />
        <path style="fill:none;stroke:#50514F;stroke-width:0.1px;stroke-linecap:square" d="M -14.999999999999977,6.0000000000000195 L -15.999999999999977,6.000000000000019 L -16.99999999999998,6.000000000000018 L -16.99999999999998,5.000000000000018 L -15.999999999999979,5.000000000000019 L -14.999999999999979,5.0000000000000195 L -14.999999999999979,6.0000000000000195 " />
        <path style="fill:none;stroke:#50514F;stroke-width:0.1px;stroke-linecap:square" d="M -14.999999999999979,7.0000000000000195 L -15.999999999999979,7.0000000000000195 L -16.99999999999998,7.0000000000000195 L -17.99999999999998,7.0000000000000195 L -17.99999999999998,6.0000000000000195 " />
        <path style="fill:none;stroke:#50514F;stroke-width:0.1px;stroke-linecap:square" d="M -18.99999999999998,6.0000000000000195 L -18.99999999999998,5.0000000000000195 L -18.99999999999998,4.0000000000000195 L -19.99999999999998,4.0000000000000195 L -19.99999999999998,5.0000000000000195 L -19.99999999999998,6.0000000000000195 L -18.99999999999998,6.00000000000002 " />
        <path style="fill:none;stroke:#50514F;stroke-width:0.1px;stroke-linecap:square" d="M -17.99999999999998,6.000000000000021 L -17.99999999999998,5.000000000000021 L -17.99999999999998,4.000000000000021 " />
        <path style="fill:none;stroke:#50514F;stroke-width:0.1px;stroke-linecap:square" d="M -16.99999999999998,4.000000000000022 L -16.99999999999998,3.000000000000022 L -16.99999999999998,2.000000000000022 L -15.999999999999979,2.0000000000000226 L -15.999999999999979,3.0000000000000226 L -15.999999999999979,4.000000000000023 L -16.99999999999998,4.000000000000023 " />
        <path style="fill:none;stroke:#50514F;stroke-width:0.1px;stroke-linecap:square" d="M -17.99999999999998,4.000000000000023 L -17.99999999999998,3.000000000000023 L -17.99999999999998,2.000000000000023 L -17.99999999999998,1.000000000000023 " />
        <path style="fill:none;stroke:#50514F;stroke-width:0.1px;stroke-linecap:square" d="M -17.99999999999998,2.3092638912203256e-14 L -16.99999999999998,2.3337568272032726e-14 " />
        <path style="fill:none;stroke:#50514F;stroke-width:0.1px;stroke-linecap:square" d="M -16.99999999999998,-0.9999999999999767 L -15.999999999999979,-0.9999999999999765 L -14.999999999999979,-0.9999999999999762 L -14.999999999999979,-1.9999999999999762 L -15.999999999999979,-1.9999999999999767 L -16.99999999999998,-1.9999999999999771 L -16.99999999999998,-0.9999999999999771 " />
        <path style="fill:none;stroke:#50514F;stroke-width:0.1px;stroke-linecap:square" d="M -16.99999999999998,2.2870594307278225e-14 L -15.999999999999979,2.3360453026937165e-14 L -14.999999999999979,2.3850311746596106e-14 " />
        <path style="fill:none;stroke:#50514F;stroke-width:0.1px;stroke-linecap:square" d="M -14.999999999999979,1.0000000000000238 L -13.999999999999979,1.0000000000000242 L -12.999999999999979,1.0000000000000246 L -12.999999999999979,2.000000000000025 L -13.999999999999979,2.0000000000000244 L -14.999999999999979,2.000000000000024 L -14.999999999999979,1.000000000000024 " />
        <path style="fill:none;stroke:#50514F;stroke-width:0.1px;stroke-linecap:square" d="M -14.999999999999979,2.398081733190338e-14 L -13.999999999999979,2.422574669173285e-14 L -12.999999999999979,2.4470676051562322e-14 L -11.999999999999979,2.4715605411391792e-14 L -10.999999999999979,2.4960534771221262e-14 " />
        <path style="fill:none;stroke:#50514F;stroke-width:0.1px;stroke-linecap:square" d="M -10.999999999999979,-0.999999999999975 L -9.999999999999979,-0.9999999999999748 L -8.999999999999979,-0.9999999999999746 L -8.999999999999979,-1.9999999999999747 L -9.999999999999979,-1.9999999999999751 L -10.999999999999979,-1.9999999999999756 L -10.999999999999979,-0.9999999999999756 " />
        <path style="fill:none;stroke:#50514F;stroke-width:0.1px;stroke-linecap:square" d="M -10.999999999999979,2.4424906541753444e-14 L -9.999999999999979,2.4914765261412384e-14 L -8.999999999999979,2.5404623981071325e-14 " />
        <path style="fill:none;stroke:#50514F;stroke-width:0.1px;stroke-linecap:square" d="M -8.999999999999979,1.0000000000000253 L -7.999999999999979,1.0000000000000258 L -6.999999999999979,1.0000000000000262 L -6.999999999999979,2.000000000000026 L -7.999999999999979,2.0000000000000258 L -8.999999999999979,2.0000000000000253 L -8.999999999999979,1.0000000000000253 " />
        <path style="fill:none;stroke:#50514F;stroke-width:0.1px;stroke-linecap:square" d="M -8.999999999999979,2.531308496145357e-14 L -7.999999999999979,2.555801432128304e-14 L -6.999999999999979,2.580294368111251e-14 L -5.999999999999979,2.604787304094198e-14 L -4.999999999999979,2.629280240077145e-14 " />
        <path style="fill:none;stroke:#50514F;stroke-width:0.1px;stroke-linecap:square" d="M -4.999999999999979,-0.9999999999999737 L -3.9999999999999787,-0.9999999999999735 L -2.9999999999999787,-0.9999999999999732 L -2.9999999999999782,-1.9999999999999734 L -3.9999999999999782,-1.9999999999999738 L -4.999999999999979,-1.9999999999999742 L -4.999999999999979,-0.9999999999999742 " />
        <path style="fill:none;stroke:#50514F;stroke-width:0.1px;stroke-linecap:square" d="M -4.999999999999979,2.5757174171303632e-14 L -3.9999999999999787,2.6247032890962572e-14 L -2.9999999999999787,2.6736891610621513e-14 " />
        <path style="fill:none;stroke:#50514F;stroke-width:0.1px;stroke-linecap:square" d="M -2.999999999999979,1.0000000000000266 L -1.9999999999999791,1.000000000000027 L -0.9999999999999791,1.0000000000000275 L -0.9999999999999796,2.0000000000000275 L -1.9999999999999796,2.000000000000027 L -2.9999999999999796,2.0000000000000266 L -2.999999999999979,1.0000000000000266 " />
        <path style="fill:none;stroke:#50514F;stroke-width:0.1px;stroke-linecap:square" d="M -2.9999999999999787,2.6645352591003757e-14 L -1.9999999999999787,2.6890281950833227e-14 L -0.9999999999999787,2.7135211310662698e-14 L 2.1316282072803006e-14,2.7380140670492168e-14 " />
    </g>
</svg>
