<?xml version="1.0" encoding="UTF-8"?>
<!DOCTYPE svg PUBLIC "-//W3C//DTD SVG 1.1//EN"
    "http://www.w3.org/Graphics/SVG/1.1/DTD/svg11.dtd">

<svg xmlns="http://www.w3.org/2000/svg" xmlns:xlink="http://www.w3.org/1999/xlink" version="1.1" width="596.1538461538461" height="500" viewBox="-24.099999999999994 -23.599999999999998 37.199999999999996 31.200000000000003">
    <g>
        <rect x="-24.099999999999994" y="-23.599999999999998" width="37.199999999999996" height="31.200000000000003" fill="#CBD4C2" />
        <path style="fill:none;stroke:#50514F;stroke-width:0.1px;stroke-linecap:square" d="M 0.0,0.0 L 6.123233995736766e-17,-1.0 L -0.9999999999999999,-1.0000000000000002 L -1.0,-2.220446049250313e-16 L -2.0,-3.445092848397666e-16 L -2.0,0.9999999999999997 L -1.0,0.9999999999999999 L -1.0000000000000002,2.0 L -2.0,1.9999999999999998 L -2.0,3.0 L -1.0,3.0000000000000004 L -0.9999999999999997,2.0000000000000004 L 3.3306690738754696e-16,2.000000000000001 L 1.49369887515444e-16,3.000000000000001 L 1.0000000000000002,3.0000000000000013 L 1.0,4.000000000000002 L 0.0,4.000000000000002 L -1.8369701987210297e-16,5.000000000000002 L 0.9999999999999998,5.000000000000002 L 1.0,4.000000000000002 L 2.0,4.000000000000002 L 2.0000000000000004,3.0000000000000018 L 1.0000000000000004,3.0000000000000013 L 1.0000000000000007,2.0000000000000013 L 2.000000000000001,2.0000000000000018 L 2.000000000000001,3.0000000000000018 L 3.000000000000001,3.000000000000002 L 3.0000000000000013,2.000000000000002 L 4.000000000000002,2.0000000000000027 L 4.000000000000002,3.0000000000000027 L 5.000000000000002,3.000000000000003 L 5.000000000000002,4.0000000000000036 L 4.000000000000002,4.0000000000000036 L 4.000000000000002,5.0000000000000036 L 5.000000000000002,5.0000000000000036 L 5.000000000000002,4.0000000000000036 L 6.000000000000002,4.0000000000000036 L 6.000000000000002,3.0000000000000036 L 5.000000000000002,3.000000000000003 L 5.000000000000002,2.000000000000003 L 6.000000000000002,2.0000000000000036 L 6.000000000000002,1.0000000000000036 L 5.000000000000002,1.000000000000003 L 5.000000000000002,2.000000000000003 L 4.000000000000002,2.0000000000000027 L 4.000000000000002,1.0000000000000027 L 3.0000000000000018,1.0000000000000022 L 3.000000000000002,2.220446049250313e-15 L 4.000000000000002,2.4653754090797838e-15 L 4.000000000000002,1.0000000000000024 L 5.000000000000002,1.0000000000000027 L 5.000000000000002,2.6645352591003757e-15 L 6.000000000000002,2.9094646189298464e-15 L 6.000000000000002,-0.9999999999999971 L 5.000000000000002,-0.9999999999999974 L 5.000000000000002,-1.9999999999999973 L 6.000000000000002,-1.9999999999999971 L 6.000000000000002,-0.9999999999999971 L 7.000000000000002,-0.9999999999999969 L 7.000000000000002,-1.999999999999997 L 8.000000000000002,-1.9999999999999967 L 8.000000000000002,-0.9999999999999967 L 9.000000000000002,-0.9999999999999964 L 9.000000000000002,3.552713678800501e-15 L 8.000000000000002,3.4302489988857658e-15 L 8.000000000000002,1.0000000000000033 L 9.000000000000002,1.0000000000000036 L 9.000000000000002,3.552713678800501e-15 L 10.000000000000002,3.797643038629971e-15 L 10.000000000000002,-0.9999999999999962 L 9.000000000000002,-0.9999999999999966 L 9.000000000000002,-1.9999999999999964 L 10.000000000000002,-1.9999999999999962 L 10.000000000000002,-2.9999999999999964 L 9.000000000000002,-2.999999999999997 L 9.000000000000002,-1.999999999999997 L 8.000000000000002,-1.9999999999999973 L 8.000000000000002,-2.9999999999999973 L 7.000000000000002,-2.999999999999998 L 7.000000000000002,-3.999999999999998 L 8.000000000000002,-3.9999999999999973 L 8.000000000000002,-4.999999999999997 L 7.000000000000002,-4.999999999999997 L 7.000000000000002,-3.9999999999999973 L 6.000000000000002,-3.999999999999998 L 6.000000000000002,-2.999999999999998 L 7.000000000000002,-2.9999999999999973 L 7.000000000000002,-1.9999999999999973 L 6.000000000000002,-1.9999999999999978 L 6.000000000000002,-2.999999999999998 L 5.000000000000002,-2.9999999999999982 L 5.000000000000002,-1.9999999999999982 L 4.000000000000002,-1.9999999999999987 L 4.000000000000002,-2.9999999999999987 L 3.0000000000000018,-2.999999999999999 L 3.000000000000002,-3.999999999999999 L 4.000000000000002,-3.9999999999999987 L 4.000000000000002,-2.9999999999999987 L 5.000000000000002,-2.9999999999999982 L 5.000000000000002,-3.9999999999999982 L 6.000000000000002,-3.999999999999998 L 6.000000000000002,-4.999999999999998 L 5.000000000000002,-4.999999999999998 L 5.000000000000002,-5.999999999999998 L 6.000000000000002,-5.999999999999998 L 6.000000000000002,-6.999999999999998 L 5.000000000000002,-6.999999999999998 L 5.000000000000002,-5.999999999999998 L 4.000000000000002,-5.999999999999998 L 4.000000000000002,-6.999999999999998 L 3.0000000000000018,-6.999999999999998 L 3.000000000000002,-7.999999999999998 L 4.000000000000002,-7.999999999999998 L 4.000000000000002,-6.999999999999998 L 5.000000000000002,-6.999999999999998 L 5.000000000000002,-7.999999999999998 L 6.000000000000002,-7.999999999999998 L 6.000000000000002,-8.999999999999998 L 5.000000000000002,-8.999999999999998 L 5.000000000000002,-9.999999999999998 L 6.000000000000002,-9.999999999999998 L 6.000000000000002,-8.999999999999998 L 7.000000000000002,-8.999999999999998 L 7.000000000000002,-9.999999999999998 L 8.000000000000002,-9.999999999999998 L 8.000000000000002,-8.999999999999998 L 9.000000000000002,-8.999999999999998 L 9.000000000000002,-7.999999999999998 L 8.000000000000002,-7.999999999999998 L 8.000000000000002,-6.999999999999998 L 9.000000000000002,-6.999999999999998 L 9.000000000000002,-7.999999999999998 L 10.000000000000002,-7.999999999999998 L 10.000000000000002,-8.999999999999998 L 9.000000000000002,-8.999999999999998 L 9.000000000000002,-9.999999999999998 L 10.000000000000002,-9.999999999999998 L 10.000000000000002,-10.999999999999998 L 9.000000000000002,-10.999999999999998 L 9.000000000000002,-9.999999999999998 L 8.000000000000002,-9.999999999999998 L 8.000000000000002,-10.999999999999998 L 7.000000000000002,-10.999999999999998 L 7.000000000000002,-11.999999999999998 L 8.000000000000002,-11.999999999999998 L 8.000000000000002,-12.999999999999998 L 7.000000000000002,-12.999999999999998 L 7.000000000000002,-11.999999999999998 L 6.000000000000002,-11.999999999999998 L 6.000000000000002,-10.999999999999998 L 7.000000000000002,-10.999999999999998 L 7.000000000000002,-9.999999999999998 L 6.000000000000002,-9.999999999999998 L 6.000000000000002,-10.999999999999998 L 5.000000000000002,-10.999999999999998 L 5.000000000000002,-9.999999999999998 L 4.000000000000002,-9.999999999999998 L 4.000000000000002,-10.999999999999998 L 3.0000000000000018,-10.999999999999998 L 3.000000000000002,-11.999999999999998 L 4.000000000000002,-11.999999999999998 L 4.000000000000002,-12.999999999999998 L 3.0000000000000018,-12.999999999999998 L 3.0000000000000013,-11.999999999999998 L 2.0000000000000013,-11.999999999999998 L 2.000000000000001,-10.999999999999998 L 3.000000000000001,-10.999999999999998 L 3.0000000000000004,-9.999999999999998 L 2.0000000000000004,-9.999999999999998 L 2.0,-8.999999999999998 L 3.0,-8.999999999999998 L 3.0000000000000004,-9.999999999999998 L 4.0,-9.999999999999998 L 3.9999999999999996,-8.999999999999998 L 5.0,-8.999999999999998 L 5.0,-7.999999999999998 L 4.0,-7.999999999999998 L 4.0,-8.999999999999998 L 3.0,-8.999999999999998 L 2.9999999999999996,-7.999999999999998 L 1.9999999999999996,-7.999999999999998 L 1.9999999999999991,-6.999999999999998 L 2.999999999999999,-6.999999999999997 L 2.9999999999999987,-5.999999999999997 L 1.9999999999999987,-5.999999999999997 L 1.999999999999999,-6.999999999999997 L 0.9999999999999989,-6.999999999999997 L 0.9999999999999984,-5.999999999999997 L -1.5543122344752192e-15,-5.999999999999997 L -1.2481505346883809e-15,-6.999999999999997 L -1.0000000000000013,-6.999999999999997 L -1.000000000000001,-7.999999999999997 L -1.1102230246251565e-15,-7.999999999999997 L -1.2939200444972595e-15,-6.999999999999997 L 0.9999999999999987,-6.999999999999997 L 0.999999999999999,-7.999999999999997 L 1.9999999999999991,-7.999999999999997 L 1.9999999999999993,-8.999999999999996 L 0.9999999999999993,-8.999999999999996 L 0.9999999999999997,-9.999999999999996 L 1.9999999999999996,-9.999999999999996 L 1.9999999999999998,-10.999999999999996 L 0.9999999999999998,-10.999999999999996 L 0.9999999999999993,-9.999999999999996 L -6.661338147750939e-16,-9.999999999999996 L -3.5997211498825566e-16,-10.999999999999996 L -1.0000000000000004,-10.999999999999996 L -1.0000000000000002,-11.999999999999996 L -2.220446049250313e-16,-11.999999999999996 L 8.411709486180696e-17,-12.999999999999996 L -0.9999999999999999,-12.999999999999996 L -1.0000000000000002,-11.999999999999996 L -2.0,-11.999999999999996 L -2.0000000000000004,-10.999999999999996 L -1.0000000000000004,-10.999999999999996 L -1.0000000000000009,-9.999999999999996 L -2.000000000000001,-9.999999999999996 L -2.0000000000000004,-10.999999999999996 L -3.0000000000000004,-10.999999999999996 L -3.000000000000001,-9.999999999999996 L -4.000000000000001,-9.999999999999996 L -4.000000000000001,-10.999999999999996 L -5.000000000000001,-10.999999999999996 L -5.000000000000001,-11.999999999999996 L -4.000000000000001,-11.999999999999996 L -4.000000000000001,-10.999999999999996 L -3.000000000000001,-10.999999999999996 L -3.0000000000000004,-11.999999999999996 L -2.0000000000000004,-11.999999999999996 L -2.0,-12.999999999999996 L -3.0,-12.999999999999996 L -2.9999999999999996,-13.999999999999996 L -1.9999999999999996,-13.999999999999996 L -1.9999999999999993,-14.999999999999996 L -2.999999999999999,-14.999999999999996 L -2.9999999999999996,-13.999999999999996 L -3.9999999999999996,-13.999999999999996 L -3.999999999999999,-14.999999999999996 L -4.999999999999999,-14.999999999999996 L -4.999999999999999,-15.999999999999996 L -3.999999999999999,-15.999999999999996 L -3.999999999999999,-14.999999999999996 L -2.999999999999999,-14.999999999999996 L -2.9999999999999987,-15.999999999999996 L -1.9999999999999987,-15.999999999999996 L -1.9999999999999984,-16.999999999999996 L -2.9999999999999982,-16.999999999999996 L -2.999999999999998,-17.999999999999996 L -1.9999999999999978,-17.999999999999996 L -1.999999999999998,-16.999999999999996 L -0.999999999999998,-16.999999999999996 L -0.9999999999999977,-17.999999999999996 L 2.3314683517128287e-15,-17.999999999999996 L 2.147771331840726e-15,-16.999999999999996 L 1.0000000000000022,-16.999999999999996 L 1.000000000000002,-15.999999999999996 L 1.9984014443252818e-15,-15.999999999999996 L 1.814704424453179e-15,-14.999999999999996 L 1.0000000000000018,-14.999999999999996 L 1.000000000000002,-15.999999999999996 L 2.0000000000000018,-15.999999999999996 L 2.000000000000002,-16.999999999999996 L 1.0000000000000022,-16.999999999999996 L 1.0000000000000024,-17.999999999999996 L 2.0000000000000027,-17.999999999999996 L 2.000000000000003,-18.999999999999996 L 1.000000000000003,-18.999999999999996 L 1.0000000000000027,-17.999999999999996 L 2.6645352591003757e-15,-17.999999999999996 L 2.970696958887214e-15,-18.999999999999996 L -0.999999999999997,-18.999999999999996 L -0.9999999999999967,-19.999999999999996 L 3.3306690738754696e-15,-19.999999999999996 L 3.6368307736623075e-15,-20.999999999999996 L -0.9999999999999963,-20.999999999999996 L -0.9999999999999968,-19.999999999999996 L -1.999999999999997,-19.999999999999996 L -1.9999999999999973,-18.999999999999996 L -0.9999999999999973,-18.999999999999996 L -0.9999999999999978,-17.999999999999996 L -1.9999999999999978,-17.999999999999996 L -1.9999999999999976,-18.999999999999996 L -2.9999999999999973,-18.999999999999996 L -2.999999999999998,-17.999999999999996 L -3.999999999999998,-17.999999999999996 L -3.9999999999999973,-18.999999999999996 L -4.999999999999997,-18.999999999999996 L -4.999999999999997,-19.999999999999996 L -3.9999999999999973,-19.999999999999996 L -3.999999999999997,-20.999999999999996 L -4.9999999999999964,-20.999999999999996 L -4.9999999999999964,-19.999999999999996 L -5.9999999999999964,-19.999999999999996 L -5.9999999999999964,-18.999999999999996 L -4.9999999999999964,-18.999999999999996 L -4.9999999999999964,-17.999999999999996 L -5.9999999999999964,-17.999999999999996 L -5.9999999999999964,-16.999999999999996 L -4.9999999999999964,-16.999999999999996 L -4.999999999999996,-17.999999999999996 L -3.9999999999999956,-17.999999999999996 L -3.999999999999996,-16.999999999999996 L -2.999999999999996,-16.999999999999996 L -2.9999999999999964,-15.999999999999996 L -3.9999999999999964,-15.999999999999996 L -3.999999999999996,-16.999999999999996 L -4.9999999999999964,-16.999999999999996 L -4.9999999999999964,-15.999999999999996 L -5.9999999999999964,-15.999999999999996 L -5.9999999999999964,-14.999999999999996 L -4.9999999999999964,-14.999999999999996 L -4.9999999999999964,-13.999999999999996 L -5.9999999999999964,-13.999999999999996 L -5.9999999999999964,-14.999999999999996 L -6.9999999999999964,-14.999999999999996 L -6.9999999999999964,-13.999999999999996 L -7.9999999999999964,-13.999999999999996 L -7.9999999999999964,-14.999999999999996 L -8.999999999999996,-14.999999999999996 L -8.999999999999996,-15.999999999999996 L -7.9999999999999964,-15.999999999999996 L -7.9999999999999964,-16.999999999999996 L -8.999999999999996,-16.999999999999996 L -8.999999999999996,-15.999999999999996 L -9.999999999999996,-15.999999999999996 L -9.999999999999996,-14.999999999999996 L -8.999999999999996,-14.999999999999996 L -8.999999999999996,-13.999999999999996 L -9.999999999999996,-13.999999999999996 L -9.999999999999996,-12.999999999999996 L -8.999999999999996,-12.999999999999996 L -8.999999999999996,-13.999999999999996 L -7.9999999999999964,-13.999999999999996 L -7.9999999999999964,-12.999999999999996 L -6.9999999999999964,-12.999999999999996 L -6.9999999999999964,-11.999999999999996 L -7.9999999999999964,-11.999999999999996 L -7.9999999999999964,-10.999999999999996 L -6.9999999999999964,-10.999999999999996 L -6.999999999999996,-11.999999999999996 L -5.999999999999996,-11.999999999999996 L -5.999999999999995,-12.999999999999996 L -6.999999999999995,-12.999999999999996 L -6.999999999999994,-13.999999999999996 L -5.999999999999994,-13.999999999999996 L -5.999999999999994,-12.999999999999996 L -4.999999999999994,-12.999999999999996 L -4.999999999999993,-13.999999999999996 L -3.999999999999993,-13.999999999999996 L -3.9999999999999933,-12.999999999999996 L -2.9999999999999933,-12.999999999999996 L -2.999999999999994,-11.999999999999996 L -3.999999999999994,-11.999999999999996 L -3.9999999999999933,-12.999999999999996 L -4.999999999999993,-12.999999999999996 L -4.999999999999993,-11.999999999999996 L -5.999999999999993,-11.999999999999996 L -5.999999999999993,-10.999999999999996 L -4.999999999999993,-10.999999999999996 L -4.999999999999993,-9.999999999999996 L -5.999999999999993,-9.999999999999996 L -5.999999999999993,-8.999999999999996 L -4.999999999999993,-8.999999999999996 L -4.999999999999992,-9.999999999999996 L -3.999999999999992,-9.999999999999996 L -3.9999999999999925,-8.999999999999996 L -2.9999999999999925,-8.999999999999996 L -2.999999999999993,-7.9999999999999964 L -3.999999999999993,-7.9999999999999964 L -3.9999999999999925,-8.999999999999996 L -4.999999999999993,-8.999999999999996 L -4.999999999999993,-7.9999999999999964 L -5.999999999999993,-7.9999999999999964 L -5.999999999999993,-6.9999999999999964 L -4.999999999999993,-6.999999999999996 L -4.999999999999993,-5.999999999999996 L -5.999999999999993,-5.999999999999996 L -5.999999999999993,-6.999999999999996 L -6.999999999999993,-6.999999999999996 L -6.999999999999993,-5.999999999999996 L -7.999999999999993,-5.999999999999996 L -7.999999999999993,-6.999999999999996 L -8.999999999999993,-6.999999999999996 L -8.999999999999993,-7.999999999999996 L -7.999999999999993,-7.999999999999996 L -7.999999999999993,-6.999999999999996 L -6.999999999999993,-6.999999999999996 L -6.999999999999993,-7.999999999999996 L -5.999999999999993,-7.999999999999996 L -5.999999999999993,-8.999999999999996 L -6.999999999999993,-8.999999999999996 L -6.999999999999993,-9.999999999999996 L -5.999999999999993,-9.999999999999996 L -5.999999999999993,-10.999999999999996 L -6.999999999999993,-10.999999999999996 L -6.999999999999993,-9.999999999999996 L -7.999999999999993,-9.999999999999996 L -7.999999999999993,-10.999999999999996 L -8.999999999999993,-10.999999999999996 L -8.999999999999993,-11.999999999999996 L -7.999999999999993,-11.999999999999996 L -7.999999999999993,-12.999999999999996 L -8.999999999999993,-12.999999999999996 L -8.999999999999993,-11.999999999999996 L -9.999999999999993,-11.999999999999996 L -9.999999999999993,-10.999999999999996 L -8.999999999999993,-10.999999999999996 L -8.999999999999993,-9.999999999999996 L -9.999999999999993,-9.999999999999996 L -9.999999999999993,-10.999999999999996 L -10.999999999999993,-10.999999999999996 L -10.999999999999993,-9.999999999999996 L -11.999999999999993,-9.999999999999996 L -11.999999999999993,-10.999999999999996 L -12.999999999999993,-10.999999999999996 L -12.999999999999993,-11.999999999999996 L -11.999999999999993,-11.999999999999996 L -11.999999999999993,-12.999999999999996 L -12.999999999999993,-12.999999999999996 L -12.999999999999993,-11.999999999999996 L -13.999999999999993,-11.999999999999996 L -13.999999999999993,-10.999999999999996 L -12.999999999999993,-10.999999999999996 L -12.999999999999993,-9.999999999999996 L -13.999999999999993,-9.999999999999996 L -13.999999999999993,-8.999999999999996 L -12.999999999999993,-8.999999999999996 L -12.999999999999993,-9.999999999999996 L -11.999999999999993,-9.999999999999996 L -11.999999999999993,-8.999999999999996 L -10.999999999999993,-8.999999999999996 L -10.999999999999993,-7.9999999999999964 L -11.999999999999993,-7.9999999999999964 L -11.999999999999993,-8.999999999999996 L -12.999999999999993,-8.999999999999996 L -12.999999999999993,-7.9999999999999964 L -13.999999999999993,-7.9999999999999964 L -13.999999999999993,-6.9999999999999964 L -12.999999999999993,-6.999999999999996 L -12.999999999999993,-5.999999999999996 L -13.999999999999993,-5.999999999999996 L -13.999999999999993,-6.999999999999996 L -14.999999999999993,-6.999999999999996 L -14.999999999999993,-5.999999999999996 L -15.999999999999993,-5.999999999999996 L -15.999999999999993,-6.999999999999996 L -16.999999999999993,-6.999999999999996 L -16.999999999999993,-7.999999999999996 L -15.999999999999993,-7.999999999999996 L -15.999999999999993,-6.999999999999996 L -14.999999999999993,-6.999999999999996 L -14.999999999999993,-7.999999999999996 L -13.999999999999993,-7.999999999999996 L -13.999999999999993,-8.999999999999996 L -14.999999999999993,-8.999999999999996 L -14.999999999999993,-9.999999999999996 L -13.999999999999993,-9.999999999999996 L -13.999999999999993,-10.999999999999996 L -14.999999999999993,-10.999999999999996 L -14.999999999999993,-9.999999999999996 L -15.999999999999993,-9.999999999999996 L -15.999999999999993,-10.999999999999996 L -16.999999999999993,-10.999999999999996 L -16.999999999999993,-11.999999999999996 L -15.999999999999993,-11.999999999999996 L -15.999999999999993,-12.999999999999996 L -16.999999999999993,-12.999999999999996 L -16.999999999999993,-11.999999999999996 L -17.999999999999993,-11.999999999999996 L -17.999999999999993,-10.999999999999996 L -16.999999999999993,-10.999999999999996 L -16.999999999999993,-9.999999999999996 L -17.999999999999993,-9.999999999999996 L -17.999999999999993,-10.999999999999996 L -18.999999999999993,-10.999999999999996 L -18.999999999999993,-9.999999999999996 L -19.999999999999993,-9.999999999999996 L -19.999999999999993,-10.999999999999996 L -20.999999999999993,-10.999999999999996 L -20.999999999999993,-11.999999999999996 L -19.999999999999993,-11.999999999999996 L -19.999999999999993,-10.999999999999996 L -18.999999999999993,-10.999999999999996 L -18.999999999999993,-11.999999999999996 L -17.999999999999993,-11.999999999999996 L -17.999999999999993,-12.999999999999996 L -18.999999999999993,-12.999999999999996 L -18.999999999999993,-13.999999999999996 L -17.999999999999993,-13.999999999999996 L -17.999999999999993,-14.999999999999996 L -18.999999999999993,-14.999999999999996 L -18.999999999999993,-13.999999999999996 L -19.999999999999993,-13.999999999999996 L -19.999999999999993,-14.999999999999996 L -20.999999999999993,-14.999999999999996 L -20.999999999999993,-15.999999999999996 L -19.999999999999993,-15.999999999999996 L -19.999999999999993,-14.999999999999996 L -18.999999999999993,-14.999999999999996 L -18.999999999999993,-15.999999999999996 L -17.999999999999993,-15.999999999999996 L -17.999999999999993,-16.999999999999996 L -18.999999999999993,-16.999999999999996 L -18.999999999999993,-17.999999999999996 L -17.999999999999993,-17.999999999999996 L -17.999999999999993,-16.999999999999996 L -16.999999999999993,-16.999999999999996 L -16.999999999999993,-17.999999999999996 L -15.999999999999993,-17.999999999999996 L -15.999999999999993,-16.999999999999996 L -14.999999999999993,-16.999999999999996 L -14.999999999999993,-15.999999999999996 L -15.999999999999993,-15.999999999999996 " />
    </g>
</svg>
