<?xml version="1.0" encoding="UTF-8"?>
<!DOCTYPE svg PUBLIC "-//W3C//DTD SVG 1.1//EN"
    "http://www.w3.org/Graphics/SVG/1.1/DTD/svg11.dtd">

<svg xmlns="http://www.w3.org/2000/svg" xmlns:xlink="http://www.w3.org/1999/xlink" version="1.1" width="500.0" height="500" viewBox="-31.6 -95.6 127.19999999999999 127.19999999999999">
    <g>
        <rect x="-31.6" y="-95.6" width="127.19999999999999" height="127.19999999999999" fill="#CBD4C2" />
        <path style="fill:none;stroke:#50514F;stroke-width:0.1px;stroke-linecap:square" d="M 0.0,0.0 L 6.123233995736766e-17,-1.0 L 1.0,-1.0 L 1.0,-2.0 L 0.0,-2.0 L -1.0,-2.0 L -0.9999999999999999,-3.0 L 1.1102230246251565e-16,-3.0 L 1.7225464241988333e-16,-4.0 L 1.0000000000000002,-4.0 L 1.0000000000000002,-3.0 L 2.0,-3.0 L 2.0,-4.0 L 2.0,-5.0 L 3.0,-5.0 L 3.0,-4.0 L 4.0,-4.0 L 4.0,-5.0 L 5.0,-5.0 L 5.0,-6.0 L 4.0,-6.0 L 3.0,-6.0 L 3.0,-7.0 L 4.0,-7.0 L 4.0,-8.0 L 3.0,-8.0 L 3.0,-9.0 L 2.0,-9.0 L 1.9999999999999998,-8.0 L 1.9999999999999996,-7.0 L 0.9999999999999996,-7.0 L 0.9999999999999997,-8.0 L -3.3306690738754696e-16,-8.0 L -1.0000000000000004,-8.0 L -1.0000000000000004,-9.0 L -2.0000000000000004,-9.0 L -2.0000000000000004,-8.0 L -2.0000000000000004,-7.0 L -3.0000000000000004,-7.0 L -3.0000000000000004,-8.0 L -4.0,-8.0 L -4.0,-9.0 L -3.0,-9.0 L -3.0,-10.0 L -4.0,-10.0 L -5.0,-10.0 L -5.0,-11.0 L -4.0,-11.0 L -4.0,-12.0 L -3.0,-12.0 L -3.0,-11.0 L -2.0,-11.0 L -2.0,-12.0 L -2.0,-13.0 L -1.0,-13.0 L -0.9999999999999999,-12.0 L 1.1102230246251565e-16,-12.0 L 1.7225464241988328e-16,-13.0 L 1.0000000000000002,-13.0 L 1.0000000000000002,-14.0 L 2.220446049250313e-16,-14.0 L -0.9999999999999998,-14.0 L -0.9999999999999997,-15.0 L 3.3306690738754696e-16,-15.0 L 3.942992473449146e-16,-16.0 L 1.0000000000000004,-16.0 L 1.0000000000000004,-15.0 L 2.0000000000000004,-15.0 L 2.0000000000000004,-16.0 L 2.0000000000000004,-17.0 L 3.0000000000000004,-17.0 L 3.0000000000000004,-16.0 L 4.0,-16.0 L 4.0,-15.0 L 3.0,-15.0 L 3.0,-14.0 L 4.0,-14.0 L 5.0,-14.0 L 5.0,-13.0 L 4.0,-13.0 L 4.0,-12.0 L 5.0,-12.0 L 5.0,-11.0 L 6.0,-11.0 L 6.0,-12.0 L 6.0,-13.0 L 7.0,-13.0 L 7.0,-12.0 L 8.0,-12.0 L 8.0,-13.0 L 9.0,-13.0 L 9.0,-14.0 L 8.0,-14.0 L 7.0,-14.0 L 7.0,-15.0 L 8.0,-15.0 L 8.0,-16.0 L 8.0,-17.0 L 9.0,-17.0 L 9.0,-18.0 L 8.0,-18.0 L 7.0,-18.0 L 7.0,-19.0 L 8.0,-19.0 L 8.0,-20.0 L 9.0,-20.0 L 9.0,-19.0 L 10.0,-19.0 L 10.0,-20.0 L 10.0,-21.0 L 11.0,-21.0 L 11.0,-20.0 L 12.0,-20.0 L 12.0,-19.0 L 11.0,-19.0 L 11.0,-18.0 L 12.0,-18.0 L 13.0,-18.0 L 13.0,-17.0 L 12.0,-17.0 L 12.0,-16.0 L 13.0,-16.0 L 13.0,-15.0 L 14.0,-15.0 L 14.0,-16.0 L 14.0,-17.0 L 15.0,-17.0 L 15.0,-16.0 L 16.0,-16.0 L 16.0,-17.0 L 17.0,-17.0 L 17.0,-18.0 L 16.0,-18.0 L 15.0,-18.0 L 15.0,-19.0 L 16.0,-19.0 L 16.0,-20.0 L 17.0,-20.0 L 17.0,-19.0 L 18.0,-19.0 L 18.0,-20.0 L 18.0,-21.0 L 19.0,-21.0 L 19.0,-20.0 L 20.0,-20.0 L 20.0,-21.0 L 21.0,-21.0 L 21.0,-22.0 L 20.0,-22.0 L 19.0,-22.0 L 19.0,-23.0 L 20.0,-23.0 L 20.0,-24.0 L 19.0,-24.0 L 19.0,-25.0 L 18.0,-25.0 L 18.0,-24.0 L 18.0,-23.0 L 17.0,-23.0 L 17.0,-24.0 L 16.0,-24.0 L 15.0,-24.0 L 15.0,-25.0 L 14.0,-25.0 L 14.0,-24.0 L 14.0,-23.0 L 13.0,-23.0 L 13.0,-24.0 L 12.0,-24.0 L 12.0,-25.0 L 13.0,-25.0 L 13.0,-26.0 L 12.0,-26.0 L 11.0,-26.0 L 11.0,-27.0 L 12.0,-27.0 L 12.0,-28.0 L 13.0,-28.0 L 13.0,-27.0 L 14.0,-27.0 L 14.0,-28.0 L 14.0,-29.0 L 15.0,-29.0 L 15.0,-28.0 L 16.0,-28.0 L 16.0,-29.0 L 17.0,-29.0 L 17.0,-30.0 L 16.0,-30.0 L 15.0,-30.0 L 15.0,-31.0 L 16.0,-31.0 L 16.0,-32.0 L 15.0,-32.0 L 15.0,-33.0 L 14.0,-33.0 L 14.0,-32.0 L 14.0,-31.0 L 13.0,-31.0 L 13.0,-32.0 L 12.0,-32.0 L 12.0,-33.0 L 13.0,-33.0 L 13.0,-34.0 L 12.0,-34.0 L 11.0,-34.0 L 11.0,-35.0 L 12.0,-35.0 L 12.0,-36.0 L 11.0,-36.0 L 11.0,-37.0 L 10.0,-37.0 L 10.0,-36.0 L 10.0,-35.0 L 9.0,-35.0 L 9.0,-36.0 L 8.0,-36.0 L 8.0,-35.0 L 7.0,-35.0 L 7.0,-34.0 L 8.0,-34.0 L 9.0,-34.0 L 9.0,-33.0 L 8.0,-33.0 L 8.0,-32.0 L 8.0,-31.0 L 7.0,-31.0 L 7.0,-30.0 L 8.0,-30.0 L 9.0,-30.0 L 9.0,-29.0 L 8.0,-29.0 L 8.0,-28.0 L 7.0,-28.0 L 7.0,-29.0 L 6.0,-29.0 L 6.0,-28.0 L 6.0,-27.0 L 5.0,-27.0 L 5.0,-28.0 L 4.0,-28.0 L 4.0,-29.0 L 5.0,-29.0 L 5.0,-30.0 L 4.0,-30.0 L 3.0,-30.0 L 3.0,-31.0 L 4.0,-31.0 L 4.0,-32.0 L 3.0,-32.0 L 3.0,-33.0 L 2.0,-33.0 L 1.9999999999999998,-32.0 L 1.9999999999999996,-31.0 L 0.9999999999999996,-31.0 L 0.9999999999999997,-32.0 L -3.3306690738754696e-16,-32.0 L -1.0000000000000004,-32.0 L -1.0000000000000004,-33.0 L -2.0000000000000004,-33.0 L -2.0000000000000004,-32.0 L -2.0000000000000004,-31.0 L -3.0000000000000004,-31.0 L -3.0000000000000004,-32.0 L -4.0,-32.0 L -4.0,-33.0 L -3.0,-33.0 L -3.0,-34.0 L -4.0,-34.0 L -5.0,-34.0 L -5.0,-35.0 L -4.0,-35.0 L -4.0,-36.0 L -5.0,-36.0 L -5.0,-37.0 L -6.0,-37.0 L -6.0,-36.0 L -6.0,-35.0 L -7.0,-35.0 L -7.0,-36.0 L -8.0,-36.0 L -8.0,-35.0 L -9.0,-35.0 L -9.0,-34.0 L -8.0,-34.0 L -7.0,-34.0 L -7.0,-33.0 L -8.0,-33.0 L -8.0,-32.0 L -8.0,-31.0 L -9.0,-31.0 L -9.0,-30.0 L -8.0,-30.0 L -7.0,-30.0 L -7.0,-29.0 L -8.0,-29.0 L -8.0,-28.0 L -9.0,-28.0 L -9.0,-29.0 L -10.0,-29.0 L -10.0,-28.0 L -10.0,-27.0 L -11.0,-27.0 L -11.0,-28.0 L -12.0,-28.0 L -12.0,-29.0 L -11.0,-29.0 L -11.0,-30.0 L -12.0,-30.0 L -13.0,-30.0 L -13.0,-31.0 L -12.0,-31.0 L -12.0,-32.0 L -13.0,-32.0 L -13.0,-33.0 L -14.0,-33.0 L -14.0,-32.0 L -14.0,-31.0 L -15.0,-31.0 L -15.0,-32.0 L -16.0,-32.0 L -16.0,-33.0 L -15.0,-33.0 L -15.0,-34.0 L -16.0,-34.0 L -17.0,-34.0 L -17.0,-35.0 L -16.0,-35.0 L -16.0,-36.0 L -15.0,-36.0 L -15.0,-35.0 L -14.0,-35.0 L -14.0,-36.0 L -14.0,-37.0 L -13.0,-37.0 L -13.0,-36.0 L -12.0,-36.0 L -12.0,-37.0 L -11.0,-37.0 L -11.0,-38.0 L -12.0,-38.0 L -13.0,-38.0 L -13.0,-39.0 L -12.0,-39.0 L -12.0,-40.0 L -13.0,-40.0 L -13.0,-41.0 L -14.0,-41.0 L -14.0,-40.0 L -14.0,-39.0 L -15.0,-39.0 L -15.0,-40.0 L -16.0,-40.0 L -17.0,-40.0 L -17.0,-41.0 L -18.0,-41.0 L -18.0,-40.0 L -18.0,-39.0 L -19.0,-39.0 L -19.0,-40.0 L -20.0,-40.0 L -20.0,-41.0 L -19.0,-41.0 L -19.0,-42.0 L -20.0,-42.0 L -21.0,-42.0 L -21.0,-43.0 L -20.0,-43.0 L -20.0,-44.0 L -19.0,-44.0 L -19.0,-43.0 L -18.0,-43.0 L -18.0,-44.0 L -18.0,-45.0 L -17.0,-45.0 L -17.0,-44.0 L -16.0,-44.0 L -16.0,-45.0 L -15.0,-45.0 L -15.0,-46.0 L -16.0,-46.0 L -17.0,-46.0 L -17.0,-47.0 L -16.0,-47.0 L -16.0,-48.0 L -15.0,-48.0 L -15.0,-47.0 L -14.0,-47.0 L -14.0,-48.0 L -14.0,-49.0 L -13.0,-49.0 L -13.0,-48.0 L -12.0,-48.0 L -12.0,-47.0 L -13.0,-47.0 L -13.0,-46.0 L -12.0,-46.0 L -11.0,-46.0 L -11.0,-45.0 L -12.0,-45.0 L -12.0,-44.0 L -11.0,-44.0 L -11.0,-43.0 L -10.0,-43.0 L -10.0,-44.0 L -10.0,-45.0 L -9.0,-45.0 L -9.0,-44.0 L -8.0,-44.0 L -8.0,-45.0 L -7.0,-45.0 L -7.0,-46.0 L -8.0,-46.0 L -9.0,-46.0 L -9.0,-47.0 L -8.0,-47.0 L -8.0,-48.0 L -8.0,-49.0 L -7.0,-49.0 L -7.0,-50.0 L -8.0,-50.0 L -9.0,-50.0 L -9.0,-51.0 L -8.0,-51.0 L -8.0,-52.0 L -7.0,-52.0 L -7.0,-51.0 L -6.0,-51.0 L -6.0,-52.0 L -6.0,-53.0 L -5.0,-53.0 L -5.0,-52.0 L -4.0,-52.0 L -4.0,-51.0 L -5.0,-51.0 L -5.0,-50.0 L -4.0,-50.0 L -3.0,-50.0 L -3.0,-49.0 L -4.0,-49.0 L -4.0,-48.0 L -3.0,-48.0 L -3.0,-47.0 L -2.0,-47.0 L -2.0,-48.0 L -2.0,-49.0 L -1.0,-49.0 L -0.9999999999999999,-48.0 L 1.1102230246251565e-16,-48.0 L 1.7225464241988328e-16,-49.0 L 1.0000000000000002,-49.0 L 1.0000000000000002,-50.0 L 2.220446049250313e-16,-50.0 L -0.9999999999999998,-50.0 L -0.9999999999999997,-51.0 L 3.3306690738754696e-16,-51.0 L 3.942992473449146e-16,-52.0 L 1.0000000000000004,-52.0 L 1.0000000000000004,-51.0 L 2.0000000000000004,-51.0 L 2.0000000000000004,-52.0 L 2.0000000000000004,-53.0 L 3.0000000000000004,-53.0 L 3.0000000000000004,-52.0 L 4.0,-52.0 L 4.0,-53.0 L 5.0,-53.0 L 5.0,-54.0 L 4.0,-54.0 L 3.0,-54.0 L 3.0,-55.0 L 4.0,-55.0 L 4.0,-56.0 L 3.0,-56.0 L 3.0,-57.0 L 2.0,-57.0 L 1.9999999999999998,-56.0 L 1.9999999999999996,-55.0 L 0.9999999999999996,-55.0 L 0.9999999999999997,-56.0 L -3.3306690738754696e-16,-56.0 L -1.0000000000000004,-56.0 L -1.0000000000000004,-57.0 L -2.0000000000000004,-57.0 L -2.0000000000000004,-56.0 L -2.0000000000000004,-55.0 L -3.0000000000000004,-55.0 L -3.0000000000000004,-56.0 L -4.0,-56.0 L -4.0,-57.0 L -3.0,-57.0 L -3.0,-58.0 L -4.0,-58.0 L -5.0,-58.0 L -5.0,-59.0 L -4.0,-59.0 L -4.0,-60.0 L -3.0,-60.0 L -3.0,-59.0 L -2.0,-59.0 L -2.0,-60.0 L -2.0,-61.0 L -1.0,-61.0 L -0.9999999999999999,-60.0 L 1.1102230246251565e-16,-60.0 L 1.7225464241988328e-16,-61.0 L 1.0000000000000002,-61.0 L 1.0000000000000002,-62.0 L 2.220446049250313e-16,-62.0 L -0.9999999999999998,-62.0 L -0.9999999999999997,-63.0 L 3.3306690738754696e-16,-63.0 L 3.942992473449146e-16,-64.0 L 1.0000000000000004,-64.0 L 1.0000000000000004,-63.0 L 2.0000000000000004,-63.0 L 2.0000000000000004,-64.0 L 2.0000000000000004,-65.0 L 3.0000000000000004,-65.0 L 3.0000000000000004,-64.0 L 4.0,-64.0 L 4.0,-63.0 L 3.0,-63.0 L 3.0,-62.0 L 4.0,-62.0 L 5.0,-62.0 L 5.0,-61.0 L 4.0,-61.0 L 4.0,-60.0 L 5.0,-60.0 L 5.0,-59.0 L 6.0,-59.0 L 6.0,-60.0 L 6.0,-61.0 L 7.0,-61.0 L 7.0,-60.0 L 8.0,-60.0 L 8.0,-61.0 L 9.0,-61.0 L 9.0,-62.0 L 8.0,-62.0 L 7.0,-62.0 L 7.0,-63.0 L 8.0,-63.0 L 8.0,-64.0 L 8.0,-65.0 L 9.0,-65.0 L 9.0,-66.0 L 8.0,-66.0 L 7.0,-66.0 L 7.0,-67.0 L 8.0,-67.0 L 8.0,-68.0 L 9.0,-68.0 L 9.0,-67.0 L 10.0,-67.0 L 10.0,-68.0 L 10.0,-69.0 L 11.0,-69.0 L 11.0,-68.0 L 12.0,-68.0 L 12.0,-67.0 L 11.0,-67.0 L 11.0,-66.0 L 12.0,-66.0 L 13.0,-66.0 L 13.0,-65.0 L 12.0,-65.0 L 12.0,-64.0 L 13.0,-64.0 L 13.0,-63.0 L 14.0,-63.0 L 14.0,-64.0 L 14.0,-65.0 L 15.0,-65.0 L 15.0,-64.0 L 16.0,-64.0 L 16.0,-63.0 L 15.0,-63.0 L 15.0,-62.0 L 16.0,-62.0 L 17.0,-62.0 L 17.0,-61.0 L 16.0,-61.0 L 16.0,-60.0 L 15.0,-60.0 L 15.0,-61.0 L 14.0,-61.0 L 14.0,-60.0 L 14.0,-59.0 L 13.0,-59.0 L 13.0,-60.0 L 12.0,-60.0 L 12.0,-59.0 L 11.0,-59.0 L 11.0,-58.0 L 12.0,-58.0 L 13.0,-58.0 L 13.0,-57.0 L 12.0,-57.0 L 12.0,-56.0 L 13.0,-56.0 L 13.0,-55.0 L 14.0,-55.0 L 14.0,-56.0 L 14.0,-57.0 L 15.0,-57.0 L 15.0,-56.0 L 16.0,-56.0 L 17.0,-56.0 L 17.0,-55.0 L 18.0,-55.0 L 18.0,-56.0 L 18.0,-57.0 L 19.0,-57.0 L 19.0,-56.0 L 20.0,-56.0 L 20.0,-55.0 L 19.0,-55.0 L 19.0,-54.0 L 20.0,-54.0 L 21.0,-54.0 L 21.0,-53.0 L 20.0,-53.0 L 20.0,-52.0 L 19.0,-52.0 L 19.0,-53.0 L 18.0,-53.0 L 18.0,-52.0 L 18.0,-51.0 L 17.0,-51.0 L 17.0,-52.0 L 16.0,-52.0 L 16.0,-51.0 L 15.0,-51.0 L 15.0,-50.0 L 16.0,-50.0 L 17.0,-50.0 L 17.0,-49.0 L 16.0,-49.0 L 16.0,-48.0 L 17.0,-48.0 L 17.0,-47.0 L 18.0,-47.0 L 18.0,-48.0 L 18.0,-49.0 L 19.0,-49.0 L 19.0,-48.0 L 20.0,-48.0 L 20.0,-47.0 L 19.0,-47.0 L 19.0,-46.0 L 20.0,-46.0 L 21.0,-46.0 L 21.0,-45.0 L 20.0,-45.0 L 20.0,-44.0 L 21.0,-44.0 L 21.0,-43.0 L 22.0,-43.0 L 22.0,-44.0 L 22.0,-45.0 L 23.0,-45.0 L 23.0,-44.0 L 24.0,-44.0 L 24.0,-45.0 L 25.0,-45.0 L 25.0,-46.0 L 24.0,-46.0 L 23.0,-46.0 L 23.0,-47.0 L 24.0,-47.0 L 24.0,-48.0 L 24.0,-49.0 L 25.0,-49.0 L 25.0,-50.0 L 24.0,-50.0 L 23.0,-50.0 L 23.0,-51.0 L 24.0,-51.0 L 24.0,-52.0 L 25.0,-52.0 L 25.0,-51.0 L 26.0,-51.0 L 26.0,-52.0 L 26.0,-53.0 L 27.0,-53.0 L 27.0,-52.0 L 28.0,-52.0 L 28.0,-51.0 L 27.0,-51.0 L 27.0,-50.0 L 28.0,-50.0 L 29.0,-50.0 L 29.0,-49.0 L 28.0,-49.0 L 28.0,-48.0 L 29.0,-48.0 L 29.0,-47.0 L 30.0,-47.0 L 30.0,-48.0 L 30.0,-49.0 L 31.0,-49.0 L 31.0,-48.0 L 32.0,-48.0 L 32.0,-49.0 L 33.0,-49.0 L 33.0,-50.0 L 32.0,-50.0 L 31.0,-50.0 L 31.0,-51.0 L 32.0,-51.0 L 32.0,-52.0 L 33.0,-52.0 L 33.0,-51.0 L 34.0,-51.0 L 34.0,-52.0 L 34.0,-53.0 L 35.0,-53.0 L 35.0,-52.0 L 36.0,-52.0 L 36.0,-53.0 L 37.0,-53.0 L 37.0,-54.0 L 36.0,-54.0 L 35.0,-54.0 L 35.0,-55.0 L 36.0,-55.0 L 36.0,-56.0 L 35.0,-56.0 L 35.0,-57.0 L 34.0,-57.0 L 34.0,-56.0 L 34.0,-55.0 L 33.0,-55.0 L 33.0,-56.0 L 32.0,-56.0 L 31.0,-56.0 L 31.0,-57.0 L 30.0,-57.0 L 30.0,-56.0 L 30.0,-55.0 L 29.0,-55.0 L 29.0,-56.0 L 28.0,-56.0 L 28.0,-57.0 L 29.0,-57.0 L 29.0,-58.0 L 28.0,-58.0 L 27.0,-58.0 L 27.0,-59.0 L 28.0,-59.0 L 28.0,-60.0 L 29.0,-60.0 L 29.0,-59.0 L 30.0,-59.0 L 30.0,-60.0 L 30.0,-61.0 L 31.0,-61.0 L 31.0,-60.0 L 32.0,-60.0 L 32.0,-61.0 L 33.0,-61.0 L 33.0,-62.0 L 32.0,-62.0 L 31.0,-62.0 L 31.0,-63.0 L 32.0,-63.0 L 32.0,-64.0 L 32.0,-65.0 L 33.0,-65.0 L 33.0,-66.0 L 32.0,-66.0 L 31.0,-66.0 L 31.0,-67.0 L 32.0,-67.0 L 32.0,-68.0 L 33.0,-68.0 L 33.0,-67.0 L 34.0,-67.0 L 34.0,-68.0 L 34.0,-69.0 L 35.0,-69.0 L 35.0,-68.0 L 36.0,-68.0 L 36.0,-69.0 L 37.0,-69.0 L 37.0,-70.0 L 36.0,-70.0 L 35.0,-70.0 L 35.0,-71.0 L 36.0,-71.0 L 36.0,-72.0 L 35.0,-72.0 L 35.0,-73.0 L 34.0,-73.0 L 34.0,-72.0 L 34.0,-71.0 L 33.0,-71.0 L 33.0,-72.0 L 32.0,-72.0 L 31.0,-72.0 L 31.0,-73.0 L 30.0,-73.0 L 30.0,-72.0 L 30.0,-71.0 L 29.0,-71.0 L 29.0,-72.0 L 28.0,-72.0 L 28.0,-73.0 L 29.0,-73.0 L 29.0,-74.0 L 28.0,-74.0 L 27.0,-74.0 L 27.0,-75.0 L 28.0,-75.0 L 28.0,-76.0 L 29.0,-76.0 L 29.0,-75.0 L 30.0,-75.0 L 30.0,-76.0 L 30.0,-77.0 L 31.0,-77.0 L 31.0,-76.0 L 32.0,-76.0 L 32.0,-77.0 L 33.0,-77.0 L 33.0,-78.0 L 32.0,-78.0 L 31.0,-78.0 L 31.0,-79.0 L 32.0,-79.0 L 32.0,-80.0 L 33.0,-80.0 L 33.0,-79.0 L 34.0,-79.0 L 34.0,-80.0 L 34.0,-81.0 L 35.0,-81.0 L 35.0,-80.0 L 36.0,-80.0 L 36.0,-79.0 L 35.0,-79.0 L 35.0,-78.0 L 36.0,-78.0 L 37.0,-78.0 L 37.0,-77.0 L 36.0,-77.0 L 36.0,-76.0 L 37.0,-76.0 L 37.0,-75.0 L 38.0,-75.0 L 38.0,-76.0 L 38.0,-77.0 L 39.0,-77.0 L 39.0,-76.0 L 40.0,-76.0 L 40.0,-77.0 L 41.0,-77.0 L 41.0,-78.0 L 40.0,-78.0 L 39.0,-78.0 L 39.0,-79.0 L 40.0,-79.0 L 40.0,-80.0 L 40.0,-81.0 L 41.0,-81.0 L 41.0,-82.0 L 40.0,-82.0 L 39.0,-82.0 L 39.0,-83.0 L 40.0,-83.0 L 40.0,-84.0 L 41.0,-84.0 L 41.0,-83.0 L 42.0,-83.0 L 42.0,-84.0 L 42.0,-85.0 L 43.0,-85.0 L 43.0,-84.0 L 44.0,-84.0 L 44.0,-83.0 L 43.0,-83.0 L 43.0,-82.0 L 44.0,-82.0 L 45.0,-82.0 L 45.0,-81.0 L 44.0,-81.0 L 44.0,-80.0 L 45.0,-80.0 L 45.0,-79.0 L 46.0,-79.0 L 46.0,-80.0 L 46.0,-81.0 L 47.0,-81.0 L 47.0,-80.0 L 48.0,-80.0 L 48.0,-79.0 L 47.0,-79.0 L 47.0,-78.0 L 48.0,-78.0 L 49.0,-78.0 L 49.0,-77.0 L 48.0,-77.0 L 48.0,-76.0 L 47.0,-76.0 L 47.0,-77.0 L 46.0,-77.0 L 46.0,-76.0 L 46.0,-75.0 L 45.0,-75.0 L 45.0,-76.0 L 44.0,-76.0 L 44.0,-75.0 L 43.0,-75.0 L 43.0,-74.0 L 44.0,-74.0 L 45.0,-74.0 L 45.0,-73.0 L 44.0,-73.0 L 44.0,-72.0 L 45.0,-72.0 L 45.0,-71.0 L 46.0,-71.0 L 46.0,-72.0 L 46.0,-73.0 L 47.0,-73.0 L 47.0,-72.0 L 48.0,-72.0 L 49.0,-72.0 L 49.0,-71.0 L 50.0,-71.0 L 50.0,-72.0 L 50.0,-73.0 L 51.0,-73.0 L 51.0,-72.0 L 52.0,-72.0 L 52.0,-71.0 L 51.0,-71.0 L 51.0,-70.0 L 52.0,-70.0 L 53.0,-70.0 L 53.0,-69.0 L 52.0,-69.0 L 52.0,-68.0 L 51.0,-68.0 L 51.0,-69.0 L 50.0,-69.0 L 50.0,-68.0 L 50.0,-67.0 L 49.0,-67.0 L 49.0,-68.0 L 48.0,-68.0 L 48.0,-67.0 L 47.0,-67.0 L 47.0,-66.0 L 48.0,-66.0 L 49.0,-66.0 L 49.0,-65.0 L 48.0,-65.0 L 48.0,-64.0 L 49.0,-64.0 L 49.0,-63.0 L 50.0,-63.0 L 50.0,-64.0 L 50.0,-65.0 L 51.0,-65.0 L 51.0,-64.0 L 52.0,-64.0 L 52.0,-63.0 L 51.0,-63.0 L 51.0,-62.0 L 52.0,-62.0 L 53.0,-62.0 L 53.0,-61.0 L 52.0,-61.0 L 52.0,-60.0 L 53.0,-60.0 L 53.0,-59.0 L 54.0,-59.0 L 54.0,-60.0 L 54.0,-61.0 L 55.0,-61.0 L 55.0,-60.0 L 56.0,-60.0 L 56.0,-61.0 L 57.0,-61.0 L 57.0,-62.0 L 56.0,-62.0 L 55.0,-62.0 L 55.0,-63.0 L 56.0,-63.0 L 56.0,-64.0 L 56.0,-65.0 L 57.0,-65.0 L 57.0,-66.0 L 56.0,-66.0 L 55.0,-66.0 L 55.0,-67.0 L 56.0,-67.0 L 56.0,-68.0 L 57.0,-68.0 L 57.0,-67.0 L 58.0,-67.0 L 58.0,-68.0 L 58.0,-69.0 L 59.0,-69.0 L 59.0,-68.0 L 60.0,-68.0 L 60.0,-67.0 L 59.0,-67.0 L 59.0,-66.0 L 60.0,-66.0 L 61.0,-66.0 L 61.0,-65.0 L 60.0,-65.0 L 60.0,-64.0 L 61.0,-64.0 L 61.0,-63.0 L 62.0,-63.0 L 62.0,-64.0 L 62.0,-65.0 L 63.0,-65.0 L 63.0,-64.0 L 64.0,-64.0 L 64.0,-63.0 L 63.0,-63.0 L 63.0,-62.0 L 64.0,-62.0 L 65.0,-62.0 L 65.0,-61.0 L 64.0,-61.0 L 64.0,-60.0 L 63.0,-60.0 L 63.0,-61.0 L 62.0,-61.0 L 62.0,-60.0 L 62.0,-59.0 L 61.0,-59.0 L 61.0,-60.0 L 60.0,-60.0 L 60.0,-59.0 L 59.0,-59.0 L 59.0,-58.0 L 60.0,-58.0 L 61.0,-58.0 L 61.0,-57.0 L 60.0,-57.0 L 60.0,-56.0 L 61.0,-56.0 L 61.0,-55.0 L 62.0,-55.0 L 62.0,-56.0 L 62.0,-57.0 L 63.0,-57.0 L 63.0,-56.0 L 64.0,-56.0 L 65.0,-56.0 L 65.0,-55.0 L 66.0,-55.0 L 66.0,-56.0 L 66.0,-57.0 L 67.0,-57.0 L 67.0,-56.0 L 68.0,-56.0 L 68.0,-55.0 L 67.0,-55.0 L 67.0,-54.0 L 68.0,-54.0 L 69.0,-54.0 L 69.0,-53.0 L 68.0,-53.0 L 68.0,-52.0 L 67.0,-52.0 L 67.0,-53.0 L 66.0,-53.0 L 66.0,-52.0 L 66.0,-51.0 L 65.0,-51.0 L 65.0,-52.0 L 64.0,-52.0 L 64.0,-51.0 L 63.0,-51.0 L 63.0,-50.0 L 64.0,-50.0 L 65.0,-50.0 L 65.0,-49.0 L 64.0,-49.0 L 64.0,-48.0 L 63.0,-48.0 L 63.0,-49.0 L 62.0,-49.0 L 62.0,-48.0 L 62.0,-47.0 L 61.0,-47.0 L 61.0,-48.0 L 60.0,-48.0 L 60.0,-49.0 L 61.0,-49.0 L 61.0,-50.0 L 60.0,-50.0 L 59.0,-50.0 L 59.0,-51.0 L 60.0,-51.0 L 60.0,-52.0 L 59.0,-52.0 L 59.0,-53.0 L 58.0,-53.0 L 58.0,-52.0 L 58.0,-51.0 L 57.0,-51.0 L 57.0,-52.0 L 56.0,-52.0 L 56.0,-51.0 L 55.0,-51.0 L 55.0,-50.0 L 56.0,-50.0 L 57.0,-50.0 L 57.0,-49.0 L 56.0,-49.0 L 56.0,-48.0 L 56.0,-47.0 L 55.0,-47.0 L 55.0,-46.0 L 56.0,-46.0 L 57.0,-46.0 L 57.0,-45.0 L 56.0,-45.0 L 56.0,-44.0 L 55.0,-44.0 L 55.0,-45.0 L 54.0,-45.0 L 54.0,-44.0 L 54.0,-43.0 L 53.0,-43.0 L 53.0,-44.0 L 52.0,-44.0 L 52.0,-45.0 L 53.0,-45.0 L 53.0,-46.0 L 52.0,-46.0 L 51.0,-46.0 L 51.0,-47.0 L 52.0,-47.0 L 52.0,-48.0 L 51.0,-48.0 L 51.0,-49.0 L 50.0,-49.0 L 50.0,-48.0 L 50.0,-47.0 L 49.0,-47.0 L 49.0,-48.0 L 48.0,-48.0 L 48.0,-47.0 L 47.0,-47.0 L 47.0,-46.0 L 48.0,-46.0 L 49.0,-46.0 L 49.0,-45.0 L 48.0,-45.0 L 48.0,-44.0 L 47.0,-44.0 L 47.0,-45.0 L 46.0,-45.0 L 46.0,-44.0 L 46.0,-43.0 L 45.0,-43.0 L 45.0,-44.0 L 44.0,-44.0 L 44.0,-43.0 L 43.0,-43.0 L 43.0,-42.0 L 44.0,-42.0 L 45.0,-42.0 L 45.0,-41.0 L 44.0,-41.0 L 44.0,-40.0 L 45.0,-40.0 L 45.0,-39.0 L 46.0,-39.0 L 46.0,-40.0 L 46.0,-41.0 L 47.0,-41.0 L 47.0,-40.0 L 48.0,-40.0 L 49.0,-40.0 L 49.0,-39.0 L 50.0,-39.0 L 50.0,-40.0 L 50.0,-41.0 L 51.0,-41.0 L 51.0,-40.0 L 52.0,-40.0 L 52.0,-39.0 L 51.0,-39.0 L 51.0,-38.0 L 52.0,-38.0 L 53.0,-38.0 L 53.0,-37.0 L 52.0,-37.0 L 52.0,-36.0 L 51.0,-36.0 L 51.0,-37.0 L 50.0,-37.0 L 50.0,-36.0 L 50.0,-35.0 L 49.0,-35.0 L 49.0,-36.0 L 48.0,-36.0 L 48.0,-35.0 L 47.0,-35.0 L 47.0,-34.0 L 48.0,-34.0 L 49.0,-34.0 L 49.0,-33.0 L 48.0,-33.0 L 48.0,-32.0 L 49.0,-32.0 L 49.0,-31.0 L 50.0,-31.0 L 50.0,-32.0 L 50.0,-33.0 L 51.0,-33.0 L 51.0,-32.0 L 52.0,-32.0 L 52.0,-31.0 L 51.0,-31.0 L 51.0,-30.0 L 52.0,-30.0 L 53.0,-30.0 L 53.0,-29.0 L 52.0,-29.0 L 52.0,-28.0 L 53.0,-28.0 L 53.0,-27.0 L 54.0,-27.0 L 54.0,-28.0 L 54.0,-29.0 L 55.0,-29.0 L 55.0,-28.0 L 56.0,-28.0 L 56.0,-29.0 L 57.0,-29.0 L 57.0,-30.0 L 56.0,-30.0 L 55.0,-30.0 L 55.0,-31.0 L 56.0,-31.0 L 56.0,-32.0 L 56.0,-33.0 L 57.0,-33.0 L 57.0,-34.0 L 56.0,-34.0 L 55.0,-34.0 L 55.0,-35.0 L 56.0,-35.0 L 56.0,-36.0 L 57.0,-36.0 L 57.0,-35.0 L 58.0,-35.0 L 58.0,-36.0 L 58.0,-37.0 L 59.0,-37.0 L 59.0,-36.0 L 60.0,-36.0 L 60.0,-35.0 L 59.0,-35.0 L 59.0,-34.0 L 60.0,-34.0 L 61.0,-34.0 L 61.0,-33.0 L 60.0,-33.0 L 60.0,-32.0 L 61.0,-32.0 L 61.0,-31.0 L 62.0,-31.0 L 62.0,-32.0 L 62.0,-33.0 L 63.0,-33.0 L 63.0,-32.0 L 64.0,-32.0 L 65.0,-32.0 L 65.0,-31.0 L 66.0,-31.0 L 66.0,-32.0 L 66.0,-33.0 L 67.0,-33.0 L 67.0,-32.0 L 68.0,-32.0 L 68.0,-31.0 L 67.0,-31.0 L 67.0,-30.0 L 68.0,-30.0 L 69.0,-30.0 L 69.0,-29.0 L 68.0,-29.0 L 68.0,-28.0 L 69.0,-28.0 L 69.0,-27.0 L 70.0,-27.0 L 70.0,-28.0 L 70.0,-29.0 L 71.0,-29.0 L 71.0,-28.0 L 72.0,-28.0 L 72.0,-29.0 L 73.0,-29.0 L 73.0,-30.0 L 72.0,-30.0 L 71.0,-30.0 L 71.0,-31.0 L 72.0,-31.0 L 72.0,-32.0 L 72.0,-33.0 L 73.0,-33.0 L 73.0,-34.0 L 72.0,-34.0 L 71.0,-34.0 L 71.0,-35.0 L 72.0,-35.0 L 72.0,-36.0 L 73.0,-36.0 L 73.0,-35.0 L 74.0,-35.0 L 74.0,-36.0 L 74.0,-37.0 L 75.0,-37.0 L 75.0,-36.0 L 76.0,-36.0 L 76.0,-35.0 L 75.0,-35.0 L 75.0,-34.0 L 76.0,-34.0 L 77.0,-34.0 L 77.0,-33.0 L 76.0,-33.0 L 76.0,-32.0 L 77.0,-32.0 L 77.0,-31.0 L 78.0,-31.0 L 78.0,-32.0 L 78.0,-33.0 L 79.0,-33.0 L 79.0,-32.0 L 80.0,-32.0 L 80.0,-31.0 L 79.0,-31.0 L 79.0,-30.0 L 80.0,-30.0 L 81.0,-30.0 L 81.0,-29.0 L 80.0,-29.0 L 80.0,-28.0 L 79.0,-28.0 L 79.0,-29.0 L 78.0,-29.0 L 78.0,-28.0 L 78.0,-27.0 L 77.0,-27.0 L 77.0,-28.0 L 76.0,-28.0 L 76.0,-27.0 L 75.0,-27.0 L 75.0,-26.0 L 76.0,-26.0 L 77.0,-26.0 L 77.0,-25.0 L 76.0,-25.0 L 76.0,-24.0 L 77.0,-24.0 L 77.0,-23.0 L 78.0,-23.0 L 78.0,-24.0 L 78.0,-25.0 L 79.0,-25.0 L 79.0,-24.0 L 80.0,-24.0 L 81.0,-24.0 L 81.0,-23.0 L 82.0,-23.0 L 82.0,-24.0 L 82.0,-25.0 L 83.0,-25.0 L 83.0,-24.0 L 84.0,-24.0 L 84.0,-23.0 L 83.0,-23.0 L 83.0,-22.0 L 84.0,-22.0 L 85.0,-22.0 L 85.0,-21.0 L 84.0,-21.0 L 84.0,-20.0 L 83.0,-20.0 L 83.0,-21.0 L 82.0,-21.0 L 82.0,-20.0 L 82.0,-19.0 L 81.0,-19.0 L 81.0,-20.0 L 80.0,-20.0 L 80.0,-19.0 L 79.0,-19.0 L 79.0,-18.0 L 80.0,-18.0 L 81.0,-18.0 L 81.0,-17.0 L 80.0,-17.0 L 80.0,-16.0 L 79.0,-16.0 L 79.0,-17.0 L 78.0,-17.0 L 78.0,-16.0 L 78.0,-15.0 L 77.0,-15.0 L 77.0,-16.0 L 76.0,-16.0 L 76.0,-17.0 L 77.0,-17.0 L 77.0,-18.0 L 76.0,-18.0 L 75.0,-18.0 L 75.0,-19.0 L 76.0,-19.0 L 76.0,-20.0 L 75.0,-20.0 L 75.0,-21.0 L 74.0,-21.0 L 74.0,-20.0 L 74.0,-19.0 L 73.0,-19.0 L 73.0,-20.0 L 72.0,-20.0 L 72.0,-19.0 L 71.0,-19.0 L 71.0,-18.0 L 72.0,-18.0 L 73.0,-18.0 L 73.0,-17.0 L 72.0,-17.0 L 72.0,-16.0 L 72.0,-15.0 L 71.0,-15.0 L 71.0,-14.0 L 72.0,-14.0 L 73.0,-14.0 L 73.0,-13.0 L 72.0,-13.0 L 72.0,-12.0 L 71.0,-12.0 L 71.0,-13.0 L 70.0,-13.0 L 70.0,-12.0 L 70.0,-11.0 L 69.0,-11.0 L 69.0,-12.0 L 68.0,-12.0 L 68.0,-13.0 L 69.0,-13.0 L 69.0,-14.0 L 68.0,-14.0 L 67.0,-14.0 L 67.0,-15.0 L 68.0,-15.0 L 68.0,-16.0 L 67.0,-16.0 L 67.0,-17.0 L 66.0,-17.0 L 66.0,-16.0 L 66.0,-15.0 L 65.0,-15.0 L 65.0,-16.0 L 64.0,-16.0 L 64.0,-15.0 L 63.0,-15.0 L 63.0,-14.0 L 64.0,-14.0 L 65.0,-14.0 L 65.0,-13.0 L 64.0,-13.0 L 64.0,-12.0 L 63.0,-12.0 L 63.0,-13.0 L 62.0,-13.0 L 62.0,-12.0 L 62.0,-11.0 L 61.0,-11.0 L 61.0,-12.0 L 60.0,-12.0 L 60.0,-11.0 L 59.0,-11.0 L 59.0,-10.0 L 60.0,-10.0 L 61.0,-10.0 L 61.0,-9.0 L 60.0,-9.0 L 60.0,-8.0 L 61.0,-8.0 L 61.0,-7.0 L 62.0,-7.0 L 62.0,-8.0 L 62.0,-9.0 L 63.0,-9.0 L 63.0,-8.0 L 64.0,-8.0 L 65.0,-8.0 L 65.0,-7.0 L 66.0,-7.0 L 66.0,-8.0 L 66.0,-9.0 L 67.0,-9.0 L 67.0,-8.0 L 68.0,-8.0 L 68.0,-7.0 L 67.0,-7.0 L 67.0,-6.0 L 68.0,-6.0 L 69.0,-6.0 L 69.0,-5.0 L 68.0,-5.0 L 68.0,-4.0 L 67.0,-4.0 L 67.0,-5.0 L 66.0,-5.0 L 66.0,-4.0 L 66.0,-3.0 L 65.0,-3.0 L 65.0,-4.0 L 64.0,-4.0 L 64.0,-3.0 L 63.0,-3.0 L 63.0,-2.0 L 64.0,-2.0 L 65.0,-2.0 L 65.0,-1.0 L 64.0,-0.9999999999999999 L 64.0,1.1102230246251565e-16 L 63.0,2.33486982377251e-16 L 63.0,-0.9999999999999998 L 62.0,-0.9999999999999997 L 62.0,3.3306690738754696e-16 L 62.0,1.0000000000000004 L 61.0,1.0000000000000007 L 61.0,6.661338147750939e-16 L 60.0,7.885984946898293e-16 L 60.0,-0.9999999999999992 L 61.0,-0.9999999999999994 L 61.0,-1.9999999999999996 L 60.0,-1.9999999999999993 L 59.0,-1.9999999999999991 L 59.0,-2.999999999999999 L 60.0,-2.9999999999999996 L 60.0,-3.9999999999999996 L 59.0,-3.9999999999999996 L 59.0,-5.0 L 58.0,-5.0 L 58.0,-4.0 L 58.0,-3.0 L 57.0,-3.0 L 57.0,-4.0 L 56.0,-4.0 L 56.0,-3.0 L 55.0,-3.0 L 55.0,-2.0 L 56.0,-2.0 L 57.0,-2.0 L 57.0,-1.0 L 56.0,-0.9999999999999999 L 56.0,1.1102230246251565e-16 L 56.0,1.0 L 55.0,1.0000000000000002 L 55.0,2.0 L 56.0,2.0 L 57.0,2.0 L 57.0,3.0 L 56.0,3.0 L 56.0,4.0 L 55.0,4.0 L 55.0,3.0 L 54.0,3.0 L 54.0,4.0 L 54.0,5.0 L 53.0,5.0 L 53.0,4.0 L 52.0,4.0 L 52.0,3.0 L 53.0,2.9999999999999996 L 53.0,1.9999999999999996 L 52.0,1.9999999999999998 L 51.0,2.0 L 51.0,1.0 L 52.0,0.9999999999999998 L 52.0,-2.220446049250313e-16 L 51.0,-9.957992501029596e-17 L 51.0,-1.0 L 50.0,-0.9999999999999999 L 50.0,1.1102230246251565e-16 L 50.0,1.0 L 49.0,1.0000000000000002 L 49.0,2.220446049250313e-16 L 48.0,3.4450928483976665e-16 L 48.0,-0.9999999999999997 L 49.0,-0.9999999999999999 L 49.0,-2.0 L 48.0,-1.9999999999999998 L 47.0,-1.9999999999999996 L 47.0,-2.9999999999999996 L 48.0,-3.0 L 48.0,-4.0 L 49.0,-4.0 L 49.0,-3.0 L 50.0,-3.0000000000000004 L 50.0,-4.0 L 50.0,-5.0 L 51.0,-5.0 L 51.0,-4.0 L 52.0,-4.0 L 52.0,-5.0 L 53.0,-5.0 L 53.0,-6.0 L 52.0,-6.0 L 51.0,-6.0 L 51.0,-7.0 L 52.0,-7.0 L 52.0,-8.0 L 51.0,-8.0 L 51.0,-9.0 L 50.0,-9.0 L 50.0,-8.0 L 50.0,-7.0 L 49.0,-7.0 L 49.0,-8.0 L 48.0,-8.0 L 47.0,-8.0 L 47.0,-9.0 L 46.0,-9.0 L 46.0,-8.0 L 46.0,-7.0 L 45.0,-7.0 L 45.0,-8.0 L 44.0,-8.0 L 44.0,-9.0 L 45.0,-9.0 L 45.0,-10.0 L 44.0,-10.0 L 43.0,-10.0 L 43.0,-11.0 L 44.0,-11.0 L 44.0,-12.0 L 45.0,-12.0 L 45.0,-11.0 L 46.0,-11.0 L 46.0,-12.0 L 46.0,-13.0 L 47.0,-13.0 L 47.0,-12.0 L 48.0,-12.0 L 48.0,-13.0 L 49.0,-13.0 L 49.0,-14.0 L 48.0,-14.0 L 47.0,-14.0 L 47.0,-15.0 L 48.0,-15.0 L 48.0,-16.0 L 47.0,-16.0 L 47.0,-17.0 L 46.0,-17.0 L 46.0,-16.0 L 46.0,-15.0 L 45.0,-15.0 L 45.0,-16.0 L 44.0,-16.0 L 44.0,-17.0 L 45.0,-17.0 L 45.0,-18.0 L 44.0,-18.0 L 43.0,-18.0 L 43.0,-19.0 L 44.0,-19.0 L 44.0,-20.0 L 43.0,-20.0 L 43.0,-21.0 L 42.0,-21.0 L 42.0,-20.0 L 42.0,-19.0 L 41.0,-19.0 L 41.0,-20.0 L 40.0,-20.0 L 40.0,-19.0 L 39.0,-19.0 L 39.0,-18.0 L 40.0,-18.0 L 41.0,-18.0 L 41.0,-17.0 L 40.0,-17.0 L 40.0,-16.0 L 40.0,-15.0 L 39.0,-15.0 L 39.0,-14.0 L 40.0,-14.0 L 41.0,-14.0 L 41.0,-13.0 L 40.0,-13.0 L 40.0,-12.0 L 39.0,-12.0 L 39.0,-13.0 L 38.0,-13.0 L 38.0,-12.0 L 38.0,-11.0 L 37.0,-11.0 L 37.0,-12.0 L 36.0,-12.0 L 36.0,-13.0 L 37.0,-13.0 L 37.0,-14.0 L 36.0,-14.0 L 35.0,-14.0 L 35.0,-15.0 L 36.0,-15.0 L 36.0,-16.0 L 35.0,-16.0 L 35.0,-17.0 L 34.0,-17.0 L 34.0,-16.0 L 34.0,-15.0 L 33.0,-15.0 L 33.0,-16.0 L 32.0,-16.0 L 32.0,-15.0 L 31.0,-15.0 L 31.0,-14.0 L 32.0,-14.0 L 33.0,-14.0 L 33.0,-13.0 L 32.0,-13.0 L 32.0,-12.0 L 31.0,-12.0 L 31.0,-13.0 L 30.0,-13.0 L 30.0,-12.0 L 30.0,-11.0 L 29.0,-11.0 L 29.0,-12.0 L 28.0,-12.0 L 28.0,-11.0 L 27.0,-11.0 L 27.0,-10.0 L 28.0,-10.0 L 29.0,-10.0 L 29.0,-9.0 L 28.0,-9.0 L 28.0,-8.0 L 29.0,-8.0 L 29.0,-7.0 L 30.0,-7.0 L 30.0,-8.0 L 30.0,-9.0 L 31.0,-9.0 L 31.0,-8.0 L 32.0,-8.0 L 33.0,-8.0 L 33.0,-7.0 L 34.0,-7.0 L 34.0,-8.0 L 34.0,-9.0 L 35.0,-9.0 L 35.0,-8.0 L 36.0,-8.0 L 36.0,-7.0 L 35.0,-7.0 L 35.0,-6.0 L 36.0,-6.0 L 37.0,-6.0 L 37.0,-5.0 L 36.0,-5.0 L 36.0,-4.0 L 35.0,-4.0 L 35.0,-5.0 L 34.0,-5.0 L 34.0,-4.0 L 34.0,-3.0 L 33.0,-3.0 L 33.0,-4.0 L 32.0,-4.0 L 32.0,-3.0 L 31.0,-3.0 L 31.0,-2.0 L 32.0,-2.0 L 33.0,-2.0 L 33.0,-1.0 L 32.0,-0.9999999999999999 L 32.0,1.1102230246251565e-16 L 32.0,1.0 L 31.0,1.0000000000000002 L 31.0,2.0 L 32.0,2.0 L 33.0,2.0 L 33.0,3.0 L 32.0,3.0 L 32.0,4.0 L 31.0,4.0 L 31.0,3.0 L 30.0,3.0 L 30.0,4.0 L 30.0,5.0 L 29.0,5.0 L 29.0,4.0 L 28.0,4.0 L 28.0,5.0 L 27.0,5.0 L 27.0,6.0 L 28.0,6.0 L 29.0,6.0 L 29.0,7.0 L 28.0,7.0 L 28.0,8.0 L 29.0,8.0 L 29.0,9.0 L 30.0,9.0 L 30.0,8.0 L 30.0,7.0 L 31.0,7.0 L 31.0,8.0 L 32.0,8.0 L 33.0,8.0 L 33.0,9.0 L 34.0,9.0 L 34.0,8.0 L 34.0,7.0 L 35.0,7.0 L 35.0,8.0 L 36.0,8.0 L 36.0,9.0 L 35.0,9.0 L 35.0,10.0 L 36.0,10.0 L 37.0,10.0 L 37.0,11.0 L 36.0,11.0 L 36.0,12.0 L 35.0,12.0 L 35.0,11.0 L 34.0,11.0 L 34.0,12.0 L 34.0,13.0 L 33.0,13.0 L 33.0,12.0 L 32.0,12.0 L 32.0,13.0 L 31.0,13.0 L 31.0,14.0 L 32.0,14.0 L 33.0,14.0 L 33.0,15.0 L 32.0,15.0 L 32.0,16.0 L 31.0,16.0 L 31.0,15.0 L 30.0,15.0 L 30.0,16.0 L 30.0,17.0 L 29.0,17.0 L 29.0,16.0 L 28.0,16.0 L 28.0,15.0 L 29.0,15.0 L 29.0,14.0 L 28.0,14.0 L 27.0,14.0 L 27.0,13.0 L 28.0,13.0 L 28.0,12.0 L 27.0,12.0 L 27.0,11.0 L 26.0,11.0 L 26.0,12.0 L 26.0,13.0 L 25.0,13.0 L 25.0,12.0 L 24.0,12.0 L 24.0,13.0 L 23.0,13.0 L 23.0,14.0 L 24.0,14.0 L 25.0,14.0 L 25.0,15.0 L 24.0,15.0 L 24.0,16.0 L 24.0,17.0 L 23.0,17.0 L 23.0,18.0 L 24.0,18.0 L 25.0,18.0 L 25.0,19.0 L 24.0,19.0 L 24.0,20.0 L 23.0,20.0 L 23.0,19.0 L 22.0,19.0 L 22.0,20.0 L 22.0,21.0 L 21.0,21.0 L 21.0,20.0 L 20.0,20.0 L 20.0,19.0 L 21.0,19.0 L 21.0,18.0 L 20.0,18.0 L 19.0,18.0 L 19.0,17.0 L 20.0,17.0 L 20.0,16.0 L 19.0,16.0 L 19.0,15.0 L 18.0,15.0 L 18.0,16.0 L 18.0,17.0 L 17.0,17.0 L 17.0,16.0 L 16.0,16.0 L 16.0,15.0 L 17.0,15.0 L 17.0,14.0 L 16.0,14.0 L 15.0,14.0 L 15.0,13.0 L 16.0,13.0 L 16.0,12.0 L 17.0,12.0 L 17.0,13.0 L 18.0,13.0 L 18.0,12.0 L 18.0,11.0 L 19.0,11.0 L 19.0,12.0 L 20.0,12.0 L 20.0,11.0 L 21.0,11.0 L 21.0,10.0 L 20.0,10.0 L 19.0,10.0 L 19.0,9.0 L 20.0,9.0 L 20.0,8.0 L 19.0,8.0 L 19.0,7.0 L 18.0,7.0 L 18.0,8.0 L 18.0,9.0 L 17.0,9.0 L 17.0,8.0 L 16.0,8.0 L 15.0,8.0 L 15.0,7.0 L 14.0,7.0 L 14.0,8.0 L 14.0,9.0 L 13.0,9.0 L 13.0,8.0 L 12.0,8.0 L 12.0,7.0 L 13.0,7.0 L 13.0,6.0 L 12.0,6.0 L 11.0,6.0 L 11.0,5.0 L 12.0,5.0 L 12.0,4.0 L 13.0,3.9999999999999996 L 13.0,5.0 L 14.0,5.0 L 14.0,4.0 L 14.0,3.0 L 15.0,2.9999999999999996 L 15.0,3.9999999999999996 L 16.0,3.999999999999999 L 16.0,2.999999999999999 L 17.0,2.9999999999999987 L 17.0,1.9999999999999987 L 16.0,1.999999999999999 L 15.0,1.9999999999999991 L 15.0,0.9999999999999991 L 16.0,0.9999999999999989 L 16.0,-1.1102230246251565e-15 L 15.0,-9.877583447104212e-16 L 15.0,-1.0000000000000009 L 14.0,-1.0000000000000007 L 14.0,-6.661338147750939e-16 L 14.0,0.9999999999999993 L 13.0,0.9999999999999994 L 13.0,-5.551115123125783e-16 L 12.0,-4.3264683239784292e-16 L 12.0,-1.0000000000000004 L 13.0,-1.0000000000000007 L 13.0,-2.000000000000001 L 12.0,-2.000000000000001 L 11.0,-2.000000000000001 L 11.0,-3.000000000000001 L 12.0,-3.0000000000000013 L 12.0,-4.000000000000002 L 11.0,-4.000000000000002 L 11.0,-5.000000000000002 L 10.0,-5.000000000000002 L 10.0,-4.000000000000002 L 10.0,-3.0000000000000018 L 9.0,-3.0000000000000018 L 9.0,-4.000000000000002 L 8.0,-4.000000000000002 L 8.0,-3.0000000000000018 L 7.0,-3.0000000000000018 L 7.0,-2.0000000000000018 L 8.0,-2.0000000000000018 L 9.0,-2.0000000000000018 L 9.0,-1.0000000000000018 L 8.0,-1.0000000000000016 L 8.0,-1.5543122344752192e-15 L 8.0,0.9999999999999984 L 7.0,0.9999999999999986 L 7.0,1.9999999999999987 L 8.0,1.9999999999999987 L 9.0,1.9999999999999987 L 9.0,2.9999999999999987 L 8.0,2.9999999999999987 L 8.0,3.9999999999999987 L 7.0,3.9999999999999987 L 7.0,2.9999999999999987 L 6.0,2.9999999999999987 L 6.0,3.9999999999999987 L 6.0,4.999999999999998 L 5.0,4.999999999999998 L 5.0,3.9999999999999982 L 4.0,3.9999999999999982 L 4.0,2.9999999999999982 L 5.0,2.999999999999998 L 5.0,1.9999999999999978 L 4.0,1.999999999999998 L 3.0,1.9999999999999982 L 3.0,0.9999999999999982 L 4.0,0.999999999999998 L 4.0,-1.9984014443252818e-15 L 3.0,-1.8759367644105466e-15 L 3.0,-1.0000000000000018 L 2.0,-1.0000000000000016 L 2.0,-1.5543122344752192e-15 L 2.0,0.9999999999999984 L 1.0,0.9999999999999986 L 0.9999999999999998,-1.4432899320127035e-15 L -2.220446049250313e-16,-1.3208252520979682e-15 " />
    </g>
</svg>
