<?xml version="1.0" encoding="UTF-8"?>
<!DOCTYPE svg PUBLIC "-//W3C//DTD SVG 1.1//EN"
    "http://www.w3.org/Graphics/SVG/1.1/DTD/svg11.dtd">

<svg xmlns="http://www.w3.org/2000/svg" xmlns:xlink="http://www.w3.org/1999/xlink" version="1.1" width="500.0" height="500" viewBox="-60.0 -60.0 120.0 120.0">
    <g>
        <rect x="-60.0" y="-60.0" width="120.0" height="120.0" fill="#CBD4C2" />
        <path style="fill:none;stroke:#50514F;stroke-width:0.1px;stroke-linecap:square" d="M -30.18867924528302,30.18867924528302 L -30.18867924528302,29.245283018867926 L -29.245283018867926,29.245283018867926 L -29.245283018867926,28.30188679245283 L -30.18867924528302,28.30188679245283 L -31.132075471698112,28.30188679245283 L -31.132075471698112,27.358490566037737 L -30.18867924528302,27.358490566037737 L -30.18867924528302,26.41509433962264 L -29.245283018867926,26.41509433962264 L -29.245283018867926,27.358490566037737 L -28.30188679245283,27.358490566037737 L -28.30188679245283,26.41509433962264 L -28.30188679245283,25.471698113207548 L -27.358490566037737,25.471698113207548 L -27.358490566037737,26.41509433962264 L -26.41509433962264,26.41509433962264 L -26.41509433962264,25.471698113207548 L -25.471698113207548,25.471698113207548 L -25.471698113207548,24.528301886792452 L -26.41509433962264,24.528301886792452 L -27.358490566037737,24.528301886792452 L -27.358490566037737,23.58490566037736 L -26.41509433962264,23.58490566037736 L -26.41509433962264,22.641509433962263 L -27.358490566037737,22.641509433962263 L -27.358490566037737,21.69811320754717 L -28.30188679245283,21.69811320754717 L -28.30188679245283,22.641509433962263 L -28.30188679245283,23.58490566037736 L -29.245283018867926,23.58490566037736 L -29.245283018867926,22.641509433962263 L -30.18867924528302,22.641509433962263 L -31.132075471698112,22.641509433962263 L -31.132075471698112,21.69811320754717 L -32.075471698113205,21.69811320754717 L -32.075471698113205,22.641509433962263 L -32.075471698113205,23.58490566037736 L -33.0188679245283,23.58490566037736 L -33.0188679245283,22.641509433962263 L -33.9622641509434,22.641509433962263 L -33.9622641509434,21.69811320754717 L -33.0188679245283,21.69811320754717 L -33.0188679245283,20.754716981132077 L -33.9622641509434,20.754716981132077 L -34.905660377358494,20.754716981132077 L -34.905660377358494,19.81132075471698 L -33.9622641509434,19.81132075471698 L -33.9622641509434,18.867924528301888 L -33.0188679245283,18.867924528301888 L -33.0188679245283,19.81132075471698 L -32.075471698113205,19.81132075471698 L -32.075471698113205,18.867924528301888 L -32.075471698113205,17.92452830188679 L -31.132075471698112,17.92452830188679 L -31.132075471698112,18.867924528301888 L -30.18867924528302,18.867924528301888 L -30.18867924528302,17.92452830188679 L -29.245283018867926,17.92452830188679 L -29.245283018867926,16.9811320754717 L -30.18867924528302,16.9811320754717 L -31.132075471698112,16.9811320754717 L -31.132075471698112,16.037735849056602 L -30.18867924528302,16.037735849056602 L -30.18867924528302,15.09433962264151 L -29.245283018867926,15.09433962264151 L -29.245283018867926,16.037735849056602 L -28.30188679245283,16.037735849056602 L -28.30188679245283,15.09433962264151 L -28.30188679245283,14.150943396226415 L -27.358490566037737,14.150943396226415 L -27.358490566037737,15.09433962264151 L -26.41509433962264,15.09433962264151 L -26.41509433962264,16.037735849056602 L -27.358490566037737,16.037735849056602 L -27.358490566037737,16.9811320754717 L -26.41509433962264,16.9811320754717 L -25.471698113207548,16.9811320754717 L -25.471698113207548,17.92452830188679 L -26.41509433962264,17.92452830188679 L -26.41509433962264,18.867924528301888 L -25.471698113207548,18.867924528301888 L -25.471698113207548,19.81132075471698 L -24.528301886792452,19.81132075471698 L -24.528301886792452,18.867924528301888 L -24.528301886792452,17.92452830188679 L -23.58490566037736,17.92452830188679 L -23.58490566037736,18.867924528301888 L -22.641509433962263,18.867924528301888 L -22.641509433962263,17.92452830188679 L -21.69811320754717,17.92452830188679 L -21.69811320754717,16.9811320754717 L -22.641509433962263,16.9811320754717 L -23.58490566037736,16.9811320754717 L -23.58490566037736,16.037735849056602 L -22.641509433962263,16.037735849056602 L -22.641509433962263,15.09433962264151 L -22.641509433962263,14.150943396226415 L -21.69811320754717,14.150943396226415 L -21.69811320754717,13.20754716981132 L -22.641509433962263,13.20754716981132 L -23.58490566037736,13.20754716981132 L -23.58490566037736,12.264150943396226 L -22.641509433962263,12.264150943396226 L -22.641509433962263,11.320754716981131 L -21.69811320754717,11.320754716981131 L -21.69811320754717,12.264150943396226 L -20.754716981132077,12.264150943396226 L -20.754716981132077,11.320754716981131 L -20.754716981132077,10.377358490566039 L -19.81132075471698,10.377358490566039 L -19.81132075471698,11.320754716981131 L -18.867924528301888,11.320754716981131 L -18.867924528301888,12.264150943396226 L -19.81132075471698,12.264150943396226 L -19.81132075471698,13.20754716981132 L -18.867924528301888,13.20754716981132 L -17.92452830188679,13.20754716981132 L -17.92452830188679,14.150943396226415 L -18.867924528301888,14.150943396226415 L -18.867924528301888,15.09433962264151 L -17.92452830188679,15.09433962264151 L -17.92452830188679,16.037735849056602 L -16.9811320754717,16.037735849056602 L -16.9811320754717,15.09433962264151 L -16.9811320754717,14.150943396226415 L -16.037735849056602,14.150943396226415 L -16.037735849056602,15.09433962264151 L -15.09433962264151,15.09433962264151 L -15.09433962264151,14.150943396226415 L -14.150943396226415,14.150943396226415 L -14.150943396226415,13.20754716981132 L -15.09433962264151,13.20754716981132 L -16.037735849056602,13.20754716981132 L -16.037735849056602,12.264150943396226 L -15.09433962264151,12.264150943396226 L -15.09433962264151,11.320754716981131 L -14.150943396226415,11.320754716981131 L -14.150943396226415,12.264150943396226 L -13.20754716981132,12.264150943396226 L -13.20754716981132,11.320754716981131 L -13.20754716981132,10.377358490566039 L -12.264150943396226,10.377358490566039 L -12.264150943396226,11.320754716981131 L -11.320754716981131,11.320754716981131 L -11.320754716981131,10.377358490566039 L -10.377358490566039,10.377358490566039 L -10.377358490566039,9.433962264150944 L -11.320754716981131,9.433962264150944 L -12.264150943396226,9.433962264150944 L -12.264150943396226,8.49056603773585 L -11.320754716981131,8.49056603773585 L -11.320754716981131,7.547169811320755 L -12.264150943396226,7.547169811320755 L -12.264150943396226,6.60377358490566 L -13.20754716981132,6.60377358490566 L -13.20754716981132,7.547169811320755 L -13.20754716981132,8.49056603773585 L -14.150943396226415,8.49056603773585 L -14.150943396226415,7.547169811320755 L -15.09433962264151,7.547169811320755 L -16.037735849056602,7.547169811320755 L -16.037735849056602,6.60377358490566 L -16.9811320754717,6.60377358490566 L -16.9811320754717,7.547169811320755 L -16.9811320754717,8.49056603773585 L -17.92452830188679,8.49056603773585 L -17.92452830188679,7.547169811320755 L -18.867924528301888,7.547169811320755 L -18.867924528301888,6.60377358490566 L -17.92452830188679,6.60377358490566 L -17.92452830188679,5.660377358490566 L -18.867924528301888,5.660377358490566 L -19.81132075471698,5.660377358490566 L -19.81132075471698,4.716981132075472 L -18.867924528301888,4.716981132075472 L -18.867924528301888,3.7735849056603774 L -17.92452830188679,3.7735849056603774 L -17.92452830188679,4.716981132075472 L -16.9811320754717,4.716981132075472 L -16.9811320754717,3.7735849056603774 L -16.9811320754717,2.830188679245283 L -16.037735849056602,2.830188679245283 L -16.037735849056602,3.7735849056603774 L -15.09433962264151,3.7735849056603774 L -15.09433962264151,2.830188679245283 L -14.150943396226415,2.830188679245283 L -14.150943396226415,1.8867924528301887 L -15.09433962264151,1.8867924528301887 L -16.037735849056602,1.8867924528301887 L -16.037735849056602,0.9433962264150944 L -15.09433962264151,0.9433962264150944 L -15.09433962264151,0.0 L -16.037735849056602,0.0 L -16.037735849056602,-0.9433962264150944 L -16.9811320754717,-0.9433962264150944 L -16.9811320754717,0.0 L -16.9811320754717,0.9433962264150944 L -17.92452830188679,0.9433962264150944 L -17.92452830188679,0.0 L -18.867924528301888,0.0 L -18.867924528301888,-0.9433962264150944 L -17.92452830188679,-0.9433962264150944 L -17.92452830188679,-1.8867924528301887 L -18.867924528301888,-1.8867924528301887 L -19.81132075471698,-1.8867924528301887 L -19.81132075471698,-2.830188679245283 L -18.867924528301888,-2.830188679245283 L -18.867924528301888,-3.7735849056603774 L -19.81132075471698,-3.7735849056603774 L -19.81132075471698,-4.716981132075472 L -20.754716981132077,-4.716981132075472 L -20.754716981132077,-3.7735849056603774 L -20.754716981132077,-2.830188679245283 L -21.69811320754717,-2.830188679245283 L -21.69811320754717,-3.7735849056603774 L -22.641509433962263,-3.7735849056603774 L -22.641509433962263,-2.830188679245283 L -23.58490566037736,-2.830188679245283 L -23.58490566037736,-1.8867924528301887 L -22.641509433962263,-1.8867924528301887 L -21.69811320754717,-1.8867924528301887 L -21.69811320754717,-0.9433962264150944 L -22.641509433962263,-0.9433962264150944 L -22.641509433962263,0.0 L -22.641509433962263,0.9433962264150944 L -23.58490566037736,0.9433962264150944 L -23.58490566037736,1.8867924528301887 L -22.641509433962263,1.8867924528301887 L -21.69811320754717,1.8867924528301887 L -21.69811320754717,2.830188679245283 L -22.641509433962263,2.830188679245283 L -22.641509433962263,3.7735849056603774 L -23.58490566037736,3.7735849056603774 L -23.58490566037736,2.830188679245283 L -24.528301886792452,2.830188679245283 L -24.528301886792452,3.7735849056603774 L -24.528301886792452,4.716981132075472 L -25.471698113207548,4.716981132075472 L -25.471698113207548,3.7735849056603774 L -26.41509433962264,3.7735849056603774 L -26.41509433962264,2.830188679245283 L -25.471698113207548,2.830188679245283 L -25.471698113207548,1.8867924528301887 L -26.41509433962264,1.8867924528301887 L -27.358490566037737,1.8867924528301887 L -27.358490566037737,0.9433962264150944 L -26.41509433962264,0.9433962264150944 L -26.41509433962264,0.0 L -27.358490566037737,0.0 L -27.358490566037737,-0.9433962264150944 L -28.30188679245283,-0.9433962264150944 L -28.30188679245283,0.0 L -28.30188679245283,0.9433962264150944 L -29.245283018867926,0.9433962264150944 L -29.245283018867926,0.0 L -30.18867924528302,0.0 L -31.132075471698112,0.0 L -31.132075471698112,-0.9433962264150944 L -32.075471698113205,-0.9433962264150944 L -32.075471698113205,0.0 L -32.075471698113205,0.9433962264150944 L -33.0188679245283,0.9433962264150944 L -33.0188679245283,0.0 L -33.9622641509434,0.0 L -33.9622641509434,-0.9433962264150944 L -33.0188679245283,-0.9433962264150944 L -33.0188679245283,-1.8867924528301887 L -33.9622641509434,-1.8867924528301887 L -34.905660377358494,-1.8867924528301887 L -34.905660377358494,-2.830188679245283 L -33.9622641509434,-2.830188679245283 L -33.9622641509434,-3.7735849056603774 L -34.905660377358494,-3.7735849056603774 L -34.905660377358494,-4.716981132075472 L -35.84905660377358,-4.716981132075472 L -35.84905660377358,-3.7735849056603774 L -35.84905660377358,-2.830188679245283 L -36.79245283018868,-2.830188679245283 L -36.79245283018868,-3.7735849056603774 L -37.735849056603776,-3.7735849056603774 L -37.735849056603776,-2.830188679245283 L -38.679245283018865,-2.830188679245283 L -38.679245283018865,-1.8867924528301887 L -37.735849056603776,-1.8867924528301887 L -36.79245283018868,-1.8867924528301887 L -36.79245283018868,-0.9433962264150944 L -37.735849056603776,-0.9433962264150944 L -37.735849056603776,0.0 L -37.735849056603776,0.9433962264150944 L -38.679245283018865,0.9433962264150944 L -38.679245283018865,1.8867924528301887 L -37.735849056603776,1.8867924528301887 L -36.79245283018868,1.8867924528301887 L -36.79245283018868,2.830188679245283 L -37.735849056603776,2.830188679245283 L -37.735849056603776,3.7735849056603774 L -38.679245283018865,3.7735849056603774 L -38.679245283018865,2.830188679245283 L -39.62264150943396,2.830188679245283 L -39.62264150943396,3.7735849056603774 L -39.62264150943396,4.716981132075472 L -40.56603773584906,4.716981132075472 L -40.56603773584906,3.7735849056603774 L -41.509433962264154,3.7735849056603774 L -41.509433962264154,2.830188679245283 L -40.56603773584906,2.830188679245283 L -40.56603773584906,1.8867924528301887 L -41.509433962264154,1.8867924528301887 L -42.45283018867924,1.8867924528301887 L -42.45283018867924,0.9433962264150944 L -41.509433962264154,0.9433962264150944 L -41.509433962264154,0.0 L -42.45283018867924,0.0 L -42.45283018867924,-0.9433962264150944 L -43.39622641509434,-0.9433962264150944 L -43.39622641509434,0.0 L -43.39622641509434,0.9433962264150944 L -44.339622641509436,0.9433962264150944 L -44.339622641509436,0.0 L -45.283018867924525,0.0 L -45.283018867924525,-0.9433962264150944 L -44.339622641509436,-0.9433962264150944 L -44.339622641509436,-1.8867924528301887 L -45.283018867924525,-1.8867924528301887 L -46.22641509433962,-1.8867924528301887 L -46.22641509433962,-2.830188679245283 L -45.283018867924525,-2.830188679245283 L -45.283018867924525,-3.7735849056603774 L -44.339622641509436,-3.7735849056603774 L -44.339622641509436,-2.830188679245283 L -43.39622641509434,-2.830188679245283 L -43.39622641509434,-3.7735849056603774 L -43.39622641509434,-4.716981132075472 L -42.45283018867924,-4.716981132075472 L -42.45283018867924,-3.7735849056603774 L -41.509433962264154,-3.7735849056603774 L -41.509433962264154,-4.716981132075472 L -40.56603773584906,-4.716981132075472 L -40.56603773584906,-5.660377358490566 L -41.509433962264154,-5.660377358490566 L -42.45283018867924,-5.660377358490566 L -42.45283018867924,-6.60377358490566 L -41.509433962264154,-6.60377358490566 L -41.509433962264154,-7.547169811320755 L -42.45283018867924,-7.547169811320755 L -42.45283018867924,-8.49056603773585 L -43.39622641509434,-8.49056603773585 L -43.39622641509434,-7.547169811320755 L -43.39622641509434,-6.60377358490566 L -44.339622641509436,-6.60377358490566 L -44.339622641509436,-7.547169811320755 L -45.283018867924525,-7.547169811320755 L -46.22641509433962,-7.547169811320755 L -46.22641509433962,-8.49056603773585 L -47.16981132075472,-8.49056603773585 L -47.16981132075472,-7.547169811320755 L -47.16981132075472,-6.60377358490566 L -48.113207547169814,-6.60377358490566 L -48.113207547169814,-7.547169811320755 L -49.056603773584904,-7.547169811320755 L -49.056603773584904,-8.49056603773585 L -48.113207547169814,-8.49056603773585 L -48.113207547169814,-9.433962264150944 L -49.056603773584904,-9.433962264150944 L -50.0,-9.433962264150944 L -50.0,-10.377358490566039 L -49.056603773584904,-10.377358490566039 L -49.056603773584904,-11.320754716981131 L -48.113207547169814,-11.320754716981131 L -48.113207547169814,-10.377358490566039 L -47.16981132075472,-10.377358490566039 L -47.16981132075472,-11.320754716981131 L -47.16981132075472,-12.264150943396226 L -46.22641509433962,-12.264150943396226 L -46.22641509433962,-11.320754716981131 L -45.283018867924525,-11.320754716981131 L -45.283018867924525,-12.264150943396226 L -44.339622641509436,-12.264150943396226 L -44.339622641509436,-13.20754716981132 L -45.283018867924525,-13.20754716981132 L -46.22641509433962,-13.20754716981132 L -46.22641509433962,-14.150943396226415 L -45.283018867924525,-14.150943396226415 L -45.283018867924525,-15.09433962264151 L -44.339622641509436,-15.09433962264151 L -44.339622641509436,-14.150943396226415 L -43.39622641509434,-14.150943396226415 L -43.39622641509434,-15.09433962264151 L -43.39622641509434,-16.037735849056602 L -42.45283018867924,-16.037735849056602 L -42.45283018867924,-15.09433962264151 L -41.509433962264154,-15.09433962264151 L -41.509433962264154,-14.150943396226415 L -42.45283018867924,-14.150943396226415 L -42.45283018867924,-13.20754716981132 L -41.509433962264154,-13.20754716981132 L -40.56603773584906,-13.20754716981132 L -40.56603773584906,-12.264150943396226 L -41.509433962264154,-12.264150943396226 L -41.509433962264154,-11.320754716981131 L -40.56603773584906,-11.320754716981131 L -40.56603773584906,-10.377358490566039 L -39.62264150943396,-10.377358490566039 L -39.62264150943396,-11.320754716981131 L -39.62264150943396,-12.264150943396226 L -38.679245283018865,-12.264150943396226 L -38.679245283018865,-11.320754716981131 L -37.735849056603776,-11.320754716981131 L -37.735849056603776,-12.264150943396226 L -36.79245283018868,-12.264150943396226 L -36.79245283018868,-13.20754716981132 L -37.735849056603776,-13.20754716981132 L -38.679245283018865,-13.20754716981132 L -38.679245283018865,-14.150943396226415 L -37.735849056603776,-14.150943396226415 L -37.735849056603776,-15.09433962264151 L -37.735849056603776,-16.037735849056602 L -36.79245283018868,-16.037735849056602 L -36.79245283018868,-16.9811320754717 L -37.735849056603776,-16.9811320754717 L -38.679245283018865,-16.9811320754717 L -38.679245283018865,-17.92452830188679 L -37.735849056603776,-17.92452830188679 L -37.735849056603776,-18.867924528301888 L -36.79245283018868,-18.867924528301888 L -36.79245283018868,-17.92452830188679 L -35.84905660377358,-17.92452830188679 L -35.84905660377358,-18.867924528301888 L -35.84905660377358,-19.81132075471698 L -34.905660377358494,-19.81132075471698 L -34.905660377358494,-18.867924528301888 L -33.9622641509434,-18.867924528301888 L -33.9622641509434,-17.92452830188679 L -34.905660377358494,-17.92452830188679 L -34.905660377358494,-16.9811320754717 L -33.9622641509434,-16.9811320754717 L -33.0188679245283,-16.9811320754717 L -33.0188679245283,-16.037735849056602 L -33.9622641509434,-16.037735849056602 L -33.9622641509434,-15.09433962264151 L -33.0188679245283,-15.09433962264151 L -33.0188679245283,-14.150943396226415 L -32.075471698113205,-14.150943396226415 L -32.075471698113205,-15.09433962264151 L -32.075471698113205,-16.037735849056602 L -31.132075471698112,-16.037735849056602 L -31.132075471698112,-15.09433962264151 L -30.18867924528302,-15.09433962264151 L -30.18867924528302,-16.037735849056602 L -29.245283018867926,-16.037735849056602 L -29.245283018867926,-16.9811320754717 L -30.18867924528302,-16.9811320754717 L -31.132075471698112,-16.9811320754717 L -31.132075471698112,-17.92452830188679 L -30.18867924528302,-17.92452830188679 L -30.18867924528302,-18.867924528301888 L -29.245283018867926,-18.867924528301888 L -29.245283018867926,-17.92452830188679 L -28.30188679245283,-17.92452830188679 L -28.30188679245283,-18.867924528301888 L -28.30188679245283,-19.81132075471698 L -27.358490566037737,-19.81132075471698 L -27.358490566037737,-18.867924528301888 L -26.41509433962264,-18.867924528301888 L -26.41509433962264,-19.81132075471698 L -25.471698113207548,-19.81132075471698 L -25.471698113207548,-20.754716981132077 L -26.41509433962264,-20.754716981132077 L -27.358490566037737,-20.754716981132077 L -27.358490566037737,-21.69811320754717 L -26.41509433962264,-21.69811320754717 L -26.41509433962264,-22.641509433962263 L -27.358490566037737,-22.641509433962263 L -27.358490566037737,-23.58490566037736 L -28.30188679245283,-23.58490566037736 L -28.30188679245283,-22.641509433962263 L -28.30188679245283,-21.69811320754717 L -29.245283018867926,-21.69811320754717 L -29.245283018867926,-22.641509433962263 L -30.18867924528302,-22.641509433962263 L -31.132075471698112,-22.641509433962263 L -31.132075471698112,-23.58490566037736 L -32.075471698113205,-23.58490566037736 L -32.075471698113205,-22.641509433962263 L -32.075471698113205,-21.69811320754717 L -33.0188679245283,-21.69811320754717 L -33.0188679245283,-22.641509433962263 L -33.9622641509434,-22.641509433962263 L -33.9622641509434,-23.58490566037736 L -33.0188679245283,-23.58490566037736 L -33.0188679245283,-24.528301886792452 L -33.9622641509434,-24.528301886792452 L -34.905660377358494,-24.528301886792452 L -34.905660377358494,-25.471698113207548 L -33.9622641509434,-25.471698113207548 L -33.9622641509434,-26.41509433962264 L -33.0188679245283,-26.41509433962264 L -33.0188679245283,-25.471698113207548 L -32.075471698113205,-25.471698113207548 L -32.075471698113205,-26.41509433962264 L -32.075471698113205,-27.358490566037737 L -31.132075471698112,-27.358490566037737 L -31.132075471698112,-26.41509433962264 L -30.18867924528302,-26.41509433962264 L -30.18867924528302,-27.358490566037737 L -29.245283018867926,-27.358490566037737 L -29.245283018867926,-28.30188679245283 L -30.18867924528302,-28.30188679245283 L -31.132075471698112,-28.30188679245283 L -31.132075471698112,-29.245283018867926 L -30.18867924528302,-29.245283018867926 L -30.18867924528302,-30.18867924528302 L -29.245283018867926,-30.18867924528302 L -29.245283018867926,-29.245283018867926 L -28.30188679245283,-29.245283018867926 L -28.30188679245283,-30.18867924528302 L -28.30188679245283,-31.132075471698112 L -27.358490566037737,-31.132075471698112 L -27.358490566037737,-30.18867924528302 L -26.41509433962264,-30.18867924528302 L -26.41509433962264,-29.245283018867926 L -27.358490566037737,-29.245283018867926 L -27.358490566037737,-28.30188679245283 L -26.41509433962264,-28.30188679245283 L -25.471698113207548,-28.30188679245283 L -25.471698113207548,-27.358490566037737 L -26.41509433962264,-27.358490566037737 L -26.41509433962264,-26.41509433962264 L -25.471698113207548,-26.41509433962264 L -25.471698113207548,-25.471698113207548 L -24.528301886792452,-25.471698113207548 L -24.528301886792452,-26.41509433962264 L -24.528301886792452,-27.358490566037737 L -23.58490566037736,-27.358490566037737 L -23.58490566037736,-26.41509433962264 L -22.641509433962263,-26.41509433962264 L -22.641509433962263,-27.358490566037737 L -21.69811320754717,-27.358490566037737 L -21.69811320754717,-28.30188679245283 L -22.641509433962263,-28.30188679245283 L -23.58490566037736,-28.30188679245283 L -23.58490566037736,-29.245283018867926 L -22.641509433962263,-29.245283018867926 L -22.641509433962263,-30.18867924528302 L -22.641509433962263,-31.132075471698112 L -21.69811320754717,-31.132075471698112 L -21.69811320754717,-32.075471698113205 L -22.641509433962263,-32.075471698113205 L -23.58490566037736,-32.075471698113205 L -23.58490566037736,-33.0188679245283 L -22.641509433962263,-33.0188679245283 L -22.641509433962263,-33.9622641509434 L -21.69811320754717,-33.9622641509434 L -21.69811320754717,-33.0188679245283 L -20.754716981132077,-33.0188679245283 L -20.754716981132077,-33.9622641509434 L -20.754716981132077,-34.905660377358494 L -19.81132075471698,-34.905660377358494 L -19.81132075471698,-33.9622641509434 L -18.867924528301888,-33.9622641509434 L -18.867924528301888,-33.0188679245283 L -19.81132075471698,-33.0188679245283 L -19.81132075471698,-32.075471698113205 L -18.867924528301888,-32.075471698113205 L -17.92452830188679,-32.075471698113205 L -17.92452830188679,-31.132075471698112 L -18.867924528301888,-31.132075471698112 L -18.867924528301888,-30.18867924528302 L -17.92452830188679,-30.18867924528302 L -17.92452830188679,-29.245283018867926 L -16.9811320754717,-29.245283018867926 L -16.9811320754717,-30.18867924528302 L -16.9811320754717,-31.132075471698112 L -16.037735849056602,-31.132075471698112 L -16.037735849056602,-30.18867924528302 L -15.09433962264151,-30.18867924528302 L -15.09433962264151,-29.245283018867926 L -16.037735849056602,-29.245283018867926 L -16.037735849056602,-28.30188679245283 L -15.09433962264151,-28.30188679245283 L -14.150943396226415,-28.30188679245283 L -14.150943396226415,-27.358490566037737 L -15.09433962264151,-27.358490566037737 L -15.09433962264151,-26.41509433962264 L -16.037735849056602,-26.41509433962264 L -16.037735849056602,-27.358490566037737 L -16.9811320754717,-27.358490566037737 L -16.9811320754717,-26.41509433962264 L -16.9811320754717,-25.471698113207548 L -17.92452830188679,-25.471698113207548 L -17.92452830188679,-26.41509433962264 L -18.867924528301888,-26.41509433962264 L -18.867924528301888,-25.471698113207548 L -19.81132075471698,-25.471698113207548 L -19.81132075471698,-24.528301886792452 L -18.867924528301888,-24.528301886792452 L -17.92452830188679,-24.528301886792452 L -17.92452830188679,-23.58490566037736 L -18.867924528301888,-23.58490566037736 L -18.867924528301888,-22.641509433962263 L -17.92452830188679,-22.641509433962263 L -17.92452830188679,-21.69811320754717 L -16.9811320754717,-21.69811320754717 L -16.9811320754717,-22.641509433962263 L -16.9811320754717,-23.58490566037736 L -16.037735849056602,-23.58490566037736 L -16.037735849056602,-22.641509433962263 L -15.09433962264151,-22.641509433962263 L -14.150943396226415,-22.641509433962263 L -14.150943396226415,-21.69811320754717 L -13.20754716981132,-21.69811320754717 L -13.20754716981132,-22.641509433962263 L -13.20754716981132,-23.58490566037736 L -12.264150943396226,-23.58490566037736 L -12.264150943396226,-22.641509433962263 L -11.320754716981131,-22.641509433962263 L -11.320754716981131,-21.69811320754717 L -12.264150943396226,-21.69811320754717 L -12.264150943396226,-20.754716981132077 L -11.320754716981131,-20.754716981132077 L -10.377358490566039,-20.754716981132077 L -10.377358490566039,-19.81132075471698 L -11.320754716981131,-19.81132075471698 L -11.320754716981131,-18.867924528301888 L -12.264150943396226,-18.867924528301888 L -12.264150943396226,-19.81132075471698 L -13.20754716981132,-19.81132075471698 L -13.20754716981132,-18.867924528301888 L -13.20754716981132,-17.92452830188679 L -14.150943396226415,-17.92452830188679 L -14.150943396226415,-18.867924528301888 L -15.09433962264151,-18.867924528301888 L -15.09433962264151,-17.92452830188679 L -16.037735849056602,-17.92452830188679 L -16.037735849056602,-16.9811320754717 L -15.09433962264151,-16.9811320754717 L -14.150943396226415,-16.9811320754717 L -14.150943396226415,-16.037735849056602 L -15.09433962264151,-16.037735849056602 L -15.09433962264151,-15.09433962264151 L -14.150943396226415,-15.09433962264151 L -14.150943396226415,-14.150943396226415 L -13.20754716981132,-14.150943396226415 L -13.20754716981132,-15.09433962264151 L -13.20754716981132,-16.037735849056602 L -12.264150943396226,-16.037735849056602 L -12.264150943396226,-15.09433962264151 L -11.320754716981131,-15.09433962264151 L -11.320754716981131,-14.150943396226415 L -12.264150943396226,-14.150943396226415 L -12.264150943396226,-13.20754716981132 L -11.320754716981131,-13.20754716981132 L -10.377358490566039,-13.20754716981132 L -10.377358490566039,-12.264150943396226 L -11.320754716981131,-12.264150943396226 L -11.320754716981131,-11.320754716981131 L -10.377358490566039,-11.320754716981131 L -10.377358490566039,-10.377358490566039 L -9.433962264150944,-10.377358490566039 L -9.433962264150944,-11.320754716981131 L -9.433962264150944,-12.264150943396226 L -8.49056603773585,-12.264150943396226 L -8.49056603773585,-11.320754716981131 L -7.547169811320755,-11.320754716981131 L -7.547169811320755,-12.264150943396226 L -6.60377358490566,-12.264150943396226 L -6.60377358490566,-13.20754716981132 L -7.547169811320755,-13.20754716981132 L -8.49056603773585,-13.20754716981132 L -8.49056603773585,-14.150943396226415 L -7.547169811320755,-14.150943396226415 L -7.547169811320755,-15.09433962264151 L -7.547169811320755,-16.037735849056602 L -6.60377358490566,-16.037735849056602 L -6.60377358490566,-16.9811320754717 L -7.547169811320755,-16.9811320754717 L -8.49056603773585,-16.9811320754717 L -8.49056603773585,-17.92452830188679 L -7.547169811320755,-17.92452830188679 L -7.547169811320755,-18.867924528301888 L -6.60377358490566,-18.867924528301888 L -6.60377358490566,-17.92452830188679 L -5.660377358490566,-17.92452830188679 L -5.660377358490566,-18.867924528301888 L -5.660377358490566,-19.81132075471698 L -4.716981132075472,-19.81132075471698 L -4.716981132075472,-18.867924528301888 L -3.7735849056603774,-18.867924528301888 L -3.7735849056603774,-17.92452830188679 L -4.716981132075472,-17.92452830188679 L -4.716981132075472,-16.9811320754717 L -3.7735849056603774,-16.9811320754717 L -2.830188679245283,-16.9811320754717 L -2.830188679245283,-16.037735849056602 L -3.7735849056603774,-16.037735849056602 L -3.7735849056603774,-15.09433962264151 L -2.830188679245283,-15.09433962264151 L -2.830188679245283,-14.150943396226415 L -1.8867924528301887,-14.150943396226415 L -1.8867924528301887,-15.09433962264151 L -1.8867924528301887,-16.037735849056602 L -0.9433962264150944,-16.037735849056602 L -0.9433962264150944,-15.09433962264151 L 0.0,-15.09433962264151 L 0.0,-16.037735849056602 L 0.9433962264150944,-16.037735849056602 L 0.9433962264150944,-16.9811320754717 L 0.0,-16.9811320754717 L -0.9433962264150944,-16.9811320754717 L -0.9433962264150944,-17.92452830188679 L 0.0,-17.92452830188679 L 0.0,-18.867924528301888 L 0.9433962264150944,-18.867924528301888 L 0.9433962264150944,-17.92452830188679 L 1.8867924528301887,-17.92452830188679 L 1.8867924528301887,-18.867924528301888 L 1.8867924528301887,-19.81132075471698 L 2.830188679245283,-19.81132075471698 L 2.830188679245283,-18.867924528301888 L 3.7735849056603774,-18.867924528301888 L 3.7735849056603774,-19.81132075471698 L 4.716981132075472,-19.81132075471698 L 4.716981132075472,-20.754716981132077 L 3.7735849056603774,-20.754716981132077 L 2.830188679245283,-20.754716981132077 L 2.830188679245283,-21.69811320754717 L 3.7735849056603774,-21.69811320754717 L 3.7735849056603774,-22.641509433962263 L 2.830188679245283,-22.641509433962263 L 2.830188679245283,-23.58490566037736 L 1.8867924528301887,-23.58490566037736 L 1.8867924528301887,-22.641509433962263 L 1.8867924528301887,-21.69811320754717 L 0.9433962264150944,-21.69811320754717 L 0.9433962264150944,-22.641509433962263 L 0.0,-22.641509433962263 L -0.9433962264150944,-22.641509433962263 L -0.9433962264150944,-23.58490566037736 L -1.8867924528301887,-23.58490566037736 L -1.8867924528301887,-22.641509433962263 L -1.8867924528301887,-21.69811320754717 L -2.830188679245283,-21.69811320754717 L -2.830188679245283,-22.641509433962263 L -3.7735849056603774,-22.641509433962263 L -3.7735849056603774,-23.58490566037736 L -2.830188679245283,-23.58490566037736 L -2.830188679245283,-24.528301886792452 L -3.7735849056603774,-24.528301886792452 L -4.716981132075472,-24.528301886792452 L -4.716981132075472,-25.471698113207548 L -3.7735849056603774,-25.471698113207548 L -3.7735849056603774,-26.41509433962264 L -2.830188679245283,-26.41509433962264 L -2.830188679245283,-25.471698113207548 L -1.8867924528301887,-25.471698113207548 L -1.8867924528301887,-26.41509433962264 L -1.8867924528301887,-27.358490566037737 L -0.9433962264150944,-27.358490566037737 L -0.9433962264150944,-26.41509433962264 L 0.0,-26.41509433962264 L 0.0,-27.358490566037737 L 0.9433962264150944,-27.358490566037737 L 0.9433962264150944,-28.30188679245283 L 0.0,-28.30188679245283 L -0.9433962264150944,-28.30188679245283 L -0.9433962264150944,-29.245283018867926 L 0.0,-29.245283018867926 L 0.0,-30.18867924528302 L 0.0,-31.132075471698112 L 0.9433962264150944,-31.132075471698112 L 0.9433962264150944,-32.075471698113205 L 0.0,-32.075471698113205 L -0.9433962264150944,-32.075471698113205 L -0.9433962264150944,-33.0188679245283 L 0.0,-33.0188679245283 L 0.0,-33.9622641509434 L 0.9433962264150944,-33.9622641509434 L 0.9433962264150944,-33.0188679245283 L 1.8867924528301887,-33.0188679245283 L 1.8867924528301887,-33.9622641509434 L 1.8867924528301887,-34.905660377358494 L 2.830188679245283,-34.905660377358494 L 2.830188679245283,-33.9622641509434 L 3.7735849056603774,-33.9622641509434 L 3.7735849056603774,-34.905660377358494 L 4.716981132075472,-34.905660377358494 L 4.716981132075472,-35.84905660377358 L 3.7735849056603774,-35.84905660377358 L 2.830188679245283,-35.84905660377358 L 2.830188679245283,-36.79245283018868 L 3.7735849056603774,-36.79245283018868 L 3.7735849056603774,-37.735849056603776 L 2.830188679245283,-37.735849056603776 L 2.830188679245283,-38.679245283018865 L 1.8867924528301887,-38.679245283018865 L 1.8867924528301887,-37.735849056603776 L 1.8867924528301887,-36.79245283018868 L 0.9433962264150944,-36.79245283018868 L 0.9433962264150944,-37.735849056603776 L 0.0,-37.735849056603776 L -0.9433962264150944,-37.735849056603776 L -0.9433962264150944,-38.679245283018865 L -1.8867924528301887,-38.679245283018865 L -1.8867924528301887,-37.735849056603776 L -1.8867924528301887,-36.79245283018868 L -2.830188679245283,-36.79245283018868 L -2.830188679245283,-37.735849056603776 L -3.7735849056603774,-37.735849056603776 L -3.7735849056603774,-38.679245283018865 L -2.830188679245283,-38.679245283018865 L -2.830188679245283,-39.62264150943396 L -3.7735849056603774,-39.62264150943396 L -4.716981132075472,-39.62264150943396 L -4.716981132075472,-40.56603773584906 L -3.7735849056603774,-40.56603773584906 L -3.7735849056603774,-41.509433962264154 L -2.830188679245283,-41.509433962264154 L -2.830188679245283,-40.56603773584906 L -1.8867924528301887,-40.56603773584906 L -1.8867924528301887,-41.509433962264154 L -1.8867924528301887,-42.45283018867924 L -0.9433962264150944,-42.45283018867924 L -0.9433962264150944,-41.509433962264154 L 0.0,-41.509433962264154 L 0.0,-42.45283018867924 L 0.9433962264150944,-42.45283018867924 L 0.9433962264150944,-43.39622641509434 L 0.0,-43.39622641509434 L -0.9433962264150944,-43.39622641509434 L -0.9433962264150944,-44.339622641509436 L 0.0,-44.339622641509436 L 0.0,-45.283018867924525 L 0.9433962264150944,-45.283018867924525 L 0.9433962264150944,-44.339622641509436 L 1.8867924528301887,-44.339622641509436 L 1.8867924528301887,-45.283018867924525 L 1.8867924528301887,-46.22641509433962 L 2.830188679245283,-46.22641509433962 L 2.830188679245283,-45.283018867924525 L 3.7735849056603774,-45.283018867924525 L 3.7735849056603774,-44.339622641509436 L 2.830188679245283,-44.339622641509436 L 2.830188679245283,-43.39622641509434 L 3.7735849056603774,-43.39622641509434 L 4.716981132075472,-43.39622641509434 L 4.716981132075472,-42.45283018867924 L 3.7735849056603774,-42.45283018867924 L 3.7735849056603774,-41.509433962264154 L 4.716981132075472,-41.509433962264154 L 4.716981132075472,-40.56603773584906 L 5.660377358490566,-40.56603773584906 L 5.660377358490566,-41.509433962264154 L 5.660377358490566,-42.45283018867924 L 6.60377358490566,-42.45283018867924 L 6.60377358490566,-41.509433962264154 L 7.547169811320755,-41.509433962264154 L 7.547169811320755,-42.45283018867924 L 8.49056603773585,-42.45283018867924 L 8.49056603773585,-43.39622641509434 L 7.547169811320755,-43.39622641509434 L 6.60377358490566,-43.39622641509434 L 6.60377358490566,-44.339622641509436 L 7.547169811320755,-44.339622641509436 L 7.547169811320755,-45.283018867924525 L 7.547169811320755,-46.22641509433962 L 8.49056603773585,-46.22641509433962 L 8.49056603773585,-47.16981132075472 L 7.547169811320755,-47.16981132075472 L 6.60377358490566,-47.16981132075472 L 6.60377358490566,-48.113207547169814 L 7.547169811320755,-48.113207547169814 L 7.547169811320755,-49.056603773584904 L 8.49056603773585,-49.056603773584904 L 8.49056603773585,-48.113207547169814 L 9.433962264150944,-48.113207547169814 L 9.433962264150944,-49.056603773584904 L 9.433962264150944,-50.0 L 10.377358490566039,-50.0 L 10.377358490566039,-49.056603773584904 L 11.320754716981131,-49.056603773584904 L 11.320754716981131,-48.113207547169814 L 10.377358490566039,-48.113207547169814 L 10.377358490566039,-47.16981132075472 L 11.320754716981131,-47.16981132075472 L 12.264150943396226,-47.16981132075472 L 12.264150943396226,-46.22641509433962 L 11.320754716981131,-46.22641509433962 L 11.320754716981131,-45.283018867924525 L 12.264150943396226,-45.283018867924525 L 12.264150943396226,-44.339622641509436 L 13.20754716981132,-44.339622641509436 L 13.20754716981132,-45.283018867924525 L 13.20754716981132,-46.22641509433962 L 14.150943396226415,-46.22641509433962 L 14.150943396226415,-45.283018867924525 L 15.09433962264151,-45.283018867924525 L 15.09433962264151,-44.339622641509436 L 14.150943396226415,-44.339622641509436 L 14.150943396226415,-43.39622641509434 L 15.09433962264151,-43.39622641509434 L 16.037735849056602,-43.39622641509434 L 16.037735849056602,-42.45283018867924 L 15.09433962264151,-42.45283018867924 L 15.09433962264151,-41.509433962264154 L 14.150943396226415,-41.509433962264154 L 14.150943396226415,-42.45283018867924 L 13.20754716981132,-42.45283018867924 L 13.20754716981132,-41.509433962264154 L 13.20754716981132,-40.56603773584906 L 12.264150943396226,-40.56603773584906 L 12.264150943396226,-41.509433962264154 L 11.320754716981131,-41.509433962264154 L 11.320754716981131,-40.56603773584906 L 10.377358490566039,-40.56603773584906 L 10.377358490566039,-39.62264150943396 L 11.320754716981131,-39.62264150943396 L 12.264150943396226,-39.62264150943396 L 12.264150943396226,-38.679245283018865 L 11.320754716981131,-38.679245283018865 L 11.320754716981131,-37.735849056603776 L 12.264150943396226,-37.735849056603776 L 12.264150943396226,-36.79245283018868 L 13.20754716981132,-36.79245283018868 L 13.20754716981132,-37.735849056603776 L 13.20754716981132,-38.679245283018865 L 14.150943396226415,-38.679245283018865 L 14.150943396226415,-37.735849056603776 L 15.09433962264151,-37.735849056603776 L 16.037735849056602,-37.735849056603776 L 16.037735849056602,-36.79245283018868 L 16.9811320754717,-36.79245283018868 L 16.9811320754717,-37.735849056603776 L 16.9811320754717,-38.679245283018865 L 17.92452830188679,-38.679245283018865 L 17.92452830188679,-37.735849056603776 L 18.867924528301888,-37.735849056603776 L 18.867924528301888,-36.79245283018868 L 17.92452830188679,-36.79245283018868 L 17.92452830188679,-35.84905660377358 L 18.867924528301888,-35.84905660377358 L 19.81132075471698,-35.84905660377358 L 19.81132075471698,-34.905660377358494 L 18.867924528301888,-34.905660377358494 L 18.867924528301888,-33.9622641509434 L 17.92452830188679,-33.9622641509434 L 17.92452830188679,-34.905660377358494 L 16.9811320754717,-34.905660377358494 L 16.9811320754717,-33.9622641509434 L 16.9811320754717,-33.0188679245283 L 16.037735849056602,-33.0188679245283 L 16.037735849056602,-33.9622641509434 L 15.09433962264151,-33.9622641509434 L 15.09433962264151,-33.0188679245283 L 14.150943396226415,-33.0188679245283 L 14.150943396226415,-32.075471698113205 L 15.09433962264151,-32.075471698113205 L 16.037735849056602,-32.075471698113205 L 16.037735849056602,-31.132075471698112 L 15.09433962264151,-31.132075471698112 L 15.09433962264151,-30.18867924528302 L 16.037735849056602,-30.18867924528302 L 16.037735849056602,-29.245283018867926 L 16.9811320754717,-29.245283018867926 L 16.9811320754717,-30.18867924528302 L 16.9811320754717,-31.132075471698112 L 17.92452830188679,-31.132075471698112 L 17.92452830188679,-30.18867924528302 L 18.867924528301888,-30.18867924528302 L 18.867924528301888,-29.245283018867926 L 17.92452830188679,-29.245283018867926 L 17.92452830188679,-28.30188679245283 L 18.867924528301888,-28.30188679245283 L 19.81132075471698,-28.30188679245283 L 19.81132075471698,-27.358490566037737 L 18.867924528301888,-27.358490566037737 L 18.867924528301888,-26.41509433962264 L 19.81132075471698,-26.41509433962264 L 19.81132075471698,-25.471698113207548 L 20.754716981132077,-25.471698113207548 L 20.754716981132077,-26.41509433962264 L 20.754716981132077,-27.358490566037737 L 21.69811320754717,-27.358490566037737 L 21.69811320754717,-26.41509433962264 L 22.641509433962263,-26.41509433962264 L 22.641509433962263,-27.358490566037737 L 23.58490566037736,-27.358490566037737 L 23.58490566037736,-28.30188679245283 L 22.641509433962263,-28.30188679245283 L 21.69811320754717,-28.30188679245283 L 21.69811320754717,-29.245283018867926 L 22.641509433962263,-29.245283018867926 L 22.641509433962263,-30.18867924528302 L 22.641509433962263,-31.132075471698112 L 23.58490566037736,-31.132075471698112 L 23.58490566037736,-32.075471698113205 L 22.641509433962263,-32.075471698113205 L 21.69811320754717,-32.075471698113205 L 21.69811320754717,-33.0188679245283 L 22.641509433962263,-33.0188679245283 L 22.641509433962263,-33.9622641509434 L 23.58490566037736,-33.9622641509434 L 23.58490566037736,-33.0188679245283 L 24.528301886792452,-33.0188679245283 L 24.528301886792452,-33.9622641509434 L 24.528301886792452,-34.905660377358494 L 25.471698113207548,-34.905660377358494 L 25.471698113207548,-33.9622641509434 L 26.41509433962264,-33.9622641509434 L 26.41509433962264,-33.0188679245283 L 25.471698113207548,-33.0188679245283 L 25.471698113207548,-32.075471698113205 L 26.41509433962264,-32.075471698113205 L 27.358490566037737,-32.075471698113205 L 27.358490566037737,-31.132075471698112 L 26.41509433962264,-31.132075471698112 L 26.41509433962264,-30.18867924528302 L 27.358490566037737,-30.18867924528302 L 27.358490566037737,-29.245283018867926 L 28.30188679245283,-29.245283018867926 L 28.30188679245283,-30.18867924528302 L 28.30188679245283,-31.132075471698112 L 29.245283018867926,-31.132075471698112 L 29.245283018867926,-30.18867924528302 L 30.18867924528302,-30.18867924528302 L 30.18867924528302,-29.245283018867926 L 29.245283018867926,-29.245283018867926 L 29.245283018867926,-28.30188679245283 L 30.18867924528302,-28.30188679245283 L 31.132075471698112,-28.30188679245283 L 31.132075471698112,-27.358490566037737 L 30.18867924528302,-27.358490566037737 L 30.18867924528302,-26.41509433962264 L 29.245283018867926,-26.41509433962264 L 29.245283018867926,-27.358490566037737 L 28.30188679245283,-27.358490566037737 L 28.30188679245283,-26.41509433962264 L 28.30188679245283,-25.471698113207548 L 27.358490566037737,-25.471698113207548 L 27.358490566037737,-26.41509433962264 L 26.41509433962264,-26.41509433962264 L 26.41509433962264,-25.471698113207548 L 25.471698113207548,-25.471698113207548 L 25.471698113207548,-24.528301886792452 L 26.41509433962264,-24.528301886792452 L 27.358490566037737,-24.528301886792452 L 27.358490566037737,-23.58490566037736 L 26.41509433962264,-23.58490566037736 L 26.41509433962264,-22.641509433962263 L 27.358490566037737,-22.641509433962263 L 27.358490566037737,-21.69811320754717 L 28.30188679245283,-21.69811320754717 L 28.30188679245283,-22.641509433962263 L 28.30188679245283,-23.58490566037736 L 29.245283018867926,-23.58490566037736 L 29.245283018867926,-22.641509433962263 L 30.18867924528302,-22.641509433962263 L 31.132075471698112,-22.641509433962263 L 31.132075471698112,-21.69811320754717 L 32.075471698113205,-21.69811320754717 L 32.075471698113205,-22.641509433962263 L 32.075471698113205,-23.58490566037736 L 33.0188679245283,-23.58490566037736 L 33.0188679245283,-22.641509433962263 L 33.9622641509434,-22.641509433962263 L 33.9622641509434,-21.69811320754717 L 33.0188679245283,-21.69811320754717 L 33.0188679245283,-20.754716981132077 L 33.9622641509434,-20.754716981132077 L 34.905660377358494,-20.754716981132077 L 34.905660377358494,-19.81132075471698 L 33.9622641509434,-19.81132075471698 L 33.9622641509434,-18.867924528301888 L 33.0188679245283,-18.867924528301888 L 33.0188679245283,-19.81132075471698 L 32.075471698113205,-19.81132075471698 L 32.075471698113205,-18.867924528301888 L 32.075471698113205,-17.92452830188679 L 31.132075471698112,-17.92452830188679 L 31.132075471698112,-18.867924528301888 L 30.18867924528302,-18.867924528301888 L 30.18867924528302,-17.92452830188679 L 29.245283018867926,-17.92452830188679 L 29.245283018867926,-16.9811320754717 L 30.18867924528302,-16.9811320754717 L 31.132075471698112,-16.9811320754717 L 31.132075471698112,-16.037735849056602 L 30.18867924528302,-16.037735849056602 L 30.18867924528302,-15.09433962264151 L 29.245283018867926,-15.09433962264151 L 29.245283018867926,-16.037735849056602 L 28.30188679245283,-16.037735849056602 L 28.30188679245283,-15.09433962264151 L 28.30188679245283,-14.150943396226415 L 27.358490566037737,-14.150943396226415 L 27.358490566037737,-15.09433962264151 L 26.41509433962264,-15.09433962264151 L 26.41509433962264,-16.037735849056602 L 27.358490566037737,-16.037735849056602 L 27.358490566037737,-16.9811320754717 L 26.41509433962264,-16.9811320754717 L 25.471698113207548,-16.9811320754717 L 25.471698113207548,-17.92452830188679 L 26.41509433962264,-17.92452830188679 L 26.41509433962264,-18.867924528301888 L 25.471698113207548,-18.867924528301888 L 25.471698113207548,-19.81132075471698 L 24.528301886792452,-19.81132075471698 L 24.528301886792452,-18.867924528301888 L 24.528301886792452,-17.92452830188679 L 23.58490566037736,-17.92452830188679 L 23.58490566037736,-18.867924528301888 L 22.641509433962263,-18.867924528301888 L 22.641509433962263,-17.92452830188679 L 21.69811320754717,-17.92452830188679 L 21.69811320754717,-16.9811320754717 L 22.641509433962263,-16.9811320754717 L 23.58490566037736,-16.9811320754717 L 23.58490566037736,-16.037735849056602 L 22.641509433962263,-16.037735849056602 L 22.641509433962263,-15.09433962264151 L 22.641509433962263,-14.150943396226415 L 21.69811320754717,-14.150943396226415 L 21.69811320754717,-13.20754716981132 L 22.641509433962263,-13.20754716981132 L 23.58490566037736,-13.20754716981132 L 23.58490566037736,-12.264150943396226 L 22.641509433962263,-12.264150943396226 L 22.641509433962263,-11.320754716981131 L 21.69811320754717,-11.320754716981131 L 21.69811320754717,-12.264150943396226 L 20.754716981132077,-12.264150943396226 L 20.754716981132077,-11.320754716981131 L 20.754716981132077,-10.377358490566039 L 19.81132075471698,-10.377358490566039 L 19.81132075471698,-11.320754716981131 L 18.867924528301888,-11.320754716981131 L 18.867924528301888,-12.264150943396226 L 19.81132075471698,-12.264150943396226 L 19.81132075471698,-13.20754716981132 L 18.867924528301888,-13.20754716981132 L 17.92452830188679,-13.20754716981132 L 17.92452830188679,-14.150943396226415 L 18.867924528301888,-14.150943396226415 L 18.867924528301888,-15.09433962264151 L 17.92452830188679,-15.09433962264151 L 17.92452830188679,-16.037735849056602 L 16.9811320754717,-16.037735849056602 L 16.9811320754717,-15.09433962264151 L 16.9811320754717,-14.150943396226415 L 16.037735849056602,-14.150943396226415 L 16.037735849056602,-15.09433962264151 L 15.09433962264151,-15.09433962264151 L 15.09433962264151,-14.150943396226415 L 14.150943396226415,-14.150943396226415 L 14.150943396226415,-13.20754716981132 L 15.09433962264151,-13.20754716981132 L 16.037735849056602,-13.20754716981132 L 16.037735849056602,-12.264150943396226 L 15.09433962264151,-12.264150943396226 L 15.09433962264151,-11.320754716981131 L 14.150943396226415,-11.320754716981131 L 14.150943396226415,-12.264150943396226 L 13.20754716981132,-12.264150943396226 L 13.20754716981132,-11.320754716981131 L 13.20754716981132,-10.377358490566039 L 12.264150943396226,-10.377358490566039 L 12.264150943396226,-11.320754716981131 L 11.320754716981131,-11.320754716981131 L 11.320754716981131,-10.377358490566039 L 10.377358490566039,-10.377358490566039 L 10.377358490566039,-9.433962264150944 L 11.320754716981131,-9.433962264150944 L 12.264150943396226,-9.433962264150944 L 12.264150943396226,-8.49056603773585 L 11.320754716981131,-8.49056603773585 L 11.320754716981131,-7.547169811320755 L 12.264150943396226,-7.547169811320755 L 12.264150943396226,-6.60377358490566 L 13.20754716981132,-6.60377358490566 L 13.20754716981132,-7.547169811320755 L 13.20754716981132,-8.49056603773585 L 14.150943396226415,-8.49056603773585 L 14.150943396226415,-7.547169811320755 L 15.09433962264151,-7.547169811320755 L 16.037735849056602,-7.547169811320755 L 16.037735849056602,-6.60377358490566 L 16.9811320754717,-6.60377358490566 L 16.9811320754717,-7.547169811320755 L 16.9811320754717,-8.49056603773585 L 17.92452830188679,-8.49056603773585 L 17.92452830188679,-7.547169811320755 L 18.867924528301888,-7.547169811320755 L 18.867924528301888,-6.60377358490566 L 17.92452830188679,-6.60377358490566 L 17.92452830188679,-5.660377358490566 L 18.867924528301888,-5.660377358490566 L 19.81132075471698,-5.660377358490566 L 19.81132075471698,-4.716981132075472 L 18.867924528301888,-4.716981132075472 L 18.867924528301888,-3.7735849056603774 L 17.92452830188679,-3.7735849056603774 L 17.92452830188679,-4.716981132075472 L 16.9811320754717,-4.716981132075472 L 16.9811320754717,-3.7735849056603774 L 16.9811320754717,-2.830188679245283 L 16.037735849056602,-2.830188679245283 L 16.037735849056602,-3.7735849056603774 L 15.09433962264151,-3.7735849056603774 L 15.09433962264151,-2.830188679245283 L 14.150943396226415,-2.830188679245283 L 14.150943396226415,-1.8867924528301887 L 15.09433962264151,-1.8867924528301887 L 16.037735849056602,-1.8867924528301887 L 16.037735849056602,-0.9433962264150944 L 15.09433962264151,-0.9433962264150944 L 15.09433962264151,0.0 L 16.037735849056602,0.0 L 16.037735849056602,0.9433962264150944 L 16.9811320754717,0.9433962264150944 L 16.9811320754717,0.0 L 16.9811320754717,-0.9433962264150944 L 17.92452830188679,-0.9433962264150944 L 17.92452830188679,0.0 L 18.867924528301888,0.0 L 18.867924528301888,0.9433962264150944 L 17.92452830188679,0.9433962264150944 L 17.92452830188679,1.8867924528301887 L 18.867924528301888,1.8867924528301887 L 19.81132075471698,1.8867924528301887 L 19.81132075471698,2.830188679245283 L 18.867924528301888,2.830188679245283 L 18.867924528301888,3.7735849056603774 L 19.81132075471698,3.7735849056603774 L 19.81132075471698,4.716981132075472 L 20.754716981132077,4.716981132075472 L 20.754716981132077,3.7735849056603774 L 20.754716981132077,2.830188679245283 L 21.69811320754717,2.830188679245283 L 21.69811320754717,3.7735849056603774 L 22.641509433962263,3.7735849056603774 L 22.641509433962263,2.830188679245283 L 23.58490566037736,2.830188679245283 L 23.58490566037736,1.8867924528301887 L 22.641509433962263,1.8867924528301887 L 21.69811320754717,1.8867924528301887 L 21.69811320754717,0.9433962264150944 L 22.641509433962263,0.9433962264150944 L 22.641509433962263,0.0 L 22.641509433962263,-0.9433962264150944 L 23.58490566037736,-0.9433962264150944 L 23.58490566037736,-1.8867924528301887 L 22.641509433962263,-1.8867924528301887 L 21.69811320754717,-1.8867924528301887 L 21.69811320754717,-2.830188679245283 L 22.641509433962263,-2.830188679245283 L 22.641509433962263,-3.7735849056603774 L 23.58490566037736,-3.7735849056603774 L 23.58490566037736,-2.830188679245283 L 24.528301886792452,-2.830188679245283 L 24.528301886792452,-3.7735849056603774 L 24.528301886792452,-4.716981132075472 L 25.471698113207548,-4.716981132075472 L 25.471698113207548,-3.7735849056603774 L 26.41509433962264,-3.7735849056603774 L 26.41509433962264,-2.830188679245283 L 25.471698113207548,-2.830188679245283 L 25.471698113207548,-1.8867924528301887 L 26.41509433962264,-1.8867924528301887 L 27.358490566037737,-1.8867924528301887 L 27.358490566037737,-0.9433962264150944 L 26.41509433962264,-0.9433962264150944 L 26.41509433962264,0.0 L 27.358490566037737,0.0 L 27.358490566037737,0.9433962264150944 L 28.30188679245283,0.9433962264150944 L 28.30188679245283,0.0 L 28.30188679245283,-0.9433962264150944 L 29.245283018867926,-0.9433962264150944 L 29.245283018867926,0.0 L 30.18867924528302,0.0 L 31.132075471698112,0.0 L 31.132075471698112,0.9433962264150944 L 32.075471698113205,0.9433962264150944 L 32.075471698113205,0.0 L 32.075471698113205,-0.9433962264150944 L 33.0188679245283,-0.9433962264150944 L 33.0188679245283,0.0 L 33.9622641509434,0.0 L 33.9622641509434,0.9433962264150944 L 33.0188679245283,0.9433962264150944 L 33.0188679245283,1.8867924528301887 L 33.9622641509434,1.8867924528301887 L 34.905660377358494,1.8867924528301887 L 34.905660377358494,2.830188679245283 L 33.9622641509434,2.830188679245283 L 33.9622641509434,3.7735849056603774 L 34.905660377358494,3.7735849056603774 L 34.905660377358494,4.716981132075472 L 35.84905660377358,4.716981132075472 L 35.84905660377358,3.7735849056603774 L 35.84905660377358,2.830188679245283 L 36.79245283018868,2.830188679245283 L 36.79245283018868,3.7735849056603774 L 37.735849056603776,3.7735849056603774 L 37.735849056603776,2.830188679245283 L 38.679245283018865,2.830188679245283 L 38.679245283018865,1.8867924528301887 L 37.735849056603776,1.8867924528301887 L 36.79245283018868,1.8867924528301887 L 36.79245283018868,0.9433962264150944 L 37.735849056603776,0.9433962264150944 L 37.735849056603776,0.0 L 37.735849056603776,-0.9433962264150944 L 38.679245283018865,-0.9433962264150944 L 38.679245283018865,-1.8867924528301887 L 37.735849056603776,-1.8867924528301887 L 36.79245283018868,-1.8867924528301887 L 36.79245283018868,-2.830188679245283 L 37.735849056603776,-2.830188679245283 L 37.735849056603776,-3.7735849056603774 L 38.679245283018865,-3.7735849056603774 L 38.679245283018865,-2.830188679245283 L 39.62264150943396,-2.830188679245283 L 39.62264150943396,-3.7735849056603774 L 39.62264150943396,-4.716981132075472 L 40.56603773584906,-4.716981132075472 L 40.56603773584906,-3.7735849056603774 L 41.509433962264154,-3.7735849056603774 L 41.509433962264154,-2.830188679245283 L 40.56603773584906,-2.830188679245283 L 40.56603773584906,-1.8867924528301887 L 41.509433962264154,-1.8867924528301887 L 42.45283018867924,-1.8867924528301887 L 42.45283018867924,-0.9433962264150944 L 41.509433962264154,-0.9433962264150944 L 41.509433962264154,0.0 L 42.45283018867924,0.0 L 42.45283018867924,0.9433962264150944 L 43.39622641509434,0.9433962264150944 L 43.39622641509434,0.0 L 43.39622641509434,-0.9433962264150944 L 44.339622641509436,-0.9433962264150944 L 44.339622641509436,0.0 L 45.283018867924525,0.0 L 45.283018867924525,0.9433962264150944 L 44.339622641509436,0.9433962264150944 L 44.339622641509436,1.8867924528301887 L 45.283018867924525,1.8867924528301887 L 46.22641509433962,1.8867924528301887 L 46.22641509433962,2.830188679245283 L 45.283018867924525,2.830188679245283 L 45.283018867924525,3.7735849056603774 L 44.339622641509436,3.7735849056603774 L 44.339622641509436,2.830188679245283 L 43.39622641509434,2.830188679245283 L 43.39622641509434,3.7735849056603774 L 43.39622641509434,4.716981132075472 L 42.45283018867924,4.716981132075472 L 42.45283018867924,3.7735849056603774 L 41.509433962264154,3.7735849056603774 L 41.509433962264154,4.716981132075472 L 40.56603773584906,4.716981132075472 L 40.56603773584906,5.660377358490566 L 41.509433962264154,5.660377358490566 L 42.45283018867924,5.660377358490566 L 42.45283018867924,6.60377358490566 L 41.509433962264154,6.60377358490566 L 41.509433962264154,7.547169811320755 L 42.45283018867924,7.547169811320755 L 42.45283018867924,8.49056603773585 L 43.39622641509434,8.49056603773585 L 43.39622641509434,7.547169811320755 L 43.39622641509434,6.60377358490566 L 44.339622641509436,6.60377358490566 L 44.339622641509436,7.547169811320755 L 45.283018867924525,7.547169811320755 L 46.22641509433962,7.547169811320755 L 46.22641509433962,8.49056603773585 L 47.16981132075472,8.49056603773585 L 47.16981132075472,7.547169811320755 L 47.16981132075472,6.60377358490566 L 48.113207547169814,6.60377358490566 L 48.113207547169814,7.547169811320755 L 49.056603773584904,7.547169811320755 L 49.056603773584904,8.49056603773585 L 48.113207547169814,8.49056603773585 L 48.113207547169814,9.433962264150944 L 49.056603773584904,9.433962264150944 L 50.0,9.433962264150944 L 50.0,10.377358490566039 L 49.056603773584904,10.377358490566039 L 49.056603773584904,11.320754716981131 L 48.113207547169814,11.320754716981131 L 48.113207547169814,10.377358490566039 L 47.16981132075472,10.377358490566039 L 47.16981132075472,11.320754716981131 L 47.16981132075472,12.264150943396226 L 46.22641509433962,12.264150943396226 L 46.22641509433962,11.320754716981131 L 45.283018867924525,11.320754716981131 L 45.283018867924525,12.264150943396226 L 44.339622641509436,12.264150943396226 L 44.339622641509436,13.20754716981132 L 45.283018867924525,13.20754716981132 L 46.22641509433962,13.20754716981132 L 46.22641509433962,14.150943396226415 L 45.283018867924525,14.150943396226415 L 45.283018867924525,15.09433962264151 L 44.339622641509436,15.09433962264151 L 44.339622641509436,14.150943396226415 L 43.39622641509434,14.150943396226415 L 43.39622641509434,15.09433962264151 L 43.39622641509434,16.037735849056602 L 42.45283018867924,16.037735849056602 L 42.45283018867924,15.09433962264151 L 41.509433962264154,15.09433962264151 L 41.509433962264154,14.150943396226415 L 42.45283018867924,14.150943396226415 L 42.45283018867924,13.20754716981132 L 41.509433962264154,13.20754716981132 L 40.56603773584906,13.20754716981132 L 40.56603773584906,12.264150943396226 L 41.509433962264154,12.264150943396226 L 41.509433962264154,11.320754716981131 L 40.56603773584906,11.320754716981131 L 40.56603773584906,10.377358490566039 L 39.62264150943396,10.377358490566039 L 39.62264150943396,11.320754716981131 L 39.62264150943396,12.264150943396226 L 38.679245283018865,12.264150943396226 L 38.679245283018865,11.320754716981131 L 37.735849056603776,11.320754716981131 L 37.735849056603776,12.264150943396226 L 36.79245283018868,12.264150943396226 L 36.79245283018868,13.20754716981132 L 37.735849056603776,13.20754716981132 L 38.679245283018865,13.20754716981132 L 38.679245283018865,14.150943396226415 L 37.735849056603776,14.150943396226415 L 37.735849056603776,15.09433962264151 L 37.735849056603776,16.037735849056602 L 36.79245283018868,16.037735849056602 L 36.79245283018868,16.9811320754717 L 37.735849056603776,16.9811320754717 L 38.679245283018865,16.9811320754717 L 38.679245283018865,17.92452830188679 L 37.735849056603776,17.92452830188679 L 37.735849056603776,18.867924528301888 L 36.79245283018868,18.867924528301888 L 36.79245283018868,17.92452830188679 L 35.84905660377358,17.92452830188679 L 35.84905660377358,18.867924528301888 L 35.84905660377358,19.81132075471698 L 34.905660377358494,19.81132075471698 L 34.905660377358494,18.867924528301888 L 33.9622641509434,18.867924528301888 L 33.9622641509434,17.92452830188679 L 34.905660377358494,17.92452830188679 L 34.905660377358494,16.9811320754717 L 33.9622641509434,16.9811320754717 L 33.0188679245283,16.9811320754717 L 33.0188679245283,16.037735849056602 L 33.9622641509434,16.037735849056602 L 33.9622641509434,15.09433962264151 L 33.0188679245283,15.09433962264151 L 33.0188679245283,14.150943396226415 L 32.075471698113205,14.150943396226415 L 32.075471698113205,15.09433962264151 L 32.075471698113205,16.037735849056602 L 31.132075471698112,16.037735849056602 L 31.132075471698112,15.09433962264151 L 30.18867924528302,15.09433962264151 L 30.18867924528302,16.037735849056602 L 29.245283018867926,16.037735849056602 L 29.245283018867926,16.9811320754717 L 30.18867924528302,16.9811320754717 L 31.132075471698112,16.9811320754717 L 31.132075471698112,17.92452830188679 L 30.18867924528302,17.92452830188679 L 30.18867924528302,18.867924528301888 L 29.245283018867926,18.867924528301888 L 29.245283018867926,17.92452830188679 L 28.30188679245283,17.92452830188679 L 28.30188679245283,18.867924528301888 L 28.30188679245283,19.81132075471698 L 27.358490566037737,19.81132075471698 L 27.358490566037737,18.867924528301888 L 26.41509433962264,18.867924528301888 L 26.41509433962264,19.81132075471698 L 25.471698113207548,19.81132075471698 L 25.471698113207548,20.754716981132077 L 26.41509433962264,20.754716981132077 L 27.358490566037737,20.754716981132077 L 27.358490566037737,21.69811320754717 L 26.41509433962264,21.69811320754717 L 26.41509433962264,22.641509433962263 L 27.358490566037737,22.641509433962263 L 27.358490566037737,23.58490566037736 L 28.30188679245283,23.58490566037736 L 28.30188679245283,22.641509433962263 L 28.30188679245283,21.69811320754717 L 29.245283018867926,21.69811320754717 L 29.245283018867926,22.641509433962263 L 30.18867924528302,22.641509433962263 L 31.132075471698112,22.641509433962263 L 31.132075471698112,23.58490566037736 L 32.075471698113205,23.58490566037736 L 32.075471698113205,22.641509433962263 L 32.075471698113205,21.69811320754717 L 33.0188679245283,21.69811320754717 L 33.0188679245283,22.641509433962263 L 33.9622641509434,22.641509433962263 L 33.9622641509434,23.58490566037736 L 33.0188679245283,23.58490566037736 L 33.0188679245283,24.528301886792452 L 33.9622641509434,24.528301886792452 L 34.905660377358494,24.528301886792452 L 34.905660377358494,25.471698113207548 L 33.9622641509434,25.471698113207548 L 33.9622641509434,26.41509433962264 L 33.0188679245283,26.41509433962264 L 33.0188679245283,25.471698113207548 L 32.075471698113205,25.471698113207548 L 32.075471698113205,26.41509433962264 L 32.075471698113205,27.358490566037737 L 31.132075471698112,27.358490566037737 L 31.132075471698112,26.41509433962264 L 30.18867924528302,26.41509433962264 L 30.18867924528302,27.358490566037737 L 29.245283018867926,27.358490566037737 L 29.245283018867926,28.30188679245283 L 30.18867924528302,28.30188679245283 L 31.132075471698112,28.30188679245283 L 31.132075471698112,29.245283018867926 L 30.18867924528302,29.245283018867926 L 30.18867924528302,30.18867924528302 L 29.245283018867926,30.18867924528302 L 29.245283018867926,29.245283018867926 L 28.30188679245283,29.245283018867926 L 28.30188679245283,30.18867924528302 L 28.30188679245283,31.132075471698112 L 27.358490566037737,31.132075471698112 L 27.358490566037737,30.18867924528302 L 26.41509433962264,30.18867924528302 L 26.41509433962264,29.245283018867926 L 27.358490566037737,29.245283018867926 L 27.358490566037737,28.30188679245283 L 26.41509433962264,28.30188679245283 L 25.471698113207548,28.30188679245283 L 25.471698113207548,27.358490566037737 L 26.41509433962264,27.358490566037737 L 26.41509433962264,26.41509433962264 L 25.471698113207548,26.41509433962264 L 25.471698113207548,25.471698113207548 L 24.528301886792452,25.471698113207548 L 24.528301886792452,26.41509433962264 L 24.528301886792452,27.358490566037737 L 23.58490566037736,27.358490566037737 L 23.58490566037736,26.41509433962264 L 22.641509433962263,26.41509433962264 L 22.641509433962263,27.358490566037737 L 21.69811320754717,27.358490566037737 L 21.69811320754717,28.30188679245283 L 22.641509433962263,28.30188679245283 L 23.58490566037736,28.30188679245283 L 23.58490566037736,29.245283018867926 L 22.641509433962263,29.245283018867926 L 22.641509433962263,30.18867924528302 L 22.641509433962263,31.132075471698112 L 21.69811320754717,31.132075471698112 L 21.69811320754717,32.075471698113205 L 22.641509433962263,32.075471698113205 L 23.58490566037736,32.075471698113205 L 23.58490566037736,33.0188679245283 L 22.641509433962263,33.0188679245283 L 22.641509433962263,33.9622641509434 L 21.69811320754717,33.9622641509434 L 21.69811320754717,33.0188679245283 L 20.754716981132077,33.0188679245283 L 20.754716981132077,33.9622641509434 L 20.754716981132077,34.905660377358494 L 19.81132075471698,34.905660377358494 L 19.81132075471698,33.9622641509434 L 18.867924528301888,33.9622641509434 L 18.867924528301888,33.0188679245283 L 19.81132075471698,33.0188679245283 L 19.81132075471698,32.075471698113205 L 18.867924528301888,32.075471698113205 L 17.92452830188679,32.075471698113205 L 17.92452830188679,31.132075471698112 L 18.867924528301888,31.132075471698112 L 18.867924528301888,30.18867924528302 L 17.92452830188679,30.18867924528302 L 17.92452830188679,29.245283018867926 L 16.9811320754717,29.245283018867926 L 16.9811320754717,30.18867924528302 L 16.9811320754717,31.132075471698112 L 16.037735849056602,31.132075471698112 L 16.037735849056602,30.18867924528302 L 15.09433962264151,30.18867924528302 L 15.09433962264151,29.245283018867926 L 16.037735849056602,29.245283018867926 L 16.037735849056602,28.30188679245283 L 15.09433962264151,28.30188679245283 L 14.150943396226415,28.30188679245283 L 14.150943396226415,27.358490566037737 L 15.09433962264151,27.358490566037737 L 15.09433962264151,26.41509433962264 L 16.037735849056602,26.41509433962264 L 16.037735849056602,27.358490566037737 L 16.9811320754717,27.358490566037737 L 16.9811320754717,26.41509433962264 L 16.9811320754717,25.471698113207548 L 17.92452830188679,25.471698113207548 L 17.92452830188679,26.41509433962264 L 18.867924528301888,26.41509433962264 L 18.867924528301888,25.471698113207548 L 19.81132075471698,25.471698113207548 L 19.81132075471698,24.528301886792452 L 18.867924528301888,24.528301886792452 L 17.92452830188679,24.528301886792452 L 17.92452830188679,23.58490566037736 L 18.867924528301888,23.58490566037736 L 18.867924528301888,22.641509433962263 L 17.92452830188679,22.641509433962263 L 17.92452830188679,21.69811320754717 L 16.9811320754717,21.69811320754717 L 16.9811320754717,22.641509433962263 L 16.9811320754717,23.58490566037736 L 16.037735849056602,23.58490566037736 L 16.037735849056602,22.641509433962263 L 15.09433962264151,22.641509433962263 L 14.150943396226415,22.641509433962263 L 14.150943396226415,21.69811320754717 L 13.20754716981132,21.69811320754717 L 13.20754716981132,22.641509433962263 L 13.20754716981132,23.58490566037736 L 12.264150943396226,23.58490566037736 L 12.264150943396226,22.641509433962263 L 11.320754716981131,22.641509433962263 L 11.320754716981131,21.69811320754717 L 12.264150943396226,21.69811320754717 L 12.264150943396226,20.754716981132077 L 11.320754716981131,20.754716981132077 L 10.377358490566039,20.754716981132077 L 10.377358490566039,19.81132075471698 L 11.320754716981131,19.81132075471698 L 11.320754716981131,18.867924528301888 L 12.264150943396226,18.867924528301888 L 12.264150943396226,19.81132075471698 L 13.20754716981132,19.81132075471698 L 13.20754716981132,18.867924528301888 L 13.20754716981132,17.92452830188679 L 14.150943396226415,17.92452830188679 L 14.150943396226415,18.867924528301888 L 15.09433962264151,18.867924528301888 L 15.09433962264151,17.92452830188679 L 16.037735849056602,17.92452830188679 L 16.037735849056602,16.9811320754717 L 15.09433962264151,16.9811320754717 L 14.150943396226415,16.9811320754717 L 14.150943396226415,16.037735849056602 L 15.09433962264151,16.037735849056602 L 15.09433962264151,15.09433962264151 L 14.150943396226415,15.09433962264151 L 14.150943396226415,14.150943396226415 L 13.20754716981132,14.150943396226415 L 13.20754716981132,15.09433962264151 L 13.20754716981132,16.037735849056602 L 12.264150943396226,16.037735849056602 L 12.264150943396226,15.09433962264151 L 11.320754716981131,15.09433962264151 L 11.320754716981131,14.150943396226415 L 12.264150943396226,14.150943396226415 L 12.264150943396226,13.20754716981132 L 11.320754716981131,13.20754716981132 L 10.377358490566039,13.20754716981132 L 10.377358490566039,12.264150943396226 L 11.320754716981131,12.264150943396226 L 11.320754716981131,11.320754716981131 L 10.377358490566039,11.320754716981131 L 10.377358490566039,10.377358490566039 L 9.433962264150944,10.377358490566039 L 9.433962264150944,11.320754716981131 L 9.433962264150944,12.264150943396226 L 8.49056603773585,12.264150943396226 L 8.49056603773585,11.320754716981131 L 7.547169811320755,11.320754716981131 L 7.547169811320755,12.264150943396226 L 6.60377358490566,12.264150943396226 L 6.60377358490566,13.20754716981132 L 7.547169811320755,13.20754716981132 L 8.49056603773585,13.20754716981132 L 8.49056603773585,14.150943396226415 L 7.547169811320755,14.150943396226415 L 7.547169811320755,15.09433962264151 L 7.547169811320755,16.037735849056602 L 6.60377358490566,16.037735849056602 L 6.60377358490566,16.9811320754717 L 7.547169811320755,16.9811320754717 L 8.49056603773585,16.9811320754717 L 8.49056603773585,17.92452830188679 L 7.547169811320755,17.92452830188679 L 7.547169811320755,18.867924528301888 L 6.60377358490566,18.867924528301888 L 6.60377358490566,17.92452830188679 L 5.660377358490566,17.92452830188679 L 5.660377358490566,18.867924528301888 L 5.660377358490566,19.81132075471698 L 4.716981132075472,19.81132075471698 L 4.716981132075472,18.867924528301888 L 3.7735849056603774,18.867924528301888 L 3.7735849056603774,17.92452830188679 L 4.716981132075472,17.92452830188679 L 4.716981132075472,16.9811320754717 L 3.7735849056603774,16.9811320754717 L 2.830188679245283,16.9811320754717 L 2.830188679245283,16.037735849056602 L 3.7735849056603774,16.037735849056602 L 3.7735849056603774,15.09433962264151 L 2.830188679245283,15.09433962264151 L 2.830188679245283,14.150943396226415 L 1.8867924528301887,14.150943396226415 L 1.8867924528301887,15.09433962264151 L 1.8867924528301887,16.037735849056602 L 0.9433962264150944,16.037735849056602 L 0.9433962264150944,15.09433962264151 L 0.0,15.09433962264151 L 0.0,16.037735849056602 L -0.9433962264150944,16.037735849056602 L -0.9433962264150944,16.9811320754717 L 0.0,16.9811320754717 L 0.9433962264150944,16.9811320754717 L 0.9433962264150944,17.92452830188679 L 0.0,17.92452830188679 L 0.0,18.867924528301888 L -0.9433962264150944,18.867924528301888 L -0.9433962264150944,17.92452830188679 L -1.8867924528301887,17.92452830188679 L -1.8867924528301887,18.867924528301888 L -1.8867924528301887,19.81132075471698 L -2.830188679245283,19.81132075471698 L -2.830188679245283,18.867924528301888 L -3.7735849056603774,18.867924528301888 L -3.7735849056603774,19.81132075471698 L -4.716981132075472,19.81132075471698 L -4.716981132075472,20.754716981132077 L -3.7735849056603774,20.754716981132077 L -2.830188679245283,20.754716981132077 L -2.830188679245283,21.69811320754717 L -3.7735849056603774,21.69811320754717 L -3.7735849056603774,22.641509433962263 L -2.830188679245283,22.641509433962263 L -2.830188679245283,23.58490566037736 L -1.8867924528301887,23.58490566037736 L -1.8867924528301887,22.641509433962263 L -1.8867924528301887,21.69811320754717 L -0.9433962264150944,21.69811320754717 L -0.9433962264150944,22.641509433962263 L 0.0,22.641509433962263 L 0.9433962264150944,22.641509433962263 L 0.9433962264150944,23.58490566037736 L 1.8867924528301887,23.58490566037736 L 1.8867924528301887,22.641509433962263 L 1.8867924528301887,21.69811320754717 L 2.830188679245283,21.69811320754717 L 2.830188679245283,22.641509433962263 L 3.7735849056603774,22.641509433962263 L 3.7735849056603774,23.58490566037736 L 2.830188679245283,23.58490566037736 L 2.830188679245283,24.528301886792452 L 3.7735849056603774,24.528301886792452 L 4.716981132075472,24.528301886792452 L 4.716981132075472,25.471698113207548 L 3.7735849056603774,25.471698113207548 L 3.7735849056603774,26.41509433962264 L 2.830188679245283,26.41509433962264 L 2.830188679245283,25.471698113207548 L 1.8867924528301887,25.471698113207548 L 1.8867924528301887,26.41509433962264 L 1.8867924528301887,27.358490566037737 L 0.9433962264150944,27.358490566037737 L 0.9433962264150944,26.41509433962264 L 0.0,26.41509433962264 L 0.0,27.358490566037737 L -0.9433962264150944,27.358490566037737 L -0.9433962264150944,28.30188679245283 L 0.0,28.30188679245283 L 0.9433962264150944,28.30188679245283 L 0.9433962264150944,29.245283018867926 L 0.0,29.245283018867926 L 0.0,30.18867924528302 L 0.0,31.132075471698112 L -0.9433962264150944,31.132075471698112 L -0.9433962264150944,32.075471698113205 L 0.0,32.075471698113205 L 0.9433962264150944,32.075471698113205 L 0.9433962264150944,33.0188679245283 L 0.0,33.0188679245283 L 0.0,33.9622641509434 L -0.9433962264150944,33.9622641509434 L -0.9433962264150944,33.0188679245283 L -1.8867924528301887,33.0188679245283 L -1.8867924528301887,33.9622641509434 L -1.8867924528301887,34.905660377358494 L -2.830188679245283,34.905660377358494 L -2.830188679245283,33.9622641509434 L -3.7735849056603774,33.9622641509434 L -3.7735849056603774,34.905660377358494 L -4.716981132075472,34.905660377358494 L -4.716981132075472,35.84905660377358 L -3.7735849056603774,35.84905660377358 L -2.830188679245283,35.84905660377358 L -2.830188679245283,36.79245283018868 L -3.7735849056603774,36.79245283018868 L -3.7735849056603774,37.735849056603776 L -2.830188679245283,37.735849056603776 L -2.830188679245283,38.679245283018865 L -1.8867924528301887,38.679245283018865 L -1.8867924528301887,37.735849056603776 L -1.8867924528301887,36.79245283018868 L -0.9433962264150944,36.79245283018868 L -0.9433962264150944,37.735849056603776 L 0.0,37.735849056603776 L 0.9433962264150944,37.735849056603776 L 0.9433962264150944,38.679245283018865 L 1.8867924528301887,38.679245283018865 L 1.8867924528301887,37.735849056603776 L 1.8867924528301887,36.79245283018868 L 2.830188679245283,36.79245283018868 L 2.830188679245283,37.735849056603776 L 3.7735849056603774,37.735849056603776 L 3.7735849056603774,38.679245283018865 L 2.830188679245283,38.679245283018865 L 2.830188679245283,39.62264150943396 L 3.7735849056603774,39.62264150943396 L 4.716981132075472,39.62264150943396 L 4.716981132075472,40.56603773584906 L 3.7735849056603774,40.56603773584906 L 3.7735849056603774,41.509433962264154 L 2.830188679245283,41.509433962264154 L 2.830188679245283,40.56603773584906 L 1.8867924528301887,40.56603773584906 L 1.8867924528301887,41.509433962264154 L 1.8867924528301887,42.45283018867924 L 0.9433962264150944,42.45283018867924 L 0.9433962264150944,41.509433962264154 L 0.0,41.509433962264154 L 0.0,42.45283018867924 L -0.9433962264150944,42.45283018867924 L -0.9433962264150944,43.39622641509434 L 0.0,43.39622641509434 L 0.9433962264150944,43.39622641509434 L 0.9433962264150944,44.339622641509436 L 0.0,44.339622641509436 L 0.0,45.283018867924525 L -0.9433962264150944,45.283018867924525 L -0.9433962264150944,44.339622641509436 L -1.8867924528301887,44.339622641509436 L -1.8867924528301887,45.283018867924525 L -1.8867924528301887,46.22641509433962 L -2.830188679245283,46.22641509433962 L -2.830188679245283,45.283018867924525 L -3.7735849056603774,45.283018867924525 L -3.7735849056603774,44.339622641509436 L -2.830188679245283,44.339622641509436 L -2.830188679245283,43.39622641509434 L -3.7735849056603774,43.39622641509434 L -4.716981132075472,43.39622641509434 L -4.716981132075472,42.45283018867924 L -3.7735849056603774,42.45283018867924 L -3.7735849056603774,41.509433962264154 L -4.716981132075472,41.509433962264154 L -4.716981132075472,40.56603773584906 L -5.660377358490566,40.56603773584906 L -5.660377358490566,41.509433962264154 L -5.660377358490566,42.45283018867924 L -6.60377358490566,42.45283018867924 L -6.60377358490566,41.509433962264154 L -7.547169811320755,41.509433962264154 L -7.547169811320755,42.45283018867924 L -8.49056603773585,42.45283018867924 L -8.49056603773585,43.39622641509434 L -7.547169811320755,43.39622641509434 L -6.60377358490566,43.39622641509434 L -6.60377358490566,44.339622641509436 L -7.547169811320755,44.339622641509436 L -7.547169811320755,45.283018867924525 L -7.547169811320755,46.22641509433962 L -8.49056603773585,46.22641509433962 L -8.49056603773585,47.16981132075472 L -7.547169811320755,47.16981132075472 L -6.60377358490566,47.16981132075472 L -6.60377358490566,48.113207547169814 L -7.547169811320755,48.113207547169814 L -7.547169811320755,49.056603773584904 L -8.49056603773585,49.056603773584904 L -8.49056603773585,48.113207547169814 L -9.433962264150944,48.113207547169814 L -9.433962264150944,49.056603773584904 L -9.433962264150944,50.0 L -10.377358490566039,50.0 L -10.377358490566039,49.056603773584904 L -11.320754716981131,49.056603773584904 L -11.320754716981131,48.113207547169814 L -10.377358490566039,48.113207547169814 L -10.377358490566039,47.16981132075472 L -11.320754716981131,47.16981132075472 L -12.264150943396226,47.16981132075472 L -12.264150943396226,46.22641509433962 L -11.320754716981131,46.22641509433962 L -11.320754716981131,45.283018867924525 L -12.264150943396226,45.283018867924525 L -12.264150943396226,44.339622641509436 L -13.20754716981132,44.339622641509436 L -13.20754716981132,45.283018867924525 L -13.20754716981132,46.22641509433962 L -14.150943396226415,46.22641509433962 L -14.150943396226415,45.283018867924525 L -15.09433962264151,45.283018867924525 L -15.09433962264151,44.339622641509436 L -14.150943396226415,44.339622641509436 L -14.150943396226415,43.39622641509434 L -15.09433962264151,43.39622641509434 L -16.037735849056602,43.39622641509434 L -16.037735849056602,42.45283018867924 L -15.09433962264151,42.45283018867924 L -15.09433962264151,41.509433962264154 L -14.150943396226415,41.509433962264154 L -14.150943396226415,42.45283018867924 L -13.20754716981132,42.45283018867924 L -13.20754716981132,41.509433962264154 L -13.20754716981132,40.56603773584906 L -12.264150943396226,40.56603773584906 L -12.264150943396226,41.509433962264154 L -11.320754716981131,41.509433962264154 L -11.320754716981131,40.56603773584906 L -10.377358490566039,40.56603773584906 L -10.377358490566039,39.62264150943396 L -11.320754716981131,39.62264150943396 L -12.264150943396226,39.62264150943396 L -12.264150943396226,38.679245283018865 L -11.320754716981131,38.679245283018865 L -11.320754716981131,37.735849056603776 L -12.264150943396226,37.735849056603776 L -12.264150943396226,36.79245283018868 L -13.20754716981132,36.79245283018868 L -13.20754716981132,37.735849056603776 L -13.20754716981132,38.679245283018865 L -14.150943396226415,38.679245283018865 L -14.150943396226415,37.735849056603776 L -15.09433962264151,37.735849056603776 L -16.037735849056602,37.735849056603776 L -16.037735849056602,36.79245283018868 L -16.9811320754717,36.79245283018868 L -16.9811320754717,37.735849056603776 L -16.9811320754717,38.679245283018865 L -17.92452830188679,38.679245283018865 L -17.92452830188679,37.735849056603776 L -18.867924528301888,37.735849056603776 L -18.867924528301888,36.79245283018868 L -17.92452830188679,36.79245283018868 L -17.92452830188679,35.84905660377358 L -18.867924528301888,35.84905660377358 L -19.81132075471698,35.84905660377358 L -19.81132075471698,34.905660377358494 L -18.867924528301888,34.905660377358494 L -18.867924528301888,33.9622641509434 L -17.92452830188679,33.9622641509434 L -17.92452830188679,34.905660377358494 L -16.9811320754717,34.905660377358494 L -16.9811320754717,33.9622641509434 L -16.9811320754717,33.0188679245283 L -16.037735849056602,33.0188679245283 L -16.037735849056602,33.9622641509434 L -15.09433962264151,33.9622641509434 L -15.09433962264151,33.0188679245283 L -14.150943396226415,33.0188679245283 L -14.150943396226415,32.075471698113205 L -15.09433962264151,32.075471698113205 L -16.037735849056602,32.075471698113205 L -16.037735849056602,31.132075471698112 L -15.09433962264151,31.132075471698112 L -15.09433962264151,30.18867924528302 L -16.037735849056602,30.18867924528302 L -16.037735849056602,29.245283018867926 L -16.9811320754717,29.245283018867926 L -16.9811320754717,30.18867924528302 L -16.9811320754717,31.132075471698112 L -17.92452830188679,31.132075471698112 L -17.92452830188679,30.18867924528302 L -18.867924528301888,30.18867924528302 L -18.867924528301888,29.245283018867926 L -17.92452830188679,29.245283018867926 L -17.92452830188679,28.30188679245283 L -18.867924528301888,28.30188679245283 L -19.81132075471698,28.30188679245283 L -19.81132075471698,27.358490566037737 L -18.867924528301888,27.358490566037737 L -18.867924528301888,26.41509433962264 L -19.81132075471698,26.41509433962264 L -19.81132075471698,25.471698113207548 L -20.754716981132077,25.471698113207548 L -20.754716981132077,26.41509433962264 L -20.754716981132077,27.358490566037737 L -21.69811320754717,27.358490566037737 L -21.69811320754717,26.41509433962264 L -22.641509433962263,26.41509433962264 L -22.641509433962263,27.358490566037737 L -23.58490566037736,27.358490566037737 L -23.58490566037736,28.30188679245283 L -22.641509433962263,28.30188679245283 L -21.69811320754717,28.30188679245283 L -21.69811320754717,29.245283018867926 L -22.641509433962263,29.245283018867926 L -22.641509433962263,30.18867924528302 L -22.641509433962263,31.132075471698112 L -23.58490566037736,31.132075471698112 L -23.58490566037736,32.075471698113205 L -22.641509433962263,32.075471698113205 L -21.69811320754717,32.075471698113205 L -21.69811320754717,33.0188679245283 L -22.641509433962263,33.0188679245283 L -22.641509433962263,33.9622641509434 L -23.58490566037736,33.9622641509434 L -23.58490566037736,33.0188679245283 L -24.528301886792452,33.0188679245283 L -24.528301886792452,33.9622641509434 L -24.528301886792452,34.905660377358494 L -25.471698113207548,34.905660377358494 L -25.471698113207548,33.9622641509434 L -26.41509433962264,33.9622641509434 L -26.41509433962264,33.0188679245283 L -25.471698113207548,33.0188679245283 L -25.471698113207548,32.075471698113205 L -26.41509433962264,32.075471698113205 L -27.358490566037737,32.075471698113205 L -27.358490566037737,31.132075471698112 L -26.41509433962264,31.132075471698112 L -26.41509433962264,30.188679245283016 L -27.358490566037737,30.188679245283016 L -27.358490566037737,29.245283018867926 L -28.30188679245283,29.245283018867926 L -28.30188679245283,30.18867924528302 L -28.30188679245283,31.132075471698112 L -29.245283018867926,31.132075471698112 L -29.245283018867926,30.18867924528302 L -30.18867924528302,30.18867924528302 " />
    </g>
</svg>
