<?xml version="1.0" encoding="UTF-8"?>
<!DOCTYPE svg PUBLIC "-//W3C//DTD SVG 1.1//EN"
    "http://www.w3.org/Graphics/SVG/1.1/DTD/svg11.dtd">

<svg xmlns="http://www.w3.org/2000/svg" xmlns:xlink="http://www.w3.org/1999/xlink" version="1.1" width="470.99627223364485" height="500" viewBox="-56.51955266803738 -60.0 113.03910533607475 120.0">
    <g>
        <rect x="-56.51955266803738" y="-60.0" width="113.03910533607475" height="120.0" fill="#CBD4C2" />
        <path style="fill:none;stroke:#50514F;stroke-width:0.1px;stroke-linecap:square" d="M 47.09962722336448,-14.035087719298312 L 47.09962722336448,-15.78947368421059 L 45.58028440970757,-16.66666666666673 L 45.58028440970757,-14.912280701754451 L 44.06094159605066,-14.035087719298312 L 44.06094159605066,-15.78947368421059 L 44.06094159605066,-17.54385964912287 L 45.58028440970757,-18.42105263157901 L 45.58028440970757,-20.175438596491286 L 44.06094159605066,-21.052631578947427 L 42.541598782393756,-21.929824561403567 L 42.541598782393756,-20.175438596491286 L 44.06094159605066,-19.29824561403515 L 42.541598782393756,-18.42105263157901 L 41.02225596873685,-19.29824561403515 L 39.50291315507994,-18.42105263157901 L 39.50291315507994,-16.66666666666673 L 39.50291315507994,-14.912280701754451 L 41.02225596873685,-15.78947368421059 L 41.02225596873685,-17.54385964912287 L 42.541598782393756,-16.66666666666673 L 42.541598782393756,-14.912280701754451 L 41.02225596873685,-14.035087719298312 L 41.02225596873684,-12.280701754386033 L 42.541598782393756,-13.15789473684217 L 44.06094159605066,-12.28070175438603 L 42.541598782393756,-11.403508771929891 L 41.02225596873684,-10.526315789473752 L 39.50291315507994,-11.403508771929893 L 39.50291315507994,-13.157894736842172 L 37.98357034142303,-14.035087719298312 L 37.983570341423025,-12.280701754386033 L 36.46422752776612,-11.403508771929893 L 36.46422752776612,-13.157894736842172 L 36.46422752776612,-14.912280701754451 L 37.983570341423025,-15.789473684210593 L 37.983570341423025,-17.543859649122872 L 36.46422752776612,-18.421052631579013 L 36.46422752776612,-16.666666666666732 L 34.94488471410921,-15.789473684210593 L 34.94488471410921,-17.543859649122876 L 34.94488471410921,-19.298245614035153 L 36.46422752776612,-20.175438596491293 L 37.983570341423025,-19.298245614035153 L 39.50291315507994,-20.175438596491293 L 41.02225596873684,-21.052631578947434 L 39.50291315507994,-21.929824561403574 L 37.983570341423025,-21.052631578947434 L 37.983570341423025,-22.80701754385971 L 39.50291315507994,-23.68421052631585 L 39.50291315507994,-25.43859649122813 L 37.983570341423025,-26.31578947368427 L 37.983570341423025,-24.561403508771992 L 36.46422752776612,-23.68421052631585 L 36.46422752776612,-25.43859649122813 L 36.46422752776612,-27.19298245614041 L 37.983570341423025,-28.07017543859655 L 37.983570341423025,-29.824561403508827 L 36.46422752776612,-30.701754385964968 L 34.944884714109214,-31.578947368421105 L 34.94488471410921,-29.824561403508827 L 36.46422752776611,-28.947368421052687 L 34.94488471410921,-28.07017543859655 L 33.4255419004523,-28.947368421052687 L 33.4255419004523,-30.701754385964968 L 31.906199086795386,-31.578947368421105 L 30.386856273138473,-32.45614035087725 L 30.386856273138473,-30.701754385964968 L 31.906199086795386,-29.824561403508827 L 30.386856273138473,-28.947368421052687 L 28.867513459481568,-29.824561403508827 L 27.34817064582466,-28.947368421052687 L 27.34817064582466,-27.19298245614041 L 27.34817064582466,-25.43859649122813 L 28.867513459481568,-26.31578947368427 L 28.867513459481575,-28.07017543859655 L 30.38685627313848,-27.19298245614041 L 30.38685627313848,-25.43859649122813 L 31.906199086795386,-24.561403508771985 L 33.4255419004523,-25.438596491228125 L 31.906199086795393,-26.315789473684266 L 31.9061990867954,-28.07017543859655 L 33.4255419004523,-27.192982456140403 L 34.944884714109214,-26.315789473684262 L 34.944884714109214,-24.561403508771985 L 33.4255419004523,-23.684210526315844 L 33.4255419004523,-21.929824561403567 L 34.944884714109214,-22.807017543859704 L 36.46422752776612,-21.929824561403564 L 34.94488471410921,-21.052631578947423 L 33.4255419004523,-20.175438596491283 L 31.906199086795386,-21.052631578947423 L 31.906199086795386,-22.807017543859704 L 30.38685627313848,-23.684210526315844 L 28.867513459481575,-24.561403508771985 L 28.867513459481575,-22.807017543859704 L 30.38685627313848,-21.929824561403567 L 28.867513459481575,-21.052631578947427 L 27.348170645824663,-21.929824561403567 L 25.828827832167754,-21.052631578947427 L 25.828827832167754,-19.29824561403515 L 27.348170645824663,-20.175438596491286 L 28.867513459481575,-19.298245614035146 L 27.348170645824663,-18.421052631579006 L 25.828827832167754,-17.543859649122865 L 24.30948501851084,-18.42105263157901 L 22.790142204853932,-17.54385964912287 L 22.790142204853932,-15.789473684210588 L 22.790142204853932,-14.035087719298309 L 24.30948501851084,-14.912280701754447 L 24.309485018510845,-16.66666666666673 L 25.828827832167754,-15.789473684210584 L 25.828827832167754,-14.035087719298305 L 24.309485018510845,-13.157894736842168 L 24.309485018510845,-11.403508771929888 L 24.309485018510845,-9.649122807017608 L 25.828827832167754,-10.526315789473747 L 25.828827832167757,-12.280701754386026 L 27.348170645824666,-11.403508771929886 L 27.348170645824666,-9.649122807017605 L 28.867513459481575,-8.771929824561466 L 30.386856273138488,-9.649122807017603 L 31.9061990867954,-10.526315789473742 L 30.386856273138488,-11.403508771929884 L 28.867513459481575,-10.526315789473745 L 28.86751345948158,-12.280701754386026 L 30.386856273138488,-13.157894736842165 L 30.38685627313849,-14.912280701754446 L 28.867513459481586,-15.789473684210584 L 28.867513459481586,-14.035087719298305 L 27.348170645824673,-13.157894736842168 L 27.348170645824677,-14.912280701754447 L 27.34817064582468,-16.66666666666673 L 28.867513459481586,-17.543859649122865 L 30.3868562731385,-16.666666666666725 L 31.90619908679541,-17.54385964912286 L 30.3868562731385,-18.421052631579006 L 30.3868562731385,-20.175438596491283 L 31.90619908679541,-19.298245614035142 L 33.425541900452316,-18.421052631579002 L 33.425541900452316,-16.666666666666725 L 31.90619908679541,-15.789473684210584 L 31.90619908679541,-14.035087719298305 L 31.90619908679541,-12.280701754386024 L 33.425541900452316,-13.157894736842163 L 33.425541900452316,-14.912280701754442 L 34.94488471410922,-14.035087719298302 L 34.94488471410922,-12.280701754386023 L 33.425541900452316,-11.403508771929882 L 33.42554190045231,-9.649122807017603 L 34.94488471410922,-10.526315789473742 L 36.46422752776613,-9.649122807017601 L 34.94488471410922,-8.771929824561463 L 33.42554190045231,-7.894736842105323 L 31.906199086795404,-8.771929824561463 L 30.3868562731385,-7.894736842105325 L 30.3868562731385,-6.140350877193044 L 30.3868562731385,-4.385964912280766 L 31.906199086795404,-5.263157894736904 L 31.90619908679541,-7.017543859649184 L 33.425541900452316,-6.140350877193043 L 33.42554190045231,-4.3859649122807625 L 34.94488471410922,-3.5087719298246216 L 36.46422752776613,-4.38596491228076 L 37.98357034142304,-5.2631578947368975 L 36.464227527766134,-6.140350877193038 L 34.94488471410922,-5.2631578947369 L 34.94488471410922,-7.017543859649181 L 36.464227527766134,-7.894736842105319 L 37.98357034142304,-7.0175438596491775 L 39.50291315507995,-7.894736842105317 L 37.98357034142304,-8.771929824561457 L 37.98357034142305,-10.526315789473738 L 39.50291315507995,-9.649122807017596 L 41.022255968736864,-8.771929824561456 L 41.022255968736864,-7.017543859649176 L 39.50291315507995,-6.140350877193037 L 39.50291315507995,-4.385964912280756 L 41.022255968736864,-5.263157894736894 L 42.54159878239377,-4.385964912280754 L 41.02225596873686,-3.5087719298246136 L 39.50291315507995,-2.6315789473684745 L 37.98357034142304,-3.5087719298246136 L 36.46422752776613,-2.6315789473684745 L 36.46422752776613,-0.8771929824561955 L 37.98357034142304,-1.7543859649123335 L 39.50291315507995,-0.8771929824561924 L 37.98357034142304,-5.297906363123548e-14 L 36.46422752776613,0.8771929824560865 L 34.944884714109214,-5.297906363123548e-14 L 34.944884714109214,-1.754385964912332 L 33.42554190045231,-2.6315789473684714 L 31.9061990867954,-3.5087719298246105 L 31.9061990867954,-1.754385964912332 L 33.4255419004523,-0.8771929824561908 L 31.9061990867954,-5.297906363123548e-14 L 30.386856273138488,-0.8771929824561924 L 30.386856273138488,-2.6315789473684714 L 28.86751345948158,-3.5087719298246105 L 28.86751345948158,-1.754385964912332 L 27.34817064582467,-0.8771929824561924 L 27.34817064582467,-2.6315789473684714 L 27.34817064582467,-4.38596491228075 L 28.86751345948158,-5.2631578947368896 L 28.86751345948158,-7.017543859649169 L 27.34817064582467,-7.894736842105308 L 25.82882783216776,-8.771929824561449 L 25.82882783216776,-7.017543859649169 L 27.34817064582467,-6.140350877193027 L 25.82882783216776,-5.263157894736888 L 24.309485018510852,-6.140350877193029 L 22.790142204853943,-5.2631578947368896 L 22.790142204853943,-3.5087719298246105 L 22.790142204853943,-1.754385964912332 L 24.309485018510852,-2.6315789473684696 L 24.309485018510856,-4.38596491228075 L 25.828827832167764,-3.508771929824609 L 25.828827832167764,-1.7543859649123288 L 24.309485018510856,-0.8771929824561893 L 24.309485018510856,0.8771929824560896 L 25.828827832167764,-4.986264812351575e-14 L 27.348170645824673,0.8771929824560896 L 25.828827832167764,1.7543859649122289 L 24.309485018510856,2.6315789473683684 L 22.790142204853947,1.7543859649122289 L 22.790142204853947,-4.986264812351575e-14 L 21.270799391197038,-0.8771929824561893 L 21.270799391197038,0.8771929824560896 L 19.75145657754013,1.7543859649122289 L 19.75145657754013,-4.986264812351575e-14 L 19.75145657754013,-1.7543859649123288 L 21.270799391197038,-2.6315789473684683 L 21.270799391197038,-4.385964912280747 L 19.75145657754013,-5.263157894736886 L 19.75145657754013,-3.5087719298246074 L 18.232113763883216,-2.6315789473684683 L 18.232113763883216,-4.385964912280747 L 18.232113763883216,-6.1403508771930255 L 19.75145657754013,-7.017543859649165 L 21.270799391197038,-6.1403508771930255 L 22.790142204853947,-7.017543859649165 L 24.309485018510856,-7.894736842105305 L 22.790142204853947,-8.771929824561443 L 21.270799391197038,-7.894736842105305 L 21.270799391197038,-9.649122807017585 L 22.790142204853947,-10.526315789473724 L 22.790142204853947,-12.280701754386005 L 21.270799391197038,-13.157894736842144 L 21.270799391197038,-11.403508771929866 L 19.75145657754013,-10.526315789473726 L 19.75145657754013,-12.280701754386005 L 19.75145657754013,-14.035087719298287 L 21.270799391197038,-14.912280701754426 L 21.270799391197038,-16.666666666666703 L 19.75145657754013,-17.543859649122844 L 18.232113763883216,-18.421052631578984 L 18.232113763883216,-16.666666666666703 L 19.75145657754013,-15.789473684210565 L 18.232113763883216,-14.912280701754426 L 16.71277095022631,-15.789473684210565 L 15.193428136569405,-14.912280701754426 L 15.193428136569405,-13.157894736842147 L 15.193428136569405,-11.403508771929868 L 16.712770950226318,-12.280701754386007 L 16.712770950226318,-14.035087719298287 L 18.232113763883223,-13.157894736842144 L 18.232113763883223,-11.403508771929866 L 16.712770950226318,-10.526315789473726 L 16.712770950226318,-8.771929824561447 L 18.23211376388323,-9.649122807017585 L 19.75145657754014,-8.771929824561443 L 18.23211376388323,-7.894736842105305 L 16.712770950226318,-7.017543859649165 L 15.19342813656941,-7.894736842105305 L 15.19342813656941,-9.649122807017585 L 13.674085322912505,-10.526315789473726 L 13.674085322912505,-8.771929824561445 L 12.154742509255593,-7.894736842105306 L 12.154742509255593,-9.649122807017587 L 12.154742509255593,-11.403508771929866 L 13.674085322912498,-12.280701754386005 L 13.674085322912498,-14.035087719298284 L 12.154742509255593,-14.912280701754426 L 12.154742509255593,-13.157894736842145 L 10.63539969559868,-12.280701754386007 L 10.63539969559868,-14.035087719298287 L 10.63539969559868,-15.789473684210565 L 12.154742509255586,-16.666666666666703 L 13.674085322912493,-15.789473684210565 L 15.193428136569398,-16.666666666666703 L 16.712770950226304,-17.543859649122844 L 15.193428136569398,-18.421052631578984 L 13.674085322912493,-17.543859649122847 L 13.674085322912493,-19.298245614035125 L 15.193428136569398,-20.175438596491265 L 16.712770950226304,-19.298245614035125 L 18.232113763883213,-20.175438596491265 L 16.712770950226304,-21.052631578947405 L 16.712770950226304,-22.807017543859686 L 18.232113763883213,-21.92982456140355 L 19.75145657754012,-21.05263157894741 L 19.75145657754012,-19.298245614035125 L 21.27079939119703,-18.421052631578988 L 22.79014220485394,-19.298245614035125 L 24.30948501851085,-20.175438596491265 L 22.79014220485394,-21.052631578947405 L 21.27079939119703,-20.175438596491265 L 21.27079939119703,-21.92982456140355 L 22.79014220485394,-22.807017543859686 L 24.30948501851085,-21.92982456140355 L 25.828827832167757,-22.807017543859686 L 27.348170645824666,-23.684210526315827 L 25.828827832167757,-24.561403508771967 L 24.30948501851085,-23.684210526315827 L 24.30948501851085,-25.438596491228104 L 25.828827832167757,-26.315789473684244 L 25.828827832167757,-28.070175438596525 L 24.30948501851085,-28.947368421052662 L 22.79014220485394,-29.824561403508802 L 22.79014220485394,-28.070175438596525 L 24.30948501851085,-27.192982456140385 L 22.79014220485394,-26.315789473684244 L 21.27079939119703,-27.192982456140385 L 19.75145657754012,-26.315789473684244 L 19.75145657754012,-24.561403508771967 L 21.27079939119703,-25.438596491228104 L 22.79014220485394,-24.561403508771964 L 21.27079939119703,-23.684210526315823 L 19.75145657754012,-22.807017543859683 L 18.232113763883213,-23.684210526315823 L 18.232113763883213,-25.438596491228104 L 16.712770950226304,-26.31578947368424 L 16.712770950226304,-24.561403508771964 L 15.193428136569393,-23.684210526315823 L 15.193428136569393,-25.438596491228104 L 15.193428136569393,-27.19298245614038 L 16.7127709502263,-28.070175438596525 L 18.232113763883206,-27.19298245614038 L 19.751456577540115,-28.070175438596525 L 21.270799391197023,-28.947368421052662 L 19.751456577540115,-29.824561403508802 L 18.232113763883206,-28.947368421052662 L 18.232113763883206,-30.701754385964943 L 19.751456577540115,-31.57894736842108 L 19.751456577540115,-33.33333333333336 L 18.232113763883206,-34.2105263157895 L 18.232113763883206,-32.45614035087722 L 16.712770950226293,-31.57894736842108 L 16.712770950226293,-33.33333333333336 L 16.712770950226293,-35.08771929824564 L 18.2321137638832,-35.96491228070178 L 18.2321137638832,-37.719298245614056 L 16.712770950226293,-38.5964912280702 L 15.193428136569386,-39.473684210526336 L 15.193428136569386,-37.719298245614056 L 16.712770950226293,-36.84210526315791 L 15.19342813656938,-35.964912280701775 L 13.674085322912473,-36.84210526315791 L 12.154742509255568,-35.964912280701775 L 12.154742509255568,-34.210526315789494 L 12.154742509255568,-32.45614035087721 L 13.67408532291248,-33.33333333333336 L 13.67408532291248,-35.08771929824563 L 15.193428136569386,-34.210526315789494 L 15.193428136569386,-32.45614035087721 L 13.67408532291248,-31.578947368421076 L 13.67408532291248,-29.824561403508795 L 15.193428136569393,-30.701754385964936 L 16.7127709502263,-29.824561403508795 L 15.193428136569393,-28.94736842105266 L 13.67408532291248,-28.070175438596518 L 12.154742509255573,-28.94736842105266 L 12.154742509255573,-30.701754385964936 L 10.635399695598668,-31.578947368421076 L 10.635399695598668,-29.824561403508795 L 9.116056881941756,-28.94736842105266 L 9.116056881941756,-30.701754385964936 L 9.116056881941756,-32.45614035087721 L 10.635399695598661,-33.33333333333336 L 10.635399695598661,-35.08771929824563 L 9.116056881941756,-35.964912280701775 L 9.116056881941756,-34.210526315789494 L 7.596714068284843,-33.33333333333336 L 7.596714068284843,-35.08771929824563 L 7.596714068284843,-36.84210526315791 L 9.116056881941748,-37.71929824561405 L 10.635399695598656,-36.84210526315791 L 12.154742509255561,-37.71929824561405 L 13.674085322912468,-38.59649122807019 L 12.154742509255561,-39.47368421052633 L 10.635399695598656,-38.59649122807019 L 10.635399695598656,-40.350877192982466 L 12.154742509255561,-41.22807017543861 L 12.154742509255561,-42.98245614035089 L 10.635399695598656,-43.85964912280703 L 10.635399695598656,-42.10526315789475 L 9.116056881941743,-41.22807017543861 L 9.116056881941743,-42.98245614035089 L 9.116056881941743,-44.736842105263165 L 10.635399695598649,-45.61403508771931 L 10.635399695598649,-47.36842105263158 L 9.116056881941743,-48.245614035087726 L 7.596714068284837,-49.12280701754386 L 7.596714068284837,-47.36842105263158 L 9.116056881941743,-46.491228070175445 L 7.596714068284831,-45.61403508771931 L 6.077371254627924,-46.491228070175445 L 6.077371254627924,-48.245614035087726 L 4.558028440971018,-49.12280701754386 L 3.038685627314112,-50.0 L 3.038685627314112,-48.245614035087726 L 4.558028440971018,-47.36842105263158 L 3.0386856273141056,-46.491228070175445 L 1.5193428136571991,-47.36842105263158 L 2.9294305772565503e-13,-46.491228070175445 L 2.9294305772565503e-13,-44.736842105263165 L 2.9294305772565503e-13,-42.98245614035089 L 1.5193428136572054,-43.85964912280703 L 1.5193428136572054,-45.61403508771931 L 3.038685627314112,-44.736842105263165 L 3.038685627314112,-42.98245614035089 L 4.558028440971018,-42.10526315789475 L 6.077371254627931,-42.98245614035089 L 4.558028440971024,-43.85964912280703 L 4.558028440971024,-45.61403508771931 L 6.077371254627931,-44.736842105263165 L 7.596714068284837,-43.85964912280703 L 7.596714068284837,-42.10526315789475 L 6.077371254627931,-41.22807017543861 L 6.077371254627931,-39.47368421052633 L 7.596714068284843,-40.350877192982466 L 9.116056881941748,-39.47368421052633 L 7.596714068284843,-38.59649122807019 L 6.077371254627931,-37.71929824561405 L 4.558028440971024,-38.59649122807019 L 4.558028440971024,-40.350877192982466 L 3.038685627314118,-41.22807017543861 L 1.5193428136572116,-42.10526315789475 L 1.5193428136572116,-40.350877192982466 L 3.038685627314118,-39.47368421052633 L 1.5193428136572054,-38.59649122807019 L 2.991758887410945e-13,-39.47368421052633 L 2.991758887410945e-13,-41.22807017543861 L -1.5193428136566072,-42.10526315789475 L -1.5193428136566072,-40.350877192982466 L -3.0386856273135194,-39.47368421052633 L -3.0386856273135194,-41.22807017543861 L -3.0386856273135194,-42.98245614035089 L -1.5193428136566134,-43.85964912280703 L -1.5193428136566134,-45.61403508771931 L -3.0386856273135194,-46.491228070175445 L -4.558028440970426,-47.36842105263158 L -4.558028440970426,-45.61403508771931 L -3.0386856273135194,-44.736842105263165 L -4.558028440970432,-43.85964912280703 L -6.077371254627338,-44.736842105263165 L -6.077371254627338,-46.491228070175445 L -7.5967140682842444,-47.36842105263158 L -9.116056881941157,-48.245614035087726 L -9.116056881941157,-46.491228070175445 L -7.596714068284251,-45.61403508771931 L -9.116056881941157,-44.736842105263165 L -10.63539969559807,-45.61403508771931 L -12.154742509254982,-44.736842105263165 L -12.154742509254982,-42.98245614035089 L -12.154742509254982,-41.22807017543861 L -10.63539969559807,-42.10526315789475 L -10.63539969559807,-43.85964912280703 L -9.116056881941157,-42.98245614035089 L -9.116056881941157,-41.22807017543861 L -7.596714068284251,-40.350877192982466 L -6.077371254627338,-41.22807017543861 L -7.5967140682842444,-42.105263157894754 L -7.5967140682842444,-43.859649122807035 L -6.077371254627338,-42.98245614035089 L -4.558028440970432,-42.105263157894754 L -4.558028440970432,-40.35087719298247 L -6.077371254627344,-39.473684210526336 L -6.077371254627344,-37.719298245614056 L -4.558028440970432,-38.5964912280702 L -3.0386856273135257,-37.719298245614056 L -4.558028440970432,-36.84210526315792 L -6.077371254627344,-35.96491228070178 L -7.596714068284251,-36.84210526315792 L -7.596714068284251,-38.5964912280702 L -9.116056881941157,-39.473684210526336 L -10.63539969559807,-40.35087719298247 L -10.63539969559807,-38.5964912280702 L -9.116056881941157,-37.719298245614056 L -10.63539969559807,-36.84210526315792 L -12.154742509254982,-37.719298245614056 L -13.674085322911894,-36.84210526315792 L -13.674085322911894,-35.08771929824564 L -12.154742509254982,-35.96491228070178 L -10.63539969559807,-35.08771929824564 L -12.154742509254982,-34.2105263157895 L -13.674085322911894,-33.33333333333336 L -15.193428136568807,-34.2105263157895 L -16.71277095022572,-33.33333333333336 L -16.71277095022572,-31.57894736842108 L -16.71277095022572,-29.824561403508802 L -15.193428136568807,-30.701754385964943 L -15.193428136568807,-32.45614035087722 L -13.674085322911894,-31.57894736842108 L -13.674085322911894,-29.824561403508802 L -15.193428136568807,-28.947368421052662 L -15.193428136568807,-27.192982456140385 L -15.193428136568807,-25.438596491228104 L -13.674085322911894,-26.315789473684244 L -13.674085322911894,-28.070175438596525 L -12.154742509254982,-27.192982456140385 L -12.154742509254982,-25.438596491228104 L -10.63539969559807,-24.56140350877196 L -9.116056881941157,-25.4385964912281 L -7.5967140682842444,-26.315789473684237 L -9.116056881941157,-27.192982456140378 L -10.63539969559807,-26.315789473684237 L -10.63539969559807,-28.070175438596525 L -9.116056881941157,-28.947368421052662 L -9.116056881941157,-30.701754385964943 L -10.63539969559807,-31.57894736842108 L -10.63539969559807,-29.824561403508802 L -12.154742509254982,-28.947368421052662 L -12.154742509254982,-30.701754385964943 L -12.154742509254982,-32.45614035087722 L -10.63539969559807,-33.33333333333336 L -9.116056881941157,-32.45614035087722 L -7.5967140682842444,-33.33333333333336 L -9.116056881941157,-34.2105263157895 L -9.116056881941157,-35.96491228070178 L -7.596714068284251,-35.08771929824564 L -6.077371254627344,-34.2105263157895 L -6.077371254627344,-32.45614035087722 L -7.596714068284257,-31.57894736842108 L -7.596714068284257,-29.824561403508802 L -7.596714068284257,-28.070175438596525 L -6.077371254627344,-28.947368421052662 L -6.077371254627344,-30.701754385964943 L -4.558028440970438,-29.824561403508802 L -4.558028440970438,-28.070175438596525 L -3.038685627313532,-27.192982456140385 L -1.5193428136566196,-28.070175438596525 L -3.0386856273135257,-28.947368421052662 L -3.0386856273135257,-30.701754385964943 L -1.5193428136566196,-29.824561403508802 L 2.867102267102156e-13,-28.947368421052662 L 2.867102267102156e-13,-27.192982456140385 L 1.519342813657193,-26.315789473684244 L 3.0386856273141056,-27.19298245614038 L 4.558028440971018,-28.070175438596518 L 3.038685627314112,-28.947368421052662 L 1.5193428136571991,-28.070175438596525 L 1.5193428136571991,-29.824561403508802 L 3.038685627314112,-30.701754385964943 L 3.038685627314112,-32.45614035087722 L 1.5193428136572054,-33.33333333333336 L 2.991758887410945e-13,-34.21052631578951 L 2.991758887410945e-13,-32.45614035087723 L 1.5193428136572054,-31.57894736842108 L 2.9294305772565503e-13,-30.701754385964946 L -1.5193428136566134,-31.578947368421094 L -1.5193428136566134,-33.33333333333337 L -3.0386856273135194,-34.210526315789515 L -3.0386856273135194,-32.456140350877234 L -4.558028440970432,-31.578947368421094 L -4.558028440970432,-33.33333333333337 L -4.558028440970432,-35.08771929824565 L -3.0386856273135194,-35.96491228070179 L -1.5193428136566134,-35.08771929824565 L 2.991758887410945e-13,-35.96491228070179 L -1.5193428136566072,-36.84210526315793 L -1.5193428136566072,-38.59649122807021 L 2.991758887410945e-13,-37.71929824561407 L 1.5193428136572054,-36.84210526315793 L 1.5193428136572054,-35.08771929824565 L 3.038685627314112,-34.210526315789515 L 4.558028440971024,-35.08771929824565 L 3.038685627314118,-35.96491228070179 L 3.038685627314118,-37.71929824561407 L 4.558028440971024,-36.84210526315793 L 6.077371254627931,-35.96491228070179 L 6.077371254627931,-34.210526315789515 L 4.558028440971018,-33.33333333333337 L 4.558028440971018,-31.578947368421094 L 4.558028440971018,-29.824561403508813 L 6.077371254627931,-30.701754385964954 L 6.077371254627931,-32.456140350877234 L 7.596714068284837,-31.578947368421094 L 7.596714068284837,-29.824561403508813 L 6.077371254627931,-28.947368421052676 L 6.077371254627931,-27.192982456140395 L 7.596714068284843,-28.070175438596536 L 9.116056881941748,-27.192982456140392 L 7.596714068284843,-26.315789473684255 L 6.077371254627931,-25.438596491228115 L 4.558028440971024,-26.315789473684255 L 3.038685627314118,-25.438596491228115 L 3.038685627314118,-23.684210526315837 L 3.038685627314118,-21.929824561403557 L 4.5580284409710305,-22.807017543859693 L 4.5580284409710305,-24.561403508771974 L 6.077371254627937,-23.684210526315834 L 6.077371254627937,-21.929824561403553 L 7.596714068284843,-21.052631578947416 L 9.116056881941756,-21.92982456140355 L 10.635399695598668,-22.807017543859686 L 9.116056881941761,-23.68421052631583 L 7.596714068284849,-22.807017543859693 L 7.596714068284849,-24.56140350877197 L 9.116056881941761,-25.43859649122811 L 10.635399695598668,-24.56140350877197 L 12.15474250925558,-25.438596491228104 L 10.635399695598673,-26.315789473684248 L 10.635399695598673,-28.070175438596525 L 12.15474250925558,-27.192982456140385 L 13.674085322912486,-26.315789473684244 L 13.674085322912486,-24.561403508771967 L 12.15474250925558,-23.684210526315827 L 12.15474250925558,-21.92982456140355 L 13.674085322912493,-22.807017543859686 L 15.193428136569398,-21.929824561403546 L 13.674085322912493,-21.052631578947405 L 12.15474250925558,-20.175438596491265 L 10.635399695598673,-21.052631578947405 L 9.116056881941768,-20.175438596491265 L 9.116056881941768,-18.421052631578988 L 10.63539969559868,-19.298245614035125 L 12.154742509255586,-18.421052631578984 L 10.63539969559868,-17.543859649122844 L 9.116056881941768,-16.666666666666703 L 7.596714068284862,-17.543859649122847 L 7.596714068284862,-19.298245614035125 L 6.0773712546279555,-20.175438596491265 L 4.558028440971049,-21.05263157894741 L 4.558028440971049,-19.298245614035125 L 6.0773712546279555,-18.421052631578988 L 4.558028440971043,-17.543859649122847 L 3.0386856273141367,-18.421052631578988 L 3.0386856273141367,-20.175438596491265 L 1.5193428136572305,-21.05263157894741 L 1.5193428136572305,-19.298245614035125 L 3.178743817874129e-13,-18.42105263157899 L 3.178743817874129e-13,-20.17543859649127 L 3.178743817874129e-13,-21.92982456140355 L 1.519342813657224,-22.807017543859686 L 1.519342813657224,-24.561403508771967 L 3.178743817874129e-13,-25.438596491228104 L -1.5193428136565883,-26.315789473684244 L -1.5193428136565883,-24.561403508771967 L 3.178743817874129e-13,-23.684210526315827 L -1.5193428136565945,-22.807017543859686 L -3.038685627313501,-23.684210526315827 L -3.038685627313501,-25.438596491228104 L -4.558028440970407,-26.315789473684244 L -6.077371254627313,-27.192982456140385 L -6.077371254627313,-25.438596491228104 L -4.558028440970407,-24.561403508771967 L -6.0773712546273195,-23.684210526315827 L -7.596714068284226,-24.561403508771967 L -9.116056881941132,-23.684210526315827 L -9.116056881941132,-21.92982456140355 L -9.116056881941132,-20.17543859649127 L -7.59671406828422,-21.05263157894741 L -7.59671406828422,-22.807017543859686 L -6.077371254627313,-21.92982456140355 L -6.077371254627313,-20.175438596491265 L -4.558028440970407,-19.298245614035125 L -3.0386856273134946,-20.17543859649126 L -4.558028440970401,-21.052631578947405 L -4.558028440970401,-22.807017543859686 L -3.0386856273134946,-21.929824561403546 L -1.5193428136565883,-21.052631578947402 L -1.5193428136565883,-19.298245614035125 L -3.0386856273134946,-18.421052631578984 L -3.0386856273134946,-16.666666666666703 L -1.519342813656582,-17.543859649122844 L 3.241072128028524e-13,-16.666666666666703 L -1.519342813656582,-15.789473684210565 L -3.0386856273134946,-14.912280701754426 L -4.558028440970401,-15.789473684210565 L -4.558028440970401,-17.543859649122844 L -6.077371254627307,-18.421052631578984 L -7.596714068284213,-19.298245614035125 L -7.596714068284213,-17.543859649122844 L -6.077371254627307,-16.666666666666703 L -7.59671406828422,-15.789473684210565 L -9.116056881941132,-16.666666666666703 L -10.635399695598045,-15.789473684210565 L -10.635399695598045,-14.035087719298287 L -9.116056881941132,-14.912280701754426 L -7.596714068284226,-14.035087719298284 L -9.116056881941132,-13.157894736842145 L -10.635399695598045,-12.280701754386007 L -12.154742509254957,-13.157894736842147 L -13.67408532291187,-12.280701754386008 L -13.67408532291187,-10.52631578947373 L -13.67408532291187,-8.771929824561449 L -12.154742509254957,-9.649122807017587 L -12.154742509254957,-11.403508771929866 L -10.635399695598045,-10.526315789473726 L -10.635399695598045,-8.771929824561447 L -9.116056881941132,-7.894736842105305 L -7.59671406828422,-8.771929824561443 L -6.077371254627307,-9.649122807017584 L -7.596714068284213,-10.526315789473724 L -9.11605688194112,-9.649122807017587 L -9.11605688194112,-11.403508771929866 L -7.596714068284207,-12.280701754386005 L -6.077371254627301,-11.403508771929864 L -4.558028440970388,-12.280701754386001 L -6.077371254627295,-13.157894736842144 L -6.077371254627295,-14.912280701754423 L -4.558028440970388,-14.03508771929828 L -3.038685627313482,-13.157894736842142 L -3.038685627313482,-11.403508771929863 L -4.558028440970395,-10.526315789473722 L -4.558028440970395,-8.771929824561443 L -3.038685627313482,-9.649122807017582 L -1.5193428136565759,-8.771929824561441 L -3.038685627313482,-7.894736842105302 L -4.558028440970395,-7.017543859649162 L -6.077371254627301,-7.894736842105302 L -7.596714068284207,-7.017543859649163 L -7.596714068284207,-5.263157894736883 L -6.077371254627295,-6.140350877193021 L -4.558028440970388,-5.26315789473688 L -6.077371254627295,-4.38596491228074 L -7.596714068284207,-3.508771929824601 L -9.11605688194112,-4.38596491228074 L -9.11605688194112,-6.140350877193019 L -10.635399695598032,-7.017543859649159 L -12.154742509254945,-7.894736842105298 L -12.154742509254945,-6.140350877193019 L -10.635399695598032,-5.263157894736879 L -12.154742509254945,-4.385964912280739 L -13.674085322911857,-5.26315789473688 L -15.19342813656877,-4.38596491228074 L -15.19342813656877,-2.6315789473684617 L -13.674085322911857,-3.5087719298246 L -12.154742509254945,-2.6315789473684585 L -13.674085322911857,-1.7543859649123192 L -15.19342813656877,-0.8771929824561799 L -16.712770950225682,-1.7543859649123192 L -18.232113763882595,-0.8771929824561799 L -18.232113763882595,0.8771929824560989 L -18.232113763882595,2.6315789473683777 L -16.712770950225682,1.7543859649122384 L -16.712770950225682,-4.051340160035655e-14 L -15.19342813656877,0.877192982456102 L -15.19342813656877,2.631578947368381 L -16.712770950225682,3.5087719298245204 L -16.712770950225682,5.263157894736799 L -16.712770950225682,7.017543859649078 L -15.19342813656877,6.1403508771929385 L -15.19342813656877,4.385964912280659 L -13.674085322911857,5.263157894736799 L -13.674085322911857,7.017543859649078 L -12.154742509254945,7.8947368421052175 L -10.635399695598032,7.017543859649078 L -9.11605688194112,6.1403508771929385 L -10.635399695598032,5.263157894736796 L -12.154742509254945,6.140350877192932 L -12.154742509254945,4.385964912280653 L -10.635399695598032,3.508771929824514 L -10.635399695598032,1.7543859649122353 L -12.154742509254945,0.8771929824560927 L -12.154742509254945,2.6315789473683715 L -13.674085322911857,3.508771929824508 L -13.674085322911857,1.7543859649122289 L -13.674085322911857,-4.986264812351575e-14 L -12.154742509254945,-0.8771929824561877 L -10.635399695598032,-4.674623261579602e-14 L -9.11605688194112,-0.8771929824561846 L -10.635399695598032,-1.7543859649123257 L -10.635399695598032,-3.5087719298246043 L -9.11605688194112,-2.6315789473684634 L -7.596714068284213,-1.7543859649123223 L -7.596714068284213,-4.362981710807628e-14 L -9.11605688194112,0.8771929824560958 L -9.11605688194112,2.6315789473683746 L -9.11605688194112,4.385964912280653 L -7.596714068284207,3.508771929824514 L -7.596714068284207,1.7543859649122353 L -6.077371254627301,2.6315789473683746 L -6.077371254627301,4.385964912280653 L -7.596714068284207,5.263157894736793 L -7.596714068284207,7.017543859649072 L -6.077371254627295,6.140350877192932 L -4.558028440970388,7.017543859649072 L -6.077371254627295,7.894736842105211 L -7.596714068284207,8.77192982456135 L -9.11605688194112,7.894736842105211 L -10.635399695598032,8.77192982456135 L -10.635399695598032,10.52631578947363 L -10.635399695598032,12.280701754385909 L -9.11605688194112,11.403508771929769 L -9.11605688194112,9.64912280701749 L -7.596714068284213,10.52631578947363 L -7.596714068284213,12.280701754385909 L -9.11605688194112,13.157894736842048 L -9.11605688194112,14.912280701754327 L -9.11605688194112,16.666666666666604 L -7.596714068284207,15.789473684210465 L -7.596714068284207,14.035087719298186 L -6.077371254627301,14.912280701754327 L -6.077371254627301,16.666666666666604 L -4.558028440970395,17.543859649122744 L -3.038685627313482,16.666666666666604 L -1.5193428136565696,15.789473684210465 L -3.038685627313476,14.912280701754327 L -4.558028440970388,15.789473684210465 L -4.558028440970388,14.035087719298186 L -3.038685627313476,13.157894736842048 L -3.038685627313476,11.403508771929769 L -4.558028440970382,10.526315789473626 L -4.558028440970382,12.280701754385905 L -6.077371254627295,13.15789473684204 L -6.077371254627295,11.403508771929763 L -6.077371254627295,9.649122807017484 L -4.558028440970382,8.771929824561344 L -3.038685627313476,9.649122807017484 L -1.5193428136565634,8.771929824561344 L -3.0386856273134697,7.8947368421052015 L -3.0386856273134697,6.1403508771929225 L -1.5193428136565634,7.017543859649066 L 3.428057058491708e-13,7.894736842105205 L 3.428057058491708e-13,9.649122807017484 L -1.5193428136565696,10.526315789473623 L -1.5193428136565696,12.280701754385902 L -1.5193428136565696,14.03508771929818 L 3.428057058491708e-13,13.15789473684204 L 3.428057058491708e-13,11.403508771929763 L 1.519342813657249,12.280701754385902 L 1.519342813657249,14.03508771929818 L 3.0386856273141554,14.91228070175432 L 4.558028440971068,14.03508771929818 L 3.0386856273141616,13.157894736842039 L 3.0386856273141616,11.40350877192976 L 4.558028440971068,12.280701754385902 L 6.077371254627974,13.15789473684204 L 6.077371254627974,14.91228070175432 L 7.59671406828488,15.78947368421046 L 9.116056881941793,14.91228070175432 L 10.635399695598705,14.03508771929818 L 9.116056881941798,13.157894736842039 L 7.596714068284887,14.035087719298174 L 7.596714068284887,12.280701754385897 L 9.116056881941798,11.403508771929756 L 10.635399695598705,12.280701754385897 L 12.154742509255618,11.403508771929756 L 13.67408532291253,10.526315789473617 L 12.154742509255623,9.649122807017473 L 10.63539969559871,10.52631578947361 L 10.63539969559871,8.771929824561331 L 12.154742509255623,7.894736842105193 L 12.154742509255623,6.140350877192914 L 10.635399695598718,5.263157894736771 L 9.11605688194181,4.385964912280628 L 9.11605688194181,6.140350877192907 L 10.635399695598718,7.01754385964905 L 9.116056881941805,7.8947368421051864 L 7.596714068284899,7.017543859649043 L 6.0773712546279866,7.89473684210518 L 6.0773712546279866,9.64912280701746 L 7.596714068284899,8.771929824561322 L 9.116056881941805,9.649122807017465 L 7.596714068284893,10.526315789473601 L 6.07737125462798,11.403508771929738 L 4.558028440971074,10.526315789473594 L 4.558028440971074,8.771929824561317 L 3.038685627314168,7.894736842105174 L 3.0386856273141616,9.649122807017452 L 1.519342813657249,10.526315789473589 L 1.519342813657249,8.77192982456131 L 1.519342813657249,7.017543859649031 L 3.0386856273141616,6.140350877192895 L 4.558028440971068,7.017543859649037 L 6.07737125462798,6.140350877192901 L 7.596714068284893,5.263157894736765 L 6.0773712546279866,4.385964912280622 L 4.558028440971074,5.263157894736759 L 4.558028440971074,3.50877192982448 L 6.0773712546279866,2.6315789473683435 L 6.0773712546279866,0.8771929824560646 L 4.55802844097108,-7.791038769299336e-14 L 4.558028440971074,1.754385964912201 L 3.0386856273141616,2.6315789473683373 L 3.0386856273141616,0.8771929824560584 L 3.0386856273141616,-0.8771929824562205 L 4.558028440971074,-1.7543859649123583 L 4.558028440971074,-3.5087719298246385 L 3.038685627314168,-4.385964912280781 L 1.5193428136572615,-5.263157894736923 L 1.5193428136572553,-3.5087719298246447 L 3.0386856273141616,-2.6315789473685025 L 1.519342813657249,-1.754385964912366 L 3.428057058491708e-13,-2.6315789473685087 L -1.5193428136565696,-1.7543859649123723 L -1.5193428136565759,-9.349246523159204e-14 L -1.519342813656582,1.7543859649121853 L 3.3034004381829184e-13,0.877192982456049 L 3.365728748337313e-13,-0.8771929824562298 L 1.5193428136572429,-8.725963421615256e-14 L 1.5193428136572367,1.7543859649121916 L 3.241072128028524e-13,2.631578947368328 L 3.178743817874129e-13,4.385964912280607 L 1.5193428136572305,3.5087719298244706 L 3.0386856273141367,4.385964912280613 L 1.519342813657224,5.263157894736749 L 3.1164155077197343e-13,6.140350877192885 L -1.5193428136565945,5.263157894736743 L -1.5193428136565945,3.508771929824464 L -3.038685627313501,2.6315789473683218 L -3.038685627313507,4.385964912280601 L -4.5580284409704195,5.263157894736737 L -4.5580284409704195,3.5087719298244577 L -4.5580284409704195,1.7543859649121791 L -3.038685627313507,0.8771929824560428 L -3.038685627313507,-0.877192982456236 L -4.558028440970413,-1.7543859649123785 L -4.5580284409704195,-9.97252962470315e-14 L -6.077371254627332,0.8771929824560366 L -6.077371254627332,-0.8771929824562422 L -6.077371254627332,-2.631578947368521 L -4.5580284409704195,-3.508771929824659 L -3.038685627313513,-2.6315789473685163 L -1.5193428136566007,-3.5087719298246545 L 3.1164155077197343e-13,-4.385964912280792 L -1.5193428136565945,-5.263157894736935 L -3.038685627313507,-4.385964912280798 L -3.038685627313507,-6.140350877193079 L -1.5193428136565945,-7.017543859649217 L 3.1164155077197343e-13,-6.140350877193074 L 1.519342813657224,-7.017543859649212 L 3.178743817874129e-13,-7.894736842105354 L 3.178743817874129e-13,-9.649122807017635 L 1.519342813657224,-8.771929824561493 L 3.0386856273141305,-7.89473684210535 L 3.0386856273141305,-6.140350877193069 L 4.558028440971037,-5.263157894736927 L 6.077371254627949,-6.140350877193065 L 7.596714068284862,-7.017543859649202 L 6.0773712546279555,-7.894736842105345 L 4.558028440971043,-7.017543859649209 L 4.558028440971043,-8.771929824561488 L 6.0773712546279555,-9.649122807017626 L 6.0773712546279555,-11.403508771929905 L 4.558028440971049,-12.28070175438605 L 3.038685627314143,-13.157894736842191 L 3.0386856273141367,-11.40350877192991 L 4.558028440971043,-10.526315789473767 L 3.0386856273141305,-9.64912280701763 L 1.519342813657224,-10.526315789473772 L 1.519342813657224,-12.280701754386053 L 3.178743817874129e-13,-13.157894736842195 L 3.1164155077197343e-13,-11.403508771929916 L -1.5193428136566007,-10.526315789473779 L -1.5193428136566007,-12.280701754386058 L -1.5193428136566007,-14.035087719298337 L 3.1164155077197343e-13,-14.912280701754476 L 1.5193428136572178,-14.035087719298334 L 3.0386856273141305,-14.912280701754472 L 1.519342813657224,-15.789473684210616 L 1.519342813657224,-17.543859649122894 L 3.0386856273141305,-16.666666666666753 L 4.558028440971037,-15.78947368421061 L 4.558028440971037,-14.03508771929833 L 6.077371254627943,-13.157894736842188 L 7.5967140682848555,-14.035087719298325 L 6.077371254627949,-14.91228070175447 L 6.077371254627949,-16.66666666666675 L 7.5967140682848555,-15.789473684210606 L 9.116056881941761,-14.912280701754463 L 9.116056881941761,-13.157894736842184 L 7.596714068284849,-12.280701754386046 L 7.596714068284849,-10.526315789473767 L 7.596714068284849,-8.771929824561486 L 9.116056881941761,-9.649122807017624 L 9.116056881941761,-11.403508771929904 L 10.635399695598668,-10.526315789473761 L 10.635399695598668,-8.77192982456148 L 9.116056881941756,-7.894736842105344 L 9.116056881941756,-6.140350877193063 L 10.635399695598668,-7.017543859649201 L 12.154742509255573,-6.140350877193058 L 10.635399695598661,-5.263157894736921 L 9.116056881941748,-4.385964912280783 L 7.596714068284843,-5.263157894736923 L 6.077371254627931,-4.3859649122807856 L 6.077371254627931,-2.6315789473685056 L 6.077371254627931,-0.8771929824562251 L 7.596714068284843,-1.754385964912363 L 7.596714068284849,-3.5087719298246434 L 9.116056881941756,-2.6315789473685007 L 9.116056881941756,-0.8771929824562205 L 7.596714068284843,-8.258501095457296e-14 L 7.596714068284843,1.7543859649121978 L 7.596714068284843,3.50877192982448 L 9.116056881941756,2.6315789473683435 L 9.116056881941761,0.8771929824560615 L 10.635399695598668,1.754385964912204 L 10.635399695598668,3.508771929824486 L 12.15474250925558,4.385964912280628 L 13.674085322912493,3.5087719298244893 L 15.193428136569405,2.6315789473683497 L 13.674085322912498,1.754385964912204 L 12.154742509255586,2.6315789473683404 L 12.154742509255593,0.8771929824560584 L 13.674085322912505,-8.10268032007131e-14 L 13.67408532291251,-1.754385964912363 L 12.154742509255605,-2.631578947368507 L 12.154742509255598,-0.8771929824562251 L 10.635399695598686,-8.725963421615256e-14 L 10.635399695598693,-1.7543859649123692 L 10.635399695598698,-3.5087719298246514 L 12.15474250925561,-4.385964912280789 L 13.674085322912523,-3.5087719298246447 L 15.193428136569436,-4.385964912280783 L 13.674085322912523,-5.263157894736927 L 13.67408532291253,-7.017543859649209 L 15.193428136569443,-6.140350877193065 L 16.712770950226354,-5.263157894736921 L 16.712770950226354,-3.5087719298246385 L 15.193428136569443,-2.6315789473684994 L 15.193428136569443,-0.8771929824562174 L 15.193428136569443,0.8771929824560646 L 16.712770950226354,-7.479397218527362e-14 L 16.71277095022636,-1.7543859649123568 L 18.232113763883273,-0.8771929824562127 L 18.232113763883273,0.8771929824560708 L 16.71277095022636,1.7543859649122102 L 16.71277095022636,3.5087719298244924 L 18.232113763883273,2.631578947368353 L 19.751456577540182,3.5087719298244955 L 18.232113763883266,4.385964912280635 L 16.712770950226354,5.263157894736774 L 15.193428136569443,4.385964912280632 L 13.67408532291253,5.263157894736771 L 13.67408532291253,7.017543859649053 L 13.67408532291253,8.771929824561335 L 15.193428136569443,7.894736842105195 L 15.193428136569448,6.140350877192914 L 16.71277095022636,7.017543859649059 L 16.712770950226354,8.771929824561342 L 18.232113763883266,9.649122807017486 L 19.75145657754018,8.771929824561347 L 21.27079939119709,7.894736842105208 L 19.751456577540182,7.017543859649062 L 18.232113763883266,7.8947368421052015 L 18.232113763883273,6.140350877192916 L 19.75145657754019,5.263157894736778 L 21.2707993911971,6.1403508771929225 L 22.790142204854018,5.263157894736784 L 21.270799391197105,4.385964912280638 L 21.27079939119711,2.631578947368353 L 22.79014220485402,3.5087719298244986 L 24.309485018510934,4.385964912280644 L 24.30948501851093,6.140350877192929 L 22.790142204854014,7.017543859649068 L 22.79014220485401,8.771929824561354 L 24.309485018510927,7.894736842105214 L 25.82882783216784,8.77192982456136 L 24.309485018510923,9.6491228070175 L 22.790142204854007,10.526315789473639 L 21.270799391197095,9.649122807017493 L 19.75145657754018,10.526315789473632 L 19.75145657754018,12.280701754385918 L 21.27079939119709,11.403508771929777 L 22.790142204854003,12.280701754385923 L 21.27079939119709,13.157894736842064 L 19.751456577540175,14.035087719298206 L 18.232113763883262,13.15789473684206 L 18.232113763883262,11.403508771929776 L 16.71277095022635,10.52631578947363 L 15.193428136569436,9.649122807017484 L 15.19342813656943,11.403508771929769 L 16.712770950226343,12.280701754385914 L 15.19342813656943,13.157894736842055 L 13.674085322912518,12.280701754385909 L 12.154742509255605,13.157894736842048 L 12.154742509255598,14.912280701754332 L 13.674085322912518,14.035087719298193 L 15.19342813656943,14.912280701754339 L 13.674085322912518,15.789473684210478 L 12.154742509255605,16.666666666666618 L 10.635399695598693,15.789473684210472 L 9.11605688194178,16.66666666666661 L 9.116056881941773,18.421052631578895 L 9.116056881941768,20.175438596491183 L 10.635399695598686,19.298245614035043 L 10.635399695598693,17.54385964912276 L 12.154742509255605,18.421052631578902 L 12.154742509255598,20.175438596491187 L 10.63539969559868,21.052631578947327 L 10.635399695598673,22.80701754385961 L 10.635399695598668,24.561403508771896 L 12.154742509255586,23.68421052631576 L 12.154742509255593,21.92982456140347 L 13.674085322912505,22.80701754385962 L 13.674085322912498,24.561403508771903 L 15.19342813656941,25.43859649122805 L 16.71277095022633,24.56140350877191 L 18.23211376388325,23.68421052631577 L 16.712770950226336,22.807017543859626 L 15.193428136569418,23.684210526315763 L 15.193428136569423,21.92982456140348 L 16.712770950226343,21.052631578947338 L 16.71277095022635,19.298245614035054 L 15.193428136569436,18.42105263157891 L 15.19342813656943,20.175438596491194 L 13.67408532291251,21.052631578947334 L 13.674085322912518,19.29824561403505 L 13.674085322912523,17.543859649122762 L 15.193428136569443,16.666666666666625 L 16.712770950226354,17.54385964912277 L 18.232113763883273,16.66666666666663 L 16.71277095022636,15.789473684210485 L 16.712770950226368,14.035087719298199 L 18.23211376388328,14.912280701754344 L 19.751456577540193,15.78947368421049 L 19.75145657754019,17.543859649122776 L 18.232113763883273,18.421052631578917 L 18.232113763883266,20.1754385964912 L 18.232113763883262,21.929824561403485 L 19.75145657754018,21.052631578947345 L 19.75145657754018,19.29824561403506 L 21.27079939119709,20.175438596491208 L 21.27079939119709,21.929824561403493 L 22.790142204854003,22.807017543859637 L 24.309485018510916,21.929824561403496 L 22.790142204854003,21.052631578947352 L 22.790142204854007,19.298245614035068 L 24.30948501851092,20.17543859649121 L 25.828827832167832,21.05263157894736 L 25.82882783216783,22.807017543859644 L 27.34817064582474,23.684210526315788 L 28.86751345948166,22.80701754385965 L 30.386856273138573,21.92982456140351 L 28.86751345948166,21.052631578947366 L 27.348170645824744,21.929824561403503 L 27.348170645824748,20.17543859649122 L 28.86751345948166,19.29824561403508 L 30.386856273138573,20.175438596491226 L 31.906199086795493,19.298245614035086 L 33.42554190045241,18.421052631578945 L 31.9061990867955,17.5438596491228 L 30.386856273138587,18.42105263157894 L 30.386856273138587,16.666666666666654 L 31.9061990867955,15.789473684210515 L 31.906199086795503,14.03508771929823 L 30.38685627313859,13.157894736842085 L 28.86751345948168,12.28070175438594 L 28.867513459481675,14.035087719298224 L 30.386856273138587,14.91228070175437 L 28.867513459481675,15.78947368421051 L 27.34817064582476,14.912280701754364 L 25.828827832167843,15.789473684210503 L 25.828827832167836,17.543859649122787 L 27.348170645824755,16.66666666666665 L 28.867513459481668,17.543859649122794 L 27.348170645824748,18.421052631578934 L 25.82882783216783,19.298245614035075 L 24.309485018510916,18.421052631578927 L 24.30948501851092,16.666666666666643 L 22.790142204854007,15.789473684210497 L 22.790142204854003,17.543859649122783 L 21.270799391197087,18.42105263157892 L 21.27079939119709,16.666666666666636 L 21.27079939119709,14.912280701754351 L 22.790142204854007,14.035087719298211 L 24.30948501851092,14.912280701754357 L 25.828827832167836,14.035087719298218 L 27.34817064582475,13.15789473684208 L 25.82882783216784,12.280701754385934 L 24.309485018510923,13.157894736842072 L 24.309485018510927,11.403508771929788 L 25.828827832167843,10.526315789473648 L 27.348170645824755,11.403508771929793 L 28.867513459481675,10.526315789473655 L 27.34817064582476,9.649122807017509 L 27.348170645824762,7.894736842105224 L 28.867513459481675,8.771929824561369 L 30.386856273138587,9.649122807017514 L 30.386856273138587,11.4035087719298 L 31.9061990867955,12.280701754385946 L 33.42554190045241,11.403508771929806 L 34.94488471410933,10.526315789473667 L 33.425541900452416,9.649122807017521 L 31.9061990867955,10.52631578947366 L 31.9061990867955,8.771929824561376 L 33.425541900452416,7.894736842105236 L 33.42554190045242,6.140350877192951 L 31.90619908679551,5.263157894736805 L 30.386856273138598,4.385964912280659 L 30.38685627313859,6.140350877192945 L 31.906199086795503,7.017543859649093 L 30.386856273138587,7.894736842105233 L 28.867513459481675,7.017543859649084 L 28.867513459481675,5.263157894736799 L 27.348170645824766,4.385964912280653 L 27.34817064582476,6.1403508771929385 L 25.828827832167843,7.017543859649078 L 25.828827832167846,5.263157894736793 L 25.82882783216785,3.508771929824508 L 27.348170645824766,2.6315789473683684 L 28.867513459481675,3.508771929824514 L 30.38685627313859,2.6315789473683746 L 28.86751345948168,1.7543859649122289 L 28.867513459481685,-5.609547913895522e-14 L 30.386856273138598,0.8771929824560896 L 31.90619908679551,1.7543859649122353 L 31.906199086795503,3.5087719298245204 L 33.425541900452416,4.385964912280666 L 34.944884714109335,3.5087719298245266 L 33.42554190045242,2.631578947368381 L 33.42554190045242,0.8771929824560958 L 34.944884714109335,1.7543859649122415 L 36.46422752776625,2.631578947368387 L 36.46422752776625,4.385964912280672 L 34.944884714109335,5.263157894736811 L 34.94488471410933,7.017543859649097 L 34.94488471410932,8.771929824561381 L 36.46422752776624,7.894736842105242 L 36.46422752776625,6.140350877192957 L 37.98357034142316,7.017543859649103 L 37.98357034142316,8.771929824561388 L 36.46422752776624,9.649122807017527 L 36.46422752776623,11.403508771929813 L 37.98357034142315,10.526315789473673 L 39.502913155080066,11.403508771929818 L 37.983570341423146,12.280701754385959 L 36.46422752776623,13.157894736842097 L 34.94488471410932,12.280701754385952 L 33.4255419004524,13.157894736842092 L 33.4255419004524,14.912280701754376 L 33.4255419004524,16.66666666666666 L 34.944884714109314,15.789473684210522 L 34.94488471410932,14.035087719298238 L 36.46422752776623,14.912280701754382 L 36.464227527766226,16.666666666666668 L 37.98357034142314,17.543859649122812 L 39.50291315508006,16.666666666666675 L 41.02225596873697,15.789473684210535 L 39.50291315508006,14.912280701754389 L 37.983570341423146,15.789473684210527 L 37.983570341423146,14.035087719298243 L 39.502913155080066,13.157894736842104 L 41.02225596873698,14.03508771929825 L 42.5415987823939,13.15789473684211 L 41.022255968736985,12.28070175438596 L 41.02225596873699,10.526315789473673 L 42.541598782393905,11.403508771929818 L 44.06094159605082,12.280701754385964 L 44.06094159605081,14.03508771929825 L 42.5415987823939,14.912280701754389 L 42.54159878239389,16.666666666666675 L 44.06094159605081,15.789473684210535 L 45.58028440970772,16.66666666666668 L 44.0609415960508,17.54385964912282 L 42.54159878239388,18.42105263157896 L 41.02225596873697,17.543859649122812 L 39.50291315508006,18.421052631578952 L 39.50291315508005,20.175438596491237 L 41.02225596873697,19.2982456140351 L 42.54159878239388,20.175438596491244 L 41.022255968736964,21.052631578947384 L 39.50291315508005,21.92982456140352 L 37.98357034142314,21.052631578947377 L 37.98357034142314,19.298245614035093 L 36.464227527766226,18.421052631578945 L 34.944884714109314,17.5438596491228 L 34.94488471410931,19.298245614035086 L 36.46422752776622,20.175438596491233 L 34.9448847141093,21.05263157894737 L 33.42554190045239,20.175438596491226 L 31.906199086795468,21.052631578947366 L 31.90619908679546,22.80701754385965 L 33.42554190045238,21.92982456140351 L 34.9448847141093,22.807017543859654 L 33.42554190045238,23.684210526315795 L 31.90619908679546,24.561403508771935 L 30.386856273138548,23.684210526315788 L 28.86751345948163,24.561403508771928 L 28.867513459481625,26.315789473684212 L 28.867513459481625,28.0701754385965 L 30.38685627313854,27.19298245614036 L 30.386856273138548,25.438596491228076 L 31.90619908679546,26.31578947368422 L 31.906199086795453,28.070175438596504 L 33.425541900452366,28.94736842105265 L 34.944884714109286,28.07017543859651 L 36.4642275277662,27.19298245614037 L 34.944884714109286,26.315789473684227 L 33.42554190045237,27.192982456140367 L 33.42554190045237,25.43859649122808 L 34.94488471410929,24.561403508771942 L 36.464227527766205,25.438596491228086 L 37.983570341423125,24.561403508771946 L 36.46422752776621,23.684210526315802 L 36.46422752776621,21.929824561403517 L 37.983570341423125,22.80701754385966 L 39.50291315508004,23.68421052631581 L 39.50291315508004,25.438596491228093 L 37.98357034142312,26.315789473684234 L 37.98357034142311,28.070175438596518 L 39.50291315508003,27.192982456140378 L 41.02225596873694,28.070175438596525 L 39.50291315508002,28.947368421052662 L 37.98357034142311,29.824561403508802 L 36.4642275277662,28.94736842105266 L 34.94488471410928,29.824561403508795 L 34.94488471410927,31.57894736842108 L 36.46422752776619,30.701754385964943 L 37.9835703414231,31.578947368421087 L 36.464227527766184,32.45614035087723 L 34.94488471410927,33.333333333333364 L 33.42554190045235,32.45614035087722 L 33.42554190045236,30.701754385964936 L 31.90619908679545,29.82456140350879 L 30.386856273138537,28.947368421052644 L 30.38685627313853,30.70175438596493 L 31.906199086795443,31.578947368421076 L 30.386856273138523,32.45614035087721 L 28.86751345948161,31.57894736842107 L 28.86751345948161,29.824561403508785 L 27.348170645824702,28.947368421052637 L 27.3481706458247,30.70175438596492 L 25.82882783216778,31.578947368421062 L 25.828827832167782,29.824561403508778 L 25.828827832167786,28.070175438596493 L 27.348170645824702,27.192982456140353 L 27.348170645824705,25.43859649122807 L 25.828827832167793,24.56140350877192 L 24.30948501851088,23.684210526315777 L 24.309485018510877,25.43859649122806 L 25.82882783216779,26.31578947368421 L 24.309485018510873,27.192982456140346 L 22.79014220485396,26.3157894736842 L 22.790142204853964,24.561403508771917 L 21.270799391197052,23.68421052631577 L 19.75145657754014,22.807017543859626 L 19.751456577540136,24.56140350877191 L 21.27079939119705,25.438596491228054 L 19.75145657754013,26.315789473684195 L 18.232113763883216,25.43859649122805 L 16.7127709502263,26.315789473684188 L 16.712770950226293,28.070175438596475 L 16.712770950226286,29.82456140350876 L 18.232113763883206,28.94736842105262 L 18.232113763883213,27.192982456140335 L 19.751456577540125,28.07017543859648 L 19.75145657754012,29.824561403508763 L 21.270799391197034,30.70175438596491 L 22.790142204853954,29.82456140350877 L 21.27079939119704,28.947368421052627 L 21.27079939119704,27.192982456140342 L 22.790142204853954,28.070175438596486 L 24.309485018510866,28.94736842105263 L 24.309485018510866,30.701754385964918 L 22.79014220485395,31.578947368421055 L 22.790142204853947,33.33333333333334 L 24.309485018510866,32.4561403508772 L 25.82882783216778,33.33333333333335 L 24.309485018510863,34.21052631578949 L 22.790142204853943,35.087719298245624 L 21.27079939119703,34.21052631578948 L 21.270799391197034,32.4561403508772 L 19.75145657754012,31.57894736842105 L 18.232113763883206,30.701754385964904 L 18.2321137638832,32.45614035087719 L 19.75145657754011,33.333333333333336 L 18.23211376388319,34.21052631578947 L 16.71277095022628,33.33333333333333 L 16.71277095022628,31.578947368421044 L 15.193428136569368,30.701754385964897 L 15.193428136569361,32.456140350877185 L 13.674085322912443,33.33333333333332 L 13.674085322912443,31.578947368421037 L 13.674085322912443,29.824561403508753 L 15.193428136569361,28.947368421052612 L 15.193428136569368,27.192982456140328 L 13.674085322912456,26.315789473684184 L 12.154742509255543,25.438596491228036 L 12.154742509255536,27.19298245614032 L 13.674085322912449,28.07017543859647 L 12.15474250925553,28.947368421052605 L 10.635399695598618,28.07017543859646 L 9.116056881941699,28.9473684210526 L 9.116056881941693,30.701754385964886 L 9.116056881941686,32.45614035087717 L 10.635399695598606,31.57894736842103 L 10.635399695598611,29.824561403508746 L 12.154742509255524,30.701754385964893 L 12.154742509255518,32.45614035087718 L 10.635399695598599,33.333333333333314 L 10.635399695598593,35.0877192982456 L 12.154742509255511,34.210526315789465 L 13.674085322912424,35.08771929824561 L 12.154742509255506,35.964912280701746 L 10.635399695598586,36.84210526315788 L 9.116056881941674,35.96491228070174 L 9.116056881941681,34.21052631578946 L 7.5967140682847685,33.33333333333331 L 7.596714068284762,35.087719298245595 L 6.0773712546278436,35.96491228070173 L 6.0773712546278436,34.21052631578945 L 6.0773712546278436,32.45614035087716 L 7.596714068284762,31.578947368421026 L 7.5967140682847685,29.82456140350874 L 6.077371254627856,28.947368421052595 L 6.07737125462785,30.70175438596488 L 4.558028440970931,31.57894736842102 L 4.558028440970931,29.824561403508735 L 4.558028440970931,28.070175438596447 L 6.07737125462785,27.19298245614031 L 7.596714068284762,28.070175438596454 L 9.116056881941681,27.192982456140317 L 10.635399695598599,26.315789473684177 L 9.116056881941686,25.43859649122803 L 7.5967140682847685,26.31578947368417 L 7.5967140682847685,24.561403508771885 L 9.116056881941686,23.684210526315745 L 9.116056881941693,21.92982456140346 L 7.596714068284781,21.052631578947313 L 7.596714068284775,22.8070175438596 L 6.077371254627856,23.684210526315738 L 6.077371254627856,21.929824561403453 L 6.077371254627856,20.17543859649117 L 7.596714068284775,19.29824561403503 L 7.596714068284781,17.543859649122744 L 6.077371254627868,16.6666666666666 L 4.558028440970956,15.789473684210453 L 4.55802844097095,17.543859649122737 L 6.077371254627862,18.421052631578885 L 4.5580284409709435,19.298245614035025 L 3.0386856273140306,18.421052631578878 L 3.0386856273140306,16.666666666666593 L 1.519342813657118,15.789473684210448 L 2.0568342350950247e-13,14.912280701754302 L 1.99450592494063e-13,16.666666666666586 L 1.5193428136571119,17.543859649122734 L 1.9321776147862352e-13,18.42105263157887 L -1.5193428136567193,17.543859649122727 L -3.038685627313638,18.421052631578867 L -3.038685627313644,20.17543859649115 L -3.0386856273136504,21.929824561403436 L -1.5193428136567317,21.052631578947295 L -1.5193428136567255,19.29824561403501 L 1.8698493046318407e-13,20.175438596491155 L 1.807520994477446e-13,21.929824561403443 L 1.5193428136570932,22.807017543859587 L 3.038685627314012,21.929824561403446 L 1.5193428136570994,21.052631578947302 L 1.5193428136571057,19.298245614035018 L 3.038685627314018,20.175438596491162 L 4.558028440970931,21.05263157894731 L 4.558028440970925,22.807017543859594 L 3.0386856273140057,23.684210526315734 L 3.0386856273139995,25.43859649122802 L 4.558028440970919,24.56140350877188 L 6.07737125462783,25.438596491228026 L 4.5580284409709115,26.315789473684163 L 3.0386856273139933,27.192982456140303 L 1.5193428136570808,26.31578947368416 L 1.5193428136570808,24.56140350877187 L 1.6828643741686564e-13,23.684210526315727 L -1.5193428136567442,22.80701754385958 L -1.5193428136567504,24.561403508771868 L 1.620536064014262e-13,25.43859649122801 L -1.5193428136567566,26.315789473684152 L -3.038685627313669,25.438596491228004 L -4.558028440970588,26.315789473684145 L -4.5580284409705945,28.07017543859643 L -3.0386856273136753,27.192982456140292 L -1.5193428136567628,28.070175438596436 L -3.0386856273136815,28.947368421052577 L -4.558028440970601,29.824561403508714 L -6.077371254627513,28.94736842105257 L -7.596714068284432,29.82456140350871 L -7.596714068284438,31.578947368420994 L -7.596714068284444,33.33333333333328 L -6.077371254627526,32.45614035087714 L -6.077371254627519,30.701754385964854 L -4.558028440970607,31.578947368421 L -4.558028440970613,33.333333333333286 L -6.077371254627532,34.21052631578942 L -6.077371254627538,35.96491228070171 L -6.077371254627544,37.71929824561399 L -4.5580284409706255,36.842105263157855 L -4.558028440970619,35.08771929824557 L -3.0386856273137064,35.96491228070172 L -3.0386856273137126,37.719298245614 L -1.5193428136568004,38.59649122807015 L 1.1842378929334991e-13,37.719298245614006 L 1.519342813657037,36.84210526315787 L 1.2465662030878936e-13,35.964912280701725 L -1.5193428136567941,36.84210526315786 L -1.519342813656788,35.087719298245574 L 1.3088945132422884e-13,34.21052631578944 L 1.3712228233966832e-13,32.45614035087715 L -1.5193428136567753,31.578947368421005 L -1.5193428136567817,33.33333333333329 L -3.0386856273137,34.21052631578943 L -3.038685627313694,32.45614035087715 L -3.0386856273136877,30.70175438596486 L -1.519342813656769,29.82456140350872 L 1.433551133551078e-13,30.70175438596487 L 1.5193428136570621,29.824561403508728 L 1.4958794437054724e-13,28.94736842105258 L 1.5582077538598672e-13,27.192982456140296 L 1.5193428136570684,28.070175438596443 L 3.038685627313981,28.947368421052587 L 3.0386856273139746,30.701754385964872 L 1.519342813657056,31.578947368421012 L 1.5193428136570497,33.3333333333333 L 1.5193428136570433,35.08771929824558 L 3.038685627313962,34.210526315789444 L 3.0386856273139684,32.456140350877156 L 4.5580284409708804,33.33333333333331 L 4.558028440970874,35.08771929824559 L 3.038685627313956,35.964912280701725 L 3.0386856273139498,37.71929824561401 L 4.558028440970868,36.842105263157876 L 6.0773712546277805,37.71929824561402 L 4.558028440970862,38.59649122807016 L 3.0386856273139435,39.4736842105263 L 1.5193428136570308,38.59649122807015 L 1.1219095827791044e-13,39.473684210526294 L 1.0595812726247096e-13,41.228070175438575 L 9.97252962470315e-14,42.98245614035086 L 1.5193428136570184,42.105263157894726 L 1.5193428136570246,40.35087719298244 L 3.0386856273139373,41.22807017543858 L 3.038685627313931,42.98245614035088 L 4.558028440970843,43.85964912280703 L 6.077371254627762,42.98245614035089 L 7.5967140682846805,42.10526315789475 L 6.077371254627768,41.2280701754386 L 4.558028440970849,42.10526315789473 L 4.558028440970856,40.35087719298245 L 6.077371254627774,39.47368421052631 L 7.596714068284687,40.35087719298246 L 9.116056881941606,39.473684210526315 L 7.596714068284693,38.596491228070164 L 7.596714068284699,36.842105263157876 L 9.116056881941612,37.71929824561402 L 10.635399695598524,38.596491228070164 L 10.635399695598519,40.35087719298246 L 9.1160568819416,41.228070175438596 L 9.116056881941594,42.98245614035089 L 10.635399695598512,42.10526315789475 L 12.154742509255424,42.9824561403509 L 10.635399695598506,43.85964912280704 L 9.116056881941587,44.73684210526318 L 7.596714068284674,43.85964912280703 L 6.077371254627756,44.736842105263165 L 6.077371254627749,46.49122807017546 L 7.596714068284668,45.614035087719316 L 9.116056881941581,46.49122807017547 L 7.596714068284662,47.36842105263161 L 6.077371254627743,48.24561403508775 L 4.558028440970831,47.3684210526316 L 4.558028440970837,45.61403508771931 L 3.038685627313925,44.73684210526315 L 1.5193428136570122,43.859649122807 L 1.519342813657006,45.614035087719294 L 3.0386856273139187,46.491228070175445 L 1.5193428136569997,47.36842105263158 L 8.725963421615256e-14,46.49122807017543 L 9.349246523159204e-14,44.73684210526314 L -1.519342813656819,43.85964912280699 L -1.5193428136568252,45.61403508771928 L -3.038685627313744,46.49122807017542 L -3.0386856273137375,44.73684210526313 L -3.0386856273137313,42.982456140350834 L -1.5193428136568128,42.1052631578947 L -1.5193428136568066,40.35087719298241 L -3.038685627313719,39.47368421052626 L -4.558028440970632,38.596491228070114 L -4.558028440970638,40.35087719298241 L -3.038685627313725,41.22807017543856 L -4.558028440970644,42.1052631578947 L -6.077371254627557,41.228070175438546 L -7.596714068284475,42.10526315789468 L -7.596714068284482,43.85964912280698 L -7.596714068284488,45.614035087719266 L -6.077371254627569,44.73684210526313 L -6.077371254627563,42.982456140350834 L -4.55802844097065,43.85964912280699 L -4.558028440970657,45.61403508771928 L -6.077371254627575,46.49122807017542 L -6.0773712546275815,48.24561403508771 L -4.558028440970663,47.368421052631575 L -3.0386856273137504,48.245614035087726 L -4.558028440970669,49.12280701754386 L -6.077371254627588,50.0 L -7.5967140682845,49.12280701754385 L -7.596714068284494,47.36842105263156 L -9.116056881941406,46.49122807017541 L -9.116056881941406,48.2456140350877 L -10.63539969559833,49.12280701754384 L -10.63539969559833,47.36842105263155 L -10.63539969559833,45.61403508771926 L -9.116056881941406,44.736842105263115 L -9.116056881941406,42.98245614035083 L -10.635399695598318,42.105263157894676 L -10.635399695598318,43.859649122806964 L -12.154742509255243,44.7368421052631 L -12.154742509255243,42.98245614035081 L -12.154742509255243,41.228070175438525 L -10.635399695598318,40.35087719298238 L -9.116056881941406,41.228070175438525 L -7.596714068284488,40.35087719298239 L -6.077371254627569,39.47368421052625 L -7.596714068284482,38.5964912280701 L -9.116056881941406,39.473684210526244 L -9.116056881941406,37.71929824561395 L -7.596714068284488,36.84210526315781 L -7.596714068284482,35.08771929824552 L -9.116056881941393,34.21052631578937 L -9.116056881941393,35.96491228070167 L -10.635399695598318,36.842105263157805 L -10.635399695598318,35.08771929824552 L -10.635399695598318,33.33333333333322 L -9.116056881941393,32.456140350877085 L -9.116056881941393,30.701754385964794 L -10.635399695598306,29.824561403508646 L -12.154742509255218,28.947368421052502 L -12.154742509255218,30.701754385964794 L -10.635399695598306,31.578947368420945 L -12.15474250925523,32.456140350877085 L -13.674085322912143,31.578947368420938 L -15.193428136569068,32.45614035087708 L -15.193428136569068,34.210526315789366 L -15.193428136569068,35.96491228070166 L -13.674085322912143,35.08771929824552 L -13.674085322912143,33.33333333333323 L -12.15474250925523,34.21052631578938 L -12.15474250925523,35.964912280701675 L -13.674085322912156,36.84210526315781 L -13.674085322912156,38.5964912280701 L -12.15474250925523,37.71929824561396 L -10.635399695598318,38.596491228070114 L -12.154742509255243,39.47368421052626 L -13.674085322912168,40.350877192982395 L -15.19342813656908,39.473684210526244 L -15.19342813656908,37.71929824561395 L -16.712770950225995,36.842105263157805 L -16.712770950225995,38.5964912280701 L -18.232113763882918,39.47368421052624 L -18.232113763882918,37.71929824561394 L -18.232113763882918,35.964912280701654 L -16.712770950225995,35.08771929824552 L -16.712770950225995,33.33333333333322 L -18.232113763882907,32.45614035087708 L -18.232113763882907,34.210526315789366 L -19.75145657753983,35.08771929824551 L -19.75145657753983,33.333333333333215 L -19.75145657753983,31.578947368420927 L -18.232113763882907,30.701754385964787 L -16.712770950225995,31.57894736842093 L -15.193428136569068,30.701754385964794 L -13.674085322912143,29.824561403508653 L -15.193428136569056,28.947368421052506 L -16.71277095022598,29.824561403508646 L -16.71277095022598,28.070175438596355 L -15.193428136569056,27.192982456140214 L -13.674085322912143,28.07017543859636 L -12.154742509255218,27.19298245614022 L -13.67408532291213,26.315789473684077 L -13.67408532291213,24.561403508771786 L -12.154742509255218,25.43859649122793 L -10.635399695598306,26.315789473684077 L -10.635399695598306,28.07017543859637 L -9.116056881941393,28.947368421052513 L -7.596714068284475,28.070175438596372 L -6.077371254627557,27.192982456140236 L -7.596714068284469,26.315789473684088 L -9.116056881941393,27.19298245614023 L -9.116056881941393,25.438596491227937 L -7.596714068284475,24.561403508771797 L -6.077371254627557,25.438596491227944 L -4.558028440970638,24.561403508771804 L -3.038685627313719,23.684210526315663 L -4.558028440970632,22.80701754385952 L -6.0773712546275505,23.68421052631566 L -6.077371254627544,21.929824561403368 L -4.5580284409706255,21.052631578947228 L -4.558028440970619,19.298245614034936 L -6.077371254627532,18.42105263157879 L -7.596714068284444,17.543859649122645 L -7.5967140682844505,19.298245614034936 L -6.077371254627538,20.175438596491087 L -7.596714068284457,21.052631578947228 L -9.116056881941368,20.175438596491077 L -10.635399695598293,21.052631578947214 L -10.635399695598293,22.807017543859505 L -9.116056881941368,21.929824561403368 L -7.596714068284457,22.80701754385952 L -9.11605688194138,23.68421052631566 L -10.635399695598306,24.561403508771797 L -12.154742509255218,23.684210526315645 L -12.154742509255218,21.929824561403354 L -13.67408532291213,21.05263157894721 L -13.67408532291213,22.8070175438595 L -15.193428136569056,23.68421052631564 L -15.193428136569056,21.929824561403347 L -15.193428136569056,20.175438596491055 L -13.67408532291213,19.29824561403492 L -12.154742509255218,20.175438596491063 L -10.635399695598293,19.298245614034922 L -9.116056881941368,18.421052631578785 L -10.63539969559828,17.543859649122638 L -12.154742509255206,18.421052631578778 L -12.154742509255206,16.666666666666487 L -10.63539969559828,15.789473684210348 L -10.63539969559828,14.03508771929806 L -12.154742509255193,13.15789473684191 L -12.154742509255193,14.912280701754202 L -13.674085322912118,15.789473684210341 L -13.674085322912118,14.035087719298053 L -13.674085322912118,12.280701754385765 L -12.154742509255193,11.403508771929623 L -12.154742509255193,9.649122807017335 L -13.674085322912106,8.771929824561186 L -15.193428136569018,7.894736842105036 L -15.193428136569018,9.649122807017324 L -13.674085322912106,10.526315789473474 L -15.19342813656903,11.403508771929612 L -16.712770950225945,10.526315789473465 L -18.232113763882868,11.403508771929603 L -18.232113763882868,13.157894736841891 L -18.232113763882868,14.912280701754183 L -16.712770950225945,14.035087719298044 L -16.712770950225945,12.280701754385753 L -15.19342813656903,13.157894736841902 L -15.19342813656903,14.91228070175419 L -16.712770950225956,15.789473684210328 L -16.712770950225956,17.54385964912262 L -15.19342813656903,16.66666666666648 L -13.674085322912118,17.543859649122634 L -15.193428136569043,18.42105263157877 L -16.71277095022597,19.29824561403491 L -18.232113763882882,18.42105263157876 L -18.232113763882882,16.66666666666647 L -19.751456577539795,15.789473684210323 L -19.751456577539795,17.543859649122613 L -21.270799391196718,18.421052631578753 L -21.270799391196718,16.666666666666462 L -21.270799391196718,14.91228070175417 L -19.751456577539795,14.035087719298028 L -19.751456577539795,12.28070175438574 L -21.270799391196707,11.403508771929591 L -21.270799391196707,13.157894736841879 L -22.79014220485363,14.03508771929802 L -22.79014220485363,12.280701754385731 L -22.79014220485363,10.526315789473442 L -21.270799391196707,9.6491228070173 L -19.751456577539795,10.526315789473449 L -18.232113763882868,9.649122807017307 L -16.712770950225945,8.771929824561164 L -18.232113763882857,7.894736842105015 L -19.75145657753978,8.771929824561154 L -19.75145657753978,7.017543859648866 L -18.232113763882857,6.1403508771927235 L -18.232113763882857,4.385964912280436 L -19.75145657753977,3.5087719298242863 L -19.75145657753977,5.263157894736575 L -21.270799391196693,6.140350877192714 L -21.270799391196693,4.385964912280426 L -21.270799391196693,2.631578947368138 L -19.75145657753977,1.7543859649119953 L -19.75145657753977,-2.945012654795149e-13 L -21.270799391196682,-0.8771929824564433 L -22.790142204853595,-1.7543859649125921 L -22.790142204853595,-3.022923042488142e-13 L -21.270799391196682,0.8771929824558464 L -22.790142204853606,1.754385964911986 L -24.309485018510518,0.8771929824558371 L -24.309485018510518,-0.8771929824564526 L -25.82882783216743,-1.7543859649126015 L -27.348170645824343,-2.6315789473687503 L -27.348170645824343,-0.8771929824564604 L -25.82882783216743,-3.1164155077197343e-13 L -27.348170645824357,0.8771929824558278 L -28.86751345948127,-3.2099079729513266e-13 L -30.386856273138193,0.8771929824558184 L -30.386856273138193,2.6315789473681064 L -30.386856273138193,4.385964912280395 L -28.86751345948127,3.5087719298242552 L -28.86751345948127,1.754385964911967 L -27.348170645824357,2.631578947368116 L -27.348170645824357,4.3859649122804045 L -25.828827832167445,5.263157894736553 L -24.309485018510518,4.385964912280413 L -25.82882783216743,3.5087719298242646 L -25.82882783216743,1.7543859649119735 L -24.309485018510518,2.6315789473681224 L -22.790142204853606,3.5087719298242708 L -22.790142204853606,5.263157894736562 L -24.309485018510532,6.140350877192701 L -24.309485018510532,7.894736842104993 L -22.790142204853606,7.017543859648853 L -21.270799391196693,7.894736842105003 L -22.79014220485362,8.771929824561141 L -24.309485018510543,9.649122807017282 L -25.828827832167455,8.771929824561132 L -25.828827832167455,7.017543859648841 L -27.348170645824368,6.1403508771926925 L -28.86751345948128,5.263157894736543 L -28.86751345948128,7.017543859648835 L -27.348170645824368,7.894736842104987 L -28.867513459481295,8.771929824561125 L -30.386856273138207,7.894736842104978 L -31.90619908679513,8.771929824561116 L -31.90619908679513,10.526315789473408 L -30.386856273138207,9.64912280701727 L -28.867513459481295,10.526315789473417 L -30.386856273138218,11.403508771929557 L -31.906199086795144,12.280701754385696 L -33.42554190045205,11.403508771929548 L -34.94488471410898,12.280701754385687 L -34.94488471410898,14.035087719297978 L -34.94488471410898,15.789473684210266 L -33.42554190045205,14.912280701754128 L -33.425541900452046,13.157894736841836 L -31.90619908679513,14.035087719297987 L -31.90619908679513,15.789473684210279 L -33.42554190045205,16.66666666666642 L -33.42554190045205,18.42105263157871 L -33.42554190045205,20.175438596491002 L -31.90619908679513,19.29824561403486 L -31.90619908679512,17.54385964912257 L -30.386856273138207,18.42105263157872 L -30.386856273138207,20.175438596491013 L -28.867513459481295,21.052631578947164 L -27.348170645824368,20.175438596491027 L -25.828827832167445,19.298245614034887 L -27.348170645824357,18.421052631578736 L -28.86751345948128,19.298245614034872 L -28.86751345948127,17.54385964912258 L -27.348170645824343,16.666666666666444 L -27.348170645824332,14.912280701754153 L -28.867513459481245,14.035087719298 L -28.867513459481255,15.789473684210291 L -30.386856273138182,16.66666666666643 L -30.386856273138168,14.91228070175414 L -30.386856273138157,13.157894736841849 L -28.86751345948123,12.280701754385708 L -27.348170645824318,13.157894736841861 L -25.828827832167395,12.28070175438572 L -27.348170645824307,11.40350877192957 L -27.348170645824293,9.649122807017278 L -25.82882783216738,10.52631578947343 L -24.30948501851047,11.403508771929582 L -24.30948501851047,13.157894736841873 L -25.828827832167395,14.035087719298012 L -25.828827832167395,15.789473684210304 L -25.828827832167395,17.543859649122595 L -24.30948501851047,16.666666666666455 L -24.309485018510458,14.912280701754165 L -22.790142204853545,15.789473684210316 L -22.790142204853545,17.543859649122606 L -24.30948501851047,18.421052631578746 L -24.30948501851047,20.175438596491038 L -22.790142204853545,19.298245614034897 L -21.270799391196633,20.175438596491052 L -22.790142204853556,21.05263157894719 L -24.309485018510482,21.92982456140333 L -25.828827832167395,21.052631578947178 L -27.348170645824318,21.92982456140332 L -27.348170645824332,23.68421052631561 L -27.348170645824343,25.438596491227898 L -25.82882783216742,24.56140350877176 L -25.828827832167406,22.80701754385947 L -24.309485018510493,23.68421052631562 L -24.309485018510507,25.438596491227912 L -22.790142204853595,26.315789473684063 L -21.270799391196668,25.438596491227926 L -19.751456577539745,24.561403508771786 L -21.270799391196658,23.684210526315635 L -22.79014220485358,24.56140350877177 L -22.79014220485357,22.80701754385948 L -21.270799391196643,21.929824561403343 L -19.75145657753973,22.807017543859494 L -18.232113763882808,21.929824561403354 L -19.75145657753972,21.052631578947203 L -19.751456577539706,19.29824561403491 L -18.232113763882793,20.175438596491063 L -16.71277095022588,21.052631578947214 L -16.712770950225895,22.807017543859505 L -18.23211376388282,23.684210526315645 L -18.232113763882833,25.438596491227937 L -16.712770950225906,24.561403508771797 L -15.193428136568993,25.43859649122795 L -16.71277095022592,26.315789473684088 L -18.232113763882843,27.19298245614023 L -19.751456577539756,26.315789473684077 L -21.270799391196682,27.192982456140214 L -21.270799391196693,28.947368421052506 L -19.75145657753977,28.07017543859637 L -18.232113763882857,28.94736842105252 L -19.75145657753978,29.82456140350866 L -21.270799391196707,30.701754385964797 L -22.79014220485362,29.824561403508646 L -22.79014220485362,28.070175438596355 L -24.309485018510532,27.192982456140204 L -25.828827832167445,26.315789473684053 L -25.828827832167455,28.070175438596344 L -24.309485018510543,28.947368421052495 L -25.82882783216747,29.824561403508635 L -27.348170645824382,28.94736842105248 L -27.348170645824382,27.19298245614019 L -28.867513459481295,26.31578947368404 L -28.867513459481305,28.07017543859633 L -30.386856273138232,28.94736842105247 L -30.386856273138232,27.19298245614018 L -30.386856273138232,25.438596491227887 L -28.867513459481305,24.561403508771747 L -28.867513459481305,22.807017543859455 L -30.386856273138218,21.929824561403304 L -31.90619908679513,21.052631578947153 L -31.906199086795144,22.807017543859445 L -30.386856273138232,23.684210526315596 L -31.906199086795155,24.561403508771736 L -33.42554190045207,23.684210526315585 L -34.944884714108994,24.561403508771722 L -34.94488471410901,26.315789473684013 L -34.944884714109016,28.070175438596305 L -33.425541900452096,27.192982456140165 L -33.42554190045208,25.438596491227873 L -31.90619908679517,26.315789473684028 L -31.90619908679518,28.07017543859632 L -33.4255419004521,28.947368421052456 L -33.42554190045212,30.701754385964747 L -31.906199086795194,29.82456140350861 L -30.38685627313828,30.70175438596476 L -31.906199086795205,31.578947368420902 L -33.42554190045213,32.45614035087704 L -34.944884714109044,31.578947368420888 L -34.944884714109044,29.824561403508596 L -36.464227527765956,28.947368421052445 L -36.46422752776597,30.701754385964737 L -37.98357034142289,31.578947368420877 L -37.98357034142289,29.824561403508586 L -37.98357034142289,28.070175438596294 L -36.46422752776597,27.192982456140154 L -36.46422752776597,25.438596491227862 L -37.98357034142288,24.56140350877171 L -37.98357034142289,26.315789473684003 L -39.50291315507982,27.19298245614014 L -39.50291315507982,25.438596491227848 L -39.50291315507982,23.68421052631556 L -37.98357034142289,22.80701754385942 L -36.46422752776598,23.68421052631557 L -34.94488471410906,22.80701754385943 L -33.42554190045213,21.929824561403294 L -34.944884714109044,21.05263157894714 L -36.46422752776597,21.92982456140328 L -36.46422752776597,20.175438596490988 L -34.944884714109044,19.298245614034848 L -34.944884714109044,17.543859649122556 L -36.464227527765956,16.666666666666405 L -36.46422752776597,18.421052631578696 L -37.98357034142289,19.298245614034837 L -37.98357034142289,17.543859649122545 L -37.98357034142289,15.789473684210254 L -36.46422752776597,14.912280701754115 L -36.46422752776597,13.157894736841824 L -37.98357034142288,12.280701754385671 L -39.502913155079796,11.40350877192952 L -39.5029131550798,13.157894736841811 L -37.98357034142289,14.035087719297962 L -39.50291315507982,14.912280701754103 L -41.02225596873673,14.03508771929795 L -42.541598782393656,14.91228070175409 L -42.54159878239367,16.66666666666638 L -42.54159878239368,18.42105263157867 L -41.02225596873676,17.54385964912253 L -41.022255968736744,15.789473684210241 L -39.50291315507983,16.666666666666394 L -39.502913155079845,18.421052631578686 L -41.022255968736765,19.298245614034823 L -41.02225596873678,21.052631578947114 L -39.50291315507985,20.175438596490977 L -37.98357034142294,21.05263157894713 L -39.50291315507987,21.92982456140327 L -41.02225596873679,22.807017543859406 L -42.541598782393706,21.929824561403255 L -42.541598782393706,20.175438596490963 L -44.06094159605062,19.298245614034812 L -44.06094159605063,21.052631578947103 L -45.58028440970755,21.929824561403244 L -45.58028440970755,20.175438596490952 L -45.58028440970755,18.42105263157866 L -44.06094159605063,17.54385964912252 L -44.06094159605063,15.789473684210229 L -45.580284409707545,14.912280701754078 L -45.58028440970755,16.66666666666637 L -47.09962722336448,17.543859649122506 L -47.09962722336448,15.789473684210217 L -47.09962722336448,14.035087719297925 L -45.58028440970755,13.157894736841786 L -44.06094159605064,14.035087719297938 L -42.54159878239372,13.157894736841799 L -41.02225596873679,12.280701754385658 L -42.541598782393706,11.403508771929507 L -44.06094159605063,12.280701754385646 L -44.06094159605063,10.526315789473355 L -42.541598782393706,9.649122807017216 L -41.02225596873679,10.526315789473367 L -39.50291315507987,9.649122807017228 L -41.02225596873678,8.771929824561076 L -41.02225596873678,7.017543859648785 L -39.50291315507987,7.894736842104937 L -37.983570341422954,8.771929824561088 L -37.983570341422954,10.52631578947338 L -36.46422752776604,11.403508771929532 L -34.944884714109115,10.526315789473392 L -33.425541900452195,9.649122807017253 L -34.94488471410911,8.7719298245611 L -36.46422752776603,9.64912280701724 L -36.46422752776603,7.894736842104949 L -34.94488471410911,7.01754385964881 L -33.425541900452195,7.894736842104962 L -31.90619908679527,7.017543859648822 L -30.386856273138342,6.140350877192683 L -31.906199086795255,5.263157894736531 L -33.42554190045218,6.14035087719267 L -33.42554190045218,4.385964912280379 L -31.906199086795255,3.5087719298242366 L -31.906199086795255,1.7543859649119422 L -33.42554190045217,0.8771929824557904 L -34.94488471410908,-3.615041988954892e-13 L -34.944884714109094,1.7543859649119298 L -33.42554190045218,2.6315789473680815 L -34.94488471410911,3.508771929824221 L -36.46422752776602,2.631578947368069 L -37.98357034142294,3.5087719298242086 L -37.983570341422954,5.2631578947365 L -36.46422752776603,4.38596491228036 L -34.944884714109115,5.263157894736512 L -36.46422752776604,6.140350877192652 L -37.98357034142297,7.017543859648791 L -39.50291315507988,6.140350877192639 L -39.50291315507988,4.385964912280348 L -41.02225596873679,3.508771929824196 L -41.02225596873681,5.263157894736487 L -42.54159878239373,6.140350877192627 L -42.54159878239373,4.385964912280335 L -42.54159878239373,2.631578947368044 L -41.02225596873681,1.7543859649119018 L -39.502913155079895,2.6315789473680535 L -37.98357034142297,1.7543859649119111 L -36.46422752776604,0.8771929824557686 L -37.983570341422954,-3.833191074495273e-13 L -39.50291315507988,0.877192982455756 L -39.50291315507988,-0.8771929824565368 L -37.983570341422954,-1.7543859649126776 L -36.46422752776604,-0.8771929824565259 L -34.944884714109115,-1.7543859649126667 L -36.46422752776603,-2.6315789473688187 L -36.46422752776603,-4.3859649122811115 L -34.944884714109115,-3.5087719298249596 L -33.4255419004522,-2.6315789473688076 L -33.4255419004522,-0.8771929824565149 L -31.906199086795294,-3.6306240664934905e-13 L -30.386856273138367,-0.877192982456504 L -28.867513459481444,-1.754385964912645 L -30.386856273138356,-2.631578947368797 L -31.90619908679528,-1.7543859649126559 L -31.90619908679528,-3.508771929824949 L -30.386856273138356,-4.385964912281089 L -30.386856273138356,-6.140350877193383 L -31.90619908679527,-7.0175438596495345 L -33.42554190045218,-7.8947368421056865 L -33.425541900452195,-6.140350877193393 L -31.90619908679528,-5.263157894737241 L -33.4255419004522,-4.385964912281101 L -34.944884714109115,-5.263157894737253 L -34.944884714109115,-7.017543859649545 L -36.46422752776603,-7.894736842105697 L -36.46422752776604,-6.140350877193405 L -37.98357034142297,-5.2631578947372635 L -37.98357034142297,-7.017543859649556 L -37.98357034142297,-8.77192982456185 L -36.46422752776604,-9.64912280701799 L -34.94488471410913,-8.771929824561838 L -33.4255419004522,-9.64912280701798 L -34.944884714109115,-10.52631578947413 L -34.944884714109115,-12.280701754386424 L -33.4255419004522,-11.403508771930271 L -31.906199086795294,-10.526315789474122 L -31.906199086795294,-8.771929824561827 L -30.38685627313838,-7.894736842105677 L -28.867513459481454,-8.771929824561818 L -30.386856273138367,-9.649122807017969 L -30.386856273138367,-11.403508771930262 L -28.867513459481454,-10.526315789474111 L -27.348170645824542,-9.64912280701796 L -27.348170645824542,-7.894736842105666 L -28.86751345948147,-7.017543859649525 L -28.86751345948147,-5.263157894737232 L -28.86751345948147,-3.5087719298249396 L -27.348170645824542,-4.38596491228108 L -27.348170645824542,-6.140350877193373 L -25.82882783216763,-5.263157894737222 L -25.82882783216763,-3.5087719298249285 L -24.309485018510717,-2.6315789473687765 L -22.790142204853794,-3.508771929824918 L -24.309485018510706,-4.38596491228107 L -24.309485018510706,-6.140350877193362 L -22.790142204853794,-5.26315789473721 L -21.27079939119688,-4.385964912281058 L -21.27079939119688,-2.631578947368766 L -19.75145657753997,-1.754385964912614 L -18.232113763883042,-2.6315789473687548 L -16.71277095022612,-3.5087719298248956 L -18.23211376388303,-4.385964912281048 L -19.751456577539955,-3.5087719298249067 L -19.751456577539955,-5.2631578947371995 L -18.23211376388303,-6.140350877193341 L -16.71277095022612,-5.263157894737189 L -15.193428136569194,-6.140350877193329 L -13.67408532291227,-7.017543859649471 L -15.193428136569182,-7.8947368421056225 L -16.712770950226105,-7.017543859649481 L -16.712770950226105,-8.771929824561774 L -15.193428136569182,-9.649122807017916 L -15.193428136569182,-11.403508771930207 L -16.712770950226094,-12.28070175438636 L -18.232113763883007,-13.157894736842511 L -18.232113763883017,-11.40350877193022 L -16.712770950226105,-10.526315789474065 L -18.23211376388303,-9.649122807017926 L -19.751456577539944,-10.526315789474078 L -21.270799391196867,-9.649122807017937 L -21.27079939119688,-7.894736842105644 L -19.751456577539955,-8.771929824561784 L -18.232113763883042,-7.894736842105631 L -19.75145657753997,-7.017543859649491 L -21.270799391196892,-6.14035087719335 L -22.790142204853804,-7.017543859649502 L -22.790142204853804,-8.771929824561795 L -24.309485018510717,-9.649122807017946 L -24.30948501851073,-7.894736842105654 L -25.828827832167654,-7.017543859649512 L -25.828827832167654,-8.771929824561806 L -25.828827832167654,-10.526315789474099 L -24.30948501851073,-11.40350877193024 L -22.79014220485382,-10.526315789474088 L -21.270799391196892,-11.40350877193023 L -19.75145657753997,-12.28070175438637 L -21.27079939119688,-13.157894736842524 L -22.790142204853804,-12.280701754386381 L -22.790142204853804,-14.035087719298676 L -21.27079939119688,-14.912280701754815 L -19.75145657753997,-14.035087719298664 L -18.232113763883042,-14.912280701754806 L -19.751456577539955,-15.789473684210959 L -19.751456577539955,-17.54385964912325 L -18.232113763883042,-16.6666666666671 L -16.71277095022613,-15.789473684210948 L -16.71277095022613,-14.035087719298655 L -15.193428136569219,-13.157894736842504 L -13.674085322912294,-14.035087719298645 L -12.15474250925537,-14.912280701754788 L -13.674085322912282,-15.78947368421094 L -15.193428136569207,-14.912280701754797 L -15.193428136569207,-16.66666666666709 L -13.674085322912282,-17.54385964912323 L -12.15474250925537,-16.666666666667084 L -10.635399695598444,-17.54385964912322 L -9.11605688194152,-18.421052631579364 L -10.635399695598432,-19.298245614035515 L -12.154742509255357,-18.421052631579375 L -12.154742509255357,-20.175438596491666 L -10.635399695598432,-21.052631578947807 L -10.635399695598432,-22.807017543860102 L -12.154742509255344,-23.684210526316253 L -13.674085322912257,-24.561403508772404 L -13.67408532291227,-22.807017543860113 L -12.154742509255357,-21.929824561403958 L -13.674085322912282,-21.05263157894782 L -15.193428136569194,-21.929824561403972 L -16.71277095022612,-21.052631578947828 L -16.71277095022613,-19.298245614035533 L -15.193428136569207,-20.175438596491674 L -13.674085322912294,-19.298245614035523 L -15.193428136569219,-18.421052631579382 L -16.712770950226144,-17.54385964912324 L -18.232113763883056,-18.421052631579396 L -18.232113763883056,-20.175438596491688 L -19.75145657753997,-21.05263157894784 L -19.75145657753998,-19.298245614035547 L -21.270799391196906,-18.421052631579403 L -21.270799391196906,-20.1754385964917 L -21.270799391196906,-21.92982456140399 L -19.75145657753998,-22.80701754386013 L -18.232113763883067,-21.92982456140398 L -16.712770950226144,-22.80701754386012 L -15.193428136569219,-23.684210526316264 L -16.71277095022613,-24.561403508772415 L -18.232113763883056,-23.68421052631627 L -18.232113763883056,-25.438596491228566 L -16.71277095022613,-26.315789473684706 L -16.71277095022613,-28.070175438596998 L -18.232113763883042,-28.94736842105315 L -18.232113763883056,-27.192982456140857 L -19.75145657753998,-26.315789473684717 L -19.75145657753998,-28.07017543859701 L -19.75145657753998,-29.8245614035093 L -18.232113763883056,-30.70175438596544 L -18.232113763883056,-32.45614035087774 L -19.75145657753997,-33.33333333333389 L -21.27079939119688,-34.21052631579004 L -21.270799391196892,-32.45614035087775 L -19.75145657753998,-31.5789473684216 L -21.270799391196906,-30.701754385965458 L -22.79014220485382,-31.578947368421613 L -22.79014220485382,-33.333333333333904 L -24.30948501851073,-34.210526315790055 L -25.828827832167644,-35.087719298246206 L -25.828827832167654,-33.33333333333391 L -24.309485018510742,-32.45614035087776 L -25.82882783216767,-31.578947368421623 L -27.34817064582458,-32.456140350877774 L -28.867513459481504,-31.578947368421638 L -28.86751345948152,-29.824561403509346 L -28.86751345948153,-28.070175438597055 L -27.348170645824606,-28.94736842105319 L -27.34817064582459,-30.701754385965483 L -25.82882783216768,-29.824561403509332 L -25.828827832167693,-28.07017543859704 L -24.30948501851078,-27.19298245614089 L -22.790142204853854,-28.07017543859703 L -24.309485018510767,-28.94736842105318 L -24.309485018510756,-30.701754385965472 L -22.790142204853844,-29.82456140350932 L -21.27079939119693,-28.947368421053167 L -21.27079939119694,-27.192982456140875 L -22.79014220485387,-26.315789473684735 L -22.79014220485388,-24.56140350877244 L -21.270799391196956,-25.43859649122858 L -19.751456577540043,-24.561403508772425 L -21.270799391196967,-23.68421052631629 L -22.790142204853893,-22.807017543860145 L -24.309485018510806,-23.684210526316296 L -24.309485018510806,-25.43859649122859 L -25.82882783216772,-26.31578947368474 L -27.34817064582463,-27.192982456140896 L -27.34817064582464,-25.4385964912286 L -25.82882783216773,-24.56140350877245 L -27.348170645824656,-23.684210526316306 L -28.867513459481568,-24.561403508772457 L -30.38685627313849,-23.68421052631632 L -30.386856273138505,-21.92982456140403 L -28.86751345948158,-22.807017543860166 L -27.348170645824666,-21.92982456140401 L -28.867513459481593,-21.05263157894787 L -30.386856273138516,-20.17543859649173 L -31.90619908679543,-21.05263157894788 L -33.42554190045235,-20.17543859649174 L -33.425541900452366,-18.42105263157945 L -33.42554190045238,-16.666666666667155 L -31.906199086795453,-17.54385964912329 L -31.906199086795443,-19.298245614035586 L -30.38685627313853,-18.421052631579435 L -30.38685627313854,-16.66666666666714 L -28.86751345948163,-15.78947368421099 L -27.348170645824705,-16.66666666666713 L -25.82882783216778,-17.543859649123267 L -27.34817064582469,-18.421052631579425 L -28.867513459481618,-17.543859649123284 L -28.867513459481604,-19.298245614035576 L -27.34817064582468,-20.175438596491716 L -25.828827832167768,-19.29824561403556 L -24.30948501851084,-20.175438596491706 L -25.828827832167754,-21.052631578947857 L -25.828827832167743,-22.807017543860148 L -24.30948501851083,-21.929824561403997 L -22.790142204853918,-21.052631578947846 L -22.79014220485393,-19.298245614035554 L -24.309485018510856,-18.42105263157941 L -24.309485018510866,-16.666666666667115 L -22.790142204853943,-17.543859649123256 L -21.27079939119703,-16.666666666667105 L -22.790142204853954,-15.789473684210964 L -24.30948501851088,-14.912280701754826 L -25.828827832167793,-15.789473684210977 L -27.348170645824716,-14.912280701754835 L -27.34817064582473,-13.157894736842541 L -25.828827832167804,-14.035087719298682 L -24.30948501851089,-13.157894736842529 L -25.828827832167818,-12.280701754386389 L -27.34817064582474,-11.403508771930248 L -28.867513459481653,-12.280701754386401 L -28.867513459481653,-14.035087719298692 L -30.386856273138566,-14.912280701754844 L -31.90619908679548,-15.789473684210996 L -31.906199086795493,-14.035087719298705 L -30.38685627313858,-13.15789473684255 L -31.906199086795503,-12.28070175438641 L -33.425541900452416,-13.157894736842561 L -33.425541900452416,-14.912280701754856 L -34.94488471410933,-15.789473684211009 L -34.94488471410934,-14.035087719298714 L -36.46422752776627,-13.157894736842573 L -36.46422752776627,-14.912280701754865 L -36.46422752776627,-16.66666666666716 L -34.94488471410934,-17.5438596491233 L -34.94488471410934,-19.298245614035594 L -36.464227527766255,-20.175438596491745 L -37.98357034142317,-21.0526315789479 L -37.98357034142318,-19.298245614035604 L -36.46422752776627,-18.42105263157945 L -37.983570341423196,-17.543859649123313 L -39.50291315508011,-18.421052631579464 L -41.02225596873703,-17.543859649123323 L -41.02225596873704,-15.78947368421103 L -41.022255968737056,-14.035087719298735 L -39.50291315508013,-14.912280701754877 L -39.502913155080115,-16.66666666666717 L -37.9835703414232,-15.789473684211018 L -37.98357034142322,-14.035087719298723 L -39.502913155080144,-13.157894736842584 L -39.50291315508016,-11.40350877193029 L -37.98357034142323,-12.28070175438643 L -36.46422752776632,-11.403508771930278 L -37.983570341423246,-10.526315789474138 L -39.502913155080165,-9.649122807017996 L -41.02225596873708,-10.526315789474149 L -41.02225596873708,-12.280701754386442 L -42.54159878239399,-13.157894736842593 L -42.541598782394004,-11.4035087719303 L -44.06094159605093,-10.52631578947416 L -44.06094159605093,-12.280701754386453 L -44.06094159605093,-14.035087719298744 L -42.541598782394004,-14.912280701754888 L -42.541598782394004,-16.66666666666718 L -44.06094159605092,-17.54385964912333 L -44.06094159605093,-15.789473684211039 L -45.58028440970786,-14.912280701754897 L -45.58028440970786,-16.66666666666719 L -45.58028440970786,-18.42105263157948 L -44.06094159605093,-19.298245614035626 L -42.54159878239402,-18.421052631579474 L -41.02225596873709,-19.298245614035615 L -39.502913155080165,-20.175438596491755 L -41.02225596873708,-21.052631578947906 L -42.541598782394004,-20.175438596491766 L -42.541598782394004,-21.929824561404057 L -41.02225596873708,-22.807017543860198 L -39.502913155080165,-21.929824561404047 L -37.983570341423246,-22.807017543860187 L -39.50291315508016,-23.684210526316342 L -39.50291315508016,-25.438596491228637 L -37.983570341423246,-24.561403508772482 L -36.46422752776633,-23.68421052631633 L -36.46422752776633,-21.929824561404036 L -34.94488471410942,-21.052631578947885 L -33.425541900452494,-21.92982456140403 L -31.906199086795567,-22.807017543860166 L -33.42554190045248,-23.68421052631632 L -34.944884714109406,-22.80701754386018 L -34.944884714109406,-24.56140350877247 L -33.42554190045248,-25.43859649122861 L -31.906199086795567,-24.561403508772457 L -30.386856273138644,-25.4385964912286 L -28.867513459481717,-26.31578947368474 L -30.38685627313863,-27.192982456140896 L -31.906199086795556,-26.315789473684752 L -31.906199086795556,-28.070175438597047 L -30.38685627313863,-28.947368421053188 L -30.38685627313863,-30.701754385965483 L -31.906199086795542,-31.578947368421638 L -33.42554190045246,-32.45614035087779 L -33.425541900452465,-30.701754385965497 L -31.906199086795556,-29.824561403509346 L -33.42554190045248,-28.947368421053206 L -34.94488471410939,-29.824561403509357 L -36.46422752776632,-28.947368421053216 L -36.46422752776633,-27.192982456140925 L -34.944884714109406,-28.070175438597065 L -33.425541900452494,-27.192982456140914 L -34.94488471410942,-26.315789473684774 L -36.46422752776634,-25.438596491228633 L -37.98357034142325,-26.315789473684784 L -37.98357034142325,-28.07017543859708 L -39.502913155080165,-28.94736842105323 L -39.50291315508018,-27.19298245614094 L -41.022255968737106,-26.315789473684795 L -41.022255968737106,-28.07017543859709 L -41.022255968737106,-29.82456140350938 L -39.50291315508018,-30.70175438596553 L -37.98357034142327,-29.824561403509374 L -36.46422752776634,-30.701754385965515 L -34.94488471410942,-31.578947368421655 L -36.46422752776633,-32.45614035087781 L -37.98357034142325,-31.578947368421666 L -37.98357034142325,-33.33333333333397 L -36.46422752776633,-34.21052631579011 " />
    </g>
</svg>
