<?xml version="1.0" encoding="UTF-8"?>
<!DOCTYPE svg PUBLIC "-//W3C//DTD SVG 1.1//EN"
    "http://www.w3.org/Graphics/SVG/1.1/DTD/svg11.dtd">

<svg xmlns="http://www.w3.org/2000/svg" xmlns:xlink="http://www.w3.org/1999/xlink" version="1.1" width="500.00000000000256" height="500" viewBox="-15.100000000000298 -5.100000000000211 25.200000000000422 25.20000000000029">
    <g>
        <rect x="-15.100000000000298" y="-5.100000000000211" width="25.200000000000422" height="25.20000000000029" fill="#CBD4C2" />
        <path style="fill:none;stroke:#50514F;stroke-width:0.1px;stroke-linecap:square" d="M 0.0,0.0 L 6.123233995736766e-17,-1.0 L 1.2246467991473532e-16,-2.0 L 1.0000000000000002,-2.0 L 1.0000000000000002,-3.0 L 2.0,-3.0 L 2.0,-2.0 L 2.0,-1.0 L 2.0,0.0 L 2.0,1.0 L 1.0,1.0000000000000002 L 1.0,2.0 L 0.0,2.0 L -1.8369701987210297e-16,1.0 L -3.6739403974420594e-16,0.0 L 0.9999999999999997,-2.4492935982947064e-16 L 1.9999999999999996,-4.898587196589413e-16 L 1.9999999999999998,0.9999999999999996 L 3.0,0.9999999999999993 L 3.0000000000000004,1.9999999999999993 L 2.0000000000000004,1.9999999999999998 L 1.0000000000000004,2.0 L 1.0000000000000007,3.0 L 1.0000000000000009,4.0 L 8.881784197001252e-16,4.0 L 1.1943401194869635e-15,5.0 L -0.9999999999999988,5.0 L -0.9999999999999992,4.0 L -0.9999999999999997,3.0 L 3.3306690738754696e-16,2.9999999999999996 L 1.0000000000000004,2.999999999999999 L 1.0000000000000009,3.999999999999999 L 2.000000000000001,3.9999999999999987 L 2.0000000000000013,4.999999999999998 L 1.0000000000000013,4.999999999999999 L 1.3322676295501878e-15,5.0 L 6.587118900191435e-16,4.0 L -1.4843849511900753e-17,3.0 L 1.0,2.999999999999999 L 0.9999999999999993,1.9999999999999991 L 1.9999999999999993,1.9999999999999984 L 2.0,2.9999999999999982 L 2.000000000000001,3.9999999999999982 L 2.0000000000000018,4.999999999999998 L 2.0000000000000027,5.999999999999998 L 1.0000000000000027,5.999999999999999 L 1.0000000000000036,6.999999999999999 L 3.552713678800501e-15,7.0 L 2.6342285794399857e-15,6.0 L 1.7157434800794707e-15,5.0 L 7.972583807189558e-16,4.0 L -1.2122671864155923e-16,3.0 L 0.9999999999999999,2.999999999999999 L 0.999999999999999,1.9999999999999991 L 1.9999999999999991,1.9999999999999982 L 2.0,2.9999999999999982 L 2.000000000000001,3.9999999999999982 L 2.0000000000000018,4.999999999999998 L 2.0000000000000027,5.999999999999998 L 1.0000000000000027,5.999999999999999 L 1.0000000000000038,6.999999999999999 L 3.774758283725532e-15,7.0 L 2.6113438245355468e-15,6.0 L 1.4479293653455615e-15,5.0 L 1.0000000000000016,4.999999999999999 L 2.0000000000000018,4.999999999999998 L 2.000000000000003,5.999999999999998 L 3.000000000000003,5.999999999999997 L 3.0000000000000044,6.999999999999997 L 2.0000000000000044,6.999999999999999 L 1.0000000000000044,7.000000000000001 L 1.0000000000000058,8.0 L 1.000000000000007,9.0 L 7.105427357601002e-15,9.000000000000002 L 8.391306496705722e-15,10.000000000000002 L -0.9999999999999916,10.000000000000004 L -0.999999999999993,9.000000000000004 L -0.9999999999999944,8.000000000000004 L 5.551115123125783e-15,8.000000000000002 L 1.0000000000000056,8.0 L 1.000000000000007,9.0 L 2.000000000000007,8.999999999999998 L 2.0000000000000084,9.999999999999998 L 1.0000000000000084,10.0 L 8.43769498715119e-15,10.000000000000002 L 6.784421808302264e-15,9.000000000000002 L 5.1311486294533376e-15,8.000000000000002 L 1.000000000000005,8.0 L 1.0000000000000036,7.0 L 2.0000000000000036,6.999999999999998 L 2.0000000000000053,7.999999999999998 L 2.000000000000007,8.999999999999998 L 2.000000000000009,9.999999999999998 L 2.0000000000000107,10.999999999999998 L 1.0000000000000107,11.0 L 1.0000000000000124,12.0 L 1.2434497875801753e-14,12.000000000000002 L 1.0536295337123357e-14,11.000000000000002 L 8.63809279844496e-15,10.000000000000002 L 1.0000000000000087,10.0 L 2.000000000000009,9.999999999999998 L 2.000000000000011,10.999999999999998 L 3.000000000000011,10.999999999999996 L 3.0000000000000133,11.999999999999996 L 2.0000000000000133,11.999999999999998 L 1.0000000000000133,12.0 L 1.3322676295501878e-14,12.000000000000002 L -0.9999999999999867,12.000000000000004 L -0.9999999999999888,11.000000000000004 L -1.999999999999989,11.000000000000005 L -1.9999999999999911,10.000000000000005 L -0.9999999999999911,10.000000000000004 L 8.881784197001252e-15,10.000000000000002 L 1.1147380775423854e-14,11.000000000000002 L 1.3412977353846456e-14,12.000000000000002 L -0.9999999999999866,12.000000000000004 L -0.9999999999999843,13.000000000000004 L -1.9999999999999845,13.000000000000005 L -1.999999999999987,12.000000000000005 L -1.9999999999999893,11.000000000000005 L -2.9999999999999893,11.000000000000007 L -3.9999999999999893,11.000000000000009 L -3.9999999999999916,10.000000000000009 L -4.999999999999991,10.00000000000001 L -4.999999999999994,9.00000000000001 L -3.999999999999994,9.000000000000009 L -2.999999999999994,9.000000000000007 L -2.999999999999991,10.000000000000007 L -2.9999999999999885,11.000000000000007 L -3.9999999999999885,11.000000000000009 L -3.999999999999986,12.000000000000009 L -4.999999999999986,12.00000000000001 L -4.9999999999999885,11.00000000000001 L -4.999999999999991,10.00000000000001 L -3.999999999999991,10.000000000000007 L -2.999999999999991,10.000000000000004 L -2.9999999999999885,11.000000000000004 L -1.9999999999999885,11.0 L -1.9999999999999858,12.0 L -2.999999999999986,12.000000000000004 L -3.999999999999986,12.000000000000007 L -4.999999999999986,12.00000000000001 L -5.999999999999986,12.000000000000014 L -5.9999999999999885,11.000000000000014 L -6.9999999999999885,11.000000000000018 L -6.999999999999991,10.000000000000018 L -5.999999999999991,10.000000000000014 L -4.999999999999991,10.00000000000001 L -4.999999999999994,9.00000000000001 L -4.9999999999999964,8.00000000000001 L -3.9999999999999964,8.000000000000007 L -3.999999999999999,7.000000000000007 L -2.999999999999999,7.000000000000004 L -2.999999999999996,8.000000000000004 L -2.999999999999993,9.000000000000004 L -2.99999999999999,10.000000000000004 L -2.9999999999999867,11.000000000000004 L -3.9999999999999867,11.000000000000007 L -3.9999999999999836,12.000000000000007 L -4.999999999999984,12.00000000000001 L -4.999999999999988,11.00000000000001 L -4.999999999999991,10.00000000000001 L -3.999999999999991,10.000000000000007 L -2.999999999999991,10.000000000000004 L -2.999999999999988,11.000000000000004 L -1.999999999999988,11.0 L -1.9999999999999847,12.0 L -2.999999999999985,12.000000000000004 L -3.999999999999985,12.000000000000007 L -3.999999999999982,13.000000000000007 L -3.9999999999999787,14.000000000000007 L -4.999999999999979,14.00000000000001 L -4.999999999999975,15.00000000000001 L -5.999999999999975,15.000000000000014 L -5.999999999999979,14.000000000000014 L -5.999999999999982,13.000000000000014 L -4.999999999999982,13.00000000000001 L -3.9999999999999822,13.000000000000007 L -3.9999999999999787,14.000000000000007 L -2.9999999999999787,14.000000000000004 L -2.999999999999975,15.000000000000004 L -3.999999999999975,15.000000000000007 L -4.999999999999975,15.00000000000001 L -4.999999999999979,14.00000000000001 L -4.999999999999982,13.00000000000001 L -3.9999999999999822,13.000000000000007 L -3.999999999999986,12.000000000000007 L -2.999999999999986,12.000000000000004 L -2.9999999999999822,13.000000000000004 L -2.9999999999999787,14.000000000000004 L -2.999999999999975,15.000000000000004 L -2.9999999999999716,16.000000000000004 L -3.9999999999999716,16.000000000000007 L -3.999999999999968,17.000000000000007 L -4.999999999999968,17.00000000000001 L -4.999999999999972,16.00000000000001 L -4.999999999999975,15.00000000000001 L -3.999999999999975,15.000000000000007 L -2.999999999999975,15.000000000000004 L -2.999999999999971,16.000000000000004 L -1.9999999999999711,16.0 L -1.9999999999999671,17.0 L -2.999999999999967,17.000000000000004 L -3.999999999999967,17.000000000000007 L -4.999999999999967,17.00000000000001 L -5.999999999999967,17.000000000000014 L -5.999999999999972,16.000000000000014 L -6.999999999999972,16.000000000000018 L -6.999999999999976,15.000000000000018 L -5.999999999999976,15.000000000000014 L -4.999999999999976,15.00000000000001 L -4.999999999999972,16.00000000000001 L -4.999999999999967,17.00000000000001 L -5.999999999999967,17.000000000000014 L -5.999999999999963,18.000000000000014 L -6.999999999999963,18.000000000000018 L -6.999999999999967,17.000000000000018 L -6.999999999999972,16.000000000000018 L -7.999999999999972,16.00000000000002 L -8.999999999999972,16.000000000000025 L -8.999999999999975,15.000000000000025 L -9.999999999999975,15.000000000000028 L -9.999999999999979,14.000000000000028 L -8.999999999999979,14.000000000000025 L -7.999999999999979,14.000000000000021 L -7.999999999999974,15.000000000000021 L -7.99999999999997,16.00000000000002 L -8.99999999999997,16.000000000000025 L -8.999999999999964,17.000000000000025 L -9.999999999999964,17.00000000000003 L -9.99999999999997,16.00000000000003 L -9.999999999999975,15.000000000000028 L -8.999999999999975,15.000000000000023 L -7.999999999999975,15.000000000000018 L -7.999999999999971,16.000000000000018 L -6.999999999999971,16.000000000000014 L -6.999999999999966,17.000000000000014 L -7.999999999999966,17.000000000000018 L -8.999999999999966,17.00000000000002 L -9.999999999999966,17.000000000000025 L -10.999999999999966,17.00000000000003 L -10.999999999999972,16.00000000000003 L -11.999999999999972,16.000000000000032 L -11.999999999999977,15.000000000000032 L -10.999999999999977,15.000000000000027 L -9.999999999999977,15.000000000000021 L -9.999999999999972,16.00000000000002 L -9.999999999999966,17.00000000000002 L -10.999999999999966,17.000000000000025 L -10.999999999999961,18.000000000000025 L -11.999999999999961,18.00000000000003 L -11.999999999999966,17.00000000000003 L -11.999999999999972,16.00000000000003 L -11.999999999999977,15.000000000000028 L -11.999999999999982,14.000000000000028 L -10.999999999999982,14.000000000000023 L -10.999999999999988,13.000000000000023 L -9.999999999999988,13.000000000000018 L -9.999999999999982,14.000000000000018 L -9.999999999999977,15.000000000000018 L -10.999999999999977,15.000000000000023 L -11.999999999999977,15.000000000000028 L -11.999999999999982,14.000000000000028 L -12.999999999999982,14.000000000000034 L -12.999999999999988,13.000000000000034 L -11.999999999999988,13.000000000000028 L -10.999999999999988,13.000000000000023 L -10.999999999999993,12.000000000000023 L -10.999999999999998,11.000000000000023 L -9.999999999999998,11.000000000000018 L -10.000000000000004,10.000000000000018 L -9.000000000000004,10.000000000000012 L -8.999999999999998,11.000000000000012 L -8.999999999999993,12.000000000000012 L -9.999999999999993,12.000000000000018 L -10.999999999999993,12.000000000000023 L -10.999999999999998,11.000000000000023 L -11.999999999999998,11.000000000000028 L -12.000000000000004,10.000000000000028 L -11.000000000000004,10.000000000000023 L -10.000000000000004,10.000000000000018 L -9.999999999999998,11.000000000000018 L -9.999999999999993,12.000000000000018 L -10.999999999999993,12.000000000000023 L -10.999999999999988,13.000000000000023 L -11.999999999999988,13.000000000000028 L -11.999999999999993,12.000000000000028 L -11.999999999999998,11.000000000000028 L -12.000000000000004,10.000000000000028 L -12.000000000000009,9.000000000000028 L -11.000000000000009,9.000000000000023 L -11.000000000000014,8.000000000000023 L -10.000000000000014,8.000000000000018 L -10.000000000000009,9.000000000000018 L -10.000000000000004,10.000000000000018 L -9.999999999999998,11.000000000000018 L -9.999999999999993,12.000000000000018 L -10.999999999999993,12.000000000000023 L -10.999999999999988,13.000000000000023 L -11.999999999999988,13.000000000000028 L -11.999999999999993,12.000000000000028 L -11.999999999999998,11.000000000000028 L -12.000000000000004,10.000000000000028 L -12.000000000000009,9.000000000000028 L -11.000000000000009,9.000000000000023 L -11.000000000000014,8.000000000000023 L -10.000000000000014,8.000000000000018 L -10.000000000000009,9.000000000000018 L -10.000000000000004,10.000000000000018 L -11.000000000000004,10.000000000000025 L -12.000000000000004,10.000000000000032 L -12.00000000000001,9.000000000000032 L -13.00000000000001,9.000000000000039 L -13.000000000000018,8.000000000000039 L -12.000000000000018,8.000000000000032 L -11.000000000000018,8.000000000000025 L -11.000000000000025,7.000000000000025 L -11.000000000000032,6.000000000000025 L -10.000000000000032,6.000000000000019 L -10.000000000000039,5.000000000000019 L -9.000000000000039,5.000000000000012 L -9.000000000000032,6.000000000000012 L -9.000000000000025,7.000000000000012 L -10.000000000000025,7.000000000000019 L -11.000000000000025,7.000000000000025 L -11.000000000000032,6.000000000000025 L -12.000000000000032,6.000000000000031 L -12.000000000000039,5.000000000000031 L -11.000000000000039,5.000000000000025 L -10.000000000000039,5.000000000000019 L -10.000000000000032,6.000000000000019 L -10.000000000000025,7.000000000000019 L -11.000000000000025,7.000000000000026 L -11.000000000000018,8.000000000000025 L -12.000000000000018,8.000000000000032 L -12.000000000000025,7.000000000000032 L -12.000000000000032,6.000000000000032 L -12.000000000000039,5.000000000000032 L -12.000000000000046,4.000000000000032 L -11.000000000000046,4.000000000000025 L -11.000000000000053,3.000000000000025 L -10.000000000000053,3.000000000000018 L -10.000000000000046,4.000000000000018 L -10.000000000000039,5.000000000000018 L -11.000000000000039,5.000000000000025 L -12.000000000000039,5.000000000000032 L -12.000000000000046,4.000000000000032 L -13.000000000000046,4.000000000000039 L -13.000000000000053,3.000000000000039 L -12.000000000000053,3.000000000000032 L -11.000000000000053,3.000000000000025 L -10.000000000000053,3.0000000000000178 L -9.000000000000053,3.0000000000000107 L -9.000000000000046,4.000000000000011 L -8.000000000000046,4.0000000000000036 L -8.000000000000039,5.0000000000000036 L -9.000000000000039,5.000000000000011 L -10.000000000000039,5.000000000000018 L -10.000000000000046,4.000000000000018 L -10.000000000000053,3.0000000000000178 L -9.000000000000053,3.00000000000001 L -9.00000000000006,2.00000000000001 L -8.00000000000006,2.0000000000000027 L -8.000000000000053,3.0000000000000027 L -8.000000000000046,4.000000000000003 L -7.000000000000046,3.999999999999995 L -6.000000000000046,3.9999999999999876 L -6.000000000000039,4.999999999999988 L -5.000000000000039,4.9999999999999805 L -5.000000000000032,5.9999999999999805 L -6.000000000000032,5.999999999999988 L -7.000000000000032,5.999999999999995 L -7.000000000000039,4.999999999999995 L -7.000000000000046,3.9999999999999947 L -6.000000000000046,3.999999999999987 L -6.000000000000053,2.999999999999987 L -5.000000000000053,2.9999999999999796 L -5.000000000000045,3.9999999999999796 L -5.000000000000037,4.99999999999998 L -6.000000000000037,4.999999999999988 L -7.000000000000037,4.999999999999996 L -7.000000000000045,3.9999999999999956 L -8.000000000000046,4.0000000000000036 L -8.000000000000053,3.0000000000000036 L -7.000000000000053,2.9999999999999956 L -6.000000000000053,2.9999999999999876 L -5.000000000000053,2.9999999999999796 L -4.000000000000053,2.9999999999999716 L -4.000000000000045,3.9999999999999716 L -3.0000000000000453,3.9999999999999636 L -3.0000000000000373,4.999999999999964 L -4.000000000000037,4.999999999999972 L -5.000000000000037,4.99999999999998 L -6.000000000000037,4.999999999999988 L -7.000000000000037,4.999999999999996 L -7.000000000000045,3.9999999999999956 L -8.000000000000046,4.0000000000000036 L -8.000000000000055,3.0000000000000036 L -7.000000000000055,2.9999999999999956 L -6.000000000000055,2.9999999999999876 L -5.000000000000055,2.9999999999999796 L -4.000000000000055,2.9999999999999716 L -4.000000000000047,3.9999999999999716 L -3.000000000000047,3.9999999999999636 L -3.000000000000039,4.999999999999964 L -4.000000000000039,4.999999999999972 L -5.000000000000039,4.99999999999998 L -5.000000000000047,3.9999999999999796 L -5.000000000000055,2.9999999999999796 L -4.000000000000055,2.999999999999971 L -4.000000000000063,1.9999999999999711 L -3.000000000000063,1.9999999999999627 L -3.0000000000000546,2.9999999999999627 L -3.000000000000046,3.9999999999999627 L -2.000000000000046,3.9999999999999543 L -1.0000000000000462,3.999999999999946 L -1.0000000000000377,4.999999999999946 L -3.774758283725532e-14,4.999999999999938 L -2.9358752263095965e-14,5.999999999999938 L -1.0000000000000293,5.999999999999947 L -2.0000000000000293,5.999999999999956 L -2.0000000000000377,4.999999999999956 L -2.000000000000046,3.9999999999999556 L -1.0000000000000462,3.999999999999947 L -1.0000000000000546,2.999999999999947 L -5.46229728115577e-14,2.9999999999999387 L -4.5989212877568874e-14,3.9999999999999387 L -3.7355452943580046e-14,4.999999999999939 L -1.0000000000000373,4.999999999999948 L -2.0000000000000373,4.9999999999999565 L -2.000000000000046,3.9999999999999565 L -3.000000000000046,3.9999999999999654 L -3.000000000000055,2.9999999999999654 L -2.000000000000055,2.9999999999999565 L -1.000000000000055,2.9999999999999476 L -5.5067062021407764e-14,2.9999999999999387 L 0.9999999999999449,2.99999999999993 L 0.9999999999999538,3.99999999999993 L 1.9999999999999538,3.999999999999921 L 1.9999999999999627,4.999999999999921 L 0.9999999999999627,4.99999999999993 L -3.730349362740526e-14,4.999999999999939 L -4.630464760113829e-14,3.9999999999999387 L -5.5305801574871327e-14,2.9999999999999387 L 0.9999999999999447,2.99999999999993 L 0.9999999999999357,1.9999999999999298 L 1.9999999999999356,1.9999999999999207 L 1.9999999999999447,2.999999999999921 L 1.9999999999999538,3.999999999999921 L 1.999999999999963,4.999999999999921 L 1.999999999999972,5.999999999999921 L 0.999999999999972,5.99999999999993 L 0.9999999999999811,6.99999999999993 L -1.887379141862766e-14,6.999999999999939 L -2.8119874752190165e-14,5.999999999999939 L -3.736595808575267e-14,4.999999999999939 L 0.9999999999999626,4.99999999999993 L 1.9999999999999627,4.999999999999921 L 1.999999999999972,5.999999999999921 L 2.999999999999972,5.999999999999912 L 2.9999999999999813,6.999999999999912 L 1.9999999999999813,6.999999999999922 L 0.9999999999999813,6.999999999999932 L 0.9999999999999907,7.999999999999932 L 1.0,8.999999999999932 L 0.0,8.999999999999941 L 9.36854801347724e-15,9.999999999999941 L -0.9999999999999907,9.99999999999995 L -1.0000000000000002,8.99999999999995 L -1.0000000000000098,7.99999999999995 L -9.769962616701378e-15,7.9999999999999405 L 0.9999999999999902,7.999999999999931 L 0.9999999999999999,8.99999999999993 L 2.0,8.999999999999922 L 2.0000000000000098,9.999999999999922 L 1.0000000000000098,9.99999999999993 L 9.769962616701378e-15,9.99999999999994 L 3.40205634799317e-17,8.99999999999994 L -9.701921489741514e-15,7.99999999999994 L 0.9999999999999903,7.99999999999993 L 0.9999999999999806,6.99999999999993 L 1.9999999999999805,6.99999999999992 L 1.9999999999999902,7.99999999999992 L 2.0,8.99999999999992 L 2.0000000000000098,9.99999999999992 L 2.0000000000000195,10.99999999999992 L 1.0000000000000195,10.99999999999993 L 1.0000000000000293,11.99999999999993 L 2.930988785010413e-14,11.999999999999941 L 1.9329016437053218e-14,10.999999999999941 L 9.348145024002302e-15,9.999999999999941 L -0.9999999999999907,9.999999999999952 L -1.9999999999999907,9.999999999999963 L -2.0000000000000004,8.999999999999963 L -3.0000000000000004,8.999999999999973 L -3.00000000000001,7.999999999999973 L -2.00000000000001,7.999999999999964 L -1.0000000000000102,7.999999999999954 L -1.021405182655144e-14,7.999999999999944 L 0.9999999999999898,7.999999999999934 L 0.9999999999999999,8.999999999999934 L 2.0,8.999999999999924 L 2.00000000000001,9.999999999999924 L 1.0000000000000102,9.999999999999934 L 1.021405182655144e-14,9.999999999999945 L -1.1748946328946277e-17,8.999999999999945 L -1.0237549719209333e-14,7.999999999999945 L 0.9999999999999898,7.999999999999934 L 0.9999999999999796,6.999999999999934 L 1.9999999999999796,6.999999999999924 L 1.99999999999999,7.999999999999924 L 2.0000000000000004,8.999999999999924 L 3.0000000000000004,8.999999999999913 L 4.0,8.999999999999902 L 4.000000000000011,9.999999999999902 L 5.000000000000011,9.999999999999892 L 5.000000000000021,10.999999999999892 L 4.000000000000021,10.999999999999902 L 3.0000000000000213,10.999999999999913 L 3.0000000000000107,9.999999999999913 L 3.0,8.999999999999913 L 4.0,8.999999999999902 L 3.9999999999999893,7.999999999999902 L 4.999999999999989,7.999999999999892 L 5.0,8.999999999999892 L 5.000000000000011,9.999999999999892 L 4.000000000000011,9.999999999999902 L 3.0000000000000107,9.999999999999913 L 3.0,8.999999999999913 L 2.0,8.999999999999924 L 1.9999999999999893,7.999999999999924 L 2.9999999999999893,7.999999999999913 L 3.9999999999999893,7.999999999999902 L 4.999999999999989,7.999999999999892 L 5.999999999999989,7.999999999999881 L 6.0,8.999999999999881 L 7.0,8.99999999999987 L 7.000000000000011,9.99999999999987 L 6.000000000000011,9.999999999999881 L 5.000000000000011,9.999999999999892 L 5.0,8.999999999999892 L 4.999999999999989,7.999999999999892 L 5.999999999999989,7.999999999999881 L 5.999999999999979,6.999999999999881 L 6.999999999999979,6.99999999999987 L 6.999999999999989,7.99999999999987 L 7.0,8.99999999999987 L 7.000000000000011,9.99999999999987 L 7.000000000000021,10.99999999999987 L 6.000000000000021,10.999999999999881 L 6.000000000000032,11.999999999999881 L 5.000000000000032,11.999999999999892 L 5.00000000000002,10.999999999999892 L 5.000000000000009,9.999999999999892 L 6.000000000000009,9.999999999999881 L 7.000000000000009,9.99999999999987 L 7.00000000000002,10.99999999999987 L 8.000000000000021,10.99999999999986 L 8.000000000000032,11.99999999999986 L 7.000000000000032,11.99999999999987 L 6.000000000000032,11.999999999999881 L 6.0000000000000435,12.999999999999881 L 6.000000000000055,13.999999999999881 L 5.000000000000055,13.999999999999892 L 5.000000000000067,14.999999999999892 L 4.000000000000067,14.999999999999902 L 4.000000000000055,13.999999999999902 L 4.0000000000000435,12.999999999999902 L 5.0000000000000435,12.999999999999892 L 6.0000000000000435,12.999999999999881 L 6.000000000000055,13.999999999999881 L 7.000000000000055,13.99999999999987 L 7.000000000000067,14.99999999999987 L 6.000000000000067,14.999999999999883 L 5.000000000000067,14.999999999999895 L 5.000000000000055,13.999999999999895 L 5.0000000000000435,12.999999999999895 L 6.0000000000000435,12.999999999999883 L 6.000000000000032,11.999999999999883 L 7.000000000000032,11.99999999999987 L 7.0000000000000435,12.99999999999987 L 7.000000000000055,13.99999999999987 L 7.000000000000067,14.99999999999987 L 7.000000000000078,15.99999999999987 L 6.000000000000078,15.999999999999883 L 6.00000000000009,16.999999999999883 L 5.00000000000009,16.999999999999893 L 5.000000000000078,15.999999999999893 L 5.000000000000067,14.999999999999893 L 6.000000000000067,14.999999999999881 L 7.000000000000067,14.999999999999869 L 7.000000000000079,15.999999999999869 L 8.000000000000078,15.999999999999856 L 8.00000000000009,16.999999999999858 L 7.000000000000091,16.99999999999987 L 6.000000000000091,16.99999999999988 L 5.000000000000091,16.99999999999989 L 4.000000000000091,16.9999999999999 L 4.000000000000078,15.9999999999999 L 3.000000000000078,15.999999999999913 L 3.000000000000066,14.999999999999913 L 4.000000000000066,14.9999999999999 L 5.000000000000066,14.999999999999888 L 5.000000000000078,15.999999999999888 L 5.000000000000091,16.999999999999886 L 4.000000000000091,16.999999999999897 L 4.000000000000103,17.999999999999897 L 3.000000000000103,17.999999999999908 L 3.0000000000000906,16.999999999999908 L 3.000000000000078,15.999999999999908 L 2.000000000000078,15.99999999999992 L 1.0000000000000782,15.999999999999932 L 1.0000000000000657,14.999999999999932 L 6.572520305780927e-14,14.999999999999945 L 5.329503804646365e-14,13.999999999999945 L 1.0000000000000533,13.999999999999932 L 2.0000000000000533,13.99999999999992 L 2.0000000000000657,14.99999999999992 L 2.000000000000078,15.99999999999992 L 1.0000000000000782,15.999999999999932 L 1.0000000000000908,16.999999999999932 L 9.08162434143378e-14,16.999999999999947 L 7.814114904316272e-14,15.999999999999947 L 6.546605467198763e-14,14.999999999999947 L 1.0000000000000655,14.999999999999934 L 2.0000000000000657,14.999999999999922 L 2.0000000000000786,15.999999999999922 L 3.0000000000000786,15.99999999999991 L 3.0000000000000915,16.999999999999908 L 2.0000000000000915,16.999999999999922 L 1.0000000000000915,16.999999999999936 L 9.14823772291129e-14,16.99999999999995 L -0.9999999999999085,16.999999999999964 L -0.9999999999999214,15.999999999999964 L -1.9999999999999214,15.999999999999977 L -1.9999999999999343,14.999999999999977 L -0.9999999999999343,14.999999999999964 L 6.572520305780927e-14,14.999999999999952 L 1.0000000000000657,14.99999999999994 L 2.0000000000000657,14.999999999999927 L 2.0000000000000786,15.999999999999927 L 3.0000000000000786,15.999999999999915 L 3.0000000000000915,16.999999999999915 L 2.0000000000000915,16.99999999999993 L 1.0000000000000915,16.999999999999943 L 9.14823772291129e-14,16.999999999999957 L -0.9999999999999085,16.99999999999997 L -0.9999999999999217,15.999999999999972 L -1.9999999999999218,15.999999999999984 L -1.999999999999935,14.999999999999984 L -0.9999999999999349,14.999999999999972 L 6.505906924303417e-14,14.99999999999996 L 7.834648701378294e-14,15.99999999999996 L 9.16339047845317e-14,16.999999999999957 L -0.9999999999999084,16.99999999999997 L -0.9999999999998951,17.99999999999997 L -1.9999999999998952,17.999999999999986 L -1.9999999999999085,16.999999999999986 L -1.9999999999999218,15.999999999999986 L -2.999999999999922,16.0 L -3.999999999999922,16.000000000000014 L -3.999999999999935,15.000000000000014 L -4.999999999999935,15.000000000000028 L -4.9999999999999485,14.000000000000028 L -3.9999999999999485,14.000000000000014 L -2.9999999999999485,14.0 L -2.999999999999935,15.0 L -2.999999999999922,16.0 L -3.999999999999922,16.000000000000014 L -3.9999999999999085,17.000000000000014 L -4.9999999999999085,17.00000000000003 L -4.999999999999922,16.00000000000003 L -4.999999999999935,15.000000000000028 L -3.999999999999935,15.000000000000014 L -2.999999999999935,15.0 L -2.9999999999999214,16.0 L -1.9999999999999214,15.999999999999986 L -1.9999999999999076,16.999999999999986 L -2.9999999999999076,17.0 L -3.9999999999999076,17.000000000000014 L -4.999999999999908,17.00000000000003 L -5.999999999999908,17.000000000000043 L -5.999999999999922,16.000000000000043 L -6.999999999999922,16.000000000000057 L -6.999999999999936,15.000000000000057 L -5.999999999999936,15.000000000000043 L -4.999999999999936,15.000000000000028 L -4.999999999999922,16.00000000000003 L -4.999999999999908,17.00000000000003 L -5.999999999999908,17.000000000000043 L -5.999999999999893,18.000000000000043 L -6.999999999999893,18.000000000000057 L -6.999999999999908,17.000000000000057 L -6.999999999999922,16.000000000000057 L -6.999999999999936,15.000000000000057 L -6.99999999999995,14.000000000000057 L -5.99999999999995,14.000000000000043 L -5.9999999999999645,13.000000000000043 L -4.9999999999999645,13.000000000000028 L -4.99999999999995,14.000000000000028 L -4.999999999999936,15.000000000000028 L -5.999999999999936,15.000000000000043 L -6.999999999999936,15.000000000000057 L -6.99999999999995,14.000000000000057 L -7.99999999999995,14.000000000000071 L -7.9999999999999645,13.000000000000071 L -6.9999999999999645,13.000000000000057 L -5.9999999999999645,13.000000000000043 L -5.999999999999979,12.000000000000043 L -5.999999999999993,11.000000000000043 L -4.999999999999993,11.000000000000028 L -5.000000000000007,10.000000000000028 L -4.000000000000007,10.000000000000014 L -3.9999999999999925,11.000000000000014 L -3.999999999999978,12.000000000000014 L -4.999999999999978,12.000000000000028 L -5.999999999999978,12.000000000000043 L -5.999999999999992,11.000000000000043 L -6.999999999999992,11.000000000000057 L -7.000000000000006,10.000000000000057 L -6.000000000000006,10.000000000000043 L -5.000000000000006,10.000000000000028 L -4.999999999999991,11.000000000000028 L -4.999999999999976,12.000000000000028 L -5.999999999999976,12.000000000000043 L -5.999999999999961,13.000000000000043 L -6.999999999999961,13.000000000000057 L -6.999999999999976,12.000000000000057 L -6.999999999999991,11.000000000000057 L -7.000000000000006,10.000000000000057 L -7.000000000000021,9.000000000000057 L -6.000000000000021,9.000000000000043 L -6.000000000000036,8.000000000000043 L -5.000000000000036,8.000000000000028 L -5.000000000000021,9.000000000000028 L -5.000000000000006,10.000000000000028 L -4.999999999999991,11.000000000000028 L -4.999999999999976,12.000000000000028 L -5.999999999999976,12.000000000000043 L -5.999999999999961,13.000000000000043 L -6.999999999999961,13.000000000000057 L -6.999999999999976,12.000000000000057 L -6.999999999999991,11.000000000000057 L -7.000000000000006,10.000000000000057 L -7.000000000000021,9.000000000000057 L -6.000000000000021,9.00000000000004 L -6.000000000000036,8.00000000000004 L -5.000000000000036,8.000000000000025 L -5.000000000000021,9.000000000000025 L -5.000000000000006,10.000000000000025 L -6.000000000000006,10.00000000000004 L -7.000000000000006,10.000000000000057 L -7.000000000000021,9.000000000000057 L -8.000000000000021,9.000000000000073 L -8.000000000000037,8.000000000000073 L -7.000000000000037,8.000000000000057 L -6.000000000000037,8.00000000000004 L -6.000000000000052,7.000000000000041 L -6.0000000000000675,6.000000000000041 L -5.0000000000000675,6.000000000000026 L -5.000000000000083,5.000000000000026 L -4.000000000000083,5.000000000000011 L -4.0000000000000675,6.000000000000011 L -4.000000000000052,7.000000000000011 L -5.000000000000052,7.000000000000027 L -6.000000000000052,7.000000000000043 L -6.000000000000068,6.000000000000043 L -7.000000000000068,6.000000000000059 L -7.000000000000084,5.000000000000059 L -6.000000000000084,5.000000000000043 L -5.000000000000084,5.000000000000027 L -5.000000000000068,6.000000000000027 L -5.000000000000052,7.000000000000027 L -6.000000000000052,7.000000000000043 L -6.000000000000036,8.000000000000043 L -7.000000000000036,8.000000000000059 L -7.000000000000052,7.000000000000059 L -7.000000000000068,6.000000000000059 L -7.000000000000084,5.000000000000059 L -7.0000000000001,4.000000000000059 L -6.0000000000001,4.000000000000043 L -6.000000000000116,3.0000000000000426 L -5.000000000000116,3.0000000000000266 L -5.0000000000001,4.000000000000027 L -5.000000000000084,5.000000000000027 L -6.000000000000084,5.000000000000043 L -7.000000000000084,5.000000000000059 L -7.0000000000001,4.000000000000059 L -8.0000000000001,4.000000000000075 L -8.000000000000115,3.0000000000000746 L -7.0000000000001155,3.0000000000000586 L -6.0000000000001155,3.0000000000000426 L -5.0000000000001155,3.0000000000000266 L -4.0000000000001155,3.0000000000000107 L -4.0000000000000995,4.000000000000011 L -3.0000000000000995,3.9999999999999947 L -3.000000000000083,4.999999999999995 L -4.0000000000000835,5.000000000000011 L -5.0000000000000835,5.000000000000027 L -5.0000000000000995,4.000000000000027 L -5.0000000000001155,3.0000000000000266 L -4.0000000000001155,3.00000000000001 L -4.0000000000001315,2.00000000000001 L -3.0000000000001315,1.9999999999999938 L -3.000000000000115,2.999999999999994 L -3.0000000000000986,3.999999999999994 L -2.0000000000000986,3.9999999999999774 L -1.0000000000000986,3.999999999999961 L -1.0000000000000822,4.999999999999961 L -8.215650382226158e-14,4.999999999999945 L -6.568500437372971e-14,5.999999999999945 L -1.0000000000000657,5.999999999999962 L -2.0000000000000657,5.999999999999979 L -2.000000000000082,4.999999999999979 L -2.0000000000000986,3.9999999999999787 L -1.0000000000000986,3.999999999999962 L -1.0000000000001152,2.999999999999962 L -1.1524114995609125e-13,2.999999999999945 L -9.85247211477299e-14,3.999999999999945 L -8.180829233936855e-14,4.999999999999945 L -1.0000000000000817,4.999999999999962 L -2.0000000000000817,4.999999999999979 L -2.0000000000000986,3.9999999999999787 L -3.0000000000000986,3.9999999999999956 L -3.0000000000001155,2.9999999999999956 L -2.0000000000001155,2.9999999999999787 L -1.0000000000001155,2.999999999999962 L -1.1546319456101628e-13,2.999999999999945 L 0.9999999999998845,2.999999999999928 L 0.9999999999999015,3.999999999999928 L 1.9999999999999014,3.999999999999911 L 1.9999999999999183,4.999999999999911 L 0.9999999999999183,4.999999999999928 L -8.171241461241152e-14,4.999999999999945 L -6.47510564442207e-14,5.999999999999945 L -4.7789698276029885e-14,6.999999999999945 L -1.0000000000000477,6.999999999999962 L -1.0000000000000309,7.999999999999962 L -2.000000000000031,7.999999999999979 L -2.000000000000048,6.999999999999979 L -2.000000000000065,5.999999999999979 L -2.0000000000000817,4.999999999999979 L -2.0000000000000986,3.9999999999999787 L -1.0000000000000986,3.9999999999999614 L -1.0000000000001157,2.9999999999999614 L -1.156852391659413e-13,2.999999999999944 L -9.847895163792102e-14,3.999999999999944 L -8.127266410990073e-14,4.999999999999944 L -1.0000000000000813,4.999999999999961 L -2.0000000000000813,4.999999999999978 L -2.0000000000000986,3.999999999999978 L -3.0000000000000986,3.999999999999995 L -3.000000000000116,2.999999999999995 L -2.000000000000116,2.999999999999978 L -1.000000000000116,2.9999999999999605 L -1.0000000000001332,1.9999999999999605 L -1.0000000000001505,0.9999999999999605 L -1.5054624213917123e-13,0.999999999999943 L -1.6787499434710626e-13,-5.695444116327053e-14 L 0.9999999999998321,-7.434442571116292e-14 L 0.9999999999998496,0.9999999999999256 L 0.999999999999867,1.9999999999999256 L -1.3300471835009375e-13,1.9999999999999432 L -1.000000000000133,1.9999999999999607 L -1.0000000000001505,0.9999999999999607 L -2.0000000000001505,0.9999999999999782 L -2.0000000000001683,-2.1760371282653068e-14 L -1.0000000000001683,-3.939528519037493e-14 L -1.6830981053317373e-13,-5.703019909809679e-14 L -1.506136642854945e-13,0.9999999999999429 L -1.3291751803781525e-13,1.999999999999943 L -1.000000000000133,1.9999999999999607 L -1.0000000000001152,2.999999999999961 L -2.0000000000001155,2.9999999999999787 L -2.0000000000001332,1.9999999999999787 L -2.000000000000151,0.9999999999999787 L -2.0000000000001688,-2.1316282072803006e-14 L -2.0000000000001865,-1.0000000000000213 L -1.0000000000001865,-1.0000000000000393 L -1.0000000000002043,-2.000000000000039 L -2.042810365310288e-13,-2.000000000000057 L -1.863399609235201e-13,-1.0000000000000568 L -1.6839888531601138e-13,-5.684341886080802e-14 L -1.0000000000001683,-3.884111091334195e-14 L -2.0000000000001683,-2.0838802965875878e-14 L -2.0000000000001865,-1.0000000000000209 L -3.0000000000001865,-1.0000000000000029 L -3.0000000000002047,-2.0000000000000027 L -2.0000000000002047,-2.000000000000021 L -1.0000000000002047,-2.000000000000039 L -2.0472512574087887e-13,-2.0000000000000573 L 0.9999999999997953,-2.0000000000000755 L 0.9999999999998135,-1.0000000000000755 L 1.9999999999998135,-1.0000000000000937 L 1.9999999999998317,-9.370282327836321e-14 L 0.9999999999998317,-7.545558597106767e-14 L -1.6830981053317373e-13,-5.720834866377214e-14 L -1.8661828018042665e-13,-1.0000000000000573 L -2.0492674982767957e-13,-2.0000000000000573 L 0.999999999999795,-2.0000000000000755 L 0.9999999999997767,-3.0000000000000755 L 1.9999999999997766,-3.0000000000000937 L 1.999999999999795,-2.0000000000000937 L 1.9999999999998135,-1.0000000000000937 L 2.9999999999998135,-1.0000000000001121 L 3.9999999999998135,-1.0000000000001306 L 3.999999999999832,-1.305622276959184e-13 L 4.999999999999832,-1.4893192968312868e-13 L 4.999999999999851,0.9999999999998511 L 3.999999999999851,0.9999999999998697 L 2.999999999999851,0.9999999999998882 L 2.999999999999832,-1.1179945857975326e-13 L 2.9999999999998135,-1.000000000000112 L 3.9999999999998135,-1.0000000000001306 L 3.999999999999795,-2.0000000000001306 L 4.999999999999795,-2.000000000000149 L 4.9999999999998135,-1.0000000000001492 L 4.999999999999832,-1.4921397450962104e-13 L 3.999999999999832,-1.3047687848266656e-13 L 2.999999999999832,-1.1173978245571208e-13 L 2.9999999999998135,-1.0000000000001117 L 1.9999999999998135,-1.000000000000093 L 1.9999999999997946,-2.0000000000000933 L 2.999999999999795,-2.000000000000112 L 3.999999999999795,-2.0000000000001306 L 4.999999999999795,-2.000000000000149 L 5.999999999999795,-2.000000000000168 L 5.9999999999998135,-1.0000000000001679 L 6.9999999999998135,-1.0000000000001867 L 6.999999999999832,-1.8673951274195133e-13 L 5.999999999999832,-1.6775748735516738e-13 L 4.999999999999832,-1.4877546196838343e-13 L 4.9999999999998135,-1.0000000000001488 L 4.999999999999795,-2.0000000000001488 L 5.999999999999795,-2.000000000000168 L 5.999999999999776,-3.000000000000168 L 6.999999999999776,-3.000000000000187 L 6.999999999999796,-2.000000000000187 L 6.999999999999815,-1.000000000000187 L 6.999999999999835,-1.8696155734687636e-13 L 6.999999999999854,0.999999999999813 L 5.999999999999854,0.9999999999998322 L 5.999999999999874,1.9999999999998321 L 4.999999999999874,1.9999999999998515 L 4.999999999999854,0.9999999999998515 L 4.999999999999835,-1.4854784069484595e-13 L 5.999999999999835,-1.678972601213741e-13 L 6.999999999999835,-1.8724667954790225e-13 L 6.999999999999854,0.9999999999998127 L 7.999999999999854,0.9999999999997934 L 7.999999999999874,1.9999999999997935 L 6.999999999999874,1.999999999999813 L 5.999999999999874,1.9999999999998326 L 5.999999999999893,2.9999999999998326 L 5.999999999999913,3.9999999999998326 L 4.999999999999913,3.999999999999852 L 4.9999999999999325,4.999999999999853 L 3.9999999999999325,4.999999999999872 L 3.999999999999913,3.999999999999872 L 3.9999999999998934,2.999999999999872 L 4.999999999999893,2.9999999999998526 L 5.999999999999893,2.999999999999833 L 5.999999999999913,3.999999999999833 L 6.999999999999913,3.9999999999998135 L 6.9999999999999325,4.9999999999998135 L 5.9999999999999325,4.999999999999833 L 4.9999999999999325,4.999999999999853 L 4.999999999999913,3.9999999999998526 L 4.999999999999893,2.9999999999998526 L 5.999999999999893,2.9999999999998326 L 5.999999999999874,1.9999999999998326 L 6.999999999999874,1.9999999999998128 L 6.999999999999893,2.9999999999998126 L 6.999999999999913,3.9999999999998126 L 6.9999999999999325,4.999999999999813 L 6.999999999999952,5.999999999999813 L 5.999999999999952,5.999999999999832 L 5.999999999999972,6.999999999999832 L 4.999999999999972,6.999999999999852 L 4.999999999999951,5.999999999999852 L 4.999999999999931,4.999999999999852 L 4.99999999999991,3.9999999999998517 L 4.99999999999989,2.9999999999998517 L 5.99999999999989,2.9999999999998317 L 5.999999999999869,1.9999999999998317 L 6.999999999999869,1.9999999999998117 L 6.99999999999989,2.9999999999998117 L 6.99999999999991,3.9999999999998117 L 6.999999999999931,4.999999999999812 L 6.999999999999951,5.999999999999812 L 5.999999999999951,5.999999999999832 L 5.999999999999972,6.999999999999832 L 4.999999999999972,6.999999999999853 L 4.999999999999951,5.999999999999853 L 4.999999999999931,4.999999999999853 L 5.999999999999931,4.999999999999832 L 6.999999999999931,4.999999999999812 L 6.999999999999951,5.999999999999812 L 7.999999999999951,5.999999999999791 L 7.999999999999972,6.999999999999791 L 6.999999999999972,6.999999999999812 L 5.999999999999972,6.999999999999832 L 5.999999999999992,7.999999999999832 L 6.000000000000012,8.999999999999833 L 5.000000000000012,8.999999999999854 L 5.000000000000033,9.999999999999854 L 4.000000000000033,9.999999999999876 L 4.000000000000012,8.999999999999876 L 3.999999999999992,7.999999999999876 L 4.999999999999992,7.999999999999855 L 5.999999999999992,7.999999999999835 L 6.000000000000012,8.999999999999835 L 7.000000000000012,8.999999999999813 L 7.000000000000033,9.999999999999813 L 6.000000000000033,9.999999999999835 L 5.000000000000033,9.999999999999856 L 5.000000000000012,8.999999999999856 L 4.999999999999992,7.999999999999856 L 5.999999999999992,7.999999999999836 L 5.999999999999972,6.999999999999836 L 6.999999999999972,6.999999999999815 L 6.999999999999993,7.999999999999815 L 7.000000000000014,8.999999999999815 L 7.0000000000000355,9.999999999999815 L 7.000000000000057,10.999999999999815 L 6.000000000000057,10.999999999999837 L 6.000000000000078,11.999999999999837 L 5.000000000000078,11.999999999999858 L 5.000000000000057,10.999999999999858 L 5.0000000000000355,9.999999999999858 L 6.0000000000000355,9.999999999999837 L 7.0000000000000355,9.999999999999815 L 7.000000000000057,10.999999999999815 L 8.000000000000057,10.999999999999794 L 8.000000000000078,11.999999999999794 L 7.000000000000078,11.999999999999815 L 6.000000000000078,11.999999999999837 L 5.000000000000078,11.999999999999858 L 4.000000000000078,11.99999999999988 L 4.000000000000057,10.99999999999988 L 3.000000000000057,10.9999999999999 L 3.0000000000000355,9.9999999999999 L 4.0000000000000355,9.99999999999988 L 5.0000000000000355,9.999999999999858 L 5.000000000000057,10.999999999999858 L 5.000000000000078,11.999999999999858 L 4.000000000000078,11.99999999999988 L 4.0000000000000995,12.99999999999988 L 3.0000000000000995,12.9999999999999 L 3.000000000000078,11.9999999999999 L 3.000000000000057,10.9999999999999 L 2.000000000000057,10.999999999999922 L 1.0000000000000568,10.999999999999943 L 1.0000000000000353,9.999999999999943 L 3.530509218307998e-14,9.999999999999964 L 1.3812540858043956e-14,8.999999999999964 L 1.0000000000000138,8.999999999999943 L 2.0000000000000138,8.999999999999922 L 2.0000000000000355,9.999999999999922 L 2.0000000000000573,10.999999999999922 L 1.0000000000000573,10.999999999999943 L 1.0000000000000788,11.999999999999943 L 7.882583474838611e-14,11.999999999999964 L 5.708835406352063e-14,10.999999999999964 L 3.5350873378655137e-14,9.999999999999964 L 1.0000000000000353,9.999999999999943 L 2.0000000000000355,9.999999999999922 L 2.0000000000000573,10.999999999999922 L 3.0000000000000573,10.9999999999999 L 3.000000000000079,11.9999999999999 L 2.000000000000079,11.999999999999922 L 1.000000000000079,11.999999999999943 L 7.904787935331115e-14,11.999999999999964 L -0.999999999999921,11.999999999999986 L -0.9999999999999429,10.999999999999986 L -1.999999999999943,11.000000000000007 L -1.999999999999965,10.000000000000007 L -0.9999999999999649,9.999999999999986 L 3.5083047578154947e-14,9.999999999999964 L 1.000000000000035,9.999999999999943 L 2.000000000000035,9.999999999999922 L 2.0000000000000573,10.999999999999922 L 3.0000000000000573,10.9999999999999 L 3.0000000000000795,11.9999999999999 L 2.0000000000000795,11.999999999999922 L 1.0000000000000795,11.999999999999943 L 7.949196856316121e-14,11.999999999999964 L -0.9999999999999205,11.999999999999986 L -0.9999999999999427,10.999999999999986 L -1.9999999999999427,11.000000000000007 L -1.999999999999965,10.000000000000007 L -0.9999999999999649,9.999999999999984 L 3.5083047578154947e-14,9.999999999999961 L 5.743285166259411e-14,10.999999999999961 L 7.978265574703328e-14,11.999999999999961 L -0.9999999999999202,11.999999999999984 L -0.9999999999998979,12.999999999999984 L -1.9999999999998979,13.000000000000007 L -1.9999999999999203,12.000000000000007 L -1.9999999999999427,11.000000000000007 L -2.9999999999999427,11.00000000000003 L -3.9999999999999427,11.000000000000053 L -3.9999999999999654,10.000000000000053 L -4.999999999999965,10.000000000000076 L -4.999999999999988,9.000000000000076 L -3.9999999999999876,9.000000000000053 L -2.9999999999999876,9.00000000000003 L -2.999999999999965,10.00000000000003 L -2.9999999999999423,11.00000000000003 L -3.9999999999999423,11.000000000000053 L -3.9999999999999196,12.000000000000053 L -4.99999999999992,12.000000000000076 L -4.999999999999943,11.000000000000076 L -4.999999999999966,10.000000000000076 L -3.9999999999999662,10.000000000000053 L -2.9999999999999662,10.00000000000003 L -2.9999999999999436,11.00000000000003 L -1.9999999999999436,11.000000000000007 L -1.9999999999999207,12.000000000000007 L -2.999999999999921,12.00000000000003 L -3.999999999999921,12.000000000000053 L -4.999999999999921,12.000000000000076 L -5.999999999999921,12.0000000000001 L -5.999999999999944,11.0000000000001 L -6.999999999999944,11.000000000000123 L -6.999999999999967,10.000000000000123 L -5.999999999999967,10.0000000000001 L -4.999999999999967,10.000000000000076 L -4.999999999999944,11.000000000000076 L -4.999999999999921,12.000000000000076 L -5.999999999999921,12.0000000000001 L -5.999999999999898,13.0000000000001 L -6.999999999999898,13.000000000000123 L -6.999999999999921,12.000000000000123 L -6.999999999999944,11.000000000000123 L -6.999999999999967,10.000000000000123 L -6.99999999999999,9.000000000000123 L -5.99999999999999,9.0000000000001 L -6.000000000000013,8.0000000000001 L -5.000000000000013,8.000000000000076 L -4.99999999999999,9.000000000000076 L -4.999999999999967,10.000000000000076 L -5.999999999999967,10.0000000000001 L -6.999999999999967,10.000000000000123 L -6.99999999999999,9.000000000000123 L -7.99999999999999,9.000000000000146 L -8.000000000000014,8.000000000000146 L -7.000000000000014,8.000000000000123 L -6.000000000000014,8.0000000000001 L -6.000000000000037,7.0000000000000995 L -6.00000000000006,6.0000000000000995 L -5.00000000000006,6.000000000000076 L -5.0000000000000835,5.000000000000076 L -4.0000000000000835,5.000000000000053 L -4.0000000000000595,6.000000000000053 L -4.0000000000000355,7.000000000000053 L -5.0000000000000355,7.000000000000077 L -6.0000000000000355,7.000000000000101 L -6.0000000000000595,6.000000000000101 L -7.0000000000000595,6.000000000000125 L -7.0000000000000835,5.000000000000125 L -6.0000000000000835,5.000000000000101 L -5.0000000000000835,5.000000000000077 L -5.0000000000000595,6.000000000000077 L -5.0000000000000355,7.000000000000077 L -6.0000000000000355,7.000000000000101 L -6.0000000000000115,8.000000000000101 L -7.0000000000000115,8.000000000000124 L -7.0000000000000355,7.000000000000124 L -7.0000000000000595,6.000000000000124 L -7.0000000000000835,5.000000000000124 L -7.0000000000001075,4.000000000000124 L -6.0000000000001075,4.0000000000001 L -6.0000000000001315,3.0000000000001004 L -5.0000000000001315,3.0000000000000764 L -5.0000000000001075,4.000000000000076 L -5.0000000000000835,5.000000000000076 L -4.0000000000000835,5.000000000000052 L -3.0000000000000835,5.000000000000028 L -3.0000000000000595,6.000000000000028 L -2.0000000000000595,6.000000000000004 L -2.0000000000000355,7.000000000000004 L -3.0000000000000355,7.000000000000028 L -4.0000000000000355,7.000000000000052 L -5.0000000000000355,7.000000000000076 L -6.0000000000000355,7.0000000000001 L -6.0000000000000595,6.0000000000001 L -7.0000000000000595,6.000000000000124 L -7.0000000000000835,5.000000000000124 L -6.0000000000000835,5.0000000000001 L -5.0000000000000835,5.000000000000076 L -5.0000000000000595,6.000000000000076 L -5.0000000000000355,7.000000000000076 L -6.0000000000000355,7.0000000000001 L -6.0000000000000115,8.0000000000001 L -7.0000000000000115,8.000000000000124 L -7.000000000000036,7.000000000000124 L -7.000000000000061,6.000000000000124 L -8.00000000000006,6.000000000000148 L -9.00000000000006,6.000000000000172 L -9.000000000000085,5.000000000000172 L -10.000000000000085,5.000000000000196 L -10.00000000000011,4.000000000000196 L -9.00000000000011,4.000000000000171 L -8.00000000000011,4.0000000000001465 L -8.000000000000085,5.0000000000001465 L -8.00000000000006,6.0000000000001465 L -9.00000000000006,6.000000000000171 L -9.000000000000036,7.000000000000171 L -10.000000000000036,7.000000000000196 L -10.00000000000006,6.000000000000196 L -10.000000000000085,5.000000000000196 L -9.000000000000085,5.000000000000171 L -8.000000000000085,5.0000000000001465 L -8.00000000000006,6.0000000000001465 L -7.00000000000006,6.000000000000122 L -7.0000000000000355,7.000000000000122 L -8.000000000000036,7.0000000000001465 L -9.000000000000036,7.000000000000171 L -10.000000000000036,7.000000000000196 L -11.000000000000036,7.000000000000221 L -11.00000000000006,6.000000000000221 L -12.00000000000006,6.000000000000246 L -12.000000000000085,5.000000000000246 L -11.000000000000085,5.000000000000221 L -10.000000000000085,5.000000000000196 L -10.00000000000006,6.000000000000196 L -10.000000000000036,7.000000000000196 L -11.000000000000036,7.000000000000221 L -11.00000000000001,8.00000000000022 L -12.00000000000001,8.000000000000245 L -12.000000000000036,7.000000000000245 L -12.00000000000006,6.000000000000245 L -12.000000000000085,5.000000000000245 L -12.00000000000011,4.000000000000245 L -11.00000000000011,4.00000000000022 L -11.000000000000135,3.0000000000002203 L -10.000000000000135,3.000000000000195 L -10.00000000000011,4.000000000000195 L -10.000000000000085,5.000000000000195 L -11.000000000000085,5.000000000000221 L -12.000000000000085,5.000000000000247 L -12.00000000000011,4.000000000000247 L -13.00000000000011,4.000000000000273 L -13.000000000000135,3.0000000000002727 L -12.000000000000135,3.0000000000002474 L -11.000000000000135,3.000000000000222 L -11.00000000000016,2.000000000000222 L -11.000000000000185,1.000000000000222 L -10.000000000000185,1.0000000000001965 L -10.00000000000021,1.965094753586527e-13 L -9.00000000000021,1.710368219363878e-13 L -9.000000000000185,1.000000000000171 L -9.00000000000016,2.000000000000171 L -10.00000000000016,2.0000000000001967 L -11.00000000000016,2.0000000000002225 L -11.000000000000185,1.0000000000002225 L -12.000000000000185,1.000000000000248 L -12.00000000000021,2.4802382370125997e-13 L -11.00000000000021,2.223062409191656e-13 L -10.00000000000021,1.965886581370712e-13 L -10.000000000000183,1.0000000000001965 L -10.000000000000156,2.0000000000001963 L -11.000000000000156,2.000000000000222 L -11.00000000000013,3.000000000000222 L -12.00000000000013,3.000000000000248 L -12.000000000000156,2.000000000000248 L -12.000000000000183,1.0000000000002478 L -12.00000000000021,2.4780177909633494e-13 L -12.000000000000236,-0.9999999999997522 L -11.000000000000236,-0.9999999999997782 L -11.000000000000263,-1.9999999999997782 L -10.000000000000263,-1.9999999999998042 L -10.000000000000236,-0.9999999999998042 L -10.00000000000021,1.9584334154387761e-13 L -11.00000000000021,2.219283183657162e-13 L -12.00000000000021,2.480132951875548e-13 L -12.000000000000236,-0.999999999999752 L -13.000000000000236,-0.9999999999997259 L -13.000000000000263,-1.999999999999726 L -12.000000000000263,-1.9999999999997522 L -11.000000000000263,-1.9999999999997784 L -10.000000000000263,-1.9999999999998046 L -9.000000000000263,-1.9999999999998308 L -9.000000000000236,-0.9999999999998308 L -8.000000000000236,-0.999999999999857 L -8.00000000000021,1.4299672557172016e-13 L -9.00000000000021,1.6932663175338822e-13 L -10.00000000000021,1.9565653793505628e-13 L -10.000000000000236,-0.9999999999998044 L -10.000000000000263,-1.9999999999998044 L -9.000000000000263,-1.9999999999998308 L -9.00000000000029,-2.999999999999831 L -8.00000000000029,-2.9999999999998574 L -8.000000000000263,-1.9999999999998574 L -8.000000000000236,-0.9999999999998574 L -7.000000000000236,-0.9999999999998839 L -6.000000000000236,-0.9999999999999103 L -6.00000000000021,8.970602038971265e-14 L -5.00000000000021,6.325364952812986e-14 L -5.000000000000183,1.0000000000000633 L -6.000000000000183,1.00000000000009 L -7.000000000000183,1.0000000000001166 L -7.00000000000021,1.1657341758564144e-13 L -7.000000000000236,-0.9999999999998834 L -6.000000000000236,-0.9999999999999101 L -6.000000000000263,-1.99999999999991 L -5.000000000000263,-1.9999999999999367 L -5.000000000000236,-0.9999999999999367 L -5.00000000000021,6.328271240363392e-14 L -6.00000000000021,9.010247730496092e-14 L -7.00000000000021,1.1692224220628792e-13 L -7.000000000000236,-0.9999999999998831 L -8.000000000000236,-0.9999999999998562 L -8.000000000000263,-1.9999999999998561 L -7.000000000000263,-1.999999999999883 L -6.000000000000263,-1.9999999999999098 L -5.000000000000263,-1.9999999999999367 L -4.000000000000263,-1.9999999999999636 L -4.000000000000236,-0.9999999999999636 L -3.0000000000002363,-0.9999999999999906 L -3.000000000000209,9.43689570931383e-15 L -4.00000000000021,3.65015899704703e-14 L -5.00000000000021,6.356628423162677e-14 L -6.00000000000021,9.063097849278323e-14 L -7.00000000000021,1.176956727539397e-13 L -7.000000000000237,-0.9999999999998823 L -8.000000000000238,-0.9999999999998552 L -8.000000000000265,-1.9999999999998552 L -7.000000000000265,-1.9999999999998823 L -6.000000000000265,-1.9999999999999094 L -5.000000000000265,-1.9999999999999365 L -4.000000000000265,-1.9999999999999636 L -4.000000000000237,-0.9999999999999636 L -3.000000000000237,-0.9999999999999908 L -3.00000000000021,9.2148511043888e-15 L -4.00000000000021,3.652447472537474e-14 L -5.00000000000021,6.383409834636068e-14 L -5.000000000000237,-0.9999999999999362 L -5.000000000000265,-1.999999999999936 L -4.000000000000265,-1.9999999999999636 L -4.000000000000292,-2.9999999999999636 L -3.000000000000292,-2.999999999999991 L -3.0000000000002647,-1.9999999999999911 L -3.000000000000237,-0.9999999999999911 L -2.000000000000237,-1.0000000000000187 L -1.0000000000002371,-1.0000000000000462 L -1.0000000000002096,-4.618527782440651e-14 L -2.0961010704922955e-13,-7.361736612530719e-14 L -1.821167864083715e-13,0.9999999999999264 L -1.000000000000182,0.9999999999999539 L -2.000000000000182,0.9999999999999815 L -2.0000000000002096,-1.8540724511240114e-14 L -2.000000000000237,-1.0000000000000187 L -1.0000000000002371,-1.0000000000000464 L -1.0000000000002647,-2.000000000000046 L -2.646771690706373e-13,-2.0000000000000737 L -2.369389190699498e-13,-1.0000000000000737 L -2.0920066906926227e-13,-7.37188088351104e-14 L -1.0000000000002092,-4.5919326494465516e-14 L -2.000000000000209,-1.8119844153820634e-14 L -2.000000000000237,-1.0000000000000182 L -3.000000000000237,-0.9999999999999905 L -3.000000000000265,-1.9999999999999905 L -2.000000000000265,-2.000000000000018 L -1.0000000000002651,-2.000000000000046 L -2.651212582804874e-13,-2.000000000000074 L 0.9999999999997349,-2.000000000000102 L 0.9999999999997629,-1.0000000000001021 L 1.9999999999997629,-1.0000000000001301 L 1.9999999999997908,-1.3011813848606835e-13 L 0.9999999999997908,-1.02073726785594e-13 L -2.091660178393795e-13,-7.402931508511965e-14 " />
    </g>
</svg>
