<?xml version="1.0" encoding="UTF-8"?>
<!DOCTYPE svg PUBLIC "-//W3C//DTD SVG 1.1//EN"
    "http://www.w3.org/Graphics/SVG/1.1/DTD/svg11.dtd">

<svg xmlns="http://www.w3.org/2000/svg" xmlns:xlink="http://www.w3.org/1999/xlink" version="1.1" width="596.1538461538461" height="500" viewBox="-60.0 -50.3225806451613 120.0 100.6451612903226">
    <g>
        <rect x="-60.0" y="-50.3225806451613" width="120.0" height="100.6451612903226" fill="#CBD4C2" />
        <path style="fill:none;stroke:#50514F;stroke-width:0.1px;stroke-linecap:square" d="M 17.74193548387096,25.80645161290322 L 17.74193548387096,22.580645161290317 L 14.516129032258057,22.580645161290317 L 14.516129032258057,25.80645161290322 L 11.290322580645153,25.80645161290322 L 11.290322580645153,29.032258064516125 L 14.516129032258057,29.032258064516125 L 14.516129032258057,32.258064516129025 L 11.290322580645153,32.258064516129025 L 11.290322580645153,35.48387096774193 L 14.516129032258057,35.48387096774193 L 14.516129032258057,32.258064516129025 L 17.74193548387096,32.258064516129025 L 17.74193548387096,35.48387096774193 L 20.967741935483865,35.483870967741936 L 20.967741935483865,38.70967741935484 L 17.74193548387096,38.70967741935484 L 17.74193548387096,41.935483870967744 L 20.967741935483865,41.935483870967744 L 20.967741935483865,38.70967741935484 L 24.19354838709677,38.70967741935484 L 24.19354838709677,35.483870967741936 L 20.967741935483865,35.483870967741936 L 20.96774193548387,32.25806451612903 L 24.193548387096772,32.25806451612903 L 24.193548387096772,35.483870967741936 L 27.419354838709673,35.483870967741936 L 27.419354838709676,32.25806451612903 L 30.64516129032258,32.25806451612904 L 30.64516129032258,35.48387096774194 L 33.87096774193549,35.48387096774194 L 33.87096774193549,38.70967741935485 L 30.64516129032258,38.70967741935485 L 30.64516129032258,41.93548387096775 L 33.87096774193549,41.93548387096775 L 33.87096774193549,38.70967741935485 L 37.09677419354839,38.70967741935485 L 37.09677419354839,35.48387096774194 L 33.87096774193549,35.48387096774194 L 33.87096774193549,32.25806451612904 L 37.09677419354839,32.25806451612904 L 37.09677419354839,29.032258064516135 L 33.87096774193549,29.032258064516135 L 33.87096774193549,32.25806451612904 L 30.64516129032258,32.25806451612904 L 30.64516129032258,29.032258064516135 L 27.419354838709676,29.032258064516128 L 27.419354838709676,25.806451612903224 L 30.64516129032258,25.806451612903228 L 30.64516129032258,29.032258064516128 L 33.87096774193549,29.032258064516135 L 33.87096774193549,25.806451612903228 L 37.09677419354839,25.806451612903228 L 37.09677419354839,22.580645161290324 L 33.87096774193549,22.580645161290324 L 33.87096774193549,19.35483870967742 L 37.09677419354839,19.35483870967742 L 37.09677419354839,22.580645161290324 L 40.322580645161295,22.580645161290327 L 40.322580645161295,19.354838709677423 L 43.5483870967742,19.354838709677423 L 43.5483870967742,22.580645161290327 L 46.7741935483871,22.580645161290327 L 46.7741935483871,25.80645161290323 L 43.5483870967742,25.80645161290323 L 43.5483870967742,29.032258064516135 L 46.7741935483871,29.032258064516135 L 46.7741935483871,25.80645161290323 L 50.00000000000001,25.80645161290323 L 50.00000000000001,22.580645161290327 L 46.7741935483871,22.580645161290327 L 46.7741935483871,19.354838709677423 L 50.00000000000001,19.354838709677423 L 50.00000000000001,16.12903225806452 L 46.7741935483871,16.12903225806452 L 46.7741935483871,19.354838709677423 L 43.5483870967742,19.35483870967742 L 43.5483870967742,16.129032258064516 L 40.322580645161295,16.129032258064512 L 40.322580645161295,12.903225806451612 L 43.5483870967742,12.903225806451612 L 43.5483870967742,9.677419354838708 L 40.322580645161295,9.677419354838708 L 40.322580645161295,12.903225806451612 L 37.09677419354839,12.903225806451612 L 37.09677419354839,16.129032258064512 L 40.322580645161295,16.129032258064516 L 40.322580645161295,19.35483870967742 L 37.09677419354839,19.354838709677416 L 37.09677419354839,16.129032258064512 L 33.87096774193549,16.129032258064512 L 33.87096774193549,19.354838709677416 L 30.64516129032258,19.354838709677416 L 30.64516129032258,16.129032258064512 L 27.419354838709676,16.129032258064512 L 27.419354838709676,12.903225806451607 L 30.64516129032258,12.903225806451609 L 30.64516129032258,16.129032258064512 L 33.87096774193549,16.129032258064512 L 33.87096774193549,12.90322580645161 L 37.09677419354839,12.903225806451612 L 37.09677419354839,9.677419354838706 L 33.87096774193549,9.677419354838706 L 33.87096774193549,6.4516129032258025 L 37.09677419354839,6.4516129032258025 L 37.09677419354839,3.225806451612898 L 33.87096774193549,3.225806451612898 L 33.87096774193549,6.4516129032258025 L 30.64516129032258,6.4516129032258025 L 30.64516129032258,3.225806451612898 L 27.419354838709676,3.225806451612898 L 27.419354838709676,-5.730183352904035e-15 L 30.64516129032258,-5.730183352904035e-15 L 30.64516129032258,3.225806451612898 L 33.87096774193549,3.225806451612898 L 33.87096774193549,-5.730183352904035e-15 L 37.09677419354839,-5.730183352904035e-15 L 37.09677419354839,-3.2258064516129097 L 33.87096774193549,-3.2258064516129097 L 33.87096774193549,-6.451612903225813 L 37.09677419354839,-6.451612903225813 L 37.09677419354839,-3.2258064516129097 L 40.322580645161295,-3.2258064516129097 L 40.322580645161295,-6.451612903225813 L 43.5483870967742,-6.451612903225813 L 43.5483870967742,-3.2258064516129097 L 46.7741935483871,-3.2258064516129097 L 46.7741935483871,-5.730183352904035e-15 L 43.5483870967742,-5.730183352904035e-15 L 43.5483870967742,3.225806451612898 L 46.7741935483871,3.225806451612898 L 46.7741935483871,-5.730183352904035e-15 L 50.00000000000001,-5.730183352904035e-15 L 50.00000000000001,-3.2258064516129097 L 46.7741935483871,-3.2258064516129097 L 46.7741935483871,-6.451612903225813 L 50.00000000000001,-6.451612903225813 L 50.00000000000001,-9.677419354838717 L 46.7741935483871,-9.677419354838717 L 46.7741935483871,-6.451612903225813 L 43.5483870967742,-6.451612903225813 L 43.5483870967742,-9.677419354838717 L 40.322580645161295,-9.677419354838717 L 40.322580645161295,-12.903225806451621 L 43.5483870967742,-12.903225806451621 L 43.5483870967742,-16.129032258064527 L 40.322580645161295,-16.129032258064527 L 40.322580645161295,-12.903225806451621 L 37.09677419354839,-12.903225806451621 L 37.09677419354839,-9.677419354838717 L 40.322580645161295,-9.677419354838717 L 40.322580645161295,-6.451612903225813 L 37.09677419354839,-6.451612903225813 L 37.09677419354839,-9.677419354838717 L 33.87096774193549,-9.677419354838717 L 33.87096774193549,-6.451612903225813 L 30.64516129032258,-6.451612903225813 L 30.64516129032258,-9.677419354838717 L 27.419354838709676,-9.677419354838717 L 27.419354838709676,-12.903225806451621 L 30.64516129032258,-12.903225806451621 L 30.64516129032258,-16.129032258064527 L 27.419354838709676,-16.129032258064527 L 27.419354838709676,-12.903225806451621 L 24.193548387096772,-12.903225806451621 L 24.193548387096772,-9.677419354838717 L 27.419354838709673,-9.677419354838717 L 27.419354838709673,-6.451612903225813 L 24.19354838709677,-6.451612903225813 L 24.19354838709677,-3.2258064516129097 L 27.419354838709673,-3.2258064516129097 L 27.419354838709673,-6.451612903225813 L 30.645161290322577,-6.451612903225813 L 30.645161290322577,-3.2258064516129097 L 33.87096774193548,-3.2258064516129097 L 33.87096774193548,-5.730183352904035e-15 L 30.645161290322577,-5.730183352904035e-15 L 30.645161290322577,-3.2258064516129097 L 27.419354838709673,-3.2258064516129097 L 27.419354838709673,-5.730183352904035e-15 L 24.19354838709677,-5.730183352904035e-15 L 24.193548387096765,3.225806451612898 L 27.419354838709673,3.2258064516129012 L 27.419354838709666,6.451612903225805 L 24.19354838709676,6.451612903225805 L 24.193548387096765,3.2258064516129012 L 20.96774193548386,3.2258064516129012 L 20.967741935483858,6.451612903225805 L 17.741935483870954,6.451612903225805 L 17.741935483870957,3.2258064516129012 L 14.51612903225805,3.2258064516129012 L 14.516129032258053,-2.8650916764520175e-15 L 17.741935483870957,-2.8650916764520175e-15 L 17.741935483870957,3.2258064516129012 L 20.967741935483858,3.2258064516129012 L 20.96774193548386,-2.8650916764520175e-15 L 24.193548387096765,-2.8650916764520175e-15 L 24.193548387096765,-3.225806451612904 L 20.96774193548386,-3.225806451612904 L 20.967741935483865,-6.451612903225808 L 24.19354838709677,-6.451612903225808 L 24.19354838709677,-9.677419354838712 L 20.967741935483865,-9.677419354838712 L 20.96774193548386,-6.451612903225808 L 17.741935483870957,-6.451612903225808 L 17.74193548387096,-9.677419354838712 L 14.516129032258057,-9.677419354838712 L 14.516129032258057,-12.903225806451616 L 17.74193548387096,-12.903225806451616 L 17.74193548387096,-16.12903225806452 L 14.516129032258057,-16.12903225806452 L 14.516129032258057,-12.903225806451616 L 11.290322580645153,-12.903225806451616 L 11.290322580645151,-9.677419354838712 L 14.516129032258057,-9.677419354838712 L 14.516129032258053,-6.451612903225808 L 11.29032258064515,-6.451612903225808 L 11.290322580645151,-9.677419354838712 L 8.064516129032247,-9.677419354838712 L 8.064516129032246,-6.451612903225808 L 4.838709677419342,-6.451612903225808 L 4.838709677419342,-9.677419354838712 L 1.6129032258064375,-9.677419354838712 L 1.6129032258064375,-12.903225806451616 L 4.838709677419342,-12.903225806451616 L 4.838709677419342,-9.677419354838712 L 8.064516129032246,-9.677419354838712 L 8.064516129032247,-12.903225806451616 L 11.290322580645151,-12.903225806451616 L 11.290322580645153,-16.12903225806452 L 8.06451612903225,-16.12903225806452 L 8.06451612903225,-19.354838709677423 L 11.290322580645153,-19.354838709677423 L 11.290322580645155,-22.580645161290327 L 8.064516129032251,-22.580645161290327 L 8.06451612903225,-19.354838709677423 L 4.838709677419346,-19.354838709677423 L 4.838709677419347,-22.580645161290327 L 1.6129032258064433,-22.580645161290327 L 1.6129032258064433,-25.80645161290323 L 4.838709677419347,-25.80645161290323 L 4.838709677419347,-22.580645161290327 L 8.064516129032251,-22.580645161290327 L 8.064516129032253,-25.80645161290323 L 11.290322580645157,-25.80645161290323 L 11.290322580645158,-29.032258064516135 L 8.064516129032254,-29.032258064516135 L 8.064516129032256,-32.25806451612904 L 11.29032258064516,-32.25806451612904 L 11.290322580645158,-29.032258064516135 L 14.516129032258062,-29.032258064516135 L 14.516129032258064,-32.25806451612904 L 17.741935483870968,-32.25806451612904 L 17.741935483870964,-29.032258064516135 L 20.96774193548387,-29.032258064516135 L 20.96774193548387,-25.80645161290323 L 17.741935483870964,-25.80645161290323 L 17.741935483870964,-22.580645161290327 L 20.96774193548387,-22.580645161290327 L 20.96774193548387,-25.80645161290323 L 24.193548387096772,-25.80645161290323 L 24.193548387096772,-29.032258064516135 L 20.96774193548387,-29.032258064516135 L 20.967741935483872,-32.25806451612904 L 24.193548387096776,-32.25806451612904 L 24.19354838709678,-35.48387096774194 L 20.967741935483875,-35.48387096774194 L 20.967741935483872,-32.25806451612904 L 17.741935483870968,-32.25806451612904 L 17.741935483870968,-35.48387096774194 L 14.516129032258064,-35.48387096774194 L 14.516129032258068,-38.70967741935485 L 17.74193548387097,-38.70967741935485 L 17.74193548387097,-41.93548387096775 L 14.516129032258068,-41.93548387096775 L 14.516129032258068,-38.70967741935485 L 11.290322580645162,-38.70967741935485 L 11.29032258064516,-35.48387096774194 L 14.516129032258064,-35.48387096774194 L 14.516129032258062,-32.25806451612904 L 11.29032258064516,-32.25806451612904 L 11.29032258064516,-35.48387096774194 L 8.064516129032256,-35.48387096774194 L 8.064516129032256,-32.25806451612904 L 4.838709677419351,-32.25806451612904 L 4.838709677419353,-35.48387096774194 L 1.612903225806449,-35.48387096774194 L 1.612903225806449,-38.70967741935485 L 4.838709677419353,-38.70967741935485 L 4.838709677419354,-41.93548387096775 L 1.612903225806452,-41.93548387096775 L 1.612903225806452,-38.70967741935485 L -1.612903225806452,-38.70967741935485 L -1.612903225806452,-35.48387096774194 L 1.612903225806452,-35.48387096774194 L 1.612903225806452,-32.25806451612904 L -1.612903225806452,-32.25806451612904 L -1.612903225806452,-29.032258064516135 L 1.612903225806452,-29.032258064516135 L 1.6129032258064548,-32.25806451612904 L 4.8387096774193585,-32.25806451612904 L 4.838709677419358,-29.032258064516135 L 8.064516129032262,-29.032258064516135 L 8.06451612903226,-25.80645161290323 L 4.838709677419356,-25.80645161290323 L 4.838709677419358,-29.032258064516135 L 1.612903225806452,-29.032258064516135 L 1.612903225806452,-25.80645161290323 L -1.612903225806452,-25.80645161290323 L -1.612903225806452,-22.580645161290327 L 1.612903225806452,-22.580645161290327 L 1.612903225806452,-19.354838709677423 L -1.612903225806452,-19.354838709677423 L -1.612903225806452,-22.580645161290327 L -4.838709677419356,-22.580645161290327 L -4.838709677419356,-19.354838709677423 L -8.06451612903226,-19.354838709677423 L -8.06451612903226,-22.580645161290327 L -11.290322580645164,-22.580645161290327 L -11.290322580645164,-25.80645161290323 L -8.06451612903226,-25.80645161290323 L -8.06451612903226,-29.032258064516135 L -11.290322580645164,-29.032258064516135 L -11.290322580645164,-25.80645161290323 L -14.516129032258068,-25.80645161290323 L -14.516129032258068,-22.580645161290327 L -11.290322580645164,-22.580645161290327 L -11.290322580645164,-19.354838709677423 L -14.516129032258068,-19.354838709677423 L -14.516129032258068,-16.12903225806452 L -11.290322580645164,-16.12903225806452 L -11.290322580645164,-19.354838709677423 L -8.06451612903226,-19.354838709677423 L -8.06451612903226,-16.12903225806452 L -4.838709677419356,-16.12903225806452 L -4.838709677419356,-12.903225806451616 L -8.06451612903226,-12.903225806451616 L -8.06451612903226,-9.677419354838712 L -4.838709677419356,-9.677419354838712 L -4.838709677419353,-12.903225806451616 L -1.612903225806449,-12.903225806451616 L -1.6129032258064462,-16.12903225806452 L -4.8387096774193505,-16.12903225806452 L -4.838709677419347,-19.354838709677423 L -1.6129032258064433,-19.354838709677423 L -1.6129032258064433,-16.12903225806452 L 1.6129032258064606,-16.12903225806452 L 1.6129032258064635,-19.354838709677423 L 4.838709677419367,-19.354838709677423 L 4.838709677419366,-16.12903225806452 L 8.06451612903227,-16.12903225806452 L 8.064516129032269,-12.903225806451616 L 4.838709677419365,-12.903225806451616 L 4.838709677419366,-16.12903225806452 L 1.6129032258064635,-16.12903225806452 L 1.6129032258064635,-12.903225806451616 L -1.6129032258064404,-12.903225806451616 L -1.6129032258064404,-9.677419354838712 L 1.6129032258064635,-9.677419354838712 L 1.6129032258064635,-6.451612903225808 L -1.6129032258064404,-6.451612903225808 L -1.6129032258064404,-3.225806451612904 L 1.6129032258064635,-3.225806451612904 L 1.6129032258064664,-6.451612903225808 L 4.83870967741937,-6.451612903225808 L 4.838709677419369,-3.225806451612904 L 8.064516129032272,-3.225806451612904 L 8.06451612903227,0.0 L 4.838709677419367,0.0 L 4.838709677419369,-3.225806451612904 L 1.6129032258064635,-3.225806451612904 L 1.6129032258064635,0.0 L -1.6129032258064404,0.0 L -1.6129032258064404,3.225806451612904 L 1.6129032258064635,3.2258064516129066 L 1.6129032258064635,6.4516129032258105 L -1.6129032258064404,6.4516129032258105 L -1.6129032258064404,3.2258064516129066 L -4.838709677419344,3.2258064516129066 L -4.838709677419344,6.4516129032258105 L -8.06451612903225,6.4516129032258105 L -8.06451612903225,3.2258064516129066 L -11.290322580645153,3.2258064516129066 L -11.290322580645153,2.8650916764520175e-15 L -8.06451612903225,2.8650916764520175e-15 L -8.06451612903225,3.2258064516129066 L -4.838709677419344,3.2258064516129066 L -4.838709677419344,2.8650916764520175e-15 L -1.6129032258064404,2.8650916764520175e-15 L -1.6129032258064404,-3.225806451612904 L -4.838709677419344,-3.225806451612904 L -4.838709677419344,-6.451612903225808 L -1.6129032258064404,-6.451612903225808 L -1.6129032258064404,-9.677419354838712 L -4.838709677419344,-9.677419354838712 L -4.838709677419344,-6.451612903225808 L -8.06451612903225,-6.451612903225808 L -8.06451612903225,-9.677419354838712 L -11.290322580645153,-9.677419354838712 L -11.290322580645153,-12.903225806451616 L -8.06451612903225,-12.903225806451616 L -8.06451612903225,-16.12903225806452 L -11.290322580645153,-16.12903225806452 L -11.290322580645153,-12.903225806451616 L -14.516129032258057,-12.903225806451616 L -14.516129032258057,-9.677419354838712 L -11.290322580645153,-9.677419354838712 L -11.290322580645153,-6.451612903225808 L -14.516129032258057,-6.451612903225808 L -14.516129032258057,-9.677419354838712 L -17.74193548387096,-9.677419354838712 L -17.74193548387096,-6.451612903225808 L -20.967741935483865,-6.451612903225808 L -20.967741935483865,-9.677419354838712 L -24.19354838709677,-9.677419354838712 L -24.19354838709677,-12.903225806451616 L -20.967741935483865,-12.903225806451616 L -20.967741935483865,-16.12903225806452 L -24.19354838709677,-16.12903225806452 L -24.19354838709677,-12.903225806451616 L -27.419354838709673,-12.903225806451616 L -27.419354838709673,-9.677419354838712 L -24.19354838709677,-9.677419354838712 L -24.19354838709677,-6.451612903225808 L -27.419354838709673,-6.451612903225808 L -27.419354838709673,-3.225806451612904 L -24.19354838709677,-3.225806451612904 L -24.19354838709677,-6.451612903225808 L -20.967741935483865,-6.451612903225808 L -20.967741935483865,-3.225806451612904 L -17.74193548387096,-3.225806451612904 L -17.74193548387096,0.0 L -20.967741935483865,0.0 L -20.967741935483865,-3.225806451612904 L -24.19354838709677,-3.225806451612904 L -24.19354838709677,0.0 L -27.419354838709673,0.0 L -27.419354838709673,3.225806451612904 L -24.19354838709677,3.2258064516129066 L -24.19354838709677,6.4516129032258105 L -27.419354838709673,6.4516129032258105 L -27.419354838709673,3.2258064516129066 L -30.645161290322577,3.2258064516129066 L -30.645161290322577,6.4516129032258105 L -33.87096774193548,6.4516129032258105 L -33.87096774193548,3.2258064516129066 L -37.096774193548384,3.2258064516129066 L -37.096774193548384,2.8650916764520175e-15 L -33.87096774193548,2.8650916764520175e-15 L -33.87096774193548,3.2258064516129066 L -30.645161290322577,3.2258064516129066 L -30.645161290322577,2.8650916764520175e-15 L -27.419354838709673,2.8650916764520175e-15 L -27.419354838709673,-3.225806451612904 L -30.645161290322577,-3.225806451612904 L -30.645161290322577,-6.451612903225808 L -27.419354838709673,-6.451612903225808 L -27.419354838709673,-9.677419354838712 L -30.645161290322577,-9.677419354838712 L -30.645161290322577,-6.451612903225808 L -33.87096774193548,-6.451612903225808 L -33.87096774193548,-9.677419354838712 L -37.096774193548384,-9.677419354838712 L -37.096774193548384,-12.903225806451616 L -33.87096774193548,-12.903225806451616 L -33.87096774193548,-16.12903225806452 L -37.096774193548384,-16.12903225806452 L -37.096774193548384,-12.903225806451616 L -40.32258064516129,-12.903225806451616 L -40.32258064516129,-9.677419354838712 L -37.096774193548384,-9.677419354838712 L -37.096774193548384,-6.451612903225808 L -40.32258064516129,-6.451612903225808 L -40.32258064516129,-9.677419354838712 L -43.54838709677419,-9.677419354838712 L -43.54838709677419,-6.451612903225808 L -46.774193548387096,-6.451612903225808 L -46.774193548387096,-9.677419354838712 L -50.0,-9.677419354838712 L -50.0,-12.903225806451616 L -46.774193548387096,-12.903225806451616 L -46.774193548387096,-9.677419354838712 L -43.54838709677419,-9.677419354838712 L -43.54838709677419,-12.903225806451616 L -40.32258064516129,-12.903225806451616 L -40.32258064516129,-16.12903225806452 L -43.54838709677419,-16.12903225806452 L -43.54838709677419,-19.354838709677423 L -40.32258064516129,-19.354838709677423 L -40.32258064516129,-22.580645161290327 L -43.54838709677419,-22.580645161290327 L -43.54838709677419,-19.354838709677423 L -46.774193548387096,-19.354838709677423 L -46.774193548387096,-22.580645161290327 L -50.0,-22.580645161290327 L -50.0,-25.80645161290323 L -46.774193548387096,-25.80645161290323 L -46.774193548387096,-22.580645161290327 L -43.54838709677419,-22.580645161290327 L -43.54838709677419,-25.80645161290323 L -40.32258064516129,-25.80645161290323 L -40.32258064516129,-29.032258064516135 L -43.54838709677419,-29.032258064516135 L -43.54838709677419,-32.25806451612904 L -40.32258064516129,-32.25806451612904 L -40.32258064516129,-29.032258064516135 L -37.096774193548384,-29.032258064516135 L -37.096774193548384,-32.25806451612904 L -33.87096774193548,-32.25806451612904 L -33.87096774193548,-29.032258064516135 L -30.645161290322577,-29.032258064516135 L -30.645161290322577,-25.80645161290323 L -33.87096774193548,-25.80645161290323 " />
    </g>
</svg>
