<?xml version="1.0" encoding="UTF-8"?>
<!DOCTYPE svg PUBLIC "-//W3C//DTD SVG 1.1//EN"
    "http://www.w3.org/Graphics/SVG/1.1/DTD/svg11.dtd">

<svg xmlns="http://www.w3.org/2000/svg" xmlns:xlink="http://www.w3.org/1999/xlink" version="1.1" width="470.99627223364485" height="500" viewBox="-59.06293253809912 -26.199999999999992 64.43229004156268 68.40000000000008">
    <g>
        <rect x="-59.06293253809912" y="-26.199999999999992" width="64.43229004156268" height="68.40000000000008" fill="#CBD4C2" />
        <path style="fill:none;stroke:#50514F;stroke-width:0.1px;stroke-linecap:square" d="M 0.0,0.0 L 6.123233995736766e-17,-1.0 L -0.8660254037844385,-1.5 L -0.8660254037844388,-0.5 L -1.7320508075688776,-2.220446049250313e-16 L -1.7320508075688776,-1.0000000000000002 L -1.7320508075688776,-2.0 L -0.866025403784439,-2.5 L -0.866025403784439,-3.5 L -1.7320508075688776,-4.0 L -2.598076211353316,-4.5 L -2.5980762113533165,-3.5 L -1.732050807568878,-2.9999999999999996 L -2.598076211353317,-2.5 L -3.4641016151377553,-3.0 L -4.3301270189221945,-2.5000000000000004 L -4.3301270189221945,-1.5000000000000004 L -4.3301270189221945,-0.5000000000000004 L -3.4641016151377553,-0.9999999999999998 L -3.4641016151377544,-1.9999999999999998 L -2.598076211353316,-1.4999999999999991 L -2.5980762113533165,-0.4999999999999991 L -3.4641016151377553,4.996003610813204e-16 L -3.4641016151377557,1.0000000000000004 L -2.598076211353317,0.5000000000000011 L -1.7320508075688785,1.0000000000000018 L -2.5980762113533173,1.5000000000000013 L -3.464101615137756,2.000000000000001 L -4.3301270189221945,1.5000000000000004 L -4.3301270189221945,0.5000000000000002 L -5.196152422706633,-2.220446049250313e-16 L -5.196152422706634,1.0000000000000002 L -6.062177826491073,1.5 L -6.062177826491073,0.49999999999999956 L -6.062177826491073,-0.5000000000000009 L -5.196152422706634,-1.000000000000001 L -5.196152422706634,-2.0000000000000018 L -6.062177826491073,-2.500000000000002 L -6.062177826491074,-1.5000000000000018 L -6.928203230275513,-1.000000000000002 L -6.928203230275513,-2.0000000000000027 L -6.928203230275513,-3.000000000000003 L -6.062177826491074,-3.5000000000000036 L -5.196152422706635,-3.0000000000000036 L -4.330127018922195,-3.5000000000000036 L -3.464101615137756,-4.0000000000000036 L -4.3301270189221945,-4.5000000000000036 L -5.196152422706634,-4.0000000000000036 L -5.196152422706634,-5.0000000000000036 L -4.3301270189221945,-5.5000000000000036 L -4.3301270189221945,-6.5000000000000036 L -5.196152422706634,-7.0000000000000036 L -5.196152422706635,-6.0000000000000036 L -6.062177826491074,-5.5000000000000036 L -6.062177826491074,-6.5000000000000036 L -6.062177826491074,-7.5000000000000036 L -5.196152422706635,-8.000000000000004 L -5.196152422706635,-9.000000000000004 L -6.062177826491073,-9.500000000000004 L -6.928203230275512,-10.000000000000004 L -6.928203230275513,-9.000000000000004 L -6.062177826491075,-8.500000000000004 L -6.928203230275514,-8.000000000000004 L -7.794228634059953,-8.500000000000004 L -7.794228634059953,-9.500000000000004 L -8.660254037844393,-10.000000000000004 L -9.526279441628832,-10.500000000000004 L -9.526279441628832,-9.500000000000004 L -8.660254037844393,-9.000000000000004 L -9.526279441628832,-8.500000000000004 L -10.392304845413271,-9.000000000000004 L -11.25833024919771,-8.500000000000004 L -11.25833024919771,-7.5000000000000036 L -11.25833024919771,-6.5000000000000036 L -10.392304845413271,-7.000000000000003 L -10.39230484541327,-8.000000000000004 L -9.52627944162883,-7.500000000000003 L -9.52627944162883,-6.500000000000002 L -8.66025403784439,-6.000000000000001 L -7.794228634059952,-6.5 L -8.660254037844389,-7.000000000000002 L -8.660254037844387,-8.000000000000002 L -7.794228634059949,-7.500000000000001 L -6.9282032302755105,-7.0 L -6.928203230275511,-6.0 L -7.794228634059951,-5.5 L -7.794228634059952,-4.5 L -6.928203230275512,-4.999999999999999 L -6.062177826491074,-4.499999999999998 L -6.928203230275513,-3.9999999999999982 L -7.7942286340599525,-3.4999999999999982 L -8.66025403784439,-3.9999999999999987 L -8.66025403784439,-4.999999999999999 L -9.52627944162883,-5.5 L -10.39230484541327,-6.0 L -10.39230484541327,-5.0 L -9.52627944162883,-4.499999999999999 L -10.39230484541327,-3.999999999999999 L -11.258330249197709,-4.5 L -12.124355652982148,-4.0 L -12.124355652982148,-2.9999999999999996 L -11.258330249197709,-3.499999999999999 L -10.39230484541327,-2.9999999999999982 L -11.258330249197709,-2.4999999999999982 L -12.124355652982148,-1.9999999999999984 L -12.990381056766587,-2.499999999999999 L -13.856406460551026,-1.9999999999999993 L -13.856406460551026,-0.9999999999999989 L -13.856406460551026,1.5543122344752192e-15 L -12.990381056766587,-0.49999999999999784 L -12.990381056766585,-1.4999999999999982 L -12.124355652982146,-0.9999999999999973 L -12.124355652982146,3.1086244689504383e-15 L -12.990381056766585,0.5000000000000029 L -12.990381056766585,1.5000000000000033 L -12.990381056766585,2.5000000000000036 L -12.124355652982146,2.000000000000004 L -12.124355652982144,1.0000000000000036 L -11.258330249197705,1.5000000000000044 L -11.258330249197705,2.500000000000005 L -10.392304845413266,3.0000000000000058 L -9.526279441628827,2.500000000000006 L -8.660254037844387,2.0000000000000067 L -9.526279441628827,1.5000000000000053 L -10.392304845413266,2.0000000000000044 L -10.392304845413264,1.000000000000004 L -9.526279441628825,0.5000000000000047 L -9.526279441628823,-0.4999999999999958 L -10.39230484541326,-0.9999999999999971 L -10.392304845413262,3.3306690738754696e-15 L -11.258330249197702,0.5000000000000023 L -11.2583302491977,-0.4999999999999981 L -11.258330249197698,-1.4999999999999987 L -10.392304845413259,-1.999999999999998 L -9.52627944162882,-1.4999999999999971 L -8.66025403784438,-1.9999999999999964 L -9.52627944162882,-2.499999999999998 L -9.526279441628818,-3.4999999999999982 L -8.660254037844378,-2.9999999999999973 L -7.79422863405994,-2.4999999999999964 L -7.794228634059941,-1.499999999999996 L -8.66025403784438,-0.9999999999999962 L -8.66025403784438,4.218847493575595e-15 L -8.66025403784438,1.0000000000000047 L -7.794228634059941,0.5000000000000053 L -7.79422863405994,-0.4999999999999951 L -6.928203230275502,5.773159728050814e-15 L -6.9282032302755026,1.0000000000000062 L -7.794228634059942,1.500000000000006 L -7.794228634059943,2.500000000000006 L -6.928203230275503,2.0000000000000067 L -6.062177826491065,2.5000000000000075 L -6.928203230275504,3.000000000000007 L -7.794228634059944,3.500000000000007 L -8.660254037844382,3.0000000000000067 L -9.526279441628821,3.500000000000006 L -9.526279441628821,4.500000000000007 L -9.526279441628821,5.500000000000007 L -8.660254037844382,5.000000000000008 L -8.66025403784438,4.000000000000007 L -7.794228634059942,4.500000000000008 L -7.794228634059943,5.500000000000009 L -6.928203230275504,6.00000000000001 L -6.062177826491065,5.500000000000011 L -5.196152422706626,5.0000000000000115 L -6.062177826491064,4.500000000000011 L -6.928203230275503,5.00000000000001 L -6.9282032302755026,4.000000000000009 L -6.062177826491063,3.5000000000000098 L -5.196152422706625,4.000000000000011 L -4.330127018922186,3.500000000000011 L -5.196152422706624,3.0000000000000098 L -5.196152422706623,2.0000000000000093 L -4.330127018922185,2.50000000000001 L -3.4641016151377464,3.000000000000011 L -3.4641016151377473,4.0000000000000115 L -4.3301270189221865,4.5000000000000115 L -4.330127018922187,5.500000000000012 L -3.464101615137748,5.000000000000013 L -2.59807621135331,5.500000000000014 L -3.464101615137749,6.000000000000014 L -4.330127018922188,6.500000000000014 L -5.196152422706627,6.000000000000014 L -6.062177826491066,6.500000000000014 L -6.062177826491067,7.500000000000014 L -5.196152422706628,7.000000000000015 L -4.330127018922189,7.500000000000016 L -5.1961524227066285,8.000000000000016 L -6.062177826491068,8.500000000000016 L -6.928203230275507,8.000000000000016 L -6.928203230275507,7.000000000000016 L -7.794228634059946,6.500000000000016 L -8.660254037844386,6.000000000000016 L -8.660254037844386,7.000000000000016 L -7.794228634059947,7.500000000000017 L -8.660254037844386,8.000000000000016 L -9.526279441628825,7.500000000000016 L -9.526279441628825,6.500000000000016 L -10.392304845413264,6.000000000000016 L -10.392304845413264,7.000000000000016 L -11.258330249197703,7.500000000000016 L -11.258330249197703,6.500000000000016 L -11.258330249197703,5.500000000000016 L -10.392304845413264,5.000000000000016 L -10.392304845413264,4.000000000000016 L -11.258330249197703,3.5000000000000155 L -12.124355652982143,3.000000000000015 L -12.124355652982143,4.000000000000016 L -11.258330249197703,4.500000000000017 L -12.124355652982143,5.000000000000017 L -12.990381056766582,4.500000000000016 L -13.856406460551021,5.000000000000016 L -13.856406460551021,6.000000000000016 L -13.856406460551021,7.000000000000016 L -12.990381056766582,6.500000000000017 L -12.99038105676658,5.500000000000016 L -12.12435565298214,6.000000000000017 L -12.12435565298214,7.000000000000018 L -12.99038105676658,7.500000000000018 L -12.99038105676658,8.500000000000018 L -12.12435565298214,8.000000000000018 L -11.258330249197702,8.500000000000018 L -12.12435565298214,9.000000000000018 L -12.99038105676658,9.500000000000018 L -13.85640646055102,9.000000000000018 L -13.85640646055102,8.000000000000018 L -14.722431864335459,7.500000000000018 L -14.722431864335459,8.500000000000018 L -15.588457268119898,9.000000000000018 L -15.588457268119898,8.000000000000018 L -15.588457268119898,7.000000000000018 L -14.722431864335459,6.500000000000018 L -14.722431864335459,5.500000000000018 L -15.588457268119898,5.000000000000018 L -15.588457268119898,6.000000000000018 L -16.454482671904337,6.500000000000018 L -16.454482671904337,5.500000000000018 L -16.454482671904337,4.500000000000018 L -15.588457268119898,4.000000000000018 L -14.722431864335459,4.500000000000018 L -13.85640646055102,4.000000000000018 L -12.99038105676658,3.5000000000000178 L -13.85640646055102,3.0000000000000173 L -14.722431864335459,3.5000000000000173 L -14.722431864335459,2.500000000000017 L -13.85640646055102,2.000000000000017 L -13.85640646055102,1.0000000000000164 L -14.722431864335459,0.500000000000016 L -14.722431864335459,1.5000000000000164 L -15.588457268119898,2.000000000000016 L -15.588457268119898,1.0000000000000155 L -15.588457268119898,1.509903313490213e-14 L -14.722431864335459,-0.4999999999999851 L -14.722431864335459,-1.4999999999999856 L -15.588457268119898,-1.999999999999986 L -16.454482671904337,-2.4999999999999867 L -16.454482671904337,-1.4999999999999862 L -15.588457268119898,-0.9999999999999853 L -16.454482671904337,-0.49999999999998557 L -17.320508075688775,-0.999999999999986 L -18.186533479473212,-0.49999999999998623 L -18.186533479473212,0.5000000000000142 L -18.186533479473212,1.5000000000000147 L -17.32050807568877,1.0000000000000153 L -17.32050807568877,1.4876988529977098e-14 L -16.454482671904334,0.5000000000000158 L -16.454482671904334,1.5000000000000162 L -17.32050807568877,2.000000000000016 L -17.32050807568877,3.0000000000000164 L -16.45448267190433,2.500000000000017 L -15.58845726811989,3.0000000000000178 L -16.45448267190433,3.5000000000000178 L -17.32050807568877,4.000000000000018 L -18.18653347947321,3.5000000000000173 L -18.18653347947321,2.500000000000017 L -19.052558883257646,2.0000000000000164 L -19.052558883257646,3.000000000000017 L -19.918584287042087,3.500000000000017 L -19.918584287042087,2.5000000000000164 L -19.918584287042087,1.500000000000016 L -19.05255888325765,1.0000000000000158 L -19.05255888325765,1.532107773982716e-14 L -19.918584287042087,-0.4999999999999851 L -19.918584287042087,0.5000000000000153 L -20.784609690826528,1.000000000000015 L -20.784609690826528,1.4654943925052066e-14 L -20.784609690826528,-0.9999999999999858 L -19.91858428704209,-1.499999999999986 L -19.052558883257653,-0.9999999999999858 L -18.186533479473216,-1.499999999999986 L -17.320508075688778,-1.9999999999999862 L -18.186533479473216,-2.4999999999999867 L -19.052558883257653,-1.999999999999987 L -19.052558883257653,-2.9999999999999876 L -18.186533479473216,-3.4999999999999876 L -17.320508075688778,-2.9999999999999876 L -16.45448267190434,-3.4999999999999876 L -17.320508075688778,-3.999999999999988 L -17.320508075688778,-4.9999999999999885 L -16.45448267190434,-4.4999999999999885 L -15.588457268119901,-3.9999999999999885 L -15.588457268119901,-2.999999999999988 L -14.722431864335462,-2.4999999999999876 L -13.856406460551023,-2.9999999999999876 L -12.990381056766584,-3.4999999999999876 L -13.856406460551023,-3.999999999999988 L -14.722431864335462,-3.499999999999988 L -14.722431864335462,-4.4999999999999885 L -13.856406460551023,-4.9999999999999885 L -12.990381056766584,-4.4999999999999885 L -12.124355652982144,-4.9999999999999885 L -11.258330249197705,-5.4999999999999885 L -12.124355652982144,-5.999999999999989 L -12.990381056766584,-5.499999999999989 L -12.990381056766584,-6.499999999999989 L -12.124355652982144,-6.999999999999989 L -12.124355652982144,-7.999999999999989 L -12.990381056766584,-8.49999999999999 L -13.856406460551023,-8.99999999999999 L -13.856406460551023,-7.999999999999989 L -12.990381056766584,-7.4999999999999885 L -13.856406460551023,-6.9999999999999885 L -14.722431864335462,-7.499999999999989 L -15.588457268119901,-6.999999999999989 L -15.588457268119901,-5.999999999999989 L -14.722431864335462,-6.4999999999999885 L -13.856406460551023,-5.999999999999988 L -14.722431864335462,-5.499999999999988 L -15.588457268119901,-4.999999999999988 L -16.45448267190434,-5.499999999999988 L -16.45448267190434,-6.499999999999988 L -17.320508075688778,-6.999999999999988 L -17.320508075688778,-5.999999999999988 L -18.18653347947322,-5.499999999999988 L -18.18653347947322,-6.499999999999988 L -18.18653347947322,-7.499999999999988 L -17.32050807568878,-7.999999999999988 L -16.454482671904344,-7.499999999999988 L -15.588457268119905,-7.999999999999988 L -14.722431864335466,-8.499999999999988 L -15.588457268119905,-8.999999999999988 L -16.454482671904344,-8.499999999999988 L -16.454482671904344,-9.499999999999988 L -15.588457268119905,-9.999999999999988 L -15.588457268119905,-10.999999999999988 L -16.454482671904344,-11.499999999999988 L -16.454482671904344,-10.499999999999988 L -17.320508075688785,-9.999999999999988 L -17.320508075688785,-10.999999999999988 L -17.320508075688785,-11.999999999999988 L -16.454482671904348,-12.499999999999988 L -16.454482671904348,-13.499999999999988 L -17.320508075688785,-13.999999999999988 L -18.186533479473223,-14.499999999999988 L -18.186533479473223,-13.499999999999988 L -17.320508075688785,-12.999999999999986 L -18.186533479473226,-12.499999999999986 L -19.052558883257664,-12.999999999999986 L -19.9185842870421,-12.499999999999986 L -19.9185842870421,-11.499999999999986 L -19.9185842870421,-10.499999999999986 L -19.05255888325766,-10.999999999999986 L -19.05255888325766,-11.999999999999986 L -18.186533479473223,-11.499999999999986 L -18.186533479473223,-10.499999999999986 L -19.05255888325766,-9.999999999999986 L -19.05255888325766,-8.999999999999986 L -18.18653347947322,-9.499999999999986 L -17.32050807568878,-8.999999999999986 L -18.18653347947322,-8.499999999999986 L -19.05255888325766,-7.999999999999986 L -19.918584287042098,-8.499999999999986 L -19.918584287042098,-9.499999999999986 L -20.784609690826535,-9.999999999999986 L -20.784609690826535,-8.999999999999986 L -21.650635094610976,-8.499999999999986 L -21.650635094610976,-9.499999999999986 L -21.650635094610976,-10.499999999999986 L -20.78460969082654,-10.999999999999986 L -20.78460969082654,-11.999999999999986 L -21.650635094610976,-12.499999999999986 L -21.650635094610976,-11.499999999999986 L -22.516660498395417,-10.999999999999986 L -22.516660498395417,-11.999999999999986 L -22.516660498395417,-12.999999999999986 L -21.65063509461098,-13.499999999999986 L -20.784609690826542,-12.999999999999986 L -19.918584287042105,-13.499999999999986 L -19.052558883257667,-13.999999999999986 L -19.918584287042105,-14.499999999999986 L -20.784609690826542,-13.999999999999986 L -20.784609690826542,-14.999999999999986 L -19.918584287042105,-15.499999999999986 L -19.918584287042105,-16.499999999999986 L -20.784609690826542,-16.999999999999986 L -20.784609690826542,-15.999999999999986 L -21.650635094610983,-15.499999999999986 L -21.650635094610983,-16.499999999999986 L -21.650635094610983,-17.499999999999986 L -20.784609690826546,-17.999999999999986 L -20.784609690826546,-18.999999999999986 L -21.650635094610983,-19.499999999999986 L -22.51666049839542,-19.999999999999986 L -22.51666049839542,-18.999999999999986 L -21.650635094610983,-18.499999999999986 L -22.516660498395424,-17.999999999999986 L -23.382685902179862,-18.499999999999986 L -23.382685902179862,-19.499999999999986 L -24.2487113059643,-19.999999999999986 L -25.114736709748737,-20.499999999999986 L -25.114736709748737,-19.499999999999986 L -24.2487113059643,-18.999999999999986 L -25.11473670974874,-18.499999999999986 L -25.980762113533178,-18.999999999999986 L -26.846787517317615,-18.499999999999986 L -26.846787517317615,-17.499999999999986 L -26.846787517317615,-16.499999999999986 L -25.980762113533174,-16.999999999999986 L -25.980762113533174,-17.999999999999986 L -25.114736709748737,-17.499999999999986 L -25.114736709748737,-16.499999999999986 L -24.2487113059643,-15.999999999999986 L -23.38268590217986,-16.499999999999986 L -24.248711305964296,-16.999999999999986 L -24.248711305964296,-17.999999999999986 L -23.38268590217986,-17.499999999999986 L -22.51666049839542,-16.999999999999986 L -22.51666049839542,-15.999999999999986 L -23.38268590217986,-15.499999999999986 L -23.38268590217986,-14.499999999999986 L -22.516660498395417,-14.999999999999986 L -21.65063509461098,-14.499999999999986 L -22.516660498395417,-13.999999999999986 L -23.38268590217986,-13.499999999999986 L -24.248711305964296,-13.999999999999986 L -24.248711305964296,-14.999999999999986 L -25.114736709748733,-15.499999999999986 L -25.98076211353317,-15.999999999999986 L -25.98076211353317,-14.999999999999986 L -25.114736709748733,-14.499999999999986 L -25.980762113533174,-13.999999999999986 L -26.846787517317612,-14.499999999999986 L -26.846787517317612,-15.499999999999986 L -27.71281292110205,-15.999999999999986 L -27.71281292110205,-14.999999999999986 L -28.57883832488649,-14.499999999999986 L -28.57883832488649,-15.499999999999986 L -28.57883832488649,-16.499999999999986 L -27.712812921102053,-16.999999999999986 L -27.712812921102053,-17.999999999999986 L -28.57883832488649,-18.499999999999986 L -29.444863728670928,-18.999999999999986 L -29.444863728670928,-17.999999999999986 L -28.57883832488649,-17.499999999999986 L -29.44486372867093,-16.999999999999986 L -30.31088913245537,-17.499999999999986 L -30.31088913245537,-18.499999999999986 L -31.176914536239806,-18.999999999999986 L -32.04293994002425,-19.499999999999986 L -32.04293994002425,-18.499999999999986 L -31.17691453623981,-17.999999999999986 L -32.04293994002425,-17.499999999999986 L -32.90896534380869,-17.999999999999986 L -33.77499074759313,-17.499999999999986 L -33.77499074759313,-16.499999999999986 L -33.77499074759313,-15.499999999999986 L -32.90896534380869,-15.999999999999986 L -32.90896534380869,-16.999999999999986 L -32.04293994002425,-16.499999999999986 L -32.04293994002425,-15.499999999999986 L -31.17691453623981,-14.999999999999986 L -30.31088913245537,-15.499999999999986 L -31.176914536239806,-15.999999999999988 L -31.176914536239806,-16.99999999999999 L -30.31088913245537,-16.49999999999999 L -29.44486372867093,-15.99999999999999 L -29.44486372867093,-14.99999999999999 L -30.310889132455372,-14.49999999999999 L -30.310889132455372,-13.49999999999999 L -29.44486372867093,-13.99999999999999 L -28.578838324886494,-13.49999999999999 L -29.44486372867093,-12.99999999999999 L -30.310889132455372,-12.49999999999999 L -31.17691453623981,-12.99999999999999 L -31.17691453623981,-13.99999999999999 L -32.04293994002425,-14.49999999999999 L -32.90896534380869,-14.99999999999999 L -32.90896534380869,-13.99999999999999 L -32.04293994002425,-13.49999999999999 L -32.90896534380869,-12.99999999999999 L -33.77499074759313,-13.49999999999999 L -34.64101615137757,-12.99999999999999 L -34.64101615137757,-11.99999999999999 L -33.77499074759313,-12.49999999999999 L -32.90896534380869,-11.99999999999999 L -33.77499074759313,-11.49999999999999 L -34.64101615137757,-10.99999999999999 L -35.50704155516201,-11.49999999999999 L -36.37306695894645,-10.99999999999999 L -36.37306695894645,-9.99999999999999 L -36.37306695894645,-8.99999999999999 L -35.50704155516201,-9.49999999999999 L -35.50704155516201,-10.49999999999999 L -34.64101615137757,-9.99999999999999 L -34.64101615137757,-8.99999999999999 L -35.50704155516201,-8.49999999999999 L -35.50704155516201,-7.499999999999989 L -35.50704155516201,-6.499999999999989 L -34.64101615137757,-6.9999999999999885 L -34.64101615137757,-7.999999999999989 L -33.77499074759313,-7.4999999999999885 L -33.77499074759313,-6.499999999999988 L -32.90896534380869,-5.999999999999987 L -32.04293994002425,-6.499999999999986 L -31.176914536239806,-6.999999999999985 L -32.04293994002425,-7.499999999999986 L -32.90896534380869,-6.999999999999987 L -32.90896534380869,-7.999999999999988 L -32.04293994002425,-8.499999999999988 L -32.04293994002425,-9.499999999999988 L -32.90896534380869,-9.99999999999999 L -32.90896534380869,-8.99999999999999 L -33.77499074759313,-8.499999999999991 L -33.77499074759313,-9.499999999999991 L -33.77499074759313,-10.499999999999991 L -32.90896534380869,-10.999999999999991 L -32.04293994002425,-10.49999999999999 L -31.176914536239806,-10.99999999999999 L -32.04293994002425,-11.499999999999991 L -32.04293994002425,-12.499999999999991 L -31.17691453623981,-11.99999999999999 L -30.310889132455372,-11.49999999999999 L -30.310889132455372,-10.49999999999999 L -31.176914536239813,-9.99999999999999 L -31.176914536239813,-8.99999999999999 L -31.176914536239813,-7.999999999999989 L -30.310889132455372,-8.49999999999999 L -30.310889132455372,-9.49999999999999 L -29.444863728670935,-8.99999999999999 L -29.444863728670935,-7.999999999999989 L -28.578838324886497,-7.4999999999999885 L -27.712812921102056,-7.999999999999988 L -28.578838324886494,-8.49999999999999 L -28.578838324886494,-9.49999999999999 L -27.712812921102056,-8.99999999999999 L -26.84678751731762,-8.49999999999999 L -26.84678751731762,-7.499999999999989 L -25.98076211353318,-6.9999999999999885 L -25.11473670974874,-7.499999999999988 L -24.2487113059643,-7.999999999999987 L -25.114736709748737,-8.499999999999988 L -25.980762113533178,-7.9999999999999885 L -25.980762113533178,-8.99999999999999 L -25.114736709748737,-9.49999999999999 L -25.114736709748737,-10.49999999999999 L -25.980762113533174,-10.999999999999991 L -26.846787517317612,-11.499999999999993 L -26.846787517317612,-10.499999999999993 L -25.980762113533174,-9.999999999999991 L -26.846787517317615,-9.499999999999993 L -27.712812921102053,-9.999999999999995 L -27.712812921102053,-10.999999999999995 L -28.57883832488649,-11.499999999999996 L -28.57883832488649,-10.499999999999996 L -29.44486372867093,-9.999999999999998 L -29.44486372867093,-10.999999999999998 L -29.44486372867093,-11.999999999999998 L -28.57883832488649,-12.499999999999998 L -27.712812921102053,-11.999999999999996 L -26.846787517317612,-12.499999999999996 L -27.71281292110205,-12.999999999999998 L -27.71281292110205,-13.999999999999998 L -26.846787517317612,-13.499999999999996 L -25.980762113533174,-12.999999999999996 L -25.980762113533174,-11.999999999999996 L -25.114736709748737,-11.499999999999996 L -24.248711305964296,-11.999999999999996 L -25.114736709748733,-12.499999999999998 L -25.114736709748733,-13.499999999999998 L -24.248711305964296,-12.999999999999996 L -23.38268590217986,-12.499999999999996 L -23.38268590217986,-11.499999999999996 L -24.2487113059643,-10.999999999999996 L -24.2487113059643,-9.999999999999996 L -24.2487113059643,-8.999999999999996 L -23.38268590217986,-9.499999999999996 L -23.38268590217986,-10.499999999999996 L -22.51666049839542,-9.999999999999996 L -22.51666049839542,-8.999999999999996 L -23.38268590217986,-8.499999999999996 L -23.38268590217986,-7.4999999999999964 L -22.516660498395417,-7.999999999999996 L -21.65063509461098,-7.499999999999995 L -22.516660498395417,-6.999999999999995 L -23.38268590217986,-6.499999999999995 L -24.248711305964296,-6.999999999999995 L -25.114736709748733,-6.499999999999995 L -25.114736709748733,-5.499999999999995 L -25.114736709748733,-4.499999999999995 L -24.248711305964292,-4.999999999999994 L -24.248711305964292,-5.999999999999995 L -23.382685902179855,-5.499999999999994 L -23.382685902179855,-4.499999999999993 L -22.516660498395417,-3.999999999999992 L -21.650635094610976,-4.499999999999991 L -20.784609690826535,-4.99999999999999 L -21.650635094610973,-5.499999999999991 L -22.516660498395414,-4.999999999999992 L -22.516660498395414,-5.999999999999993 L -21.650635094610973,-6.499999999999992 L -20.784609690826535,-5.999999999999991 L -19.918584287042094,-6.49999999999999 L -20.78460969082653,-6.999999999999991 L -20.78460969082653,-7.999999999999991 L -19.918584287042094,-7.49999999999999 L -19.052558883257657,-6.999999999999989 L -19.052558883257657,-5.999999999999989 L -19.918584287042094,-5.499999999999989 L -19.918584287042094,-4.499999999999989 L -19.052558883257653,-4.9999999999999885 L -18.186533479473216,-4.499999999999988 L -19.052558883257653,-3.9999999999999876 L -19.918584287042094,-3.4999999999999876 L -20.78460969082653,-3.999999999999988 L -21.65063509461097,-3.499999999999988 L -21.65063509461097,-2.4999999999999876 L -20.784609690826528,-2.999999999999987 L -19.91858428704209,-2.4999999999999862 L -20.784609690826528,-1.9999999999999865 L -21.65063509461097,-1.4999999999999867 L -22.516660498395407,-1.9999999999999871 L -22.516660498395407,-2.9999999999999876 L -23.382685902179844,-3.499999999999988 L -24.24871130596428,-3.9999999999999885 L -24.24871130596428,-2.999999999999988 L -23.382685902179844,-2.499999999999987 L -24.248711305964285,-1.9999999999999873 L -25.114736709748723,-2.4999999999999876 L -25.114736709748723,-3.499999999999988 L -25.98076211353316,-3.9999999999999885 L -25.98076211353316,-2.999999999999988 L -26.8467875173176,-2.4999999999999885 L -26.8467875173176,-3.499999999999989 L -26.8467875173176,-4.499999999999989 L -25.980762113533164,-4.999999999999989 L -25.980762113533164,-5.999999999999989 L -26.8467875173176,-6.499999999999989 L -27.71281292110204,-6.999999999999989 L -27.71281292110204,-5.999999999999989 L -26.8467875173176,-5.4999999999999885 L -27.712812921102042,-4.9999999999999885 L -28.57883832488648,-5.499999999999989 L -28.57883832488648,-6.499999999999989 L -29.444863728670917,-6.999999999999989 L -30.310889132455355,-7.499999999999989 L -30.310889132455355,-6.499999999999989 L -29.444863728670917,-5.9999999999999885 L -30.310889132455358,-5.4999999999999885 L -31.176914536239796,-5.999999999999989 L -32.04293994002423,-5.499999999999989 L -32.04293994002423,-4.499999999999989 L -32.04293994002423,-3.499999999999989 L -31.176914536239792,-3.9999999999999885 L -31.176914536239792,-4.999999999999989 L -30.310889132455355,-4.4999999999999885 L -30.310889132455355,-3.499999999999988 L -29.444863728670917,-2.999999999999987 L -28.578838324886476,-3.4999999999999867 L -29.444863728670914,-3.999999999999988 L -29.444863728670914,-4.9999999999999885 L -28.578838324886476,-4.499999999999988 L -27.71281292110204,-3.9999999999999867 L -27.71281292110204,-2.9999999999999862 L -28.578838324886476,-2.4999999999999867 L -28.578838324886476,-1.4999999999999862 L -27.712812921102035,-1.9999999999999856 L -26.846787517317598,-1.4999999999999847 L -27.712812921102035,-0.9999999999999849 L -28.578838324886476,-0.4999999999999851 L -29.444863728670914,-0.9999999999999856 L -29.444863728670914,-1.999999999999986 L -30.31088913245535,-2.4999999999999867 L -31.17691453623979,-2.999999999999987 L -31.17691453623979,-1.9999999999999867 L -30.31088913245535,-1.4999999999999858 L -31.176914536239792,-0.999999999999986 L -32.04293994002423,-1.4999999999999865 L -32.908965343808674,-0.9999999999999867 L -32.908965343808674,1.3766765505351941e-14 L -32.04293994002423,-0.4999999999999856 L -31.176914536239796,1.5265566588595902e-14 L -32.04293994002423,0.5000000000000151 L -32.908965343808674,1.0000000000000149 L -33.774990747593115,0.5000000000000144 L -34.641016151377556,1.0000000000000142 L -34.641016151377556,2.0000000000000147 L -34.641016151377556,3.000000000000015 L -33.774990747593115,2.5000000000000155 L -33.774990747593115,1.500000000000015 L -32.908965343808674,2.000000000000016 L -32.908965343808674,3.0000000000000164 L -32.04293994002423,3.5000000000000173 L -31.176914536239792,3.0000000000000178 L -30.31088913245535,2.500000000000018 L -31.17691453623979,2.000000000000017 L -32.042939940024226,2.500000000000016 L -32.042939940024226,1.5000000000000155 L -31.176914536239785,1.0000000000000162 L -30.310889132455348,1.500000000000017 L -29.444863728670907,1.0000000000000178 L -30.310889132455344,0.5000000000000164 L -30.310889132455344,-0.499999999999984 L -29.444863728670907,1.687538997430238e-14 L -28.57883832488647,0.5000000000000178 L -28.57883832488647,1.5000000000000182 L -29.44486372867091,2.0000000000000178 L -29.44486372867091,3.000000000000018 L -28.57883832488647,2.5000000000000187 L -27.71281292110203,3.0000000000000195 L -28.57883832488647,3.5000000000000195 L -29.44486372867091,4.0000000000000195 L -30.310889132455348,3.500000000000019 L -31.176914536239785,4.000000000000019 L -31.176914536239785,5.0000000000000195 L -30.310889132455344,4.50000000000002 L -29.444863728670907,5.000000000000021 L -30.310889132455344,5.500000000000021 L -31.176914536239785,6.000000000000021 L -32.042939940024226,5.500000000000021 L -32.042939940024226,4.500000000000021 L -32.90896534380867,4.000000000000021 L -33.77499074759311,3.500000000000021 L -33.77499074759311,4.500000000000021 L -32.90896534380867,5.000000000000022 L -33.77499074759311,5.500000000000022 L -34.64101615137755,5.000000000000021 L -35.50704155516199,5.500000000000021 L -35.50704155516199,6.500000000000021 L -34.64101615137755,6.000000000000022 L -33.77499074759311,6.500000000000023 L -34.64101615137755,7.000000000000023 L -35.50704155516199,7.500000000000023 L -36.37306695894643,7.000000000000023 L -37.23909236273087,7.500000000000023 L -37.23909236273087,8.500000000000023 L -37.23909236273087,9.500000000000023 L -36.37306695894643,9.000000000000023 L -36.37306695894643,8.000000000000023 L -35.50704155516199,8.500000000000025 L -35.50704155516199,9.500000000000025 L -36.37306695894643,10.000000000000025 L -36.37306695894643,11.000000000000025 L -36.37306695894643,12.000000000000025 L -35.50704155516199,11.500000000000025 L -35.50704155516199,10.500000000000025 L -34.64101615137755,11.000000000000025 L -34.64101615137755,12.000000000000025 L -33.77499074759311,12.500000000000025 L -32.90896534380867,12.000000000000025 L -32.042939940024226,11.500000000000025 L -32.90896534380867,11.000000000000023 L -33.77499074759311,11.500000000000021 L -33.77499074759311,10.500000000000021 L -32.90896534380867,10.000000000000021 L -32.90896534380867,9.000000000000021 L -33.77499074759311,8.50000000000002 L -33.77499074759311,9.50000000000002 L -34.64101615137755,10.000000000000018 L -34.64101615137755,9.000000000000018 L -34.64101615137755,8.000000000000018 L -33.77499074759311,7.500000000000019 L -32.90896534380867,8.00000000000002 L -32.042939940024226,7.50000000000002 L -32.90896534380867,7.0000000000000195 L -32.90896534380867,6.0000000000000195 L -32.042939940024226,6.50000000000002 L -31.17691453623979,7.000000000000021 L -31.17691453623979,8.000000000000021 L -32.042939940024226,8.500000000000021 L -32.042939940024226,9.500000000000021 L -32.042939940024226,10.500000000000021 L -31.176914536239785,10.000000000000021 L -31.176914536239785,9.000000000000021 L -30.310889132455348,9.500000000000021 L -30.310889132455348,10.500000000000021 L -31.176914536239785,11.000000000000021 L -31.176914536239785,12.000000000000021 L -30.310889132455344,11.500000000000021 L -29.444863728670907,12.000000000000021 L -30.310889132455344,12.500000000000021 L -31.176914536239785,13.000000000000021 L -32.042939940024226,12.500000000000021 L -32.90896534380867,13.000000000000021 L -32.90896534380867,14.000000000000021 L -32.90896534380867,15.000000000000021 L -32.042939940024226,14.500000000000021 L -32.042939940024226,13.500000000000021 L -31.17691453623979,14.000000000000021 L -31.17691453623979,15.000000000000021 L -32.042939940024226,15.500000000000021 L -32.042939940024226,16.50000000000002 L -32.042939940024226,17.50000000000002 L -31.176914536239785,17.00000000000002 L -31.176914536239785,16.00000000000002 L -30.310889132455348,16.50000000000002 L -30.310889132455348,17.50000000000002 L -29.44486372867091,18.00000000000002 L -28.57883832488647,17.50000000000002 L -27.712812921102028,17.00000000000002 L -28.578838324886465,16.50000000000002 L -29.444863728670907,17.00000000000002 L -29.444863728670907,16.00000000000002 L -28.578838324886465,15.500000000000021 L -28.578838324886465,14.500000000000021 L -29.444863728670903,14.00000000000002 L -29.444863728670903,15.00000000000002 L -30.310889132455344,15.500000000000018 L -30.310889132455344,14.500000000000018 L -30.310889132455344,13.500000000000018 L -29.444863728670903,13.000000000000018 L -28.578838324886465,13.500000000000018 L -27.712812921102024,13.000000000000018 L -28.578838324886462,12.500000000000016 L -28.578838324886462,11.500000000000016 L -27.712812921102024,12.000000000000018 L -26.846787517317587,12.500000000000018 L -26.846787517317587,13.500000000000018 L -27.712812921102028,14.000000000000018 L -27.712812921102028,15.000000000000018 L -27.712812921102028,16.000000000000018 L -26.846787517317587,15.500000000000018 L -26.846787517317587,14.500000000000018 L -25.98076211353315,15.000000000000018 L -25.98076211353315,16.000000000000018 L -25.114736709748712,16.500000000000018 L -24.24871130596427,16.000000000000018 L -25.11473670974871,15.500000000000016 L -25.11473670974871,14.500000000000016 L -24.24871130596427,15.000000000000018 L -23.382685902179833,15.500000000000018 L -23.382685902179833,16.500000000000018 L -22.516660498395396,17.000000000000018 L -21.650635094610955,16.500000000000018 L -20.784609690826514,16.000000000000018 L -21.65063509461095,15.500000000000016 L -22.516660498395392,16.000000000000014 L -22.516660498395392,15.000000000000014 L -21.65063509461095,14.500000000000014 L -20.784609690826514,15.000000000000014 L -19.918584287042073,14.500000000000014 L -19.052558883257632,14.000000000000014 L -19.91858428704207,13.500000000000012 L -20.78460969082651,14.00000000000001 L -20.78460969082651,13.00000000000001 L -19.91858428704207,12.50000000000001 L -19.91858428704207,11.50000000000001 L -20.784609690826507,11.000000000000009 L -21.650635094610944,10.500000000000007 L -21.650635094610944,11.500000000000007 L -20.784609690826507,12.000000000000009 L -21.650635094610948,12.500000000000007 L -22.516660498395385,12.000000000000005 L -23.382685902179826,12.500000000000004 L -23.382685902179826,13.500000000000004 L -22.516660498395385,13.000000000000005 L -21.650635094610948,13.500000000000007 L -22.51666049839539,14.000000000000005 L -23.38268590217983,14.500000000000004 L -24.248711305964267,14.000000000000002 L -24.248711305964267,13.000000000000002 L -25.114736709748705,12.5 L -25.11473670974871,13.5 L -25.98076211353315,13.999999999999998 L -25.98076211353315,12.999999999999998 L -25.98076211353315,11.999999999999998 L -25.11473670974871,11.5 L -24.24871130596427,12.000000000000002 L -23.38268590217983,11.500000000000004 L -22.51666049839539,11.000000000000005 L -23.382685902179826,10.500000000000004 L -24.248711305964267,11.000000000000002 L -24.248711305964267,10.000000000000002 L -23.382685902179826,9.500000000000004 L -23.382685902179826,8.500000000000004 L -24.248711305964264,8.000000000000002 L -24.248711305964267,9.000000000000002 L -25.11473670974871,9.5 L -25.11473670974871,8.5 L -25.11473670974871,7.5 L -24.248711305964267,7.000000000000001 L -24.248711305964267,6.0 L -25.114736709748705,5.499999999999998 L -25.980762113533142,4.9999999999999964 L -25.980762113533146,5.9999999999999964 L -25.11473670974871,6.499999999999998 L -25.98076211353315,6.9999999999999964 L -26.846787517317587,6.499999999999995 L -27.712812921102028,6.999999999999993 L -27.71281292110203,7.999999999999993 L -27.712812921102035,8.999999999999993 L -26.846787517317594,8.499999999999995 L -26.84678751731759,7.499999999999995 L -25.980762113533153,7.9999999999999964 L -25.980762113533157,8.999999999999996 L -26.846787517317598,9.499999999999995 L -26.8467875173176,10.499999999999995 L -25.98076211353316,9.999999999999996 L -25.114736709748723,10.499999999999998 L -25.980762113533164,10.999999999999996 L -26.846787517317605,11.499999999999995 L -27.712812921102042,10.999999999999993 L -27.712812921102042,9.999999999999993 L -28.57883832488648,9.499999999999991 L -28.578838324886483,10.499999999999991 L -29.444863728670924,10.99999999999999 L -29.444863728670924,9.99999999999999 L -29.444863728670924,8.99999999999999 L -28.578838324886483,8.499999999999991 L -28.578838324886483,7.499999999999991 L -29.44486372867092,6.999999999999989 L -29.444863728670924,7.999999999999989 L -30.310889132455365,8.499999999999988 L -30.310889132455365,7.499999999999988 L -30.310889132455365,6.499999999999988 L -29.444863728670924,5.9999999999999885 L -28.578838324886487,6.49999999999999 L -27.712812921102046,5.999999999999991 L -26.846787517317605,5.499999999999992 L -27.712812921102042,4.99999999999999 L -28.578838324886483,5.4999999999999885 L -28.578838324886483,4.499999999999988 L -27.712812921102042,3.9999999999999885 L -26.846787517317605,4.49999999999999 L -25.980762113533164,3.999999999999991 L -26.8467875173176,3.4999999999999893 L -26.8467875173176,2.4999999999999885 L -25.980762113533164,2.9999999999999902 L -25.114736709748726,3.499999999999992 L -25.114736709748726,4.499999999999993 L -24.24871130596429,4.999999999999995 L -23.382685902179848,4.499999999999996 L -22.516660498395407,3.9999999999999964 L -23.382685902179844,3.4999999999999947 L -24.248711305964285,3.9999999999999933 L -24.248711305964285,2.999999999999993 L -23.382685902179844,2.499999999999994 L -23.382685902179844,1.4999999999999931 L -24.24871130596428,0.9999999999999913 L -25.11473670974872,0.49999999999998956 L -25.114736709748723,1.4999999999999902 L -24.248711305964285,1.9999999999999925 L -25.114736709748726,2.499999999999991 L -25.980762113533164,1.9999999999999893 L -25.980762113533164,0.9999999999999887 L -26.8467875173176,0.4999999999999869 L -26.846787517317605,1.4999999999999876 L -27.712812921102046,1.9999999999999862 L -27.712812921102046,0.9999999999999856 L -27.712812921102046,-1.509903313490213e-14 L -26.846787517317605,-0.5000000000000142 L -25.980762113533167,-1.2656542480726785e-14 L -25.114736709748726,-0.5000000000000118 L -25.980762113533164,-1.0000000000000138 L -25.980762113533164,-2.000000000000014 L -25.114736709748726,-1.5000000000000127 L -24.24871130596429,-1.000000000000011 L -24.24871130596429,-1.0436096431476471e-14 L -23.38268590217985,0.4999999999999911 L -22.51666049839541,-7.827072323607354e-15 L -23.382685902179848,-0.5000000000000098 L -23.382685902179848,-1.5000000000000104 L -22.51666049839541,-1.0000000000000089 L -21.650635094610973,-0.5000000000000073 L -21.650635094610973,0.49999999999999334 L -22.516660498395414,0.9999999999999927 L -22.516660498395414,1.9999999999999933 L -22.516660498395414,2.999999999999994 L -21.650635094610973,2.4999999999999947 L -21.650635094610973,1.499999999999994 L -20.784609690826535,1.9999999999999956 L -20.784609690826535,2.9999999999999964 L -21.650635094610976,3.4999999999999956 L -21.650635094610976,4.4999999999999964 L -20.784609690826535,3.9999999999999973 L -19.918584287042098,4.499999999999999 L -20.78460969082654,4.999999999999998 L -21.65063509461098,5.499999999999997 L -22.516660498395417,4.9999999999999964 L -23.38268590217986,5.499999999999996 L -23.38268590217986,6.4999999999999964 L -23.38268590217986,7.499999999999997 L -22.516660498395417,6.999999999999998 L -22.516660498395414,5.999999999999997 L -21.650635094610976,6.499999999999999 L -21.650635094610976,7.5 L -22.516660498395417,7.999999999999999 L -22.516660498395417,9.0 L -22.516660498395417,10.000000000000002 L -21.650635094610976,9.500000000000004 L -21.650635094610973,8.500000000000002 L -20.784609690826535,9.000000000000004 L -20.784609690826535,10.000000000000005 L -19.918584287042094,10.500000000000007 L -19.052558883257653,10.000000000000007 L -18.186533479473212,9.500000000000007 L -19.05255888325765,9.000000000000004 L -19.91858428704209,9.500000000000002 L -19.918584287042087,8.5 L -19.052558883257646,8.0 L -19.052558883257642,6.999999999999998 L -19.91858428704208,6.499999999999996 L -19.918584287042084,7.499999999999997 L -20.784609690826525,7.9999999999999964 L -20.78460969082652,6.999999999999995 L -20.784609690826517,5.999999999999993 L -19.918584287042076,5.499999999999994 L -19.052558883257635,5.9999999999999964 L -18.186533479473194,5.499999999999997 L -19.052558883257635,4.999999999999995 L -19.052558883257632,3.999999999999993 L -18.18653347947319,4.499999999999996 L -17.32050807568875,4.999999999999998 L -17.32050807568875,6.0 L -18.18653347947319,6.5 L -18.18653347947319,7.500000000000002 L -18.18653347947319,8.500000000000004 L -17.32050807568875,8.000000000000004 L -17.320508075688746,7.000000000000002 L -16.454482671904305,7.500000000000004 L -16.454482671904305,8.500000000000007 L -17.320508075688746,9.000000000000007 L -17.320508075688746,10.000000000000009 L -16.454482671904305,9.500000000000009 L -15.588457268119866,10.00000000000001 L -16.45448267190431,10.50000000000001 L -17.32050807568875,11.00000000000001 L -18.18653347947319,10.500000000000009 L -19.052558883257632,11.000000000000009 L -19.052558883257632,12.00000000000001 L -19.052558883257632,13.000000000000012 L -18.18653347947319,12.500000000000012 L -18.186533479473187,11.50000000000001 L -17.320508075688746,12.000000000000014 L -17.32050807568875,13.000000000000016 L -16.45448267190431,13.50000000000002 L -15.588457268119868,13.00000000000002 L -14.722431864335427,12.50000000000002 L -15.588457268119866,12.000000000000016 L -16.45448267190431,12.500000000000016 L -16.454482671904305,11.500000000000012 L -15.588457268119862,11.000000000000012 L -14.722431864335421,11.500000000000016 L -13.856406460550978,11.000000000000016 L -14.72243186433542,10.500000000000012 L -14.722431864335418,9.500000000000009 L -13.856406460550977,10.000000000000012 L -12.990381056766536,10.500000000000016 L -12.990381056766537,11.50000000000002 L -13.85640646055098,12.00000000000002 L -13.856406460550982,13.000000000000023 L -12.99038105676654,12.500000000000023 L -12.124355652982098,13.000000000000027 L -12.990381056766541,13.500000000000027 L -13.856406460550984,14.000000000000027 L -14.722431864335425,13.500000000000023 L -15.588457268119868,14.000000000000023 L -15.58845726811987,15.000000000000027 L -14.722431864335427,14.500000000000027 L -13.856406460550986,15.00000000000003 L -14.722431864335428,15.50000000000003 L -15.588457268119871,16.000000000000032 L -16.454482671904312,15.500000000000028 L -16.454482671904312,14.500000000000025 L -17.320508075688753,14.000000000000021 L -18.186533479473194,13.500000000000018 L -18.186533479473198,14.500000000000021 L -17.320508075688757,15.000000000000025 L -18.186533479473198,15.500000000000025 L -19.05255888325764,15.000000000000021 L -19.91858428704208,15.500000000000021 L -19.918584287042084,16.500000000000025 L -19.05255888325764,16.000000000000025 L -18.186533479473198,16.50000000000003 L -19.05255888325764,17.00000000000003 L -19.91858428704208,17.50000000000003 L -20.78460969082652,17.000000000000025 L -21.650635094610962,17.500000000000025 L -21.650635094610966,18.50000000000003 L -21.65063509461097,19.500000000000032 L -20.784609690826525,19.000000000000032 L -20.78460969082652,18.00000000000003 L -19.91858428704208,18.500000000000032 L -19.918584287042084,19.500000000000036 L -20.784609690826528,20.000000000000036 L -20.78460969082653,21.00000000000004 L -20.784609690826535,22.000000000000043 L -19.91858428704209,21.500000000000043 L -19.918584287042087,20.50000000000004 L -19.052558883257646,21.000000000000043 L -19.05255888325765,22.000000000000046 L -18.18653347947321,22.50000000000005 L -17.320508075688764,22.00000000000005 L -16.45448267190432,21.50000000000005 L -17.32050807568876,21.000000000000046 L -18.186533479473205,21.500000000000046 L -18.1865334794732,20.500000000000043 L -17.320508075688757,20.000000000000043 L -17.320508075688753,19.00000000000004 L -18.186533479473194,18.500000000000036 L -18.186533479473198,19.50000000000004 L -19.052558883257642,20.00000000000004 L -19.05255888325764,19.000000000000036 L -19.052558883257635,18.000000000000032 L -18.18653347947319,17.500000000000032 L -17.32050807568875,18.000000000000036 L -16.454482671904305,17.500000000000036 L -17.320508075688746,17.000000000000032 L -17.320508075688743,16.00000000000003 L -16.4544826719043,16.500000000000032 L -15.58845726811986,17.000000000000036 L -15.588457268119862,18.00000000000004 L -16.454482671904305,18.50000000000004 L -16.45448267190431,19.500000000000043 L -16.454482671904312,20.500000000000046 L -15.58845726811987,20.000000000000046 L -15.588457268119868,19.000000000000043 L -14.722431864335427,19.500000000000046 L -14.722431864335428,20.50000000000005 L -13.856406460550987,21.000000000000053 L -12.990381056766545,20.500000000000053 L -13.856406460550986,20.00000000000005 L -13.856406460550984,19.000000000000046 L -12.990381056766543,19.50000000000005 L -12.124355652982102,20.000000000000053 L -12.124355652982103,21.000000000000057 L -11.258330249197662,21.50000000000006 L -10.39230484541322,21.00000000000006 L -9.526279441628777,20.50000000000006 L -10.392304845413218,20.000000000000057 L -11.25833024919766,20.500000000000057 L -11.258330249197659,19.500000000000053 L -10.392304845413216,19.000000000000053 L -9.526279441628775,19.500000000000057 L -8.660254037844332,19.000000000000057 L -7.7942286340598885,18.500000000000057 L -8.660254037844329,18.000000000000053 L -9.526279441628771,18.500000000000053 L -9.52627944162877,17.50000000000005 L -8.660254037844327,17.00000000000005 L -8.660254037844325,16.000000000000046 L -9.526279441628766,15.500000000000043 L -10.392304845413207,15.000000000000039 L -10.39230484541321,16.000000000000043 L -9.52627944162877,16.500000000000046 L -10.392304845413213,17.000000000000046 L -11.258330249197654,16.500000000000043 L -12.124355652982096,17.000000000000043 L -12.1243556529821,18.000000000000046 L -11.258330249197655,17.500000000000046 L -10.392304845413214,18.00000000000005 L -11.258330249197659,18.50000000000005 L -12.124355652982103,19.00000000000005 L -12.990381056766545,18.500000000000046 L -12.990381056766543,17.500000000000043 L -13.856406460550984,17.00000000000004 L -13.856406460550987,18.000000000000043 L -14.72243186433543,18.500000000000043 L -14.722431864335428,17.50000000000004 L -14.722431864335427,16.500000000000036 L -13.856406460550984,16.000000000000036 L -12.990381056766543,16.50000000000004 L -12.1243556529821,16.00000000000004 L -11.258330249197657,15.500000000000039 L -12.124355652982098,15.000000000000036 L -12.990381056766541,15.500000000000036 L -12.99038105676654,14.500000000000032 L -12.124355652982096,14.000000000000032 L -11.258330249197655,14.500000000000036 L -10.392304845413213,14.000000000000036 L -11.258330249197654,13.500000000000032 L -11.258330249197652,12.500000000000028 L -10.39230484541321,13.000000000000032 L -9.52627944162877,13.500000000000036 L -9.526279441628771,14.500000000000039 L -8.66025403784433,15.000000000000043 L -7.794228634059887,14.500000000000043 L -6.928203230275443,14.000000000000043 L -7.794228634059884,13.500000000000039 L -8.660254037844329,14.000000000000039 L -8.660254037844327,13.000000000000036 L -7.794228634059883,12.500000000000036 L -7.7942286340598805,11.500000000000032 L -8.660254037844322,11.000000000000028 L -9.526279441628763,10.500000000000025 L -9.526279441628766,11.500000000000028 L -8.660254037844325,12.000000000000034 L -9.52627944162877,12.500000000000034 L -10.39230484541321,12.000000000000028 L -10.392304845413209,11.000000000000025 L -11.25833024919765,10.500000000000021 L -11.258330249197654,11.500000000000025 L -12.124355652982096,12.000000000000025 L -12.124355652982095,11.000000000000021 L -12.124355652982093,10.000000000000018 L -11.25833024919765,9.500000000000018 L -10.392304845413209,10.000000000000021 L -9.526279441628766,9.500000000000021 L -10.392304845413207,9.000000000000018 L -10.392304845413205,8.000000000000014 L -9.526279441628764,8.500000000000018 L -8.660254037844323,9.000000000000021 L -8.660254037844325,10.000000000000025 L -7.794228634059884,10.500000000000028 L -6.92820323027544,10.000000000000028 L -7.794228634059881,9.500000000000025 L -7.794228634059879,8.500000000000021 L -6.928203230275438,9.000000000000025 L -6.062177826490997,9.500000000000028 L -6.0621778264909985,10.500000000000032 L -6.928203230275441,11.000000000000032 L -6.928203230275443,12.000000000000036 L -6.928203230275445,13.000000000000039 L -6.062177826491001,12.500000000000039 L -6.0621778264909985,11.500000000000036 L -5.196152422706557,12.000000000000039 L -5.196152422706559,13.000000000000043 L -6.062177826491002,13.500000000000043 L -6.062177826491004,14.500000000000046 L -5.19615242270656,14.000000000000046 L -4.330127018922119,14.50000000000005 L -5.196152422706563,15.00000000000005 L -6.062177826491006,15.50000000000005 L -6.928203230275447,15.000000000000046 L -7.79422863405989,15.500000000000046 L -7.794228634059893,16.50000000000005 L -7.794228634059895,17.500000000000053 L -6.928203230275451,17.000000000000053 L -6.928203230275448,16.00000000000005 L -6.062177826491007,16.500000000000053 L -6.062177826491009,17.500000000000057 L -5.196152422706568,18.00000000000006 L -4.330127018922124,17.50000000000006 L -3.4641016151376807,17.00000000000006 L -4.330127018922122,16.500000000000057 L -5.196152422706566,17.000000000000057 L -5.196152422706564,16.000000000000053 L -4.33012701892212,15.500000000000053 L -3.4641016151376784,16.000000000000057 L -2.5980762113532343,15.500000000000057 L -3.4641016151376753,15.000000000000052 L -3.4641016151376727,14.000000000000046 L -2.598076211353231,14.50000000000005 L -1.7320508075687897,15.000000000000053 L -1.732050807568792,16.000000000000057 L -2.5980762113532356,16.500000000000057 L -2.598076211353238,17.50000000000006 L -1.732050807568794,17.00000000000006 L -0.8660254037843524,17.500000000000064 L -1.7320508075687961,18.000000000000064 L -2.5980762113532396,18.500000000000064 L -3.4641016151376816,18.00000000000006 L -4.330127018922125,18.50000000000006 L -4.330127018922128,19.500000000000064 L -3.464101615137684,19.000000000000064 L -2.5980762113532427,19.500000000000068 L -3.4641016151376864,20.000000000000068 L -4.330127018922131,20.500000000000068 L -5.1961524227065725,20.000000000000064 L -5.196152422706571,19.00000000000006 L -6.062177826491013,18.500000000000057 L -6.928203230275455,18.000000000000053 L -6.928203230275457,19.000000000000057 L -6.062177826491016,19.50000000000006 L -6.92820323027546,20.00000000000006 L -7.794228634059902,19.500000000000057 L -8.660254037844346,20.000000000000057 L -8.660254037844348,21.00000000000006 L -7.7942286340599045,20.50000000000006 L -6.928203230275463,21.000000000000064 L -7.794228634059906,21.500000000000064 L -8.66025403784435,22.000000000000064 L -9.526279441628791,21.50000000000006 L -10.392304845413236,22.00000000000006 L -10.392304845413237,23.000000000000064 L -10.39230484541324,24.000000000000068 L -9.526279441628795,23.500000000000068 L -9.526279441628793,22.500000000000064 L -8.660254037844352,23.000000000000068 L -8.660254037844354,24.00000000000007 L -7.7942286340599125,24.500000000000075 L -6.928203230275469,24.000000000000075 L -6.062177826491025,23.500000000000075 L -6.928203230275466,23.00000000000007 L -7.794228634059911,23.50000000000007 L -7.794228634059908,22.500000000000068 L -6.928203230275464,22.000000000000068 L -6.062177826491023,22.50000000000007 L -5.19615242270658,22.00000000000007 L -6.062177826491021,21.500000000000068 L -6.062177826491018,20.500000000000064 L -5.196152422706577,21.000000000000068 L -4.330127018922136,21.50000000000007 L -4.330127018922139,22.500000000000075 L -5.196152422706582,23.000000000000075 L -5.196152422706585,24.000000000000078 L -4.330127018922141,23.500000000000078 L -3.4641016151376998,24.00000000000008 L -4.330127018922143,24.50000000000008 L -5.196152422706587,25.00000000000008 L -6.062177826491029,24.500000000000078 L -6.928203230275472,25.000000000000078 L -6.928203230275475,26.00000000000008 L -6.062177826491031,25.50000000000008 L -5.196152422706589,26.000000000000085 L -6.062177826491033,26.500000000000085 L -6.928203230275477,27.000000000000085 L -7.794228634059919,26.50000000000008 L -7.794228634059917,25.500000000000078 L -8.660254037844359,25.000000000000075 L -9.5262794416288,24.50000000000007 L -9.526279441628802,25.500000000000075 L -8.66025403784436,26.000000000000078 L -9.526279441628805,26.500000000000078 L -10.392304845413246,26.000000000000075 L -10.392304845413245,25.00000000000007 L -11.258330249197686,24.500000000000068 L -11.258330249197687,25.50000000000007 L -12.124355652982132,26.00000000000007 L -12.12435565298213,25.000000000000068 L -12.124355652982128,24.000000000000064 L -11.258330249197686,23.500000000000064 L -11.258330249197684,22.50000000000006 L -12.124355652982125,22.000000000000057 L -12.990381056766566,21.500000000000053 L -12.990381056766568,22.500000000000057 L -12.124355652982127,23.00000000000006 L -12.99038105676657,23.50000000000006 L -13.85640646055101,23.000000000000057 L -13.856406460551009,22.000000000000053 L -14.72243186433545,21.50000000000005 L -15.58845726811989,21.000000000000046 L -15.588457268119893,22.00000000000005 L -14.722431864335451,22.500000000000053 L -15.588457268119896,23.000000000000053 L -16.454482671904337,22.50000000000005 L -17.32050807568878,23.00000000000005 L -17.320508075688785,24.000000000000053 L -17.32050807568879,25.000000000000057 L -16.454482671904344,24.500000000000057 L -16.45448267190434,23.500000000000053 L -15.5884572681199,24.000000000000057 L -15.588457268119901,25.00000000000006 L -14.72243186433546,25.500000000000064 L -13.856406460551016,25.000000000000064 L -14.722431864335457,24.50000000000006 L -14.722431864335455,23.500000000000057 L -13.856406460551014,24.00000000000006 L -12.990381056766573,24.500000000000064 L -12.990381056766575,25.500000000000068 L -13.856406460551018,26.000000000000068 L -13.85640646055102,27.00000000000007 L -12.990381056766575,26.50000000000007 L -12.124355652982134,27.000000000000075 L -12.990381056766577,27.500000000000075 L -13.856406460551021,28.000000000000075 L -14.722431864335462,27.50000000000007 L -14.72243186433546,26.500000000000068 L -15.588457268119901,26.000000000000064 L -16.454482671904344,25.50000000000006 L -16.454482671904348,26.500000000000064 L -15.588457268119907,27.000000000000068 L -16.45448267190435,27.500000000000068 L -17.320508075688792,27.000000000000064 L -17.320508075688792,26.00000000000006 L -18.186533479473233,25.500000000000057 L -18.186533479473237,26.50000000000006 L -19.05255888325768,27.00000000000006 L -19.05255888325768,26.000000000000057 L -19.05255888325768,25.000000000000053 L -18.186533479473237,24.500000000000053 L -18.186533479473233,23.50000000000005 L -19.052558883257674,23.000000000000046 L -19.918584287042115,22.500000000000043 L -19.91858428704212,23.500000000000046 L -19.052558883257678,24.00000000000005 L -19.918584287042123,24.50000000000005 L -20.784609690826564,24.000000000000046 L -21.650635094611008,24.500000000000046 L -21.65063509461101,25.50000000000005 L -21.650635094611015,26.500000000000053 L -20.78460969082657,26.000000000000053 L -20.784609690826567,25.00000000000005 L -19.918584287042126,25.500000000000053 L -19.91858428704213,26.500000000000057 L -20.784609690826574,27.000000000000057 L -20.784609690826578,28.00000000000006 L -19.918584287042133,27.50000000000006 L -19.052558883257692,28.000000000000064 L -19.918584287042137,28.500000000000064 L -20.78460969082658,29.000000000000064 L -21.650635094611022,28.50000000000006 L -21.65063509461102,27.500000000000057 L -22.51666049839546,27.000000000000053 L -22.516660498395463,28.000000000000057 L -23.382685902179908,28.500000000000057 L -23.382685902179908,27.500000000000053 L -23.382685902179908,26.50000000000005 L -22.516660498395463,26.00000000000005 L -22.51666049839546,25.000000000000046 L -23.3826859021799,24.500000000000043 L -23.382685902179905,25.500000000000046 L -24.24871130596435,26.000000000000046 L -24.24871130596435,25.000000000000043 L -24.24871130596435,24.00000000000004 L -23.382685902179905,23.50000000000004 L -22.516660498395463,24.000000000000043 L -21.65063509461102,23.500000000000043 L -20.784609690826574,23.000000000000043 L -21.650635094611015,22.50000000000004 L -22.51666049839546,23.00000000000004 L -22.51666049839546,22.000000000000036 L -21.650635094611015,21.500000000000036 L -21.65063509461101,20.500000000000032 L -22.516660498395453,20.00000000000003 L -22.516660498395456,21.000000000000032 L -23.3826859021799,21.500000000000032 L -23.3826859021799,20.50000000000003 L -23.3826859021799,19.500000000000025 L -22.516660498395456,19.000000000000025 L -22.516660498395453,18.00000000000002 L -23.382685902179894,17.500000000000018 L -24.248711305964335,17.000000000000014 L -24.24871130596434,18.000000000000018 L -23.382685902179897,18.50000000000002 L -24.248711305964342,19.00000000000002 L -25.114736709748783,18.500000000000018 L -25.114736709748783,17.500000000000014 L -25.980762113533224,17.00000000000001 L -26.846787517317665,16.500000000000007 L -26.84678751731767,17.50000000000001 L -25.980762113533228,18.000000000000014 L -26.846787517317672,18.500000000000014 L -27.712812921102113,18.00000000000001 L -28.578838324886558,18.50000000000001 L -28.57883832488656,19.500000000000014 L -28.578838324886565,20.500000000000018 L -27.71281292110212,20.000000000000018 L -27.712812921102117,19.000000000000014 L -26.846787517317676,19.500000000000018 L -26.84678751731768,20.50000000000002 L -25.98076211353324,21.000000000000025 L -25.114736709748794,20.500000000000025 L -25.980762113533235,20.00000000000002 L -25.98076211353323,19.000000000000018 L -25.11473670974879,19.50000000000002 L -24.24871130596435,20.000000000000025 L -24.248711305964353,21.00000000000003 L -25.114736709748797,21.50000000000003 L -25.1147367097488,22.500000000000032 L -24.248711305964356,22.000000000000032 L -23.382685902179915,22.500000000000036 L -24.24871130596436,23.000000000000036 L -25.114736709748804,23.500000000000036 L -25.980762113533245,23.000000000000032 L -25.980762113533245,22.00000000000003 L -26.846787517317686,21.500000000000025 L -27.712812921102127,21.00000000000002 L -27.71281292110213,22.000000000000025 L -26.84678751731769,22.50000000000003 L -27.712812921102135,23.00000000000003 L -28.578838324886576,22.500000000000025 L -29.44486372867102,23.000000000000025 L -29.444863728671024,24.00000000000003 L -28.57883832488658,23.50000000000003 L -27.712812921102138,24.000000000000032 L -28.578838324886583,24.500000000000032 L -29.444863728671027,25.000000000000032 L -30.31088913245547,24.50000000000003 L -31.176914536239913,25.00000000000003 L -31.176914536239916,26.000000000000032 L -31.17691453623992,27.000000000000036 L -30.310889132455475,26.500000000000036 L -30.310889132455472,25.500000000000032 L -29.44486372867103,26.000000000000036 L -29.444863728671034,27.00000000000004 L -30.31088913245548,27.50000000000004 L -30.310889132455483,28.500000000000043 L -30.310889132455486,29.500000000000046 L -29.44486372867104,29.000000000000046 L -29.444863728671038,28.000000000000043 L -28.578838324886597,28.500000000000046 L -28.5788383248866,29.50000000000005 L -27.71281292110216,30.000000000000053 L -26.846787517317715,29.500000000000053 L -25.98076211353327,29.000000000000053 L -26.84678751731771,28.50000000000005 L -27.712812921102156,29.00000000000005 L -27.712812921102152,28.000000000000046 L -26.846787517317708,27.500000000000046 L -26.846787517317704,26.500000000000043 L -27.712812921102145,26.00000000000004 L -27.71281292110215,27.000000000000043 L -28.578838324886593,27.500000000000043 L -28.57883832488659,26.50000000000004 L -28.578838324886586,25.500000000000036 L -27.71281292110214,25.000000000000036 L -26.8467875173177,25.50000000000004 L -25.980762113533256,25.00000000000004 L -26.846787517317697,24.500000000000036 L -26.846787517317694,23.500000000000032 L -25.980762113533252,24.000000000000036 L -25.11473670974881,24.50000000000004 L -25.114736709748815,25.500000000000043 L -25.98076211353326,26.000000000000043 L -25.980762113533263,27.000000000000046 L -25.980762113533267,28.00000000000005 L -25.114736709748822,27.50000000000005 L -25.11473670974882,26.500000000000046 L -24.248711305964378,27.00000000000005 L -24.24871130596438,28.000000000000053 L -25.114736709748826,28.500000000000053 L -25.11473670974883,29.500000000000057 L -24.248711305964385,29.000000000000057 L -23.382685902179944,29.50000000000006 L -24.248711305964388,30.00000000000006 L -25.114736709748833,30.50000000000006 L -25.980762113533274,30.000000000000057 L -26.84678751731772,30.500000000000057 L -26.846787517317722,31.50000000000006 L -26.846787517317726,32.500000000000064 L -25.98076211353328,32.000000000000064 L -25.980762113533277,31.00000000000006 L -25.114736709748836,31.500000000000064 L -25.11473670974884,32.50000000000007 L -24.2487113059644,33.00000000000008 L -23.382685902179954,32.50000000000008 L -22.51666049839551,32.00000000000008 L -23.38268590217995,31.500000000000075 L -24.248711305964395,32.00000000000007 L -24.24871130596439,31.000000000000068 L -23.382685902179947,30.500000000000068 L -22.516660498395506,31.00000000000007 L -21.65063509461106,30.50000000000007 L -22.516660498395503,30.000000000000064 L -22.5166604983955,29.000000000000057 L -21.650635094611058,29.50000000000006 L -20.784609690826617,30.000000000000064 L -20.78460969082662,31.00000000000007 L -21.650635094611065,31.50000000000007 L -21.65063509461107,32.50000000000008 L -20.784609690826624,32.00000000000008 L -19.918584287042183,32.500000000000085 L -20.784609690826628,33.000000000000085 L -21.650635094611072,33.500000000000085 L -22.516660498395513,33.00000000000008 L -23.382685902179958,33.50000000000008 L -23.38268590217996,34.500000000000085 L -22.516660498395517,34.000000000000085 L -21.650635094611076,34.50000000000009 L -22.51666049839552,35.00000000000009 L -23.382685902179965,35.50000000000009 L -24.248711305964406,35.000000000000085 L -24.248711305964402,34.00000000000008 L -25.114736709748843,33.50000000000007 L -25.980762113533284,33.000000000000064 L -25.980762113533288,34.00000000000007 L -25.114736709748847,34.50000000000008 L -25.98076211353329,35.00000000000008 L -26.846787517317733,34.50000000000007 L -26.84678751731773,33.500000000000064 L -27.71281292110217,33.00000000000006 L -27.712812921102174,34.000000000000064 L -28.57883832488662,34.500000000000064 L -28.578838324886615,33.50000000000006 L -28.57883832488661,32.50000000000005 L -27.712812921102167,32.00000000000005 L -27.712812921102163,31.000000000000043 L -28.578838324886604,30.50000000000004 L -29.444863728671045,30.000000000000036 L -29.44486372867105,31.000000000000043 L -28.578838324886608,31.50000000000005 L -29.444863728671052,32.00000000000005 L -30.310889132455493,31.500000000000043 L -31.176914536239938,32.00000000000004 L -31.17691453623994,33.00000000000005 L -31.176914536239945,34.00000000000006 L -30.3108891324555,33.50000000000006 L -30.310889132455497,32.50000000000005 L -29.444863728671056,33.00000000000006 L -29.44486372867106,34.000000000000064 L -30.310889132455504,34.500000000000064 L -30.310889132455507,35.50000000000007 L -29.444863728671063,35.00000000000007 L -28.578838324886622,35.50000000000008 L -29.444863728671066,36.00000000000008 L -30.31088913245551,36.50000000000008 L -31.176914536239952,36.00000000000007 L -31.17691453623995,35.000000000000064 L -32.04293994002439,34.50000000000006 L -32.04293994002439,35.500000000000064 L -32.90896534380884,36.000000000000064 L -32.90896534380884,35.00000000000006 L -32.90896534380884,34.00000000000005 L -32.04293994002439,33.50000000000005 L -32.04293994002439,32.50000000000004 L -32.90896534380883,32.000000000000036 L -32.90896534380883,33.00000000000004 L -33.77499074759328,33.50000000000004 L -33.77499074759328,32.500000000000036 L -33.77499074759328,31.50000000000003 L -32.90896534380883,31.00000000000003 L -32.04293994002439,31.500000000000032 L -31.176914536239945,31.000000000000032 L -30.3108891324555,30.500000000000032 L -31.17691453623994,30.00000000000003 L -32.04293994002439,30.50000000000003 L -32.04293994002439,29.50000000000002 L -31.176914536239945,29.00000000000002 L -31.17691453623994,28.000000000000014 L -32.04293994002438,27.50000000000001 L -32.04293994002438,28.500000000000018 L -32.90896534380883,29.000000000000018 L -32.90896534380883,28.00000000000001 L -32.90896534380883,27.000000000000004 L -32.04293994002438,26.500000000000004 L -32.04293994002438,25.499999999999996 L -32.90896534380882,24.999999999999993 L -33.774990747593264,24.49999999999999 L -33.774990747593264,25.499999999999996 L -32.90896534380882,26.000000000000004 L -33.77499074759327,26.500000000000004 L -34.64101615137771,26.0 L -35.50704155516216,26.5 L -35.50704155516216,27.500000000000007 L -35.50704155516216,28.500000000000014 L -34.64101615137771,28.000000000000014 L -34.64101615137771,27.000000000000007 L -33.77499074759327,27.500000000000014 L -33.77499074759327,28.50000000000002 L -34.64101615137772,29.00000000000002 L -34.64101615137772,30.00000000000003 L -33.77499074759327,29.50000000000003 L -32.90896534380883,30.000000000000036 L -33.77499074759328,30.500000000000036 L -34.64101615137773,31.000000000000036 L -35.50704155516217,30.50000000000003 L -35.50704155516217,29.50000000000002 L -36.37306695894661,29.000000000000018 L -36.37306695894661,30.000000000000025 L -37.23909236273106,30.500000000000025 L -37.23909236273106,29.500000000000018 L -37.23909236273106,28.50000000000001 L -36.37306695894661,28.00000000000001 L -36.37306695894661,27.000000000000004 L -37.23909236273105,26.5 L -37.23909236273105,27.500000000000007 L -38.1051177665155,28.000000000000007 L -38.1051177665155,27.0 L -38.1051177665155,25.999999999999993 L -37.23909236273105,25.499999999999993 L -36.37306695894661,25.999999999999996 L -35.50704155516216,25.499999999999996 L -34.64101615137771,24.999999999999996 L -35.507041555162154,24.499999999999993 L -36.3730669589466,24.999999999999993 L -36.3730669589466,23.999999999999986 L -35.507041555162154,23.499999999999986 L -34.64101615137771,23.99999999999999 L -33.774990747593264,23.49999999999999 L -34.641016151377706,22.999999999999986 L -34.641016151377706,21.99999999999998 L -33.774990747593264,22.499999999999982 L -32.90896534380882,22.999999999999986 L -32.90896534380882,23.999999999999993 L -32.04293994002438,24.499999999999996 L -31.176914536239938,23.999999999999996 L -30.310889132455493,23.499999999999996 L -31.176914536239934,22.999999999999993 L -32.04293994002438,23.499999999999993 L -32.04293994002438,22.499999999999986 L -31.176914536239938,21.999999999999986 L -30.310889132455493,22.49999999999999 L -29.44486372867105,21.99999999999999 L -28.578838324886604,21.49999999999999 L -29.444863728671045,20.999999999999986 L -30.31088913245549,21.499999999999986 L -30.310889132455486,20.49999999999998 L -29.44486372867104,19.99999999999998 L -29.444863728671038,18.99999999999997 L -30.31088913245548,18.499999999999968 L -31.17691453623992,17.999999999999964 L -31.176914536239924,18.99999999999997 L -30.310889132455483,19.49999999999998 L -31.176914536239927,19.99999999999998 L -32.04293994002437,19.49999999999997 L -32.908965343808816,19.99999999999997 L -32.908965343808816,20.99999999999998 L -32.04293994002437,20.49999999999998 L -31.176914536239927,20.999999999999986 L -32.042939940024375,21.499999999999986 L -32.90896534380882,21.999999999999986 L -33.774990747593264,21.49999999999998 L -33.774990747593264,20.49999999999997 L -34.641016151377706,19.999999999999968 L -34.641016151377706,20.999999999999975 L -35.507041555162154,21.499999999999975 L -35.507041555162154,20.499999999999968 L -35.507041555162154,19.49999999999996 L -34.641016151377706,18.99999999999996 L -33.774990747593264,19.499999999999964 L -32.908965343808816,18.999999999999964 L -32.04293994002437,18.499999999999964 L -32.90896534380881,17.99999999999996 L -33.77499074759326,18.49999999999996 L -33.77499074759326,17.499999999999954 L -32.90896534380881,16.999999999999954 L -32.90896534380881,15.999999999999948 L -33.77499074759325,15.499999999999943 L -33.77499074759325,16.49999999999995 L -34.6410161513777,16.99999999999995 L -34.6410161513777,15.999999999999945 L -34.6410161513777,14.99999999999994 L -33.77499074759325,14.499999999999938 L -33.77499074759325,13.499999999999932 L -34.64101615137769,12.999999999999927 L -35.50704155516213,12.499999999999922 L -35.50704155516213,13.499999999999927 L -34.64101615137769,13.999999999999932 L -35.50704155516214,14.499999999999932 L -36.37306695894658,13.999999999999927 L -37.23909236273103,14.499999999999927 L -37.23909236273103,15.499999999999932 L -37.23909236273103,16.49999999999994 L -36.37306695894658,15.99999999999994 L -36.37306695894658,14.999999999999932 L -35.50704155516214,15.499999999999938 L -35.50704155516214,16.499999999999943 L -36.37306695894659,16.999999999999943 L -36.37306695894659,17.99999999999995 L -35.50704155516214,17.49999999999995 L -34.6410161513777,17.999999999999957 L -35.50704155516215,18.499999999999957 L -36.373066958946595,18.999999999999957 L -37.239092362731036,18.49999999999995 L -37.239092362731036,17.499999999999943 L -38.10511776651548,16.99999999999994 L -38.10511776651548,17.999999999999947 L -38.971143170299925,18.499999999999947 L -38.971143170299925,17.49999999999994 L -38.971143170299925,16.499999999999932 L -38.10511776651548,15.99999999999993 L -38.10511776651548,14.999999999999925 L -38.97114317029992,14.49999999999992 L -38.97114317029992,15.499999999999925 L -39.837168574084366,15.999999999999925 L -39.837168574084366,14.99999999999992 L -39.837168574084366,13.999999999999915 L -38.97114317029992,13.499999999999913 L -38.10511776651548,13.999999999999918 L -37.23909236273103,13.499999999999917 L -36.37306695894658,12.999999999999915 L -37.23909236273102,12.49999999999991 L -38.10511776651547,12.99999999999991 L -38.10511776651547,11.999999999999904 L -37.23909236273102,11.499999999999902 L -37.23909236273102,10.499999999999897 L -38.10511776651546,9.999999999999892 L -38.10511776651546,10.999999999999897 L -38.97114317029991,11.499999999999897 L -38.97114317029991,10.499999999999892 L -38.97114317029991,9.499999999999886 L -38.10511776651546,8.999999999999885 L -38.10511776651546,7.999999999999878 L -38.971143170299904,7.499999999999873 L -39.837168574084345,6.999999999999868 L -39.837168574084345,7.999999999999874 L -38.971143170299904,8.49999999999988 L -39.83716857408435,8.99999999999988 L -40.70319397786879,8.499999999999874 L -40.70319397786879,7.499999999999868 L -41.569219381653234,6.999999999999862 L -42.435244785437675,6.499999999999857 L -42.435244785437675,7.499999999999863 L -41.569219381653234,7.9999999999998685 L -42.43524478543768,8.499999999999869 L -43.30127018922212,7.999999999999863 L -44.16729559300657,8.499999999999863 L -44.16729559300657,9.499999999999869 L -44.16729559300657,10.499999999999874 L -43.30127018922212,9.999999999999874 L -43.30127018922212,8.999999999999869 L -42.43524478543768,9.499999999999874 L -42.43524478543768,10.49999999999988 L -41.56921938165324,10.999999999999885 L -40.70319397786879,10.499999999999885 L -41.569219381653234,9.99999999999988 L -41.569219381653234,8.999999999999872 L -40.70319397786879,9.499999999999877 L -39.83716857408435,9.999999999999883 L -39.83716857408435,10.99999999999989 L -40.7031939778688,11.49999999999989 L -40.7031939778688,12.499999999999897 L -39.83716857408435,11.999999999999897 L -38.97114317029991,12.499999999999902 L -39.83716857408436,12.999999999999902 L -40.70319397786881,13.499999999999902 L -41.56921938165325,12.999999999999897 L -41.56921938165325,11.99999999999989 L -42.43524478543769,11.499999999999885 L -43.30127018922213,10.99999999999988 L -43.30127018922213,11.999999999999886 L -42.43524478543769,12.499999999999893 L -43.30127018922214,12.999999999999893 L -44.16729559300658,12.499999999999888 L -45.033320996791026,12.999999999999888 L -45.033320996791026,13.999999999999895 L -44.16729559300658,13.499999999999895 L -43.30127018922214,13.9999999999999 L -44.167295593006585,14.4999999999999 L -45.03332099679103,14.9999999999999 L -45.899346400575475,14.499999999999895 L -46.76537180435992,14.999999999999895 L -46.76537180435992,15.999999999999902 L -46.76537180435992,16.999999999999908 L -45.899346400575475,16.499999999999908 L -45.89934640057547,15.4999999999999 L -45.033320996791026,15.999999999999908 L -45.033320996791026,16.999999999999915 L -45.899346400575475,17.499999999999915 L -45.899346400575475,18.499999999999922 L -45.899346400575475,19.49999999999993 L -45.033320996791026,18.99999999999993 L -45.03332099679102,17.999999999999922 L -44.16729559300658,18.49999999999993 L -44.16729559300658,19.499999999999936 L -43.30127018922214,19.999999999999943 L -42.43524478543769,19.499999999999943 L -41.56921938165324,18.999999999999943 L -42.43524478543768,18.499999999999936 L -43.30127018922213,18.999999999999936 L -43.30127018922212,17.99999999999993 L -42.435244785437675,17.49999999999993 L -42.43524478543767,16.499999999999922 L -43.30127018922211,15.999999999999915 L -43.301270189222116,16.999999999999922 L -44.167295593006564,17.499999999999922 L -44.16729559300656,16.499999999999915 L -44.16729559300655,15.499999999999908 L -43.3012701892221,14.999999999999908 L -42.43524478543766,15.499999999999915 L -41.56921938165321,14.999999999999915 L -42.43524478543765,14.499999999999908 L -42.435244785437646,13.4999999999999 L -41.569219381653205,13.999999999999908 L -40.703193977868764,14.499999999999915 L -40.703193977868764,15.499999999999922 L -41.56921938165321,15.999999999999922 L -41.56921938165321,16.99999999999993 L -41.56921938165321,17.999999999999936 L -40.703193977868764,17.499999999999936 L -40.70319397786876,16.49999999999993 L -39.837168574084316,16.999999999999936 L -39.837168574084316,17.999999999999943 L -40.703193977868764,18.499999999999943 L -40.703193977868764,19.49999999999995 L -39.837168574084316,18.99999999999995 L -38.971143170299875,19.499999999999957 L -39.83716857408432,19.999999999999957 L -40.70319397786877,20.499999999999957 L -41.56921938165321,19.99999999999995 L -42.43524478543766,20.49999999999995 L -42.43524478543767,21.499999999999957 L -42.435244785437675,22.499999999999964 L -41.56921938165323,21.999999999999964 L -41.56921938165322,20.999999999999957 L -40.70319397786878,21.499999999999964 L -40.703193977868786,22.49999999999997 L -39.837168574084345,22.99999999999998 L -38.9711431702999,22.49999999999998 L -38.10511776651545,21.99999999999998 L -38.97114317029989,21.49999999999997 L -39.83716857408434,21.99999999999997 L -39.83716857408433,20.999999999999964 L -38.97114317029988,20.499999999999964 L -38.10511776651544,20.99999999999997 L -37.23909236273099,20.49999999999997 L -38.105117766515434,19.999999999999964 L -38.10511776651543,18.999999999999957 L -37.239092362730986,19.499999999999964 L -36.373066958946545,19.99999999999997 L -36.37306695894655,20.99999999999998 L -37.239092362731,21.49999999999998 L -37.23909236273101,22.499999999999986 L -36.37306695894656,21.999999999999986 L -35.50704155516212,22.499999999999993 L -36.373066958946566,22.999999999999993 L -37.239092362731014,23.499999999999993 L -38.105117766515455,22.999999999999986 L -38.971143170299904,23.499999999999986 L -38.97114317029991,24.499999999999993 L -38.10511776651546,23.999999999999993 L -37.23909236273102,24.5 L -38.10511776651547,25.0 L -38.97114317029992,25.5 L -39.83716857408436,24.999999999999993 L -39.83716857408436,23.999999999999986 L -40.7031939778688,23.49999999999998 L -41.56921938165324,22.99999999999997 L -41.56921938165325,23.99999999999998 L -40.70319397786881,24.499999999999986 L -41.569219381653255,24.999999999999986 L -42.435244785437696,24.49999999999998 L -42.435244785437696,23.49999999999997 L -43.30127018922214,22.999999999999964 L -43.301270189222144,23.99999999999997 L -44.16729559300659,24.49999999999997 L -44.16729559300659,23.499999999999964 L -44.16729559300659,22.499999999999957 L -43.301270189222144,21.999999999999957 L -43.301270189222144,20.99999999999995 L -44.167295593006585,20.499999999999943 L -45.033320996791026,19.999999999999936 L -45.03332099679103,20.999999999999943 L -44.16729559300659,21.49999999999995 L -45.03332099679104,21.99999999999995 L -45.89934640057548,21.499999999999943 L -46.76537180435993,21.999999999999943 L -46.76537180435994,22.99999999999995 L -46.765371804359944,23.999999999999957 L -45.899346400575496,23.499999999999957 L -45.89934640057549,22.49999999999995 L -45.03332099679105,22.999999999999957 L -45.033320996791055,23.999999999999964 L -45.8993464005755,24.499999999999964 L -45.89934640057551,25.49999999999997 L -45.03332099679106,24.99999999999997 L -44.16729559300662,25.49999999999998 L -45.03332099679107,25.99999999999998 L -45.89934640057552,26.49999999999998 L -46.76537180435996,25.99999999999997 L -46.76537180435996,24.999999999999964 L -47.6313972081444,24.499999999999957 L -47.631397208144406,25.499999999999964 L -48.497422611928855,25.999999999999964 L -48.497422611928855,24.999999999999957 L -48.497422611928855,23.99999999999995 L -47.631397208144406,23.49999999999995 L -47.631397208144406,22.499999999999943 L -48.49742261192885,21.999999999999936 L -48.497422611928855,22.999999999999943 L -49.3634480157133,23.499999999999943 L -49.3634480157133,22.499999999999936 L -49.3634480157133,21.49999999999993 L -48.497422611928855,20.99999999999993 L -47.63139720814441,21.499999999999936 L -46.765371804359965,20.999999999999936 L -45.89934640057552,20.499999999999936 L -46.76537180435996,19.99999999999993 L -47.631397208144406,20.49999999999993 L -47.631397208144406,19.499999999999922 L -46.76537180435996,18.999999999999922 L -46.76537180435996,17.999999999999915 L -47.6313972081444,17.499999999999908 L -47.631397208144406,18.499999999999915 L -48.497422611928855,18.999999999999915 L -48.497422611928855,17.999999999999908 L -48.497422611928855,16.9999999999999 L -47.631397208144406,16.4999999999999 L -47.631397208144406,15.499999999999893 L -48.49742261192885,14.999999999999886 L -49.36344801571329,14.49999999999988 L -49.363448015713296,15.499999999999886 L -48.497422611928855,15.999999999999893 L -49.3634480157133,16.499999999999893 L -50.229473419497744,15.999999999999886 L -51.09549882328219,16.499999999999886 L -51.0954988232822,17.499999999999893 L -51.095498823282206,18.4999999999999 L -50.22947341949776,17.9999999999999 L -50.22947341949775,16.999999999999893 L -49.36344801571331,17.4999999999999 L -49.36344801571332,18.499999999999908 L -50.229473419497765,18.999999999999908 L -50.22947341949777,19.999999999999915 L -49.363448015713324,19.499999999999915 L -48.49742261192888,19.999999999999922 L -49.36344801571333,20.499999999999922 L -50.22947341949778,20.999999999999922 L -51.09549882328222,20.499999999999915 L -51.09549882328222,19.499999999999908 L -51.96152422706666,18.9999999999999 L -51.96152422706667,19.999999999999908 L -52.82754963085112,20.499999999999908 L -52.82754963085112,19.4999999999999 L -52.82754963085112,18.499999999999893 L -51.96152422706667,17.999999999999893 L -51.96152422706667,16.999999999999886 L -52.82754963085111,16.49999999999988 L -52.82754963085112,17.499999999999886 L -53.693575034635565,17.999999999999886 L -53.693575034635565,16.99999999999988 L -53.693575034635565,15.999999999999872 L -52.82754963085112,15.499999999999872 L -51.961524227066676,15.99999999999988 L -51.09549882328223,15.49999999999988 L -50.22947341949778,14.99999999999988 L -51.09549882328222,14.499999999999872 L -51.96152422706667,14.999999999999872 L -51.96152422706667,13.999999999999865 L -51.09549882328222,13.499999999999865 L -50.22947341949778,13.999999999999872 L -49.36344801571333,13.499999999999872 L -50.22947341949777,12.999999999999865 L -50.22947341949777,11.999999999999858 L -49.36344801571333,12.499999999999865 L -48.49742261192889,12.999999999999872 L -48.49742261192889,13.99999999999988 L -47.63139720814445,14.499999999999886 L -46.76537180436,13.999999999999886 L -45.89934640057555,13.499999999999886 L -46.765371804359994,12.99999999999988 L -47.63139720814444,13.49999999999988 L -47.63139720814444,12.499999999999872 L -46.765371804359994,11.999999999999872 L -45.89934640057555,12.49999999999988 L -45.033320996791105,11.99999999999988 L -44.167295593006656,11.49999999999988 L -45.0333209967911,10.999999999999872 L -45.899346400575546,11.499999999999872 L -45.899346400575546,10.499999999999865 L -45.0333209967911,9.999999999999863 L -45.0333209967911,8.999999999999854 L -45.89934640057554,8.499999999999847 L -46.76537180435998,7.99999999999984 L -46.76537180435999,8.999999999999847 L -45.899346400575546,9.499999999999854 L -46.765371804359994,9.999999999999854 L -47.631397208144435,9.499999999999847 L -48.49742261192888,9.999999999999847 L -48.49742261192889,10.999999999999854 L -47.63139720814444,10.499999999999854 L -46.76537180436,10.999999999999861 L -47.63139720814445,11.499999999999861 L -48.4974226119289,11.999999999999861 L -49.36344801571334,11.499999999999854 L -49.36344801571334,10.499999999999847 L -50.22947341949778,9.99999999999984 L -50.229473419497786,10.999999999999847 L -51.095498823282234,11.499999999999847 L -51.095498823282234,10.49999999999984 L -51.095498823282234,9.499999999999833 L -50.229473419497786,8.999999999999831 L -49.363448015713345,9.499999999999838 L -48.4974226119289,8.999999999999837 L -47.63139720814445,8.499999999999835 L -48.49742261192889,7.999999999999828 L -49.36344801571334,8.499999999999828 L -49.36344801571334,7.49999999999982 L -48.49742261192889,6.999999999999819 L -47.63139720814445,7.499999999999826 L -46.76537180436,6.999999999999825 L -47.63139720814444,6.499999999999818 L -47.63139720814444,5.49999999999981 L -46.76537180436,5.999999999999817 L -45.89934640057556,6.499999999999824 L -45.89934640057556,7.499999999999832 L -45.03332099679112,7.999999999999839 L -44.16729559300667,7.499999999999838 L -43.30127018922222,6.9999999999998375 L -44.16729559300666,6.49999999999983 L -45.03332099679111,6.999999999999831 L -45.03332099679111,5.999999999999823 L -44.16729559300666,5.499999999999822 L -44.16729559300666,4.499999999999814 L -45.033320996791105,3.9999999999998073 L -45.899346400575546,3.4999999999998 L -45.89934640057555,4.499999999999808 L -45.03332099679111,4.999999999999815 L -45.89934640057556,5.499999999999816 L -46.76537180436,4.999999999999809 L -46.76537180436,3.999999999999801 L -47.63139720814444,3.499999999999794 L -47.63139720814445,4.499999999999802 L -48.4974226119289,4.999999999999803 L -48.4974226119289,3.999999999999795 L -48.4974226119289,2.999999999999787 L -47.63139720814445,2.499999999999786 L -46.76537180436001,2.999999999999793 L -45.89934640057556,2.499999999999792 L -46.76537180436,1.999999999999785 L -46.76537180436,0.9999999999997771 L -45.89934640057556,1.499999999999784 L -45.03332099679112,1.9999999999997908 L -45.03332099679112,2.999999999999799 L -44.16729559300668,3.4999999999998055 L -43.30127018922223,2.9999999999998046 L -44.16729559300667,2.4999999999997975 L -44.16729559300667,1.4999999999997895 L -43.30127018922223,1.9999999999997964 L -42.43524478543779,2.4999999999998033 L -42.43524478543779,3.4999999999998113 L -43.30127018922224,3.9999999999998126 L -43.30127018922224,4.999999999999821 L -43.30127018922224,5.999999999999829 L -42.43524478543779,5.499999999999828 L -42.43524478543779,4.49999999999982 L -41.56921938165335,4.999999999999827 L -41.56921938165335,5.999999999999835 L -40.70319397786891,6.499999999999842 L -39.83716857408446,5.999999999999841 L -40.7031939778689,5.499999999999834 L -40.7031939778689,4.499999999999826 L -39.83716857408446,4.999999999999833 L -38.97114317030002,5.49999999999984 L -38.97114317030002,6.499999999999848 L -38.105117766515576,6.999999999999855 L -37.23909236273113,6.499999999999854 L -36.37306695894668,5.9999999999998535 L -37.23909236273112,5.499999999999846 L -38.10511776651557,5.999999999999847 L -38.10511776651557,4.999999999999839 L -37.23909236273112,4.499999999999838 L -36.37306695894668,4.9999999999998455 L -35.50704155516223,4.499999999999845 L -34.641016151377784,3.9999999999998437 L -35.507041555162225,3.4999999999998366 L -36.37306695894667,3.9999999999998375 L -36.37306695894667,2.9999999999998295 L -35.507041555162225,2.4999999999998286 L -35.507041555162225,1.4999999999998206 L -36.373066958946666,0.9999999999998135 L -37.23909236273111,0.4999999999998064 L -37.239092362731114,1.4999999999998144 L -36.37306695894667,1.999999999999822 L -37.23909236273112,2.4999999999998224 L -38.10511776651556,1.9999999999998153 L -38.97114317030001,2.499999999999816 L -38.97114317030002,3.499999999999824 L -38.10511776651557,2.999999999999824 L -37.23909236273113,3.4999999999998317 L -38.105117766515576,3.999999999999832 L -38.971143170300024,4.499999999999833 L -39.837168574084465,3.999999999999826 L -39.837168574084465,2.999999999999818 L -40.70319397786891,2.499999999999811 L -40.703193977868914,3.499999999999819 L -41.56921938165336,3.9999999999998197 L -41.56921938165336,2.9999999999998117 L -41.56921938165336,1.9999999999998037 L -40.703193977868914,1.4999999999998026 L -39.83716857408447,1.9999999999998095 L -38.971143170300024,1.4999999999998084 L -38.105117766515576,0.9999999999998073 L -38.97114317030002,0.49999999999980016 L -39.837168574084465,0.9999999999998008 L -39.837168574084465,-2.071676163950542e-13 L -38.97114317030002,-0.5000000000002083 L -38.105117766515576,-2.013944566670034e-13 L -37.23909236273113,-0.5000000000002025 L -38.10511776651557,-1.0000000000002096 L -38.10511776651557,-2.0000000000002176 L -37.23909236273113,-1.5000000000002107 L -36.37306695894669,-1.0000000000002038 L -36.37306695894669,-1.9584334154387761e-13 L -35.507041555162246,0.49999999999981104 L -34.6410161513778,-1.900701818158268e-13 L -33.77499074759335,-0.5000000000001912 L -34.64101615137779,-1.0000000000001983 L -35.50704155516224,-0.5000000000001976 L -35.50704155516224,-1.5000000000002056 L -34.64101615137779,-2.000000000000207 L -33.77499074759335,-1.5000000000002 L -32.9089653438089,-2.000000000000201 L -32.04293994002445,-2.5000000000002025 L -32.908965343808894,-3.0000000000002096 L -33.77499074759334,-2.5000000000002087 L -33.77499074759334,-3.5000000000002167 L -32.908965343808894,-4.000000000000218 L -32.908965343808894,-5.000000000000226 L -33.774990747593336,-5.500000000000233 L -34.64101615137778,-6.00000000000024 L -34.641016151377784,-5.000000000000232 L -33.77499074759334,-4.500000000000224 L -34.64101615137779,-4.000000000000223 L -35.50704155516223,-4.50000000000023 L -36.37306695894668,-4.000000000000229 L -36.37306695894669,-3.000000000000221 L -35.50704155516224,-3.500000000000221 L -34.6410161513778,-3.0000000000002136 L -35.507041555162246,-2.500000000000213 L -36.373066958946694,-2.0000000000002123 L -37.239092362731135,-2.5000000000002194 L -37.239092362731135,-3.5000000000002274 L -38.105117766515576,-4.0000000000002345 L -38.10511776651558,-3.0000000000002265 L -38.97114317030003,-2.5000000000002256 L -38.97114317030003,-3.5000000000002336 L -38.97114317030003,-4.500000000000242 L -38.10511776651558,-5.0000000000002425 L -37.23909236273114,-4.500000000000235 L -36.373066958946694,-5.000000000000236 L -35.507041555162246,-5.500000000000237 L -36.37306695894669,-6.000000000000244 L -37.239092362731135,-5.500000000000243 L -37.239092362731135,-6.500000000000251 L -36.37306695894669,-7.000000000000252 L -36.37306695894669,-8.00000000000026 L -37.23909236273113,-8.500000000000266 L -37.239092362731135,-7.5000000000002585 L -38.10511776651558,-7.000000000000258 L -38.10511776651558,-8.000000000000266 L -38.10511776651558,-9.000000000000274 L -37.239092362731135,-9.500000000000275 L -37.239092362731135,-10.500000000000284 L -38.105117766515576,-11.000000000000291 L -38.97114317030002,-11.500000000000298 L -38.971143170300024,-10.500000000000291 L -38.10511776651558,-10.000000000000284 L -38.97114317030003,-9.500000000000284 L -39.83716857408447,-10.000000000000291 L -39.83716857408447,-11.000000000000298 L -40.703193977868914,-11.500000000000306 L -41.569219381653355,-12.000000000000313 L -41.56921938165336,-11.000000000000306 L -40.70319397786892,-10.500000000000298 L -41.56921938165337,-10.000000000000298 L -42.43524478543781,-10.500000000000306 L -43.30127018922226,-10.000000000000306 L -43.301270189222265,-9.000000000000298 L -43.30127018922227,-8.000000000000291 L -42.435244785437824,-8.500000000000291 L -42.43524478543782,-9.500000000000298 L -41.569219381653376,-9.000000000000291 L -41.56921938165338,-8.000000000000284 L -40.70319397786894,-7.500000000000277 L -39.837168574084494,-8.000000000000277 L -40.703193977868935,-8.500000000000284 L -40.70319397786893,-9.500000000000291 L -39.83716857408449,-9.000000000000284 L -38.971143170300046,-8.500000000000277 L -38.97114317030005,-7.500000000000269 L -39.8371685740845,-7.000000000000268 L -39.83716857408451,-6.00000000000026 L -38.97114317030006,-6.50000000000026 L -38.10511776651562,-6.000000000000252 L -38.97114317030007,-5.500000000000251 L -39.837168574084515,-5.0000000000002505 L -40.703193977868956,-5.500000000000258 L -40.703193977868956,-6.500000000000266 L -41.5692193816534,-7.000000000000273 L -42.43524478543784,-7.50000000000028 L -42.435244785437845,-6.500000000000272 L -41.569219381653404,-6.000000000000265 L -42.43524478543785,-5.500000000000264 L -43.30127018922229,-6.000000000000271 L -44.16729559300674,-5.50000000000027 L -44.16729559300675,-4.500000000000262 L -43.3012701892223,-5.000000000000262 L -42.43524478543786,-4.500000000000254 L -43.30127018922231,-4.000000000000253 L -44.167295593006756,-3.5000000000002522 L -45.0333209967912,-4.000000000000259 L -45.899346400575645,-3.5000000000002585 L -45.89934640057565,-2.5000000000002505 L -45.89934640057566,-1.5000000000002425 L -45.03332099679121,-2.0000000000002425 L -45.033320996791204,-3.0000000000002505 L -44.16729559300676,-2.500000000000243 L -44.16729559300677,-1.500000000000235 L -43.30127018922233,-1.0000000000002274 L -42.43524478543788,-1.5000000000002276 L -41.56921938165343,-2.000000000000228 L -42.435244785437874,-2.500000000000236 L -43.30127018922232,-2.000000000000236 L -43.301270189222315,-3.000000000000244 L -42.43524478543787,-3.5000000000002442 L -41.569219381653426,-3.0000000000002367 L -40.70319397786898,-3.500000000000237 L -41.56921938165342,-4.000000000000245 L -41.56921938165341,-5.000000000000253 L -40.70319397786897,-4.500000000000245 L -39.83716857408453,-4.000000000000238 L -39.83716857408454,-3.00000000000023 L -40.703193977868985,-2.500000000000229 L -40.70319397786899,-1.5000000000002212 L -39.837168574084544,-2.000000000000221 L -38.9711431703001,-1.5000000000002136 L -39.83716857408455,-1.000000000000213 L -40.703193977869,-0.5000000000002123 L -41.56921938165344,-1.0000000000002194 L -42.43524478543789,-0.5000000000002187 L -42.435244785437895,0.4999999999997893 L -41.56921938165345,-2.1094237467877974e-13 L -40.703193977869006,0.4999999999997966 L -41.569219381653454,0.9999999999997973 L -42.4352447854379,1.499999999999798 L -43.30127018922234,0.9999999999997908 L -43.30127018922234,-2.1715962361668062e-13 L -44.167295593006784,-0.5000000000002243 L -45.033320996791225,-1.0000000000002314 L -45.03332099679123,-2.233768725545815e-13 L -44.16729559300679,0.4999999999997842 L -45.03332099679124,0.9999999999997848 L -45.89934640057568,0.49999999999977773 L -45.89934640057568,-0.5000000000002303 L -46.76537180436012,-1.0000000000002374 L -46.76537180436013,-2.2937207688755734e-13 L -47.63139720814458,0.4999999999997713 L -47.63139720814458,-0.5000000000002367 L -47.63139720814458,-1.5000000000002447 L -46.76537180436013,-2.000000000000246 L -46.76537180436013,-3.000000000000254 L -47.63139720814457,-3.500000000000261 L -48.49742261192901,-4.000000000000268 L -48.49742261192902,-3.0000000000002602 L -47.63139720814458,-2.5000000000002527 L -48.497422611929025,-2.0000000000002522 L -49.363448015713466,-2.5000000000002593 L -50.229473419497914,-2.0000000000002585 L -50.22947341949792,-1.0000000000002505 L -50.22947341949793,-2.424727085781342e-13 L -49.36344801571348,-0.5000000000002427 L -49.36344801571347,-1.5000000000002507 L -48.49742261192903,-1.0000000000002431 L -48.49742261192904,-2.3514523661560816e-13 L -49.36344801571349,0.4999999999997655 L -49.363448015713494,1.4999999999997735 L -48.497422611929046,0.9999999999997733 L -47.631397208144605,1.4999999999997808 L -48.49742261192905,1.9999999999997815 L -49.3634480157135,2.4999999999997824 L -50.22947341949794,1.9999999999997753 L -50.22947341949794,0.9999999999997673 L -51.095498823282384,0.4999999999997602 L -51.09549882328239,1.4999999999997682 L -51.96152422706684,1.9999999999997689 L -51.96152422706684,0.9999999999997609 L -51.96152422706684,-2.4713564528155985e-13 L -51.09549882328239,-0.5000000000002482 L -51.09549882328239,-1.5000000000002562 L -51.96152422706683,-2.0000000000002633 L -51.96152422706684,-1.0000000000002554 L -52.82754963085129,-0.5000000000002547 L -52.82754963085129,-1.5000000000002627 L -52.82754963085129,-2.500000000000271 L -51.96152422706684,-3.000000000000272 L -51.0954988232824,-2.5000000000002647 L -50.22947341949795,-3.0000000000002656 L -49.3634480157135,-3.5000000000002665 L -50.22947341949794,-4.000000000000274 L -51.09549882328239,-3.5000000000002727 L -51.09549882328239,-4.500000000000281 L -50.22947341949794,-5.0000000000002816 L -49.3634480157135,-4.5000000000002744 L -48.49742261192905,-5.000000000000275 L -49.363448015713494,-5.500000000000282 L -49.363448015713494,-6.50000000000029 L -48.49742261192905,-6.000000000000283 L -47.63139720814461,-5.500000000000276 L -47.63139720814461,-4.500000000000268 L -46.76537180436017,-4.000000000000261 L -45.89934640057572,-4.500000000000262 L -45.033320996791275,-5.000000000000263 L -45.899346400575716,-5.50000000000027 L -46.765371804360164,-5.000000000000269 L -46.765371804360164,-6.000000000000277 L -45.899346400575716,-6.500000000000278 L -45.033320996791275,-6.000000000000271 L -44.16729559300683,-6.500000000000272 L -43.30127018922238,-7.000000000000273 L -44.16729559300682,-7.50000000000028 L -45.03332099679127,-7.000000000000279 L -45.03332099679127,-8.000000000000288 L -44.16729559300682,-8.50000000000029 L -44.16729559300682,-9.500000000000298 L -45.03332099679126,-10.000000000000306 L -45.8993464005757,-10.500000000000313 L -45.89934640057571,-9.500000000000306 L -45.03332099679127,-9.000000000000298 L -45.899346400575716,-8.500000000000298 L -46.76537180436016,-9.000000000000306 L -47.631397208144605,-8.500000000000306 L -47.63139720814461,-7.5000000000002975 L -46.765371804360164,-8.000000000000298 L -45.89934640057572,-7.500000000000291 L -46.76537180436017,-7.00000000000029 L -47.63139720814462,-6.5000000000002895 L -48.49742261192906,-7.000000000000297 L -48.49742261192906,-8.000000000000306 L -49.3634480157135,-8.500000000000313 L -49.36344801571351,-7.500000000000305 L -50.22947341949796,-7.000000000000304 L -50.22947341949796,-8.000000000000313 L -50.22947341949796,-9.00000000000032 L -49.36344801571351,-9.500000000000322 L -48.49742261192907,-9.000000000000314 L -47.63139720814462,-9.500000000000316 L -46.76537180436017,-10.000000000000318 L -47.63139720814461,-10.500000000000325 L -48.49742261192906,-10.000000000000325 L -48.49742261192906,-11.000000000000334 L -47.63139720814461,-11.500000000000336 " />
    </g>
</svg>
