<?xml version="1.0" encoding="UTF-8"?>
<!DOCTYPE svg PUBLIC "-//W3C//DTD SVG 1.1//EN"
    "http://www.w3.org/Graphics/SVG/1.1/DTD/svg11.dtd">

<svg xmlns="http://www.w3.org/2000/svg" xmlns:xlink="http://www.w3.org/1999/xlink" version="1.1" width="499.9999999999998" height="500" viewBox="-59.999999999999964 -60.0 119.99999999999994 120.0">
    <g>
        <rect x="-59.999999999999964" y="-60.0" width="119.99999999999994" height="120.0" fill="#CBD4C2" />
        <path style="fill:none;stroke:#50514F;stroke-width:0.1px;stroke-linecap:square" d="M 33.3333333333333,33.3333333333333 L 33.3333333333333,31.48148148148145 " />
        <path style="fill:none;stroke:#50514F;stroke-width:0.1px;stroke-linecap:square" d="M 31.48148148148145,31.48148148148145 L 31.48148148148145,29.629629629629598 L 31.48148148148145,27.777777777777747 L 29.629629629629598,27.777777777777747 L 29.629629629629598,29.629629629629598 L 29.629629629629598,31.48148148148145 L 31.48148148148145,31.48148148148145 " />
        <path style="fill:none;stroke:#50514F;stroke-width:0.1px;stroke-linecap:square" d="M 33.3333333333333,31.48148148148145 L 33.3333333333333,29.629629629629598 L 33.3333333333333,27.777777777777747 " />
        <path style="fill:none;stroke:#50514F;stroke-width:0.1px;stroke-linecap:square" d="M 35.18518518518515,27.777777777777747 L 35.18518518518515,25.925925925925892 L 35.18518518518515,24.07407407407404 L 37.037037037037,24.07407407407404 L 37.037037037037,25.925925925925892 L 37.037037037037,27.777777777777747 L 35.18518518518515,27.777777777777747 " />
        <path style="fill:none;stroke:#50514F;stroke-width:0.1px;stroke-linecap:square" d="M 33.3333333333333,27.777777777777747 L 33.3333333333333,25.925925925925892 L 33.3333333333333,24.07407407407404 L 33.3333333333333,22.22222222222219 " />
        <path style="fill:none;stroke:#50514F;stroke-width:0.1px;stroke-linecap:square" d="M 31.48148148148145,22.22222222222219 L 31.48148148148145,20.37037037037034 " />
        <path style="fill:none;stroke:#50514F;stroke-width:0.1px;stroke-linecap:square" d="M 29.6296296296296,20.37037037037034 L 29.6296296296296,18.518518518518487 L 29.6296296296296,16.666666666666636 L 27.777777777777747,16.666666666666636 L 27.777777777777747,18.518518518518487 L 27.777777777777747,20.37037037037034 L 29.6296296296296,20.37037037037034 " />
        <path style="fill:none;stroke:#50514F;stroke-width:0.1px;stroke-linecap:square" d="M 31.48148148148145,20.37037037037034 L 31.48148148148145,18.518518518518487 L 31.481481481481456,16.666666666666636 " />
        <path style="fill:none;stroke:#50514F;stroke-width:0.1px;stroke-linecap:square" d="M 33.33333333333331,16.666666666666636 L 33.33333333333331,14.814814814814785 L 33.33333333333331,12.962962962962933 L 35.185185185185155,12.962962962962933 L 35.185185185185155,14.814814814814785 L 35.185185185185155,16.666666666666636 L 33.33333333333331,16.666666666666636 " />
        <path style="fill:none;stroke:#50514F;stroke-width:0.1px;stroke-linecap:square" d="M 31.481481481481456,16.666666666666636 L 31.481481481481456,14.814814814814785 L 31.481481481481456,12.962962962962933 L 31.481481481481456,11.111111111111082 L 31.481481481481456,9.259259259259231 " />
        <path style="fill:none;stroke:#50514F;stroke-width:0.1px;stroke-linecap:square" d="M 29.6296296296296,9.259259259259231 L 29.6296296296296,7.407407407407379 L 29.6296296296296,5.555555555555528 L 27.77777777777775,5.555555555555528 L 27.77777777777775,7.407407407407379 L 27.77777777777775,9.259259259259231 L 29.6296296296296,9.259259259259231 " />
        <path style="fill:none;stroke:#50514F;stroke-width:0.1px;stroke-linecap:square" d="M 31.481481481481456,9.259259259259231 L 31.481481481481456,7.407407407407379 L 31.481481481481456,5.555555555555528 " />
        <path style="fill:none;stroke:#50514F;stroke-width:0.1px;stroke-linecap:square" d="M 33.33333333333331,5.555555555555528 L 33.33333333333331,3.7037037037036766 L 33.33333333333331,1.851851851851825 L 35.185185185185155,1.851851851851825 L 35.185185185185155,3.7037037037036766 L 35.185185185185155,5.555555555555528 L 33.33333333333331,5.555555555555528 " />
        <path style="fill:none;stroke:#50514F;stroke-width:0.1px;stroke-linecap:square" d="M 31.481481481481456,5.555555555555528 L 31.481481481481456,3.7037037037036766 L 31.481481481481456,1.851851851851825 L 31.481481481481456,-2.6316397620744445e-14 L 29.6296296296296,-2.6316397620744445e-14 " />
        <path style="fill:none;stroke:#50514F;stroke-width:0.1px;stroke-linecap:square" d="M 29.6296296296296,1.851851851851825 L 27.77777777777775,1.851851851851825 L 25.9259259259259,1.851851851851825 L 25.9259259259259,3.7037037037036766 L 27.77777777777775,3.7037037037036766 L 29.6296296296296,3.7037037037036766 L 29.6296296296296,1.851851851851825 " />
        <path style="fill:none;stroke:#50514F;stroke-width:0.1px;stroke-linecap:square" d="M 29.6296296296296,-2.6316397620744445e-14 L 27.77777777777775,-2.6316397620744445e-14 L 25.9259259259259,-2.6316397620744445e-14 " />
        <path style="fill:none;stroke:#50514F;stroke-width:0.1px;stroke-linecap:square" d="M 25.9259259259259,-1.8518518518518778 L 24.074074074074048,-1.8518518518518778 L 22.222222222222197,-1.8518518518518778 L 22.222222222222197,-3.703703703703729 L 24.074074074074048,-3.703703703703729 L 25.9259259259259,-3.703703703703729 L 25.9259259259259,-1.8518518518518778 " />
        <path style="fill:none;stroke:#50514F;stroke-width:0.1px;stroke-linecap:square" d="M 25.9259259259259,-2.6316397620744445e-14 L 24.074074074074048,-2.6316397620744445e-14 L 22.222222222222197,-2.6316397620744445e-14 L 20.370370370370345,-2.6316397620744445e-14 L 20.370370370370345,1.851851851851825 " />
        <path style="fill:none;stroke:#50514F;stroke-width:0.1px;stroke-linecap:square" d="M 22.222222222222197,1.851851851851825 L 22.222222222222197,3.7037037037036766 L 22.222222222222197,5.555555555555528 L 24.074074074074048,5.555555555555528 L 24.074074074074048,3.7037037037036766 L 24.074074074074048,1.851851851851825 L 22.222222222222197,1.851851851851825 " />
        <path style="fill:none;stroke:#50514F;stroke-width:0.1px;stroke-linecap:square" d="M 20.370370370370345,1.851851851851825 L 20.370370370370345,3.7037037037036766 L 20.370370370370345,5.555555555555528 " />
        <path style="fill:none;stroke:#50514F;stroke-width:0.1px;stroke-linecap:square" d="M 18.518518518518494,5.555555555555528 L 18.518518518518494,7.407407407407379 L 18.518518518518494,9.259259259259231 L 16.666666666666643,9.259259259259231 L 16.666666666666643,7.407407407407379 L 16.666666666666643,5.555555555555528 L 18.518518518518494,5.555555555555528 " />
        <path style="fill:none;stroke:#50514F;stroke-width:0.1px;stroke-linecap:square" d="M 20.370370370370345,5.555555555555528 L 20.370370370370345,7.407407407407379 L 20.370370370370345,9.259259259259231 L 20.370370370370345,11.111111111111082 L 20.370370370370345,12.962962962962933 " />
        <path style="fill:none;stroke:#50514F;stroke-width:0.1px;stroke-linecap:square" d="M 22.222222222222197,12.962962962962933 L 22.222222222222197,14.814814814814785 L 22.222222222222197,16.666666666666636 L 24.074074074074048,16.666666666666636 L 24.074074074074048,14.814814814814785 L 24.074074074074048,12.962962962962933 L 22.222222222222197,12.962962962962933 " />
        <path style="fill:none;stroke:#50514F;stroke-width:0.1px;stroke-linecap:square" d="M 20.370370370370345,12.962962962962933 L 20.370370370370345,14.814814814814785 L 20.370370370370345,16.666666666666636 " />
        <path style="fill:none;stroke:#50514F;stroke-width:0.1px;stroke-linecap:square" d="M 18.518518518518494,16.666666666666636 L 18.518518518518494,18.518518518518487 L 18.518518518518494,20.37037037037034 L 16.666666666666643,20.37037037037034 L 16.666666666666643,18.518518518518487 L 16.666666666666643,16.666666666666636 L 18.518518518518494,16.666666666666636 " />
        <path style="fill:none;stroke:#50514F;stroke-width:0.1px;stroke-linecap:square" d="M 20.370370370370345,16.666666666666636 L 20.370370370370345,18.518518518518487 L 20.370370370370345,20.37037037037034 L 20.370370370370345,22.22222222222219 L 22.222222222222197,22.22222222222219 " />
        <path style="fill:none;stroke:#50514F;stroke-width:0.1px;stroke-linecap:square" d="M 22.222222222222197,20.37037037037034 L 24.074074074074048,20.37037037037034 L 25.9259259259259,20.37037037037034 L 25.9259259259259,18.518518518518487 L 24.074074074074048,18.518518518518487 L 22.222222222222197,18.518518518518487 L 22.222222222222197,20.37037037037034 " />
        <path style="fill:none;stroke:#50514F;stroke-width:0.1px;stroke-linecap:square" d="M 22.222222222222197,22.22222222222219 L 24.074074074074048,22.22222222222219 L 25.9259259259259,22.222222222222193 " />
        <path style="fill:none;stroke:#50514F;stroke-width:0.1px;stroke-linecap:square" d="M 25.9259259259259,24.074074074074044 L 27.77777777777775,24.074074074074048 L 29.6296296296296,24.074074074074048 L 29.6296296296296,25.9259259259259 L 27.77777777777775,25.9259259259259 L 25.9259259259259,25.9259259259259 L 25.9259259259259,24.074074074074048 " />
        <path style="fill:none;stroke:#50514F;stroke-width:0.1px;stroke-linecap:square" d="M 25.9259259259259,22.222222222222197 L 27.77777777777775,22.222222222222197 L 29.6296296296296,22.222222222222197 L 31.481481481481456,22.222222222222197 " />
        <path style="fill:none;stroke:#50514F;stroke-width:0.1px;stroke-linecap:square" d="M 33.33333333333331,22.222222222222197 L 33.33333333333331,20.370370370370345 " />
        <path style="fill:none;stroke:#50514F;stroke-width:0.1px;stroke-linecap:square" d="M 31.481481481481456,20.370370370370345 L 31.481481481481456,18.518518518518494 L 31.481481481481456,16.666666666666643 L 29.6296296296296,16.666666666666643 L 29.6296296296296,18.518518518518494 L 29.6296296296296,20.370370370370345 L 31.481481481481456,20.370370370370345 " />
        <path style="fill:none;stroke:#50514F;stroke-width:0.1px;stroke-linecap:square" d="M 33.33333333333331,20.37037037037035 L 33.33333333333331,18.518518518518498 L 33.33333333333331,16.666666666666647 " />
        <path style="fill:none;stroke:#50514F;stroke-width:0.1px;stroke-linecap:square" d="M 35.185185185185155,16.666666666666647 L 35.185185185185155,14.814814814814795 L 35.18518518518516,12.962962962962944 L 37.03703703703702,12.962962962962944 L 37.03703703703701,14.814814814814795 L 37.03703703703701,16.666666666666647 L 35.185185185185155,16.666666666666647 " />
        <path style="fill:none;stroke:#50514F;stroke-width:0.1px;stroke-linecap:square" d="M 33.33333333333331,16.666666666666647 L 33.33333333333331,14.814814814814795 L 33.33333333333331,12.962962962962944 L 33.333333333333314,11.111111111111091 L 33.333333333333314,9.25925925925924 " />
        <path style="fill:none;stroke:#50514F;stroke-width:0.1px;stroke-linecap:square" d="M 31.48148148148146,9.25925925925924 L 31.48148148148146,7.407407407407389 L 31.48148148148146,5.555555555555538 L 29.62962962962961,5.555555555555538 L 29.629629629629605,7.407407407407389 L 29.629629629629605,9.25925925925924 L 31.48148148148146,9.25925925925924 " />
        <path style="fill:none;stroke:#50514F;stroke-width:0.1px;stroke-linecap:square" d="M 33.333333333333314,9.25925925925924 L 33.333333333333314,7.407407407407389 L 33.333333333333314,5.555555555555538 " />
        <path style="fill:none;stroke:#50514F;stroke-width:0.1px;stroke-linecap:square" d="M 35.18518518518516,5.555555555555538 L 35.18518518518516,3.7037037037036864 L 35.18518518518516,1.8518518518518383 L 37.03703703703702,1.8518518518518383 L 37.03703703703702,3.7037037037036895 L 37.03703703703702,5.555555555555541 L 35.18518518518516,5.555555555555541 " />
        <path style="fill:none;stroke:#50514F;stroke-width:0.1px;stroke-linecap:square" d="M 33.333333333333314,5.555555555555541 L 33.333333333333314,3.7037037037036895 L 33.333333333333314,1.8518518518518383 L 33.333333333333314,-1.3158198810372223e-14 " />
        <path style="fill:none;stroke:#50514F;stroke-width:0.1px;stroke-linecap:square" d="M 35.18518518518516,-1.3158198810372223e-14 L 35.18518518518516,-1.8518518518518645 " />
        <path style="fill:none;stroke:#50514F;stroke-width:0.1px;stroke-linecap:square" d="M 33.333333333333314,-1.8518518518518645 L 33.333333333333314,-3.703703703703716 L 33.333333333333314,-5.555555555555568 L 31.48148148148146,-5.555555555555568 L 31.48148148148146,-3.703703703703716 L 31.48148148148146,-1.8518518518518645 L 33.333333333333314,-1.8518518518518645 " />
        <path style="fill:none;stroke:#50514F;stroke-width:0.1px;stroke-linecap:square" d="M 35.18518518518516,-1.8518518518518645 L 35.18518518518516,-3.703703703703716 L 35.18518518518516,-5.555555555555568 " />
        <path style="fill:none;stroke:#50514F;stroke-width:0.1px;stroke-linecap:square" d="M 37.03703703703702,-5.555555555555568 L 37.03703703703702,-7.407407407407419 L 37.03703703703702,-9.25925925925927 L 38.888888888888864,-9.25925925925927 L 38.888888888888864,-7.407407407407419 L 38.888888888888864,-5.555555555555568 L 37.03703703703702,-5.555555555555568 " />
        <path style="fill:none;stroke:#50514F;stroke-width:0.1px;stroke-linecap:square" d="M 35.18518518518516,-5.555555555555568 L 35.18518518518516,-7.407407407407419 L 35.18518518518516,-9.25925925925927 L 35.18518518518516,-11.111111111111121 L 35.18518518518516,-12.962962962962973 " />
        <path style="fill:none;stroke:#50514F;stroke-width:0.1px;stroke-linecap:square" d="M 33.333333333333314,-12.962962962962973 L 33.33333333333332,-14.814814814814824 L 33.33333333333332,-16.666666666666675 L 31.481481481481467,-16.666666666666675 L 31.481481481481467,-14.814814814814824 L 31.48148148148146,-12.962962962962973 L 33.333333333333314,-12.962962962962973 " />
        <path style="fill:none;stroke:#50514F;stroke-width:0.1px;stroke-linecap:square" d="M 35.18518518518516,-12.962962962962973 L 35.18518518518517,-14.814814814814824 L 35.18518518518517,-16.666666666666675 " />
        <path style="fill:none;stroke:#50514F;stroke-width:0.1px;stroke-linecap:square" d="M 37.037037037037024,-16.666666666666675 L 37.037037037037024,-18.518518518518526 L 37.037037037037024,-20.370370370370377 L 38.88888888888887,-20.370370370370377 L 38.88888888888887,-18.518518518518526 L 38.88888888888887,-16.666666666666675 L 37.037037037037024,-16.666666666666675 " />
        <path style="fill:none;stroke:#50514F;stroke-width:0.1px;stroke-linecap:square" d="M 35.18518518518517,-16.666666666666675 L 35.18518518518517,-18.518518518518526 L 35.18518518518517,-20.370370370370377 L 35.18518518518517,-22.22222222222223 L 37.037037037037024,-22.22222222222223 " />
        <path style="fill:none;stroke:#50514F;stroke-width:0.1px;stroke-linecap:square" d="M 37.037037037037024,-24.074074074074083 L 38.88888888888887,-24.074074074074083 L 40.740740740740726,-24.074074074074083 L 40.740740740740726,-25.925925925925934 L 38.88888888888887,-25.925925925925934 L 37.037037037037024,-25.925925925925934 L 37.037037037037024,-24.074074074074083 " />
        <path style="fill:none;stroke:#50514F;stroke-width:0.1px;stroke-linecap:square" d="M 37.037037037037024,-22.22222222222223 L 38.88888888888887,-22.22222222222223 L 40.740740740740726,-22.22222222222223 " />
        <path style="fill:none;stroke:#50514F;stroke-width:0.1px;stroke-linecap:square" d="M 40.740740740740726,-20.370370370370377 L 42.592592592592574,-20.370370370370377 L 44.44444444444443,-20.370370370370377 L 44.44444444444443,-18.518518518518526 L 42.592592592592574,-18.518518518518526 L 40.740740740740726,-18.518518518518526 L 40.740740740740726,-20.370370370370377 " />
        <path style="fill:none;stroke:#50514F;stroke-width:0.1px;stroke-linecap:square" d="M 40.740740740740726,-22.22222222222223 L 42.592592592592574,-22.22222222222223 L 44.44444444444443,-22.22222222222223 L 46.296296296296276,-22.22222222222223 L 46.296296296296276,-20.370370370370377 " />
        <path style="fill:none;stroke:#50514F;stroke-width:0.1px;stroke-linecap:square" d="M 48.14814814814813,-20.370370370370377 L 48.14814814814813,-18.518518518518526 L 48.14814814814813,-16.666666666666675 L 49.99999999999998,-16.666666666666675 L 49.99999999999998,-18.518518518518526 L 49.99999999999998,-20.370370370370377 L 48.14814814814813,-20.370370370370377 " />
        <path style="fill:none;stroke:#50514F;stroke-width:0.1px;stroke-linecap:square" d="M 46.296296296296276,-20.370370370370377 L 46.296296296296276,-18.518518518518526 L 46.296296296296276,-16.666666666666675 " />
        <path style="fill:none;stroke:#50514F;stroke-width:0.1px;stroke-linecap:square" d="M 44.44444444444443,-16.666666666666675 L 44.44444444444443,-14.814814814814824 L 44.44444444444443,-12.962962962962973 L 42.592592592592574,-12.962962962962973 L 42.592592592592574,-14.814814814814824 L 42.592592592592574,-16.666666666666675 L 44.44444444444443,-16.666666666666675 " />
        <path style="fill:none;stroke:#50514F;stroke-width:0.1px;stroke-linecap:square" d="M 46.296296296296276,-16.666666666666675 L 46.296296296296276,-14.814814814814824 L 46.296296296296276,-12.962962962962973 L 46.296296296296276,-11.111111111111121 L 46.296296296296276,-9.25925925925927 " />
        <path style="fill:none;stroke:#50514F;stroke-width:0.1px;stroke-linecap:square" d="M 48.14814814814813,-9.25925925925927 L 48.14814814814813,-7.407407407407419 L 48.14814814814813,-5.555555555555568 L 49.99999999999998,-5.555555555555568 L 49.99999999999998,-7.407407407407419 L 49.99999999999998,-9.25925925925927 L 48.14814814814813,-9.25925925925927 " />
        <path style="fill:none;stroke:#50514F;stroke-width:0.1px;stroke-linecap:square" d="M 46.296296296296276,-9.25925925925927 L 46.296296296296276,-7.407407407407419 L 46.296296296296276,-5.555555555555568 " />
        <path style="fill:none;stroke:#50514F;stroke-width:0.1px;stroke-linecap:square" d="M 44.44444444444443,-5.555555555555568 L 44.44444444444443,-3.703703703703716 L 44.44444444444443,-1.8518518518518645 L 42.592592592592574,-1.8518518518518645 L 42.592592592592574,-3.703703703703716 L 42.592592592592574,-5.555555555555568 L 44.44444444444443,-5.555555555555568 " />
        <path style="fill:none;stroke:#50514F;stroke-width:0.1px;stroke-linecap:square" d="M 46.296296296296276,-5.555555555555568 L 46.296296296296276,-3.703703703703716 L 46.296296296296276,-1.8518518518518645 L 46.296296296296276,-1.3158198810372223e-14 L 44.44444444444443,-1.3158198810372223e-14 " />
        <path style="fill:none;stroke:#50514F;stroke-width:0.1px;stroke-linecap:square" d="M 44.44444444444443,1.8518518518518383 L 42.592592592592574,1.8518518518518383 L 40.740740740740726,1.8518518518518383 L 40.740740740740726,3.7037037037036895 L 42.592592592592574,3.7037037037036895 L 44.44444444444443,3.7037037037036895 L 44.44444444444443,1.8518518518518383 " />
        <path style="fill:none;stroke:#50514F;stroke-width:0.1px;stroke-linecap:square" d="M 44.44444444444443,-1.3158198810372223e-14 L 42.592592592592574,-1.3158198810372223e-14 L 40.740740740740726,-1.3158198810372223e-14 " />
        <path style="fill:none;stroke:#50514F;stroke-width:0.1px;stroke-linecap:square" d="M 40.740740740740726,-1.8518518518518645 L 38.88888888888887,-1.8518518518518645 L 37.037037037037024,-1.8518518518518645 L 37.037037037037024,-3.703703703703716 L 38.88888888888887,-3.703703703703716 L 40.740740740740726,-3.703703703703716 L 40.740740740740726,-1.8518518518518645 " />
        <path style="fill:none;stroke:#50514F;stroke-width:0.1px;stroke-linecap:square" d="M 40.740740740740726,-1.3158198810372223e-14 L 38.88888888888887,-1.3158198810372223e-14 L 37.037037037037024,-1.3158198810372223e-14 L 35.18518518518517,-1.3158198810372223e-14 " />
        <path style="fill:none;stroke:#50514F;stroke-width:0.1px;stroke-linecap:square" d="M 33.33333333333332,-1.3158198810372223e-14 L 33.33333333333332,-1.8518518518518645 " />
        <path style="fill:none;stroke:#50514F;stroke-width:0.1px;stroke-linecap:square" d="M 31.481481481481467,-1.8518518518518645 L 31.481481481481467,-3.703703703703716 L 31.481481481481467,-5.555555555555568 L 29.629629629629616,-5.555555555555568 L 29.629629629629616,-3.703703703703716 L 29.629629629629616,-1.8518518518518645 L 31.481481481481467,-1.8518518518518645 " />
        <path style="fill:none;stroke:#50514F;stroke-width:0.1px;stroke-linecap:square" d="M 33.33333333333332,-1.8518518518518645 L 33.33333333333332,-3.703703703703716 L 33.33333333333332,-5.555555555555568 " />
        <path style="fill:none;stroke:#50514F;stroke-width:0.1px;stroke-linecap:square" d="M 35.18518518518517,-5.555555555555568 L 35.18518518518517,-7.407407407407419 L 35.18518518518517,-9.25925925925927 L 37.037037037037024,-9.25925925925927 L 37.037037037037024,-7.407407407407419 L 37.037037037037024,-5.555555555555568 L 35.18518518518517,-5.555555555555568 " />
        <path style="fill:none;stroke:#50514F;stroke-width:0.1px;stroke-linecap:square" d="M 33.33333333333332,-5.555555555555568 L 33.33333333333332,-7.407407407407419 L 33.33333333333332,-9.25925925925927 L 33.33333333333332,-11.111111111111121 L 33.33333333333332,-12.962962962962973 " />
        <path style="fill:none;stroke:#50514F;stroke-width:0.1px;stroke-linecap:square" d="M 31.481481481481467,-12.962962962962973 L 31.481481481481467,-14.814814814814824 L 31.481481481481467,-16.666666666666675 L 29.62962962962962,-16.666666666666675 L 29.62962962962962,-14.814814814814824 L 29.629629629629616,-12.962962962962973 L 31.481481481481467,-12.962962962962973 " />
        <path style="fill:none;stroke:#50514F;stroke-width:0.1px;stroke-linecap:square" d="M 33.33333333333332,-12.962962962962973 L 33.33333333333332,-14.814814814814824 L 33.33333333333332,-16.666666666666675 " />
        <path style="fill:none;stroke:#50514F;stroke-width:0.1px;stroke-linecap:square" d="M 35.18518518518517,-16.666666666666675 L 35.185185185185176,-18.518518518518526 L 35.185185185185176,-20.370370370370377 L 37.03703703703703,-20.370370370370377 L 37.03703703703703,-18.518518518518526 L 37.03703703703703,-16.666666666666675 L 35.185185185185176,-16.666666666666675 " />
        <path style="fill:none;stroke:#50514F;stroke-width:0.1px;stroke-linecap:square" d="M 33.33333333333333,-16.666666666666675 L 33.33333333333333,-18.518518518518526 L 33.33333333333333,-20.370370370370377 L 33.33333333333333,-22.22222222222223 L 33.33333333333333,-24.074074074074083 " />
        <path style="fill:none;stroke:#50514F;stroke-width:0.1px;stroke-linecap:square" d="M 31.481481481481474,-24.074074074074083 L 31.481481481481474,-25.925925925925934 L 31.481481481481474,-27.777777777777786 L 29.62962962962962,-27.777777777777786 L 29.62962962962962,-25.925925925925934 L 29.62962962962962,-24.074074074074083 L 31.481481481481474,-24.074074074074083 " />
        <path style="fill:none;stroke:#50514F;stroke-width:0.1px;stroke-linecap:square" d="M 33.33333333333333,-24.074074074074083 L 33.33333333333333,-25.925925925925934 L 33.33333333333333,-27.777777777777786 " />
        <path style="fill:none;stroke:#50514F;stroke-width:0.1px;stroke-linecap:square" d="M 35.185185185185176,-27.777777777777786 L 35.185185185185176,-29.629629629629637 L 35.185185185185176,-31.481481481481488 L 37.03703703703703,-31.481481481481488 L 37.03703703703703,-29.629629629629637 L 37.03703703703703,-27.777777777777786 L 35.185185185185176,-27.777777777777786 " />
        <path style="fill:none;stroke:#50514F;stroke-width:0.1px;stroke-linecap:square" d="M 33.33333333333333,-27.777777777777786 L 33.33333333333333,-29.629629629629637 L 33.33333333333333,-31.481481481481488 L 33.33333333333333,-33.333333333333336 L 31.481481481481474,-33.333333333333336 " />
        <path style="fill:none;stroke:#50514F;stroke-width:0.1px;stroke-linecap:square" d="M 31.481481481481474,-31.481481481481488 L 29.629629629629623,-31.481481481481488 L 27.77777777777777,-31.481481481481488 L 27.77777777777777,-29.629629629629637 L 29.629629629629623,-29.629629629629637 L 31.481481481481474,-29.629629629629637 L 31.481481481481474,-31.481481481481488 " />
        <path style="fill:none;stroke:#50514F;stroke-width:0.1px;stroke-linecap:square" d="M 31.481481481481474,-33.333333333333336 L 29.629629629629623,-33.333333333333336 L 27.77777777777777,-33.333333333333336 " />
        <path style="fill:none;stroke:#50514F;stroke-width:0.1px;stroke-linecap:square" d="M 27.77777777777777,-35.18518518518519 L 25.92592592592592,-35.18518518518519 L 24.07407407407407,-35.18518518518519 L 24.07407407407407,-37.03703703703704 L 25.92592592592592,-37.03703703703704 L 27.77777777777777,-37.03703703703704 L 27.77777777777777,-35.18518518518519 " />
        <path style="fill:none;stroke:#50514F;stroke-width:0.1px;stroke-linecap:square" d="M 27.77777777777777,-33.333333333333336 L 25.92592592592592,-33.333333333333336 L 24.07407407407407,-33.333333333333336 L 22.222222222222218,-33.333333333333336 " />
        <path style="fill:none;stroke:#50514F;stroke-width:0.1px;stroke-linecap:square" d="M 22.222222222222218,-31.481481481481488 L 20.370370370370367,-31.481481481481488 " />
        <path style="fill:none;stroke:#50514F;stroke-width:0.1px;stroke-linecap:square" d="M 20.370370370370367,-29.629629629629637 L 18.518518518518515,-29.629629629629637 L 16.666666666666664,-29.629629629629637 L 16.666666666666664,-27.777777777777786 L 18.518518518518515,-27.777777777777786 L 20.370370370370367,-27.777777777777786 L 20.370370370370367,-29.629629629629637 " />
        <path style="fill:none;stroke:#50514F;stroke-width:0.1px;stroke-linecap:square" d="M 20.370370370370367,-31.481481481481488 L 18.518518518518515,-31.481481481481488 L 16.666666666666664,-31.481481481481488 " />
        <path style="fill:none;stroke:#50514F;stroke-width:0.1px;stroke-linecap:square" d="M 16.666666666666664,-33.333333333333336 L 14.814814814814811,-33.333333333333336 L 12.96296296296296,-33.333333333333336 L 12.96296296296296,-35.18518518518519 L 14.814814814814811,-35.18518518518519 L 16.666666666666664,-35.18518518518519 L 16.666666666666664,-33.333333333333336 " />
        <path style="fill:none;stroke:#50514F;stroke-width:0.1px;stroke-linecap:square" d="M 16.666666666666664,-31.481481481481488 L 14.814814814814811,-31.481481481481488 L 12.96296296296296,-31.481481481481488 L 11.111111111111109,-31.481481481481488 L 9.259259259259258,-31.481481481481488 " />
        <path style="fill:none;stroke:#50514F;stroke-width:0.1px;stroke-linecap:square" d="M 9.259259259259258,-29.629629629629637 L 7.407407407407406,-29.629629629629637 L 5.5555555555555545,-29.629629629629637 L 5.5555555555555545,-27.777777777777786 L 7.407407407407406,-27.777777777777786 L 9.259259259259258,-27.777777777777786 L 9.259259259259258,-29.629629629629637 " />
        <path style="fill:none;stroke:#50514F;stroke-width:0.1px;stroke-linecap:square" d="M 9.259259259259258,-31.481481481481488 L 7.407407407407406,-31.481481481481488 L 5.5555555555555545,-31.481481481481488 " />
        <path style="fill:none;stroke:#50514F;stroke-width:0.1px;stroke-linecap:square" d="M 5.5555555555555545,-33.333333333333336 L 3.703703703703703,-33.333333333333336 L 1.8518518518518514,-33.333333333333336 L 1.8518518518518514,-35.18518518518519 L 3.703703703703703,-35.18518518518519 L 5.5555555555555545,-35.18518518518519 L 5.5555555555555545,-33.333333333333336 " />
        <path style="fill:none;stroke:#50514F;stroke-width:0.1px;stroke-linecap:square" d="M 5.5555555555555545,-31.481481481481488 L 3.703703703703703,-31.481481481481488 L 1.8518518518518514,-31.481481481481488 L 0.0,-31.481481481481488 L 0.0,-29.629629629629637 " />
        <path style="fill:none;stroke:#50514F;stroke-width:0.1px;stroke-linecap:square" d="M 1.8518518518518514,-29.629629629629637 L 1.8518518518518514,-27.777777777777786 L 1.8518518518518514,-25.925925925925934 L 3.703703703703703,-25.925925925925934 L 3.703703703703703,-27.777777777777786 L 3.703703703703703,-29.629629629629637 L 1.8518518518518514,-29.629629629629637 " />
        <path style="fill:none;stroke:#50514F;stroke-width:0.1px;stroke-linecap:square" d="M 0.0,-29.629629629629637 L 0.0,-27.777777777777786 L 0.0,-25.925925925925934 " />
        <path style="fill:none;stroke:#50514F;stroke-width:0.1px;stroke-linecap:square" d="M -1.8518518518518514,-25.925925925925934 L -1.8518518518518514,-24.074074074074083 L -1.8518518518518514,-22.22222222222223 L -3.703703703703703,-22.22222222222223 L -3.703703703703703,-24.074074074074083 L -3.703703703703703,-25.925925925925934 L -1.8518518518518514,-25.925925925925934 " />
        <path style="fill:none;stroke:#50514F;stroke-width:0.1px;stroke-linecap:square" d="M 0.0,-25.925925925925934 L 0.0,-24.074074074074083 L 0.0,-22.22222222222223 L 0.0,-20.370370370370377 L 1.8518518518518514,-20.370370370370377 " />
        <path style="fill:none;stroke:#50514F;stroke-width:0.1px;stroke-linecap:square" d="M 1.8518518518518514,-22.22222222222223 L 3.703703703703703,-22.22222222222223 L 5.5555555555555545,-22.22222222222223 L 5.5555555555555545,-24.074074074074083 L 3.703703703703703,-24.074074074074083 L 1.8518518518518514,-24.074074074074083 L 1.8518518518518514,-22.22222222222223 " />
        <path style="fill:none;stroke:#50514F;stroke-width:0.1px;stroke-linecap:square" d="M 1.8518518518518514,-20.370370370370377 L 3.703703703703703,-20.370370370370377 L 5.5555555555555545,-20.370370370370377 " />
        <path style="fill:none;stroke:#50514F;stroke-width:0.1px;stroke-linecap:square" d="M 5.5555555555555545,-18.518518518518526 L 7.407407407407406,-18.518518518518526 L 9.259259259259258,-18.518518518518526 L 9.259259259259258,-16.666666666666675 L 7.407407407407406,-16.666666666666675 L 5.5555555555555545,-16.666666666666675 L 5.5555555555555545,-18.518518518518526 " />
        <path style="fill:none;stroke:#50514F;stroke-width:0.1px;stroke-linecap:square" d="M 5.5555555555555545,-20.370370370370377 L 7.407407407407406,-20.370370370370377 L 9.259259259259258,-20.370370370370377 L 11.111111111111109,-20.370370370370377 L 12.96296296296296,-20.370370370370377 " />
        <path style="fill:none;stroke:#50514F;stroke-width:0.1px;stroke-linecap:square" d="M 12.96296296296296,-22.22222222222223 L 14.814814814814811,-22.22222222222223 L 16.666666666666664,-22.22222222222223 L 16.666666666666664,-24.074074074074083 L 14.814814814814811,-24.074074074074083 L 12.96296296296296,-24.074074074074083 L 12.96296296296296,-22.22222222222223 " />
        <path style="fill:none;stroke:#50514F;stroke-width:0.1px;stroke-linecap:square" d="M 12.96296296296296,-20.370370370370377 L 14.814814814814811,-20.370370370370377 L 16.666666666666664,-20.370370370370377 " />
        <path style="fill:none;stroke:#50514F;stroke-width:0.1px;stroke-linecap:square" d="M 16.666666666666664,-18.518518518518526 L 18.518518518518515,-18.518518518518526 L 20.370370370370367,-18.518518518518526 L 20.370370370370367,-16.666666666666675 L 18.518518518518515,-16.666666666666675 L 16.666666666666664,-16.666666666666675 L 16.666666666666664,-18.518518518518526 " />
        <path style="fill:none;stroke:#50514F;stroke-width:0.1px;stroke-linecap:square" d="M 16.666666666666664,-20.370370370370377 L 18.518518518518515,-20.370370370370377 L 20.370370370370367,-20.370370370370377 L 22.222222222222218,-20.370370370370377 L 22.222222222222218,-22.22222222222223 " />
        <path style="fill:none;stroke:#50514F;stroke-width:0.1px;stroke-linecap:square" d="M 20.370370370370367,-22.22222222222223 L 20.370370370370367,-24.074074074074083 L 20.370370370370367,-25.925925925925934 L 18.518518518518515,-25.925925925925934 L 18.518518518518515,-24.074074074074083 L 18.518518518518515,-22.22222222222223 L 20.370370370370367,-22.22222222222223 " />
        <path style="fill:none;stroke:#50514F;stroke-width:0.1px;stroke-linecap:square" d="M 22.222222222222218,-22.22222222222223 L 22.222222222222218,-24.074074074074083 L 22.22222222222222,-25.925925925925934 " />
        <path style="fill:none;stroke:#50514F;stroke-width:0.1px;stroke-linecap:square" d="M 24.074074074074073,-25.925925925925934 L 24.074074074074076,-27.777777777777786 L 24.074074074074076,-29.629629629629637 L 25.925925925925927,-29.629629629629637 L 25.925925925925927,-27.777777777777786 L 25.925925925925927,-25.925925925925934 L 24.074074074074076,-25.925925925925934 " />
        <path style="fill:none;stroke:#50514F;stroke-width:0.1px;stroke-linecap:square" d="M 22.222222222222225,-25.925925925925934 L 22.222222222222225,-27.777777777777786 L 22.222222222222225,-29.629629629629637 L 22.222222222222225,-31.481481481481488 " />
        <path style="fill:none;stroke:#50514F;stroke-width:0.1px;stroke-linecap:square" d="M 22.222222222222225,-33.333333333333336 L 20.370370370370374,-33.333333333333336 " />
        <path style="fill:none;stroke:#50514F;stroke-width:0.1px;stroke-linecap:square" d="M 20.370370370370374,-31.481481481481488 L 18.51851851851852,-31.481481481481488 L 16.666666666666668,-31.481481481481488 L 16.666666666666668,-29.629629629629637 L 18.51851851851852,-29.629629629629637 L 20.370370370370374,-29.629629629629637 L 20.370370370370374,-31.481481481481488 " />
        <path style="fill:none;stroke:#50514F;stroke-width:0.1px;stroke-linecap:square" d="M 20.370370370370374,-33.333333333333336 L 18.518518518518523,-33.333333333333336 L 16.66666666666667,-33.333333333333336 " />
        <path style="fill:none;stroke:#50514F;stroke-width:0.1px;stroke-linecap:square" d="M 16.66666666666667,-35.18518518518519 L 14.814814814814822,-35.18518518518519 L 12.962962962962969,-35.18518518518519 L 12.962962962962969,-37.03703703703704 L 14.814814814814822,-37.03703703703704 L 16.66666666666667,-37.03703703703704 L 16.66666666666667,-35.18518518518519 " />
        <path style="fill:none;stroke:#50514F;stroke-width:0.1px;stroke-linecap:square" d="M 16.66666666666667,-33.333333333333336 L 14.814814814814822,-33.333333333333336 L 12.962962962962969,-33.333333333333336 L 11.111111111111118,-33.333333333333336 L 9.259259259259267,-33.333333333333336 " />
        <path style="fill:none;stroke:#50514F;stroke-width:0.1px;stroke-linecap:square" d="M 9.259259259259267,-31.481481481481488 L 7.407407407407415,-31.481481481481488 L 5.555555555555564,-31.481481481481488 L 5.555555555555564,-29.629629629629637 L 7.407407407407415,-29.629629629629637 L 9.259259259259267,-29.629629629629637 L 9.259259259259267,-31.481481481481488 " />
        <path style="fill:none;stroke:#50514F;stroke-width:0.1px;stroke-linecap:square" d="M 9.259259259259267,-33.333333333333336 L 7.407407407407415,-33.333333333333336 L 5.555555555555564,-33.333333333333336 " />
        <path style="fill:none;stroke:#50514F;stroke-width:0.1px;stroke-linecap:square" d="M 5.555555555555564,-35.18518518518519 L 3.7037037037037126,-35.18518518518519 L 1.8518518518518645,-35.18518518518519 L 1.8518518518518645,-37.03703703703704 L 3.703703703703716,-37.03703703703704 L 5.555555555555568,-37.03703703703704 L 5.555555555555568,-35.18518518518519 " />
        <path style="fill:none;stroke:#50514F;stroke-width:0.1px;stroke-linecap:square" d="M 5.555555555555568,-33.333333333333336 L 3.703703703703716,-33.333333333333336 L 1.8518518518518645,-33.333333333333336 L 1.3158198810372223e-14,-33.333333333333336 " />
        <path style="fill:none;stroke:#50514F;stroke-width:0.1px;stroke-linecap:square" d="M 1.3158198810372223e-14,-35.18518518518519 L -1.8518518518518383,-35.18518518518519 " />
        <path style="fill:none;stroke:#50514F;stroke-width:0.1px;stroke-linecap:square" d="M -1.8518518518518383,-33.333333333333336 L -3.7037037037036895,-33.333333333333336 L -5.555555555555541,-33.333333333333336 L -5.555555555555541,-31.481481481481488 L -3.7037037037036895,-31.481481481481488 L -1.8518518518518383,-31.481481481481488 L -1.8518518518518383,-33.333333333333336 " />
        <path style="fill:none;stroke:#50514F;stroke-width:0.1px;stroke-linecap:square" d="M -1.8518518518518383,-35.18518518518519 L -3.7037037037036895,-35.18518518518519 L -5.555555555555541,-35.18518518518519 " />
        <path style="fill:none;stroke:#50514F;stroke-width:0.1px;stroke-linecap:square" d="M -5.555555555555541,-37.03703703703704 L -7.407407407407392,-37.03703703703704 L -9.259259259259244,-37.03703703703704 L -9.259259259259244,-38.88888888888889 L -7.407407407407392,-38.88888888888889 L -5.555555555555541,-38.88888888888889 L -5.555555555555541,-37.03703703703704 " />
        <path style="fill:none;stroke:#50514F;stroke-width:0.1px;stroke-linecap:square" d="M -5.555555555555541,-35.18518518518519 L -7.407407407407392,-35.18518518518519 L -9.259259259259244,-35.18518518518519 L -11.111111111111095,-35.18518518518519 L -12.962962962962946,-35.18518518518519 " />
        <path style="fill:none;stroke:#50514F;stroke-width:0.1px;stroke-linecap:square" d="M -12.962962962962946,-33.333333333333336 L -14.814814814814799,-33.333333333333336 L -16.66666666666665,-33.333333333333336 L -16.66666666666665,-31.481481481481488 L -14.814814814814799,-31.481481481481488 L -12.962962962962946,-31.481481481481488 L -12.962962962962946,-33.333333333333336 " />
        <path style="fill:none;stroke:#50514F;stroke-width:0.1px;stroke-linecap:square" d="M -12.962962962962946,-35.18518518518519 L -14.814814814814799,-35.18518518518519 L -16.66666666666665,-35.18518518518519 " />
        <path style="fill:none;stroke:#50514F;stroke-width:0.1px;stroke-linecap:square" d="M -16.66666666666665,-37.03703703703704 L -18.5185185185185,-37.03703703703704 L -20.370370370370352,-37.03703703703704 L -20.370370370370352,-38.88888888888889 L -18.5185185185185,-38.88888888888889 L -16.66666666666665,-38.88888888888889 L -16.66666666666665,-37.03703703703704 " />
        <path style="fill:none;stroke:#50514F;stroke-width:0.1px;stroke-linecap:square" d="M -16.66666666666665,-35.18518518518519 L -18.5185185185185,-35.18518518518519 L -20.370370370370352,-35.18518518518519 L -22.222222222222204,-35.18518518518519 L -22.222222222222204,-37.03703703703704 " />
        <path style="fill:none;stroke:#50514F;stroke-width:0.1px;stroke-linecap:square" d="M -24.074074074074055,-37.03703703703704 L -24.074074074074055,-38.88888888888889 L -24.074074074074055,-40.74074074074075 L -25.925925925925906,-40.74074074074075 L -25.925925925925906,-38.88888888888889 L -25.925925925925906,-37.03703703703704 L -24.074074074074055,-37.03703703703704 " />
        <path style="fill:none;stroke:#50514F;stroke-width:0.1px;stroke-linecap:square" d="M -22.222222222222204,-37.03703703703704 L -22.222222222222204,-38.88888888888889 L -22.222222222222204,-40.74074074074075 " />
        <path style="fill:none;stroke:#50514F;stroke-width:0.1px;stroke-linecap:square" d="M -20.370370370370352,-40.74074074074075 L -20.370370370370352,-42.592592592592595 L -20.370370370370352,-44.44444444444445 L -18.5185185185185,-44.44444444444445 L -18.5185185185185,-42.592592592592595 L -18.5185185185185,-40.74074074074075 L -20.370370370370352,-40.74074074074075 " />
        <path style="fill:none;stroke:#50514F;stroke-width:0.1px;stroke-linecap:square" d="M -22.222222222222204,-40.74074074074075 L -22.222222222222204,-42.592592592592595 L -22.222222222222204,-44.44444444444445 L -22.222222222222204,-46.2962962962963 L -20.370370370370352,-46.2962962962963 " />
        <path style="fill:none;stroke:#50514F;stroke-width:0.1px;stroke-linecap:square" d="M -20.370370370370352,-48.14814814814815 L -18.5185185185185,-48.14814814814815 L -16.66666666666665,-48.14814814814815 L -16.66666666666665,-50.0 L -18.5185185185185,-50.0 L -20.370370370370352,-50.0 L -20.370370370370352,-48.14814814814815 " />
        <path style="fill:none;stroke:#50514F;stroke-width:0.1px;stroke-linecap:square" d="M -20.370370370370352,-46.2962962962963 L -18.5185185185185,-46.2962962962963 L -16.66666666666665,-46.2962962962963 " />
        <path style="fill:none;stroke:#50514F;stroke-width:0.1px;stroke-linecap:square" d="M -16.66666666666665,-44.44444444444445 L -14.814814814814799,-44.44444444444445 L -12.962962962962946,-44.44444444444445 L -12.962962962962946,-42.592592592592595 L -14.814814814814799,-42.592592592592595 L -16.66666666666665,-42.592592592592595 L -16.66666666666665,-44.44444444444445 " />
        <path style="fill:none;stroke:#50514F;stroke-width:0.1px;stroke-linecap:square" d="M -16.66666666666665,-46.2962962962963 L -14.814814814814799,-46.2962962962963 L -12.962962962962946,-46.2962962962963 L -11.111111111111095,-46.2962962962963 L -9.259259259259244,-46.2962962962963 " />
        <path style="fill:none;stroke:#50514F;stroke-width:0.1px;stroke-linecap:square" d="M -9.259259259259244,-48.14814814814815 L -7.407407407407392,-48.14814814814815 L -5.555555555555541,-48.14814814814815 L -5.555555555555541,-50.0 L -7.407407407407392,-50.0 L -9.259259259259244,-50.0 L -9.259259259259244,-48.14814814814815 " />
        <path style="fill:none;stroke:#50514F;stroke-width:0.1px;stroke-linecap:square" d="M -9.259259259259244,-46.2962962962963 L -7.407407407407392,-46.2962962962963 L -5.555555555555541,-46.2962962962963 " />
        <path style="fill:none;stroke:#50514F;stroke-width:0.1px;stroke-linecap:square" d="M -5.555555555555541,-44.44444444444445 L -3.7037037037036895,-44.44444444444445 L -1.8518518518518383,-44.44444444444445 L -1.8518518518518383,-42.592592592592595 L -3.7037037037036895,-42.592592592592595 L -5.555555555555541,-42.592592592592595 L -5.555555555555541,-44.44444444444445 " />
        <path style="fill:none;stroke:#50514F;stroke-width:0.1px;stroke-linecap:square" d="M -5.555555555555541,-46.2962962962963 L -3.7037037037036895,-46.2962962962963 L -1.8518518518518383,-46.2962962962963 L 1.3158198810372223e-14,-46.2962962962963 L 1.3158198810372223e-14,-44.44444444444445 " />
        <path style="fill:none;stroke:#50514F;stroke-width:0.1px;stroke-linecap:square" d="M 1.8518518518518645,-44.44444444444445 L 1.8518518518518645,-42.592592592592595 L 1.8518518518518645,-40.74074074074075 L 3.703703703703716,-40.74074074074075 L 3.703703703703716,-42.592592592592595 L 3.703703703703716,-44.44444444444445 L 1.8518518518518645,-44.44444444444445 " />
        <path style="fill:none;stroke:#50514F;stroke-width:0.1px;stroke-linecap:square" d="M 1.3158198810372223e-14,-44.44444444444445 L 1.3158198810372223e-14,-42.592592592592595 L 1.3158198810372223e-14,-40.74074074074075 " />
        <path style="fill:none;stroke:#50514F;stroke-width:0.1px;stroke-linecap:square" d="M -1.8518518518518383,-40.74074074074075 L -1.8518518518518383,-38.88888888888889 L -1.8518518518518383,-37.03703703703704 L -3.7037037037036895,-37.03703703703704 L -3.7037037037036895,-38.88888888888889 L -3.7037037037036895,-40.74074074074075 L -1.8518518518518383,-40.74074074074075 " />
        <path style="fill:none;stroke:#50514F;stroke-width:0.1px;stroke-linecap:square" d="M 1.3158198810372223e-14,-40.74074074074075 L 1.3158198810372223e-14,-38.88888888888889 L 1.3158198810372223e-14,-37.03703703703704 L 1.3158198810372223e-14,-35.18518518518519 " />
        <path style="fill:none;stroke:#50514F;stroke-width:0.1px;stroke-linecap:square" d="M 1.3158198810372223e-14,-33.333333333333336 L -1.8518518518518383,-33.333333333333336 " />
        <path style="fill:none;stroke:#50514F;stroke-width:0.1px;stroke-linecap:square" d="M -1.8518518518518383,-31.481481481481488 L -3.7037037037036895,-31.481481481481488 L -5.555555555555541,-31.481481481481488 L -5.555555555555541,-29.629629629629637 L -3.7037037037036895,-29.629629629629637 L -1.8518518518518383,-29.629629629629637 L -1.8518518518518383,-31.481481481481488 " />
        <path style="fill:none;stroke:#50514F;stroke-width:0.1px;stroke-linecap:square" d="M -1.8518518518518383,-33.333333333333336 L -3.7037037037036895,-33.333333333333336 L -5.555555555555541,-33.333333333333336 " />
        <path style="fill:none;stroke:#50514F;stroke-width:0.1px;stroke-linecap:square" d="M -5.555555555555541,-35.18518518518519 L -7.407407407407392,-35.18518518518519 L -9.259259259259244,-35.18518518518519 L -9.259259259259244,-37.03703703703704 L -7.407407407407392,-37.03703703703704 L -5.555555555555541,-37.03703703703704 L -5.555555555555541,-35.18518518518519 " />
        <path style="fill:none;stroke:#50514F;stroke-width:0.1px;stroke-linecap:square" d="M -5.555555555555541,-33.333333333333336 L -7.407407407407392,-33.333333333333336 L -9.259259259259244,-33.333333333333336 L -11.111111111111095,-33.333333333333336 L -12.962962962962946,-33.333333333333336 " />
        <path style="fill:none;stroke:#50514F;stroke-width:0.1px;stroke-linecap:square" d="M -12.962962962962946,-31.481481481481488 L -14.814814814814799,-31.481481481481488 L -16.66666666666665,-31.481481481481488 L -16.66666666666665,-29.629629629629637 L -14.814814814814799,-29.629629629629637 L -12.962962962962946,-29.629629629629637 L -12.962962962962946,-31.481481481481488 " />
        <path style="fill:none;stroke:#50514F;stroke-width:0.1px;stroke-linecap:square" d="M -12.962962962962946,-33.333333333333336 L -14.814814814814799,-33.333333333333336 L -16.66666666666665,-33.333333333333336 " />
        <path style="fill:none;stroke:#50514F;stroke-width:0.1px;stroke-linecap:square" d="M -16.66666666666665,-35.18518518518519 L -18.5185185185185,-35.18518518518519 L -20.370370370370352,-35.18518518518519 L -20.370370370370352,-37.03703703703704 L -18.5185185185185,-37.03703703703704 L -16.66666666666665,-37.03703703703704 L -16.66666666666665,-35.18518518518519 " />
        <path style="fill:none;stroke:#50514F;stroke-width:0.1px;stroke-linecap:square" d="M -16.66666666666665,-33.333333333333336 L -18.5185185185185,-33.333333333333336 L -20.370370370370352,-33.333333333333336 L -22.222222222222204,-33.333333333333336 L -24.074074074074055,-33.333333333333336 " />
        <path style="fill:none;stroke:#50514F;stroke-width:0.1px;stroke-linecap:square" d="M -24.074074074074055,-31.481481481481488 L -25.925925925925906,-31.481481481481488 L -27.777777777777757,-31.481481481481488 L -27.777777777777757,-29.629629629629637 L -25.925925925925906,-29.629629629629637 L -24.074074074074055,-29.629629629629637 L -24.074074074074055,-31.481481481481488 " />
        <path style="fill:none;stroke:#50514F;stroke-width:0.1px;stroke-linecap:square" d="M -24.074074074074055,-33.333333333333336 L -25.925925925925906,-33.333333333333336 L -27.777777777777757,-33.333333333333336 " />
        <path style="fill:none;stroke:#50514F;stroke-width:0.1px;stroke-linecap:square" d="M -27.777777777777757,-35.18518518518519 L -29.62962962962961,-35.18518518518519 L -31.48148148148146,-35.18518518518519 L -31.48148148148146,-37.03703703703704 L -29.62962962962961,-37.03703703703704 L -27.777777777777757,-37.03703703703704 L -27.777777777777757,-35.18518518518519 " />
        <path style="fill:none;stroke:#50514F;stroke-width:0.1px;stroke-linecap:square" d="M -27.777777777777757,-33.333333333333336 L -29.62962962962961,-33.333333333333336 L -31.48148148148146,-33.333333333333336 L -33.333333333333314,-33.333333333333336 L -33.333333333333314,-31.481481481481488 " />
        <path style="fill:none;stroke:#50514F;stroke-width:0.1px;stroke-linecap:square" d="M -31.48148148148146,-31.481481481481488 L -31.48148148148146,-29.629629629629637 L -31.48148148148146,-27.777777777777786 L -29.62962962962961,-27.777777777777786 L -29.62962962962961,-29.629629629629637 L -29.62962962962961,-31.481481481481488 L -31.48148148148146,-31.481481481481488 " />
        <path style="fill:none;stroke:#50514F;stroke-width:0.1px;stroke-linecap:square" d="M -33.333333333333314,-31.481481481481488 L -33.333333333333314,-29.629629629629637 L -33.333333333333314,-27.777777777777786 " />
        <path style="fill:none;stroke:#50514F;stroke-width:0.1px;stroke-linecap:square" d="M -35.18518518518516,-27.777777777777786 L -35.18518518518516,-25.925925925925934 L -35.18518518518516,-24.074074074074083 L -37.03703703703702,-24.074074074074083 L -37.03703703703702,-25.925925925925934 L -37.03703703703702,-27.777777777777786 L -35.18518518518516,-27.777777777777786 " />
        <path style="fill:none;stroke:#50514F;stroke-width:0.1px;stroke-linecap:square" d="M -33.333333333333314,-27.777777777777786 L -33.333333333333314,-25.925925925925934 L -33.333333333333314,-24.074074074074083 L -33.333333333333314,-22.22222222222223 " />
        <path style="fill:none;stroke:#50514F;stroke-width:0.1px;stroke-linecap:square" d="M -31.48148148148146,-22.22222222222223 L -31.48148148148146,-20.370370370370377 " />
        <path style="fill:none;stroke:#50514F;stroke-width:0.1px;stroke-linecap:square" d="M -29.62962962962961,-20.370370370370377 L -29.62962962962961,-18.518518518518526 L -29.62962962962961,-16.666666666666675 L -27.777777777777757,-16.666666666666675 L -27.777777777777757,-18.518518518518526 L -27.777777777777757,-20.370370370370377 L -29.62962962962961,-20.370370370370377 " />
        <path style="fill:none;stroke:#50514F;stroke-width:0.1px;stroke-linecap:square" d="M -31.48148148148146,-20.370370370370377 L -31.48148148148146,-18.518518518518526 L -31.48148148148146,-16.666666666666675 " />
        <path style="fill:none;stroke:#50514F;stroke-width:0.1px;stroke-linecap:square" d="M -33.333333333333314,-16.666666666666675 L -33.333333333333314,-14.814814814814824 L -33.333333333333314,-12.962962962962973 L -35.18518518518516,-12.962962962962973 L -35.18518518518516,-14.814814814814824 L -35.18518518518516,-16.666666666666675 L -33.333333333333314,-16.666666666666675 " />
        <path style="fill:none;stroke:#50514F;stroke-width:0.1px;stroke-linecap:square" d="M -31.48148148148146,-16.666666666666675 L -31.48148148148146,-14.814814814814824 L -31.48148148148146,-12.962962962962973 L -31.48148148148146,-11.111111111111121 L -31.48148148148146,-9.25925925925927 " />
        <path style="fill:none;stroke:#50514F;stroke-width:0.1px;stroke-linecap:square" d="M -29.62962962962961,-9.25925925925927 L -29.62962962962961,-7.407407407407419 L -29.62962962962961,-5.555555555555568 L -27.777777777777757,-5.555555555555568 L -27.777777777777757,-7.407407407407419 L -27.777777777777757,-9.25925925925927 L -29.62962962962961,-9.25925925925927 " />
        <path style="fill:none;stroke:#50514F;stroke-width:0.1px;stroke-linecap:square" d="M -31.48148148148146,-9.25925925925927 L -31.48148148148146,-7.407407407407419 L -31.48148148148146,-5.555555555555568 " />
        <path style="fill:none;stroke:#50514F;stroke-width:0.1px;stroke-linecap:square" d="M -33.333333333333314,-5.555555555555568 L -33.333333333333314,-3.703703703703716 L -33.333333333333314,-1.8518518518518645 L -35.18518518518516,-1.8518518518518645 L -35.18518518518516,-3.703703703703716 L -35.18518518518516,-5.555555555555568 L -33.333333333333314,-5.555555555555568 " />
        <path style="fill:none;stroke:#50514F;stroke-width:0.1px;stroke-linecap:square" d="M -31.48148148148146,-5.555555555555568 L -31.48148148148146,-3.703703703703716 L -31.48148148148146,-1.8518518518518645 L -31.48148148148146,-1.3158198810372223e-14 L -29.62962962962961,-1.3158198810372223e-14 " />
        <path style="fill:none;stroke:#50514F;stroke-width:0.1px;stroke-linecap:square" d="M -29.62962962962961,-1.8518518518518645 L -27.777777777777757,-1.8518518518518645 L -25.925925925925906,-1.8518518518518645 L -25.925925925925906,-3.703703703703716 L -27.777777777777757,-3.703703703703716 L -29.62962962962961,-3.703703703703716 L -29.62962962962961,-1.8518518518518645 " />
        <path style="fill:none;stroke:#50514F;stroke-width:0.1px;stroke-linecap:square" d="M -29.62962962962961,-1.3158198810372223e-14 L -27.777777777777757,-1.3158198810372223e-14 L -25.925925925925906,-1.3158198810372223e-14 " />
        <path style="fill:none;stroke:#50514F;stroke-width:0.1px;stroke-linecap:square" d="M -25.925925925925906,1.8518518518518383 L -24.074074074074055,1.8518518518518383 L -22.222222222222204,1.8518518518518383 L -22.222222222222204,3.7037037037036895 L -24.074074074074055,3.7037037037036895 L -25.925925925925906,3.7037037037036895 L -25.925925925925906,1.8518518518518383 " />
        <path style="fill:none;stroke:#50514F;stroke-width:0.1px;stroke-linecap:square" d="M -25.925925925925906,-1.3158198810372223e-14 L -24.074074074074055,-1.3158198810372223e-14 L -22.222222222222204,-1.3158198810372223e-14 L -20.370370370370352,-1.3158198810372223e-14 L -20.370370370370352,-1.8518518518518645 " />
        <path style="fill:none;stroke:#50514F;stroke-width:0.1px;stroke-linecap:square" d="M -22.222222222222204,-1.8518518518518645 L -22.222222222222204,-3.703703703703716 L -22.222222222222204,-5.555555555555568 L -24.074074074074055,-5.555555555555568 L -24.074074074074055,-3.703703703703716 L -24.074074074074055,-1.8518518518518645 L -22.222222222222204,-1.8518518518518645 " />
        <path style="fill:none;stroke:#50514F;stroke-width:0.1px;stroke-linecap:square" d="M -20.370370370370352,-1.8518518518518645 L -20.370370370370352,-3.703703703703716 L -20.370370370370352,-5.555555555555568 " />
        <path style="fill:none;stroke:#50514F;stroke-width:0.1px;stroke-linecap:square" d="M -18.5185185185185,-5.555555555555568 L -18.5185185185185,-7.407407407407419 L -18.5185185185185,-9.25925925925927 L -16.66666666666665,-9.25925925925927 L -16.66666666666665,-7.407407407407419 L -16.66666666666665,-5.555555555555568 L -18.5185185185185,-5.555555555555568 " />
        <path style="fill:none;stroke:#50514F;stroke-width:0.1px;stroke-linecap:square" d="M -20.370370370370352,-5.555555555555568 L -20.370370370370352,-7.407407407407419 L -20.370370370370352,-9.25925925925927 L -20.370370370370352,-11.111111111111121 L -20.370370370370352,-12.962962962962973 " />
        <path style="fill:none;stroke:#50514F;stroke-width:0.1px;stroke-linecap:square" d="M -22.222222222222204,-12.962962962962973 L -22.222222222222204,-14.814814814814824 L -22.222222222222204,-16.666666666666675 L -24.074074074074055,-16.666666666666675 L -24.074074074074055,-14.814814814814824 L -24.074074074074055,-12.962962962962973 L -22.222222222222204,-12.962962962962973 " />
        <path style="fill:none;stroke:#50514F;stroke-width:0.1px;stroke-linecap:square" d="M -20.370370370370352,-12.962962962962973 L -20.370370370370352,-14.814814814814824 L -20.370370370370352,-16.666666666666675 " />
        <path style="fill:none;stroke:#50514F;stroke-width:0.1px;stroke-linecap:square" d="M -18.5185185185185,-16.666666666666675 L -18.5185185185185,-18.518518518518526 L -18.5185185185185,-20.370370370370377 L -16.66666666666665,-20.370370370370377 L -16.66666666666665,-18.518518518518526 L -16.66666666666665,-16.666666666666675 L -18.5185185185185,-16.666666666666675 " />
        <path style="fill:none;stroke:#50514F;stroke-width:0.1px;stroke-linecap:square" d="M -20.370370370370352,-16.666666666666675 L -20.370370370370352,-18.518518518518526 L -20.370370370370352,-20.370370370370377 L -20.370370370370352,-22.22222222222223 L -22.222222222222204,-22.22222222222223 " />
        <path style="fill:none;stroke:#50514F;stroke-width:0.1px;stroke-linecap:square" d="M -22.222222222222204,-20.370370370370377 L -24.074074074074055,-20.370370370370377 L -25.925925925925906,-20.370370370370377 L -25.925925925925906,-18.518518518518526 L -24.074074074074055,-18.518518518518526 L -22.222222222222204,-18.518518518518526 L -22.222222222222204,-20.370370370370377 " />
        <path style="fill:none;stroke:#50514F;stroke-width:0.1px;stroke-linecap:square" d="M -22.222222222222204,-22.22222222222223 L -24.074074074074055,-22.22222222222223 L -25.925925925925906,-22.22222222222223 " />
        <path style="fill:none;stroke:#50514F;stroke-width:0.1px;stroke-linecap:square" d="M -25.925925925925906,-24.074074074074083 L -27.777777777777757,-24.074074074074083 L -29.62962962962961,-24.074074074074083 L -29.62962962962961,-25.925925925925934 L -27.777777777777757,-25.925925925925934 L -25.925925925925906,-25.925925925925934 L -25.925925925925906,-24.074074074074083 " />
        <path style="fill:none;stroke:#50514F;stroke-width:0.1px;stroke-linecap:square" d="M -25.925925925925906,-22.22222222222223 L -27.777777777777757,-22.22222222222223 L -29.62962962962961,-22.22222222222223 L -31.48148148148146,-22.22222222222223 " />
        <path style="fill:none;stroke:#50514F;stroke-width:0.1px;stroke-linecap:square" d="M -33.333333333333314,-22.22222222222223 L -33.333333333333314,-20.370370370370377 " />
        <path style="fill:none;stroke:#50514F;stroke-width:0.1px;stroke-linecap:square" d="M -31.48148148148146,-20.370370370370377 L -31.48148148148146,-18.518518518518526 L -31.48148148148146,-16.666666666666675 L -29.62962962962961,-16.666666666666675 L -29.62962962962961,-18.518518518518526 L -29.62962962962961,-20.370370370370377 L -31.48148148148146,-20.370370370370377 " />
        <path style="fill:none;stroke:#50514F;stroke-width:0.1px;stroke-linecap:square" d="M -33.333333333333314,-20.370370370370377 L -33.333333333333314,-18.518518518518526 L -33.333333333333314,-16.666666666666675 " />
        <path style="fill:none;stroke:#50514F;stroke-width:0.1px;stroke-linecap:square" d="M -35.18518518518516,-16.666666666666675 L -35.18518518518516,-14.814814814814824 L -35.18518518518516,-12.962962962962973 L -37.03703703703702,-12.962962962962973 L -37.03703703703702,-14.814814814814824 L -37.03703703703702,-16.666666666666675 L -35.18518518518516,-16.666666666666675 " />
        <path style="fill:none;stroke:#50514F;stroke-width:0.1px;stroke-linecap:square" d="M -33.333333333333314,-16.666666666666675 L -33.333333333333314,-14.814814814814824 L -33.333333333333314,-12.962962962962973 L -33.333333333333314,-11.111111111111121 L -33.333333333333314,-9.25925925925927 " />
        <path style="fill:none;stroke:#50514F;stroke-width:0.1px;stroke-linecap:square" d="M -31.48148148148146,-9.25925925925927 L -31.48148148148146,-7.407407407407419 L -31.48148148148146,-5.555555555555568 L -29.62962962962961,-5.555555555555568 L -29.62962962962961,-7.407407407407419 L -29.62962962962961,-9.25925925925927 L -31.48148148148146,-9.25925925925927 " />
        <path style="fill:none;stroke:#50514F;stroke-width:0.1px;stroke-linecap:square" d="M -33.333333333333314,-9.25925925925927 L -33.333333333333314,-7.407407407407419 L -33.333333333333314,-5.555555555555568 " />
        <path style="fill:none;stroke:#50514F;stroke-width:0.1px;stroke-linecap:square" d="M -35.18518518518516,-5.555555555555568 L -35.18518518518516,-3.703703703703716 L -35.18518518518516,-1.8518518518518645 L -37.03703703703702,-1.8518518518518645 L -37.03703703703702,-3.703703703703716 L -37.03703703703702,-5.555555555555568 L -35.18518518518516,-5.555555555555568 " />
        <path style="fill:none;stroke:#50514F;stroke-width:0.1px;stroke-linecap:square" d="M -33.333333333333314,-5.555555555555568 L -33.333333333333314,-3.703703703703716 L -33.333333333333314,-1.8518518518518645 L -33.333333333333314,-1.3158198810372223e-14 " />
        <path style="fill:none;stroke:#50514F;stroke-width:0.1px;stroke-linecap:square" d="M -35.18518518518516,-1.3158198810372223e-14 L -35.18518518518516,1.8518518518518383 " />
        <path style="fill:none;stroke:#50514F;stroke-width:0.1px;stroke-linecap:square" d="M -33.333333333333314,1.8518518518518383 L -33.333333333333314,3.7037037037036895 L -33.333333333333314,5.555555555555541 L -31.48148148148146,5.555555555555541 L -31.48148148148146,3.7037037037036895 L -31.48148148148146,1.8518518518518383 L -33.333333333333314,1.8518518518518383 " />
        <path style="fill:none;stroke:#50514F;stroke-width:0.1px;stroke-linecap:square" d="M -35.18518518518516,1.8518518518518383 L -35.18518518518516,3.7037037037036895 L -35.18518518518516,5.555555555555541 " />
        <path style="fill:none;stroke:#50514F;stroke-width:0.1px;stroke-linecap:square" d="M -37.03703703703702,5.555555555555541 L -37.03703703703702,7.407407407407392 L -37.03703703703702,9.259259259259244 L -38.888888888888864,9.259259259259244 L -38.888888888888864,7.407407407407392 L -38.888888888888864,5.555555555555541 L -37.03703703703702,5.555555555555541 " />
        <path style="fill:none;stroke:#50514F;stroke-width:0.1px;stroke-linecap:square" d="M -35.18518518518516,5.555555555555541 L -35.18518518518516,7.407407407407392 L -35.18518518518516,9.259259259259244 L -35.18518518518516,11.111111111111095 L -35.18518518518516,12.962962962962946 " />
        <path style="fill:none;stroke:#50514F;stroke-width:0.1px;stroke-linecap:square" d="M -33.333333333333314,12.962962962962946 L -33.333333333333314,14.814814814814799 L -33.333333333333314,16.66666666666665 L -31.48148148148146,16.66666666666665 L -31.48148148148146,14.814814814814799 L -31.48148148148146,12.962962962962946 L -33.333333333333314,12.962962962962946 " />
        <path style="fill:none;stroke:#50514F;stroke-width:0.1px;stroke-linecap:square" d="M -35.18518518518516,12.962962962962946 L -35.18518518518516,14.814814814814799 L -35.18518518518516,16.66666666666665 " />
        <path style="fill:none;stroke:#50514F;stroke-width:0.1px;stroke-linecap:square" d="M -37.03703703703702,16.66666666666665 L -37.03703703703702,18.5185185185185 L -37.03703703703702,20.370370370370352 L -38.888888888888864,20.370370370370352 L -38.888888888888864,18.5185185185185 L -38.888888888888864,16.66666666666665 L -37.03703703703702,16.66666666666665 " />
        <path style="fill:none;stroke:#50514F;stroke-width:0.1px;stroke-linecap:square" d="M -35.18518518518516,16.66666666666665 L -35.18518518518516,18.5185185185185 L -35.18518518518516,20.370370370370352 L -35.18518518518516,22.222222222222204 L -37.03703703703702,22.222222222222204 " />
        <path style="fill:none;stroke:#50514F;stroke-width:0.1px;stroke-linecap:square" d="M -37.03703703703702,24.074074074074055 L -38.888888888888864,24.074074074074055 L -40.74074074074072,24.074074074074055 L -40.74074074074072,25.925925925925906 L -38.888888888888864,25.925925925925906 L -37.03703703703702,25.925925925925906 L -37.03703703703702,24.074074074074055 " />
        <path style="fill:none;stroke:#50514F;stroke-width:0.1px;stroke-linecap:square" d="M -37.03703703703702,22.222222222222204 L -38.888888888888864,22.222222222222204 L -40.74074074074072,22.222222222222204 " />
        <path style="fill:none;stroke:#50514F;stroke-width:0.1px;stroke-linecap:square" d="M -40.74074074074072,20.370370370370352 L -42.59259259259257,20.37037037037035 L -44.44444444444442,20.370370370370345 L -44.44444444444442,18.518518518518494 L -42.59259259259257,18.518518518518498 L -40.74074074074072,18.5185185185185 L -40.74074074074072,20.370370370370352 " />
        <path style="fill:none;stroke:#50514F;stroke-width:0.1px;stroke-linecap:square" d="M -40.74074074074072,22.222222222222204 L -42.59259259259257,22.222222222222204 L -44.44444444444442,22.222222222222204 L -46.29629629629627,22.222222222222204 L -46.29629629629627,20.370370370370352 " />
        <path style="fill:none;stroke:#50514F;stroke-width:0.1px;stroke-linecap:square" d="M -48.148148148148124,20.370370370370352 L -48.148148148148124,18.5185185185185 L -48.148148148148124,16.66666666666665 L -49.99999999999997,16.66666666666665 L -49.99999999999997,18.5185185185185 L -49.99999999999997,20.370370370370352 L -48.148148148148124,20.370370370370352 " />
        <path style="fill:none;stroke:#50514F;stroke-width:0.1px;stroke-linecap:square" d="M -46.29629629629627,20.370370370370356 L -46.29629629629627,18.518518518518505 L -46.29629629629627,16.666666666666654 " />
        <path style="fill:none;stroke:#50514F;stroke-width:0.1px;stroke-linecap:square" d="M -44.44444444444442,16.666666666666654 L -44.44444444444442,14.8148148148148 L -44.44444444444442,12.96296296296295 L -42.59259259259257,12.96296296296295 L -42.59259259259257,14.8148148148148 L -42.59259259259257,16.666666666666654 L -44.44444444444442,16.666666666666654 " />
        <path style="fill:none;stroke:#50514F;stroke-width:0.1px;stroke-linecap:square" d="M -46.29629629629627,16.666666666666654 L -46.29629629629627,14.8148148148148 L -46.29629629629627,12.96296296296295 L -46.29629629629627,11.111111111111098 L -46.29629629629627,9.259259259259247 " />
        <path style="fill:none;stroke:#50514F;stroke-width:0.1px;stroke-linecap:square" d="M -48.148148148148124,9.259259259259247 L -48.148148148148124,7.407407407407396 L -48.148148148148124,5.555555555555545 L -49.99999999999997,5.555555555555545 L -49.99999999999997,7.407407407407396 L -49.99999999999997,9.259259259259247 L -48.148148148148124,9.259259259259247 " />
        <path style="fill:none;stroke:#50514F;stroke-width:0.1px;stroke-linecap:square" d="M -46.29629629629627,9.259259259259247 L -46.29629629629627,7.407407407407396 L -46.29629629629627,5.555555555555545 " />
        <path style="fill:none;stroke:#50514F;stroke-width:0.1px;stroke-linecap:square" d="M -44.44444444444442,5.555555555555545 L -44.44444444444442,3.703703703703693 L -44.44444444444442,1.8518518518518383 L -42.59259259259257,1.8518518518518383 L -42.59259259259257,3.7037037037036895 L -42.59259259259257,5.555555555555541 L -44.44444444444442,5.555555555555541 " />
        <path style="fill:none;stroke:#50514F;stroke-width:0.1px;stroke-linecap:square" d="M -46.29629629629627,5.555555555555541 L -46.29629629629627,3.7037037037036895 L -46.29629629629627,1.8518518518518383 L -46.29629629629627,-1.3158198810372223e-14 L -44.44444444444442,-1.3158198810372223e-14 " />
        <path style="fill:none;stroke:#50514F;stroke-width:0.1px;stroke-linecap:square" d="M -44.44444444444442,-1.8518518518518645 L -42.59259259259257,-1.8518518518518645 L -40.74074074074072,-1.8518518518518645 L -40.74074074074072,-3.703703703703716 L -42.59259259259257,-3.703703703703716 L -44.44444444444442,-3.703703703703716 L -44.44444444444442,-1.8518518518518645 " />
        <path style="fill:none;stroke:#50514F;stroke-width:0.1px;stroke-linecap:square" d="M -44.44444444444442,-1.3158198810372223e-14 L -42.59259259259257,-1.3158198810372223e-14 L -40.74074074074072,-1.3158198810372223e-14 " />
        <path style="fill:none;stroke:#50514F;stroke-width:0.1px;stroke-linecap:square" d="M -40.74074074074072,1.8518518518518383 L -38.888888888888864,1.8518518518518383 L -37.03703703703702,1.8518518518518383 L -37.03703703703702,3.7037037037036895 L -38.888888888888864,3.7037037037036895 L -40.74074074074072,3.7037037037036895 L -40.74074074074072,1.8518518518518383 " />
        <path style="fill:none;stroke:#50514F;stroke-width:0.1px;stroke-linecap:square" d="M -40.74074074074072,-1.3158198810372223e-14 L -38.888888888888864,-1.3158198810372223e-14 L -37.03703703703702,-1.3158198810372223e-14 L -35.18518518518516,-1.3158198810372223e-14 " />
        <path style="fill:none;stroke:#50514F;stroke-width:0.1px;stroke-linecap:square" d="M -33.333333333333314,-1.3158198810372223e-14 L -33.333333333333314,1.8518518518518383 " />
        <path style="fill:none;stroke:#50514F;stroke-width:0.1px;stroke-linecap:square" d="M -31.48148148148146,1.8518518518518383 L -31.48148148148146,3.7037037037036895 L -31.48148148148146,5.555555555555541 L -29.62962962962961,5.555555555555541 L -29.62962962962961,3.7037037037036895 L -29.62962962962961,1.8518518518518383 L -31.48148148148146,1.8518518518518383 " />
        <path style="fill:none;stroke:#50514F;stroke-width:0.1px;stroke-linecap:square" d="M -33.333333333333314,1.8518518518518383 L -33.333333333333314,3.7037037037036895 L -33.333333333333314,5.555555555555541 " />
        <path style="fill:none;stroke:#50514F;stroke-width:0.1px;stroke-linecap:square" d="M -35.18518518518516,5.555555555555541 L -35.18518518518516,7.407407407407392 L -35.18518518518516,9.259259259259244 L -37.03703703703702,9.259259259259244 L -37.03703703703702,7.407407407407392 L -37.03703703703702,5.555555555555541 L -35.18518518518516,5.555555555555541 " />
        <path style="fill:none;stroke:#50514F;stroke-width:0.1px;stroke-linecap:square" d="M -33.333333333333314,5.555555555555541 L -33.333333333333314,7.407407407407392 L -33.333333333333314,9.259259259259244 L -33.333333333333314,11.111111111111095 L -33.333333333333314,12.962962962962946 " />
        <path style="fill:none;stroke:#50514F;stroke-width:0.1px;stroke-linecap:square" d="M -31.48148148148146,12.962962962962946 L -31.48148148148146,14.814814814814799 L -31.48148148148146,16.66666666666665 L -29.62962962962961,16.66666666666665 L -29.62962962962961,14.814814814814799 L -29.62962962962961,12.962962962962946 L -31.48148148148146,12.962962962962946 " />
        <path style="fill:none;stroke:#50514F;stroke-width:0.1px;stroke-linecap:square" d="M -33.333333333333314,12.962962962962946 L -33.333333333333314,14.814814814814799 L -33.333333333333314,16.66666666666665 " />
        <path style="fill:none;stroke:#50514F;stroke-width:0.1px;stroke-linecap:square" d="M -35.18518518518516,16.66666666666665 L -35.18518518518516,18.5185185185185 L -35.18518518518516,20.370370370370352 L -37.03703703703702,20.370370370370352 L -37.03703703703702,18.5185185185185 L -37.03703703703702,16.66666666666665 L -35.18518518518516,16.66666666666665 " />
        <path style="fill:none;stroke:#50514F;stroke-width:0.1px;stroke-linecap:square" d="M -33.333333333333314,16.66666666666665 L -33.333333333333314,18.5185185185185 L -33.333333333333314,20.370370370370352 L -33.333333333333314,22.222222222222204 L -33.333333333333314,24.074074074074055 " />
        <path style="fill:none;stroke:#50514F;stroke-width:0.1px;stroke-linecap:square" d="M -31.48148148148146,24.074074074074055 L -31.48148148148146,25.925925925925906 L -31.48148148148146,27.777777777777757 L -29.62962962962961,27.777777777777757 L -29.62962962962961,25.925925925925906 L -29.62962962962961,24.074074074074055 L -31.48148148148146,24.074074074074055 " />
        <path style="fill:none;stroke:#50514F;stroke-width:0.1px;stroke-linecap:square" d="M -33.333333333333314,24.074074074074055 L -33.333333333333314,25.925925925925906 L -33.333333333333314,27.777777777777757 " />
        <path style="fill:none;stroke:#50514F;stroke-width:0.1px;stroke-linecap:square" d="M -35.18518518518516,27.777777777777757 L -35.18518518518516,29.62962962962961 L -35.18518518518516,31.48148148148146 L -37.03703703703702,31.48148148148146 L -37.03703703703702,29.62962962962961 L -37.03703703703702,27.777777777777757 L -35.18518518518516,27.777777777777757 " />
        <path style="fill:none;stroke:#50514F;stroke-width:0.1px;stroke-linecap:square" d="M -33.333333333333314,27.777777777777757 L -33.333333333333314,29.62962962962961 L -33.333333333333314,31.48148148148146 L -33.333333333333314,33.333333333333314 L -31.48148148148146,33.333333333333314 " />
        <path style="fill:none;stroke:#50514F;stroke-width:0.1px;stroke-linecap:square" d="M -31.48148148148146,31.48148148148146 L -29.62962962962961,31.48148148148146 L -27.777777777777757,31.48148148148146 L -27.777777777777757,29.62962962962961 L -29.62962962962961,29.62962962962961 L -31.48148148148146,29.62962962962961 L -31.48148148148146,31.48148148148146 " />
        <path style="fill:none;stroke:#50514F;stroke-width:0.1px;stroke-linecap:square" d="M -31.48148148148146,33.333333333333314 L -29.62962962962961,33.333333333333314 L -27.777777777777757,33.333333333333314 " />
        <path style="fill:none;stroke:#50514F;stroke-width:0.1px;stroke-linecap:square" d="M -27.777777777777757,35.18518518518516 L -25.925925925925906,35.18518518518516 L -24.074074074074055,35.18518518518516 L -24.074074074074055,37.03703703703702 L -25.925925925925906,37.03703703703702 L -27.777777777777757,37.03703703703702 L -27.777777777777757,35.18518518518516 " />
        <path style="fill:none;stroke:#50514F;stroke-width:0.1px;stroke-linecap:square" d="M -27.777777777777757,33.333333333333314 L -25.925925925925906,33.333333333333314 L -24.074074074074055,33.333333333333314 L -22.222222222222204,33.333333333333314 " />
        <path style="fill:none;stroke:#50514F;stroke-width:0.1px;stroke-linecap:square" d="M -22.222222222222204,31.48148148148146 L -20.370370370370352,31.481481481481467 " />
        <path style="fill:none;stroke:#50514F;stroke-width:0.1px;stroke-linecap:square" d="M -20.370370370370352,29.629629629629612 L -18.5185185185185,29.629629629629612 L -16.66666666666665,29.629629629629612 L -16.66666666666665,27.77777777777776 L -18.5185185185185,27.77777777777776 L -20.370370370370352,27.77777777777776 L -20.370370370370352,29.629629629629612 " />
        <path style="fill:none;stroke:#50514F;stroke-width:0.1px;stroke-linecap:square" d="M -20.370370370370352,31.48148148148146 L -18.5185185185185,31.48148148148146 L -16.66666666666665,31.481481481481467 " />
        <path style="fill:none;stroke:#50514F;stroke-width:0.1px;stroke-linecap:square" d="M -16.66666666666665,33.33333333333332 L -14.814814814814799,33.33333333333332 L -12.962962962962946,33.33333333333332 L -12.962962962962946,35.18518518518517 L -14.814814814814799,35.18518518518517 L -16.66666666666665,35.18518518518517 L -16.66666666666665,33.33333333333332 " />
        <path style="fill:none;stroke:#50514F;stroke-width:0.1px;stroke-linecap:square" d="M -16.66666666666665,31.481481481481467 L -14.814814814814799,31.481481481481467 L -12.962962962962946,31.481481481481467 L -11.111111111111095,31.481481481481467 L -9.259259259259244,31.481481481481467 " />
        <path style="fill:none;stroke:#50514F;stroke-width:0.1px;stroke-linecap:square" d="M -9.259259259259244,29.629629629629616 L -7.407407407407392,29.629629629629616 L -5.555555555555541,29.629629629629616 L -5.555555555555541,27.777777777777764 L -7.407407407407392,27.777777777777764 L -9.259259259259244,27.777777777777764 L -9.259259259259244,29.629629629629616 " />
        <path style="fill:none;stroke:#50514F;stroke-width:0.1px;stroke-linecap:square" d="M -9.259259259259244,31.481481481481467 L -7.407407407407392,31.481481481481467 L -5.555555555555541,31.481481481481467 " />
        <path style="fill:none;stroke:#50514F;stroke-width:0.1px;stroke-linecap:square" d="M -5.555555555555541,33.33333333333332 L -3.7037037037036895,33.33333333333332 L -1.8518518518518383,33.33333333333332 L -1.8518518518518383,35.18518518518517 L -3.7037037037036895,35.18518518518517 L -5.555555555555541,35.18518518518517 L -5.555555555555541,33.33333333333332 " />
        <path style="fill:none;stroke:#50514F;stroke-width:0.1px;stroke-linecap:square" d="M -5.555555555555541,31.481481481481467 L -3.7037037037036895,31.481481481481467 L -1.8518518518518383,31.481481481481467 L 1.3158198810372223e-14,31.481481481481467 L 1.3158198810372223e-14,29.629629629629616 " />
        <path style="fill:none;stroke:#50514F;stroke-width:0.1px;stroke-linecap:square" d="M -1.8518518518518383,29.629629629629616 L -1.8518518518518383,27.777777777777764 L -1.8518518518518383,25.925925925925913 L -3.7037037037036895,25.925925925925913 L -3.7037037037036895,27.777777777777764 L -3.7037037037036895,29.629629629629616 L -1.8518518518518383,29.629629629629616 " />
        <path style="fill:none;stroke:#50514F;stroke-width:0.1px;stroke-linecap:square" d="M 1.3158198810372223e-14,29.629629629629616 L 1.3158198810372223e-14,27.777777777777764 L 1.3158198810372223e-14,25.925925925925913 " />
        <path style="fill:none;stroke:#50514F;stroke-width:0.1px;stroke-linecap:square" d="M 1.8518518518518645,25.925925925925913 L 1.8518518518518645,24.074074074074062 L 1.8518518518518645,22.22222222222221 L 3.703703703703716,22.222222222222214 L 3.703703703703716,24.074074074074066 L 3.703703703703716,25.925925925925917 L 1.8518518518518645,25.925925925925917 " />
        <path style="fill:none;stroke:#50514F;stroke-width:0.1px;stroke-linecap:square" d="M 1.3158198810372223e-14,25.925925925925913 L 1.3158198810372223e-14,24.074074074074062 L 1.3158198810372223e-14,22.22222222222221 L 1.3158198810372223e-14,20.37037037037036 L -1.8518518518518383,20.37037037037036 " />
        <path style="fill:none;stroke:#50514F;stroke-width:0.1px;stroke-linecap:square" d="M -1.8518518518518383,22.22222222222221 L -3.7037037037036895,22.22222222222221 L -5.555555555555541,22.22222222222221 L -5.555555555555541,24.074074074074062 L -3.7037037037036895,24.074074074074066 L -1.8518518518518383,24.07407407407407 L -1.8518518518518383,22.222222222222218 " />
        <path style="fill:none;stroke:#50514F;stroke-width:0.1px;stroke-linecap:square" d="M -1.8518518518518383,20.370370370370367 L -3.7037037037036895,20.370370370370363 L -5.555555555555541,20.37037037037036 " />
        <path style="fill:none;stroke:#50514F;stroke-width:0.1px;stroke-linecap:square" d="M -5.555555555555541,18.51851851851851 L -7.407407407407392,18.51851851851851 L -9.259259259259244,18.51851851851851 L -9.259259259259244,16.666666666666657 L -7.407407407407392,16.666666666666657 L -5.555555555555541,16.666666666666657 L -5.555555555555541,18.51851851851851 " />
        <path style="fill:none;stroke:#50514F;stroke-width:0.1px;stroke-linecap:square" d="M -5.555555555555541,20.37037037037036 L -7.407407407407392,20.37037037037036 L -9.259259259259244,20.37037037037036 L -11.111111111111095,20.37037037037036 L -12.962962962962946,20.37037037037036 " />
        <path style="fill:none;stroke:#50514F;stroke-width:0.1px;stroke-linecap:square" d="M -12.962962962962946,22.22222222222221 L -14.814814814814799,22.22222222222221 L -16.66666666666665,22.22222222222221 L -16.66666666666665,24.074074074074062 L -14.814814814814799,24.074074074074062 L -12.962962962962946,24.074074074074066 L -12.962962962962946,22.222222222222214 " />
        <path style="fill:none;stroke:#50514F;stroke-width:0.1px;stroke-linecap:square" d="M -12.962962962962946,20.370370370370363 L -14.814814814814799,20.37037037037036 L -16.66666666666665,20.37037037037036 " />
        <path style="fill:none;stroke:#50514F;stroke-width:0.1px;stroke-linecap:square" d="M -16.66666666666665,18.51851851851851 L -18.5185185185185,18.51851851851851 L -20.370370370370352,18.518518518518505 L -20.370370370370352,16.666666666666654 L -18.5185185185185,16.666666666666654 L -16.66666666666665,16.666666666666654 L -16.66666666666665,18.518518518518505 " />
        <path style="fill:none;stroke:#50514F;stroke-width:0.1px;stroke-linecap:square" d="M -16.66666666666665,20.370370370370356 L -18.5185185185185,20.370370370370356 L -20.370370370370352,20.370370370370356 L -22.222222222222204,20.370370370370356 L -22.222222222222204,22.222222222222207 " />
        <path style="fill:none;stroke:#50514F;stroke-width:0.1px;stroke-linecap:square" d="M -20.370370370370352,22.22222222222221 L -20.370370370370352,24.074074074074062 L -20.370370370370352,25.925925925925913 L -18.5185185185185,25.925925925925913 L -18.5185185185185,24.074074074074062 L -18.5185185185185,22.22222222222221 L -20.370370370370352,22.22222222222221 " />
        <path style="fill:none;stroke:#50514F;stroke-width:0.1px;stroke-linecap:square" d="M -22.222222222222204,22.222222222222207 L -22.222222222222204,24.07407407407406 L -22.222222222222204,25.92592592592591 " />
        <path style="fill:none;stroke:#50514F;stroke-width:0.1px;stroke-linecap:square" d="M -24.074074074074055,25.92592592592591 L -24.074074074074055,27.77777777777776 L -24.074074074074055,29.629629629629612 L -25.925925925925906,29.62962962962961 L -25.925925925925906,27.777777777777757 L -25.925925925925906,25.925925925925906 L -24.074074074074055,25.92592592592591 " />
        <path style="fill:none;stroke:#50514F;stroke-width:0.1px;stroke-linecap:square" d="M -22.222222222222204,25.92592592592591 L -22.222222222222204,27.77777777777776 L -22.222222222222204,29.629629629629612 L -22.222222222222204,31.48148148148146 " />
        <path style="fill:none;stroke:#50514F;stroke-width:0.1px;stroke-linecap:square" d="M -22.222222222222204,33.333333333333314 L -20.370370370370352,33.33333333333332 " />
        <path style="fill:none;stroke:#50514F;stroke-width:0.1px;stroke-linecap:square" d="M -20.370370370370352,31.481481481481467 L -18.5185185185185,31.481481481481467 L -16.66666666666665,31.481481481481467 L -16.66666666666665,29.629629629629616 L -18.5185185185185,29.629629629629612 L -20.370370370370352,29.629629629629612 L -20.370370370370352,31.48148148148146 " />
        <path style="fill:none;stroke:#50514F;stroke-width:0.1px;stroke-linecap:square" d="M -20.370370370370352,33.333333333333314 L -18.5185185185185,33.33333333333332 L -16.66666666666665,33.33333333333332 " />
        <path style="fill:none;stroke:#50514F;stroke-width:0.1px;stroke-linecap:square" d="M -16.66666666666665,35.18518518518517 L -14.814814814814799,35.18518518518517 L -12.962962962962946,35.18518518518517 L -12.962962962962946,37.037037037037024 L -14.814814814814799,37.037037037037024 L -16.66666666666665,37.037037037037024 L -16.66666666666665,35.18518518518517 " />
        <path style="fill:none;stroke:#50514F;stroke-width:0.1px;stroke-linecap:square" d="M -16.66666666666665,33.33333333333332 L -14.814814814814799,33.33333333333332 L -12.962962962962946,33.33333333333332 L -11.111111111111095,33.33333333333332 L -9.259259259259244,33.33333333333333 " />
        <path style="fill:none;stroke:#50514F;stroke-width:0.1px;stroke-linecap:square" d="M -9.259259259259244,31.481481481481474 L -7.407407407407392,31.481481481481474 L -5.555555555555541,31.481481481481474 L -5.555555555555541,29.629629629629623 L -7.407407407407392,29.62962962962962 L -9.259259259259244,29.62962962962962 L -9.259259259259244,31.481481481481467 " />
        <path style="fill:none;stroke:#50514F;stroke-width:0.1px;stroke-linecap:square" d="M -9.259259259259244,33.33333333333332 L -7.407407407407392,33.33333333333333 L -5.555555555555541,33.33333333333333 " />
        <path style="fill:none;stroke:#50514F;stroke-width:0.1px;stroke-linecap:square" d="M -5.555555555555541,35.185185185185176 L -3.7037037037036895,35.185185185185176 L -1.8518518518518383,35.185185185185176 L -1.8518518518518383,37.03703703703703 L -3.7037037037036895,37.03703703703703 L -5.555555555555541,37.03703703703703 L -5.555555555555541,35.185185185185176 " />
        <path style="fill:none;stroke:#50514F;stroke-width:0.1px;stroke-linecap:square" d="M -5.555555555555541,33.33333333333333 L -3.7037037037036895,33.33333333333333 L -1.8518518518518383,33.33333333333333 L 1.3158198810372223e-14,33.33333333333333 " />
        <path style="fill:none;stroke:#50514F;stroke-width:0.1px;stroke-linecap:square" d="M 1.3158198810372223e-14,35.185185185185176 L 1.8518518518518645,35.18518518518518 " />
        <path style="fill:none;stroke:#50514F;stroke-width:0.1px;stroke-linecap:square" d="M 1.8518518518518645,33.33333333333333 L 3.703703703703716,33.33333333333333 L 5.555555555555568,33.33333333333333 L 5.555555555555568,31.48148148148148 L 3.703703703703716,31.48148148148148 L 1.8518518518518645,31.481481481481474 L 1.8518518518518645,33.33333333333333 " />
        <path style="fill:none;stroke:#50514F;stroke-width:0.1px;stroke-linecap:square" d="M 1.8518518518518645,35.185185185185176 L 3.703703703703716,35.18518518518518 L 5.555555555555568,35.18518518518518 " />
        <path style="fill:none;stroke:#50514F;stroke-width:0.1px;stroke-linecap:square" d="M 5.555555555555568,37.03703703703704 L 7.407407407407419,37.03703703703704 L 9.25925925925927,37.03703703703704 L 9.25925925925927,38.888888888888886 L 7.407407407407419,38.888888888888886 L 5.555555555555568,38.888888888888886 L 5.555555555555568,37.03703703703704 " />
        <path style="fill:none;stroke:#50514F;stroke-width:0.1px;stroke-linecap:square" d="M 5.555555555555568,35.18518518518518 L 7.407407407407419,35.18518518518518 L 9.25925925925927,35.18518518518518 L 11.111111111111121,35.18518518518519 L 12.962962962962973,35.18518518518519 " />
        <path style="fill:none;stroke:#50514F;stroke-width:0.1px;stroke-linecap:square" d="M 12.962962962962973,33.333333333333336 L 14.814814814814824,33.333333333333336 L 16.666666666666675,33.333333333333336 L 16.666666666666675,31.481481481481488 L 14.814814814814824,31.481481481481488 L 12.962962962962973,31.481481481481488 L 12.962962962962973,33.333333333333336 " />
        <path style="fill:none;stroke:#50514F;stroke-width:0.1px;stroke-linecap:square" d="M 12.962962962962973,35.18518518518519 L 14.814814814814824,35.18518518518519 L 16.666666666666675,35.18518518518519 " />
        <path style="fill:none;stroke:#50514F;stroke-width:0.1px;stroke-linecap:square" d="M 16.666666666666675,37.03703703703704 L 18.518518518518526,37.03703703703704 L 20.370370370370377,37.03703703703704 L 20.370370370370377,38.88888888888889 L 18.518518518518526,38.88888888888889 L 16.666666666666675,38.88888888888889 L 16.666666666666675,37.03703703703704 " />
        <path style="fill:none;stroke:#50514F;stroke-width:0.1px;stroke-linecap:square" d="M 16.666666666666675,35.18518518518519 L 18.518518518518526,35.18518518518519 L 20.370370370370377,35.18518518518519 L 22.22222222222223,35.18518518518519 L 22.22222222222223,37.03703703703704 " />
        <path style="fill:none;stroke:#50514F;stroke-width:0.1px;stroke-linecap:square" d="M 24.074074074074083,37.037037037037045 L 24.074074074074083,38.8888888888889 L 24.074074074074083,40.74074074074075 L 25.925925925925934,40.74074074074075 L 25.925925925925934,38.8888888888889 L 25.925925925925934,37.037037037037045 L 24.074074074074083,37.037037037037045 " />
        <path style="fill:none;stroke:#50514F;stroke-width:0.1px;stroke-linecap:square" d="M 22.22222222222223,37.03703703703704 L 22.22222222222223,38.88888888888889 L 22.22222222222223,40.74074074074075 " />
        <path style="fill:none;stroke:#50514F;stroke-width:0.1px;stroke-linecap:square" d="M 20.370370370370377,40.74074074074075 L 20.370370370370374,42.592592592592595 L 20.370370370370374,44.44444444444445 L 18.51851851851852,44.44444444444445 L 18.518518518518523,42.592592592592595 L 18.518518518518526,40.74074074074075 L 20.370370370370377,40.74074074074075 " />
        <path style="fill:none;stroke:#50514F;stroke-width:0.1px;stroke-linecap:square" d="M 22.22222222222223,40.74074074074075 L 22.22222222222223,42.592592592592595 L 22.22222222222223,44.44444444444445 L 22.22222222222223,46.2962962962963 L 20.370370370370377,46.2962962962963 " />
        <path style="fill:none;stroke:#50514F;stroke-width:0.1px;stroke-linecap:square" d="M 20.370370370370377,48.14814814814815 L 18.518518518518526,48.14814814814815 L 16.666666666666675,48.14814814814815 L 16.666666666666675,50.0 L 18.518518518518526,50.0 L 20.370370370370377,50.0 L 20.370370370370377,48.14814814814815 " />
        <path style="fill:none;stroke:#50514F;stroke-width:0.1px;stroke-linecap:square" d="M 20.37037037037038,46.2962962962963 L 18.51851851851853,46.2962962962963 L 16.66666666666668,46.2962962962963 " />
        <path style="fill:none;stroke:#50514F;stroke-width:0.1px;stroke-linecap:square" d="M 16.66666666666668,44.44444444444445 L 14.814814814814827,44.44444444444445 L 12.962962962962976,44.44444444444445 L 12.962962962962976,42.592592592592595 L 14.814814814814827,42.592592592592595 L 16.66666666666668,42.592592592592595 L 16.66666666666668,44.44444444444445 " />
        <path style="fill:none;stroke:#50514F;stroke-width:0.1px;stroke-linecap:square" d="M 16.66666666666668,46.2962962962963 L 14.814814814814827,46.2962962962963 L 12.962962962962976,46.2962962962963 L 11.111111111111125,46.2962962962963 L 9.259259259259274,46.2962962962963 " />
        <path style="fill:none;stroke:#50514F;stroke-width:0.1px;stroke-linecap:square" d="M 9.259259259259274,48.14814814814815 L 7.4074074074074225,48.14814814814815 L 5.5555555555555705,48.14814814814815 L 5.5555555555555705,50.0 L 7.4074074074074225,50.0 L 9.259259259259274,50.0 L 9.259259259259274,48.14814814814815 " />
        <path style="fill:none;stroke:#50514F;stroke-width:0.1px;stroke-linecap:square" d="M 9.259259259259274,46.2962962962963 L 7.4074074074074225,46.2962962962963 L 5.5555555555555705,46.2962962962963 " />
        <path style="fill:none;stroke:#50514F;stroke-width:0.1px;stroke-linecap:square" d="M 5.5555555555555705,44.44444444444445 L 3.7037037037037193,44.44444444444444 L 1.8518518518518645,44.44444444444444 L 1.8518518518518645,42.59259259259259 L 3.703703703703716,42.59259259259259 L 5.555555555555568,42.592592592592595 L 5.555555555555568,44.44444444444445 " />
        <path style="fill:none;stroke:#50514F;stroke-width:0.1px;stroke-linecap:square" d="M 5.555555555555568,46.2962962962963 L 3.703703703703716,46.2962962962963 L 1.8518518518518645,46.2962962962963 L 1.3158198810372223e-14,46.2962962962963 L 1.3158198810372223e-14,44.44444444444445 " />
        <path style="fill:none;stroke:#50514F;stroke-width:0.1px;stroke-linecap:square" d="M -1.8518518518518383,44.44444444444445 L -1.8518518518518383,42.592592592592595 L -1.8518518518518383,40.74074074074075 L -3.7037037037036895,40.74074074074075 L -3.7037037037036895,42.592592592592595 L -3.7037037037036895,44.44444444444445 L -1.8518518518518383,44.44444444444445 " />
        <path style="fill:none;stroke:#50514F;stroke-width:0.1px;stroke-linecap:square" d="M 1.3158198810372223e-14,44.44444444444445 L 1.3158198810372223e-14,42.592592592592595 L 1.3158198810372223e-14,40.74074074074075 " />
        <path style="fill:none;stroke:#50514F;stroke-width:0.1px;stroke-linecap:square" d="M 1.8518518518518645,40.74074074074075 L 1.8518518518518645,38.88888888888889 L 1.8518518518518645,37.03703703703704 L 3.703703703703716,37.03703703703704 L 3.703703703703716,38.88888888888889 L 3.703703703703716,40.74074074074075 L 1.8518518518518645,40.74074074074075 " />
        <path style="fill:none;stroke:#50514F;stroke-width:0.1px;stroke-linecap:square" d="M 1.3158198810372223e-14,40.74074074074075 L 1.3158198810372223e-14,38.88888888888889 L 1.3158198810372223e-14,37.03703703703704 L 1.3158198810372223e-14,35.18518518518519 " />
        <path style="fill:none;stroke:#50514F;stroke-width:0.1px;stroke-linecap:square" d="M 1.3158198810372223e-14,33.333333333333336 L 1.8518518518518645,33.33333333333334 " />
        <path style="fill:none;stroke:#50514F;stroke-width:0.1px;stroke-linecap:square" d="M 1.8518518518518645,31.481481481481495 L 3.703703703703716,31.481481481481495 L 5.555555555555568,31.481481481481495 L 5.555555555555568,29.629629629629644 L 3.703703703703716,29.629629629629644 L 1.8518518518518645,29.629629629629637 L 1.8518518518518645,31.481481481481488 " />
        <path style="fill:none;stroke:#50514F;stroke-width:0.1px;stroke-linecap:square" d="M 1.8518518518518645,33.333333333333336 L 3.703703703703716,33.33333333333334 L 5.555555555555568,33.33333333333334 " />
        <path style="fill:none;stroke:#50514F;stroke-width:0.1px;stroke-linecap:square" d="M 5.555555555555568,35.1851851851852 L 7.407407407407419,35.1851851851852 L 9.25925925925927,35.1851851851852 L 9.25925925925927,37.037037037037045 L 7.407407407407419,37.037037037037045 L 5.555555555555568,37.037037037037045 L 5.555555555555568,35.1851851851852 " />
        <path style="fill:none;stroke:#50514F;stroke-width:0.1px;stroke-linecap:square" d="M 5.555555555555568,33.33333333333334 L 7.407407407407419,33.33333333333334 L 9.25925925925927,33.33333333333334 L 11.111111111111121,33.33333333333334 L 12.962962962962973,33.33333333333334 " />
        <path style="fill:none;stroke:#50514F;stroke-width:0.1px;stroke-linecap:square" d="M 12.962962962962973,31.481481481481495 L 14.814814814814824,31.481481481481495 L 16.666666666666675,31.481481481481495 L 16.666666666666675,29.629629629629644 L 14.814814814814824,29.629629629629644 L 12.962962962962973,29.629629629629644 L 12.962962962962973,31.481481481481495 " />
        <path style="fill:none;stroke:#50514F;stroke-width:0.1px;stroke-linecap:square" d="M 12.962962962962973,33.33333333333334 L 14.814814814814824,33.33333333333334 L 16.666666666666675,33.33333333333334 " />
        <path style="fill:none;stroke:#50514F;stroke-width:0.1px;stroke-linecap:square" d="M 16.666666666666675,35.1851851851852 L 18.518518518518526,35.1851851851852 L 20.370370370370377,35.1851851851852 L 20.370370370370377,37.037037037037045 L 18.518518518518526,37.037037037037045 L 16.666666666666675,37.037037037037045 L 16.666666666666675,35.1851851851852 " />
        <path style="fill:none;stroke:#50514F;stroke-width:0.1px;stroke-linecap:square" d="M 16.666666666666675,33.33333333333334 L 18.518518518518526,33.33333333333334 L 20.370370370370377,33.33333333333334 L 22.22222222222223,33.33333333333334 L 24.074074074074083,33.33333333333334 " />
        <path style="fill:none;stroke:#50514F;stroke-width:0.1px;stroke-linecap:square" d="M 24.074074074074083,31.481481481481495 L 25.925925925925934,31.481481481481495 L 27.777777777777786,31.4814814814815 L 27.777777777777786,29.629629629629648 L 25.925925925925934,29.629629629629644 L 24.074074074074083,29.629629629629644 L 24.074074074074083,31.481481481481495 " />
        <path style="fill:none;stroke:#50514F;stroke-width:0.1px;stroke-linecap:square" d="M 24.074074074074083,33.33333333333334 L 25.925925925925934,33.33333333333334 L 27.777777777777786,33.33333333333335 " />
        <path style="fill:none;stroke:#50514F;stroke-width:0.1px;stroke-linecap:square" d="M 27.777777777777786,35.185185185185205 L 29.629629629629637,35.185185185185205 L 31.481481481481488,35.185185185185205 L 31.481481481481488,37.03703703703705 L 29.629629629629637,37.03703703703705 L 27.777777777777786,37.03703703703705 L 27.777777777777786,35.185185185185205 " />
        <path style="fill:none;stroke:#50514F;stroke-width:0.1px;stroke-linecap:square" d="M 27.777777777777786,33.33333333333335 L 29.629629629629637,33.33333333333335 L 31.481481481481488,33.33333333333335 L 33.333333333333336,33.33333333333335 " />
    </g>
</svg>
