<?xml version="1.0" encoding="UTF-8"?>
<!DOCTYPE svg PUBLIC "-//W3C//DTD SVG 1.1//EN"
    "http://www.w3.org/Graphics/SVG/1.1/DTD/svg11.dtd">

<svg xmlns="http://www.w3.org/2000/svg" xmlns:xlink="http://www.w3.org/1999/xlink" version="1.1" width="340.2983393487983" height="500" viewBox="-40.835800721855804 -60.00000000000001 81.67160144371161 120.00000000000001">
    <g>
        <rect x="-40.835800721855804" y="-60.00000000000001" width="81.67160144371161" height="120.00000000000001" fill="#CBD4C2" />
        <path style="fill:none;stroke:#50514F;stroke-width:0.1px;stroke-linecap:square" d="M 10.720264012783723,50.00000000000001 L 10.720264012783723,48.75259292050483 L 10.720264012783723,47.50518584100966 L 10.720264012783723,46.25777876151449 L 10.720264012783723,45.01037168201932 L 10.720264012783723,43.76296460252414 L 10.720264012783723,42.515557523028974 L 10.720264012783723,41.2681504435338 L 10.720264012783723,40.02074336403863 L 10.720264012783723,38.773336284543454 L 10.720264012783723,37.525929205048286 L 10.720264012783723,36.27852212555311 L 10.720264012783723,35.03111504605794 L 10.720264012783723,33.783707966562766 L 10.720264012783723,32.5363008870676 L 10.720264012783725,31.28889380757242 L 10.720264012783725,30.04148672807725 L 11.19762603552145,28.88903285862198 L 11.674988058259174,27.736578989166713 L 12.152350080996898,26.584125119711445 L 12.629712103734624,25.431671250256176 L 13.107074126472348,24.279217380800908 L 13.584436149210076,23.12676351134564 L 14.061798171947798,21.974309641890372 L 14.539160194685525,20.821855772435104 L 15.421210199496667,19.939805767623962 L 16.30326020430781,19.05775576281282 L 17.185310209118953,18.17570575800168 L 18.067360213930098,17.29365575319054 L 19.219814083385366,16.816293730452813 L 20.372267952840634,16.338931707715084 L 21.619675032335806,16.338931707715084 L 22.867082111830978,16.338931707715084 L 24.019535981286246,15.861569684977361 " />
        <path style="fill:none;stroke:#50514F;stroke-width:0.1px;stroke-linecap:square" d="M 20.372267952840634,16.338931707715084 L 21.52472182229591,15.861569684977358 L 22.677175691751177,15.38420766223963 L 23.55922569656232,14.502157657428489 " />
        <path style="fill:none;stroke:#50514F;stroke-width:0.1px;stroke-linecap:square" d="M 20.372267952840634,16.338931707715084 L 21.52472182229591,15.861569684977358 L 22.677175691751177,15.38420766223963 L 23.55922569656232,14.502157657428489 L 24.44127570137346,13.620107652617348 L 25.323325706184605,12.738057647806206 L 26.20537571099575,11.856007642995065 L 26.68273773373347,10.703553773539797 " />
        <path style="fill:none;stroke:#50514F;stroke-width:0.1px;stroke-linecap:square" d="M 22.677175691751177,15.38420766223963 L 23.92458277124635,15.38420766223963 L 25.17198985074152,15.38420766223963 L 26.32444372019679,14.906845639501908 " />
        <path style="fill:none;stroke:#50514F;stroke-width:0.1px;stroke-linecap:square" d="M 18.067360213930098,17.29365575319054 L 18.94941021874124,16.411605748379397 L 19.831460223552387,15.529555743568256 L 20.983914093007655,15.052193720830529 L 22.136367962462923,14.574831698092801 L 23.018417967274065,13.69278169328166 " />
        <path style="fill:none;stroke:#50514F;stroke-width:0.1px;stroke-linecap:square" d="M 19.831460223552387,15.529555743568256 L 20.713510228363525,14.647505738757115 L 21.595560233174666,13.765455733945974 L 22.072922255912395,12.613001864490705 " />
        <path style="fill:none;stroke:#50514F;stroke-width:0.1px;stroke-linecap:square" d="M 19.831460223552387,15.529555743568256 L 20.713510228363525,14.647505738757115 L 21.595560233174666,13.765455733945974 L 22.072922255912395,12.613001864490705 L 22.55028427865012,11.460547995035437 L 23.027646301387843,10.308094125580169 L 23.505008324125566,9.155640256124899 L 23.505008324125566,7.908233176629728 " />
        <path style="fill:none;stroke:#50514F;stroke-width:0.1px;stroke-linecap:square" d="M 21.595560233174666,13.765455733945974 L 22.748014102629938,13.288093711208246 L 23.900467972085206,12.810731688470518 L 24.78251797689635,11.928681683659377 " />
        <path style="fill:none;stroke:#50514F;stroke-width:0.1px;stroke-linecap:square" d="M 18.067360213930098,17.29365575319054 L 18.94941021874124,16.411605748379397 L 19.831460223552387,15.529555743568256 L 20.713510228363525,14.647505738757115 L 21.595560233174666,13.765455733945974 L 22.072922255912395,12.613001864490705 L 22.55028427865012,11.460547995035437 L 23.027646301387843,10.308094125580169 L 23.505008324125566,9.155640256124899 L 23.982370346863295,8.003186386669631 L 24.45973236960102,6.850732517214364 L 25.341782374412162,5.968682512403222 L 26.223832379223303,5.086632507592081 L 26.70119440196103,3.9341786381368125 " />
        <path style="fill:none;stroke:#50514F;stroke-width:0.1px;stroke-linecap:square" d="M 24.45973236960102,6.850732517214364 L 24.937094392338743,5.6982786477590945 L 25.414456415076465,4.545824778303826 L 25.414456415076465,3.298417698808654 " />
        <path style="fill:none;stroke:#50514F;stroke-width:0.1px;stroke-linecap:square" d="M 24.45973236960102,6.850732517214364 L 24.937094392338743,5.6982786477590945 L 25.414456415076465,4.545824778303826 L 25.414456415076465,3.298417698808654 L 25.414456415076465,2.051010619313482 L 25.414456415076465,0.8036035398183101 L 25.414456415076465,-0.44380353967686204 L 24.937094392338743,-1.5962574091321304 " />
        <path style="fill:none;stroke:#50514F;stroke-width:0.1px;stroke-linecap:square" d="M 25.414456415076465,4.545824778303826 L 26.29650641988761,3.663774773492685 L 27.17855642469876,2.7817247686815443 L 27.65591844743648,1.6292708992262757 " />
        <path style="fill:none;stroke:#50514F;stroke-width:0.1px;stroke-linecap:square" d="M 21.595560233174666,13.765455733945974 L 22.748014102629938,13.288093711208246 L 23.900467972085206,12.810731688470518 L 25.147875051580378,12.810731688470518 L 26.39528213107555,12.810731688470518 L 27.54773600053082,12.333369665732796 " />
        <path style="fill:none;stroke:#50514F;stroke-width:0.1px;stroke-linecap:square" d="M 23.900467972085206,12.810731688470518 L 25.052921841540474,12.333369665732793 L 26.205375710995742,11.856007642995065 L 27.087425715806887,10.973957638183924 " />
        <path style="fill:none;stroke:#50514F;stroke-width:0.1px;stroke-linecap:square" d="M 23.900467972085206,12.810731688470518 L 25.052921841540474,12.333369665732793 L 26.205375710995742,11.856007642995065 L 27.087425715806887,10.973957638183924 L 27.969475720618032,10.091907633372783 L 28.851525725429173,9.209857628561641 L 29.733575730240315,8.3278076237505 L 30.21093775297804,7.175353754295232 " />
        <path style="fill:none;stroke:#50514F;stroke-width:0.1px;stroke-linecap:square" d="M 26.205375710995742,11.856007642995065 L 27.452782790490915,11.856007642995065 L 28.700189869986087,11.856007642995065 L 29.852643739441355,11.378645620257343 " />
        <path style="fill:none;stroke:#50514F;stroke-width:0.1px;stroke-linecap:square" d="M 14.539160194685525,20.821855772435104 L 15.01652221742325,19.669401902979835 L 15.493884240160973,18.516948033524567 L 15.971246262898699,17.3644941640693 L 16.448608285636425,16.21204029461403 L 17.330658290447566,15.329990289802888 L 18.21270829525871,14.447940284991747 L 19.36516216471398,13.97057826225402 L 20.517616034169247,13.493216239516293 L 21.399666038980392,12.611166234705152 " />
        <path style="fill:none;stroke:#50514F;stroke-width:0.1px;stroke-linecap:square" d="M 18.21270829525871,14.447940284991747 L 19.094758300069852,13.565890280180605 L 19.976808304880997,12.683840275369464 L 20.45417032761872,11.531386405914196 " />
        <path style="fill:none;stroke:#50514F;stroke-width:0.1px;stroke-linecap:square" d="M 18.21270829525871,14.447940284991747 L 19.094758300069852,13.565890280180605 L 19.976808304880997,12.683840275369464 L 20.45417032761872,11.531386405914196 L 20.931532350356445,10.378932536458928 L 21.408894373094174,9.22647866700366 L 21.886256395831897,8.074024797548391 L 21.886256395831897,6.826617718053219 " />
        <path style="fill:none;stroke:#50514F;stroke-width:0.1px;stroke-linecap:square" d="M 19.976808304880997,12.683840275369464 L 21.129262174336265,12.206478252631738 L 22.281716043791533,11.72911622989401 L 23.163766048602678,10.84706622508287 " />
        <path style="fill:none;stroke:#50514F;stroke-width:0.1px;stroke-linecap:square" d="M 16.448608285636425,16.21204029461403 L 16.925970308374147,15.059586425158761 L 17.403332331111873,13.907132555703493 L 18.285382335923018,13.025082550892352 L 19.16743234073416,12.14303254608121 L 19.644794363471885,10.990578676625942 " />
        <path style="fill:none;stroke:#50514F;stroke-width:0.1px;stroke-linecap:square" d="M 17.403332331111873,13.907132555703493 L 17.8806943538496,12.754678686248225 L 18.35805637658732,11.602224816792956 L 18.35805637658732,10.354817737297784 " />
        <path style="fill:none;stroke:#50514F;stroke-width:0.1px;stroke-linecap:square" d="M 17.403332331111873,13.907132555703493 L 17.8806943538496,12.754678686248225 L 18.35805637658732,11.602224816792956 L 18.35805637658732,10.354817737297784 L 18.35805637658732,9.107410657802612 L 18.35805637658732,7.86000357830744 L 18.35805637658732,6.612596498812268 L 17.8806943538496,5.460142629357 " />
        <path style="fill:none;stroke:#50514F;stroke-width:0.1px;stroke-linecap:square" d="M 18.35805637658732,11.602224816792956 L 19.240106381398466,10.720174811981815 L 20.12215638620961,9.838124807170674 L 20.599518408947336,8.685670937715406 " />
        <path style="fill:none;stroke:#50514F;stroke-width:0.1px;stroke-linecap:square" d="M 16.448608285636425,16.21204029461403 L 16.925970308374147,15.059586425158761 L 17.403332331111873,13.907132555703493 L 17.8806943538496,12.754678686248225 L 18.35805637658732,11.602224816792956 L 18.35805637658732,10.354817737297784 L 18.35805637658732,9.107410657802612 L 18.35805637658732,7.86000357830744 L 18.35805637658732,6.612596498812268 L 18.35805637658732,5.365189419317096 L 18.35805637658732,4.1177823398219235 L 18.835418399325047,2.9653284703666554 L 19.312780422062772,1.812874600911387 L 19.312780422062772,0.5654675214162148 " />
        <path style="fill:none;stroke:#50514F;stroke-width:0.1px;stroke-linecap:square" d="M 18.35805637658732,4.1177823398219235 L 18.35805637658732,2.8703752603267514 L 18.35805637658732,1.6229681808315792 L 17.8806943538496,0.470514311376311 " />
        <path style="fill:none;stroke:#50514F;stroke-width:0.1px;stroke-linecap:square" d="M 18.35805637658732,4.1177823398219235 L 18.35805637658732,2.8703752603267514 L 18.35805637658732,1.6229681808315792 L 17.8806943538496,0.470514311376311 L 17.403332331111873,-0.6819395580789573 L 16.925970308374147,-1.8343934275342255 L 16.448608285636425,-2.986847296989494 L 15.56655828082528,-3.868897301800635 " />
        <path style="fill:none;stroke:#50514F;stroke-width:0.1px;stroke-linecap:square" d="M 18.35805637658732,1.6229681808315792 L 18.835418399325047,0.470514311376311 L 19.312780422062772,-0.6819395580789573 L 19.312780422062772,-1.9293466375741295 " />
        <path style="fill:none;stroke:#50514F;stroke-width:0.1px;stroke-linecap:square" d="M 18.35805637658732,11.602224816792956 L 19.240106381398466,10.720174811981815 L 20.12215638620961,9.838124807170674 L 21.27461025566488,9.360762784432946 L 22.427064125120147,8.88340076169522 L 23.309114129931288,8.00135075688408 " />
        <path style="fill:none;stroke:#50514F;stroke-width:0.1px;stroke-linecap:square" d="M 20.12215638620961,9.838124807170674 L 21.00420639102075,8.956074802359533 L 21.886256395831897,8.074024797548391 L 22.36361841856962,6.921570928093123 " />
        <path style="fill:none;stroke:#50514F;stroke-width:0.1px;stroke-linecap:square" d="M 20.12215638620961,9.838124807170674 L 21.00420639102075,8.956074802359533 L 21.886256395831897,8.074024797548391 L 22.36361841856962,6.921570928093123 L 22.840980441307345,5.769117058637855 L 23.318342464045074,4.616663189182587 L 23.795704486782796,3.4642093197273183 L 23.795704486782796,2.216802240232146 " />
        <path style="fill:none;stroke:#50514F;stroke-width:0.1px;stroke-linecap:square" d="M 21.886256395831897,8.074024797548391 L 23.038710265287165,7.596662774810665 L 24.191164134742433,7.119300752072938 L 25.073214139553578,6.237250747261797 " />
        <path style="fill:none;stroke:#50514F;stroke-width:0.1px;stroke-linecap:square" d="M 14.539160194685525,20.821855772435104 L 15.01652221742325,19.669401902979835 L 15.493884240160973,18.516948033524567 L 15.971246262898699,17.3644941640693 L 16.448608285636425,16.21204029461403 L 16.925970308374147,15.059586425158761 L 17.403332331111873,13.907132555703493 L 17.8806943538496,12.754678686248225 L 18.35805637658732,11.602224816792956 L 18.35805637658732,10.354817737297784 L 18.35805637658732,9.107410657802612 L 18.35805637658732,7.86000357830744 L 18.35805637658732,6.612596498812268 L 18.35805637658732,5.365189419317096 L 18.35805637658732,4.1177823398219235 L 18.35805637658732,2.8703752603267514 L 18.35805637658732,1.6229681808315792 L 18.35805637658732,0.3755611013364072 L 18.35805637658732,-0.871845978158765 L 18.35805637658732,-2.1192530576539372 L 18.35805637658732,-3.3666601371491094 L 18.835418399325047,-4.519114006604378 L 19.312780422062772,-5.671567876059646 L 20.194830426873914,-6.553617880870787 L 21.07688043168506,-7.435667885681928 L 21.55424245442278,-8.588121755137196 " />
        <path style="fill:none;stroke:#50514F;stroke-width:0.1px;stroke-linecap:square" d="M 19.312780422062772,-5.671567876059646 L 19.790142444800495,-6.824021745514914 L 20.26750446753822,-7.976475614970183 L 20.26750446753822,-9.223882694465354 " />
        <path style="fill:none;stroke:#50514F;stroke-width:0.1px;stroke-linecap:square" d="M 19.312780422062772,-5.671567876059646 L 19.790142444800495,-6.824021745514914 L 20.26750446753822,-7.976475614970183 L 20.26750446753822,-9.223882694465354 L 20.26750446753822,-10.471289773960526 L 20.26750446753822,-11.718696853455699 L 20.26750446753822,-12.96610393295087 L 19.790142444800495,-14.118557802406139 " />
        <path style="fill:none;stroke:#50514F;stroke-width:0.1px;stroke-linecap:square" d="M 20.26750446753822,-7.976475614970183 L 21.149554472349365,-8.858525619781323 L 22.031604477160506,-9.740575624592465 L 22.508966499898236,-10.893029494047733 " />
        <path style="fill:none;stroke:#50514F;stroke-width:0.1px;stroke-linecap:square" d="M 18.35805637658732,-3.3666601371491094 L 18.35805637658732,-4.6140672166442815 L 18.35805637658732,-5.861474296139454 L 18.835418399325047,-7.013928165594722 L 19.312780422062772,-8.16638203504999 L 19.312780422062772,-9.413789114545162 " />
        <path style="fill:none;stroke:#50514F;stroke-width:0.1px;stroke-linecap:square" d="M 18.35805637658732,-5.861474296139454 L 18.35805637658732,-7.108881375634626 L 18.35805637658732,-8.356288455129798 L 17.8806943538496,-9.508742324585066 " />
        <path style="fill:none;stroke:#50514F;stroke-width:0.1px;stroke-linecap:square" d="M 18.35805637658732,-5.861474296139454 L 18.35805637658732,-7.108881375634626 L 18.35805637658732,-8.356288455129798 L 17.8806943538496,-9.508742324585066 L 17.403332331111873,-10.661196194040334 L 16.925970308374147,-11.813650063495603 L 16.448608285636425,-12.96610393295087 L 15.56655828082528,-13.848153937762012 " />
        <path style="fill:none;stroke:#50514F;stroke-width:0.1px;stroke-linecap:square" d="M 18.35805637658732,-8.356288455129798 L 18.835418399325047,-9.508742324585066 L 19.312780422062772,-10.661196194040334 L 19.312780422062772,-11.908603273535507 " />
        <path style="fill:none;stroke:#50514F;stroke-width:0.1px;stroke-linecap:square" d="M 18.35805637658732,-3.3666601371491094 L 18.35805637658732,-4.6140672166442815 L 18.35805637658732,-5.861474296139454 L 18.35805637658732,-7.108881375634626 L 18.35805637658732,-8.356288455129798 L 17.8806943538496,-9.508742324585066 L 17.403332331111873,-10.661196194040334 L 16.925970308374147,-11.813650063495603 L 16.448608285636425,-12.96610393295087 L 15.971246262898699,-14.118557802406139 L 15.493884240160973,-15.271011671861407 L 15.493884240160973,-16.51841875135658 L 15.493884240160973,-17.765825830851753 L 15.01652221742325,-18.91827970030702 " />
        <path style="fill:none;stroke:#50514F;stroke-width:0.1px;stroke-linecap:square" d="M 15.493884240160973,-15.271011671861407 L 15.01652221742325,-16.423465541316677 L 14.539160194685525,-17.575919410771945 L 13.65711018987438,-18.457969415583086 " />
        <path style="fill:none;stroke:#50514F;stroke-width:0.1px;stroke-linecap:square" d="M 15.493884240160973,-15.271011671861407 L 15.01652221742325,-16.423465541316677 L 14.539160194685525,-17.575919410771945 L 13.65711018987438,-18.457969415583086 L 12.775060185063237,-19.340019420394228 L 11.893010180252096,-20.22206942520537 L 11.010960175440953,-21.10411943001651 L 9.858506305985683,-21.581481452754236 " />
        <path style="fill:none;stroke:#50514F;stroke-width:0.1px;stroke-linecap:square" d="M 14.539160194685525,-17.575919410771945 L 14.539160194685525,-18.823326490267117 L 14.539160194685525,-20.07073356976229 L 14.0617981719478,-21.223187439217558 " />
        <path style="fill:none;stroke:#50514F;stroke-width:0.1px;stroke-linecap:square" d="M 18.35805637658732,-8.356288455129798 L 18.835418399325047,-9.508742324585066 L 19.312780422062772,-10.661196194040334 L 20.194830426873914,-11.543246198851476 L 21.07688043168506,-12.425296203662617 L 21.55424245442278,-13.577750073117885 " />
        <path style="fill:none;stroke:#50514F;stroke-width:0.1px;stroke-linecap:square" d="M 19.312780422062772,-10.661196194040334 L 19.790142444800495,-11.813650063495603 L 20.26750446753822,-12.96610393295087 L 20.26750446753822,-14.213511012446043 " />
        <path style="fill:none;stroke:#50514F;stroke-width:0.1px;stroke-linecap:square" d="M 19.312780422062772,-10.661196194040334 L 19.790142444800495,-11.813650063495603 L 20.26750446753822,-12.96610393295087 L 20.26750446753822,-14.213511012446043 L 20.26750446753822,-15.460918091941215 L 20.26750446753822,-16.70832517143639 L 20.26750446753822,-17.95573225093156 L 19.790142444800495,-19.10818612038683 " />
        <path style="fill:none;stroke:#50514F;stroke-width:0.1px;stroke-linecap:square" d="M 20.26750446753822,-12.96610393295087 L 21.149554472349365,-13.848153937762012 L 22.031604477160506,-14.730203942573153 L 22.508966499898236,-15.882657812028421 " />
        <path style="fill:none;stroke:#50514F;stroke-width:0.1px;stroke-linecap:square" d="M 18.35805637658732,11.602224816792956 L 19.240106381398466,10.720174811981815 L 20.12215638620961,9.838124807170674 L 21.00420639102075,8.956074802359533 L 21.886256395831897,8.074024797548391 L 23.038710265287165,7.596662774810665 L 24.191164134742433,7.119300752072938 L 25.438571214237605,7.119300752072938 L 26.685978293732777,7.119300752072938 L 27.838432163188045,6.641938729335211 " />
        <path style="fill:none;stroke:#50514F;stroke-width:0.1px;stroke-linecap:square" d="M 24.191164134742433,7.119300752072938 L 25.3436180041977,6.641938729335211 L 26.49607187365297,6.164576706597484 L 27.378121878464114,5.282526701786343 " />
        <path style="fill:none;stroke:#50514F;stroke-width:0.1px;stroke-linecap:square" d="M 24.191164134742433,7.119300752072938 L 25.3436180041977,6.641938729335211 L 26.49607187365297,6.164576706597484 L 27.378121878464114,5.282526701786343 L 28.260171883275255,4.400476696975201 L 29.142221888086397,3.51842669216406 L 30.02427189289754,2.636376687352919 L 30.501633915635267,1.4839228178976507 " />
        <path style="fill:none;stroke:#50514F;stroke-width:0.1px;stroke-linecap:square" d="M 26.49607187365297,6.164576706597484 L 27.74347895314814,6.164576706597484 L 28.990886032643314,6.164576706597484 L 30.14333990209858,5.687214683859757 " />
        <path style="fill:none;stroke:#50514F;stroke-width:0.1px;stroke-linecap:square" d="M 21.886256395831897,8.074024797548391 L 22.76830640064304,7.19197479273725 L 23.650356405454183,6.309924787926109 L 24.80281027490945,5.832562765188382 L 25.95526414436472,5.355200742450656 L 26.83731414917586,4.473150737639514 " />
        <path style="fill:none;stroke:#50514F;stroke-width:0.1px;stroke-linecap:square" d="M 23.650356405454183,6.309924787926109 L 24.532406410265324,5.427874783114968 L 25.41445641507647,4.545824778303826 L 25.89181843781419,3.393370908848558 " />
        <path style="fill:none;stroke:#50514F;stroke-width:0.1px;stroke-linecap:square" d="M 23.650356405454183,6.309924787926109 L 24.532406410265324,5.427874783114968 L 25.41445641507647,4.545824778303826 L 25.89181843781419,3.393370908848558 L 26.36918046055192,2.24091703939329 L 26.846542483289646,1.0884631699380216 L 27.323904506027368,-6.399069951724669e-2 L 27.323904506027368,-1.311397779012419 " />
        <path style="fill:none;stroke:#50514F;stroke-width:0.1px;stroke-linecap:square" d="M 25.41445641507647,4.545824778303826 L 26.566910284531737,4.0684627555661 L 27.719364153987005,3.5911007328283726 L 28.601414158798153,2.7090507280172313 " />
        <path style="fill:none;stroke:#50514F;stroke-width:0.1px;stroke-linecap:square" d="M 21.886256395831897,8.074024797548391 L 22.76830640064304,7.19197479273725 L 23.650356405454183,6.309924787926109 L 24.532406410265324,5.427874783114968 L 25.41445641507647,4.545824778303826 L 25.89181843781419,3.393370908848558 L 26.36918046055192,2.24091703939329 L 26.846542483289646,1.0884631699380216 L 27.323904506027368,-6.399069951724669e-2 L 27.80126652876509,-1.216444568972515 L 28.278628551502816,-2.368898438427783 L 29.160678556313957,-3.2509484432389244 L 30.042728561125106,-4.132998448050066 L 30.520090583862828,-5.285452317505334 " />
        <path style="fill:none;stroke:#50514F;stroke-width:0.1px;stroke-linecap:square" d="M 28.278628551502816,-2.368898438427783 L 28.755990574240545,-3.5213523078830518 L 29.233352596978268,-4.67380617733832 L 29.233352596978268,-5.921213256833492 " />
        <path style="fill:none;stroke:#50514F;stroke-width:0.1px;stroke-linecap:square" d="M 28.278628551502816,-2.368898438427783 L 28.755990574240545,-3.5213523078830518 L 29.233352596978268,-4.67380617733832 L 29.233352596978268,-5.921213256833492 L 29.233352596978268,-7.168620336328664 L 29.233352596978268,-8.416027415823837 L 29.233352596978268,-9.66343449531901 L 28.755990574240545,-10.815888364774278 " />
        <path style="fill:none;stroke:#50514F;stroke-width:0.1px;stroke-linecap:square" d="M 29.233352596978268,-4.67380617733832 L 30.115402601789413,-5.555856182149461 L 30.997452606600554,-6.4379061869606025 L 31.47481462933828,-7.590360056415871 " />
        <path style="fill:none;stroke:#50514F;stroke-width:0.1px;stroke-linecap:square" d="M 25.41445641507647,4.545824778303826 L 26.566910284531737,4.0684627555661 L 27.719364153987005,3.5911007328283726 L 28.966771233482177,3.5911007328283726 L 30.21417831297735,3.5911007328283726 L 31.366632182432618,3.113738710090646 " />
        <path style="fill:none;stroke:#50514F;stroke-width:0.1px;stroke-linecap:square" d="M 27.719364153987005,3.5911007328283726 L 28.871818023442273,3.113738710090646 L 30.02427189289754,2.636376687352919 L 30.906321897708683,1.7543266825417778 " />
        <path style="fill:none;stroke:#50514F;stroke-width:0.1px;stroke-linecap:square" d="M 27.719364153987005,3.5911007328283726 L 28.871818023442273,3.113738710090646 L 30.02427189289754,2.636376687352919 L 30.906321897708683,1.7543266825417778 L 31.788371902519824,0.8722766777306364 L 32.67042190733097,-9.77332708050476e-3 L 33.55247191214211,-0.891823331891646 L 34.02983393487983,-2.0442772013469144 " />
        <path style="fill:none;stroke:#50514F;stroke-width:0.1px;stroke-linecap:square" d="M 30.02427189289754,2.636376687352919 L 31.271678972392714,2.636376687352919 L 32.51908605188789,2.636376687352919 L 33.671539921343154,2.159014664615192 " />
        <path style="fill:none;stroke:#50514F;stroke-width:0.1px;stroke-linecap:square" d="M 10.720264012783725,30.04148672807725 L 10.720264012783725,28.794079648582077 L 10.720264012783725,27.546672569086905 L 10.720264012783725,26.299265489591733 L 10.720264012783725,25.05185841009656 L 10.720264012783725,23.80445133060139 L 10.720264012783725,22.557044251106216 L 10.720264012783725,21.309637171611044 L 10.720264012783725,20.062230092115872 L 11.19762603552145,18.909776222660604 L 11.674988058259174,17.757322353205335 L 12.152350080996898,16.604868483750067 L 12.629712103734624,15.4524146142948 L 13.511762108545767,14.570364609483658 L 14.39381211335691,13.688314604672517 L 15.546265982812182,13.210952581934789 L 16.69871985226745,12.733590559197063 L 17.580769857078593,11.851540554385922 " />
        <path style="fill:none;stroke:#50514F;stroke-width:0.1px;stroke-linecap:square" d="M 14.39381211335691,13.688314604672517 L 15.275862118168053,12.806264599861375 L 16.157912122979198,11.924214595050234 L 16.635274145716924,10.771760725594966 " />
        <path style="fill:none;stroke:#50514F;stroke-width:0.1px;stroke-linecap:square" d="M 14.39381211335691,13.688314604672517 L 15.275862118168053,12.806264599861375 L 16.157912122979198,11.924214595050234 L 16.635274145716924,10.771760725594966 L 17.112636168454646,9.619306856139698 L 17.58999819119237,8.46685298668443 L 18.067360213930098,7.3143991172291605 L 18.067360213930098,6.066992037733988 " />
        <path style="fill:none;stroke:#50514F;stroke-width:0.1px;stroke-linecap:square" d="M 16.157912122979198,11.924214595050234 L 17.31036599243447,11.446852572312507 L 18.462819861889738,10.96949054957478 L 19.34486986670088,10.08744054476364 " />
        <path style="fill:none;stroke:#50514F;stroke-width:0.1px;stroke-linecap:square" d="M 12.629712103734624,15.4524146142948 L 13.107074126472348,14.299960744839531 L 13.584436149210076,13.147506875384263 L 14.466486154021217,12.265456870573122 L 15.348536158832362,11.38340686576198 L 15.825898181570084,10.230952996306712 " />
        <path style="fill:none;stroke:#50514F;stroke-width:0.1px;stroke-linecap:square" d="M 13.584436149210076,13.147506875384263 L 14.0617981719478,11.995053005928995 L 14.539160194685525,10.842599136473726 L 14.539160194685525,9.595192056978554 " />
        <path style="fill:none;stroke:#50514F;stroke-width:0.1px;stroke-linecap:square" d="M 13.584436149210076,13.147506875384263 L 14.0617981719478,11.995053005928995 L 14.539160194685525,10.842599136473726 L 14.539160194685525,9.595192056978554 L 14.539160194685525,8.347784977483382 L 14.539160194685525,7.100377897988209 L 14.539160194685525,5.852970818493037 L 14.0617981719478,4.700516949037769 " />
        <path style="fill:none;stroke:#50514F;stroke-width:0.1px;stroke-linecap:square" d="M 14.539160194685525,10.842599136473726 L 15.421210199496668,9.960549131662585 L 16.30326020430781,9.078499126851444 L 16.780622227045537,7.926045257396175 " />
        <path style="fill:none;stroke:#50514F;stroke-width:0.1px;stroke-linecap:square" d="M 12.629712103734624,15.4524146142948 L 13.107074126472348,14.299960744839531 L 13.584436149210076,13.147506875384263 L 14.0617981719478,11.995053005928995 L 14.539160194685525,10.842599136473726 L 14.539160194685525,9.595192056978554 L 14.539160194685525,8.347784977483382 L 14.539160194685525,7.100377897988209 L 14.539160194685525,5.852970818493037 L 14.539160194685525,4.605563738997865 L 14.539160194685525,3.358156659502693 L 15.016522217423251,2.2057027900474244 L 15.493884240160977,1.0532489205921562 L 15.493884240160977,-0.19415815890301588 " />
        <path style="fill:none;stroke:#50514F;stroke-width:0.1px;stroke-linecap:square" d="M 14.539160194685525,3.358156659502693 L 14.539160194685525,2.110749580007521 L 14.539160194685525,0.8633425005123486 L 14.0617981719478,-0.2891113689429197 " />
        <path style="fill:none;stroke:#50514F;stroke-width:0.1px;stroke-linecap:square" d="M 14.539160194685525,3.358156659502693 L 14.539160194685525,2.110749580007521 L 14.539160194685525,0.8633425005123486 L 14.0617981719478,-0.2891113689429197 L 13.584436149210076,-1.441565238398188 L 13.10707412647235,-2.5940191078534562 L 12.629712103734626,-3.746472977308725 L 11.747662098923485,-4.628522982119866 " />
        <path style="fill:none;stroke:#50514F;stroke-width:0.1px;stroke-linecap:square" d="M 14.539160194685525,0.8633425005123486 L 15.016522217423251,-0.2891113689429197 L 15.493884240160977,-1.441565238398188 L 15.493884240160977,-2.68897231789336 " />
        <path style="fill:none;stroke:#50514F;stroke-width:0.1px;stroke-linecap:square" d="M 14.539160194685525,10.842599136473726 L 15.421210199496668,9.960549131662585 L 16.30326020430781,9.078499126851444 L 17.45571407376308,8.601137104113716 L 18.60816794321835,8.123775081375989 L 19.490217948029493,7.241725076564848 " />
        <path style="fill:none;stroke:#50514F;stroke-width:0.1px;stroke-linecap:square" d="M 16.30326020430781,9.078499126851444 L 17.185310209118956,8.196449122040303 L 18.067360213930098,7.3143991172291605 L 18.544722236667823,6.161945247773892 " />
        <path style="fill:none;stroke:#50514F;stroke-width:0.1px;stroke-linecap:square" d="M 16.30326020430781,9.078499126851444 L 17.185310209118956,8.196449122040303 L 18.067360213930098,7.3143991172291605 L 18.544722236667823,6.161945247773892 L 19.02208425940555,5.009491378318624 L 19.49944628214327,3.857037508863356 L 19.976808304880997,2.7045836394080878 L 19.976808304880997,1.4571765599129154 " />
        <path style="fill:none;stroke:#50514F;stroke-width:0.1px;stroke-linecap:square" d="M 18.067360213930098,7.3143991172291605 L 19.219814083385366,6.837037094491434 L 20.37226795284064,6.359675071753707 L 21.254317957651782,5.477625066942566 " />
        <path style="fill:none;stroke:#50514F;stroke-width:0.1px;stroke-linecap:square" d="M 10.720264012783725,20.062230092115872 L 10.720264012783725,18.8148230126207 L 10.720264012783725,17.567415933125528 L 10.720264012783725,16.320008853630355 L 10.720264012783725,15.072601774135183 L 11.19762603552145,13.920147904679915 L 11.674988058259174,12.767694035224647 L 12.557038063070317,11.885644030413506 L 13.43908806788146,11.003594025602364 L 13.916450090619186,9.851140156147096 " />
        <path style="fill:none;stroke:#50514F;stroke-width:0.1px;stroke-linecap:square" d="M 11.674988058259174,12.767694035224647 L 12.152350080996898,11.615240165769379 L 12.629712103734626,10.46278629631411 L 12.629712103734626,9.215379216818938 " />
        <path style="fill:none;stroke:#50514F;stroke-width:0.1px;stroke-linecap:square" d="M 11.674988058259174,12.767694035224647 L 12.152350080996898,11.615240165769379 L 12.629712103734626,10.46278629631411 L 12.629712103734626,9.215379216818938 L 12.629712103734626,7.967972137323766 L 12.629712103734626,6.720565057828594 L 12.629712103734626,5.473157978333422 L 12.152350080996898,4.320704108878154 " />
        <path style="fill:none;stroke:#50514F;stroke-width:0.1px;stroke-linecap:square" d="M 12.629712103734626,10.46278629631411 L 13.511762108545767,9.58073629150297 L 14.393812113356912,8.698686286691828 L 14.871174136094638,7.54623241723656 " />
        <path style="fill:none;stroke:#50514F;stroke-width:0.1px;stroke-linecap:square" d="M 10.720264012783725,15.072601774135183 L 10.720264012783725,13.825194694640011 L 10.720264012783725,12.577787615144839 L 11.19762603552145,11.42533374568957 L 11.674988058259174,10.272879876234303 L 11.674988058259174,9.02547279673913 " />
        <path style="fill:none;stroke:#50514F;stroke-width:0.1px;stroke-linecap:square" d="M 10.720264012783725,12.577787615144839 L 10.720264012783725,11.330380535649667 L 10.720264012783725,10.082973456154495 L 10.242901990046,8.930519586699226 " />
        <path style="fill:none;stroke:#50514F;stroke-width:0.1px;stroke-linecap:square" d="M 10.720264012783725,12.577787615144839 L 10.720264012783725,11.330380535649667 L 10.720264012783725,10.082973456154495 L 10.242901990046,8.930519586699226 L 9.765539967308275,7.778065717243958 L 9.28817794457055,6.62561184778869 L 8.810815921832827,5.473157978333422 L 7.928765917021683,4.591107973522281 " />
        <path style="fill:none;stroke:#50514F;stroke-width:0.1px;stroke-linecap:square" d="M 10.720264012783725,10.082973456154495 L 11.19762603552145,8.930519586699226 L 11.674988058259174,7.778065717243958 L 11.674988058259174,6.530658637748786 " />
        <path style="fill:none;stroke:#50514F;stroke-width:0.1px;stroke-linecap:square" d="M 10.720264012783725,15.072601774135183 L 10.720264012783725,13.825194694640011 L 10.720264012783725,12.577787615144839 L 10.720264012783725,11.330380535649667 L 10.720264012783725,10.082973456154495 L 10.242901990046,8.930519586699226 L 9.765539967308275,7.778065717243958 L 9.28817794457055,6.62561184778869 L 8.810815921832827,5.473157978333422 L 8.333453899095101,4.320704108878154 L 7.856091876357377,3.168250239422885 L 7.856091876357377,1.9208431599277132 L 7.856091876357377,0.6734360804325409 L 7.378729853619652,-0.4790177890227274 " />
        <path style="fill:none;stroke:#50514F;stroke-width:0.1px;stroke-linecap:square" d="M 7.856091876357377,3.168250239422885 L 7.378729853619652,2.015796369967617 L 6.901367830881927,0.8633425005123486 L 6.019317826070784,-1.8707504298792657e-2 " />
        <path style="fill:none;stroke:#50514F;stroke-width:0.1px;stroke-linecap:square" d="M 7.856091876357377,3.168250239422885 L 7.378729853619652,2.015796369967617 L 6.901367830881927,0.8633425005123486 L 6.019317826070784,-1.8707504298792657e-2 L 5.13726782125964,-0.9007575091099339 L 4.255217816448497,-1.782807513921075 L 3.373167811637354,-2.6648575187322163 L 2.2207139421820843,-3.1422195414699434 " />
        <path style="fill:none;stroke:#50514F;stroke-width:0.1px;stroke-linecap:square" d="M 6.901367830881927,0.8633425005123486 L 6.901367830881927,-0.38406457898282353 L 6.901367830881927,-1.6314716584779958 L 6.424005808144202,-2.783925527933264 " />
        <path style="fill:none;stroke:#50514F;stroke-width:0.1px;stroke-linecap:square" d="M 10.720264012783725,10.082973456154495 L 11.19762603552145,8.930519586699226 L 11.674988058259174,7.778065717243958 L 12.557038063070317,6.896015712432817 L 13.43908806788146,6.013965707621676 L 13.916450090619186,4.8615118381664075 " />
        <path style="fill:none;stroke:#50514F;stroke-width:0.1px;stroke-linecap:square" d="M 11.674988058259174,7.778065717243958 L 12.152350080996898,6.62561184778869 L 12.629712103734626,5.473157978333422 L 12.629712103734626,4.22575089883825 " />
        <path style="fill:none;stroke:#50514F;stroke-width:0.1px;stroke-linecap:square" d="M 11.674988058259174,7.778065717243958 L 12.152350080996898,6.62561184778869 L 12.629712103734626,5.473157978333422 L 12.629712103734626,4.22575089883825 L 12.629712103734626,2.9783438193430776 L 12.629712103734626,1.7309367398479054 L 12.629712103734626,0.4835296603527332 L 12.152350080996902,-0.6689242091025351 " />
        <path style="fill:none;stroke:#50514F;stroke-width:0.1px;stroke-linecap:square" d="M 12.629712103734626,5.473157978333422 L 13.511762108545767,4.591107973522281 L 14.393812113356912,3.7090579687111394 L 14.871174136094638,2.556604099255871 " />
        <path style="fill:none;stroke:#50514F;stroke-width:0.1px;stroke-linecap:square" d="M 10.720264012783725,20.062230092115872 L 10.720264012783725,18.8148230126207 L 10.720264012783725,17.567415933125528 L 10.720264012783725,16.320008853630355 L 10.720264012783725,15.072601774135183 L 10.720264012783725,13.825194694640011 L 10.720264012783725,12.577787615144839 L 10.720264012783725,11.330380535649667 L 10.720264012783725,10.082973456154495 L 10.242901990046,8.930519586699226 L 9.765539967308275,7.778065717243958 L 9.28817794457055,6.62561184778869 L 8.810815921832827,5.473157978333422 L 8.333453899095101,4.320704108878154 L 7.856091876357377,3.168250239422885 L 7.378729853619652,2.015796369967617 L 6.901367830881927,0.8633425005123486 L 6.424005808144202,-0.2891113689429197 L 5.946643785406478,-1.441565238398188 L 5.469281762668753,-2.5940191078534562 L 4.991919739931028,-3.746472977308725 L 4.991919739931028,-4.993880056803897 L 4.991919739931028,-6.241287136299069 L 5.469281762668753,-7.393741005754337 L 5.946643785406478,-8.546194875209606 L 5.946643785406478,-9.793601954704778 " />
        <path style="fill:none;stroke:#50514F;stroke-width:0.1px;stroke-linecap:square" d="M 4.991919739931028,-6.241287136299069 L 4.991919739931028,-7.488694215794241 L 4.991919739931028,-8.736101295289414 L 4.514557717193303,-9.888555164744682 " />
        <path style="fill:none;stroke:#50514F;stroke-width:0.1px;stroke-linecap:square" d="M 4.991919739931028,-6.241287136299069 L 4.991919739931028,-7.488694215794241 L 4.991919739931028,-8.736101295289414 L 4.514557717193303,-9.888555164744682 L 4.037195694455578,-11.04100903419995 L 3.5598336717178536,-12.193462903655218 L 3.082471648980129,-13.345916773110487 L 2.2004216441689866,-14.227966777921628 " />
        <path style="fill:none;stroke:#50514F;stroke-width:0.1px;stroke-linecap:square" d="M 4.991919739931028,-8.736101295289414 L 5.469281762668753,-9.888555164744682 L 5.946643785406478,-11.04100903419995 L 5.946643785406478,-12.288416113695122 " />
        <path style="fill:none;stroke:#50514F;stroke-width:0.1px;stroke-linecap:square" d="M 4.991919739931028,-3.746472977308725 L 4.514557717193303,-4.898926846763993 L 4.037195694455578,-6.051380716219262 L 4.037195694455578,-7.298787795714434 L 4.037195694455578,-8.546194875209606 L 3.5598336717178536,-9.698648744664874 " />
        <path style="fill:none;stroke:#50514F;stroke-width:0.1px;stroke-linecap:square" d="M 4.037195694455578,-6.051380716219262 L 3.5598336717178536,-7.20383458567453 L 3.082471648980129,-8.356288455129798 L 2.2004216441689866,-9.23833845994094 " />
        <path style="fill:none;stroke:#50514F;stroke-width:0.1px;stroke-linecap:square" d="M 4.037195694455578,-6.051380716219262 L 3.5598336717178536,-7.20383458567453 L 3.082471648980129,-8.356288455129798 L 2.2004216441689866,-9.23833845994094 L 1.318371639357843,-10.12038846475208 L 0.4363216345466997,-11.002438469563222 L -0.4457283702644438,-11.884488474374363 L -1.598182239719712,-12.36185049711209 " />
        <path style="fill:none;stroke:#50514F;stroke-width:0.1px;stroke-linecap:square" d="M 3.082471648980129,-8.356288455129798 L 3.082471648980129,-9.60369553462497 L 3.082471648980129,-10.851102614120142 L 2.6051096262424043,-12.00355648357541 " />
        <path style="fill:none;stroke:#50514F;stroke-width:0.1px;stroke-linecap:square" d="M 4.991919739931028,-3.746472977308725 L 4.514557717193303,-4.898926846763993 L 4.037195694455578,-6.051380716219262 L 3.5598336717178536,-7.20383458567453 L 3.082471648980129,-8.356288455129798 L 2.2004216441689866,-9.23833845994094 L 1.318371639357843,-10.12038846475208 L 0.4363216345466997,-11.002438469563222 L -0.4457283702644438,-11.884488474374363 L -1.3277783750755872,-12.766538479185504 L -2.209828379886731,-13.648588483996646 L -2.6871904026244553,-14.801042353451914 L -3.16455242536218,-15.953496222907182 L -4.046602430173324,-16.835546227718325 " />
        <path style="fill:none;stroke:#50514F;stroke-width:0.1px;stroke-linecap:square" d="M -2.209828379886731,-13.648588483996646 L -3.0918783846978743,-14.530638488807787 L -3.973928389509018,-15.412688493618928 L -5.126382258964286,-15.890050516356656 " />
        <path style="fill:none;stroke:#50514F;stroke-width:0.1px;stroke-linecap:square" d="M -2.209828379886731,-13.648588483996646 L -3.0918783846978743,-14.530638488807787 L -3.973928389509018,-15.412688493618928 L -5.126382258964286,-15.890050516356656 L -6.278836128419554,-16.36741253909438 L -7.431289997874822,-16.844774561832107 L -8.58374386733009,-17.322136584569837 L -9.831150946825261,-17.322136584569837 " />
        <path style="fill:none;stroke:#50514F;stroke-width:0.1px;stroke-linecap:square" d="M -3.973928389509018,-15.412688493618928 L -4.451290412246743,-16.565142363074195 L -4.928652434984467,-17.717596232529466 L -5.810702439795611,-18.599646237340608 " />
        <path style="fill:none;stroke:#50514F;stroke-width:0.1px;stroke-linecap:square" d="M 3.082471648980129,-8.356288455129798 L 3.082471648980129,-9.60369553462497 L 3.082471648980129,-10.851102614120142 L 3.5598336717178536,-12.00355648357541 L 4.037195694455578,-13.156010353030679 L 4.037195694455578,-14.40341743252585 " />
        <path style="fill:none;stroke:#50514F;stroke-width:0.1px;stroke-linecap:square" d="M 3.082471648980129,-10.851102614120142 L 3.082471648980129,-12.098509693615314 L 3.082471648980129,-13.345916773110487 L 2.6051096262424043,-14.498370642565755 " />
        <path style="fill:none;stroke:#50514F;stroke-width:0.1px;stroke-linecap:square" d="M 3.082471648980129,-10.851102614120142 L 3.082471648980129,-12.098509693615314 L 3.082471648980129,-13.345916773110487 L 2.6051096262424043,-14.498370642565755 L 2.1277476035046794,-15.650824512021023 L 1.650385580766955,-16.803278381476293 L 1.1730235580292303,-17.95573225093156 L 0.2909735532180879,-18.837782255742702 " />
        <path style="fill:none;stroke:#50514F;stroke-width:0.1px;stroke-linecap:square" d="M 3.082471648980129,-13.345916773110487 L 3.5598336717178536,-14.498370642565755 L 4.037195694455578,-15.650824512021023 L 4.037195694455578,-16.898231591516197 " />
        <path style="fill:none;stroke:#50514F;stroke-width:0.1px;stroke-linecap:square" d="M 10.720264012783725,10.082973456154495 L 11.19762603552145,8.930519586699226 L 11.674988058259174,7.778065717243958 L 12.152350080996898,6.62561184778869 L 12.629712103734626,5.473157978333422 L 13.511762108545767,4.591107973522281 L 14.393812113356912,3.7090579687111394 L 15.546265982812182,3.2316959459734123 L 16.69871985226745,2.7543339232356856 L 17.580769857078597,1.8722839184245443 " />
        <path style="fill:none;stroke:#50514F;stroke-width:0.1px;stroke-linecap:square" d="M 14.393812113356912,3.7090579687111394 L 15.275862118168053,2.827007963899998 L 16.157912122979198,1.9449579590888568 L 16.635274145716924,0.7925040896335885 " />
        <path style="fill:none;stroke:#50514F;stroke-width:0.1px;stroke-linecap:square" d="M 14.393812113356912,3.7090579687111394 L 15.275862118168053,2.827007963899998 L 16.157912122979198,1.9449579590888568 L 16.635274145716924,0.7925040896335885 L 17.11263616845465,-0.3599497798216798 L 17.58999819119237,-1.5124036492769481 L 18.067360213930098,-2.6648575187322163 L 18.067360213930098,-3.9122645982273885 " />
        <path style="fill:none;stroke:#50514F;stroke-width:0.1px;stroke-linecap:square" d="M 16.157912122979198,1.9449579590888568 L 17.31036599243447,1.46759593635113 L 18.462819861889738,0.9902339136134031 L 19.344869866700883,0.10818390880226181 " />
        <path style="fill:none;stroke:#50514F;stroke-width:0.1px;stroke-linecap:square" d="M 12.629712103734626,5.473157978333422 L 13.10707412647235,4.320704108878154 L 13.584436149210076,3.168250239422885 L 14.466486154021219,2.286200234611744 L 15.348536158832362,1.4041502298006028 L 15.825898181570087,0.2516963603453344 " />
        <path style="fill:none;stroke:#50514F;stroke-width:0.1px;stroke-linecap:square" d="M 13.584436149210076,3.168250239422885 L 14.0617981719478,2.015796369967617 L 14.539160194685525,0.8633425005123486 L 14.539160194685525,-0.38406457898282353 " />
        <path style="fill:none;stroke:#50514F;stroke-width:0.1px;stroke-linecap:square" d="M 13.584436149210076,3.168250239422885 L 14.0617981719478,2.015796369967617 L 14.539160194685525,0.8633425005123486 L 14.539160194685525,-0.38406457898282353 L 14.539160194685525,-1.6314716584779958 L 14.539160194685525,-2.8788787379731677 L 14.539160194685525,-4.12628581746834 L 14.061798171947801,-5.2787396869236085 " />
        <path style="fill:none;stroke:#50514F;stroke-width:0.1px;stroke-linecap:square" d="M 14.539160194685525,0.8633425005123486 L 15.42121019949667,-1.8707504298792657e-2 L 16.30326020430781,-0.9007575091099339 L 16.780622227045537,-2.0532113785652024 " />
        <path style="fill:none;stroke:#50514F;stroke-width:0.1px;stroke-linecap:square" d="M 12.629712103734626,5.473157978333422 L 13.10707412647235,4.320704108878154 L 13.584436149210076,3.168250239422885 L 14.0617981719478,2.015796369967617 L 14.539160194685525,0.8633425005123486 L 14.539160194685525,-0.38406457898282353 L 14.539160194685525,-1.6314716584779958 L 14.539160194685525,-2.8788787379731677 L 14.539160194685525,-4.12628581746834 L 14.539160194685525,-5.3736928969635125 L 14.539160194685525,-6.621099976458685 L 15.016522217423251,-7.773553845913953 L 15.493884240160977,-8.92600771536922 L 15.493884240160977,-10.173414794864392 " />
        <path style="fill:none;stroke:#50514F;stroke-width:0.1px;stroke-linecap:square" d="M 14.539160194685525,-6.621099976458685 L 14.539160194685525,-7.868507055953857 L 14.539160194685525,-9.115914135449028 L 14.061798171947801,-10.268368004904296 " />
        <path style="fill:none;stroke:#50514F;stroke-width:0.1px;stroke-linecap:square" d="M 14.539160194685525,-6.621099976458685 L 14.539160194685525,-7.868507055953857 L 14.539160194685525,-9.115914135449028 L 14.061798171947801,-10.268368004904296 L 13.584436149210076,-11.420821874359564 L 13.107074126472353,-12.573275743814834 L 12.629712103734626,-13.725729613270103 L 11.747662098923485,-14.607779618081244 " />
        <path style="fill:none;stroke:#50514F;stroke-width:0.1px;stroke-linecap:square" d="M 14.539160194685525,-9.115914135449028 L 15.016522217423251,-10.268368004904296 L 15.493884240160977,-11.420821874359564 L 15.493884240160977,-12.668228953854737 " />
        <path style="fill:none;stroke:#50514F;stroke-width:0.1px;stroke-linecap:square" d="M 14.539160194685525,0.8633425005123486 L 15.42121019949667,-1.8707504298792657e-2 L 16.30326020430781,-0.9007575091099339 L 17.455714073763083,-1.378119531847661 L 18.60816794321835,-1.8554815545853878 L 19.490217948029493,-2.737531559396529 " />
        <path style="fill:none;stroke:#50514F;stroke-width:0.1px;stroke-linecap:square" d="M 16.30326020430781,-0.9007575091099339 L 17.185310209118956,-1.782807513921075 L 18.067360213930098,-2.6648575187322163 L 18.544722236667827,-3.8173113881874845 " />
        <path style="fill:none;stroke:#50514F;stroke-width:0.1px;stroke-linecap:square" d="M 16.30326020430781,-0.9007575091099339 L 17.185310209118956,-1.782807513921075 L 18.067360213930098,-2.6648575187322163 L 18.544722236667827,-3.8173113881874845 L 19.02208425940555,-4.969765257642753 L 19.499446282143275,-6.122219127098021 L 19.976808304880997,-7.2746729965532895 L 19.976808304880997,-8.522080076048463 " />
        <path style="fill:none;stroke:#50514F;stroke-width:0.1px;stroke-linecap:square" d="M 18.067360213930098,-2.6648575187322163 L 19.21981408338537,-3.1422195414699434 L 20.37226795284064,-3.61958156420767 L 21.254317957651782,-4.501631569018811 " />
        <path style="fill:none;stroke:#50514F;stroke-width:0.1px;stroke-linecap:square" d="M 10.720264012783725,30.04148672807725 L 10.720264012783725,28.794079648582077 L 10.720264012783725,27.546672569086905 L 10.720264012783725,26.299265489591733 L 10.720264012783725,25.05185841009656 L 10.720264012783725,23.80445133060139 L 10.720264012783725,22.557044251106216 L 10.720264012783725,21.309637171611044 L 10.720264012783725,20.062230092115872 L 10.720264012783725,18.8148230126207 L 10.720264012783725,17.567415933125528 L 10.720264012783725,16.320008853630355 L 10.720264012783725,15.072601774135183 L 10.720264012783725,13.825194694640011 L 10.720264012783725,12.577787615144839 L 10.720264012783725,11.330380535649667 L 10.720264012783725,10.082973456154495 L 10.242901990046,8.930519586699226 L 9.765539967308275,7.778065717243958 L 9.28817794457055,6.62561184778869 L 8.810815921832827,5.473157978333422 L 8.333453899095101,4.320704108878154 L 7.856091876357377,3.168250239422885 L 7.378729853619652,2.015796369967617 L 6.901367830881927,0.8633425005123486 L 6.424005808144202,-0.2891113689429197 L 5.946643785406478,-1.441565238398188 L 5.469281762668753,-2.5940191078534562 L 4.991919739931028,-3.746472977308725 L 4.514557717193303,-4.898926846763993 L 4.037195694455578,-6.051380716219262 L 3.5598336717178536,-7.20383458567453 L 3.082471648980129,-8.356288455129798 L 2.6051096262424043,-9.508742324585066 L 2.1277476035046794,-10.661196194040334 L 1.650385580766955,-11.813650063495603 L 1.1730235580292303,-12.96610393295087 L 0.6956615352915044,-14.118557802406139 L 0.21829951255377977,-15.271011671861407 L -0.2590625101839449,-16.423465541316677 L -0.7364245329216695,-17.575919410771945 L -0.7364245329216695,-18.823326490267117 L -0.7364245329216695,-20.07073356976229 L -0.7364245329216695,-21.31814064925746 L -0.7364245329216695,-22.565547728752634 L -0.2590625101839449,-23.718001598207902 L 0.21829951255377977,-24.87045546766317 L 1.1003495173649231,-25.75250547247431 L 1.9823995221760666,-26.634555477285453 L 2.4597615449137913,-27.78700934674072 " />
        <path style="fill:none;stroke:#50514F;stroke-width:0.1px;stroke-linecap:square" d="M 0.21829951255377977,-24.87045546766317 L 0.6956615352915044,-26.02290933711844 L 1.1730235580292292,-27.175363206573707 L 1.1730235580292292,-28.42277028606888 " />
        <path style="fill:none;stroke:#50514F;stroke-width:0.1px;stroke-linecap:square" d="M 0.21829951255377977,-24.87045546766317 L 0.6956615352915044,-26.02290933711844 L 1.1730235580292292,-27.175363206573707 L 1.1730235580292292,-28.42277028606888 L 1.1730235580292292,-29.67017736556405 L 1.1730235580292292,-30.917584445059223 L 1.1730235580292292,-32.164991524554395 L 0.6956615352915044,-33.317445394009674 " />
        <path style="fill:none;stroke:#50514F;stroke-width:0.1px;stroke-linecap:square" d="M 1.1730235580292292,-27.175363206573707 L 2.0550735628403727,-28.057413211384848 L 2.937123567651516,-28.93946321619599 L 3.4144855903892406,-30.091917085651264 " />
        <path style="fill:none;stroke:#50514F;stroke-width:0.1px;stroke-linecap:square" d="M -0.7364245329216695,-22.565547728752634 L -0.7364245329216695,-23.812954808247806 L -0.7364245329216695,-25.060361887742978 L -0.2590625101839449,-26.212815757198246 L 0.21829951255377977,-27.365269626653514 L 0.21829951255377977,-28.612676706148687 " />
        <path style="fill:none;stroke:#50514F;stroke-width:0.1px;stroke-linecap:square" d="M -0.7364245329216695,-25.060361887742978 L -0.7364245329216695,-26.30776896723815 L -0.7364245329216695,-27.555176046733322 L -1.2137865556593943,-28.70762991618859 " />
        <path style="fill:none;stroke:#50514F;stroke-width:0.1px;stroke-linecap:square" d="M -0.7364245329216695,-25.060361887742978 L -0.7364245329216695,-26.30776896723815 L -0.7364245329216695,-27.555176046733322 L -1.2137865556593943,-28.70762991618859 L -1.691148578397119,-29.86008378564386 L -2.1685106011348436,-31.012537655099134 L -2.6458726238725685,-32.16499152455441 L -3.5279226286837115,-33.047041529365565 " />
        <path style="fill:none;stroke:#50514F;stroke-width:0.1px;stroke-linecap:square" d="M -0.7364245329216695,-27.555176046733322 L -0.2590625101839449,-28.70762991618859 L 0.21829951255377977,-29.86008378564386 L 0.21829951255377977,-31.10749086513903 " />
        <path style="fill:none;stroke:#50514F;stroke-width:0.1px;stroke-linecap:square" d="M -0.7364245329216695,-22.565547728752634 L -0.7364245329216695,-23.812954808247806 L -0.7364245329216695,-25.060361887742978 L -0.7364245329216695,-26.30776896723815 L -0.7364245329216695,-27.555176046733322 L -1.2137865556593943,-28.70762991618859 L -1.691148578397119,-29.86008378564386 L -2.1685106011348436,-31.012537655099134 L -2.6458726238725685,-32.16499152455441 L -3.123234646610293,-33.31744539400969 L -3.600596669348018,-34.46989926346497 L -3.600596669348018,-35.717306342960136 L -3.600596669348018,-36.96471342245531 L -4.077958692085742,-38.11716729191059 " />
        <path style="fill:none;stroke:#50514F;stroke-width:0.1px;stroke-linecap:square" d="M -3.600596669348018,-34.46989926346497 L -4.077958692085742,-35.622353132920246 L -4.555320714823467,-36.774807002375525 L -5.43737071963461,-37.65685700718667 " />
        <path style="fill:none;stroke:#50514F;stroke-width:0.1px;stroke-linecap:square" d="M -3.600596669348018,-34.46989926346497 L -4.077958692085742,-35.622353132920246 L -4.555320714823467,-36.774807002375525 L -5.43737071963461,-37.65685700718667 L -6.319420724445754,-38.53890701199782 L -7.201470729256897,-39.42095701680897 L -8.08352073406804,-40.303007021620125 L -9.235974603523308,-40.78036904435784 " />
        <path style="fill:none;stroke:#50514F;stroke-width:0.1px;stroke-linecap:square" d="M -4.555320714823467,-36.774807002375525 L -4.555320714823467,-38.02221408187069 L -4.555320714823467,-39.26962116136587 L -5.032682737561192,-40.42207503082114 " />
        <path style="fill:none;stroke:#50514F;stroke-width:0.1px;stroke-linecap:square" d="M -0.7364245329216695,-27.555176046733322 L -0.2590625101839449,-28.70762991618859 L 0.21829951255377977,-29.86008378564386 L 1.1003495173649231,-30.742133790455007 L 1.9823995221760666,-31.62418379526616 L 2.4597615449137913,-32.776637664721434 " />
        <path style="fill:none;stroke:#50514F;stroke-width:0.1px;stroke-linecap:square" d="M 0.21829951255377977,-29.86008378564386 L 0.6956615352915044,-31.012537655099134 L 1.1730235580292292,-32.16499152455441 L 1.1730235580292292,-33.412398604049585 " />
        <path style="fill:none;stroke:#50514F;stroke-width:0.1px;stroke-linecap:square" d="M 0.21829951255377977,-29.86008378564386 L 0.6956615352915044,-31.012537655099134 L 1.1730235580292292,-32.16499152455441 L 1.1730235580292292,-33.412398604049585 L 1.1730235580292292,-34.659805683544754 L 1.1730235580292292,-35.90721276303993 L 1.1730235580292292,-37.1546198425351 L 0.6956615352915044,-38.30707371199038 " />
        <path style="fill:none;stroke:#50514F;stroke-width:0.1px;stroke-linecap:square" d="M 1.1730235580292292,-32.16499152455441 L 2.0550735628403727,-33.047041529365565 L 2.937123567651516,-33.92909153417671 L 3.4144855903892406,-35.08154540363199 " />
        <path style="fill:none;stroke:#50514F;stroke-width:0.1px;stroke-linecap:square" d="M -0.7364245329216695,-17.575919410771945 L -1.2137865556593943,-18.728373280227213 L -1.691148578397119,-19.88082714968248 L -2.1685106011348436,-21.03328101913775 L -2.6458726238725685,-22.185734888593018 L -2.6458726238725685,-23.43314196808819 L -2.6458726238725685,-24.680549047583362 L -2.1685106011348436,-25.83300291703863 L -1.691148578397119,-26.9854567864939 L -1.691148578397119,-28.23286386598907 " />
        <path style="fill:none;stroke:#50514F;stroke-width:0.1px;stroke-linecap:square" d="M -2.6458726238725685,-24.680549047583362 L -2.6458726238725685,-25.927956127078534 L -2.6458726238725685,-27.175363206573707 L -3.123234646610293,-28.327817076028975 " />
        <path style="fill:none;stroke:#50514F;stroke-width:0.1px;stroke-linecap:square" d="M -2.6458726238725685,-24.680549047583362 L -2.6458726238725685,-25.927956127078534 L -2.6458726238725685,-27.175363206573707 L -3.123234646610293,-28.327817076028975 L -3.600596669348018,-29.480270945484243 L -4.077958692085742,-30.63272481493952 L -4.555320714823467,-31.785178684394797 L -5.43737071963461,-32.66722868920595 " />
        <path style="fill:none;stroke:#50514F;stroke-width:0.1px;stroke-linecap:square" d="M -2.6458726238725685,-27.175363206573707 L -2.1685106011348436,-28.327817076028975 L -1.691148578397119,-29.480270945484243 L -1.691148578397119,-30.727678024979415 " />
        <path style="fill:none;stroke:#50514F;stroke-width:0.1px;stroke-linecap:square" d="M -2.6458726238725685,-22.185734888593018 L -3.123234646610293,-23.338188758048286 L -3.600596669348018,-24.490642627503554 L -3.600596669348018,-25.738049706998726 L -3.600596669348018,-26.9854567864939 L -4.077958692085742,-28.137910655949167 " />
        <path style="fill:none;stroke:#50514F;stroke-width:0.1px;stroke-linecap:square" d="M -3.600596669348018,-24.490642627503554 L -4.077958692085742,-25.643096496958822 L -4.555320714823467,-26.79555036641409 L -5.43737071963461,-27.677600371225232 " />
        <path style="fill:none;stroke:#50514F;stroke-width:0.1px;stroke-linecap:square" d="M -3.600596669348018,-24.490642627503554 L -4.077958692085742,-25.643096496958822 L -4.555320714823467,-26.79555036641409 L -5.43737071963461,-27.677600371225232 L -6.319420724445754,-28.559650376036373 L -7.201470729256897,-29.441700380847514 L -8.08352073406804,-30.323750385658656 L -9.235974603523308,-30.801112408396374 " />
        <path style="fill:none;stroke:#50514F;stroke-width:0.1px;stroke-linecap:square" d="M -4.555320714823467,-26.79555036641409 L -4.555320714823467,-28.042957445909263 L -4.555320714823467,-29.290364525404435 L -5.032682737561192,-30.442818394859714 " />
        <path style="fill:none;stroke:#50514F;stroke-width:0.1px;stroke-linecap:square" d="M -2.6458726238725685,-22.185734888593018 L -3.123234646610293,-23.338188758048286 L -3.600596669348018,-24.490642627503554 L -4.077958692085742,-25.643096496958822 L -4.555320714823467,-26.79555036641409 L -5.43737071963461,-27.677600371225232 L -6.319420724445754,-28.559650376036373 L -7.201470729256897,-29.441700380847514 L -8.08352073406804,-30.323750385658656 L -8.965570738879185,-31.205800390469808 L -9.847620743690328,-32.08785039528096 L -10.324982766428056,-33.24030426473623 L -10.802344789165781,-34.39275813419151 L -11.684394793976923,-35.27480813900266 " />
        <path style="fill:none;stroke:#50514F;stroke-width:0.1px;stroke-linecap:square" d="M -9.847620743690328,-32.08785039528096 L -10.72967074850147,-32.96990040009211 L -11.61172075331261,-33.851950404903256 L -12.764174622767879,-34.32931242764097 " />
        <path style="fill:none;stroke:#50514F;stroke-width:0.1px;stroke-linecap:square" d="M -9.847620743690328,-32.08785039528096 L -10.72967074850147,-32.96990040009211 L -11.61172075331261,-33.851950404903256 L -12.764174622767879,-34.32931242764097 L -13.916628492223147,-34.806674450378694 L -15.069082361678415,-35.28403647311641 L -16.221536231133683,-35.76139849585413 L -17.468943310628855,-35.76139849585413 " />
        <path style="fill:none;stroke:#50514F;stroke-width:0.1px;stroke-linecap:square" d="M -11.61172075331261,-33.851950404903256 L -12.089082776050336,-35.004404274358535 L -12.566444798788064,-36.156858143813814 L -13.448494803599205,-37.03890814862496 " />
        <path style="fill:none;stroke:#50514F;stroke-width:0.1px;stroke-linecap:square" d="M -4.555320714823467,-26.79555036641409 L -4.555320714823467,-28.042957445909263 L -4.555320714823467,-29.290364525404435 L -4.077958692085742,-30.442818394859714 L -3.600596669348018,-31.59527226431499 L -3.600596669348018,-32.84267934381016 " />
        <path style="fill:none;stroke:#50514F;stroke-width:0.1px;stroke-linecap:square" d="M -4.555320714823467,-29.290364525404435 L -4.555320714823467,-30.537771604899607 L -4.555320714823467,-31.78517868439478 L -5.032682737561192,-32.93763255385006 " />
        <path style="fill:none;stroke:#50514F;stroke-width:0.1px;stroke-linecap:square" d="M -4.555320714823467,-29.290364525404435 L -4.555320714823467,-30.537771604899607 L -4.555320714823467,-31.78517868439478 L -5.032682737561192,-32.93763255385006 L -5.510044760298916,-34.09008642330534 L -5.987406783036641,-35.24254029276061 L -6.464768805774366,-36.39499416221589 L -7.346818810585509,-37.277044167027036 " />
        <path style="fill:none;stroke:#50514F;stroke-width:0.1px;stroke-linecap:square" d="M -4.555320714823467,-31.78517868439478 L -4.077958692085742,-32.93763255385006 L -3.600596669348018,-34.09008642330534 L -3.600596669348018,-35.337493502800505 " />
        <path style="fill:none;stroke:#50514F;stroke-width:0.1px;stroke-linecap:square" d="M -0.7364245329216695,-17.575919410771945 L -1.2137865556593943,-18.728373280227213 L -1.691148578397119,-19.88082714968248 L -2.1685106011348436,-21.03328101913775 L -2.6458726238725685,-22.185734888593018 L -3.123234646610293,-23.338188758048286 L -3.600596669348018,-24.490642627503554 L -4.077958692085742,-25.643096496958822 L -4.555320714823467,-26.79555036641409 L -5.43737071963461,-27.677600371225232 L -6.319420724445754,-28.559650376036373 L -7.201470729256897,-29.441700380847514 L -8.08352073406804,-30.323750385658656 L -8.965570738879185,-31.205800390469808 L -9.847620743690328,-32.08785039528096 L -10.72967074850147,-32.96990040009211 L -11.61172075331261,-33.851950404903256 L -12.493770758123752,-34.734000409714405 L -13.375820762934893,-35.61605041452556 L -14.257870767746034,-36.49810041933671 L -15.139920772557176,-37.38015042414786 L -15.617282795294901,-38.532604293603136 L -16.09464481803263,-39.685058163058414 L -16.09464481803263,-40.93246524255358 L -16.09464481803263,-42.17987232204876 L -16.572006840770356,-43.33232619150403 " />
        <path style="fill:none;stroke:#50514F;stroke-width:0.1px;stroke-linecap:square" d="M -16.09464481803263,-39.685058163058414 L -16.572006840770356,-40.837512032513686 L -17.049368863508082,-41.989965901968965 L -17.931418868319223,-42.87201590678011 " />
        <path style="fill:none;stroke:#50514F;stroke-width:0.1px;stroke-linecap:square" d="M -16.09464481803263,-39.685058163058414 L -16.572006840770356,-40.837512032513686 L -17.049368863508082,-41.989965901968965 L -17.931418868319223,-42.87201590678011 L -18.813468873130365,-43.75406591159127 L -19.695518877941506,-44.63611591640242 L -20.577568882752647,-45.518165921213566 L -21.730022752207915,-45.99552794395128 " />
        <path style="fill:none;stroke:#50514F;stroke-width:0.1px;stroke-linecap:square" d="M -17.049368863508082,-41.989965901968965 L -17.049368863508082,-43.23737298146414 L -17.049368863508082,-44.48478006095931 L -17.526730886245808,-45.63723393041459 " />
        <path style="fill:none;stroke:#50514F;stroke-width:0.1px;stroke-linecap:square" d="M -15.139920772557176,-37.38015042414786 L -16.021970777368317,-38.262200428959005 L -16.904020782179458,-39.144250433770154 L -17.381382804917184,-40.29670430322543 L -17.858744827654913,-41.44915817268071 L -18.740794832466054,-42.33120817749186 " />
        <path style="fill:none;stroke:#50514F;stroke-width:0.1px;stroke-linecap:square" d="M -16.904020782179458,-39.144250433770154 L -17.7860707869906,-40.02630043858131 L -18.66812079180174,-40.90835044339246 L -19.82057466125701,-41.38571246613017 " />
        <path style="fill:none;stroke:#50514F;stroke-width:0.1px;stroke-linecap:square" d="M -16.904020782179458,-39.144250433770154 L -17.7860707869906,-40.02630043858131 L -18.66812079180174,-40.90835044339246 L -19.82057466125701,-41.38571246613017 L -20.973028530712277,-41.863074488867895 L -22.125482400167545,-42.34043651160561 L -23.277936269622813,-42.81779853434333 L -24.525343349117986,-42.81779853434333 " />
        <path style="fill:none;stroke:#50514F;stroke-width:0.1px;stroke-linecap:square" d="M -18.66812079180174,-40.90835044339246 L -19.145482814539466,-42.060804312847736 L -19.622844837277196,-43.213258182303015 L -20.504894842088337,-44.09530818711416 " />
        <path style="fill:none;stroke:#50514F;stroke-width:0.1px;stroke-linecap:square" d="M -15.139920772557176,-37.38015042414786 L -16.021970777368317,-38.262200428959005 L -16.904020782179458,-39.144250433770154 L -17.7860707869906,-40.02630043858131 L -18.66812079180174,-40.90835044339246 L -19.82057466125701,-41.38571246613017 L -20.973028530712277,-41.863074488867895 L -22.125482400167545,-42.34043651160561 L -23.277936269622813,-42.81779853434333 L -24.43039013907808,-43.29516055708105 L -25.58284400853335,-43.77252257981876 L -26.46489401334449,-44.65457258462992 L -27.346944018155632,-45.536622589441066 L -28.4993978876109,-46.01398461217878 " />
        <path style="fill:none;stroke:#50514F;stroke-width:0.1px;stroke-linecap:square" d="M -25.58284400853335,-43.77252257981876 L -26.735297877988618,-44.249884602556484 L -27.887751747443886,-44.7272466252942 L -29.13515882693906,-44.7272466252942 " />
        <path style="fill:none;stroke:#50514F;stroke-width:0.1px;stroke-linecap:square" d="M -25.58284400853335,-43.77252257981876 L -26.735297877988618,-44.249884602556484 L -27.887751747443886,-44.7272466252942 L -29.13515882693906,-44.7272466252942 L -30.382565906434227,-44.7272466252942 L -31.6299729859294,-44.7272466252942 L -32.87738006542457,-44.7272466252942 L -34.02983393487984,-44.249884602556484 " />
        <path style="fill:none;stroke:#50514F;stroke-width:0.1px;stroke-linecap:square" d="M -27.887751747443886,-44.7272466252942 L -28.769801752255027,-45.609296630105355 L -29.651851757066172,-46.4913466349165 L -30.80430562652144,-46.96870865765422 " />
        <path style="fill:none;stroke:#50514F;stroke-width:0.1px;stroke-linecap:square" d="M -18.66812079180174,-40.90835044339246 L -19.145482814539466,-42.060804312847736 L -19.622844837277196,-43.213258182303015 L -19.622844837277196,-44.460665261798184 L -19.622844837277196,-45.70807234129336 L -20.10020686001492,-46.86052621074863 " />
        <path style="fill:none;stroke:#50514F;stroke-width:0.1px;stroke-linecap:square" d="M -19.622844837277196,-43.213258182303015 L -20.10020686001492,-44.36571205175829 L -20.577568882752647,-45.518165921213566 L -21.45961888756379,-46.400215926024714 " />
        <path style="fill:none;stroke:#50514F;stroke-width:0.1px;stroke-linecap:square" d="M -19.622844837277196,-43.213258182303015 L -20.10020686001492,-44.36571205175829 L -20.577568882752647,-45.518165921213566 L -21.45961888756379,-46.400215926024714 L -22.34166889237493,-47.28226593083587 L -23.22371889718607,-48.16431593564702 L -24.105768901997212,-49.046365940458166 L -25.25822277145248,-49.52372796319588 " />
        <path style="fill:none;stroke:#50514F;stroke-width:0.1px;stroke-linecap:square" d="M -20.577568882752647,-45.518165921213566 L -20.577568882752647,-46.76557300070874 L -20.577568882752647,-48.01298008020391 L -21.054930905490373,-49.16543394965919 " />
        <path style="fill:none;stroke:#50514F;stroke-width:0.1px;stroke-linecap:square" d="M -4.555320714823467,-26.79555036641409 L -4.555320714823467,-28.042957445909263 L -4.555320714823467,-29.290364525404435 L -4.555320714823467,-30.537771604899607 L -4.555320714823467,-31.78517868439478 L -4.077958692085742,-32.93763255385006 L -3.600596669348018,-34.09008642330534 L -2.7185466645368743,-34.972136428116485 L -1.8364966597257306,-35.854186432927634 L -1.359134636988006,-37.00664030238291 " />
        <path style="fill:none;stroke:#50514F;stroke-width:0.1px;stroke-linecap:square" d="M -3.600596669348018,-34.09008642330534 L -3.123234646610293,-35.24254029276061 L -2.6458726238725685,-36.39499416221589 L -2.6458726238725685,-37.64240124171106 " />
        <path style="fill:none;stroke:#50514F;stroke-width:0.1px;stroke-linecap:square" d="M -3.600596669348018,-34.09008642330534 L -3.123234646610293,-35.24254029276061 L -2.6458726238725685,-36.39499416221589 L -2.6458726238725685,-37.64240124171106 L -2.6458726238725685,-38.88980832120623 L -2.6458726238725685,-40.13721540070141 L -2.6458726238725685,-41.384622480196576 L -3.123234646610293,-42.537076349651855 " />
        <path style="fill:none;stroke:#50514F;stroke-width:0.1px;stroke-linecap:square" d="M -2.6458726238725685,-36.39499416221589 L -1.7638226190614248,-37.277044167027036 L -0.8817726142502813,-38.15909417183819 L -0.40441059151255665,-39.31154804129346 " />
        <path style="fill:none;stroke:#50514F;stroke-width:0.1px;stroke-linecap:square" d="M -4.555320714823467,-31.78517868439478 L -4.555320714823467,-33.032585763889955 L -4.555320714823467,-34.27999284338512 L -4.077958692085742,-35.4324467128404 L -3.600596669348018,-36.58490058229568 L -3.600596669348018,-37.83230766179085 " />
        <path style="fill:none;stroke:#50514F;stroke-width:0.1px;stroke-linecap:square" d="M -4.555320714823467,-34.27999284338512 L -4.555320714823467,-35.5273999228803 L -4.555320714823467,-36.77480700237547 L -5.032682737561192,-37.92726087183075 " />
        <path style="fill:none;stroke:#50514F;stroke-width:0.1px;stroke-linecap:square" d="M -4.555320714823467,-34.27999284338512 L -4.555320714823467,-35.5273999228803 L -4.555320714823467,-36.77480700237547 L -5.032682737561192,-37.92726087183075 L -5.510044760298916,-39.079714741286026 L -5.987406783036641,-40.2321686107413 L -6.464768805774366,-41.384622480196576 L -7.346818810585509,-42.266672485007724 " />
        <path style="fill:none;stroke:#50514F;stroke-width:0.1px;stroke-linecap:square" d="M -4.555320714823467,-36.77480700237547 L -4.077958692085742,-37.92726087183075 L -3.600596669348018,-39.079714741286026 L -3.600596669348018,-40.327121820781194 " />
        <path style="fill:none;stroke:#50514F;stroke-width:0.1px;stroke-linecap:square" d="M -4.555320714823467,-31.78517868439478 L -4.555320714823467,-33.032585763889955 L -4.555320714823467,-34.27999284338512 L -4.555320714823467,-35.5273999228803 L -4.555320714823467,-36.77480700237547 L -5.032682737561192,-37.92726087183075 L -5.510044760298916,-39.079714741286026 L -5.987406783036641,-40.2321686107413 L -6.464768805774366,-41.384622480196576 L -6.942130828512091,-42.537076349651855 L -7.4194928512498155,-43.689530219107134 L -7.4194928512498155,-44.9369372986023 L -7.4194928512498155,-46.18434437809748 L -7.8968548739875395,-47.33679824755275 " />
        <path style="fill:none;stroke:#50514F;stroke-width:0.1px;stroke-linecap:square" d="M -7.4194928512498155,-43.689530219107134 L -7.8968548739875395,-44.841984088562405 L -8.374216896725265,-45.994437958017684 L -9.256266901536407,-46.87648796282883 " />
        <path style="fill:none;stroke:#50514F;stroke-width:0.1px;stroke-linecap:square" d="M -7.4194928512498155,-43.689530219107134 L -7.8968548739875395,-44.841984088562405 L -8.374216896725265,-45.994437958017684 L -9.256266901536407,-46.87648796282883 L -10.138316906347548,-47.75853796763999 L -11.020366911158689,-48.64058797245114 L -11.90241691596983,-49.522637977262285 L -13.054870785425098,-50.00000000000001 " />
        <path style="fill:none;stroke:#50514F;stroke-width:0.1px;stroke-linecap:square" d="M -8.374216896725265,-45.994437958017684 L -8.374216896725265,-47.24184503751286 L -8.374216896725265,-48.48925211700803 L -8.85157891946299,-49.64170598646331 " />
        <path style="fill:none;stroke:#50514F;stroke-width:0.1px;stroke-linecap:square" d="M -4.555320714823467,-36.77480700237547 L -4.077958692085742,-37.92726087183075 L -3.600596669348018,-39.079714741286026 L -2.7185466645368743,-39.961764746097174 L -1.8364966597257306,-40.84381475090832 L -1.359134636988006,-41.9962686203636 " />
        <path style="fill:none;stroke:#50514F;stroke-width:0.1px;stroke-linecap:square" d="M -3.600596669348018,-39.079714741286026 L -3.123234646610293,-40.2321686107413 L -2.6458726238725685,-41.384622480196576 L -2.6458726238725685,-42.63202955969175 " />
        <path style="fill:none;stroke:#50514F;stroke-width:0.1px;stroke-linecap:square" d="M -3.600596669348018,-39.079714741286026 L -3.123234646610293,-40.2321686107413 L -2.6458726238725685,-41.384622480196576 L -2.6458726238725685,-42.63202955969175 L -2.6458726238725685,-43.87943663918692 L -2.6458726238725685,-45.126843718682096 L -2.6458726238725685,-46.374250798177265 L -3.123234646610293,-47.52670466763254 " />
        <path style="fill:none;stroke:#50514F;stroke-width:0.1px;stroke-linecap:square" d="M -2.6458726238725685,-41.384622480196576 L -1.7638226190614248,-42.266672485007724 L -0.8817726142502813,-43.14872248981888 L -0.40441059151255665,-44.30117635927415 " />
        <path style="fill:none;stroke:#50514F;stroke-width:0.1px;stroke-linecap:square" d="M 10.720264012783725,10.082973456154495 L 11.19762603552145,8.930519586699226 L 11.674988058259174,7.778065717243958 L 12.152350080996898,6.62561184778869 L 12.629712103734626,5.473157978333422 L 13.10707412647235,4.320704108878154 L 13.584436149210076,3.168250239422885 L 14.0617981719478,2.015796369967617 L 14.539160194685525,0.8633425005123486 L 15.421210199496668,-1.8707504298792657e-2 L 16.30326020430781,-0.9007575091099339 L 17.185310209118956,-1.782807513921075 L 18.067360213930098,-2.6648575187322163 L 19.219814083385366,-3.1422195414699434 L 20.37226795284064,-3.61958156420767 L 21.619675032335813,-3.61958156420767 L 22.867082111830985,-3.61958156420767 L 24.019535981286253,-4.096943586945397 " />
        <path style="fill:none;stroke:#50514F;stroke-width:0.1px;stroke-linecap:square" d="M 20.37226795284064,-3.61958156420767 L 21.52472182229591,-4.096943586945397 L 22.677175691751177,-4.574305609683124 L 23.55922569656232,-5.4563556144942655 " />
        <path style="fill:none;stroke:#50514F;stroke-width:0.1px;stroke-linecap:square" d="M 20.37226795284064,-3.61958156420767 L 21.52472182229591,-4.096943586945397 L 22.677175691751177,-4.574305609683124 L 23.55922569656232,-5.4563556144942655 L 24.44127570137346,-6.338405619305407 L 25.323325706184605,-7.220455624116548 L 26.20537571099575,-8.10250562892769 L 26.68273773373347,-9.254959498382958 " />
        <path style="fill:none;stroke:#50514F;stroke-width:0.1px;stroke-linecap:square" d="M 22.677175691751177,-4.574305609683124 L 23.92458277124635,-4.574305609683124 L 25.17198985074152,-4.574305609683124 L 26.32444372019679,-5.051667632420851 " />
        <path style="fill:none;stroke:#50514F;stroke-width:0.1px;stroke-linecap:square" d="M 18.067360213930098,-2.6648575187322163 L 18.949410218741242,-3.5469075235433576 L 19.831460223552387,-4.428957528354499 L 20.983914093007655,-4.906319551092226 L 22.136367962462923,-5.383681573829953 L 23.018417967274065,-6.265731578641094 " />
        <path style="fill:none;stroke:#50514F;stroke-width:0.1px;stroke-linecap:square" d="M 19.831460223552387,-4.428957528354499 L 20.713510228363525,-5.311007533165641 L 21.595560233174673,-6.193057537976782 L 22.072922255912395,-7.34551140743205 " />
        <path style="fill:none;stroke:#50514F;stroke-width:0.1px;stroke-linecap:square" d="M 19.831460223552387,-4.428957528354499 L 20.713510228363525,-5.311007533165641 L 21.595560233174673,-6.193057537976782 L 22.072922255912395,-7.34551140743205 L 22.55028427865012,-8.497965276887317 L 23.027646301387847,-9.650419146342585 L 23.505008324125573,-10.802873015797855 L 23.505008324125573,-12.050280095293028 " />
        <path style="fill:none;stroke:#50514F;stroke-width:0.1px;stroke-linecap:square" d="M 21.595560233174673,-6.193057537976782 L 22.74801410262994,-6.6704195607145085 L 23.90046797208521,-7.147781583452235 L 24.782517976896354,-8.029831588263377 " />
        <path style="fill:none;stroke:#50514F;stroke-width:0.1px;stroke-linecap:square" d="M 18.067360213930098,-2.6648575187322163 L 18.949410218741242,-3.5469075235433576 L 19.831460223552387,-4.428957528354499 L 20.713510228363525,-5.311007533165641 L 21.595560233174673,-6.193057537976782 L 22.072922255912395,-7.34551140743205 L 22.55028427865012,-8.497965276887317 L 23.027646301387847,-9.650419146342585 L 23.505008324125573,-10.802873015797855 L 23.982370346863295,-11.955326885253124 L 24.45973236960102,-13.107780754708392 L 25.341782374412162,-13.989830759519533 L 26.223832379223307,-14.871880764330674 L 26.70119440196103,-16.02433463378594 " />
        <path style="fill:none;stroke:#50514F;stroke-width:0.1px;stroke-linecap:square" d="M 24.45973236960102,-13.107780754708392 L 24.937094392338746,-14.26023462416366 L 25.41445641507647,-15.412688493618928 L 25.41445641507647,-16.6600955731141 " />
        <path style="fill:none;stroke:#50514F;stroke-width:0.1px;stroke-linecap:square" d="M 24.45973236960102,-13.107780754708392 L 24.937094392338746,-14.26023462416366 L 25.41445641507647,-15.412688493618928 L 25.41445641507647,-16.6600955731141 L 25.41445641507647,-17.90750265260927 L 25.41445641507647,-19.154909732104443 L 25.41445641507647,-20.402316811599615 L 24.937094392338746,-21.554770681054883 " />
        <path style="fill:none;stroke:#50514F;stroke-width:0.1px;stroke-linecap:square" d="M 25.41445641507647,-15.412688493618928 L 26.296506419887617,-16.294738498430068 L 27.17855642469876,-17.17678850324121 L 27.655918447436484,-18.329242372696477 " />
        <path style="fill:none;stroke:#50514F;stroke-width:0.1px;stroke-linecap:square" d="M 21.595560233174673,-6.193057537976782 L 22.74801410262994,-6.6704195607145085 L 23.90046797208521,-7.147781583452235 L 25.14787505158038,-7.147781583452235 L 26.395282131075554,-7.147781583452235 L 27.547736000530822,-7.625143606189962 " />
        <path style="fill:none;stroke:#50514F;stroke-width:0.1px;stroke-linecap:square" d="M 23.90046797208521,-7.147781583452235 L 25.052921841540478,-7.625143606189962 L 26.205375710995746,-8.10250562892769 L 27.08742571580689,-8.98455563373883 " />
        <path style="fill:none;stroke:#50514F;stroke-width:0.1px;stroke-linecap:square" d="M 23.90046797208521,-7.147781583452235 L 25.052921841540478,-7.625143606189962 L 26.205375710995746,-8.10250562892769 L 27.08742571580689,-8.98455563373883 L 27.969475720618032,-9.866605638549972 L 28.851525725429173,-10.748655643361113 L 29.733575730240318,-11.630705648172254 L 30.21093775297804,-12.783159517627523 " />
        <path style="fill:none;stroke:#50514F;stroke-width:0.1px;stroke-linecap:square" d="M 26.205375710995746,-8.10250562892769 L 27.452782790490918,-8.10250562892769 L 28.70018986998609,-8.10250562892769 L 29.85264373944136,-8.579867651665415 " />
        <path style="fill:none;stroke:#50514F;stroke-width:0.1px;stroke-linecap:square" d="M 14.539160194685525,0.8633425005123486 L 15.01652221742325,-0.2891113689429197 L 15.493884240160973,-1.441565238398188 L 15.9712462628987,-2.5940191078534562 L 16.448608285636425,-3.746472977308725 L 17.33065829044757,-4.628522982119866 L 18.21270829525871,-5.510572986931007 L 19.36516216471398,-5.9879350096687345 L 20.51761603416925,-6.465297032406461 L 21.399666038980392,-7.347347037217602 " />
        <path style="fill:none;stroke:#50514F;stroke-width:0.1px;stroke-linecap:square" d="M 18.21270829525871,-5.510572986931007 L 19.094758300069856,-6.392622991742148 L 19.976808304880997,-7.2746729965532895 L 20.454170327618723,-8.427126866008559 " />
        <path style="fill:none;stroke:#50514F;stroke-width:0.1px;stroke-linecap:square" d="M 18.21270829525871,-5.510572986931007 L 19.094758300069856,-6.392622991742148 L 19.976808304880997,-7.2746729965532895 L 20.454170327618723,-8.427126866008559 L 20.931532350356445,-9.579580735463827 L 21.408894373094174,-10.732034604919095 L 21.8862563958319,-11.884488474374363 L 21.8862563958319,-13.131895553869535 " />
        <path style="fill:none;stroke:#50514F;stroke-width:0.1px;stroke-linecap:square" d="M 19.976808304880997,-7.2746729965532895 L 21.12926217433627,-7.752035019291016 L 22.281716043791537,-8.229397042028744 L 23.163766048602678,-9.111447046839885 " />
        <path style="fill:none;stroke:#50514F;stroke-width:0.1px;stroke-linecap:square" d="M 16.448608285636425,-3.746472977308725 L 16.92597030837415,-4.898926846763993 L 17.403332331111873,-6.051380716219262 L 18.285382335923018,-6.933430721030403 L 19.16743234073416,-7.815480725841544 L 19.64479436347189,-8.967934595296812 " />
        <path style="fill:none;stroke:#50514F;stroke-width:0.1px;stroke-linecap:square" d="M 17.403332331111873,-6.051380716219262 L 17.8806943538496,-7.20383458567453 L 18.35805637658732,-8.356288455129798 L 18.35805637658732,-9.60369553462497 " />
        <path style="fill:none;stroke:#50514F;stroke-width:0.1px;stroke-linecap:square" d="M 17.403332331111873,-6.051380716219262 L 17.8806943538496,-7.20383458567453 L 18.35805637658732,-8.356288455129798 L 18.35805637658732,-9.60369553462497 L 18.35805637658732,-10.851102614120142 L 18.35805637658732,-12.098509693615314 L 18.35805637658732,-13.345916773110487 L 17.8806943538496,-14.498370642565755 " />
        <path style="fill:none;stroke:#50514F;stroke-width:0.1px;stroke-linecap:square" d="M 18.35805637658732,-8.356288455129798 L 19.24010638139847,-9.23833845994094 L 20.12215638620961,-10.12038846475208 L 20.599518408947336,-11.272842334207349 " />
        <path style="fill:none;stroke:#50514F;stroke-width:0.1px;stroke-linecap:square" d="M 16.448608285636425,-3.746472977308725 L 16.92597030837415,-4.898926846763993 L 17.403332331111873,-6.051380716219262 L 17.8806943538496,-7.20383458567453 L 18.35805637658732,-8.356288455129798 L 18.35805637658732,-9.60369553462497 L 18.35805637658732,-10.851102614120142 L 18.35805637658732,-12.098509693615314 L 18.35805637658732,-13.345916773110487 L 18.35805637658732,-14.593323852605659 L 18.35805637658732,-15.840730932100831 L 18.83541839932505,-16.9931848015561 L 19.312780422062772,-18.14563867101137 L 19.312780422062772,-19.39304575050654 " />
        <path style="fill:none;stroke:#50514F;stroke-width:0.1px;stroke-linecap:square" d="M 18.35805637658732,-15.840730932100831 L 18.35805637658732,-17.088138011596 L 18.35805637658732,-18.335545091091173 L 17.8806943538496,-19.487998960546445 " />
        <path style="fill:none;stroke:#50514F;stroke-width:0.1px;stroke-linecap:square" d="M 18.35805637658732,-15.840730932100831 L 18.35805637658732,-17.088138011596 L 18.35805637658732,-18.335545091091173 L 17.8806943538496,-19.487998960546445 L 17.403332331111873,-20.640452830001713 L 16.92597030837415,-21.79290669945698 L 16.448608285636425,-22.94536056891225 L 15.566558280825282,-23.82741057372339 " />
        <path style="fill:none;stroke:#50514F;stroke-width:0.1px;stroke-linecap:square" d="M 18.35805637658732,-18.335545091091173 L 18.83541839932505,-19.487998960546445 L 19.312780422062772,-20.640452830001713 L 19.312780422062772,-21.887859909496886 " />
        <path style="fill:none;stroke:#50514F;stroke-width:0.1px;stroke-linecap:square" d="M 18.35805637658732,-8.356288455129798 L 19.24010638139847,-9.23833845994094 L 20.12215638620961,-10.12038846475208 L 21.27461025566488,-10.597750487489808 L 22.427064125120147,-11.075112510227534 L 23.30911412993129,-11.957162515038675 " />
        <path style="fill:none;stroke:#50514F;stroke-width:0.1px;stroke-linecap:square" d="M 20.12215638620961,-10.12038846475208 L 21.00420639102075,-11.002438469563222 L 21.886256395831897,-11.884488474374363 L 22.36361841856962,-13.036942343829631 " />
        <path style="fill:none;stroke:#50514F;stroke-width:0.1px;stroke-linecap:square" d="M 20.12215638620961,-10.12038846475208 L 21.00420639102075,-11.002438469563222 L 21.886256395831897,-11.884488474374363 L 22.36361841856962,-13.036942343829631 L 22.840980441307345,-14.1893962132849 L 23.318342464045074,-15.341850082740168 L 23.795704486782796,-16.494303952195438 L 23.795704486782796,-17.74171103169061 " />
        <path style="fill:none;stroke:#50514F;stroke-width:0.1px;stroke-linecap:square" d="M 21.886256395831897,-11.884488474374363 L 23.038710265287165,-12.36185049711209 L 24.191164134742433,-12.839212519849816 L 25.073214139553578,-13.721262524660958 " />
        <path style="fill:none;stroke:#50514F;stroke-width:0.1px;stroke-linecap:square" d="M 14.539160194685525,0.8633425005123486 L 15.01652221742325,-0.2891113689429197 L 15.493884240160973,-1.441565238398188 L 15.9712462628987,-2.5940191078534562 L 16.448608285636425,-3.746472977308725 L 16.92597030837415,-4.898926846763993 L 17.403332331111873,-6.051380716219262 L 17.8806943538496,-7.20383458567453 L 18.35805637658732,-8.356288455129798 L 18.35805637658732,-9.60369553462497 L 18.35805637658732,-10.851102614120142 L 18.35805637658732,-12.098509693615314 L 18.35805637658732,-13.345916773110487 L 18.35805637658732,-14.593323852605659 L 18.35805637658732,-15.840730932100831 L 18.35805637658732,-17.088138011596 L 18.35805637658732,-18.335545091091173 L 18.35805637658732,-19.582952170586346 L 18.35805637658732,-20.830359250081518 L 18.35805637658732,-22.07776632957669 L 18.35805637658732,-23.325173409071862 L 18.83541839932505,-24.477627278527134 L 19.312780422062772,-25.630081147982402 L 20.194830426873917,-26.512131152793543 L 21.07688043168506,-27.394181157604685 L 21.55424245442278,-28.546635027059953 " />
        <path style="fill:none;stroke:#50514F;stroke-width:0.1px;stroke-linecap:square" d="M 19.312780422062772,-25.630081147982402 L 19.790142444800498,-26.78253501743767 L 20.26750446753822,-27.93498888689294 L 20.26750446753822,-29.18239596638811 " />
        <path style="fill:none;stroke:#50514F;stroke-width:0.1px;stroke-linecap:square" d="M 19.312780422062772,-25.630081147982402 L 19.790142444800498,-26.78253501743767 L 20.26750446753822,-27.93498888689294 L 20.26750446753822,-29.18239596638811 L 20.26750446753822,-30.429803045883283 L 20.26750446753822,-31.677210125378455 L 20.26750446753822,-32.92461720487363 L 19.790142444800498,-34.077071074328906 " />
        <path style="fill:none;stroke:#50514F;stroke-width:0.1px;stroke-linecap:square" d="M 20.26750446753822,-27.93498888689294 L 21.149554472349365,-28.81703889170408 L 22.031604477160506,-29.69908889651522 L 22.508966499898236,-30.851542765970496 " />
        <path style="fill:none;stroke:#50514F;stroke-width:0.1px;stroke-linecap:square" d="M 18.35805637658732,-23.325173409071862 L 18.35805637658732,-24.572580488567034 L 18.35805637658732,-25.819987568062206 L 18.83541839932505,-26.972441437517478 L 19.312780422062772,-28.124895306972746 L 19.312780422062772,-29.37230238646792 " />
        <path style="fill:none;stroke:#50514F;stroke-width:0.1px;stroke-linecap:square" d="M 18.35805637658732,-25.819987568062206 L 18.35805637658732,-27.06739464755738 L 18.35805637658732,-28.31480172705255 L 17.8806943538496,-29.467255596507822 " />
        <path style="fill:none;stroke:#50514F;stroke-width:0.1px;stroke-linecap:square" d="M 18.35805637658732,-25.819987568062206 L 18.35805637658732,-27.06739464755738 L 18.35805637658732,-28.31480172705255 L 17.8806943538496,-29.467255596507822 L 17.403332331111873,-30.61970946596309 L 16.92597030837415,-31.772163335418366 L 16.448608285636425,-32.92461720487364 L 15.566558280825282,-33.8066672096848 " />
        <path style="fill:none;stroke:#50514F;stroke-width:0.1px;stroke-linecap:square" d="M 18.35805637658732,-28.31480172705255 L 18.83541839932505,-29.467255596507822 L 19.312780422062772,-30.61970946596309 L 19.312780422062772,-31.867116545458263 " />
        <path style="fill:none;stroke:#50514F;stroke-width:0.1px;stroke-linecap:square" d="M 18.35805637658732,-23.325173409071862 L 18.35805637658732,-24.572580488567034 L 18.35805637658732,-25.819987568062206 L 18.35805637658732,-27.06739464755738 L 18.35805637658732,-28.31480172705255 L 17.8806943538496,-29.467255596507822 L 17.403332331111873,-30.61970946596309 L 16.92597030837415,-31.772163335418366 L 16.448608285636425,-32.92461720487364 L 15.9712462628987,-34.07707107432892 L 15.493884240160973,-35.2295249437842 L 15.493884240160973,-36.47693202327937 L 15.493884240160973,-37.72433910277454 L 15.016522217423251,-38.87679297222982 " />
        <path style="fill:none;stroke:#50514F;stroke-width:0.1px;stroke-linecap:square" d="M 15.493884240160973,-35.2295249437842 L 15.016522217423251,-36.38197881323948 L 14.539160194685525,-37.53443268269475 L 13.657110189874384,-38.416482687505905 " />
        <path style="fill:none;stroke:#50514F;stroke-width:0.1px;stroke-linecap:square" d="M 15.493884240160973,-35.2295249437842 L 15.016522217423251,-36.38197881323948 L 14.539160194685525,-37.53443268269475 L 13.657110189874384,-38.416482687505905 L 12.77506018506324,-39.29853269231705 L 11.893010180252096,-40.1805826971282 L 11.010960175440955,-41.06263270193935 L 9.858506305985685,-41.53999472467707 " />
        <path style="fill:none;stroke:#50514F;stroke-width:0.1px;stroke-linecap:square" d="M 14.539160194685525,-37.53443268269475 L 14.539160194685525,-38.781839762189925 L 14.539160194685525,-40.029246841685094 L 14.061798171947801,-41.18170071114037 " />
        <path style="fill:none;stroke:#50514F;stroke-width:0.1px;stroke-linecap:square" d="M 18.35805637658732,-28.31480172705255 L 18.83541839932505,-29.467255596507822 L 19.312780422062772,-30.61970946596309 L 20.194830426873917,-31.50175947077424 L 21.07688043168506,-32.38380947558539 L 21.55424245442278,-33.536263345040666 " />
        <path style="fill:none;stroke:#50514F;stroke-width:0.1px;stroke-linecap:square" d="M 19.312780422062772,-30.61970946596309 L 19.790142444800498,-31.772163335418366 L 20.26750446753822,-32.92461720487364 L 20.26750446753822,-34.17202428436882 " />
        <path style="fill:none;stroke:#50514F;stroke-width:0.1px;stroke-linecap:square" d="M 19.312780422062772,-30.61970946596309 L 19.790142444800498,-31.772163335418366 L 20.26750446753822,-32.92461720487364 L 20.26750446753822,-34.17202428436882 L 20.26750446753822,-35.419431363863985 L 20.26750446753822,-36.66683844335916 L 20.26750446753822,-37.91424552285433 L 19.790142444800498,-39.06669939230961 " />
        <path style="fill:none;stroke:#50514F;stroke-width:0.1px;stroke-linecap:square" d="M 20.26750446753822,-32.92461720487364 L 21.149554472349365,-33.8066672096848 L 22.031604477160506,-34.688717214495945 L 22.508966499898236,-35.841171083951224 " />
        <path style="fill:none;stroke:#50514F;stroke-width:0.1px;stroke-linecap:square" d="M 18.35805637658732,-8.356288455129798 L 19.24010638139847,-9.23833845994094 L 20.12215638620961,-10.12038846475208 L 21.00420639102075,-11.002438469563222 L 21.886256395831897,-11.884488474374363 L 23.038710265287165,-12.36185049711209 L 24.191164134742433,-12.839212519849816 L 25.438571214237605,-12.839212519849816 L 26.685978293732777,-12.839212519849816 L 27.838432163188045,-13.316574542587544 " />
        <path style="fill:none;stroke:#50514F;stroke-width:0.1px;stroke-linecap:square" d="M 24.191164134742433,-12.839212519849816 L 25.3436180041977,-13.316574542587544 L 26.49607187365297,-13.79393656532527 L 27.378121878464114,-14.675986570136411 " />
        <path style="fill:none;stroke:#50514F;stroke-width:0.1px;stroke-linecap:square" d="M 24.191164134742433,-12.839212519849816 L 25.3436180041977,-13.316574542587544 L 26.49607187365297,-13.79393656532527 L 27.378121878464114,-14.675986570136411 L 28.260171883275255,-15.558036574947552 L 29.142221888086397,-16.440086579758695 L 30.02427189289754,-17.322136584569837 L 30.501633915635267,-18.474590454025105 " />
        <path style="fill:none;stroke:#50514F;stroke-width:0.1px;stroke-linecap:square" d="M 26.49607187365297,-13.79393656532527 L 27.74347895314814,-13.79393656532527 L 28.990886032643314,-13.79393656532527 L 30.14333990209858,-14.271298588062997 " />
        <path style="fill:none;stroke:#50514F;stroke-width:0.1px;stroke-linecap:square" d="M 21.886256395831897,-11.884488474374363 L 22.76830640064304,-12.766538479185504 L 23.650356405454183,-13.648588483996646 L 24.80281027490945,-14.125950506734373 L 25.95526414436472,-14.603312529472099 L 26.83731414917586,-15.48536253428324 " />
        <path style="fill:none;stroke:#50514F;stroke-width:0.1px;stroke-linecap:square" d="M 23.650356405454183,-13.648588483996646 L 24.532406410265324,-14.530638488807787 L 25.41445641507647,-15.412688493618928 L 25.89181843781419,-16.565142363074195 " />
        <path style="fill:none;stroke:#50514F;stroke-width:0.1px;stroke-linecap:square" d="M 23.650356405454183,-13.648588483996646 L 24.532406410265324,-14.530638488807787 L 25.41445641507647,-15.412688493618928 L 25.89181843781419,-16.565142363074195 L 26.36918046055192,-17.717596232529466 L 26.846542483289646,-18.870050101984734 L 27.323904506027368,-20.022503971440003 L 27.323904506027368,-21.269911050935175 " />
        <path style="fill:none;stroke:#50514F;stroke-width:0.1px;stroke-linecap:square" d="M 25.41445641507647,-15.412688493618928 L 26.566910284531737,-15.890050516356656 L 27.719364153987005,-16.36741253909438 L 28.601414158798153,-17.249462543905523 " />
        <path style="fill:none;stroke:#50514F;stroke-width:0.1px;stroke-linecap:square" d="M 21.886256395831897,-11.884488474374363 L 22.76830640064304,-12.766538479185504 L 23.650356405454183,-13.648588483996646 L 24.532406410265324,-14.530638488807787 L 25.41445641507647,-15.412688493618928 L 25.89181843781419,-16.565142363074195 L 26.36918046055192,-17.717596232529466 L 26.846542483289646,-18.870050101984734 L 27.323904506027368,-20.022503971440003 L 27.80126652876509,-21.17495784089527 L 28.278628551502816,-22.32741171035054 L 29.160678556313957,-23.20946171516168 L 30.042728561125106,-24.09151171997282 L 30.520090583862828,-25.24396558942809 " />
        <path style="fill:none;stroke:#50514F;stroke-width:0.1px;stroke-linecap:square" d="M 28.278628551502816,-22.32741171035054 L 28.755990574240545,-23.479865579805807 L 29.233352596978268,-24.632319449261075 L 29.233352596978268,-25.879726528756247 " />
        <path style="fill:none;stroke:#50514F;stroke-width:0.1px;stroke-linecap:square" d="M 28.278628551502816,-22.32741171035054 L 28.755990574240545,-23.479865579805807 L 29.233352596978268,-24.632319449261075 L 29.233352596978268,-25.879726528756247 L 29.233352596978268,-27.12713360825142 L 29.233352596978268,-28.37454068774659 L 29.233352596978268,-29.621947767241764 L 28.755990574240545,-30.77440163669704 " />
        <path style="fill:none;stroke:#50514F;stroke-width:0.1px;stroke-linecap:square" d="M 29.233352596978268,-24.632319449261075 L 30.115402601789413,-25.514369454072217 L 30.997452606600554,-26.396419458883358 L 31.47481462933828,-27.548873328338626 " />
        <path style="fill:none;stroke:#50514F;stroke-width:0.1px;stroke-linecap:square" d="M 25.41445641507647,-15.412688493618928 L 26.566910284531737,-15.890050516356656 L 27.719364153987005,-16.36741253909438 L 28.966771233482177,-16.36741253909438 L 30.21417831297735,-16.36741253909438 L 31.366632182432618,-16.844774561832107 " />
        <path style="fill:none;stroke:#50514F;stroke-width:0.1px;stroke-linecap:square" d="M 27.719364153987005,-16.36741253909438 L 28.871818023442273,-16.844774561832107 L 30.02427189289754,-17.322136584569837 L 30.906321897708683,-18.204186589380978 " />
        <path style="fill:none;stroke:#50514F;stroke-width:0.1px;stroke-linecap:square" d="M 27.719364153987005,-16.36741253909438 L 28.871818023442273,-16.844774561832107 L 30.02427189289754,-17.322136584569837 L 30.906321897708683,-18.204186589380978 L 31.788371902519824,-19.08623659419212 L 32.67042190733097,-19.96828659900326 L 33.55247191214211,-20.8503366038144 L 34.02983393487983,-22.00279047326967 " />
        <path style="fill:none;stroke:#50514F;stroke-width:0.1px;stroke-linecap:square" d="M 30.02427189289754,-17.322136584569837 L 31.271678972392714,-17.322136584569837 L 32.51908605188789,-17.322136584569837 L 33.671539921343154,-17.799498607307562 " />
    </g>
</svg>
