<?xml version="1.0" encoding="UTF-8"?>
<!DOCTYPE svg PUBLIC "-//W3C//DTD SVG 1.1//EN"
    "http://www.w3.org/Graphics/SVG/1.1/DTD/svg11.dtd">

<svg xmlns="http://www.w3.org/2000/svg" xmlns:xlink="http://www.w3.org/1999/xlink" version="1.1" width="224.06070946840399" height="500" viewBox="-26.887285136208476 -60.0 53.77457027241695 120.0">
    <g>
        <rect x="-26.887285136208476" y="-60.0" width="53.77457027241695" height="120.0" fill="#CBD4C2" />
        <path style="fill:none;stroke:#50514F;stroke-width:0.1px;stroke-linecap:square" d="M -3.478348878748625,50.0 L -3.478348878748625,46.774193548387096 L -4.581639663670137,43.74292702972287 " />
        <path style="fill:none;stroke:#50514F;stroke-width:0.1px;stroke-linecap:square" d="M -3.478348878748625,46.774193548387096 L -3.478348878748624,43.54838709677419 L -2.3750580938271124,40.51712057810997 " />
        <path style="fill:none;stroke:#50514F;stroke-width:0.1px;stroke-linecap:square" d="M -3.478348878748624,43.54838709677419 L -3.478348878748624,40.32258064516129 " />
        <path style="fill:none;stroke:#50514F;stroke-width:0.1px;stroke-linecap:square" d="M -3.478348878748624,43.54838709677419 L -4.581639663670136,40.51712057810997 L -6.6551480820138105,38.04600947127455 " />
        <path style="fill:none;stroke:#50514F;stroke-width:0.1px;stroke-linecap:square" d="M -4.581639663670136,40.51712057810997 L -5.684930448591648,37.48585405944575 L -5.684930448591648,34.260047607832846 " />
        <path style="fill:none;stroke:#50514F;stroke-width:0.1px;stroke-linecap:square" d="M -5.684930448591648,37.48585405944575 L -6.788221233513159,34.45458754078153 " />
        <path style="fill:none;stroke:#50514F;stroke-width:0.1px;stroke-linecap:square" d="M -3.478348878748624,43.54838709677419 L -3.478348878748624,40.32258064516129 L -4.581639663670136,37.29131412649706 " />
        <path style="fill:none;stroke:#50514F;stroke-width:0.1px;stroke-linecap:square" d="M -3.478348878748624,40.32258064516129 L -3.478348878748624,37.096774193548384 L -2.375058093827112,34.06550767488416 " />
        <path style="fill:none;stroke:#50514F;stroke-width:0.1px;stroke-linecap:square" d="M -3.478348878748624,37.096774193548384 L -3.478348878748624,33.87096774193548 " />
        <path style="fill:none;stroke:#50514F;stroke-width:0.1px;stroke-linecap:square" d="M -3.478348878748624,37.096774193548384 L -2.375058093827112,34.06550767488416 L -2.3750580938271115,30.83970122327126 " />
        <path style="fill:none;stroke:#50514F;stroke-width:0.1px;stroke-linecap:square" d="M -2.375058093827112,34.06550767488416 L -1.2717673089055999,31.03424115621994 L 0.8017411094380756,28.563130049384526 " />
        <path style="fill:none;stroke:#50514F;stroke-width:0.1px;stroke-linecap:square" d="M -1.2717673089055999,31.03424115621994 L -0.1684765239840875,28.00297463755572 " />
        <path style="fill:none;stroke:#50514F;stroke-width:0.1px;stroke-linecap:square" d="M -3.478348878748624,37.096774193548384 L -3.478348878748624,33.87096774193548 L -4.581639663670136,30.83970122327126 " />
        <path style="fill:none;stroke:#50514F;stroke-width:0.1px;stroke-linecap:square" d="M -3.478348878748624,33.87096774193548 L -3.478348878748623,30.64516129032258 L -2.3750580938271115,27.613894771658355 " />
        <path style="fill:none;stroke:#50514F;stroke-width:0.1px;stroke-linecap:square" d="M -3.478348878748623,30.64516129032258 L -3.478348878748623,27.419354838709676 " />
        <path style="fill:none;stroke:#50514F;stroke-width:0.1px;stroke-linecap:square" d="M -3.478348878748624,37.096774193548384 L -4.581639663670136,34.06550767488416 L -6.6551480820138105,31.594396568048747 " />
        <path style="fill:none;stroke:#50514F;stroke-width:0.1px;stroke-linecap:square" d="M -4.581639663670136,34.06550767488416 L -5.684930448591648,31.03424115621994 L -5.684930448591648,27.808434704607038 " />
        <path style="fill:none;stroke:#50514F;stroke-width:0.1px;stroke-linecap:square" d="M -5.684930448591648,31.03424115621994 L -6.788221233513159,28.00297463755572 " />
        <path style="fill:none;stroke:#50514F;stroke-width:0.1px;stroke-linecap:square" d="M -5.684930448591648,31.03424115621994 L -7.7584388669353235,28.563130049384526 L -10.552069201723834,26.950226823578074 " />
        <path style="fill:none;stroke:#50514F;stroke-width:0.1px;stroke-linecap:square" d="M -7.7584388669353235,28.563130049384526 L -9.831947285278996,26.092018942549117 L -10.935238070200509,23.060752423884892 " />
        <path style="fill:none;stroke:#50514F;stroke-width:0.1px;stroke-linecap:square" d="M -9.831947285278996,26.092018942549117 L -11.905455703622673,23.6209078357137 " />
        <path style="fill:none;stroke:#50514F;stroke-width:0.1px;stroke-linecap:square" d="M -5.684930448591648,31.03424115621994 L -6.788221233513159,28.00297463755572 L -8.861729651856834,25.531863530720308 " />
        <path style="fill:none;stroke:#50514F;stroke-width:0.1px;stroke-linecap:square" d="M -6.788221233513159,28.00297463755572 L -7.891512018434672,24.971708118891495 L -7.891512018434672,21.745901667278595 " />
        <path style="fill:none;stroke:#50514F;stroke-width:0.1px;stroke-linecap:square" d="M -7.891512018434672,24.971708118891495 L -8.994802803356183,21.940441600227274 " />
        <path style="fill:none;stroke:#50514F;stroke-width:0.1px;stroke-linecap:square" d="M -7.891512018434672,24.971708118891495 L -7.891512018434672,21.745901667278595 L -8.994802803356183,18.714635148614374 " />
        <path style="fill:none;stroke:#50514F;stroke-width:0.1px;stroke-linecap:square" d="M -7.891512018434672,21.745901667278595 L -7.891512018434672,18.52009521566569 L -6.788221233513159,15.48882869700147 " />
        <path style="fill:none;stroke:#50514F;stroke-width:0.1px;stroke-linecap:square" d="M -7.891512018434672,18.52009521566569 L -7.891512018434672,15.294288764052787 " />
        <path style="fill:none;stroke:#50514F;stroke-width:0.1px;stroke-linecap:square" d="M -7.891512018434672,24.971708118891495 L -8.994802803356183,21.940441600227274 L -11.068311221699858,19.46933049339186 " />
        <path style="fill:none;stroke:#50514F;stroke-width:0.1px;stroke-linecap:square" d="M -8.994802803356183,21.940441600227274 L -10.098093588277694,18.909175081563053 L -10.098093588277694,15.68336862995015 " />
        <path style="fill:none;stroke:#50514F;stroke-width:0.1px;stroke-linecap:square" d="M -10.098093588277694,18.909175081563053 L -11.201384373199204,15.877908562898831 " />
        <path style="fill:none;stroke:#50514F;stroke-width:0.1px;stroke-linecap:square" d="M -3.478348878748624,37.096774193548384 L -3.478348878748624,33.87096774193548 L -4.581639663670136,30.83970122327126 " />
        <path style="fill:none;stroke:#50514F;stroke-width:0.1px;stroke-linecap:square" d="M -3.478348878748624,33.87096774193548 L -3.478348878748623,30.64516129032258 L -2.3750580938271115,27.613894771658355 " />
        <path style="fill:none;stroke:#50514F;stroke-width:0.1px;stroke-linecap:square" d="M -3.478348878748623,30.64516129032258 L -3.478348878748623,27.419354838709676 " />
        <path style="fill:none;stroke:#50514F;stroke-width:0.1px;stroke-linecap:square" d="M -3.478348878748623,30.64516129032258 L -4.581639663670135,27.613894771658355 L -6.65514808201381,25.142783664822943 " />
        <path style="fill:none;stroke:#50514F;stroke-width:0.1px;stroke-linecap:square" d="M -4.581639663670135,27.613894771658355 L -5.684930448591647,24.582628252994134 L -5.684930448591647,21.356821801381233 " />
        <path style="fill:none;stroke:#50514F;stroke-width:0.1px;stroke-linecap:square" d="M -5.684930448591647,24.582628252994134 L -6.788221233513158,21.551361734329912 " />
        <path style="fill:none;stroke:#50514F;stroke-width:0.1px;stroke-linecap:square" d="M -3.478348878748623,30.64516129032258 L -3.478348878748623,27.419354838709676 L -4.581639663670135,24.388088320045455 " />
        <path style="fill:none;stroke:#50514F;stroke-width:0.1px;stroke-linecap:square" d="M -3.478348878748623,27.419354838709676 L -3.478348878748623,24.193548387096772 L -2.375058093827111,21.16228186843255 " />
        <path style="fill:none;stroke:#50514F;stroke-width:0.1px;stroke-linecap:square" d="M -3.478348878748623,24.193548387096772 L -3.478348878748623,20.96774193548387 " />
        <path style="fill:none;stroke:#50514F;stroke-width:0.1px;stroke-linecap:square" d="M -3.478348878748623,24.193548387096772 L -2.375058093827111,21.16228186843255 L -2.375058093827111,17.936475416819647 " />
        <path style="fill:none;stroke:#50514F;stroke-width:0.1px;stroke-linecap:square" d="M -2.375058093827111,21.16228186843255 L -1.2717673089055992,18.13101534976833 L 0.8017411094380764,15.659904242932914 " />
        <path style="fill:none;stroke:#50514F;stroke-width:0.1px;stroke-linecap:square" d="M -1.2717673089055992,18.13101534976833 L -0.1684765239840875,15.099748831104106 " />
        <path style="fill:none;stroke:#50514F;stroke-width:0.1px;stroke-linecap:square" d="M -3.478348878748623,24.193548387096772 L -3.478348878748623,20.96774193548387 L -4.581639663670134,17.936475416819647 " />
        <path style="fill:none;stroke:#50514F;stroke-width:0.1px;stroke-linecap:square" d="M -3.478348878748623,20.96774193548387 L -3.4783488787486228,17.741935483870968 L -2.375058093827111,14.710668965206745 " />
        <path style="fill:none;stroke:#50514F;stroke-width:0.1px;stroke-linecap:square" d="M -3.4783488787486228,17.741935483870968 L -3.4783488787486228,14.516129032258064 " />
        <path style="fill:none;stroke:#50514F;stroke-width:0.1px;stroke-linecap:square" d="M -3.478348878748623,24.193548387096772 L -2.375058093827111,21.16228186843255 L -2.375058093827111,17.936475416819647 " />
        <path style="fill:none;stroke:#50514F;stroke-width:0.1px;stroke-linecap:square" d="M -2.375058093827111,21.16228186843255 L -1.2717673089055992,18.13101534976833 L 0.8017411094380764,15.659904242932914 " />
        <path style="fill:none;stroke:#50514F;stroke-width:0.1px;stroke-linecap:square" d="M -1.2717673089055992,18.13101534976833 L -0.1684765239840875,15.099748831104106 " />
        <path style="fill:none;stroke:#50514F;stroke-width:0.1px;stroke-linecap:square" d="M -1.2717673089055992,18.13101534976833 L -1.2717673089055992,14.905208898155426 L -2.375058093827111,11.873942379491204 " />
        <path style="fill:none;stroke:#50514F;stroke-width:0.1px;stroke-linecap:square" d="M -1.2717673089055992,14.905208898155426 L -1.2717673089055992,11.679402446542523 L -0.1684765239840875,8.6481359278783 " />
        <path style="fill:none;stroke:#50514F;stroke-width:0.1px;stroke-linecap:square" d="M -1.2717673089055992,11.679402446542523 L -1.2717673089055992,8.45359599492962 " />
        <path style="fill:none;stroke:#50514F;stroke-width:0.1px;stroke-linecap:square" d="M -1.2717673089055992,18.13101534976833 L -0.1684765239840875,15.099748831104106 L -0.1684765239840875,11.873942379491204 " />
        <path style="fill:none;stroke:#50514F;stroke-width:0.1px;stroke-linecap:square" d="M -0.1684765239840875,15.099748831104106 L 0.9348142609374249,12.068482312439885 L 3.0083226792811013,9.59737120560447 " />
        <path style="fill:none;stroke:#50514F;stroke-width:0.1px;stroke-linecap:square" d="M 0.9348142609374249,12.068482312439885 L 2.0381050458589374,9.037215793775664 " />
        <path style="fill:none;stroke:#50514F;stroke-width:0.1px;stroke-linecap:square" d="M 0.9348142609374249,12.068482312439885 L 3.0083226792811013,9.59737120560447 L 4.111613464202613,6.566104686940247 " />
        <path style="fill:none;stroke:#50514F;stroke-width:0.1px;stroke-linecap:square" d="M 3.0083226792811013,9.59737120560447 L 5.081831097624778,7.1262600987690545 L 7.87546143241329,5.513356872962603 " />
        <path style="fill:none;stroke:#50514F;stroke-width:0.1px;stroke-linecap:square" d="M 5.081831097624778,7.1262600987690545 L 7.155339515968454,4.655148991933639 " />
        <path style="fill:none;stroke:#50514F;stroke-width:0.1px;stroke-linecap:square" d="M 0.9348142609374249,12.068482312439885 L 2.0381050458589374,9.037215793775664 L 2.0381050458589374,5.81140934216276 " />
        <path style="fill:none;stroke:#50514F;stroke-width:0.1px;stroke-linecap:square" d="M 2.0381050458589374,9.037215793775664 L 3.14139583078045,6.0059492751114405 L 5.214904249124126,3.5348381682760257 " />
        <path style="fill:none;stroke:#50514F;stroke-width:0.1px;stroke-linecap:square" d="M 3.14139583078045,6.0059492751114405 L 4.244686615701962,2.9746827564472187 " />
        <path style="fill:none;stroke:#50514F;stroke-width:0.1px;stroke-linecap:square" d="M -3.478348878748623,24.193548387096772 L -3.478348878748623,20.96774193548387 L -4.581639663670134,17.936475416819647 " />
        <path style="fill:none;stroke:#50514F;stroke-width:0.1px;stroke-linecap:square" d="M -3.478348878748623,20.96774193548387 L -3.4783488787486228,17.741935483870968 L -2.375058093827111,14.710668965206745 " />
        <path style="fill:none;stroke:#50514F;stroke-width:0.1px;stroke-linecap:square" d="M -3.4783488787486228,17.741935483870968 L -3.4783488787486228,14.516129032258064 " />
        <path style="fill:none;stroke:#50514F;stroke-width:0.1px;stroke-linecap:square" d="M -3.4783488787486228,17.741935483870968 L -4.581639663670134,14.710668965206745 L -6.65514808201381,12.23955785837133 " />
        <path style="fill:none;stroke:#50514F;stroke-width:0.1px;stroke-linecap:square" d="M -4.581639663670134,14.710668965206745 L -5.684930448591646,11.679402446542523 L -5.684930448591646,8.45359599492962 " />
        <path style="fill:none;stroke:#50514F;stroke-width:0.1px;stroke-linecap:square" d="M -5.684930448591646,11.679402446542523 L -6.788221233513158,8.6481359278783 " />
        <path style="fill:none;stroke:#50514F;stroke-width:0.1px;stroke-linecap:square" d="M -3.4783488787486228,17.741935483870968 L -3.4783488787486228,14.516129032258064 L -4.581639663670134,11.484862513593841 " />
        <path style="fill:none;stroke:#50514F;stroke-width:0.1px;stroke-linecap:square" d="M -3.4783488787486228,14.516129032258064 L -3.4783488787486228,11.29032258064516 L -2.37505809382711,8.259056061980939 " />
        <path style="fill:none;stroke:#50514F;stroke-width:0.1px;stroke-linecap:square" d="M -3.4783488787486228,11.29032258064516 L -3.478348878748622,8.064516129032258 " />
        <path style="fill:none;stroke:#50514F;stroke-width:0.1px;stroke-linecap:square" d="M -3.4783488787486228,11.29032258064516 L -2.37505809382711,8.259056061980939 L -2.37505809382711,5.033249610368036 " />
        <path style="fill:none;stroke:#50514F;stroke-width:0.1px;stroke-linecap:square" d="M -2.37505809382711,8.259056061980939 L -1.2717673089055985,5.2277895433167165 L 0.8017411094380771,2.7566784364813013 " />
        <path style="fill:none;stroke:#50514F;stroke-width:0.1px;stroke-linecap:square" d="M -1.2717673089055985,5.2277895433167165 L -0.16847652398408605,2.1965230246524947 " />
        <path style="fill:none;stroke:#50514F;stroke-width:0.1px;stroke-linecap:square" d="M -3.4783488787486228,11.29032258064516 L -3.478348878748622,8.064516129032258 L -4.581639663670134,5.033249610368036 " />
        <path style="fill:none;stroke:#50514F;stroke-width:0.1px;stroke-linecap:square" d="M -3.478348878748622,8.064516129032258 L -3.478348878748622,4.838709677419354 L -2.37505809382711,1.8074431587551325 " />
        <path style="fill:none;stroke:#50514F;stroke-width:0.1px;stroke-linecap:square" d="M -3.478348878748622,4.838709677419354 L -3.478348878748622,1.6129032258064515 " />
        <path style="fill:none;stroke:#50514F;stroke-width:0.1px;stroke-linecap:square" d="M -3.478348878748623,24.193548387096772 L -4.581639663670135,21.16228186843255 L -6.65514808201381,18.691170761597135 " />
        <path style="fill:none;stroke:#50514F;stroke-width:0.1px;stroke-linecap:square" d="M -4.581639663670135,21.16228186843255 L -5.684930448591647,18.13101534976833 L -5.684930448591647,14.905208898155426 " />
        <path style="fill:none;stroke:#50514F;stroke-width:0.1px;stroke-linecap:square" d="M -5.684930448591647,18.13101534976833 L -6.788221233513158,15.099748831104106 " />
        <path style="fill:none;stroke:#50514F;stroke-width:0.1px;stroke-linecap:square" d="M -5.684930448591647,18.13101534976833 L -7.758438866935322,15.659904242932914 L -10.552069201723834,14.047001017126462 " />
        <path style="fill:none;stroke:#50514F;stroke-width:0.1px;stroke-linecap:square" d="M -7.758438866935322,15.659904242932914 L -9.831947285278996,13.188793136097498 L -10.935238070200507,10.157526617433277 " />
        <path style="fill:none;stroke:#50514F;stroke-width:0.1px;stroke-linecap:square" d="M -9.831947285278996,13.188793136097498 L -11.905455703622671,10.717682029262082 " />
        <path style="fill:none;stroke:#50514F;stroke-width:0.1px;stroke-linecap:square" d="M -5.684930448591647,18.13101534976833 L -6.788221233513158,15.099748831104106 L -8.861729651856834,12.62863772426869 " />
        <path style="fill:none;stroke:#50514F;stroke-width:0.1px;stroke-linecap:square" d="M -6.788221233513158,15.099748831104106 L -7.89151201843467,12.068482312439885 L -7.89151201843467,8.842675860826981 " />
        <path style="fill:none;stroke:#50514F;stroke-width:0.1px;stroke-linecap:square" d="M -7.89151201843467,12.068482312439885 L -8.994802803356183,9.037215793775664 " />
        <path style="fill:none;stroke:#50514F;stroke-width:0.1px;stroke-linecap:square" d="M -7.89151201843467,12.068482312439885 L -7.89151201843467,8.842675860826981 L -8.994802803356183,5.81140934216276 " />
        <path style="fill:none;stroke:#50514F;stroke-width:0.1px;stroke-linecap:square" d="M -7.89151201843467,8.842675860826981 L -7.89151201843467,5.616869409214079 L -6.788221233513158,2.5856028905498567 " />
        <path style="fill:none;stroke:#50514F;stroke-width:0.1px;stroke-linecap:square" d="M -7.89151201843467,5.616869409214079 L -7.89151201843467,2.3910629576011755 " />
        <path style="fill:none;stroke:#50514F;stroke-width:0.1px;stroke-linecap:square" d="M -7.89151201843467,12.068482312439885 L -8.994802803356183,9.037215793775664 L -11.068311221699856,6.566104686940247 " />
        <path style="fill:none;stroke:#50514F;stroke-width:0.1px;stroke-linecap:square" d="M -8.994802803356183,9.037215793775664 L -10.098093588277694,6.0059492751114405 L -10.098093588277694,2.780142823498538 " />
        <path style="fill:none;stroke:#50514F;stroke-width:0.1px;stroke-linecap:square" d="M -10.098093588277694,6.0059492751114405 L -11.201384373199204,2.9746827564472187 " />
        <path style="fill:none;stroke:#50514F;stroke-width:0.1px;stroke-linecap:square" d="M -7.89151201843467,12.068482312439885 L -9.965020436778346,9.59737120560447 L -12.758650771566856,7.984467979798018 " />
        <path style="fill:none;stroke:#50514F;stroke-width:0.1px;stroke-linecap:square" d="M -9.965020436778346,9.59737120560447 L -12.03852885512202,7.1262600987690545 L -13.141819640043533,4.094993580104832 " />
        <path style="fill:none;stroke:#50514F;stroke-width:0.1px;stroke-linecap:square" d="M -12.03852885512202,7.1262600987690545 L -14.112037273465695,4.655148991933639 " />
        <path style="fill:none;stroke:#50514F;stroke-width:0.1px;stroke-linecap:square" d="M -12.03852885512202,7.1262600987690545 L -14.832159189910533,5.513356872962603 L -18.00895839317572,4.953201461133796 " />
        <path style="fill:none;stroke:#50514F;stroke-width:0.1px;stroke-linecap:square" d="M -14.832159189910533,5.513356872962603 L -17.625789524699044,3.900453647156151 L -19.69929794304272,1.4293425403207358 " />
        <path style="fill:none;stroke:#50514F;stroke-width:0.1px;stroke-linecap:square" d="M -17.625789524699044,3.900453647156151 L -20.419419859487554,2.2875504213496995 " />
        <path style="fill:none;stroke:#50514F;stroke-width:0.1px;stroke-linecap:square" d="M -12.03852885512202,7.1262600987690545 L -14.112037273465695,4.655148991933639 L -16.905667608254205,3.0422457661271873 " />
        <path style="fill:none;stroke:#50514F;stroke-width:0.1px;stroke-linecap:square" d="M -14.112037273465695,4.655148991933639 L -16.18554569180937,2.1840378850982236 L -17.288836476730882,-0.8472286335659984 " />
        <path style="fill:none;stroke:#50514F;stroke-width:0.1px;stroke-linecap:square" d="M -16.18554569180937,2.1840378850982236 L -18.259054110153045,-0.28707322173719174 " />
        <path style="fill:none;stroke:#50514F;stroke-width:0.1px;stroke-linecap:square" d="M -16.18554569180937,2.1840378850982236 L -17.288836476730882,-0.8472286335659984 L -19.362344895074557,-3.318339740401414 " />
        <path style="fill:none;stroke:#50514F;stroke-width:0.1px;stroke-linecap:square" d="M -17.288836476730882,-0.8472286335659984 L -18.392127261652394,-3.8784951522302205 L -18.392127261652394,-7.1043016038431235 " />
        <path style="fill:none;stroke:#50514F;stroke-width:0.1px;stroke-linecap:square" d="M -18.392127261652394,-3.8784951522302205 L -19.495418046573903,-6.909761670894443 " />
        <path style="fill:none;stroke:#50514F;stroke-width:0.1px;stroke-linecap:square" d="M -16.18554569180937,2.1840378850982236 L -18.259054110153045,-0.28707322173719174 L -21.052684444941555,-1.8999764475436431 " />
        <path style="fill:none;stroke:#50514F;stroke-width:0.1px;stroke-linecap:square" d="M -18.259054110153045,-0.28707322173719174 L -20.33256252849672,-2.758184328572607 L -21.43585331341823,-5.789450847236829 " />
        <path style="fill:none;stroke:#50514F;stroke-width:0.1px;stroke-linecap:square" d="M -20.33256252849672,-2.758184328572607 L -22.406070946840398,-5.229295435408022 " />
        <path style="fill:none;stroke:#50514F;stroke-width:0.1px;stroke-linecap:square" d="M -7.89151201843467,12.068482312439885 L -8.994802803356183,9.037215793775664 L -11.068311221699856,6.566104686940247 " />
        <path style="fill:none;stroke:#50514F;stroke-width:0.1px;stroke-linecap:square" d="M -8.994802803356183,9.037215793775664 L -10.098093588277694,6.0059492751114405 L -10.098093588277694,2.780142823498538 " />
        <path style="fill:none;stroke:#50514F;stroke-width:0.1px;stroke-linecap:square" d="M -10.098093588277694,6.0059492751114405 L -11.201384373199204,2.9746827564472187 " />
        <path style="fill:none;stroke:#50514F;stroke-width:0.1px;stroke-linecap:square" d="M -10.098093588277694,6.0059492751114405 L -12.171602006621368,3.5348381682760257 L -14.96523234140988,1.921934942469574 " />
        <path style="fill:none;stroke:#50514F;stroke-width:0.1px;stroke-linecap:square" d="M -12.171602006621368,3.5348381682760257 L -14.245110424965043,1.0637270614406102 L -15.348401209886555,-1.9675394572236118 " />
        <path style="fill:none;stroke:#50514F;stroke-width:0.1px;stroke-linecap:square" d="M -14.245110424965043,1.0637270614406102 L -16.318618843308716,-1.407384045394805 " />
        <path style="fill:none;stroke:#50514F;stroke-width:0.1px;stroke-linecap:square" d="M -10.098093588277694,6.0059492751114405 L -11.201384373199204,2.9746827564472187 L -13.274892791542879,0.5035716496118036 " />
        <path style="fill:none;stroke:#50514F;stroke-width:0.1px;stroke-linecap:square" d="M -11.201384373199204,2.9746827564472187 L -12.304675158120716,-5.658376221700315e-2 L -12.304675158120716,-3.282390213829906 " />
        <path style="fill:none;stroke:#50514F;stroke-width:0.1px;stroke-linecap:square" d="M -12.304675158120716,-5.658376221700315e-2 L -13.407965943042226,-3.087850280881225 " />
        <path style="fill:none;stroke:#50514F;stroke-width:0.1px;stroke-linecap:square" d="M -12.304675158120716,-5.658376221700315e-2 L -12.304675158120716,-3.282390213829906 L -13.407965943042226,-6.313656732494128 " />
        <path style="fill:none;stroke:#50514F;stroke-width:0.1px;stroke-linecap:square" d="M -12.304675158120716,-3.282390213829906 L -12.304675158120716,-6.508196665442809 L -11.201384373199204,-9.539463184107031 " />
        <path style="fill:none;stroke:#50514F;stroke-width:0.1px;stroke-linecap:square" d="M -12.304675158120716,-6.508196665442809 L -12.304675158120716,-9.734003117055712 " />
        <path style="fill:none;stroke:#50514F;stroke-width:0.1px;stroke-linecap:square" d="M -12.304675158120716,-5.658376221700315e-2 L -13.407965943042226,-3.087850280881225 L -15.4814743613859,-5.55896138771664 " />
        <path style="fill:none;stroke:#50514F;stroke-width:0.1px;stroke-linecap:square" d="M -13.407965943042226,-3.087850280881225 L -14.511256727963739,-6.119116799545447 L -14.511256727963739,-9.34492325115835 " />
        <path style="fill:none;stroke:#50514F;stroke-width:0.1px;stroke-linecap:square" d="M -14.511256727963739,-6.119116799545447 L -15.614547512885249,-9.15038331820967 " />
        <path style="fill:none;stroke:#50514F;stroke-width:0.1px;stroke-linecap:square" d="M -12.304675158120716,-5.658376221700315e-2 L -12.304675158120716,-3.282390213829906 L -13.407965943042226,-6.313656732494128 " />
        <path style="fill:none;stroke:#50514F;stroke-width:0.1px;stroke-linecap:square" d="M -12.304675158120716,-3.282390213829906 L -12.304675158120716,-6.508196665442809 L -11.201384373199204,-9.539463184107031 " />
        <path style="fill:none;stroke:#50514F;stroke-width:0.1px;stroke-linecap:square" d="M -12.304675158120716,-6.508196665442809 L -12.304675158120716,-9.734003117055712 " />
        <path style="fill:none;stroke:#50514F;stroke-width:0.1px;stroke-linecap:square" d="M -12.304675158120716,-6.508196665442809 L -13.407965943042226,-9.539463184107031 L -15.4814743613859,-12.010574290942447 " />
        <path style="fill:none;stroke:#50514F;stroke-width:0.1px;stroke-linecap:square" d="M -13.407965943042226,-9.539463184107031 L -14.511256727963739,-12.570729702771253 L -14.511256727963739,-15.796536154384157 " />
        <path style="fill:none;stroke:#50514F;stroke-width:0.1px;stroke-linecap:square" d="M -14.511256727963739,-12.570729702771253 L -15.614547512885249,-15.601996221435476 " />
        <path style="fill:none;stroke:#50514F;stroke-width:0.1px;stroke-linecap:square" d="M -12.304675158120716,-6.508196665442809 L -12.304675158120716,-9.734003117055712 L -13.407965943042226,-12.765269635719934 " />
        <path style="fill:none;stroke:#50514F;stroke-width:0.1px;stroke-linecap:square" d="M -12.304675158120716,-9.734003117055712 L -12.304675158120716,-12.959809568668616 L -11.201384373199204,-15.991076087332837 " />
        <path style="fill:none;stroke:#50514F;stroke-width:0.1px;stroke-linecap:square" d="M -12.304675158120716,-12.959809568668616 L -12.304675158120716,-16.18561602028152 " />
        <path style="fill:none;stroke:#50514F;stroke-width:0.1px;stroke-linecap:square" d="M -12.304675158120716,-12.959809568668616 L -11.201384373199204,-15.991076087332837 L -11.201384373199204,-19.21688253894574 " />
        <path style="fill:none;stroke:#50514F;stroke-width:0.1px;stroke-linecap:square" d="M -11.201384373199204,-15.991076087332837 L -10.09809358827769,-19.02234260599706 L -8.024585169934015,-21.493453712832473 " />
        <path style="fill:none;stroke:#50514F;stroke-width:0.1px;stroke-linecap:square" d="M -10.09809358827769,-19.02234260599706 L -8.994802803356178,-22.053609124661282 " />
        <path style="fill:none;stroke:#50514F;stroke-width:0.1px;stroke-linecap:square" d="M -12.304675158120716,-12.959809568668616 L -12.304675158120716,-16.18561602028152 L -13.407965943042226,-19.21688253894574 " />
        <path style="fill:none;stroke:#50514F;stroke-width:0.1px;stroke-linecap:square" d="M -12.304675158120716,-16.18561602028152 L -12.304675158120716,-19.411422471894422 L -11.201384373199204,-22.442688990558644 " />
        <path style="fill:none;stroke:#50514F;stroke-width:0.1px;stroke-linecap:square" d="M -12.304675158120716,-19.411422471894422 L -12.304675158120716,-22.637228923507326 " />
        <path style="fill:none;stroke:#50514F;stroke-width:0.1px;stroke-linecap:square" d="M -12.304675158120716,-5.658376221700315e-2 L -13.407965943042226,-3.087850280881225 L -15.4814743613859,-5.55896138771664 " />
        <path style="fill:none;stroke:#50514F;stroke-width:0.1px;stroke-linecap:square" d="M -13.407965943042226,-3.087850280881225 L -14.511256727963739,-6.119116799545447 L -14.511256727963739,-9.34492325115835 " />
        <path style="fill:none;stroke:#50514F;stroke-width:0.1px;stroke-linecap:square" d="M -14.511256727963739,-6.119116799545447 L -15.614547512885249,-9.15038331820967 " />
        <path style="fill:none;stroke:#50514F;stroke-width:0.1px;stroke-linecap:square" d="M -14.511256727963739,-6.119116799545447 L -16.58476514630741,-8.590227906380862 L -19.37839548109592,-10.203131132187314 " />
        <path style="fill:none;stroke:#50514F;stroke-width:0.1px;stroke-linecap:square" d="M -16.58476514630741,-8.590227906380862 L -18.658273564651086,-11.061339013216278 L -19.7615643495726,-14.0926055318805 " />
        <path style="fill:none;stroke:#50514F;stroke-width:0.1px;stroke-linecap:square" d="M -18.658273564651086,-11.061339013216278 L -20.731781982994764,-13.532450120051694 " />
        <path style="fill:none;stroke:#50514F;stroke-width:0.1px;stroke-linecap:square" d="M -14.511256727963739,-6.119116799545447 L -15.614547512885249,-9.15038331820967 L -17.688055931228924,-11.621494425045084 " />
        <path style="fill:none;stroke:#50514F;stroke-width:0.1px;stroke-linecap:square" d="M -15.614547512885249,-9.15038331820967 L -16.71783829780676,-12.181649836873891 L -16.71783829780676,-15.407456288486793 " />
        <path style="fill:none;stroke:#50514F;stroke-width:0.1px;stroke-linecap:square" d="M -16.71783829780676,-12.181649836873891 L -17.82112908272827,-15.212916355538113 " />
        <path style="fill:none;stroke:#50514F;stroke-width:0.1px;stroke-linecap:square" d="M -16.71783829780676,-12.181649836873891 L -16.71783829780676,-15.407456288486793 L -17.82112908272827,-18.438722807151017 " />
        <path style="fill:none;stroke:#50514F;stroke-width:0.1px;stroke-linecap:square" d="M -16.71783829780676,-15.407456288486793 L -16.71783829780676,-18.633262740099696 L -15.614547512885245,-21.66452925876392 " />
        <path style="fill:none;stroke:#50514F;stroke-width:0.1px;stroke-linecap:square" d="M -16.71783829780676,-18.633262740099696 L -16.71783829780676,-21.8590691917126 " />
        <path style="fill:none;stroke:#50514F;stroke-width:0.1px;stroke-linecap:square" d="M -16.71783829780676,-12.181649836873891 L -17.82112908272827,-15.212916355538113 L -19.894637501071948,-17.68402746237353 " />
        <path style="fill:none;stroke:#50514F;stroke-width:0.1px;stroke-linecap:square" d="M -17.82112908272827,-15.212916355538113 L -18.92441986764978,-18.244182874202334 L -18.92441986764978,-21.469989325815238 " />
        <path style="fill:none;stroke:#50514F;stroke-width:0.1px;stroke-linecap:square" d="M -18.92441986764978,-18.244182874202334 L -20.027710652571294,-21.275449392866555 " />
        <path style="fill:none;stroke:#50514F;stroke-width:0.1px;stroke-linecap:square" d="M -3.478348878748623,24.193548387096772 L -3.478348878748623,20.96774193548387 L -4.581639663670134,17.936475416819647 " />
        <path style="fill:none;stroke:#50514F;stroke-width:0.1px;stroke-linecap:square" d="M -3.478348878748623,20.96774193548387 L -3.4783488787486228,17.741935483870968 L -2.375058093827111,14.710668965206745 " />
        <path style="fill:none;stroke:#50514F;stroke-width:0.1px;stroke-linecap:square" d="M -3.4783488787486228,17.741935483870968 L -3.4783488787486228,14.516129032258064 " />
        <path style="fill:none;stroke:#50514F;stroke-width:0.1px;stroke-linecap:square" d="M -3.4783488787486228,17.741935483870968 L -4.581639663670134,14.710668965206745 L -6.65514808201381,12.23955785837133 " />
        <path style="fill:none;stroke:#50514F;stroke-width:0.1px;stroke-linecap:square" d="M -4.581639663670134,14.710668965206745 L -5.684930448591646,11.679402446542523 L -5.684930448591646,8.45359599492962 " />
        <path style="fill:none;stroke:#50514F;stroke-width:0.1px;stroke-linecap:square" d="M -5.684930448591646,11.679402446542523 L -6.788221233513158,8.6481359278783 " />
        <path style="fill:none;stroke:#50514F;stroke-width:0.1px;stroke-linecap:square" d="M -3.4783488787486228,17.741935483870968 L -3.4783488787486228,14.516129032258064 L -4.581639663670134,11.484862513593841 " />
        <path style="fill:none;stroke:#50514F;stroke-width:0.1px;stroke-linecap:square" d="M -3.4783488787486228,14.516129032258064 L -3.4783488787486228,11.29032258064516 L -2.37505809382711,8.259056061980939 " />
        <path style="fill:none;stroke:#50514F;stroke-width:0.1px;stroke-linecap:square" d="M -3.4783488787486228,11.29032258064516 L -3.478348878748622,8.064516129032258 " />
        <path style="fill:none;stroke:#50514F;stroke-width:0.1px;stroke-linecap:square" d="M -3.4783488787486228,11.29032258064516 L -2.37505809382711,8.259056061980939 L -2.37505809382711,5.033249610368036 " />
        <path style="fill:none;stroke:#50514F;stroke-width:0.1px;stroke-linecap:square" d="M -2.37505809382711,8.259056061980939 L -1.2717673089055985,5.2277895433167165 L 0.8017411094380771,2.7566784364813013 " />
        <path style="fill:none;stroke:#50514F;stroke-width:0.1px;stroke-linecap:square" d="M -1.2717673089055985,5.2277895433167165 L -0.16847652398408605,2.1965230246524947 " />
        <path style="fill:none;stroke:#50514F;stroke-width:0.1px;stroke-linecap:square" d="M -3.4783488787486228,11.29032258064516 L -3.478348878748622,8.064516129032258 L -4.581639663670134,5.033249610368036 " />
        <path style="fill:none;stroke:#50514F;stroke-width:0.1px;stroke-linecap:square" d="M -3.478348878748622,8.064516129032258 L -3.478348878748622,4.838709677419354 L -2.37505809382711,1.8074431587551325 " />
        <path style="fill:none;stroke:#50514F;stroke-width:0.1px;stroke-linecap:square" d="M -3.478348878748622,4.838709677419354 L -3.478348878748622,1.6129032258064515 " />
        <path style="fill:none;stroke:#50514F;stroke-width:0.1px;stroke-linecap:square" d="M -3.4783488787486228,11.29032258064516 L -4.581639663670134,8.259056061980939 L -6.65514808201381,5.787944955145523 " />
        <path style="fill:none;stroke:#50514F;stroke-width:0.1px;stroke-linecap:square" d="M -4.581639663670134,8.259056061980939 L -5.684930448591646,5.2277895433167165 L -5.684930448591646,2.0019830917038135 " />
        <path style="fill:none;stroke:#50514F;stroke-width:0.1px;stroke-linecap:square" d="M -5.684930448591646,5.2277895433167165 L -6.788221233513158,2.1965230246524947 " />
        <path style="fill:none;stroke:#50514F;stroke-width:0.1px;stroke-linecap:square" d="M -5.684930448591646,5.2277895433167165 L -7.75843886693532,2.7566784364813013 L -10.552069201723832,1.1437752106748498 " />
        <path style="fill:none;stroke:#50514F;stroke-width:0.1px;stroke-linecap:square" d="M -7.75843886693532,2.7566784364813013 L -9.831947285278996,0.28556732964588605 L -10.935238070200507,-2.7456991890183358 " />
        <path style="fill:none;stroke:#50514F;stroke-width:0.1px;stroke-linecap:square" d="M -9.831947285278996,0.28556732964588605 L -11.90545570362267,-2.185543777189529 " />
        <path style="fill:none;stroke:#50514F;stroke-width:0.1px;stroke-linecap:square" d="M -5.684930448591646,5.2277895433167165 L -6.788221233513158,2.1965230246524947 L -8.861729651856832,-0.27458808218292063 " />
        <path style="fill:none;stroke:#50514F;stroke-width:0.1px;stroke-linecap:square" d="M -6.788221233513158,2.1965230246524947 L -7.8915120184346685,-0.8347434940117273 L -7.8915120184346685,-4.06054994562463 " />
        <path style="fill:none;stroke:#50514F;stroke-width:0.1px;stroke-linecap:square" d="M -7.8915120184346685,-0.8347434940117273 L -8.994802803356182,-3.8660100126759493 " />
        <path style="fill:none;stroke:#50514F;stroke-width:0.1px;stroke-linecap:square" d="M -7.8915120184346685,-0.8347434940117273 L -7.8915120184346685,-4.06054994562463 L -8.994802803356182,-7.091816464288852 " />
        <path style="fill:none;stroke:#50514F;stroke-width:0.1px;stroke-linecap:square" d="M -7.8915120184346685,-4.06054994562463 L -7.8915120184346685,-7.286356397237533 L -6.788221233513158,-10.317622915901755 " />
        <path style="fill:none;stroke:#50514F;stroke-width:0.1px;stroke-linecap:square" d="M -7.8915120184346685,-7.286356397237533 L -7.8915120184346685,-10.512162848850437 " />
        <path style="fill:none;stroke:#50514F;stroke-width:0.1px;stroke-linecap:square" d="M -7.8915120184346685,-0.8347434940117273 L -8.994802803356182,-3.8660100126759493 L -11.068311221699856,-6.337121119511365 " />
        <path style="fill:none;stroke:#50514F;stroke-width:0.1px;stroke-linecap:square" d="M -8.994802803356182,-3.8660100126759493 L -10.098093588277694,-6.897276531340172 L -10.098093588277694,-10.123082982953074 " />
        <path style="fill:none;stroke:#50514F;stroke-width:0.1px;stroke-linecap:square" d="M -10.098093588277694,-6.897276531340172 L -11.201384373199204,-9.928543050004393 " />
        <path style="fill:none;stroke:#50514F;stroke-width:0.1px;stroke-linecap:square" d="M -3.4783488787486228,11.29032258064516 L -3.478348878748622,8.064516129032258 L -4.581639663670134,5.033249610368036 " />
        <path style="fill:none;stroke:#50514F;stroke-width:0.1px;stroke-linecap:square" d="M -3.478348878748622,8.064516129032258 L -3.478348878748622,4.838709677419354 L -2.37505809382711,1.8074431587551325 " />
        <path style="fill:none;stroke:#50514F;stroke-width:0.1px;stroke-linecap:square" d="M -3.478348878748622,4.838709677419354 L -3.478348878748622,1.6129032258064515 " />
        <path style="fill:none;stroke:#50514F;stroke-width:0.1px;stroke-linecap:square" d="M -3.478348878748622,4.838709677419354 L -4.581639663670134,1.8074431587551325 L -6.65514808201381,-0.6636679480802827 " />
        <path style="fill:none;stroke:#50514F;stroke-width:0.1px;stroke-linecap:square" d="M -4.581639663670134,1.8074431587551325 L -5.684930448591645,-1.2238233599090895 L -5.684930448591645,-4.4496298115219926 " />
        <path style="fill:none;stroke:#50514F;stroke-width:0.1px;stroke-linecap:square" d="M -5.684930448591645,-1.2238233599090895 L -6.788221233513158,-4.255089878573312 " />
        <path style="fill:none;stroke:#50514F;stroke-width:0.1px;stroke-linecap:square" d="M -3.478348878748622,4.838709677419354 L -3.478348878748622,1.6129032258064515 L -4.581639663670134,-1.4183632928577705 " />
        <path style="fill:none;stroke:#50514F;stroke-width:0.1px;stroke-linecap:square" d="M -3.478348878748622,1.6129032258064515 L -3.478348878748622,-1.6129032258064515 L -2.3750580938271093,-4.644169744470673 " />
        <path style="fill:none;stroke:#50514F;stroke-width:0.1px;stroke-linecap:square" d="M -3.478348878748622,-1.6129032258064515 L -3.4783488787486214,-4.838709677419354 " />
        <path style="fill:none;stroke:#50514F;stroke-width:0.1px;stroke-linecap:square" d="M -3.478348878748622,-1.6129032258064515 L -2.3750580938271093,-4.644169744470673 L -2.3750580938271093,-7.869976196083576 " />
        <path style="fill:none;stroke:#50514F;stroke-width:0.1px;stroke-linecap:square" d="M -2.3750580938271093,-4.644169744470673 L -1.2717673089055974,-7.675436263134896 L 0.8017411094380779,-10.14654736997031 " />
        <path style="fill:none;stroke:#50514F;stroke-width:0.1px;stroke-linecap:square" d="M -1.2717673089055974,-7.675436263134896 L -0.16847652398408533,-10.706702781799118 " />
        <path style="fill:none;stroke:#50514F;stroke-width:0.1px;stroke-linecap:square" d="M -3.478348878748622,-1.6129032258064515 L -3.4783488787486214,-4.838709677419354 L -4.581639663670133,-7.869976196083576 " />
        <path style="fill:none;stroke:#50514F;stroke-width:0.1px;stroke-linecap:square" d="M -3.4783488787486214,-4.838709677419354 L -3.4783488787486214,-8.064516129032258 L -2.3750580938271093,-11.09578264769648 " />
        <path style="fill:none;stroke:#50514F;stroke-width:0.1px;stroke-linecap:square" d="M -3.4783488787486214,-8.064516129032258 L -3.4783488787486214,-11.29032258064516 " />
        <path style="fill:none;stroke:#50514F;stroke-width:0.1px;stroke-linecap:square" d="M -3.478348878748622,-1.6129032258064515 L -2.3750580938271093,-4.644169744470673 L -2.3750580938271093,-7.869976196083576 " />
        <path style="fill:none;stroke:#50514F;stroke-width:0.1px;stroke-linecap:square" d="M -2.3750580938271093,-4.644169744470673 L -1.2717673089055974,-7.675436263134896 L 0.8017411094380779,-10.14654736997031 " />
        <path style="fill:none;stroke:#50514F;stroke-width:0.1px;stroke-linecap:square" d="M -1.2717673089055974,-7.675436263134896 L -0.16847652398408533,-10.706702781799118 " />
        <path style="fill:none;stroke:#50514F;stroke-width:0.1px;stroke-linecap:square" d="M -1.2717673089055974,-7.675436263134896 L -1.271767308905597,-10.901242714747799 L -2.375058093827109,-13.93250923341202 " />
        <path style="fill:none;stroke:#50514F;stroke-width:0.1px;stroke-linecap:square" d="M -1.271767308905597,-10.901242714747799 L -1.271767308905597,-14.1270491663607 L -0.16847652398408464,-17.158315685024924 " />
        <path style="fill:none;stroke:#50514F;stroke-width:0.1px;stroke-linecap:square" d="M -1.271767308905597,-14.1270491663607 L -1.271767308905597,-17.352855617973603 " />
        <path style="fill:none;stroke:#50514F;stroke-width:0.1px;stroke-linecap:square" d="M -1.2717673089055974,-7.675436263134896 L -0.16847652398408533,-10.706702781799118 L -0.16847652398408533,-13.93250923341202 " />
        <path style="fill:none;stroke:#50514F;stroke-width:0.1px;stroke-linecap:square" d="M -0.16847652398408533,-10.706702781799118 L 0.9348142609374264,-13.73796930046334 L 3.0083226792811013,-16.209080407298753 " />
        <path style="fill:none;stroke:#50514F;stroke-width:0.1px;stroke-linecap:square" d="M 0.9348142609374264,-13.73796930046334 L 2.0381050458589387,-16.769235819127562 " />
        <path style="fill:none;stroke:#50514F;stroke-width:0.1px;stroke-linecap:square" d="M 0.9348142609374264,-13.73796930046334 L 3.0083226792811013,-16.209080407298753 L 4.111613464202613,-19.240346925962978 " />
        <path style="fill:none;stroke:#50514F;stroke-width:0.1px;stroke-linecap:square" d="M 3.0083226792811013,-16.209080407298753 L 5.081831097624778,-18.68019151413417 L 7.87546143241329,-20.29309473994062 " />
        <path style="fill:none;stroke:#50514F;stroke-width:0.1px;stroke-linecap:square" d="M 5.081831097624778,-18.68019151413417 L 7.155339515968454,-21.151302620969584 " />
        <path style="fill:none;stroke:#50514F;stroke-width:0.1px;stroke-linecap:square" d="M 0.9348142609374264,-13.73796930046334 L 2.0381050458589387,-16.769235819127562 L 2.0381050458589387,-19.995042270740463 " />
        <path style="fill:none;stroke:#50514F;stroke-width:0.1px;stroke-linecap:square" d="M 2.0381050458589387,-16.769235819127562 L 3.1413958307804513,-19.800502337791784 L 5.214904249124126,-22.2716134446272 " />
        <path style="fill:none;stroke:#50514F;stroke-width:0.1px;stroke-linecap:square" d="M 3.1413958307804513,-19.800502337791784 L 4.244686615701964,-22.831768856456005 " />
        <path style="fill:none;stroke:#50514F;stroke-width:0.1px;stroke-linecap:square" d="M -3.478348878748622,-1.6129032258064515 L -3.4783488787486214,-4.838709677419354 L -4.581639663670133,-7.869976196083576 " />
        <path style="fill:none;stroke:#50514F;stroke-width:0.1px;stroke-linecap:square" d="M -3.4783488787486214,-4.838709677419354 L -3.4783488787486214,-8.064516129032258 L -2.3750580938271093,-11.09578264769648 " />
        <path style="fill:none;stroke:#50514F;stroke-width:0.1px;stroke-linecap:square" d="M -3.4783488787486214,-8.064516129032258 L -3.4783488787486214,-11.29032258064516 " />
        <path style="fill:none;stroke:#50514F;stroke-width:0.1px;stroke-linecap:square" d="M -3.4783488787486214,-8.064516129032258 L -4.581639663670133,-11.09578264769648 L -6.655148082013808,-13.566893754531895 " />
        <path style="fill:none;stroke:#50514F;stroke-width:0.1px;stroke-linecap:square" d="M -4.581639663670133,-11.09578264769648 L -5.684930448591644,-14.1270491663607 L -5.684930448591644,-17.352855617973603 " />
        <path style="fill:none;stroke:#50514F;stroke-width:0.1px;stroke-linecap:square" d="M -5.684930448591644,-14.1270491663607 L -6.788221233513156,-17.158315685024924 " />
        <path style="fill:none;stroke:#50514F;stroke-width:0.1px;stroke-linecap:square" d="M -3.4783488787486214,-8.064516129032258 L -3.4783488787486214,-11.29032258064516 L -4.581639663670133,-14.321589099309383 " />
        <path style="fill:none;stroke:#50514F;stroke-width:0.1px;stroke-linecap:square" d="M -3.4783488787486214,-11.29032258064516 L -3.4783488787486205,-14.516129032258064 L -2.375058093827109,-17.547395550922285 " />
        <path style="fill:none;stroke:#50514F;stroke-width:0.1px;stroke-linecap:square" d="M -3.4783488787486205,-14.516129032258064 L -3.4783488787486205,-17.741935483870968 " />
        <path style="fill:none;stroke:#50514F;stroke-width:0.1px;stroke-linecap:square" d="M -3.4783488787486205,-14.516129032258064 L -2.375058093827109,-17.547395550922285 L -2.375058093827109,-20.77320200253519 " />
        <path style="fill:none;stroke:#50514F;stroke-width:0.1px;stroke-linecap:square" d="M -2.375058093827109,-17.547395550922285 L -1.2717673089055967,-20.578662069586507 L 0.8017411094380792,-23.049773176421922 " />
        <path style="fill:none;stroke:#50514F;stroke-width:0.1px;stroke-linecap:square" d="M -1.2717673089055967,-20.578662069586507 L -0.16847652398408464,-23.609928588250728 " />
        <path style="fill:none;stroke:#50514F;stroke-width:0.1px;stroke-linecap:square" d="M -3.4783488787486205,-14.516129032258064 L -3.4783488787486205,-17.741935483870968 L -4.581639663670132,-20.77320200253519 " />
        <path style="fill:none;stroke:#50514F;stroke-width:0.1px;stroke-linecap:square" d="M -3.4783488787486205,-17.741935483870968 L -3.4783488787486205,-20.96774193548387 L -2.3750580938271084,-23.999008454148093 " />
        <path style="fill:none;stroke:#50514F;stroke-width:0.1px;stroke-linecap:square" d="M -3.4783488787486205,-20.96774193548387 L -3.4783488787486205,-24.193548387096772 " />
        <path style="fill:none;stroke:#50514F;stroke-width:0.1px;stroke-linecap:square" d="M -3.478348878748622,-1.6129032258064515 L -2.3750580938271093,-4.644169744470673 L -2.3750580938271093,-7.869976196083576 " />
        <path style="fill:none;stroke:#50514F;stroke-width:0.1px;stroke-linecap:square" d="M -2.3750580938271093,-4.644169744470673 L -1.2717673089055974,-7.675436263134896 L 0.8017411094380779,-10.14654736997031 " />
        <path style="fill:none;stroke:#50514F;stroke-width:0.1px;stroke-linecap:square" d="M -1.2717673089055974,-7.675436263134896 L -0.16847652398408533,-10.706702781799118 " />
        <path style="fill:none;stroke:#50514F;stroke-width:0.1px;stroke-linecap:square" d="M -1.2717673089055974,-7.675436263134896 L -1.271767308905597,-10.901242714747799 L -2.375058093827109,-13.93250923341202 " />
        <path style="fill:none;stroke:#50514F;stroke-width:0.1px;stroke-linecap:square" d="M -1.271767308905597,-10.901242714747799 L -1.271767308905597,-14.1270491663607 L -0.16847652398408464,-17.158315685024924 " />
        <path style="fill:none;stroke:#50514F;stroke-width:0.1px;stroke-linecap:square" d="M -1.271767308905597,-14.1270491663607 L -1.271767308905597,-17.352855617973603 " />
        <path style="fill:none;stroke:#50514F;stroke-width:0.1px;stroke-linecap:square" d="M -1.2717673089055974,-7.675436263134896 L -0.16847652398408533,-10.706702781799118 L -0.16847652398408533,-13.93250923341202 " />
        <path style="fill:none;stroke:#50514F;stroke-width:0.1px;stroke-linecap:square" d="M -0.16847652398408533,-10.706702781799118 L 0.9348142609374264,-13.73796930046334 L 3.0083226792811013,-16.209080407298753 " />
        <path style="fill:none;stroke:#50514F;stroke-width:0.1px;stroke-linecap:square" d="M 0.9348142609374264,-13.73796930046334 L 2.0381050458589387,-16.769235819127562 " />
        <path style="fill:none;stroke:#50514F;stroke-width:0.1px;stroke-linecap:square" d="M 0.9348142609374264,-13.73796930046334 L 3.0083226792811013,-16.209080407298753 L 4.111613464202613,-19.240346925962978 " />
        <path style="fill:none;stroke:#50514F;stroke-width:0.1px;stroke-linecap:square" d="M 3.0083226792811013,-16.209080407298753 L 5.081831097624778,-18.68019151413417 L 7.87546143241329,-20.29309473994062 " />
        <path style="fill:none;stroke:#50514F;stroke-width:0.1px;stroke-linecap:square" d="M 5.081831097624778,-18.68019151413417 L 7.155339515968454,-21.151302620969584 " />
        <path style="fill:none;stroke:#50514F;stroke-width:0.1px;stroke-linecap:square" d="M 0.9348142609374264,-13.73796930046334 L 2.0381050458589387,-16.769235819127562 L 2.0381050458589387,-19.995042270740463 " />
        <path style="fill:none;stroke:#50514F;stroke-width:0.1px;stroke-linecap:square" d="M 2.0381050458589387,-16.769235819127562 L 3.1413958307804513,-19.800502337791784 L 5.214904249124126,-22.2716134446272 " />
        <path style="fill:none;stroke:#50514F;stroke-width:0.1px;stroke-linecap:square" d="M 3.1413958307804513,-19.800502337791784 L 4.244686615701964,-22.831768856456005 " />
        <path style="fill:none;stroke:#50514F;stroke-width:0.1px;stroke-linecap:square" d="M 0.9348142609374264,-13.73796930046334 L 0.9348142609374264,-16.96377575207624 L -0.16847652398408533,-19.995042270740463 " />
        <path style="fill:none;stroke:#50514F;stroke-width:0.1px;stroke-linecap:square" d="M 0.9348142609374264,-16.96377575207624 L 0.9348142609374264,-20.189582203689145 L 2.0381050458589387,-23.220848722353367 " />
        <path style="fill:none;stroke:#50514F;stroke-width:0.1px;stroke-linecap:square" d="M 0.9348142609374264,-20.189582203689145 L 0.9348142609374264,-23.41538865530205 " />
        <path style="fill:none;stroke:#50514F;stroke-width:0.1px;stroke-linecap:square" d="M 0.9348142609374264,-20.189582203689145 L -0.16847652398408533,-23.220848722353367 L -2.2419849423277602,-25.691959829188782 " />
        <path style="fill:none;stroke:#50514F;stroke-width:0.1px;stroke-linecap:square" d="M -0.16847652398408533,-23.220848722353367 L -1.271767308905597,-26.252115241017588 L -1.271767308905597,-29.477921692630492 " />
        <path style="fill:none;stroke:#50514F;stroke-width:0.1px;stroke-linecap:square" d="M -1.271767308905597,-26.252115241017588 L -2.375058093827109,-29.283381759681813 " />
        <path style="fill:none;stroke:#50514F;stroke-width:0.1px;stroke-linecap:square" d="M 0.9348142609374264,-20.189582203689145 L 0.9348142609374264,-23.41538865530205 L -0.16847652398408533,-26.44665517396627 " />
        <path style="fill:none;stroke:#50514F;stroke-width:0.1px;stroke-linecap:square" d="M 0.9348142609374264,-23.41538865530205 L 0.9348142609374264,-26.641195106914953 L 2.0381050458589387,-29.672461625579174 " />
        <path style="fill:none;stroke:#50514F;stroke-width:0.1px;stroke-linecap:square" d="M 0.9348142609374264,-26.641195106914953 L 0.9348142609374264,-29.867001558527853 " />
        <path style="fill:none;stroke:#50514F;stroke-width:0.1px;stroke-linecap:square" d="M 0.9348142609374264,-26.641195106914953 L 2.0381050458589387,-29.672461625579174 L 2.0381050458589387,-32.89826807719208 " />
        <path style="fill:none;stroke:#50514F;stroke-width:0.1px;stroke-linecap:square" d="M 2.0381050458589387,-29.672461625579174 L 3.1413958307804513,-32.70372814424339 L 5.214904249124126,-35.17483925107881 " />
        <path style="fill:none;stroke:#50514F;stroke-width:0.1px;stroke-linecap:square" d="M 3.1413958307804513,-32.70372814424339 L 4.244686615701964,-35.73499466290762 " />
        <path style="fill:none;stroke:#50514F;stroke-width:0.1px;stroke-linecap:square" d="M 0.9348142609374264,-26.641195106914953 L 0.9348142609374264,-29.867001558527853 L -0.16847652398408533,-32.89826807719208 " />
        <path style="fill:none;stroke:#50514F;stroke-width:0.1px;stroke-linecap:square" d="M 0.9348142609374264,-29.867001558527853 L 0.9348142609374264,-33.09280801014076 L 2.0381050458589387,-36.12407452880498 " />
        <path style="fill:none;stroke:#50514F;stroke-width:0.1px;stroke-linecap:square" d="M 0.9348142609374264,-33.09280801014076 L 0.9348142609374264,-36.31861446175366 " />
        <path style="fill:none;stroke:#50514F;stroke-width:0.1px;stroke-linecap:square" d="M 0.9348142609374264,-13.73796930046334 L 2.0381050458589387,-16.769235819127562 L 2.0381050458589387,-19.995042270740463 " />
        <path style="fill:none;stroke:#50514F;stroke-width:0.1px;stroke-linecap:square" d="M 2.0381050458589387,-16.769235819127562 L 3.1413958307804513,-19.800502337791784 L 5.214904249124126,-22.2716134446272 " />
        <path style="fill:none;stroke:#50514F;stroke-width:0.1px;stroke-linecap:square" d="M 3.1413958307804513,-19.800502337791784 L 4.244686615701964,-22.831768856456005 " />
        <path style="fill:none;stroke:#50514F;stroke-width:0.1px;stroke-linecap:square" d="M 3.1413958307804513,-19.800502337791784 L 3.1413958307804513,-23.026308789404688 L 2.0381050458589396,-26.05757530806891 " />
        <path style="fill:none;stroke:#50514F;stroke-width:0.1px;stroke-linecap:square" d="M 3.1413958307804513,-23.026308789404688 L 3.1413958307804513,-26.252115241017588 L 4.244686615701964,-29.283381759681813 " />
        <path style="fill:none;stroke:#50514F;stroke-width:0.1px;stroke-linecap:square" d="M 3.1413958307804513,-26.252115241017588 L 3.1413958307804513,-29.477921692630492 " />
        <path style="fill:none;stroke:#50514F;stroke-width:0.1px;stroke-linecap:square" d="M 3.1413958307804513,-19.800502337791784 L 4.244686615701964,-22.831768856456005 L 4.244686615701964,-26.05757530806891 " />
        <path style="fill:none;stroke:#50514F;stroke-width:0.1px;stroke-linecap:square" d="M 4.244686615701964,-22.831768856456005 L 5.347977400623476,-25.863035375120226 L 7.421485818967151,-28.334146481955642 " />
        <path style="fill:none;stroke:#50514F;stroke-width:0.1px;stroke-linecap:square" d="M 5.347977400623476,-25.863035375120226 L 6.451268185544989,-28.894301893784448 " />
        <path style="fill:none;stroke:#50514F;stroke-width:0.1px;stroke-linecap:square" d="M 5.347977400623476,-25.863035375120226 L 7.421485818967151,-28.334146481955642 L 8.524776603888663,-31.365413000619863 " />
        <path style="fill:none;stroke:#50514F;stroke-width:0.1px;stroke-linecap:square" d="M 7.421485818967151,-28.334146481955642 L 9.494994237310827,-30.805257588791058 L 12.28862457209934,-32.418160814597506 " />
        <path style="fill:none;stroke:#50514F;stroke-width:0.1px;stroke-linecap:square" d="M 9.494994237310827,-30.805257588791058 L 11.568502655654504,-33.27636869562647 " />
        <path style="fill:none;stroke:#50514F;stroke-width:0.1px;stroke-linecap:square" d="M 5.347977400623476,-25.863035375120226 L 6.451268185544989,-28.894301893784448 L 6.451268185544989,-32.120108345397355 " />
        <path style="fill:none;stroke:#50514F;stroke-width:0.1px;stroke-linecap:square" d="M 6.451268185544989,-28.894301893784448 L 7.554558970466501,-31.925568412448673 L 9.628067388810177,-34.396679519284085 " />
        <path style="fill:none;stroke:#50514F;stroke-width:0.1px;stroke-linecap:square" d="M 7.554558970466501,-31.925568412448673 L 8.657849755388014,-34.956834931112894 " />
        <path style="fill:none;stroke:#50514F;stroke-width:0.1px;stroke-linecap:square" d="M 5.347977400623476,-25.863035375120226 L 7.421485818967151,-28.334146481955642 L 8.524776603888663,-31.365413000619863 " />
        <path style="fill:none;stroke:#50514F;stroke-width:0.1px;stroke-linecap:square" d="M 7.421485818967151,-28.334146481955642 L 9.494994237310827,-30.805257588791058 L 12.28862457209934,-32.418160814597506 " />
        <path style="fill:none;stroke:#50514F;stroke-width:0.1px;stroke-linecap:square" d="M 9.494994237310827,-30.805257588791058 L 11.568502655654504,-33.27636869562647 " />
        <path style="fill:none;stroke:#50514F;stroke-width:0.1px;stroke-linecap:square" d="M 9.494994237310827,-30.805257588791058 L 10.598285022232341,-33.83652410745528 L 10.598285022232341,-37.06233055906818 " />
        <path style="fill:none;stroke:#50514F;stroke-width:0.1px;stroke-linecap:square" d="M 10.598285022232341,-33.83652410745528 L 11.701575807153855,-36.8677906261195 L 13.775084225497531,-39.338901732954916 " />
        <path style="fill:none;stroke:#50514F;stroke-width:0.1px;stroke-linecap:square" d="M 11.701575807153855,-36.8677906261195 L 12.804866592075369,-39.899057144783725 " />
        <path style="fill:none;stroke:#50514F;stroke-width:0.1px;stroke-linecap:square" d="M 9.494994237310827,-30.805257588791058 L 11.568502655654504,-33.27636869562647 L 12.671793440576018,-36.3076352142907 " />
        <path style="fill:none;stroke:#50514F;stroke-width:0.1px;stroke-linecap:square" d="M 11.568502655654504,-33.27636869562647 L 13.64201107399818,-35.74747980246189 L 16.435641408786694,-37.36038302826834 " />
        <path style="fill:none;stroke:#50514F;stroke-width:0.1px;stroke-linecap:square" d="M 13.64201107399818,-35.74747980246189 L 15.715519492341857,-38.218590909297305 " />
        <path style="fill:none;stroke:#50514F;stroke-width:0.1px;stroke-linecap:square" d="M 13.64201107399818,-35.74747980246189 L 16.435641408786694,-37.36038302826834 L 18.50914982713037,-39.83149413510375 " />
        <path style="fill:none;stroke:#50514F;stroke-width:0.1px;stroke-linecap:square" d="M 16.435641408786694,-37.36038302826834 L 19.229271743575207,-38.97328625407479 L 22.406070946840398,-39.533441665903595 " />
        <path style="fill:none;stroke:#50514F;stroke-width:0.1px;stroke-linecap:square" d="M 19.229271743575207,-38.97328625407479 L 22.02290207836372,-40.58618947988124 " />
        <path style="fill:none;stroke:#50514F;stroke-width:0.1px;stroke-linecap:square" d="M 13.64201107399818,-35.74747980246189 L 15.715519492341857,-38.218590909297305 L 16.81881027726337,-41.24985742796152 " />
        <path style="fill:none;stroke:#50514F;stroke-width:0.1px;stroke-linecap:square" d="M 15.715519492341857,-38.218590909297305 L 17.789027910685533,-40.68970201613272 L 20.582658245474047,-42.30260524193917 " />
        <path style="fill:none;stroke:#50514F;stroke-width:0.1px;stroke-linecap:square" d="M 17.789027910685533,-40.68970201613272 L 19.862536329029208,-43.160813122968136 " />
        <path style="fill:none;stroke:#50514F;stroke-width:0.1px;stroke-linecap:square" d="M 5.347977400623476,-25.863035375120226 L 6.451268185544989,-28.894301893784448 L 6.451268185544989,-32.120108345397355 " />
        <path style="fill:none;stroke:#50514F;stroke-width:0.1px;stroke-linecap:square" d="M 6.451268185544989,-28.894301893784448 L 7.554558970466501,-31.925568412448673 L 9.628067388810177,-34.396679519284085 " />
        <path style="fill:none;stroke:#50514F;stroke-width:0.1px;stroke-linecap:square" d="M 7.554558970466501,-31.925568412448673 L 8.657849755388014,-34.956834931112894 " />
        <path style="fill:none;stroke:#50514F;stroke-width:0.1px;stroke-linecap:square" d="M 7.554558970466501,-31.925568412448673 L 7.554558970466501,-35.15137486406157 L 6.451268185544989,-38.1826413827258 " />
        <path style="fill:none;stroke:#50514F;stroke-width:0.1px;stroke-linecap:square" d="M 7.554558970466501,-35.15137486406157 L 7.554558970466501,-38.37718131567448 L 8.657849755388014,-41.4084478343387 " />
        <path style="fill:none;stroke:#50514F;stroke-width:0.1px;stroke-linecap:square" d="M 7.554558970466501,-38.37718131567448 L 7.554558970466501,-41.60298776728738 " />
        <path style="fill:none;stroke:#50514F;stroke-width:0.1px;stroke-linecap:square" d="M 7.554558970466501,-31.925568412448673 L 8.657849755388014,-34.956834931112894 L 8.657849755388014,-38.1826413827258 " />
        <path style="fill:none;stroke:#50514F;stroke-width:0.1px;stroke-linecap:square" d="M 8.657849755388014,-34.956834931112894 L 9.761140540309524,-37.98810144977711 L 11.8346489586532,-40.45921255661253 " />
        <path style="fill:none;stroke:#50514F;stroke-width:0.1px;stroke-linecap:square" d="M 9.761140540309524,-37.98810144977711 L 10.864431325231035,-41.01936796844134 " />
        <path style="fill:none;stroke:#50514F;stroke-width:0.1px;stroke-linecap:square" d="M 9.761140540309524,-37.98810144977711 L 11.8346489586532,-40.45921255661253 L 12.937939743574715,-43.49047907527675 " />
        <path style="fill:none;stroke:#50514F;stroke-width:0.1px;stroke-linecap:square" d="M 11.8346489586532,-40.45921255661253 L 13.908157376996877,-42.93032366344794 L 16.70178771178539,-44.5432268892544 " />
        <path style="fill:none;stroke:#50514F;stroke-width:0.1px;stroke-linecap:square" d="M 13.908157376996877,-42.93032366344794 L 15.981665795340554,-45.40143477028336 " />
        <path style="fill:none;stroke:#50514F;stroke-width:0.1px;stroke-linecap:square" d="M 9.761140540309524,-37.98810144977711 L 10.864431325231035,-41.01936796844134 L 10.864431325231035,-44.24517442005424 " />
        <path style="fill:none;stroke:#50514F;stroke-width:0.1px;stroke-linecap:square" d="M 10.864431325231035,-41.01936796844134 L 11.967722110152547,-44.05063448710556 L 14.041230528496223,-46.52174559394098 " />
        <path style="fill:none;stroke:#50514F;stroke-width:0.1px;stroke-linecap:square" d="M 11.967722110152547,-44.05063448710556 L 13.071012895074057,-47.08190100576978 " />
        <path style="fill:none;stroke:#50514F;stroke-width:0.1px;stroke-linecap:square" d="M -3.478348878748622,-1.6129032258064515 L -3.4783488787486214,-4.838709677419354 L -4.581639663670133,-7.869976196083576 " />
        <path style="fill:none;stroke:#50514F;stroke-width:0.1px;stroke-linecap:square" d="M -3.4783488787486214,-4.838709677419354 L -3.4783488787486214,-8.064516129032258 L -2.3750580938271093,-11.09578264769648 " />
        <path style="fill:none;stroke:#50514F;stroke-width:0.1px;stroke-linecap:square" d="M -3.4783488787486214,-8.064516129032258 L -3.4783488787486214,-11.29032258064516 " />
        <path style="fill:none;stroke:#50514F;stroke-width:0.1px;stroke-linecap:square" d="M -3.4783488787486214,-8.064516129032258 L -4.581639663670133,-11.09578264769648 L -6.655148082013808,-13.566893754531895 " />
        <path style="fill:none;stroke:#50514F;stroke-width:0.1px;stroke-linecap:square" d="M -4.581639663670133,-11.09578264769648 L -5.684930448591644,-14.1270491663607 L -5.684930448591644,-17.352855617973603 " />
        <path style="fill:none;stroke:#50514F;stroke-width:0.1px;stroke-linecap:square" d="M -5.684930448591644,-14.1270491663607 L -6.788221233513156,-17.158315685024924 " />
        <path style="fill:none;stroke:#50514F;stroke-width:0.1px;stroke-linecap:square" d="M -3.4783488787486214,-8.064516129032258 L -3.4783488787486214,-11.29032258064516 L -4.581639663670133,-14.321589099309383 " />
        <path style="fill:none;stroke:#50514F;stroke-width:0.1px;stroke-linecap:square" d="M -3.4783488787486214,-11.29032258064516 L -3.4783488787486205,-14.516129032258064 L -2.375058093827109,-17.547395550922285 " />
        <path style="fill:none;stroke:#50514F;stroke-width:0.1px;stroke-linecap:square" d="M -3.4783488787486205,-14.516129032258064 L -3.4783488787486205,-17.741935483870968 " />
        <path style="fill:none;stroke:#50514F;stroke-width:0.1px;stroke-linecap:square" d="M -3.4783488787486205,-14.516129032258064 L -2.375058093827109,-17.547395550922285 L -2.375058093827109,-20.77320200253519 " />
        <path style="fill:none;stroke:#50514F;stroke-width:0.1px;stroke-linecap:square" d="M -2.375058093827109,-17.547395550922285 L -1.2717673089055967,-20.578662069586507 L 0.8017411094380792,-23.049773176421922 " />
        <path style="fill:none;stroke:#50514F;stroke-width:0.1px;stroke-linecap:square" d="M -1.2717673089055967,-20.578662069586507 L -0.16847652398408464,-23.609928588250728 " />
        <path style="fill:none;stroke:#50514F;stroke-width:0.1px;stroke-linecap:square" d="M -3.4783488787486205,-14.516129032258064 L -3.4783488787486205,-17.741935483870968 L -4.581639663670132,-20.77320200253519 " />
        <path style="fill:none;stroke:#50514F;stroke-width:0.1px;stroke-linecap:square" d="M -3.4783488787486205,-17.741935483870968 L -3.4783488787486205,-20.96774193548387 L -2.3750580938271084,-23.999008454148093 " />
        <path style="fill:none;stroke:#50514F;stroke-width:0.1px;stroke-linecap:square" d="M -3.4783488787486205,-20.96774193548387 L -3.4783488787486205,-24.193548387096772 " />
        <path style="fill:none;stroke:#50514F;stroke-width:0.1px;stroke-linecap:square" d="M -3.4783488787486205,-14.516129032258064 L -4.581639663670133,-17.547395550922285 L -6.655148082013808,-20.0185066577577 " />
        <path style="fill:none;stroke:#50514F;stroke-width:0.1px;stroke-linecap:square" d="M -4.581639663670133,-17.547395550922285 L -5.684930448591644,-20.578662069586507 L -5.684930448591644,-23.80446852119941 " />
        <path style="fill:none;stroke:#50514F;stroke-width:0.1px;stroke-linecap:square" d="M -5.684930448591644,-20.578662069586507 L -6.788221233513156,-23.609928588250728 " />
        <path style="fill:none;stroke:#50514F;stroke-width:0.1px;stroke-linecap:square" d="M -5.684930448591644,-20.578662069586507 L -7.758438866935319,-23.049773176421922 L -10.552069201723832,-24.662676402228374 " />
        <path style="fill:none;stroke:#50514F;stroke-width:0.1px;stroke-linecap:square" d="M -7.758438866935319,-23.049773176421922 L -9.831947285278993,-25.520884283257338 L -10.935238070200505,-28.55215080192156 " />
        <path style="fill:none;stroke:#50514F;stroke-width:0.1px;stroke-linecap:square" d="M -9.831947285278993,-25.520884283257338 L -11.90545570362267,-27.991995390092754 " />
        <path style="fill:none;stroke:#50514F;stroke-width:0.1px;stroke-linecap:square" d="M -5.684930448591644,-20.578662069586507 L -6.788221233513156,-23.609928588250728 L -8.861729651856832,-26.081039695086144 " />
        <path style="fill:none;stroke:#50514F;stroke-width:0.1px;stroke-linecap:square" d="M -6.788221233513156,-23.609928588250728 L -7.8915120184346685,-26.641195106914953 L -7.8915120184346685,-29.867001558527853 " />
        <path style="fill:none;stroke:#50514F;stroke-width:0.1px;stroke-linecap:square" d="M -7.8915120184346685,-26.641195106914953 L -8.99480280335618,-29.672461625579174 " />
        <path style="fill:none;stroke:#50514F;stroke-width:0.1px;stroke-linecap:square" d="M -7.8915120184346685,-26.641195106914953 L -7.8915120184346685,-29.867001558527853 L -8.99480280335618,-32.89826807719208 " />
        <path style="fill:none;stroke:#50514F;stroke-width:0.1px;stroke-linecap:square" d="M -7.8915120184346685,-29.867001558527853 L -7.8915120184346685,-33.09280801014076 L -6.788221233513156,-36.12407452880498 " />
        <path style="fill:none;stroke:#50514F;stroke-width:0.1px;stroke-linecap:square" d="M -7.8915120184346685,-33.09280801014076 L -7.8915120184346685,-36.31861446175366 " />
        <path style="fill:none;stroke:#50514F;stroke-width:0.1px;stroke-linecap:square" d="M -7.8915120184346685,-26.641195106914953 L -8.99480280335618,-29.672461625579174 L -11.068311221699854,-32.14357273241459 " />
        <path style="fill:none;stroke:#50514F;stroke-width:0.1px;stroke-linecap:square" d="M -8.99480280335618,-29.672461625579174 L -10.09809358827769,-32.70372814424339 L -10.09809358827769,-35.929534595856296 " />
        <path style="fill:none;stroke:#50514F;stroke-width:0.1px;stroke-linecap:square" d="M -10.09809358827769,-32.70372814424339 L -11.201384373199202,-35.73499466290762 " />
        <path style="fill:none;stroke:#50514F;stroke-width:0.1px;stroke-linecap:square" d="M -3.4783488787486205,-14.516129032258064 L -3.4783488787486205,-17.741935483870968 L -4.581639663670132,-20.77320200253519 " />
        <path style="fill:none;stroke:#50514F;stroke-width:0.1px;stroke-linecap:square" d="M -3.4783488787486205,-17.741935483870968 L -3.4783488787486205,-20.96774193548387 L -2.3750580938271084,-23.999008454148093 " />
        <path style="fill:none;stroke:#50514F;stroke-width:0.1px;stroke-linecap:square" d="M -3.4783488787486205,-20.96774193548387 L -3.4783488787486205,-24.193548387096772 " />
        <path style="fill:none;stroke:#50514F;stroke-width:0.1px;stroke-linecap:square" d="M -3.4783488787486205,-20.96774193548387 L -4.581639663670132,-23.999008454148093 L -6.655148082013806,-26.470119560983505 " />
        <path style="fill:none;stroke:#50514F;stroke-width:0.1px;stroke-linecap:square" d="M -4.581639663670132,-23.999008454148093 L -5.684930448591644,-27.030274972812315 L -5.684930448591644,-30.256081424425215 " />
        <path style="fill:none;stroke:#50514F;stroke-width:0.1px;stroke-linecap:square" d="M -5.684930448591644,-27.030274972812315 L -6.788221233513155,-30.061541491476536 " />
        <path style="fill:none;stroke:#50514F;stroke-width:0.1px;stroke-linecap:square" d="M -3.4783488787486205,-20.96774193548387 L -3.4783488787486205,-24.193548387096772 L -4.581639663670132,-27.224814905760994 " />
        <path style="fill:none;stroke:#50514F;stroke-width:0.1px;stroke-linecap:square" d="M -3.4783488787486205,-24.193548387096772 L -3.4783488787486196,-27.419354838709676 L -2.375058093827108,-30.450621357373898 " />
        <path style="fill:none;stroke:#50514F;stroke-width:0.1px;stroke-linecap:square" d="M -3.4783488787486196,-27.419354838709676 L -3.4783488787486196,-30.64516129032258 " />
        <path style="fill:none;stroke:#50514F;stroke-width:0.1px;stroke-linecap:square" d="M -3.4783488787486196,-27.419354838709676 L -2.375058093827108,-30.450621357373898 L -2.375058093827108,-33.6764278089868 " />
        <path style="fill:none;stroke:#50514F;stroke-width:0.1px;stroke-linecap:square" d="M -2.375058093827108,-30.450621357373898 L -1.271767308905596,-33.48188787603812 L 0.8017411094380792,-35.95299898287354 " />
        <path style="fill:none;stroke:#50514F;stroke-width:0.1px;stroke-linecap:square" d="M -1.271767308905596,-33.48188787603812 L -0.16847652398408391,-36.51315439470234 " />
        <path style="fill:none;stroke:#50514F;stroke-width:0.1px;stroke-linecap:square" d="M -3.4783488787486196,-27.419354838709676 L -3.4783488787486196,-30.64516129032258 L -4.581639663670131,-33.6764278089868 " />
        <path style="fill:none;stroke:#50514F;stroke-width:0.1px;stroke-linecap:square" d="M -3.4783488787486196,-30.64516129032258 L -3.4783488787486196,-33.87096774193548 L -2.3750580938271075,-36.902234260599705 " />
        <path style="fill:none;stroke:#50514F;stroke-width:0.1px;stroke-linecap:square" d="M -3.4783488787486196,-33.87096774193548 L -3.4783488787486196,-37.096774193548384 " />
        <path style="fill:none;stroke:#50514F;stroke-width:0.1px;stroke-linecap:square" d="M -3.4783488787486196,-27.419354838709676 L -2.375058093827108,-30.450621357373898 L -2.375058093827108,-33.6764278089868 " />
        <path style="fill:none;stroke:#50514F;stroke-width:0.1px;stroke-linecap:square" d="M -2.375058093827108,-30.450621357373898 L -1.271767308905596,-33.48188787603812 L 0.8017411094380792,-35.95299898287354 " />
        <path style="fill:none;stroke:#50514F;stroke-width:0.1px;stroke-linecap:square" d="M -1.271767308905596,-33.48188787603812 L -0.16847652398408391,-36.51315439470234 " />
        <path style="fill:none;stroke:#50514F;stroke-width:0.1px;stroke-linecap:square" d="M -1.271767308905596,-33.48188787603812 L -1.2717673089055956,-36.70769432765102 L -2.3750580938271075,-39.738960846315244 " />
        <path style="fill:none;stroke:#50514F;stroke-width:0.1px;stroke-linecap:square" d="M -1.2717673089055956,-36.70769432765102 L -1.2717673089055956,-39.93350077926392 L -0.1684765239840832,-42.96476729792815 " />
        <path style="fill:none;stroke:#50514F;stroke-width:0.1px;stroke-linecap:square" d="M -1.2717673089055956,-39.93350077926392 L -1.2717673089055956,-43.15930723087683 " />
        <path style="fill:none;stroke:#50514F;stroke-width:0.1px;stroke-linecap:square" d="M -1.271767308905596,-33.48188787603812 L -0.16847652398408391,-36.51315439470234 L -0.16847652398408391,-39.738960846315244 " />
        <path style="fill:none;stroke:#50514F;stroke-width:0.1px;stroke-linecap:square" d="M -0.16847652398408391,-36.51315439470234 L 0.9348142609374278,-39.544420913366565 L 3.008322679281104,-42.01553202020198 " />
        <path style="fill:none;stroke:#50514F;stroke-width:0.1px;stroke-linecap:square" d="M 0.9348142609374278,-39.544420913366565 L 2.0381050458589405,-42.57568743203078 " />
        <path style="fill:none;stroke:#50514F;stroke-width:0.1px;stroke-linecap:square" d="M 0.9348142609374278,-39.544420913366565 L 3.008322679281104,-42.01553202020198 L 4.111613464202617,-45.0467985388662 " />
        <path style="fill:none;stroke:#50514F;stroke-width:0.1px;stroke-linecap:square" d="M 3.008322679281104,-42.01553202020198 L 5.0818310976247805,-44.4866431270374 L 7.875461432413292,-46.099546352843845 " />
        <path style="fill:none;stroke:#50514F;stroke-width:0.1px;stroke-linecap:square" d="M 5.0818310976247805,-44.4866431270374 L 7.155339515968457,-46.95775423387281 " />
        <path style="fill:none;stroke:#50514F;stroke-width:0.1px;stroke-linecap:square" d="M 0.9348142609374278,-39.544420913366565 L 2.0381050458589405,-42.57568743203078 L 2.0381050458589405,-45.80149388364369 " />
        <path style="fill:none;stroke:#50514F;stroke-width:0.1px;stroke-linecap:square" d="M 2.0381050458589405,-42.57568743203078 L 3.1413958307804526,-45.60695395069501 L 5.214904249124129,-48.078065057530424 " />
        <path style="fill:none;stroke:#50514F;stroke-width:0.1px;stroke-linecap:square" d="M 3.1413958307804526,-45.60695395069501 L 4.244686615701966,-48.63822046935923 " />
        <path style="fill:none;stroke:#50514F;stroke-width:0.1px;stroke-linecap:square" d="M -3.4783488787486196,-27.419354838709676 L -3.4783488787486196,-30.64516129032258 L -4.581639663670131,-33.6764278089868 " />
        <path style="fill:none;stroke:#50514F;stroke-width:0.1px;stroke-linecap:square" d="M -3.4783488787486196,-30.64516129032258 L -3.4783488787486196,-33.87096774193548 L -2.3750580938271075,-36.902234260599705 " />
        <path style="fill:none;stroke:#50514F;stroke-width:0.1px;stroke-linecap:square" d="M -3.4783488787486196,-33.87096774193548 L -3.4783488787486196,-37.096774193548384 " />
        <path style="fill:none;stroke:#50514F;stroke-width:0.1px;stroke-linecap:square" d="M -3.4783488787486196,-33.87096774193548 L -4.581639663670131,-36.902234260599705 L -6.655148082013806,-39.37334536743512 " />
        <path style="fill:none;stroke:#50514F;stroke-width:0.1px;stroke-linecap:square" d="M -4.581639663670131,-36.902234260599705 L -5.684930448591643,-39.93350077926392 L -5.684930448591643,-43.15930723087683 " />
        <path style="fill:none;stroke:#50514F;stroke-width:0.1px;stroke-linecap:square" d="M -5.684930448591643,-39.93350077926392 L -6.788221233513155,-42.96476729792815 " />
        <path style="fill:none;stroke:#50514F;stroke-width:0.1px;stroke-linecap:square" d="M -3.4783488787486196,-33.87096774193548 L -3.4783488787486196,-37.096774193548384 L -4.581639663670131,-40.12804071221261 " />
        <path style="fill:none;stroke:#50514F;stroke-width:0.1px;stroke-linecap:square" d="M -3.4783488787486196,-37.096774193548384 L -3.478348878748619,-40.32258064516129 L -2.3750580938271075,-43.35384716382551 " />
        <path style="fill:none;stroke:#50514F;stroke-width:0.1px;stroke-linecap:square" d="M -3.478348878748619,-40.32258064516129 L -3.478348878748619,-43.54838709677419 " />
        <path style="fill:none;stroke:#50514F;stroke-width:0.1px;stroke-linecap:square" d="M -3.478348878748619,-40.32258064516129 L -2.3750580938271075,-43.35384716382551 L -2.375058093827107,-46.57965361543841 " />
        <path style="fill:none;stroke:#50514F;stroke-width:0.1px;stroke-linecap:square" d="M -2.3750580938271075,-43.35384716382551 L -1.271767308905595,-46.38511368248973 L 0.8017411094380806,-48.85622478932515 " />
        <path style="fill:none;stroke:#50514F;stroke-width:0.1px;stroke-linecap:square" d="M -1.271767308905595,-46.38511368248973 L -0.1684765239840832,-49.416380201153956 " />
        <path style="fill:none;stroke:#50514F;stroke-width:0.1px;stroke-linecap:square" d="M -3.478348878748619,-40.32258064516129 L -3.478348878748619,-43.54838709677419 L -4.58163966367013,-46.57965361543841 " />
        <path style="fill:none;stroke:#50514F;stroke-width:0.1px;stroke-linecap:square" d="M -3.478348878748619,-43.54838709677419 L -3.478348878748619,-46.774193548387096 L -2.3750580938271066,-49.805460067051314 " />
        <path style="fill:none;stroke:#50514F;stroke-width:0.1px;stroke-linecap:square" d="M -3.478348878748619,-46.774193548387096 L -3.4783488787486183,-50.0 " />
    </g>
</svg>
