<?xml version="1.0" encoding="UTF-8"?>
<!DOCTYPE svg PUBLIC "-//W3C//DTD SVG 1.1//EN"
    "http://www.w3.org/Graphics/SVG/1.1/DTD/svg11.dtd">

<svg xmlns="http://www.w3.org/2000/svg" xmlns:xlink="http://www.w3.org/1999/xlink" version="1.1" width="340.2983393487983" height="500" viewBox="-41.33058532544513 -88.18292104331908 65.47309437811131 96.19955022907536">
    <g>
        <rect x="-41.33058532544513" y="-88.18292104331908" width="65.47309437811131" height="96.19955022907536" fill="#CBD4C2" />
        <path style="fill:none;stroke:#50514F;stroke-width:0.1px;stroke-linecap:square" d="M 0.0,0.0 L 6.123233995736766e-17,-1.0 L 1.2246467991473532e-16,-2.0 L 1.8369701987210297e-16,-3.0 L 2.4492935982947064e-16,-4.0 L 3.061616997868383e-16,-5.0 L 3.67394039744206e-16,-6.0 L 4.2862637970157366e-16,-7.0 L 4.898587196589413e-16,-8.0 L 5.51091059616309e-16,-9.0 L 6.123233995736766e-16,-10.0 L 6.735557395310443e-16,-11.0 L 7.34788079488412e-16,-12.0 L 7.960204194457796e-16,-13.0 L 8.572527594031473e-16,-14.0 L 9.18485099360515e-16,-15.0 L 9.797174393178826e-16,-16.0 L 0.38268343236509084,-16.923879532511286 L 0.7653668647301807,-17.847759065022572 L 1.1480502970952706,-18.771638597533858 L 1.5307337294603605,-19.695518130045144 L 1.9134171618254503,-20.61939766255643 L 2.2961005941905404,-21.543277195067716 L 2.67878402655563,-22.467156727579003 L 3.0614674589207196,-23.39103626009029 L 3.7685742401072675,-24.098143041276835 L 4.475681021293815,-24.80524982246338 L 5.182787802480363,-25.512356603649927 L 5.889894583666911,-26.219463384836473 L 6.813774116178198,-26.602146817201564 L 7.737653648689485,-26.984830249566656 L 8.737653648689484,-26.984830249566656 L 9.737653648689484,-26.984830249566656 L 10.66153318120077,-27.367513681931744 " />
        <path style="fill:none;stroke:#50514F;stroke-width:0.1px;stroke-linecap:square" d="M 7.737653648689485,-26.984830249566656 L 8.661533181200772,-27.367513681931747 L 9.585412713712058,-27.75019711429684 L 10.292519494898606,-28.457303895483385 " />
        <path style="fill:none;stroke:#50514F;stroke-width:0.1px;stroke-linecap:square" d="M 7.737653648689485,-26.984830249566656 L 8.661533181200772,-27.367513681931747 L 9.585412713712058,-27.75019711429684 L 10.292519494898606,-28.457303895483385 L 10.999626276085154,-29.16441067666993 L 11.706733057271702,-29.871517457856477 L 12.41383983845825,-30.578624239043023 L 12.79652327082334,-31.50250377155431 " />
        <path style="fill:none;stroke:#50514F;stroke-width:0.1px;stroke-linecap:square" d="M 9.585412713712058,-27.75019711429684 L 10.585412713712058,-27.75019711429684 L 11.585412713712058,-27.75019711429684 L 12.509292246223344,-28.132880546661927 " />
        <path style="fill:none;stroke:#50514F;stroke-width:0.1px;stroke-linecap:square" d="M 5.889894583666911,-26.219463384836473 L 6.597001364853459,-26.92657016602302 L 7.304108146040007,-27.633676947209565 L 8.227987678551294,-28.016360379574657 L 9.15186721106258,-28.399043811939748 L 9.858973992249128,-29.106150593126294 " />
        <path style="fill:none;stroke:#50514F;stroke-width:0.1px;stroke-linecap:square" d="M 7.304108146040007,-27.633676947209565 L 8.011214927226554,-28.34078372839611 L 8.718321708413102,-29.047890509582658 L 9.101005140778192,-29.971770042093944 " />
        <path style="fill:none;stroke:#50514F;stroke-width:0.1px;stroke-linecap:square" d="M 7.304108146040007,-27.633676947209565 L 8.011214927226554,-28.34078372839611 L 8.718321708413102,-29.047890509582658 L 9.101005140778192,-29.971770042093944 L 9.483688573143281,-30.89564957460523 L 9.86637200550837,-31.819529107116516 L 10.24905543787346,-32.7434086396278 L 10.24905543787346,-33.7434086396278 " />
        <path style="fill:none;stroke:#50514F;stroke-width:0.1px;stroke-linecap:square" d="M 8.718321708413102,-29.047890509582658 L 9.642201240924388,-29.43057394194775 L 10.566080773435674,-29.81325737431284 L 11.273187554622222,-30.520364155499387 " />
        <path style="fill:none;stroke:#50514F;stroke-width:0.1px;stroke-linecap:square" d="M 5.889894583666911,-26.219463384836473 L 6.597001364853459,-26.92657016602302 L 7.304108146040007,-27.633676947209565 L 8.011214927226554,-28.34078372839611 L 8.718321708413102,-29.047890509582658 L 9.101005140778192,-29.971770042093944 L 9.483688573143281,-30.89564957460523 L 9.86637200550837,-31.819529107116516 L 10.24905543787346,-32.7434086396278 L 10.63173887023855,-33.66728817213909 L 11.01442230260364,-34.591167704650374 L 11.721529083790188,-35.29827448583692 L 12.428635864976735,-36.005381267023466 L 12.811319297341825,-36.92926079953475 " />
        <path style="fill:none;stroke:#50514F;stroke-width:0.1px;stroke-linecap:square" d="M 11.01442230260364,-34.591167704650374 L 11.39710573496873,-35.51504723716166 L 11.779789167333819,-36.438926769672946 L 11.779789167333819,-37.438926769672946 " />
        <path style="fill:none;stroke:#50514F;stroke-width:0.1px;stroke-linecap:square" d="M 11.01442230260364,-34.591167704650374 L 11.39710573496873,-35.51504723716166 L 11.779789167333819,-36.438926769672946 L 11.779789167333819,-37.438926769672946 L 11.779789167333819,-38.438926769672946 L 11.779789167333819,-39.438926769672946 L 11.779789167333819,-40.438926769672946 L 11.39710573496873,-41.36280630218423 " />
        <path style="fill:none;stroke:#50514F;stroke-width:0.1px;stroke-linecap:square" d="M 11.779789167333819,-36.438926769672946 L 12.486895948520367,-37.14603355085949 L 13.194002729706915,-37.85314033204604 L 13.576686162072004,-38.777019864557325 " />
        <path style="fill:none;stroke:#50514F;stroke-width:0.1px;stroke-linecap:square" d="M 8.718321708413102,-29.047890509582658 L 9.642201240924388,-29.43057394194775 L 10.566080773435674,-29.81325737431284 L 11.566080773435674,-29.81325737431284 L 12.566080773435674,-29.81325737431284 L 13.48996030594696,-30.19594080667793 " />
        <path style="fill:none;stroke:#50514F;stroke-width:0.1px;stroke-linecap:square" d="M 10.566080773435674,-29.81325737431284 L 11.48996030594696,-30.195940806677932 L 12.413839838458246,-30.578624239043023 L 13.120946619644794,-31.28573102022957 " />
        <path style="fill:none;stroke:#50514F;stroke-width:0.1px;stroke-linecap:square" d="M 10.566080773435674,-29.81325737431284 L 11.48996030594696,-30.195940806677932 L 12.413839838458246,-30.578624239043023 L 13.120946619644794,-31.28573102022957 L 13.828053400831342,-31.992837801416115 L 14.53516018201789,-32.69994458260266 L 15.242266963204438,-33.40705136378921 L 15.624950395569527,-34.330930896300494 " />
        <path style="fill:none;stroke:#50514F;stroke-width:0.1px;stroke-linecap:square" d="M 12.413839838458246,-30.578624239043023 L 13.413839838458246,-30.578624239043023 L 14.413839838458246,-30.578624239043023 L 15.337719370969532,-30.96130767140811 " />
        <path style="fill:none;stroke:#50514F;stroke-width:0.1px;stroke-linecap:square" d="M 3.0614674589207196,-23.39103626009029 L 3.4441508912858096,-24.314915792601575 L 3.8268343236508997,-25.23879532511286 L 4.209517756015989,-26.162674857624147 L 4.592201188381079,-27.086554390135433 L 5.299307969567627,-27.79366117132198 L 6.006414750754175,-28.500767952508525 L 6.930294283265462,-28.883451384873617 L 7.854173815776749,-29.266134817238708 L 8.561280596963297,-29.973241598425254 " />
        <path style="fill:none;stroke:#50514F;stroke-width:0.1px;stroke-linecap:square" d="M 6.006414750754175,-28.500767952508525 L 6.713521531940723,-29.20787473369507 L 7.420628313127271,-29.914981514881617 L 7.80331174549236,-30.838861047392903 " />
        <path style="fill:none;stroke:#50514F;stroke-width:0.1px;stroke-linecap:square" d="M 6.006414750754175,-28.500767952508525 L 6.713521531940723,-29.20787473369507 L 7.420628313127271,-29.914981514881617 L 7.80331174549236,-30.838861047392903 L 8.18599517785745,-31.76274057990419 L 8.56867861022254,-32.686620112415476 L 8.951362042587629,-33.61049964492676 L 8.951362042587629,-34.61049964492676 " />
        <path style="fill:none;stroke:#50514F;stroke-width:0.1px;stroke-linecap:square" d="M 7.420628313127271,-29.914981514881617 L 8.344507845638557,-30.29766494724671 L 9.268387378149843,-30.6803483796118 L 9.97549415933639,-31.387455160798346 " />
        <path style="fill:none;stroke:#50514F;stroke-width:0.1px;stroke-linecap:square" d="M 4.592201188381079,-27.086554390135433 L 4.9748846207461686,-28.01043392264672 L 5.357568053111258,-28.934313455158005 L 6.064674834297806,-29.64142023634455 L 6.771781615484354,-30.348527017531097 L 7.154465047849444,-31.272406550042383 " />
        <path style="fill:none;stroke:#50514F;stroke-width:0.1px;stroke-linecap:square" d="M 5.357568053111258,-28.934313455158005 L 5.740251485476348,-29.85819298766929 L 6.122934917841437,-30.782072520180577 L 6.122934917841437,-31.782072520180577 " />
        <path style="fill:none;stroke:#50514F;stroke-width:0.1px;stroke-linecap:square" d="M 5.357568053111258,-28.934313455158005 L 5.740251485476348,-29.85819298766929 L 6.122934917841437,-30.782072520180577 L 6.122934917841437,-31.782072520180577 L 6.122934917841437,-32.78207252018058 L 6.122934917841437,-33.78207252018058 L 6.122934917841437,-34.78207252018058 L 5.740251485476348,-35.70595205269186 " />
        <path style="fill:none;stroke:#50514F;stroke-width:0.1px;stroke-linecap:square" d="M 6.122934917841437,-30.782072520180577 L 6.830041699027985,-31.489179301367123 L 7.537148480214533,-32.19628608255367 L 7.919831912579623,-33.120165615064955 " />
        <path style="fill:none;stroke:#50514F;stroke-width:0.1px;stroke-linecap:square" d="M 4.592201188381079,-27.086554390135433 L 4.9748846207461686,-28.01043392264672 L 5.357568053111258,-28.934313455158005 L 5.740251485476348,-29.85819298766929 L 6.122934917841437,-30.782072520180577 L 6.122934917841437,-31.782072520180577 L 6.122934917841437,-32.78207252018058 L 6.122934917841437,-33.78207252018058 L 6.122934917841437,-34.78207252018058 L 6.122934917841437,-35.78207252018058 L 6.122934917841437,-36.78207252018058 L 6.505618350206527,-37.70595205269186 L 6.888301782571617,-38.62983158520315 L 6.888301782571617,-39.62983158520315 " />
        <path style="fill:none;stroke:#50514F;stroke-width:0.1px;stroke-linecap:square" d="M 6.122934917841437,-36.78207252018058 L 6.122934917841437,-37.78207252018058 L 6.122934917841437,-38.78207252018058 L 5.740251485476348,-39.70595205269186 " />
        <path style="fill:none;stroke:#50514F;stroke-width:0.1px;stroke-linecap:square" d="M 6.122934917841437,-36.78207252018058 L 6.122934917841437,-37.78207252018058 L 6.122934917841437,-38.78207252018058 L 5.740251485476348,-39.70595205269186 L 5.357568053111258,-40.62983158520315 L 4.9748846207461686,-41.553711117714435 L 4.592201188381079,-42.47759065022572 L 3.8850944071945315,-43.18469743141227 " />
        <path style="fill:none;stroke:#50514F;stroke-width:0.1px;stroke-linecap:square" d="M 6.122934917841437,-38.78207252018058 L 6.505618350206527,-39.70595205269186 L 6.888301782571617,-40.62983158520315 L 6.888301782571617,-41.62983158520315 " />
        <path style="fill:none;stroke:#50514F;stroke-width:0.1px;stroke-linecap:square" d="M 6.122934917841437,-30.782072520180577 L 6.830041699027985,-31.489179301367123 L 7.537148480214533,-32.19628608255367 L 8.46102801272582,-32.57896951491876 L 9.384907545237105,-32.96165294728385 L 10.092014326423653,-33.6687597284704 " />
        <path style="fill:none;stroke:#50514F;stroke-width:0.1px;stroke-linecap:square" d="M 7.537148480214533,-32.19628608255367 L 8.244255261401081,-32.903392863740216 L 8.951362042587629,-33.61049964492676 L 9.334045474952719,-34.53437917743805 " />
        <path style="fill:none;stroke:#50514F;stroke-width:0.1px;stroke-linecap:square" d="M 7.537148480214533,-32.19628608255367 L 8.244255261401081,-32.903392863740216 L 8.951362042587629,-33.61049964492676 L 9.334045474952719,-34.53437917743805 L 9.716728907317808,-35.458258709949334 L 10.099412339682898,-36.38213824246062 L 10.482095772047987,-37.306017774971906 L 10.482095772047987,-38.306017774971906 " />
        <path style="fill:none;stroke:#50514F;stroke-width:0.1px;stroke-linecap:square" d="M 8.951362042587629,-33.61049964492676 L 9.875241575098915,-33.99318307729185 L 10.799121107610201,-34.375866509656944 L 11.506227888796749,-35.08297329084349 " />
        <path style="fill:none;stroke:#50514F;stroke-width:0.1px;stroke-linecap:square" d="M 3.0614674589207196,-23.39103626009029 L 3.4441508912858096,-24.314915792601575 L 3.8268343236508997,-25.23879532511286 L 4.209517756015989,-26.162674857624147 L 4.592201188381079,-27.086554390135433 L 4.9748846207461686,-28.01043392264672 L 5.357568053111258,-28.934313455158005 L 5.740251485476348,-29.85819298766929 L 6.122934917841437,-30.782072520180577 L 6.122934917841437,-31.782072520180577 L 6.122934917841437,-32.78207252018058 L 6.122934917841437,-33.78207252018058 L 6.122934917841437,-34.78207252018058 L 6.122934917841437,-35.78207252018058 L 6.122934917841437,-36.78207252018058 L 6.122934917841437,-37.78207252018058 L 6.122934917841437,-38.78207252018058 L 6.122934917841437,-39.78207252018058 L 6.122934917841437,-40.78207252018058 L 6.122934917841437,-41.78207252018058 L 6.122934917841437,-42.78207252018058 L 6.505618350206527,-43.70595205269186 L 6.888301782571617,-44.62983158520315 L 7.5954085637581645,-45.336938366389695 L 8.302515344944712,-46.04404514757624 L 8.685198777309802,-46.96792468008753 " />
        <path style="fill:none;stroke:#50514F;stroke-width:0.1px;stroke-linecap:square" d="M 6.888301782571617,-44.62983158520315 L 7.270985214936706,-45.553711117714435 L 7.653668647301796,-46.47759065022572 L 7.653668647301796,-47.47759065022572 " />
        <path style="fill:none;stroke:#50514F;stroke-width:0.1px;stroke-linecap:square" d="M 6.888301782571617,-44.62983158520315 L 7.270985214936706,-45.553711117714435 L 7.653668647301796,-46.47759065022572 L 7.653668647301796,-47.47759065022572 L 7.653668647301796,-48.47759065022572 L 7.653668647301796,-49.47759065022572 L 7.653668647301796,-50.47759065022572 L 7.270985214936706,-51.40147018273701 " />
        <path style="fill:none;stroke:#50514F;stroke-width:0.1px;stroke-linecap:square" d="M 7.653668647301796,-46.47759065022572 L 8.360775428488344,-47.18469743141227 L 9.067882209674892,-47.891804212598814 L 9.450565642039981,-48.8156837451101 " />
        <path style="fill:none;stroke:#50514F;stroke-width:0.1px;stroke-linecap:square" d="M 6.122934917841437,-42.78207252018058 L 6.122934917841437,-43.78207252018058 L 6.122934917841437,-44.78207252018058 L 6.505618350206527,-45.70595205269186 L 6.888301782571617,-46.62983158520315 L 6.888301782571617,-47.62983158520315 " />
        <path style="fill:none;stroke:#50514F;stroke-width:0.1px;stroke-linecap:square" d="M 6.122934917841437,-44.78207252018058 L 6.122934917841437,-45.78207252018058 L 6.122934917841437,-46.78207252018058 L 5.740251485476348,-47.70595205269186 " />
        <path style="fill:none;stroke:#50514F;stroke-width:0.1px;stroke-linecap:square" d="M 6.122934917841437,-44.78207252018058 L 6.122934917841437,-45.78207252018058 L 6.122934917841437,-46.78207252018058 L 5.740251485476348,-47.70595205269186 L 5.357568053111258,-48.62983158520315 L 4.9748846207461686,-49.553711117714435 L 4.592201188381079,-50.47759065022572 L 3.8850944071945315,-51.18469743141227 " />
        <path style="fill:none;stroke:#50514F;stroke-width:0.1px;stroke-linecap:square" d="M 6.122934917841437,-46.78207252018058 L 6.505618350206527,-47.70595205269186 L 6.888301782571617,-48.62983158520315 L 6.888301782571617,-49.62983158520315 " />
        <path style="fill:none;stroke:#50514F;stroke-width:0.1px;stroke-linecap:square" d="M 6.122934917841437,-42.78207252018058 L 6.122934917841437,-43.78207252018058 L 6.122934917841437,-44.78207252018058 L 6.122934917841437,-45.78207252018058 L 6.122934917841437,-46.78207252018058 L 5.740251485476348,-47.70595205269186 L 5.357568053111258,-48.62983158520315 L 4.9748846207461686,-49.553711117714435 L 4.592201188381079,-50.47759065022572 L 4.209517756015989,-51.40147018273701 L 3.8268343236508997,-52.325349715248294 L 3.8268343236508997,-53.325349715248294 L 3.8268343236508997,-54.325349715248294 L 3.44415089128581,-55.24922924775958 " />
        <path style="fill:none;stroke:#50514F;stroke-width:0.1px;stroke-linecap:square" d="M 3.8268343236508997,-52.325349715248294 L 3.44415089128581,-53.24922924775958 L 3.0614674589207205,-54.173108780270866 L 2.354360677734173,-54.88021556145741 " />
        <path style="fill:none;stroke:#50514F;stroke-width:0.1px;stroke-linecap:square" d="M 3.8268343236508997,-52.325349715248294 L 3.44415089128581,-53.24922924775958 L 3.0614674589207205,-54.173108780270866 L 2.354360677734173,-54.88021556145741 L 1.6472538965476256,-55.58732234264396 L 0.9401471153610781,-56.294429123830504 L 0.23304033417453063,-57.00153590501705 L -0.690839198336756,-57.38421933738214 " />
        <path style="fill:none;stroke:#50514F;stroke-width:0.1px;stroke-linecap:square" d="M 3.0614674589207205,-54.173108780270866 L 3.0614674589207205,-55.173108780270866 L 3.0614674589207205,-56.173108780270866 L 2.678784026555631,-57.09698831278215 " />
        <path style="fill:none;stroke:#50514F;stroke-width:0.1px;stroke-linecap:square" d="M 6.122934917841437,-46.78207252018058 L 6.505618350206527,-47.70595205269186 L 6.888301782571617,-48.62983158520315 L 7.5954085637581645,-49.336938366389695 L 8.302515344944712,-50.04404514757624 L 8.685198777309802,-50.96792468008753 " />
        <path style="fill:none;stroke:#50514F;stroke-width:0.1px;stroke-linecap:square" d="M 6.888301782571617,-48.62983158520315 L 7.270985214936706,-49.553711117714435 L 7.653668647301796,-50.47759065022572 L 7.653668647301796,-51.47759065022572 " />
        <path style="fill:none;stroke:#50514F;stroke-width:0.1px;stroke-linecap:square" d="M 6.888301782571617,-48.62983158520315 L 7.270985214936706,-49.553711117714435 L 7.653668647301796,-50.47759065022572 L 7.653668647301796,-51.47759065022572 L 7.653668647301796,-52.47759065022572 L 7.653668647301796,-53.47759065022572 L 7.653668647301796,-54.47759065022572 L 7.270985214936706,-55.40147018273701 " />
        <path style="fill:none;stroke:#50514F;stroke-width:0.1px;stroke-linecap:square" d="M 7.653668647301796,-50.47759065022572 L 8.360775428488344,-51.18469743141227 L 9.067882209674892,-51.891804212598814 L 9.450565642039981,-52.8156837451101 " />
        <path style="fill:none;stroke:#50514F;stroke-width:0.1px;stroke-linecap:square" d="M 6.122934917841437,-30.782072520180577 L 6.830041699027985,-31.489179301367123 L 7.537148480214533,-32.19628608255367 L 8.244255261401081,-32.903392863740216 L 8.951362042587629,-33.61049964492676 L 9.875241575098915,-33.99318307729185 L 10.799121107610201,-34.375866509656944 L 11.799121107610201,-34.375866509656944 L 12.799121107610201,-34.375866509656944 L 13.723000640121487,-34.758549942022036 " />
        <path style="fill:none;stroke:#50514F;stroke-width:0.1px;stroke-linecap:square" d="M 10.799121107610201,-34.375866509656944 L 11.723000640121487,-34.758549942022036 L 12.646880172632773,-35.14123337438713 L 13.353986953819321,-35.84834015557367 " />
        <path style="fill:none;stroke:#50514F;stroke-width:0.1px;stroke-linecap:square" d="M 10.799121107610201,-34.375866509656944 L 11.723000640121487,-34.758549942022036 L 12.646880172632773,-35.14123337438713 L 13.353986953819321,-35.84834015557367 L 14.06109373500587,-36.55544693676022 L 14.768200516192417,-37.262553717946766 L 15.475307297378965,-37.96966049913331 L 15.857990729744055,-38.8935400316446 " />
        <path style="fill:none;stroke:#50514F;stroke-width:0.1px;stroke-linecap:square" d="M 12.646880172632773,-35.14123337438713 L 13.646880172632773,-35.14123337438713 L 14.646880172632773,-35.14123337438713 L 15.57075970514406,-35.52391680675222 " />
        <path style="fill:none;stroke:#50514F;stroke-width:0.1px;stroke-linecap:square" d="M 8.951362042587629,-33.61049964492676 L 9.658468823774177,-34.31760642611331 L 10.365575604960725,-35.024713207299854 L 11.289455137472011,-35.407396639664945 L 12.213334669983297,-35.79008007203004 L 12.920441451169845,-36.49718685321658 " />
        <path style="fill:none;stroke:#50514F;stroke-width:0.1px;stroke-linecap:square" d="M 10.365575604960725,-35.024713207299854 L 11.072682386147273,-35.7318199884864 L 11.77978916733382,-36.438926769672946 L 12.16247259969891,-37.36280630218423 " />
        <path style="fill:none;stroke:#50514F;stroke-width:0.1px;stroke-linecap:square" d="M 10.365575604960725,-35.024713207299854 L 11.072682386147273,-35.7318199884864 L 11.77978916733382,-36.438926769672946 L 12.16247259969891,-37.36280630218423 L 12.545156032064,-38.28668583469552 L 12.92783946442909,-39.210565367206804 L 13.310522896794179,-40.13444489971809 L 13.310522896794179,-41.13444489971809 " />
        <path style="fill:none;stroke:#50514F;stroke-width:0.1px;stroke-linecap:square" d="M 11.77978916733382,-36.438926769672946 L 12.703668699845107,-36.82161020203804 L 13.627548232356393,-37.20429363440313 L 14.33465501354294,-37.911400415589675 " />
        <path style="fill:none;stroke:#50514F;stroke-width:0.1px;stroke-linecap:square" d="M 8.951362042587629,-33.61049964492676 L 9.658468823774177,-34.31760642611331 L 10.365575604960725,-35.024713207299854 L 11.072682386147273,-35.7318199884864 L 11.77978916733382,-36.438926769672946 L 12.16247259969891,-37.36280630218423 L 12.545156032064,-38.28668583469552 L 12.92783946442909,-39.210565367206804 L 13.310522896794179,-40.13444489971809 L 13.693206329159269,-41.05832443222938 L 14.075889761524358,-41.98220396474066 L 14.782996542710906,-42.68931074592721 L 15.490103323897454,-43.396417527113755 L 15.872786756262544,-44.32029705962504 " />
        <path style="fill:none;stroke:#50514F;stroke-width:0.1px;stroke-linecap:square" d="M 14.075889761524358,-41.98220396474066 L 14.458573193889448,-42.90608349725195 L 14.841256626254538,-43.829963029763235 L 14.841256626254538,-44.829963029763235 " />
        <path style="fill:none;stroke:#50514F;stroke-width:0.1px;stroke-linecap:square" d="M 14.075889761524358,-41.98220396474066 L 14.458573193889448,-42.90608349725195 L 14.841256626254538,-43.829963029763235 L 14.841256626254538,-44.829963029763235 L 14.841256626254538,-45.829963029763235 L 14.841256626254538,-46.829963029763235 L 14.841256626254538,-47.829963029763235 L 14.458573193889448,-48.75384256227452 " />
        <path style="fill:none;stroke:#50514F;stroke-width:0.1px;stroke-linecap:square" d="M 14.841256626254538,-43.829963029763235 L 15.548363407441085,-44.53706981094978 L 16.255470188627633,-45.24417659213633 L 16.638153620992725,-46.16805612464761 " />
        <path style="fill:none;stroke:#50514F;stroke-width:0.1px;stroke-linecap:square" d="M 11.77978916733382,-36.438926769672946 L 12.703668699845107,-36.82161020203804 L 13.627548232356393,-37.20429363440313 L 14.627548232356393,-37.20429363440313 L 15.627548232356393,-37.20429363440313 L 16.55142776486768,-37.58697706676822 " />
        <path style="fill:none;stroke:#50514F;stroke-width:0.1px;stroke-linecap:square" d="M 13.627548232356393,-37.20429363440313 L 14.551427764867679,-37.58697706676822 L 15.475307297378965,-37.96966049913331 L 16.18241407856551,-38.67676728031986 " />
        <path style="fill:none;stroke:#50514F;stroke-width:0.1px;stroke-linecap:square" d="M 13.627548232356393,-37.20429363440313 L 14.551427764867679,-37.58697706676822 L 15.475307297378965,-37.96966049913331 L 16.18241407856551,-38.67676728031986 L 16.889520859752057,-39.383874061506404 L 17.596627640938603,-40.09098084269295 L 18.30373442212515,-40.798087623879496 L 18.68641785449024,-41.72196715639078 " />
        <path style="fill:none;stroke:#50514F;stroke-width:0.1px;stroke-linecap:square" d="M 15.475307297378965,-37.96966049913331 L 16.475307297378965,-37.96966049913331 L 17.475307297378965,-37.96966049913331 L 18.39918682989025,-38.3523439314984 " />
        <path style="fill:none;stroke:#50514F;stroke-width:0.1px;stroke-linecap:square" d="M 9.797174393178826e-16,-16.0 L 1.0352285905491404e-15,-17.0 L 1.0907397417803982e-15,-18.0 L 1.146250893011656e-15,-19.0 L 1.2017620442429139e-15,-20.0 L 1.2572731954741717e-15,-21.0 L 1.3127843467054295e-15,-22.0 L 1.3682954979366874e-15,-23.0 L 1.4238066491679452e-15,-24.0 L 0.3826834323650913,-24.923879532511286 L 0.7653668647301811,-25.847759065022572 L 1.148050297095271,-26.771638597533858 L 1.530733729460361,-27.695518130045144 L 2.2378405106469086,-28.40262491123169 L 2.944947291833456,-29.109731692418237 L 3.868826824344743,-29.492415124783328 L 4.79270635685603,-29.87509855714842 L 5.499813138042578,-30.582205338334965 " />
        <path style="fill:none;stroke:#50514F;stroke-width:0.1px;stroke-linecap:square" d="M 2.944947291833456,-29.109731692418237 L 3.652054073020004,-29.816838473604783 L 4.359160854206552,-30.52394525479133 L 4.7418442865716415,-31.447824787302615 " />
        <path style="fill:none;stroke:#50514F;stroke-width:0.1px;stroke-linecap:square" d="M 2.944947291833456,-29.109731692418237 L 3.652054073020004,-29.816838473604783 L 4.359160854206552,-30.52394525479133 L 4.7418442865716415,-31.447824787302615 L 5.124527718936731,-32.3717043198139 L 5.507211151301821,-33.29558385232519 L 5.88989458366691,-34.21946338483647 L 5.88989458366691,-35.21946338483647 " />
        <path style="fill:none;stroke:#50514F;stroke-width:0.1px;stroke-linecap:square" d="M 4.359160854206552,-30.52394525479133 L 5.283040386717839,-30.90662868715642 L 6.206919919229126,-31.28931211952151 L 6.914026700415674,-31.996418900708058 " />
        <path style="fill:none;stroke:#50514F;stroke-width:0.1px;stroke-linecap:square" d="M 1.530733729460361,-27.695518130045144 L 1.9134171618254507,-28.61939766255643 L 2.296100594190541,-29.543277195067716 L 3.0032073753770883,-30.250383976254263 L 3.710314156563636,-30.95749075744081 L 4.092997588928726,-31.881370289952095 " />
        <path style="fill:none;stroke:#50514F;stroke-width:0.1px;stroke-linecap:square" d="M 2.296100594190541,-29.543277195067716 L 2.678784026555631,-30.467156727579003 L 3.061467458920721,-31.39103626009029 L 3.061467458920721,-32.39103626009029 " />
        <path style="fill:none;stroke:#50514F;stroke-width:0.1px;stroke-linecap:square" d="M 2.296100594190541,-29.543277195067716 L 2.678784026555631,-30.467156727579003 L 3.061467458920721,-31.39103626009029 L 3.061467458920721,-32.39103626009029 L 3.061467458920721,-33.39103626009029 L 3.061467458920721,-34.39103626009029 L 3.061467458920721,-35.39103626009029 L 2.6787840265556313,-36.314915792601575 " />
        <path style="fill:none;stroke:#50514F;stroke-width:0.1px;stroke-linecap:square" d="M 3.061467458920721,-31.39103626009029 L 3.7685742401072684,-32.098143041276835 L 4.475681021293816,-32.80524982246338 L 4.858364453658906,-33.72912935497467 " />
        <path style="fill:none;stroke:#50514F;stroke-width:0.1px;stroke-linecap:square" d="M 1.530733729460361,-27.695518130045144 L 1.9134171618254507,-28.61939766255643 L 2.296100594190541,-29.543277195067716 L 2.678784026555631,-30.467156727579003 L 3.061467458920721,-31.39103626009029 L 3.061467458920721,-32.39103626009029 L 3.061467458920721,-33.39103626009029 L 3.061467458920721,-34.39103626009029 L 3.061467458920721,-35.39103626009029 L 3.061467458920721,-36.39103626009029 L 3.061467458920721,-37.39103626009029 L 3.444150891285811,-38.314915792601575 L 3.826834323650901,-39.23879532511286 L 3.826834323650901,-40.23879532511286 " />
        <path style="fill:none;stroke:#50514F;stroke-width:0.1px;stroke-linecap:square" d="M 3.061467458920721,-37.39103626009029 L 3.061467458920721,-38.39103626009029 L 3.061467458920721,-39.39103626009029 L 2.6787840265556313,-40.314915792601575 " />
        <path style="fill:none;stroke:#50514F;stroke-width:0.1px;stroke-linecap:square" d="M 3.061467458920721,-37.39103626009029 L 3.061467458920721,-38.39103626009029 L 3.061467458920721,-39.39103626009029 L 2.6787840265556313,-40.314915792601575 L 2.2961005941905417,-41.23879532511286 L 1.913417161825452,-42.16267485762415 L 1.5307337294603625,-43.08655439013543 L 0.823626948273815,-43.79366117132198 " />
        <path style="fill:none;stroke:#50514F;stroke-width:0.1px;stroke-linecap:square" d="M 3.061467458920721,-39.39103626009029 L 3.444150891285811,-40.314915792601575 L 3.826834323650901,-41.23879532511286 L 3.826834323650901,-42.23879532511286 " />
        <path style="fill:none;stroke:#50514F;stroke-width:0.1px;stroke-linecap:square" d="M 3.061467458920721,-31.39103626009029 L 3.7685742401072684,-32.098143041276835 L 4.475681021293816,-32.80524982246338 L 5.399560553805103,-33.18793325482847 L 6.32344008631639,-33.570616687193564 L 7.030546867502938,-34.27772346838011 " />
        <path style="fill:none;stroke:#50514F;stroke-width:0.1px;stroke-linecap:square" d="M 4.475681021293816,-32.80524982246338 L 5.182787802480364,-33.51235660364993 L 5.889894583666912,-34.21946338483647 L 6.272578016032002,-35.14334291734776 " />
        <path style="fill:none;stroke:#50514F;stroke-width:0.1px;stroke-linecap:square" d="M 4.475681021293816,-32.80524982246338 L 5.182787802480364,-33.51235660364993 L 5.889894583666912,-34.21946338483647 L 6.272578016032002,-35.14334291734776 L 6.655261448397091,-36.067222449859045 L 7.037944880762181,-36.99110198237033 L 7.420628313127271,-37.91498151488162 L 7.420628313127271,-38.91498151488162 " />
        <path style="fill:none;stroke:#50514F;stroke-width:0.1px;stroke-linecap:square" d="M 5.889894583666912,-34.21946338483647 L 6.813774116178199,-34.602146817201564 L 7.737653648689486,-34.984830249566656 L 8.444760429876034,-35.6919370307532 " />
        <path style="fill:none;stroke:#50514F;stroke-width:0.1px;stroke-linecap:square" d="M 1.4238066491679452e-15,-24.0 L 1.479317800399203e-15,-25.0 L 1.5348289516304608e-15,-26.0 L 1.5903401028617187e-15,-27.0 L 1.6458512540929765e-15,-28.0 L 0.3826834323650915,-28.923879532511286 L 0.7653668647301813,-29.847759065022572 L 1.472473645916729,-30.55486584620912 L 2.179580427103277,-31.261972627395664 L 2.562263859468367,-32.18585215990695 " />
        <path style="fill:none;stroke:#50514F;stroke-width:0.1px;stroke-linecap:square" d="M 0.7653668647301813,-29.847759065022572 L 1.1480502970952713,-30.771638597533858 L 1.5307337294603611,-31.695518130045144 L 1.5307337294603611,-32.695518130045144 " />
        <path style="fill:none;stroke:#50514F;stroke-width:0.1px;stroke-linecap:square" d="M 0.7653668647301813,-29.847759065022572 L 1.1480502970952713,-30.771638597533858 L 1.5307337294603611,-31.695518130045144 L 1.5307337294603611,-32.695518130045144 L 1.5307337294603611,-33.695518130045144 L 1.5307337294603611,-34.695518130045144 L 1.5307337294603611,-35.695518130045144 L 1.1480502970952715,-36.61939766255643 " />
        <path style="fill:none;stroke:#50514F;stroke-width:0.1px;stroke-linecap:square" d="M 1.5307337294603611,-31.695518130045144 L 2.237840510646909,-32.40262491123169 L 2.944947291833457,-33.10973169241824 L 3.327630724198547,-34.03361122492952 " />
        <path style="fill:none;stroke:#50514F;stroke-width:0.1px;stroke-linecap:square" d="M 1.6458512540929765e-15,-28.0 L 1.7013624053242343e-15,-29.0 L 1.7568735565554921e-15,-30.0 L 0.3826834323650916,-30.923879532511286 L 0.7653668647301816,-31.847759065022572 L 0.7653668647301817,-32.84775906502257 " />
        <path style="fill:none;stroke:#50514F;stroke-width:0.1px;stroke-linecap:square" d="M 1.7568735565554921e-15,-30.0 L 1.81238470778675e-15,-31.0 L 1.867895859018008e-15,-32.0 L -0.38268343236508784,-32.923879532511286 " />
        <path style="fill:none;stroke:#50514F;stroke-width:0.1px;stroke-linecap:square" d="M 1.7568735565554921e-15,-30.0 L 1.81238470778675e-15,-31.0 L 1.867895859018008e-15,-32.0 L -0.38268343236508784,-32.923879532511286 L -0.7653668647301776,-33.84775906502257 L -1.1480502970952673,-34.77163859753386 L -1.5307337294603571,-35.695518130045144 L -2.2378405106469046,-36.40262491123169 " />
        <path style="fill:none;stroke:#50514F;stroke-width:0.1px;stroke-linecap:square" d="M 1.867895859018008e-15,-32.0 L 0.3826834323650917,-32.923879532511286 L 0.7653668647301817,-33.84775906502257 L 0.7653668647301818,-34.84775906502257 " />
        <path style="fill:none;stroke:#50514F;stroke-width:0.1px;stroke-linecap:square" d="M 1.6458512540929765e-15,-28.0 L 1.7013624053242343e-15,-29.0 L 1.7568735565554921e-15,-30.0 L 1.81238470778675e-15,-31.0 L 1.867895859018008e-15,-32.0 L -0.38268343236508784,-32.923879532511286 L -0.7653668647301776,-33.84775906502257 L -1.1480502970952673,-34.77163859753386 L -1.5307337294603571,-35.695518130045144 L -1.9134171618254467,-36.61939766255643 L -2.2961005941905364,-37.543277195067716 L -2.2961005941905364,-38.543277195067716 L -2.2961005941905364,-39.543277195067716 L -2.678784026555626,-40.467156727579 " />
        <path style="fill:none;stroke:#50514F;stroke-width:0.1px;stroke-linecap:square" d="M -2.2961005941905364,-37.543277195067716 L -2.678784026555626,-38.467156727579 L -3.0614674589207156,-39.39103626009029 L -3.768574240107263,-40.098143041276835 " />
        <path style="fill:none;stroke:#50514F;stroke-width:0.1px;stroke-linecap:square" d="M -2.2961005941905364,-37.543277195067716 L -2.678784026555626,-38.467156727579 L -3.0614674589207156,-39.39103626009029 L -3.768574240107263,-40.098143041276835 L -4.475681021293811,-40.80524982246338 L -5.182787802480359,-41.51235660364993 L -5.889894583666907,-42.21946338483647 L -6.813774116178194,-42.602146817201564 " />
        <path style="fill:none;stroke:#50514F;stroke-width:0.1px;stroke-linecap:square" d="M -3.0614674589207156,-39.39103626009029 L -3.0614674589207156,-40.39103626009029 L -3.0614674589207156,-41.39103626009029 L -3.444150891285805,-42.314915792601575 " />
        <path style="fill:none;stroke:#50514F;stroke-width:0.1px;stroke-linecap:square" d="M 1.867895859018008e-15,-32.0 L 0.3826834323650917,-32.923879532511286 L 0.7653668647301816,-33.84775906502257 L 1.4724736459167294,-34.55486584620912 L 2.179580427103277,-35.261972627395664 L 2.562263859468367,-36.18585215990695 " />
        <path style="fill:none;stroke:#50514F;stroke-width:0.1px;stroke-linecap:square" d="M 0.7653668647301816,-33.84775906502257 L 1.1480502970952715,-34.77163859753386 L 1.5307337294603616,-35.695518130045144 L 1.5307337294603616,-36.695518130045144 " />
        <path style="fill:none;stroke:#50514F;stroke-width:0.1px;stroke-linecap:square" d="M 0.7653668647301816,-33.84775906502257 L 1.1480502970952715,-34.77163859753386 L 1.5307337294603616,-35.695518130045144 L 1.5307337294603616,-36.695518130045144 L 1.5307337294603616,-37.695518130045144 L 1.5307337294603616,-38.695518130045144 L 1.5307337294603616,-39.695518130045144 L 1.148050297095272,-40.61939766255643 " />
        <path style="fill:none;stroke:#50514F;stroke-width:0.1px;stroke-linecap:square" d="M 1.5307337294603616,-35.695518130045144 L 2.237840510646909,-36.40262491123169 L 2.944947291833457,-37.10973169241824 L 3.327630724198547,-38.03361122492952 " />
        <path style="fill:none;stroke:#50514F;stroke-width:0.1px;stroke-linecap:square" d="M 1.4238066491679452e-15,-24.0 L 1.479317800399203e-15,-25.0 L 1.5348289516304608e-15,-26.0 L 1.5903401028617187e-15,-27.0 L 1.6458512540929765e-15,-28.0 L 1.7013624053242343e-15,-29.0 L 1.7568735565554921e-15,-30.0 L 1.81238470778675e-15,-31.0 L 1.867895859018008e-15,-32.0 L -0.38268343236508784,-32.923879532511286 L -0.7653668647301776,-33.84775906502257 L -1.1480502970952673,-34.77163859753386 L -1.5307337294603571,-35.695518130045144 L -1.9134171618254467,-36.61939766255643 L -2.2961005941905364,-37.543277195067716 L -2.678784026555626,-38.467156727579 L -3.0614674589207156,-39.39103626009029 L -3.444150891285805,-40.314915792601575 L -3.826834323650895,-41.23879532511286 L -4.209517756015985,-42.16267485762415 L -4.5922011883810745,-43.08655439013543 L -4.5922011883810745,-44.08655439013543 L -4.5922011883810745,-45.08655439013543 L -4.209517756015985,-46.01043392264672 L -3.826834323650895,-46.934313455158005 L -3.826834323650895,-47.934313455158005 " />
        <path style="fill:none;stroke:#50514F;stroke-width:0.1px;stroke-linecap:square" d="M -4.5922011883810745,-45.08655439013543 L -4.5922011883810745,-46.08655439013543 L -4.5922011883810745,-47.08655439013543 L -4.974884620746164,-48.01043392264672 " />
        <path style="fill:none;stroke:#50514F;stroke-width:0.1px;stroke-linecap:square" d="M -4.5922011883810745,-45.08655439013543 L -4.5922011883810745,-46.08655439013543 L -4.5922011883810745,-47.08655439013543 L -4.974884620746164,-48.01043392264672 L -5.357568053111254,-48.934313455158005 L -5.740251485476343,-49.85819298766929 L -6.122934917841433,-50.78207252018058 L -6.83004169902798,-51.48917930136712 " />
        <path style="fill:none;stroke:#50514F;stroke-width:0.1px;stroke-linecap:square" d="M -4.5922011883810745,-47.08655439013543 L -4.209517756015985,-48.01043392264672 L -3.826834323650895,-48.934313455158005 L -3.826834323650895,-49.934313455158005 " />
        <path style="fill:none;stroke:#50514F;stroke-width:0.1px;stroke-linecap:square" d="M -4.5922011883810745,-43.08655439013543 L -4.974884620746164,-44.01043392264672 L -5.357568053111254,-44.934313455158005 L -5.357568053111254,-45.934313455158005 L -5.357568053111254,-46.934313455158005 L -5.740251485476343,-47.85819298766929 " />
        <path style="fill:none;stroke:#50514F;stroke-width:0.1px;stroke-linecap:square" d="M -5.357568053111254,-44.934313455158005 L -5.740251485476343,-45.85819298766929 L -6.122934917841433,-46.78207252018058 L -6.83004169902798,-47.48917930136712 " />
        <path style="fill:none;stroke:#50514F;stroke-width:0.1px;stroke-linecap:square" d="M -5.357568053111254,-44.934313455158005 L -5.740251485476343,-45.85819298766929 L -6.122934917841433,-46.78207252018058 L -6.83004169902798,-47.48917930136712 L -7.537148480214528,-48.19628608255367 L -8.244255261401076,-48.903392863740216 L -8.951362042587624,-49.61049964492676 L -9.87524157509891,-49.99318307729185 " />
        <path style="fill:none;stroke:#50514F;stroke-width:0.1px;stroke-linecap:square" d="M -6.122934917841433,-46.78207252018058 L -6.122934917841433,-47.78207252018058 L -6.122934917841433,-48.78207252018058 L -6.505618350206523,-49.70595205269186 " />
        <path style="fill:none;stroke:#50514F;stroke-width:0.1px;stroke-linecap:square" d="M -4.5922011883810745,-43.08655439013543 L -4.974884620746164,-44.01043392264672 L -5.357568053111254,-44.934313455158005 L -5.740251485476343,-45.85819298766929 L -6.122934917841433,-46.78207252018058 L -6.83004169902798,-47.48917930136712 L -7.537148480214528,-48.19628608255367 L -8.244255261401076,-48.903392863740216 L -8.951362042587624,-49.61049964492676 L -9.658468823774172,-50.31760642611331 L -10.36557560496072,-51.024713207299854 L -10.74825903732581,-51.94859273981114 L -11.130942469690899,-52.872472272322426 L -11.838049250877447,-53.57957905350897 " />
        <path style="fill:none;stroke:#50514F;stroke-width:0.1px;stroke-linecap:square" d="M -10.36557560496072,-51.024713207299854 L -11.072682386147267,-51.7318199884864 L -11.779789167333815,-52.438926769672946 L -12.703668699845101,-52.82161020203804 " />
        <path style="fill:none;stroke:#50514F;stroke-width:0.1px;stroke-linecap:square" d="M -10.36557560496072,-51.024713207299854 L -11.072682386147267,-51.7318199884864 L -11.779789167333815,-52.438926769672946 L -12.703668699845101,-52.82161020203804 L -13.627548232356387,-53.20429363440313 L -14.551427764867674,-53.58697706676822 L -15.47530729737896,-53.96966049913331 L -16.475307297378958,-53.96966049913331 " />
        <path style="fill:none;stroke:#50514F;stroke-width:0.1px;stroke-linecap:square" d="M -11.779789167333815,-52.438926769672946 L -12.162472599698905,-53.36280630218423 L -12.545156032063995,-54.28668583469552 L -13.252262813250542,-54.993792615882064 " />
        <path style="fill:none;stroke:#50514F;stroke-width:0.1px;stroke-linecap:square" d="M -6.122934917841433,-46.78207252018058 L -6.122934917841433,-47.78207252018058 L -6.122934917841433,-48.78207252018058 L -5.740251485476343,-49.70595205269186 L -5.357568053111254,-50.62983158520315 L -5.357568053111254,-51.62983158520315 " />
        <path style="fill:none;stroke:#50514F;stroke-width:0.1px;stroke-linecap:square" d="M -6.122934917841433,-48.78207252018058 L -6.122934917841433,-49.78207252018058 L -6.122934917841433,-50.78207252018058 L -6.505618350206523,-51.70595205269186 " />
        <path style="fill:none;stroke:#50514F;stroke-width:0.1px;stroke-linecap:square" d="M -6.122934917841433,-48.78207252018058 L -6.122934917841433,-49.78207252018058 L -6.122934917841433,-50.78207252018058 L -6.505618350206523,-51.70595205269186 L -6.888301782571612,-52.62983158520315 L -7.270985214936702,-53.553711117714435 L -7.653668647301791,-54.47759065022572 L -8.360775428488338,-55.18469743141227 " />
        <path style="fill:none;stroke:#50514F;stroke-width:0.1px;stroke-linecap:square" d="M -6.122934917841433,-50.78207252018058 L -5.740251485476343,-51.70595205269186 L -5.357568053111254,-52.62983158520315 L -5.357568053111254,-53.62983158520315 " />
        <path style="fill:none;stroke:#50514F;stroke-width:0.1px;stroke-linecap:square" d="M 1.867895859018008e-15,-32.0 L 0.3826834323650917,-32.923879532511286 L 0.7653668647301816,-33.84775906502257 L 1.1480502970952715,-34.77163859753386 L 1.5307337294603613,-35.695518130045144 L 2.237840510646909,-36.40262491123169 L 2.944947291833457,-37.10973169241824 L 3.868826824344744,-37.49241512478333 L 4.792706356856031,-37.87509855714842 L 5.499813138042579,-38.582205338334965 " />
        <path style="fill:none;stroke:#50514F;stroke-width:0.1px;stroke-linecap:square" d="M 2.944947291833457,-37.10973169241824 L 3.652054073020005,-37.81683847360478 L 4.359160854206553,-38.52394525479133 L 4.741844286571642,-39.447824787302615 " />
        <path style="fill:none;stroke:#50514F;stroke-width:0.1px;stroke-linecap:square" d="M 2.944947291833457,-37.10973169241824 L 3.652054073020005,-37.81683847360478 L 4.359160854206553,-38.52394525479133 L 4.741844286571642,-39.447824787302615 L 5.124527718936732,-40.3717043198139 L 5.507211151301822,-41.29558385232519 L 5.889894583666911,-42.21946338483647 L 5.889894583666911,-43.21946338483647 " />
        <path style="fill:none;stroke:#50514F;stroke-width:0.1px;stroke-linecap:square" d="M 4.359160854206553,-38.52394525479133 L 5.28304038671784,-38.90662868715642 L 6.206919919229127,-39.28931211952151 L 6.914026700415675,-39.99641890070806 " />
        <path style="fill:none;stroke:#50514F;stroke-width:0.1px;stroke-linecap:square" d="M 1.5307337294603613,-35.695518130045144 L 1.9134171618254512,-36.61939766255643 L 2.2961005941905412,-37.543277195067716 L 3.003207375377089,-38.25038397625426 L 3.710314156563637,-38.95749075744081 L 4.092997588928727,-39.881370289952095 " />
        <path style="fill:none;stroke:#50514F;stroke-width:0.1px;stroke-linecap:square" d="M 2.2961005941905412,-37.543277195067716 L 2.6787840265556313,-38.467156727579 L 3.0614674589207214,-39.39103626009029 L 3.0614674589207214,-40.39103626009029 " />
        <path style="fill:none;stroke:#50514F;stroke-width:0.1px;stroke-linecap:square" d="M 2.2961005941905412,-37.543277195067716 L 2.6787840265556313,-38.467156727579 L 3.0614674589207214,-39.39103626009029 L 3.0614674589207214,-40.39103626009029 L 3.0614674589207214,-41.39103626009029 L 3.0614674589207214,-42.39103626009029 L 3.0614674589207214,-43.39103626009029 L 2.6787840265556317,-44.314915792601575 " />
        <path style="fill:none;stroke:#50514F;stroke-width:0.1px;stroke-linecap:square" d="M 3.0614674589207214,-39.39103626009029 L 3.7685742401072693,-40.098143041276835 L 4.475681021293817,-40.80524982246338 L 4.858364453658907,-41.72912935497467 " />
        <path style="fill:none;stroke:#50514F;stroke-width:0.1px;stroke-linecap:square" d="M 1.5307337294603613,-35.695518130045144 L 1.9134171618254512,-36.61939766255643 L 2.2961005941905412,-37.543277195067716 L 2.6787840265556313,-38.467156727579 L 3.0614674589207214,-39.39103626009029 L 3.0614674589207214,-40.39103626009029 L 3.0614674589207214,-41.39103626009029 L 3.0614674589207214,-42.39103626009029 L 3.0614674589207214,-43.39103626009029 L 3.0614674589207214,-44.39103626009029 L 3.0614674589207214,-45.39103626009029 L 3.4441508912858114,-46.314915792601575 L 3.8268343236509015,-47.23879532511286 L 3.8268343236509015,-48.23879532511286 " />
        <path style="fill:none;stroke:#50514F;stroke-width:0.1px;stroke-linecap:square" d="M 3.0614674589207214,-45.39103626009029 L 3.0614674589207214,-46.39103626009029 L 3.0614674589207214,-47.39103626009029 L 2.6787840265556317,-48.314915792601575 " />
        <path style="fill:none;stroke:#50514F;stroke-width:0.1px;stroke-linecap:square" d="M 3.0614674589207214,-45.39103626009029 L 3.0614674589207214,-46.39103626009029 L 3.0614674589207214,-47.39103626009029 L 2.6787840265556317,-48.314915792601575 L 2.296100594190542,-49.23879532511286 L 1.9134171618254525,-50.16267485762415 L 1.530733729460363,-51.08655439013543 L 0.8236269482738154,-51.79366117132198 " />
        <path style="fill:none;stroke:#50514F;stroke-width:0.1px;stroke-linecap:square" d="M 3.0614674589207214,-47.39103626009029 L 3.444150891285811,-48.314915792601575 L 3.826834323650901,-49.23879532511286 L 3.826834323650901,-50.23879532511286 " />
        <path style="fill:none;stroke:#50514F;stroke-width:0.1px;stroke-linecap:square" d="M 3.0614674589207214,-39.39103626009029 L 3.7685742401072693,-40.098143041276835 L 4.475681021293817,-40.80524982246338 L 5.399560553805104,-41.18793325482847 L 6.323440086316391,-41.570616687193564 L 7.030546867502939,-42.27772346838011 " />
        <path style="fill:none;stroke:#50514F;stroke-width:0.1px;stroke-linecap:square" d="M 4.475681021293817,-40.80524982246338 L 5.182787802480365,-41.51235660364993 L 5.889894583666913,-42.21946338483647 L 6.272578016032003,-43.14334291734776 " />
        <path style="fill:none;stroke:#50514F;stroke-width:0.1px;stroke-linecap:square" d="M 4.475681021293817,-40.80524982246338 L 5.182787802480365,-41.51235660364993 L 5.889894583666913,-42.21946338483647 L 6.272578016032003,-43.14334291734776 L 6.655261448397092,-44.067222449859045 L 7.037944880762182,-44.99110198237033 L 7.4206283131272714,-45.91498151488162 L 7.4206283131272714,-46.91498151488162 " />
        <path style="fill:none;stroke:#50514F;stroke-width:0.1px;stroke-linecap:square" d="M 5.889894583666913,-42.21946338483647 L 6.8137741161782,-42.602146817201564 L 7.737653648689487,-42.984830249566656 L 8.444760429876034,-43.6919370307532 " />
        <path style="fill:none;stroke:#50514F;stroke-width:0.1px;stroke-linecap:square" d="M 9.797174393178826e-16,-16.0 L 1.0352285905491404e-15,-17.0 L 1.0907397417803982e-15,-18.0 L 1.146250893011656e-15,-19.0 L 1.2017620442429139e-15,-20.0 L 1.2572731954741717e-15,-21.0 L 1.3127843467054295e-15,-22.0 L 1.3682954979366874e-15,-23.0 L 1.4238066491679452e-15,-24.0 L 1.479317800399203e-15,-25.0 L 1.5348289516304608e-15,-26.0 L 1.5903401028617187e-15,-27.0 L 1.6458512540929765e-15,-28.0 L 1.7013624053242343e-15,-29.0 L 1.7568735565554921e-15,-30.0 L 1.81238470778675e-15,-31.0 L 1.867895859018008e-15,-32.0 L -0.38268343236508784,-32.923879532511286 L -0.7653668647301776,-33.84775906502257 L -1.1480502970952673,-34.77163859753386 L -1.5307337294603571,-35.695518130045144 L -1.9134171618254467,-36.61939766255643 L -2.2961005941905364,-37.543277195067716 L -2.678784026555626,-38.467156727579 L -3.0614674589207156,-39.39103626009029 L -3.444150891285805,-40.314915792601575 L -3.826834323650895,-41.23879532511286 L -4.209517756015985,-42.16267485762415 L -4.5922011883810745,-43.08655439013543 L -4.974884620746164,-44.01043392264672 L -5.357568053111254,-44.934313455158005 L -5.740251485476343,-45.85819298766929 L -6.122934917841433,-46.78207252018058 L -6.505618350206523,-47.70595205269186 L -6.888301782571612,-48.62983158520315 L -7.270985214936702,-49.553711117714435 L -7.653668647301791,-50.47759065022572 L -8.036352079666882,-51.40147018273701 L -8.419035512031972,-52.325349715248294 L -8.801718944397061,-53.24922924775958 L -9.18440237676215,-54.173108780270866 L -9.18440237676215,-55.173108780270866 L -9.18440237676215,-56.173108780270866 L -9.18440237676215,-57.173108780270866 L -9.18440237676215,-58.173108780270866 L -8.801718944397061,-59.09698831278215 L -8.419035512031972,-60.02086784529344 L -7.711928730845424,-60.727974626479984 L -7.004821949658876,-61.43508140766653 L -6.622138517293786,-62.358960940177816 " />
        <path style="fill:none;stroke:#50514F;stroke-width:0.1px;stroke-linecap:square" d="M -8.419035512031972,-60.02086784529344 L -8.036352079666882,-60.944747377804724 L -7.653668647301792,-61.86862691031601 L -7.653668647301792,-62.86862691031601 " />
        <path style="fill:none;stroke:#50514F;stroke-width:0.1px;stroke-linecap:square" d="M -8.419035512031972,-60.02086784529344 L -8.036352079666882,-60.944747377804724 L -7.653668647301792,-61.86862691031601 L -7.653668647301792,-62.86862691031601 L -7.653668647301792,-63.86862691031601 L -7.653668647301792,-64.86862691031601 L -7.653668647301792,-65.86862691031601 L -8.036352079666882,-66.7925064428273 " />
        <path style="fill:none;stroke:#50514F;stroke-width:0.1px;stroke-linecap:square" d="M -7.653668647301792,-61.86862691031601 L -6.946561866115244,-62.575733691502556 L -6.2394550849286965,-63.2828404726891 L -5.856771652563607,-64.2067200052004 " />
        <path style="fill:none;stroke:#50514F;stroke-width:0.1px;stroke-linecap:square" d="M -9.18440237676215,-58.173108780270866 L -9.18440237676215,-59.173108780270866 L -9.18440237676215,-60.173108780270866 L -8.801718944397061,-61.09698831278215 L -8.419035512031972,-62.02086784529344 L -8.419035512031972,-63.02086784529344 " />
        <path style="fill:none;stroke:#50514F;stroke-width:0.1px;stroke-linecap:square" d="M -9.18440237676215,-60.173108780270866 L -9.18440237676215,-61.173108780270866 L -9.18440237676215,-62.173108780270866 L -9.56708580912724,-63.09698831278215 " />
        <path style="fill:none;stroke:#50514F;stroke-width:0.1px;stroke-linecap:square" d="M -9.18440237676215,-60.173108780270866 L -9.18440237676215,-61.173108780270866 L -9.18440237676215,-62.173108780270866 L -9.56708580912724,-63.09698831278215 L -9.94976924149233,-64.02086784529344 L -10.33245267385742,-64.94474737780473 L -10.71513610622251,-65.86862691031602 L -11.422242887409057,-66.57573369150258 " />
        <path style="fill:none;stroke:#50514F;stroke-width:0.1px;stroke-linecap:square" d="M -9.18440237676215,-62.173108780270866 L -8.801718944397061,-63.09698831278215 L -8.419035512031972,-64.02086784529344 L -8.419035512031972,-65.02086784529344 " />
        <path style="fill:none;stroke:#50514F;stroke-width:0.1px;stroke-linecap:square" d="M -9.18440237676215,-58.173108780270866 L -9.18440237676215,-59.173108780270866 L -9.18440237676215,-60.173108780270866 L -9.18440237676215,-61.173108780270866 L -9.18440237676215,-62.173108780270866 L -9.56708580912724,-63.09698831278215 L -9.94976924149233,-64.02086784529344 L -10.33245267385742,-64.94474737780473 L -10.71513610622251,-65.86862691031602 L -11.097819538587599,-66.79250644282732 L -11.480502970952688,-67.71638597533861 L -11.480502970952688,-68.71638597533861 L -11.480502970952688,-69.71638597533861 L -11.863186403317778,-70.6402655078499 " />
        <path style="fill:none;stroke:#50514F;stroke-width:0.1px;stroke-linecap:square" d="M -11.480502970952688,-67.71638597533861 L -11.863186403317778,-68.6402655078499 L -12.245869835682868,-69.5641450403612 L -12.952976616869416,-70.27125182154775 " />
        <path style="fill:none;stroke:#50514F;stroke-width:0.1px;stroke-linecap:square" d="M -11.480502970952688,-67.71638597533861 L -11.863186403317778,-68.6402655078499 L -12.245869835682868,-69.5641450403612 L -12.952976616869416,-70.27125182154775 L -13.660083398055963,-70.9783586027343 L -14.367190179242511,-71.68546538392086 L -15.07429696042906,-72.39257216510741 L -15.998176492940345,-72.7752555974725 " />
        <path style="fill:none;stroke:#50514F;stroke-width:0.1px;stroke-linecap:square" d="M -12.245869835682868,-69.5641450403612 L -12.245869835682868,-70.5641450403612 L -12.245869835682868,-71.5641450403612 L -12.628553268047957,-72.48802457287249 " />
        <path style="fill:none;stroke:#50514F;stroke-width:0.1px;stroke-linecap:square" d="M -9.18440237676215,-62.173108780270866 L -8.801718944397061,-63.09698831278215 L -8.419035512031972,-64.02086784529344 L -7.711928730845424,-64.72797462647999 L -7.004821949658876,-65.43508140766654 L -6.622138517293786,-66.35896094017784 " />
        <path style="fill:none;stroke:#50514F;stroke-width:0.1px;stroke-linecap:square" d="M -8.419035512031972,-64.02086784529344 L -8.036352079666882,-64.94474737780473 L -7.653668647301792,-65.86862691031602 L -7.653668647301792,-66.86862691031602 " />
        <path style="fill:none;stroke:#50514F;stroke-width:0.1px;stroke-linecap:square" d="M -8.419035512031972,-64.02086784529344 L -8.036352079666882,-64.94474737780473 L -7.653668647301792,-65.86862691031602 L -7.653668647301792,-66.86862691031602 L -7.653668647301792,-67.86862691031602 L -7.653668647301792,-68.86862691031602 L -7.653668647301792,-69.86862691031602 L -8.036352079666882,-70.79250644282732 " />
        <path style="fill:none;stroke:#50514F;stroke-width:0.1px;stroke-linecap:square" d="M -7.653668647301792,-65.86862691031602 L -6.946561866115244,-66.57573369150258 L -6.2394550849286965,-67.28284047268913 L -5.856771652563607,-68.20672000520042 " />
        <path style="fill:none;stroke:#50514F;stroke-width:0.1px;stroke-linecap:square" d="M -9.18440237676215,-54.173108780270866 L -9.56708580912724,-55.09698831278215 L -9.94976924149233,-56.02086784529344 L -10.33245267385742,-56.944747377804724 L -10.71513610622251,-57.86862691031601 L -10.71513610622251,-58.86862691031601 L -10.71513610622251,-59.86862691031601 L -10.33245267385742,-60.792506442827296 L -9.94976924149233,-61.71638597533858 L -9.94976924149233,-62.71638597533858 " />
        <path style="fill:none;stroke:#50514F;stroke-width:0.1px;stroke-linecap:square" d="M -10.71513610622251,-59.86862691031601 L -10.71513610622251,-60.86862691031601 L -10.71513610622251,-61.86862691031601 L -11.097819538587599,-62.792506442827296 " />
        <path style="fill:none;stroke:#50514F;stroke-width:0.1px;stroke-linecap:square" d="M -10.71513610622251,-59.86862691031601 L -10.71513610622251,-60.86862691031601 L -10.71513610622251,-61.86862691031601 L -11.097819538587599,-62.792506442827296 L -11.480502970952688,-63.71638597533858 L -11.863186403317778,-64.64026550784988 L -12.245869835682868,-65.56414504036117 L -12.952976616869416,-66.27125182154772 " />
        <path style="fill:none;stroke:#50514F;stroke-width:0.1px;stroke-linecap:square" d="M -10.71513610622251,-61.86862691031601 L -10.33245267385742,-62.792506442827296 L -9.94976924149233,-63.71638597533858 L -9.94976924149233,-64.71638597533858 " />
        <path style="fill:none;stroke:#50514F;stroke-width:0.1px;stroke-linecap:square" d="M -10.71513610622251,-57.86862691031601 L -11.097819538587599,-58.792506442827296 L -11.480502970952688,-59.71638597533858 L -11.480502970952688,-60.71638597533858 L -11.480502970952688,-61.71638597533858 L -11.863186403317778,-62.64026550784987 " />
        <path style="fill:none;stroke:#50514F;stroke-width:0.1px;stroke-linecap:square" d="M -11.480502970952688,-59.71638597533858 L -11.863186403317778,-60.64026550784987 L -12.245869835682868,-61.564145040361154 L -12.952976616869416,-62.2712518215477 " />
        <path style="fill:none;stroke:#50514F;stroke-width:0.1px;stroke-linecap:square" d="M -11.480502970952688,-59.71638597533858 L -11.863186403317778,-60.64026550784987 L -12.245869835682868,-61.564145040361154 L -12.952976616869416,-62.2712518215477 L -13.660083398055963,-62.97835860273425 L -14.367190179242511,-63.68546538392079 L -15.07429696042906,-64.39257216510734 L -15.998176492940345,-64.77525559747242 " />
        <path style="fill:none;stroke:#50514F;stroke-width:0.1px;stroke-linecap:square" d="M -12.245869835682868,-61.564145040361154 L -12.245869835682868,-62.564145040361154 L -12.245869835682868,-63.564145040361154 L -12.628553268047957,-64.48802457287245 " />
        <path style="fill:none;stroke:#50514F;stroke-width:0.1px;stroke-linecap:square" d="M -10.71513610622251,-57.86862691031601 L -11.097819538587599,-58.792506442827296 L -11.480502970952688,-59.71638597533858 L -11.863186403317778,-60.64026550784987 L -12.245869835682868,-61.564145040361154 L -12.952976616869416,-62.2712518215477 L -13.660083398055963,-62.97835860273425 L -14.367190179242511,-63.68546538392079 L -15.07429696042906,-64.39257216510734 L -15.781403741615607,-65.09967894629389 L -16.488510522802155,-65.80678572748045 L -16.871193955167247,-66.73066525999174 L -17.253877387532338,-67.65454479250303 L -17.960984168718884,-68.36165157368958 " />
        <path style="fill:none;stroke:#50514F;stroke-width:0.1px;stroke-linecap:square" d="M -16.488510522802155,-65.80678572748045 L -17.1956173039887,-66.513892508667 L -17.902724085175247,-67.22099928985355 L -18.826603617686533,-67.60368272221864 " />
        <path style="fill:none;stroke:#50514F;stroke-width:0.1px;stroke-linecap:square" d="M -16.488510522802155,-65.80678572748045 L -17.1956173039887,-66.513892508667 L -17.902724085175247,-67.22099928985355 L -18.826603617686533,-67.60368272221864 L -19.75048315019782,-67.98636615458372 L -20.674362682709106,-68.3690495869488 L -21.59824221522039,-68.75173301931389 L -22.59824221522039,-68.75173301931389 " />
        <path style="fill:none;stroke:#50514F;stroke-width:0.1px;stroke-linecap:square" d="M -17.902724085175247,-67.22099928985355 L -18.28540751754034,-68.14487882236484 L -18.66809094990543,-69.06875835487614 L -19.375197731091976,-69.77586513606269 " />
        <path style="fill:none;stroke:#50514F;stroke-width:0.1px;stroke-linecap:square" d="M -12.245869835682868,-61.564145040361154 L -12.245869835682868,-62.564145040361154 L -12.245869835682868,-63.564145040361154 L -11.863186403317778,-64.48802457287245 L -11.480502970952688,-65.41190410538374 L -11.480502970952688,-66.41190410538374 " />
        <path style="fill:none;stroke:#50514F;stroke-width:0.1px;stroke-linecap:square" d="M -12.245869835682868,-63.564145040361154 L -12.245869835682868,-64.56414504036115 L -12.245869835682868,-65.56414504036115 L -12.628553268047957,-66.48802457287245 " />
        <path style="fill:none;stroke:#50514F;stroke-width:0.1px;stroke-linecap:square" d="M -12.245869835682868,-63.564145040361154 L -12.245869835682868,-64.56414504036115 L -12.245869835682868,-65.56414504036115 L -12.628553268047957,-66.48802457287245 L -13.011236700413047,-67.41190410538374 L -13.393920132778137,-68.33578363789503 L -13.776603565143226,-69.25966317040633 L -14.483710346329774,-69.96676995159288 " />
        <path style="fill:none;stroke:#50514F;stroke-width:0.1px;stroke-linecap:square" d="M -12.245869835682868,-65.56414504036115 L -11.863186403317778,-66.48802457287245 L -11.480502970952688,-67.41190410538374 L -11.480502970952688,-68.41190410538374 " />
        <path style="fill:none;stroke:#50514F;stroke-width:0.1px;stroke-linecap:square" d="M -9.18440237676215,-54.173108780270866 L -9.56708580912724,-55.09698831278215 L -9.94976924149233,-56.02086784529344 L -10.33245267385742,-56.944747377804724 L -10.71513610622251,-57.86862691031601 L -11.097819538587599,-58.792506442827296 L -11.480502970952688,-59.71638597533858 L -11.863186403317778,-60.64026550784987 L -12.245869835682868,-61.564145040361154 L -12.952976616869416,-62.2712518215477 L -13.660083398055963,-62.97835860273425 L -14.367190179242511,-63.68546538392079 L -15.07429696042906,-64.39257216510734 L -15.781403741615607,-65.09967894629389 L -16.488510522802155,-65.80678572748045 L -17.1956173039887,-66.513892508667 L -17.902724085175247,-67.22099928985355 L -18.609830866361794,-67.9281060710401 L -19.31693764754834,-68.63521285222666 L -20.024044428734886,-69.34231963341321 L -20.731151209921432,-70.04942641459976 L -21.113834642286523,-70.97330594711106 L -21.496518074651615,-71.89718547962235 L -21.496518074651615,-72.89718547962235 L -21.496518074651615,-73.89718547962235 L -21.879201507016706,-74.82106501213364 " />
        <path style="fill:none;stroke:#50514F;stroke-width:0.1px;stroke-linecap:square" d="M -21.496518074651615,-71.89718547962235 L -21.879201507016706,-72.82106501213364 L -22.261884939381797,-73.74494454464494 L -22.968991720568344,-74.45205132583149 " />
        <path style="fill:none;stroke:#50514F;stroke-width:0.1px;stroke-linecap:square" d="M -21.496518074651615,-71.89718547962235 L -21.879201507016706,-72.82106501213364 L -22.261884939381797,-73.74494454464494 L -22.968991720568344,-74.45205132583149 L -23.67609850175489,-75.15915810701804 L -24.383205282941436,-75.8662648882046 L -25.090312064127982,-76.57337166939115 L -26.014191596639268,-76.95605510175623 " />
        <path style="fill:none;stroke:#50514F;stroke-width:0.1px;stroke-linecap:square" d="M -22.261884939381797,-73.74494454464494 L -22.261884939381797,-74.74494454464494 L -22.261884939381797,-75.74494454464494 L -22.64456837174689,-76.66882407715623 " />
        <path style="fill:none;stroke:#50514F;stroke-width:0.1px;stroke-linecap:square" d="M -20.731151209921432,-70.04942641459976 L -21.438257991107978,-70.75653319578632 L -22.145364772294524,-71.46363997697287 L -22.528048204659616,-72.38751950948416 L -22.910731637024707,-73.31139904199546 L -23.617838418211253,-74.01850582318201 " />
        <path style="fill:none;stroke:#50514F;stroke-width:0.1px;stroke-linecap:square" d="M -22.145364772294524,-71.46363997697287 L -22.85247155348107,-72.17074675815942 L -23.559578334667616,-72.87785353934598 L -24.483457867178902,-73.26053697171106 " />
        <path style="fill:none;stroke:#50514F;stroke-width:0.1px;stroke-linecap:square" d="M -22.145364772294524,-71.46363997697287 L -22.85247155348107,-72.17074675815942 L -23.559578334667616,-72.87785353934598 L -24.483457867178902,-73.26053697171106 L -25.40733739969019,-73.64322040407615 L -26.331216932201475,-74.02590383644123 L -27.25509646471276,-74.40858726880631 L -28.25509646471276,-74.40858726880631 " />
        <path style="fill:none;stroke:#50514F;stroke-width:0.1px;stroke-linecap:square" d="M -23.559578334667616,-72.87785353934598 L -23.942261767032708,-73.80173307185727 L -24.3249451993978,-74.72561260436856 L -25.032051980584345,-75.43271938555512 " />
        <path style="fill:none;stroke:#50514F;stroke-width:0.1px;stroke-linecap:square" d="M -20.731151209921432,-70.04942641459976 L -21.438257991107978,-70.75653319578632 L -22.145364772294524,-71.46363997697287 L -22.85247155348107,-72.17074675815942 L -23.559578334667616,-72.87785353934598 L -24.483457867178902,-73.26053697171106 L -25.40733739969019,-73.64322040407615 L -26.331216932201475,-74.02590383644123 L -27.25509646471276,-74.40858726880631 L -28.178975997224047,-74.7912707011714 L -29.102855529735333,-75.17395413353648 L -29.80996231092188,-75.88106091472304 L -30.517069092108425,-76.58816769590959 L -31.44094862461971,-76.97085112827467 " />
        <path style="fill:none;stroke:#50514F;stroke-width:0.1px;stroke-linecap:square" d="M -29.102855529735333,-75.17395413353648 L -30.02673506224662,-75.55663756590157 L -30.950614594757905,-75.93932099826665 L -31.950614594757905,-75.93932099826665 " />
        <path style="fill:none;stroke:#50514F;stroke-width:0.1px;stroke-linecap:square" d="M -29.102855529735333,-75.17395413353648 L -30.02673506224662,-75.55663756590157 L -30.950614594757905,-75.93932099826665 L -31.950614594757905,-75.93932099826665 L -32.9506145947579,-75.93932099826665 L -33.9506145947579,-75.93932099826665 L -34.9506145947579,-75.93932099826665 L -35.87449412726919,-75.55663756590157 " />
        <path style="fill:none;stroke:#50514F;stroke-width:0.1px;stroke-linecap:square" d="M -30.950614594757905,-75.93932099826665 L -31.65772137594445,-76.6464277794532 L -32.364828157131,-77.35353456063976 L -33.28870768964229,-77.73621799300484 " />
        <path style="fill:none;stroke:#50514F;stroke-width:0.1px;stroke-linecap:square" d="M -23.559578334667616,-72.87785353934598 L -23.942261767032708,-73.80173307185727 L -24.3249451993978,-74.72561260436856 L -24.3249451993978,-75.72561260436856 L -24.3249451993978,-76.72561260436856 L -24.70762863176289,-77.64949213687986 " />
        <path style="fill:none;stroke:#50514F;stroke-width:0.1px;stroke-linecap:square" d="M -24.3249451993978,-74.72561260436856 L -24.70762863176289,-75.64949213687986 L -25.090312064127982,-76.57337166939115 L -25.797418845314528,-77.2804784505777 " />
        <path style="fill:none;stroke:#50514F;stroke-width:0.1px;stroke-linecap:square" d="M -24.3249451993978,-74.72561260436856 L -24.70762863176289,-75.64949213687986 L -25.090312064127982,-76.57337166939115 L -25.797418845314528,-77.2804784505777 L -26.504525626501074,-77.98758523176426 L -27.21163240768762,-78.69469201295081 L -27.918739188874167,-79.40179879413736 L -28.842618721385453,-79.78448222650245 " />
        <path style="fill:none;stroke:#50514F;stroke-width:0.1px;stroke-linecap:square" d="M -25.090312064127982,-76.57337166939115 L -25.090312064127982,-77.57337166939115 L -25.090312064127982,-78.57337166939115 L -25.472995496493073,-79.49725120190244 " />
        <path style="fill:none;stroke:#50514F;stroke-width:0.1px;stroke-linecap:square" d="M -12.245869835682868,-61.564145040361154 L -12.245869835682868,-62.564145040361154 L -12.245869835682868,-63.564145040361154 L -12.245869835682868,-64.56414504036115 L -12.245869835682868,-65.56414504036115 L -11.863186403317778,-66.48802457287245 L -11.480502970952688,-67.41190410538374 L -10.77339618976614,-68.1190108865703 L -10.066289408579593,-68.82611766775685 L -9.683605976214503,-69.74999720026814 " />
        <path style="fill:none;stroke:#50514F;stroke-width:0.1px;stroke-linecap:square" d="M -11.480502970952688,-67.41190410538374 L -11.097819538587599,-68.33578363789503 L -10.71513610622251,-69.25966317040633 L -10.71513610622251,-70.25966317040633 " />
        <path style="fill:none;stroke:#50514F;stroke-width:0.1px;stroke-linecap:square" d="M -11.480502970952688,-67.41190410538374 L -11.097819538587599,-68.33578363789503 L -10.71513610622251,-69.25966317040633 L -10.71513610622251,-70.25966317040633 L -10.71513610622251,-71.25966317040633 L -10.71513610622251,-72.25966317040633 L -10.71513610622251,-73.25966317040633 L -11.097819538587599,-74.18354270291762 " />
        <path style="fill:none;stroke:#50514F;stroke-width:0.1px;stroke-linecap:square" d="M -10.71513610622251,-69.25966317040633 L -10.008029325035961,-69.96676995159288 L -9.300922543849413,-70.67387673277943 L -8.918239111484324,-71.59775626529073 " />
        <path style="fill:none;stroke:#50514F;stroke-width:0.1px;stroke-linecap:square" d="M -12.245869835682868,-65.56414504036115 L -12.245869835682868,-66.56414504036115 L -12.245869835682868,-67.56414504036115 L -11.863186403317778,-68.48802457287245 L -11.480502970952688,-69.41190410538374 L -11.480502970952688,-70.41190410538374 " />
        <path style="fill:none;stroke:#50514F;stroke-width:0.1px;stroke-linecap:square" d="M -12.245869835682868,-67.56414504036115 L -12.245869835682868,-68.56414504036115 L -12.245869835682868,-69.56414504036115 L -12.628553268047957,-70.48802457287245 " />
        <path style="fill:none;stroke:#50514F;stroke-width:0.1px;stroke-linecap:square" d="M -12.245869835682868,-67.56414504036115 L -12.245869835682868,-68.56414504036115 L -12.245869835682868,-69.56414504036115 L -12.628553268047957,-70.48802457287245 L -13.011236700413047,-71.41190410538374 L -13.393920132778137,-72.33578363789503 L -13.776603565143226,-73.25966317040633 L -14.483710346329774,-73.96676995159288 " />
        <path style="fill:none;stroke:#50514F;stroke-width:0.1px;stroke-linecap:square" d="M -12.245869835682868,-69.56414504036115 L -11.863186403317778,-70.48802457287245 L -11.480502970952688,-71.41190410538374 L -11.480502970952688,-72.41190410538374 " />
        <path style="fill:none;stroke:#50514F;stroke-width:0.1px;stroke-linecap:square" d="M -12.245869835682868,-65.56414504036115 L -12.245869835682868,-66.56414504036115 L -12.245869835682868,-67.56414504036115 L -12.245869835682868,-68.56414504036115 L -12.245869835682868,-69.56414504036115 L -12.628553268047957,-70.48802457287245 L -13.011236700413047,-71.41190410538374 L -13.393920132778137,-72.33578363789503 L -13.776603565143226,-73.25966317040633 L -14.159286997508316,-74.18354270291762 L -14.541970429873405,-75.10742223542891 L -14.541970429873405,-76.10742223542891 L -14.541970429873405,-77.10742223542891 L -14.924653862238495,-78.0313017679402 " />
        <path style="fill:none;stroke:#50514F;stroke-width:0.1px;stroke-linecap:square" d="M -14.541970429873405,-75.10742223542891 L -14.924653862238495,-76.0313017679402 L -15.307337294603585,-76.9551813004515 L -16.01444407579013,-77.66228808163805 " />
        <path style="fill:none;stroke:#50514F;stroke-width:0.1px;stroke-linecap:square" d="M -14.541970429873405,-75.10742223542891 L -14.924653862238495,-76.0313017679402 L -15.307337294603585,-76.9551813004515 L -16.01444407579013,-77.66228808163805 L -16.721550856976677,-78.3693948628246 L -17.428657638163223,-79.07650164401116 L -18.13576441934977,-79.78360842519771 L -19.059643951861055,-80.1662918575628 " />
        <path style="fill:none;stroke:#50514F;stroke-width:0.1px;stroke-linecap:square" d="M -15.307337294603585,-76.9551813004515 L -15.307337294603585,-77.9551813004515 L -15.307337294603585,-78.9551813004515 L -15.690020726968674,-79.8790608329628 " />
        <path style="fill:none;stroke:#50514F;stroke-width:0.1px;stroke-linecap:square" d="M -12.245869835682868,-69.56414504036115 L -11.863186403317778,-70.48802457287245 L -11.480502970952688,-71.41190410538374 L -10.77339618976614,-72.1190108865703 L -10.066289408579593,-72.82611766775685 L -9.683605976214503,-73.74999720026814 " />
        <path style="fill:none;stroke:#50514F;stroke-width:0.1px;stroke-linecap:square" d="M -11.480502970952688,-71.41190410538374 L -11.097819538587599,-72.33578363789503 L -10.71513610622251,-73.25966317040633 L -10.71513610622251,-74.25966317040633 " />
        <path style="fill:none;stroke:#50514F;stroke-width:0.1px;stroke-linecap:square" d="M -11.480502970952688,-71.41190410538374 L -11.097819538587599,-72.33578363789503 L -10.71513610622251,-73.25966317040633 L -10.71513610622251,-74.25966317040633 L -10.71513610622251,-75.25966317040633 L -10.71513610622251,-76.25966317040633 L -10.71513610622251,-77.25966317040633 L -11.097819538587599,-78.18354270291762 " />
        <path style="fill:none;stroke:#50514F;stroke-width:0.1px;stroke-linecap:square" d="M -10.71513610622251,-73.25966317040633 L -10.008029325035961,-73.96676995159288 L -9.300922543849413,-74.67387673277943 L -8.918239111484324,-75.59775626529073 " />
        <path style="fill:none;stroke:#50514F;stroke-width:0.1px;stroke-linecap:square" d="M 1.867895859018008e-15,-32.0 L 0.3826834323650917,-32.923879532511286 L 0.7653668647301816,-33.84775906502257 L 1.1480502970952715,-34.77163859753386 L 1.5307337294603613,-35.695518130045144 L 1.9134171618254512,-36.61939766255643 L 2.2961005941905412,-37.543277195067716 L 2.678784026555631,-38.467156727579 L 3.0614674589207205,-39.39103626009029 L 3.7685742401072684,-40.098143041276835 L 4.475681021293816,-40.80524982246338 L 5.182787802480364,-41.51235660364993 L 5.889894583666912,-42.21946338483647 L 6.813774116178199,-42.602146817201564 L 7.737653648689486,-42.984830249566656 L 8.737653648689486,-42.984830249566656 L 9.737653648689486,-42.984830249566656 L 10.661533181200772,-43.36751368193175 " />
        <path style="fill:none;stroke:#50514F;stroke-width:0.1px;stroke-linecap:square" d="M 7.737653648689486,-42.984830249566656 L 8.661533181200772,-43.36751368193175 L 9.585412713712058,-43.75019711429684 L 10.292519494898606,-44.457303895483385 " />
        <path style="fill:none;stroke:#50514F;stroke-width:0.1px;stroke-linecap:square" d="M 7.737653648689486,-42.984830249566656 L 8.661533181200772,-43.36751368193175 L 9.585412713712058,-43.75019711429684 L 10.292519494898606,-44.457303895483385 L 10.999626276085154,-45.16441067666993 L 11.706733057271702,-45.87151745785648 L 12.41383983845825,-46.57862423904302 L 12.79652327082334,-47.50250377155431 " />
        <path style="fill:none;stroke:#50514F;stroke-width:0.1px;stroke-linecap:square" d="M 9.585412713712058,-43.75019711429684 L 10.585412713712058,-43.75019711429684 L 11.585412713712058,-43.75019711429684 L 12.509292246223344,-44.13288054666193 " />
        <path style="fill:none;stroke:#50514F;stroke-width:0.1px;stroke-linecap:square" d="M 5.889894583666912,-42.21946338483647 L 6.59700136485346,-42.92657016602302 L 7.304108146040008,-43.633676947209565 L 8.227987678551294,-44.01636037957466 L 9.15186721106258,-44.39904381193975 L 9.858973992249128,-45.106150593126294 " />
        <path style="fill:none;stroke:#50514F;stroke-width:0.1px;stroke-linecap:square" d="M 7.304108146040008,-43.633676947209565 L 8.011214927226556,-44.34078372839611 L 8.718321708413104,-45.04789050958266 L 9.101005140778193,-45.971770042093944 " />
        <path style="fill:none;stroke:#50514F;stroke-width:0.1px;stroke-linecap:square" d="M 7.304108146040008,-43.633676947209565 L 8.011214927226556,-44.34078372839611 L 8.718321708413104,-45.04789050958266 L 9.101005140778193,-45.971770042093944 L 9.483688573143283,-46.89564957460523 L 9.866372005508373,-47.819529107116516 L 10.249055437873462,-48.7434086396278 L 10.249055437873462,-49.7434086396278 " />
        <path style="fill:none;stroke:#50514F;stroke-width:0.1px;stroke-linecap:square" d="M 8.718321708413104,-45.04789050958266 L 9.64220124092439,-45.43057394194775 L 10.566080773435676,-45.81325737431284 L 11.273187554622224,-46.52036415549939 " />
        <path style="fill:none;stroke:#50514F;stroke-width:0.1px;stroke-linecap:square" d="M 5.889894583666912,-42.21946338483647 L 6.59700136485346,-42.92657016602302 L 7.304108146040008,-43.633676947209565 L 8.011214927226556,-44.34078372839611 L 8.718321708413104,-45.04789050958266 L 9.101005140778193,-45.971770042093944 L 9.483688573143283,-46.89564957460523 L 9.866372005508373,-47.819529107116516 L 10.249055437873462,-48.7434086396278 L 10.631738870238552,-49.66728817213909 L 11.014422302603641,-50.591167704650374 L 11.72152908379019,-51.29827448583692 L 12.428635864976737,-52.005381267023466 L 12.811319297341827,-52.92926079953475 " />
        <path style="fill:none;stroke:#50514F;stroke-width:0.1px;stroke-linecap:square" d="M 11.014422302603641,-50.591167704650374 L 11.397105734968731,-51.51504723716166 L 11.77978916733382,-52.438926769672946 L 11.77978916733382,-53.438926769672946 " />
        <path style="fill:none;stroke:#50514F;stroke-width:0.1px;stroke-linecap:square" d="M 11.014422302603641,-50.591167704650374 L 11.397105734968731,-51.51504723716166 L 11.77978916733382,-52.438926769672946 L 11.77978916733382,-53.438926769672946 L 11.77978916733382,-54.438926769672946 L 11.77978916733382,-55.438926769672946 L 11.77978916733382,-56.438926769672946 L 11.397105734968731,-57.36280630218423 " />
        <path style="fill:none;stroke:#50514F;stroke-width:0.1px;stroke-linecap:square" d="M 11.77978916733382,-52.438926769672946 L 12.486895948520369,-53.14603355085949 L 13.194002729706916,-53.85314033204604 L 13.576686162072006,-54.777019864557325 " />
        <path style="fill:none;stroke:#50514F;stroke-width:0.1px;stroke-linecap:square" d="M 8.718321708413104,-45.04789050958266 L 9.64220124092439,-45.43057394194775 L 10.566080773435676,-45.81325737431284 L 11.566080773435676,-45.81325737431284 L 12.566080773435676,-45.81325737431284 L 13.489960305946962,-46.19594080667793 " />
        <path style="fill:none;stroke:#50514F;stroke-width:0.1px;stroke-linecap:square" d="M 10.566080773435676,-45.81325737431284 L 11.489960305946962,-46.19594080667793 L 12.413839838458248,-46.57862423904302 L 13.120946619644796,-47.28573102022957 " />
        <path style="fill:none;stroke:#50514F;stroke-width:0.1px;stroke-linecap:square" d="M 10.566080773435676,-45.81325737431284 L 11.489960305946962,-46.19594080667793 L 12.413839838458248,-46.57862423904302 L 13.120946619644796,-47.28573102022957 L 13.828053400831344,-47.992837801416115 L 14.535160182017892,-48.69994458260266 L 15.24226696320444,-49.40705136378921 L 15.62495039556953,-50.330930896300494 " />
        <path style="fill:none;stroke:#50514F;stroke-width:0.1px;stroke-linecap:square" d="M 12.413839838458248,-46.57862423904302 L 13.413839838458248,-46.57862423904302 L 14.413839838458248,-46.57862423904302 L 15.337719370969534,-46.961307671408115 " />
        <path style="fill:none;stroke:#50514F;stroke-width:0.1px;stroke-linecap:square" d="M 3.0614674589207205,-39.39103626009029 L 3.4441508912858105,-40.314915792601575 L 3.8268343236509006,-41.23879532511286 L 4.20951775601599,-42.16267485762415 L 4.59220118838108,-43.08655439013543 L 5.299307969567628,-43.79366117132198 L 6.006414750754176,-44.500767952508525 L 6.930294283265463,-44.88345138487362 L 7.85417381577675,-45.26613481723871 L 8.561280596963297,-45.973241598425254 " />
        <path style="fill:none;stroke:#50514F;stroke-width:0.1px;stroke-linecap:square" d="M 6.006414750754176,-44.500767952508525 L 6.7135215319407235,-45.20787473369507 L 7.4206283131272714,-45.91498151488162 L 7.803311745492361,-46.8388610473929 " />
        <path style="fill:none;stroke:#50514F;stroke-width:0.1px;stroke-linecap:square" d="M 6.006414750754176,-44.500767952508525 L 6.7135215319407235,-45.20787473369507 L 7.4206283131272714,-45.91498151488162 L 7.803311745492361,-46.8388610473929 L 8.185995177857452,-47.76274057990419 L 8.568678610222541,-48.686620112415476 L 8.95136204258763,-49.61049964492676 L 8.95136204258763,-50.61049964492676 " />
        <path style="fill:none;stroke:#50514F;stroke-width:0.1px;stroke-linecap:square" d="M 7.4206283131272714,-45.91498151488162 L 8.344507845638558,-46.29766494724671 L 9.268387378149844,-46.6803483796118 L 9.975494159336392,-47.387455160798346 " />
        <path style="fill:none;stroke:#50514F;stroke-width:0.1px;stroke-linecap:square" d="M 4.59220118838108,-43.08655439013543 L 4.974884620746169,-44.01043392264672 L 5.357568053111259,-44.934313455158005 L 6.064674834297807,-45.64142023634455 L 6.771781615484355,-46.3485270175311 L 7.1544650478494445,-47.27240655004238 " />
        <path style="fill:none;stroke:#50514F;stroke-width:0.1px;stroke-linecap:square" d="M 5.357568053111259,-44.934313455158005 L 5.740251485476349,-45.85819298766929 L 6.122934917841438,-46.78207252018058 L 6.122934917841438,-47.78207252018058 " />
        <path style="fill:none;stroke:#50514F;stroke-width:0.1px;stroke-linecap:square" d="M 5.357568053111259,-44.934313455158005 L 5.740251485476349,-45.85819298766929 L 6.122934917841438,-46.78207252018058 L 6.122934917841438,-47.78207252018058 L 6.122934917841438,-48.78207252018058 L 6.122934917841438,-49.78207252018058 L 6.122934917841438,-50.78207252018058 L 5.740251485476349,-51.70595205269186 " />
        <path style="fill:none;stroke:#50514F;stroke-width:0.1px;stroke-linecap:square" d="M 6.122934917841438,-46.78207252018058 L 6.830041699027986,-47.48917930136712 L 7.537148480214534,-48.19628608255367 L 7.919831912579624,-49.120165615064955 " />
        <path style="fill:none;stroke:#50514F;stroke-width:0.1px;stroke-linecap:square" d="M 4.59220118838108,-43.08655439013543 L 4.974884620746169,-44.01043392264672 L 5.357568053111259,-44.934313455158005 L 5.740251485476349,-45.85819298766929 L 6.122934917841438,-46.78207252018058 L 6.122934917841438,-47.78207252018058 L 6.122934917841438,-48.78207252018058 L 6.122934917841438,-49.78207252018058 L 6.122934917841438,-50.78207252018058 L 6.122934917841438,-51.78207252018058 L 6.122934917841438,-52.78207252018058 L 6.505618350206528,-53.70595205269186 L 6.8883017825716175,-54.62983158520315 L 6.8883017825716175,-55.62983158520315 " />
        <path style="fill:none;stroke:#50514F;stroke-width:0.1px;stroke-linecap:square" d="M 6.122934917841438,-52.78207252018058 L 6.122934917841438,-53.78207252018058 L 6.122934917841438,-54.78207252018058 L 5.740251485476349,-55.70595205269186 " />
        <path style="fill:none;stroke:#50514F;stroke-width:0.1px;stroke-linecap:square" d="M 6.122934917841438,-52.78207252018058 L 6.122934917841438,-53.78207252018058 L 6.122934917841438,-54.78207252018058 L 5.740251485476349,-55.70595205269186 L 5.357568053111259,-56.62983158520315 L 4.974884620746169,-57.553711117714435 L 4.59220118838108,-58.47759065022572 L 3.8850944071945324,-59.18469743141227 " />
        <path style="fill:none;stroke:#50514F;stroke-width:0.1px;stroke-linecap:square" d="M 6.122934917841438,-54.78207252018058 L 6.505618350206528,-55.70595205269186 L 6.8883017825716175,-56.62983158520315 L 6.8883017825716175,-57.62983158520315 " />
        <path style="fill:none;stroke:#50514F;stroke-width:0.1px;stroke-linecap:square" d="M 6.122934917841438,-46.78207252018058 L 6.830041699027986,-47.48917930136712 L 7.537148480214534,-48.19628608255367 L 8.461028012725821,-48.57896951491876 L 9.384907545237107,-48.96165294728385 L 10.092014326423655,-49.6687597284704 " />
        <path style="fill:none;stroke:#50514F;stroke-width:0.1px;stroke-linecap:square" d="M 7.537148480214534,-48.19628608255367 L 8.244255261401081,-48.903392863740216 L 8.951362042587629,-49.61049964492676 L 9.334045474952719,-50.53437917743805 " />
        <path style="fill:none;stroke:#50514F;stroke-width:0.1px;stroke-linecap:square" d="M 7.537148480214534,-48.19628608255367 L 8.244255261401081,-48.903392863740216 L 8.951362042587629,-49.61049964492676 L 9.334045474952719,-50.53437917743805 L 9.716728907317808,-51.458258709949334 L 10.099412339682898,-52.38213824246062 L 10.482095772047987,-53.306017774971906 L 10.482095772047987,-54.306017774971906 " />
        <path style="fill:none;stroke:#50514F;stroke-width:0.1px;stroke-linecap:square" d="M 8.951362042587629,-49.61049964492676 L 9.875241575098915,-49.99318307729185 L 10.799121107610201,-50.375866509656944 L 11.506227888796749,-51.08297329084349 " />
        <path style="fill:none;stroke:#50514F;stroke-width:0.1px;stroke-linecap:square" d="M 3.0614674589207205,-39.39103626009029 L 3.4441508912858105,-40.314915792601575 L 3.8268343236509006,-41.23879532511286 L 4.20951775601599,-42.16267485762415 L 4.59220118838108,-43.08655439013543 L 4.974884620746169,-44.01043392264672 L 5.357568053111259,-44.934313455158005 L 5.740251485476349,-45.85819298766929 L 6.122934917841438,-46.78207252018058 L 6.122934917841438,-47.78207252018058 L 6.122934917841438,-48.78207252018058 L 6.122934917841438,-49.78207252018058 L 6.122934917841438,-50.78207252018058 L 6.122934917841438,-51.78207252018058 L 6.122934917841438,-52.78207252018058 L 6.122934917841438,-53.78207252018058 L 6.122934917841438,-54.78207252018058 L 6.122934917841438,-55.78207252018058 L 6.122934917841438,-56.78207252018058 L 6.122934917841438,-57.78207252018058 L 6.122934917841438,-58.78207252018058 L 6.505618350206528,-59.70595205269186 L 6.8883017825716175,-60.62983158520315 L 7.595408563758165,-61.336938366389695 L 8.302515344944712,-62.04404514757624 L 8.685198777309802,-62.96792468008753 " />
        <path style="fill:none;stroke:#50514F;stroke-width:0.1px;stroke-linecap:square" d="M 6.8883017825716175,-60.62983158520315 L 7.270985214936707,-61.553711117714435 L 7.653668647301797,-62.47759065022572 L 7.653668647301797,-63.47759065022572 " />
        <path style="fill:none;stroke:#50514F;stroke-width:0.1px;stroke-linecap:square" d="M 6.8883017825716175,-60.62983158520315 L 7.270985214936707,-61.553711117714435 L 7.653668647301797,-62.47759065022572 L 7.653668647301797,-63.47759065022572 L 7.653668647301797,-64.47759065022572 L 7.653668647301797,-65.47759065022572 L 7.653668647301797,-66.47759065022572 L 7.270985214936707,-67.40147018273701 " />
        <path style="fill:none;stroke:#50514F;stroke-width:0.1px;stroke-linecap:square" d="M 7.653668647301797,-62.47759065022572 L 8.360775428488344,-63.18469743141227 L 9.067882209674892,-63.891804212598814 L 9.450565642039981,-64.8156837451101 " />
        <path style="fill:none;stroke:#50514F;stroke-width:0.1px;stroke-linecap:square" d="M 6.122934917841438,-58.78207252018058 L 6.122934917841438,-59.78207252018058 L 6.122934917841438,-60.78207252018058 L 6.505618350206528,-61.70595205269186 L 6.8883017825716175,-62.62983158520315 L 6.8883017825716175,-63.62983158520315 " />
        <path style="fill:none;stroke:#50514F;stroke-width:0.1px;stroke-linecap:square" d="M 6.122934917841438,-60.78207252018058 L 6.122934917841438,-61.78207252018058 L 6.122934917841438,-62.78207252018058 L 5.740251485476349,-63.70595205269186 " />
        <path style="fill:none;stroke:#50514F;stroke-width:0.1px;stroke-linecap:square" d="M 6.122934917841438,-60.78207252018058 L 6.122934917841438,-61.78207252018058 L 6.122934917841438,-62.78207252018058 L 5.740251485476349,-63.70595205269186 L 5.357568053111259,-64.62983158520315 L 4.974884620746169,-65.55371111771444 L 4.59220118838108,-66.47759065022574 L 3.8850944071945324,-67.18469743141229 " />
        <path style="fill:none;stroke:#50514F;stroke-width:0.1px;stroke-linecap:square" d="M 6.122934917841438,-62.78207252018058 L 6.505618350206528,-63.70595205269186 L 6.8883017825716175,-64.62983158520315 L 6.8883017825716175,-65.62983158520315 " />
        <path style="fill:none;stroke:#50514F;stroke-width:0.1px;stroke-linecap:square" d="M 6.122934917841438,-58.78207252018058 L 6.122934917841438,-59.78207252018058 L 6.122934917841438,-60.78207252018058 L 6.122934917841438,-61.78207252018058 L 6.122934917841438,-62.78207252018058 L 5.740251485476349,-63.70595205269186 L 5.357568053111259,-64.62983158520315 L 4.974884620746169,-65.55371111771444 L 4.59220118838108,-66.47759065022574 L 4.20951775601599,-67.40147018273703 L 3.8268343236509006,-68.32534971524832 L 3.8268343236509006,-69.32534971524832 L 3.8268343236509006,-70.32534971524832 L 3.444150891285811,-71.24922924775962 " />
        <path style="fill:none;stroke:#50514F;stroke-width:0.1px;stroke-linecap:square" d="M 3.8268343236509006,-68.32534971524832 L 3.444150891285811,-69.24922924775962 L 3.0614674589207214,-70.17310878027091 L 2.354360677734174,-70.88021556145746 " />
        <path style="fill:none;stroke:#50514F;stroke-width:0.1px;stroke-linecap:square" d="M 3.8268343236509006,-68.32534971524832 L 3.444150891285811,-69.24922924775962 L 3.0614674589207214,-70.17310878027091 L 2.354360677734174,-70.88021556145746 L 1.6472538965476264,-71.58732234264401 L 0.940147115361079,-72.29442912383057 L 0.23304033417453152,-73.00153590501712 L -0.6908391983367551,-73.3842193373822 " />
        <path style="fill:none;stroke:#50514F;stroke-width:0.1px;stroke-linecap:square" d="M 3.0614674589207214,-70.17310878027091 L 3.0614674589207214,-71.17310878027091 L 3.0614674589207214,-72.17310878027091 L 2.6787840265556317,-73.0969883127822 " />
        <path style="fill:none;stroke:#50514F;stroke-width:0.1px;stroke-linecap:square" d="M 6.122934917841438,-62.78207252018058 L 6.505618350206528,-63.70595205269186 L 6.8883017825716175,-64.62983158520315 L 7.595408563758165,-65.3369383663897 L 8.302515344944712,-66.04404514757626 L 8.685198777309802,-66.96792468008755 " />
        <path style="fill:none;stroke:#50514F;stroke-width:0.1px;stroke-linecap:square" d="M 6.8883017825716175,-64.62983158520315 L 7.270985214936707,-65.55371111771444 L 7.653668647301797,-66.47759065022574 L 7.653668647301797,-67.47759065022574 " />
        <path style="fill:none;stroke:#50514F;stroke-width:0.1px;stroke-linecap:square" d="M 6.8883017825716175,-64.62983158520315 L 7.270985214936707,-65.55371111771444 L 7.653668647301797,-66.47759065022574 L 7.653668647301797,-67.47759065022574 L 7.653668647301797,-68.47759065022574 L 7.653668647301797,-69.47759065022574 L 7.653668647301797,-70.47759065022574 L 7.270985214936707,-71.40147018273703 " />
        <path style="fill:none;stroke:#50514F;stroke-width:0.1px;stroke-linecap:square" d="M 7.653668647301797,-66.47759065022574 L 8.360775428488344,-67.18469743141229 L 9.067882209674892,-67.89180421259884 L 9.450565642039981,-68.81568374511014 " />
        <path style="fill:none;stroke:#50514F;stroke-width:0.1px;stroke-linecap:square" d="M 6.122934917841438,-46.78207252018058 L 6.830041699027986,-47.48917930136712 L 7.537148480214534,-48.19628608255367 L 8.244255261401081,-48.903392863740216 L 8.951362042587629,-49.61049964492676 L 9.875241575098915,-49.99318307729185 L 10.799121107610201,-50.375866509656944 L 11.799121107610201,-50.375866509656944 L 12.799121107610201,-50.375866509656944 L 13.723000640121487,-50.758549942022036 " />
        <path style="fill:none;stroke:#50514F;stroke-width:0.1px;stroke-linecap:square" d="M 10.799121107610201,-50.375866509656944 L 11.723000640121487,-50.758549942022036 L 12.646880172632773,-51.14123337438713 L 13.353986953819321,-51.84834015557367 " />
        <path style="fill:none;stroke:#50514F;stroke-width:0.1px;stroke-linecap:square" d="M 10.799121107610201,-50.375866509656944 L 11.723000640121487,-50.758549942022036 L 12.646880172632773,-51.14123337438713 L 13.353986953819321,-51.84834015557367 L 14.06109373500587,-52.55544693676022 L 14.768200516192417,-53.262553717946766 L 15.475307297378965,-53.96966049913331 L 15.857990729744055,-54.8935400316446 " />
        <path style="fill:none;stroke:#50514F;stroke-width:0.1px;stroke-linecap:square" d="M 12.646880172632773,-51.14123337438713 L 13.646880172632773,-51.14123337438713 L 14.646880172632773,-51.14123337438713 L 15.57075970514406,-51.52391680675222 " />
        <path style="fill:none;stroke:#50514F;stroke-width:0.1px;stroke-linecap:square" d="M 8.951362042587629,-49.61049964492676 L 9.658468823774177,-50.31760642611331 L 10.365575604960725,-51.024713207299854 L 11.289455137472011,-51.407396639664945 L 12.213334669983297,-51.79008007203004 L 12.920441451169845,-52.49718685321658 " />
        <path style="fill:none;stroke:#50514F;stroke-width:0.1px;stroke-linecap:square" d="M 10.365575604960725,-51.024713207299854 L 11.072682386147273,-51.7318199884864 L 11.77978916733382,-52.438926769672946 L 12.16247259969891,-53.36280630218423 " />
        <path style="fill:none;stroke:#50514F;stroke-width:0.1px;stroke-linecap:square" d="M 10.365575604960725,-51.024713207299854 L 11.072682386147273,-51.7318199884864 L 11.77978916733382,-52.438926769672946 L 12.16247259969891,-53.36280630218423 L 12.545156032064,-54.28668583469552 L 12.92783946442909,-55.210565367206804 L 13.310522896794179,-56.13444489971809 L 13.310522896794179,-57.13444489971809 " />
        <path style="fill:none;stroke:#50514F;stroke-width:0.1px;stroke-linecap:square" d="M 11.77978916733382,-52.438926769672946 L 12.703668699845107,-52.82161020203804 L 13.627548232356393,-53.20429363440313 L 14.33465501354294,-53.911400415589675 " />
        <path style="fill:none;stroke:#50514F;stroke-width:0.1px;stroke-linecap:square" d="M 8.951362042587629,-49.61049964492676 L 9.658468823774177,-50.31760642611331 L 10.365575604960725,-51.024713207299854 L 11.072682386147273,-51.7318199884864 L 11.77978916733382,-52.438926769672946 L 12.16247259969891,-53.36280630218423 L 12.545156032064,-54.28668583469552 L 12.92783946442909,-55.210565367206804 L 13.310522896794179,-56.13444489971809 L 13.693206329159269,-57.05832443222938 L 14.075889761524358,-57.98220396474066 L 14.782996542710906,-58.68931074592721 L 15.490103323897454,-59.396417527113755 L 15.872786756262544,-60.32029705962504 " />
        <path style="fill:none;stroke:#50514F;stroke-width:0.1px;stroke-linecap:square" d="M 14.075889761524358,-57.98220396474066 L 14.458573193889448,-58.90608349725195 L 14.841256626254538,-59.829963029763235 L 14.841256626254538,-60.829963029763235 " />
        <path style="fill:none;stroke:#50514F;stroke-width:0.1px;stroke-linecap:square" d="M 14.075889761524358,-57.98220396474066 L 14.458573193889448,-58.90608349725195 L 14.841256626254538,-59.829963029763235 L 14.841256626254538,-60.829963029763235 L 14.841256626254538,-61.829963029763235 L 14.841256626254538,-62.829963029763235 L 14.841256626254538,-63.829963029763235 L 14.458573193889448,-64.75384256227453 " />
        <path style="fill:none;stroke:#50514F;stroke-width:0.1px;stroke-linecap:square" d="M 14.841256626254538,-59.829963029763235 L 15.548363407441085,-60.53706981094978 L 16.255470188627633,-61.24417659213633 L 16.638153620992725,-62.16805612464761 " />
        <path style="fill:none;stroke:#50514F;stroke-width:0.1px;stroke-linecap:square" d="M 11.77978916733382,-52.438926769672946 L 12.703668699845107,-52.82161020203804 L 13.627548232356393,-53.20429363440313 L 14.627548232356393,-53.20429363440313 L 15.627548232356393,-53.20429363440313 L 16.55142776486768,-53.58697706676822 " />
        <path style="fill:none;stroke:#50514F;stroke-width:0.1px;stroke-linecap:square" d="M 13.627548232356393,-53.20429363440313 L 14.551427764867679,-53.58697706676822 L 15.475307297378965,-53.96966049913331 L 16.18241407856551,-54.67676728031986 " />
        <path style="fill:none;stroke:#50514F;stroke-width:0.1px;stroke-linecap:square" d="M 13.627548232356393,-53.20429363440313 L 14.551427764867679,-53.58697706676822 L 15.475307297378965,-53.96966049913331 L 16.18241407856551,-54.67676728031986 L 16.889520859752057,-55.383874061506404 L 17.596627640938603,-56.09098084269295 L 18.30373442212515,-56.798087623879496 L 18.68641785449024,-57.72196715639078 " />
        <path style="fill:none;stroke:#50514F;stroke-width:0.1px;stroke-linecap:square" d="M 15.475307297378965,-53.96966049913331 L 16.475307297378965,-53.96966049913331 L 17.475307297378965,-53.96966049913331 L 18.39918682989025,-54.3523439314984 " />
    </g>
</svg>
