<?xml version="1.0" encoding="UTF-8"?>
<!DOCTYPE svg PUBLIC "-//W3C//DTD SVG 1.1//EN"
    "http://www.w3.org/Graphics/SVG/1.1/DTD/svg11.dtd">

<svg xmlns="http://www.w3.org/2000/svg" xmlns:xlink="http://www.w3.org/1999/xlink" version="1.1" width="241.14412322194667" height="500" viewBox="-28.9372947866336 -60.0 57.8745895732672 120.0">
    <g>
        <rect x="-28.9372947866336" y="-60.0" width="57.8745895732672" height="120.0" fill="#CBD4C2" />
        <path style="fill:none;stroke:#50514F;stroke-width:0.1px;stroke-linecap:square" d="M -2.8196140307940482e-15,50.0 L -2.7710169355897883e-15,49.2063492063492 L -2.7224198403855284e-15,48.41269841269841 L -2.673822745181268e-15,47.61904761904761 L -2.625225649977008e-15,46.82539682539682 L -2.576628554772748e-15,46.03174603174603 L -2.528031459568488e-15,45.238095238095234 L -2.4794343643642276e-15,44.44444444444444 L -2.4308372691599676e-15,43.650793650793645 L -2.3822401739557077e-15,42.857142857142854 L -2.3336430787514478e-15,42.06349206349206 L -2.285045983547188e-15,41.269841269841265 L -2.2364488883429275e-15,40.476190476190474 L -2.1878517931386676e-15,39.682539682539684 L -2.1392546979344077e-15,38.888888888888886 L -2.0906576027301474e-15,38.095238095238095 L -2.0420605075258875e-15,37.3015873015873 L -1.9934634123216275e-15,36.507936507936506 L -1.9448663171173672e-15,35.714285714285715 L -1.8962692219131073e-15,34.92063492063492 L -1.8476721267088474e-15,34.12698412698413 L -1.7990750315045874e-15,33.33333333333333 L -1.7504779363003275e-15,32.53968253968254 L -1.7018808410960674e-15,31.746031746031743 L -1.6532837458918075e-15,30.95238095238095 L -1.6046866506875476e-15,30.158730158730158 L -1.5560895554832876e-15,29.365079365079364 L -1.5074924602790275e-15,28.57142857142857 L -1.4588953650747676e-15,27.777777777777775 L -1.4102982698705077e-15,26.984126984126984 L -1.3617011746662475e-15,26.19047619047619 L -1.3131040794619876e-15,25.396825396825395 L -1.2645069842577277e-15,24.6031746031746 L -0.3441738766567824,23.888034110061827 L -0.6883477533135636,23.172893616949054 L -1.0325216299703448,22.45775312383628 L -1.376695506627126,21.742612630723507 L -1.7208693832839073,21.027472137610733 L -2.0650432599406883,20.31233164449796 L -2.4092171365974693,19.597191151385186 L -2.7533910132542503,18.882050658272412 L -3.0975648899110313,18.16691016515964 L -3.4417387665678123,17.451769672046865 L -3.7859126432245938,16.736629178934088 L -4.130086519881375,16.021488685821314 L -4.474260396538156,15.306348192708542 L -4.818434273194938,14.591207699595769 L -5.162608149851719,13.876067206482993 L -5.506782026508501,13.16092671337022 L -6.12703636969804,12.665784176299278 L -6.747290712887579,12.170641639228338 L -7.367545056077117,11.675499102157396 L -7.987799399266656,11.180356565086454 L -8.608053742456196,10.685214028015512 L -9.228308085645734,10.19007149094457 L -9.848562428835272,9.69492895387363 L -10.468816772024812,9.199786416802688 L -11.242436767414672,9.022603785047963 L -12.01605676280453,8.84542115329324 L -12.789676758194389,8.668238521538516 L -13.563296753584247,8.491055889783793 L -14.337224812556917,8.666888030751622 L -15.111152871529587,8.842720171719453 L -15.73227045633309,9.336779407146134 L -16.353388041136594,9.830838642572814 " />
        <path style="fill:none;stroke:#50514F;stroke-width:0.1px;stroke-linecap:square" d="M -15.111152871529587,8.842720171719453 L -15.884772866919445,8.665537539964728 L -16.658392862309302,8.488354908210004 " />
        <path style="fill:none;stroke:#50514F;stroke-width:0.1px;stroke-linecap:square" d="M -15.111152871529587,8.842720171719453 L -15.885080930502257,9.018552312687282 L -16.659008989474927,9.194384453655113 L -17.4329370484476,9.370216594622942 L -18.206865107420267,9.546048735590773 " />
        <path style="fill:none;stroke:#50514F;stroke-width:0.1px;stroke-linecap:square" d="M -13.563296753584247,8.491055889783793 L -14.183551096773785,7.995913352712851 L -14.803805439963325,7.500770815641909 L -15.577425435353181,7.323588183887185 L -16.35104543074304,7.146405552132461 " />
        <path style="fill:none;stroke:#50514F;stroke-width:0.1px;stroke-linecap:square" d="M -14.803805439963325,7.500770815641909 L -15.147979316620104,6.785630322529141 L -15.492153193276884,6.070489829416372 " />
        <path style="fill:none;stroke:#50514F;stroke-width:0.1px;stroke-linecap:square" d="M -14.803805439963325,7.500770815641909 L -15.424059783152863,7.005628278570967 L -16.044314126342403,6.510485741500026 L -16.66456846953194,6.015343204429084 L -17.28482281272148,5.520200667358142 " />
        <path style="fill:none;stroke:#50514F;stroke-width:0.1px;stroke-linecap:square" d="M -13.563296753584247,8.491055889783793 L -14.336916748974105,8.313873258029068 L -15.11053674436396,8.136690626274344 L -15.884156739753818,7.95950799451962 L -16.657776735143678,7.7823253627648965 L -17.431396730533532,7.605142731010172 L -18.20501672592339,7.427960099255449 L -18.97894478489606,7.603792240223279 L -19.75287284386873,7.779624381191109 " />
        <path style="fill:none;stroke:#50514F;stroke-width:0.1px;stroke-linecap:square" d="M -18.20501672592339,7.427960099255449 L -18.82527106911293,6.932817562184507 L -19.44552541230247,6.437675025113565 " />
        <path style="fill:none;stroke:#50514F;stroke-width:0.1px;stroke-linecap:square" d="M -18.20501672592339,7.427960099255449 L -18.978636721313247,7.250777467500725 L -19.752256716703105,7.073594835746 L -20.525876712092963,6.896412203991277 L -21.29949670748282,6.719229572236553 " />
        <path style="fill:none;stroke:#50514F;stroke-width:0.1px;stroke-linecap:square" d="M -10.468816772024812,9.199786416802688 L -10.812990648681593,8.484645923689914 L -11.157164525338375,7.76950543057714 L -11.501338401995156,7.054364937464366 L -11.845512278651938,6.339224444351592 L -12.465766621841476,5.844081907280651 L -13.086020965031015,5.348939370209709 L -13.859640960420872,5.171756738454985 L -14.63326095581073,4.994574106700261 " />
        <path style="fill:none;stroke:#50514F;stroke-width:0.1px;stroke-linecap:square" d="M -13.086020965031015,5.348939370209709 L -13.430194841687793,4.6337988770969405 L -13.774368718344574,3.9186583839841727 " />
        <path style="fill:none;stroke:#50514F;stroke-width:0.1px;stroke-linecap:square" d="M -13.086020965031015,5.348939370209709 L -13.706275308220553,4.853796833138768 L -14.326529651410093,4.358654296067826 L -14.946783994599631,3.8635117589968844 L -15.567038337789171,3.3683692219259425 " />
        <path style="fill:none;stroke:#50514F;stroke-width:0.1px;stroke-linecap:square" d="M -11.845512278651938,6.339224444351592 L -11.845512278651938,5.545573650700798 L -11.845512278651938,4.751922857050005 L -12.189686155308719,4.036782363937236 L -12.533860031965501,3.3216418708244686 " />
        <path style="fill:none;stroke:#50514F;stroke-width:0.1px;stroke-linecap:square" d="M -11.845512278651938,4.751922857050005 L -11.501338401995156,4.036782363937236 L -11.157164525338375,3.3216418708244686 " />
        <path style="fill:none;stroke:#50514F;stroke-width:0.1px;stroke-linecap:square" d="M -11.845512278651938,4.751922857050005 L -11.845512278651938,3.9582720633992112 L -11.845512278651938,3.1646212697484177 L -11.845512278651938,2.3709704760976242 L -11.845512278651938,1.5773196824468305 " />
        <path style="fill:none;stroke:#50514F;stroke-width:0.1px;stroke-linecap:square" d="M -11.845512278651938,6.339224444351592 L -12.189686155308719,5.624083951238818 L -12.533860031965501,4.9089434581260445 L -12.878033908622282,4.193802965013271 L -13.222207785279062,3.478662471900497 L -13.566381661935841,2.7635219787877228 L -13.910555538592622,2.048381485674949 L -14.53080988178216,1.5532389486040075 L -15.1510642249717,1.0580964115330658 " />
        <path style="fill:none;stroke:#50514F;stroke-width:0.1px;stroke-linecap:square" d="M -13.910555538592622,2.048381485674949 L -13.910555538592622,1.2547306920241554 L -13.910555538592622,0.4610798983733618 " />
        <path style="fill:none;stroke:#50514F;stroke-width:0.1px;stroke-linecap:square" d="M -13.910555538592622,2.048381485674949 L -14.254729415249402,1.333240992562175 L -14.598903291906181,0.6181004994494013 L -14.943077168562962,-9.703999366337257e-2 L -15.287251045219742,-0.8121804867761464 " />
        <path style="fill:none;stroke:#50514F;stroke-width:0.1px;stroke-linecap:square" d="M -10.468816772024812,9.199786416802688 L -11.08907111521435,8.704643879731746 L -11.70932545840389,8.209501342660804 L -12.329579801593429,7.714358805589863 L -12.949834144782967,7.219216268518921 L -13.570088487972505,6.724073731447979 L -14.190342831162045,6.228931194377038 L -14.810597174351583,5.733788657306096 L -15.430851517541123,5.238646120235155 L -16.05110586073066,4.743503583164213 L -16.6713602039202,4.2483610460932715 L -17.291614547109738,3.75321850902233 L -17.911868890299278,3.2580759719513885 L -18.685488885689136,3.0808933401966647 L -19.459108881078993,2.903710708441941 L -20.233036940051665,3.079542849409771 L -21.006964999024333,3.255374990377601 " />
        <path style="fill:none;stroke:#50514F;stroke-width:0.1px;stroke-linecap:square" d="M -19.459108881078993,2.903710708441941 L -20.079363224268533,2.4085681713709994 L -20.699617567458073,1.9134256343000577 " />
        <path style="fill:none;stroke:#50514F;stroke-width:0.1px;stroke-linecap:square" d="M -19.459108881078993,2.903710708441941 L -20.23272887646885,2.726528076687217 L -21.00634887185871,2.549345444932493 L -21.779968867248567,2.372162813177769 L -22.553588862638424,2.194980181423045 " />
        <path style="fill:none;stroke:#50514F;stroke-width:0.1px;stroke-linecap:square" d="M -17.911868890299278,3.2580759719513885 L -18.25604276695606,2.542935478838615 L -18.60021664361284,1.8277949857258409 L -19.22047098680238,1.3326524486548994 L -19.840725329991916,0.8375099115839578 " />
        <path style="fill:none;stroke:#50514F;stroke-width:0.1px;stroke-linecap:square" d="M -18.60021664361284,1.8277949857258409 L -18.60021664361284,1.0341441920750474 L -18.60021664361284,0.2404933984242537 " />
        <path style="fill:none;stroke:#50514F;stroke-width:0.1px;stroke-linecap:square" d="M -18.60021664361284,1.8277949857258409 L -18.944390520269618,1.112654492613067 L -19.2885643969264,0.3975139995002932 L -19.63273827358318,-0.31762649361248063 L -19.976912150239958,-1.0327669867252545 " />
        <path style="fill:none;stroke:#50514F;stroke-width:0.1px;stroke-linecap:square" d="M -17.911868890299278,3.2580759719513885 L -18.532123233488818,2.762933434880447 L -19.152377576678358,2.2677908978095056 L -19.772631919867894,1.772648360738564 L -20.392886263057434,1.2775058236676224 L -21.013140606246974,0.7823632865966808 L -21.633394949436514,0.28722074952573917 L -22.40701494482637,0.11003811777101528 L -23.180634940216226,-6.714451398370862e-2 " />
        <path style="fill:none;stroke:#50514F;stroke-width:0.1px;stroke-linecap:square" d="M -21.633394949436514,0.28722074952573917 L -21.977568826093293,-0.42791974358703466 L -22.321742702750072,-1.1430602366998086 " />
        <path style="fill:none;stroke:#50514F;stroke-width:0.1px;stroke-linecap:square" d="M -21.633394949436514,0.28722074952573917 L -22.25364929262605,-0.20792178754520238 L -22.87390363581559,-0.703064324616144 L -23.49415797900513,-1.1982068616870856 L -24.114412322194667,-1.693349398758027 " />
        <path style="fill:none;stroke:#50514F;stroke-width:0.1px;stroke-linecap:square" d="M -5.506782026508501,13.16092671337022 L -5.506782026508501,12.367275919719427 L -5.506782026508501,11.573625126068633 L -5.506782026508501,10.77997433241784 L -5.506782026508501,9.986323538767046 L -5.506782026508501,9.192672745116251 L -5.506782026508501,8.399021951465459 L -5.506782026508501,7.605371157814665 L -5.506782026508501,6.811720364163872 L -5.850955903165282,6.096579871051103 L -6.1951297798220635,5.381439377938335 L -6.539303656478844,4.666298884825567 L -6.8834775331356255,3.9511583917127986 L -7.503731876325165,3.4560158546418567 L -8.123986219514704,2.960873317570915 L -8.897606214904563,2.7836906858161914 L -9.67122621029442,2.6065080540614676 " />
        <path style="fill:none;stroke:#50514F;stroke-width:0.1px;stroke-linecap:square" d="M -8.123986219514704,2.960873317570915 L -8.468160096171486,2.245732824458147 L -8.812333972828267,1.5305923313453789 " />
        <path style="fill:none;stroke:#50514F;stroke-width:0.1px;stroke-linecap:square" d="M -8.123986219514704,2.960873317570915 L -8.744240562704244,2.4657307804999737 L -9.364494905893782,1.970588243429032 L -9.98474924908332,1.4754457063580906 L -10.60500359227286,0.980303169287149 " />
        <path style="fill:none;stroke:#50514F;stroke-width:0.1px;stroke-linecap:square" d="M -6.8834775331356255,3.9511583917127986 L -6.8834775331356255,3.1575075980620047 L -6.8834775331356255,2.363856804411211 L -7.227651409792407,1.648716311298443 L -7.571825286449188,0.9335758181856748 " />
        <path style="fill:none;stroke:#50514F;stroke-width:0.1px;stroke-linecap:square" d="M -6.8834775331356255,2.363856804411211 L -6.539303656478844,1.648716311298443 L -6.1951297798220635,0.9335758181856748 " />
        <path style="fill:none;stroke:#50514F;stroke-width:0.1px;stroke-linecap:square" d="M -6.8834775331356255,2.363856804411211 L -6.8834775331356255,1.5702060107604177 L -6.8834775331356255,0.776555217109624 L -6.8834775331356255,-1.7095576541169607e-2 L -6.8834775331356255,-0.8107463701919632 " />
        <path style="fill:none;stroke:#50514F;stroke-width:0.1px;stroke-linecap:square" d="M -6.8834775331356255,3.9511583917127986 L -7.227651409792407,3.2360178986000303 L -7.571825286449188,2.520877405487262 L -7.91599916310597,1.8057369123744937 L -8.260173039762751,1.0905964192617255 L -8.604346916419532,0.37545592614895734 L -8.948520793076314,-0.3396845669638109 L -9.568775136265852,-0.8348271040347525 L -10.189029479455392,-1.329969641105694 " />
        <path style="fill:none;stroke:#50514F;stroke-width:0.1px;stroke-linecap:square" d="M -8.948520793076314,-0.3396845669638109 L -8.948520793076314,-1.1333353606146044 L -8.948520793076314,-1.926986154265398 " />
        <path style="fill:none;stroke:#50514F;stroke-width:0.1px;stroke-linecap:square" d="M -8.948520793076314,-0.3396845669638109 L -9.292694669733095,-1.0548250600765847 L -9.636868546389877,-1.7699655531893586 L -9.981042423046658,-2.4851060463021324 L -10.32521629970344,-3.2002465394149064 " />
        <path style="fill:none;stroke:#50514F;stroke-width:0.1px;stroke-linecap:square" d="M -5.506782026508501,6.811720364163872 L -5.162608149851719,6.096579871051103 L -4.818434273194938,5.381439377938335 L -4.474260396538156,4.666298884825567 L -4.130086519881375,3.9511583917127986 L -4.130086519881375,3.1575075980620047 L -4.130086519881375,2.363856804411211 L -4.474260396538156,1.648716311298443 L -4.818434273194938,0.9335758181856748 " />
        <path style="fill:none;stroke:#50514F;stroke-width:0.1px;stroke-linecap:square" d="M -4.130086519881375,2.363856804411211 L -3.7859126432245938,1.648716311298443 L -3.4417387665678123,0.9335758181856748 " />
        <path style="fill:none;stroke:#50514F;stroke-width:0.1px;stroke-linecap:square" d="M -4.130086519881375,2.363856804411211 L -4.130086519881375,1.5702060107604177 L -4.130086519881375,0.776555217109624 L -4.130086519881375,-1.7095576541169607e-2 L -4.130086519881375,-0.8107463701919632 " />
        <path style="fill:none;stroke:#50514F;stroke-width:0.1px;stroke-linecap:square" d="M -4.130086519881375,3.9511583917127986 L -3.509832176691836,3.4560158546418567 L -2.8895778335022975,2.960873317570915 L -2.5454039568455165,2.2457328244581416 L -2.2012300801887354,1.5305923313453675 " />
        <path style="fill:none;stroke:#50514F;stroke-width:0.1px;stroke-linecap:square" d="M -2.8895778335022975,2.960873317570915 L -2.115957838112439,2.7836906858161914 L -1.3423378427225803,2.6065080540614676 " />
        <path style="fill:none;stroke:#50514F;stroke-width:0.1px;stroke-linecap:square" d="M -2.8895778335022975,2.960873317570915 L -2.269323490312759,2.4657307804999737 L -1.64906914712322,1.970588243429032 L -1.0288148039336815,1.4754457063580906 L -0.40856046074414276,0.980303169287149 " />
        <path style="fill:none;stroke:#50514F;stroke-width:0.1px;stroke-linecap:square" d="M -4.130086519881375,3.9511583917127986 L -3.7859126432245938,3.2360178986000303 L -3.4417387665678123,2.520877405487262 L -3.097564889911031,1.8057369123744937 L -2.7533910132542494,1.0905964192617255 L -2.409217136597468,0.37545592614895734 L -2.065043259940687,-0.3396845669638109 L -2.065043259940687,-1.1333353606146044 L -2.065043259940687,-1.926986154265398 " />
        <path style="fill:none;stroke:#50514F;stroke-width:0.1px;stroke-linecap:square" d="M -2.065043259940687,-0.3396845669638109 L -1.444788916751148,-0.8348271040347525 L -0.8245345735616095,-1.329969641105694 " />
        <path style="fill:none;stroke:#50514F;stroke-width:0.1px;stroke-linecap:square" d="M -2.065043259940687,-0.3396845669638109 L -1.7208693832839055,-1.0548250600765847 L -1.3766955066271243,-1.7699655531893586 L -1.032521629970343,-2.4851060463021324 L -0.6883477533135618,-3.2002465394149064 " />
        <path style="fill:none;stroke:#50514F;stroke-width:0.1px;stroke-linecap:square" d="M -5.506782026508501,6.811720364163872 L -5.506782026508501,6.018069570513077 L -5.506782026508501,5.224418776862284 L -5.506782026508501,4.43076798321149 L -5.506782026508501,3.637117189560697 L -5.506782026508501,2.8434663959099034 L -5.506782026508501,2.04981560225911 L -5.506782026508501,1.2561648086083161 L -5.506782026508501,0.4625140149575224 L -5.506782026508501,-0.3311367786932712 L -5.506782026508501,-1.1247875723440648 L -5.506782026508501,-1.9184383659948583 L -5.506782026508501,-2.712089159645652 L -5.850955903165282,-3.427229652758426 L -6.1951297798220635,-4.1423701458712 L -6.815384123011602,-4.637512682942141 L -7.435638466201141,-5.132655220013083 " />
        <path style="fill:none;stroke:#50514F;stroke-width:0.1px;stroke-linecap:square" d="M -6.1951297798220635,-4.1423701458712 L -6.1951297798220635,-4.936020939521994 L -6.1951297798220635,-5.729671733172787 " />
        <path style="fill:none;stroke:#50514F;stroke-width:0.1px;stroke-linecap:square" d="M -6.1951297798220635,-4.1423701458712 L -6.539303656478844,-4.857510638983974 L -6.8834775331356255,-5.572651132096747 L -7.227651409792407,-6.287791625209521 L -7.571825286449188,-7.0029321183222955 " />
        <path style="fill:none;stroke:#50514F;stroke-width:0.1px;stroke-linecap:square" d="M -5.506782026508501,-2.712089159645652 L -5.162608149851719,-3.427229652758426 L -4.818434273194938,-4.1423701458712 L -4.818434273194938,-4.936020939521994 L -4.818434273194938,-5.729671733172787 " />
        <path style="fill:none;stroke:#50514F;stroke-width:0.1px;stroke-linecap:square" d="M -4.818434273194938,-4.1423701458712 L -4.198179930005399,-4.637512682942141 L -3.5779255868158595,-5.132655220013083 " />
        <path style="fill:none;stroke:#50514F;stroke-width:0.1px;stroke-linecap:square" d="M -4.818434273194938,-4.1423701458712 L -4.474260396538156,-4.857510638983974 L -4.130086519881375,-5.572651132096747 L -3.7859126432245938,-6.287791625209521 L -3.4417387665678123,-7.0029321183222955 " />
        <path style="fill:none;stroke:#50514F;stroke-width:0.1px;stroke-linecap:square" d="M -5.506782026508501,-2.712089159645652 L -5.506782026508501,-3.5057399532964455 L -5.506782026508501,-4.299390746947239 L -5.506782026508501,-5.0930415405980325 L -5.506782026508501,-5.886692334248826 L -5.506782026508501,-6.68034312789962 L -5.506782026508501,-7.473993921550414 L -5.850955903165282,-8.189134414663188 L -6.1951297798220635,-8.904274907775962 " />
        <path style="fill:none;stroke:#50514F;stroke-width:0.1px;stroke-linecap:square" d="M -5.506782026508501,-7.473993921550414 L -5.162608149851719,-8.189134414663188 L -4.818434273194938,-8.904274907775962 " />
        <path style="fill:none;stroke:#50514F;stroke-width:0.1px;stroke-linecap:square" d="M -5.506782026508501,-7.473993921550414 L -5.506782026508501,-8.267644715201207 L -5.506782026508501,-9.061295508852 L -5.506782026508501,-9.854946302502794 L -5.506782026508501,-10.648597096153589 " />
        <path style="fill:none;stroke:#50514F;stroke-width:0.1px;stroke-linecap:square" d="M -5.506782026508501,13.16092671337022 L -5.850955903165282,12.445786220257446 L -6.1951297798220635,11.730645727144672 L -6.539303656478844,11.015505234031899 L -6.8834775331356255,10.300364740919125 L -7.227651409792407,9.585224247806352 L -7.571825286449188,8.870083754693576 L -7.91599916310597,8.154943261580803 L -8.260173039762751,7.439802768468029 L -8.604346916419532,6.724662275355255 L -8.948520793076314,6.009521782242482 L -9.292694669733095,5.294381289129708 L -9.636868546389877,4.579240796016934 L -9.981042423046658,3.86410030290416 L -10.32521629970344,3.148959809791386 L -10.66939017636022,2.4338193166786124 L -11.013564053017003,1.7186788235658386 L -11.357737929673783,1.0035383304530645 L -11.701911806330564,0.2883978373402908 L -12.046085682987346,-0.4267426557724831 L -12.390259559644127,-1.141883148885257 L -12.73443343630091,-1.8570236419980308 L -13.078607312957688,-2.5721641351108047 L -13.422781189614469,-3.2873046282235787 L -13.76695506627125,-4.002445121336352 L -14.387209409460787,-4.497587658407294 L -15.007463752650327,-4.992730195478235 L -15.627718095839866,-5.487872732549177 L -16.247972439029404,-5.983015269620119 L -17.02159243441926,-6.160197901374837 L -17.79521242980912,-6.337380533129555 L -18.56914048878179,-6.161548392161725 L -19.34306854775446,-5.985716251193895 " />
        <path style="fill:none;stroke:#50514F;stroke-width:0.1px;stroke-linecap:square" d="M -17.79521242980912,-6.337380533129555 L -18.41546677299866,-6.832523070200497 L -19.0357211161882,-7.327665607271438 " />
        <path style="fill:none;stroke:#50514F;stroke-width:0.1px;stroke-linecap:square" d="M -17.79521242980912,-6.337380533129555 L -18.568832425198977,-6.514563164884273 L -19.342452420588835,-6.691745796638991 L -20.116072415978692,-6.86892842839371 L -20.88969241136855,-7.046111060148428 " />
        <path style="fill:none;stroke:#50514F;stroke-width:0.1px;stroke-linecap:square" d="M -16.247972439029404,-5.983015269620119 L -16.592146315686186,-6.698155762732893 L -16.936320192342965,-7.413296255845666 L -17.556574535532505,-7.908438792916608 L -18.17682887872204,-8.40358132998755 " />
        <path style="fill:none;stroke:#50514F;stroke-width:0.1px;stroke-linecap:square" d="M -16.936320192342965,-7.413296255845666 L -16.936320192342965,-8.20694704949646 L -16.936320192342965,-9.000597843147254 " />
        <path style="fill:none;stroke:#50514F;stroke-width:0.1px;stroke-linecap:square" d="M -16.936320192342965,-7.413296255845666 L -17.280494068999744,-8.12843674895844 L -17.624667945656526,-8.843577242071214 L -17.968841822313305,-9.558717735183988 L -18.313015698970084,-10.273858228296762 " />
        <path style="fill:none;stroke:#50514F;stroke-width:0.1px;stroke-linecap:square" d="M -16.247972439029404,-5.983015269620119 L -16.868226782218944,-6.47815780669106 L -17.488481125408484,-6.973300343762002 L -18.10873546859802,-7.468442880832943 L -18.72898981178756,-7.963585417903885 L -19.3492441549771,-8.458727954974826 L -19.96949849816664,-8.953870492045768 L -20.743118493556498,-9.131053123800486 L -21.516738488946352,-9.308235755555204 " />
        <path style="fill:none;stroke:#50514F;stroke-width:0.1px;stroke-linecap:square" d="M -19.96949849816664,-8.953870492045768 L -20.31367237482342,-9.669010985158542 L -20.657846251480198,-10.384151478271315 " />
        <path style="fill:none;stroke:#50514F;stroke-width:0.1px;stroke-linecap:square" d="M -19.96949849816664,-8.953870492045768 L -20.589752841356177,-9.44901302911671 L -21.210007184545717,-9.944155566187652 L -21.830261527735257,-10.439298103258594 L -22.450515870924793,-10.934440640329534 " />
        <path style="fill:none;stroke:#50514F;stroke-width:0.1px;stroke-linecap:square" d="M -13.76695506627125,-4.002445121336352 L -13.76695506627125,-4.796095914987146 L -13.76695506627125,-5.589746708637939 L -13.76695506627125,-6.383397502288733 L -13.76695506627125,-7.177048295939527 L -14.111128942928028,-7.892188789052301 L -14.455302819584809,-8.607329282165075 L -15.075557162774349,-9.102471819236015 L -15.695811505963887,-9.597614356306957 " />
        <path style="fill:none;stroke:#50514F;stroke-width:0.1px;stroke-linecap:square" d="M -14.455302819584809,-8.607329282165075 L -14.455302819584809,-9.400980075815868 L -14.455302819584809,-10.194630869466662 " />
        <path style="fill:none;stroke:#50514F;stroke-width:0.1px;stroke-linecap:square" d="M -14.455302819584809,-8.607329282165075 L -14.79947669624159,-9.322469775277849 L -15.143650572898368,-10.037610268390623 L -15.487824449555148,-10.752750761503396 L -15.831998326211929,-11.46789125461617 " />
        <path style="fill:none;stroke:#50514F;stroke-width:0.1px;stroke-linecap:square" d="M -13.76695506627125,-7.177048295939527 L -13.422781189614469,-7.892188789052301 L -13.078607312957688,-8.607329282165075 L -13.078607312957688,-9.400980075815868 L -13.078607312957688,-10.194630869466662 " />
        <path style="fill:none;stroke:#50514F;stroke-width:0.1px;stroke-linecap:square" d="M -13.078607312957688,-8.607329282165075 L -12.45835296976815,-9.102471819236015 L -11.838098626578612,-9.597614356306957 " />
        <path style="fill:none;stroke:#50514F;stroke-width:0.1px;stroke-linecap:square" d="M -13.078607312957688,-8.607329282165075 L -12.73443343630091,-9.322469775277849 L -12.390259559644127,-10.037610268390623 L -12.046085682987346,-10.752750761503396 L -11.701911806330564,-11.46789125461617 " />
        <path style="fill:none;stroke:#50514F;stroke-width:0.1px;stroke-linecap:square" d="M -13.76695506627125,-7.177048295939527 L -13.76695506627125,-7.970699089590321 L -13.76695506627125,-8.764349883241113 L -13.76695506627125,-9.558000676891908 L -13.76695506627125,-10.351651470542702 L -13.76695506627125,-11.145302264193495 L -13.76695506627125,-11.938953057844289 L -14.111128942928028,-12.654093550957063 L -14.455302819584809,-13.369234044069836 " />
        <path style="fill:none;stroke:#50514F;stroke-width:0.1px;stroke-linecap:square" d="M -13.76695506627125,-11.938953057844289 L -13.422781189614469,-12.654093550957063 L -13.078607312957688,-13.369234044069836 " />
        <path style="fill:none;stroke:#50514F;stroke-width:0.1px;stroke-linecap:square" d="M -13.76695506627125,-11.938953057844289 L -13.76695506627125,-12.732603851495082 L -13.76695506627125,-13.526254645145876 L -13.76695506627125,-14.319905438796669 L -13.76695506627125,-15.113556232447463 " />
        <path style="fill:none;stroke:#50514F;stroke-width:0.1px;stroke-linecap:square" d="M -13.76695506627125,-4.002445121336352 L -14.111128942928028,-4.717585614449126 L -14.455302819584809,-5.4327261075619 L -14.79947669624159,-6.147866600674674 L -15.143650572898368,-6.863007093787448 L -15.487824449555148,-7.578147586900221 L -15.831998326211929,-8.293288080012996 L -16.17617220286871,-9.00842857312577 L -16.52034607952549,-9.723569066238543 L -16.864519956182267,-10.438709559351317 L -17.20869383283905,-11.15385005246409 L -17.55286770949583,-11.868990545576866 L -17.897041586152607,-12.58413103868964 L -18.517295929342147,-13.07927357576058 L -19.137550272531687,-13.574416112831521 L -19.911170267921545,-13.75159874458624 L -20.684790263311402,-13.92878137634096 " />
        <path style="fill:none;stroke:#50514F;stroke-width:0.1px;stroke-linecap:square" d="M -19.137550272531687,-13.574416112831521 L -19.481724149188466,-14.289556605944295 L -19.825898025845245,-15.00469709905707 " />
        <path style="fill:none;stroke:#50514F;stroke-width:0.1px;stroke-linecap:square" d="M -19.137550272531687,-13.574416112831521 L -19.757804615721227,-14.069558649902463 L -20.378058958910763,-14.564701186973405 L -20.998313302100303,-15.059843724044347 L -21.618567645289843,-15.554986261115289 " />
        <path style="fill:none;stroke:#50514F;stroke-width:0.1px;stroke-linecap:square" d="M -17.897041586152607,-12.58413103868964 L -17.897041586152607,-13.377781832340432 L -17.897041586152607,-14.171432625991226 L -18.24121546280939,-14.886573119104 L -18.58538933946617,-15.601713612216773 " />
        <path style="fill:none;stroke:#50514F;stroke-width:0.1px;stroke-linecap:square" d="M -17.897041586152607,-14.171432625991226 L -17.55286770949583,-14.886573119104 L -17.20869383283905,-15.601713612216773 " />
        <path style="fill:none;stroke:#50514F;stroke-width:0.1px;stroke-linecap:square" d="M -17.897041586152607,-14.171432625991226 L -17.897041586152607,-14.965083419642019 L -17.897041586152607,-15.758734213292813 L -17.897041586152607,-16.552385006943606 L -17.897041586152607,-17.3460358005944 " />
        <path style="fill:none;stroke:#50514F;stroke-width:0.1px;stroke-linecap:square" d="M -17.897041586152607,-12.58413103868964 L -18.24121546280939,-13.299271531802413 L -18.58538933946617,-14.014412024915186 L -18.929563216122947,-14.72955251802796 L -19.27373709277973,-15.444693011140734 L -19.617910969436508,-16.15983350425351 L -19.962084846093287,-16.874973997366283 L -20.582339189282827,-17.370116534437223 L -21.202593532472367,-17.865259071508166 " />
        <path style="fill:none;stroke:#50514F;stroke-width:0.1px;stroke-linecap:square" d="M -19.962084846093287,-16.874973997366283 L -19.962084846093287,-17.668624791017077 L -19.962084846093287,-18.462275584667868 " />
        <path style="fill:none;stroke:#50514F;stroke-width:0.1px;stroke-linecap:square" d="M -19.962084846093287,-16.874973997366283 L -20.30625872275007,-17.590114490479056 L -20.650432599406848,-18.30525498359183 L -20.994606476063627,-19.020395476704604 L -21.33878035272041,-19.735535969817377 " />
        <path style="fill:none;stroke:#50514F;stroke-width:0.1px;stroke-linecap:square" d="M -1.2645069842577277e-15,24.6031746031746 L 0.34417387665677995,23.888034110061827 L 0.6883477533135611,23.172893616949054 L 1.0325216299703424,22.45775312383628 L 1.3766955066271236,21.742612630723507 L 1.7208693832839046,21.027472137610733 L 2.065043259940686,20.31233164449796 L 2.4092171365974675,19.597191151385186 L 2.753391013254249,18.882050658272412 L 3.09756488991103,18.16691016515964 L 3.4417387665678114,17.451769672046865 L 3.785912643224593,16.736629178934088 L 4.130086519881374,16.021488685821314 L 4.474260396538155,15.306348192708542 L 4.818434273194937,14.591207699595769 L 5.162608149851718,13.876067206482993 L 5.5067820265085,13.16092671337022 L 5.5067820265085,12.367275919719427 L 5.5067820265085,11.573625126068633 L 5.5067820265085,10.77997433241784 L 5.5067820265085,9.986323538767046 L 5.5067820265085,9.192672745116251 L 5.5067820265085,8.399021951465459 L 5.5067820265085,7.605371157814665 L 5.5067820265085,6.811720364163872 L 5.162608149851718,6.096579871051103 L 4.818434273194937,5.381439377938335 L 4.474260396538155,4.666298884825567 L 4.130086519881374,3.9511583917127986 L 3.509832176691836,3.4560158546418567 L 2.8895778335022975,2.960873317570915 L 2.1159578381124393,2.7836906858161914 L 1.3423378427225812,2.6065080540614676 " />
        <path style="fill:none;stroke:#50514F;stroke-width:0.1px;stroke-linecap:square" d="M 2.8895778335022975,2.960873317570915 L 2.5454039568455165,2.245732824458147 L 2.2012300801887354,1.5305923313453789 " />
        <path style="fill:none;stroke:#50514F;stroke-width:0.1px;stroke-linecap:square" d="M 2.8895778335022975,2.960873317570915 L 2.2693234903127593,2.4657307804999737 L 1.649069147123221,1.970588243429032 L 1.0288148039336826,1.4754457063580906 L 0.4085604607441442,0.980303169287149 " />
        <path style="fill:none;stroke:#50514F;stroke-width:0.1px;stroke-linecap:square" d="M 4.130086519881374,3.9511583917127986 L 4.130086519881374,3.1575075980620047 L 4.130086519881374,2.363856804411211 L 3.785912643224593,1.648716311298443 L 3.4417387665678114,0.9335758181856748 " />
        <path style="fill:none;stroke:#50514F;stroke-width:0.1px;stroke-linecap:square" d="M 4.130086519881374,2.363856804411211 L 4.474260396538155,1.648716311298443 L 4.818434273194937,0.9335758181856748 " />
        <path style="fill:none;stroke:#50514F;stroke-width:0.1px;stroke-linecap:square" d="M 4.130086519881374,2.363856804411211 L 4.130086519881374,1.5702060107604177 L 4.130086519881374,0.776555217109624 L 4.130086519881374,-1.7095576541169607e-2 L 4.130086519881374,-0.8107463701919632 " />
        <path style="fill:none;stroke:#50514F;stroke-width:0.1px;stroke-linecap:square" d="M 4.130086519881374,3.9511583917127986 L 3.785912643224593,3.2360178986000303 L 3.4417387665678114,2.520877405487262 L 3.0975648899110304,1.8057369123744937 L 2.7533910132542494,1.0905964192617255 L 2.4092171365974684,0.37545592614895734 L 2.0650432599406874,-0.3396845669638109 L 1.444788916751149,-0.8348271040347525 L 0.8245345735616105,-1.329969641105694 " />
        <path style="fill:none;stroke:#50514F;stroke-width:0.1px;stroke-linecap:square" d="M 2.0650432599406874,-0.3396845669638109 L 2.0650432599406874,-1.1333353606146044 L 2.0650432599406874,-1.926986154265398 " />
        <path style="fill:none;stroke:#50514F;stroke-width:0.1px;stroke-linecap:square" d="M 2.0650432599406874,-0.3396845669638109 L 1.7208693832839064,-1.0548250600765847 L 1.3766955066271254,-1.7699655531893586 L 1.0325216299703444,-2.4851060463021324 L 0.6883477533135633,-3.2002465394149064 " />
        <path style="fill:none;stroke:#50514F;stroke-width:0.1px;stroke-linecap:square" d="M 5.5067820265085,6.811720364163872 L 5.850955903165281,6.096579871051103 L 6.195129779822063,5.381439377938335 L 6.539303656478843,4.666298884825567 L 6.883477533135625,3.9511583917127986 L 6.883477533135625,3.1575075980620047 L 6.883477533135625,2.363856804411211 L 6.539303656478843,1.648716311298443 L 6.195129779822062,0.9335758181856748 " />
        <path style="fill:none;stroke:#50514F;stroke-width:0.1px;stroke-linecap:square" d="M 6.883477533135625,2.363856804411211 L 7.227651409792406,1.648716311298443 L 7.5718252864491875,0.9335758181856748 " />
        <path style="fill:none;stroke:#50514F;stroke-width:0.1px;stroke-linecap:square" d="M 6.883477533135625,2.363856804411211 L 6.883477533135625,1.5702060107604177 L 6.883477533135625,0.776555217109624 L 6.883477533135625,-1.7095576541169607e-2 L 6.883477533135625,-0.8107463701919632 " />
        <path style="fill:none;stroke:#50514F;stroke-width:0.1px;stroke-linecap:square" d="M 6.883477533135625,3.9511583917127986 L 7.503731876325164,3.4560158546418567 L 8.123986219514702,2.960873317570915 L 8.468160096171484,2.2457328244581416 L 8.812333972828265,1.5305923313453675 " />
        <path style="fill:none;stroke:#50514F;stroke-width:0.1px;stroke-linecap:square" d="M 8.123986219514702,2.960873317570915 L 8.897606214904561,2.7836906858161914 L 9.67122621029442,2.6065080540614676 " />
        <path style="fill:none;stroke:#50514F;stroke-width:0.1px;stroke-linecap:square" d="M 8.123986219514702,2.960873317570915 L 8.744240562704242,2.4657307804999737 L 9.36449490589378,1.970588243429032 L 9.98474924908332,1.4754457063580906 L 10.605003592272858,0.980303169287149 " />
        <path style="fill:none;stroke:#50514F;stroke-width:0.1px;stroke-linecap:square" d="M 6.883477533135625,3.9511583917127986 L 7.227651409792406,3.2360178986000303 L 7.5718252864491875,2.520877405487262 L 7.915999163105969,1.8057369123744937 L 8.26017303976275,1.0905964192617255 L 8.604346916419532,0.37545592614895734 L 8.948520793076312,-0.3396845669638109 L 8.948520793076312,-1.1333353606146044 L 8.948520793076312,-1.926986154265398 " />
        <path style="fill:none;stroke:#50514F;stroke-width:0.1px;stroke-linecap:square" d="M 8.948520793076312,-0.3396845669638109 L 9.568775136265852,-0.8348271040347525 L 10.18902947945539,-1.329969641105694 " />
        <path style="fill:none;stroke:#50514F;stroke-width:0.1px;stroke-linecap:square" d="M 8.948520793076312,-0.3396845669638109 L 9.292694669733095,-1.0548250600765847 L 9.636868546389875,-1.7699655531893586 L 9.981042423046656,-2.4851060463021324 L 10.325216299703438,-3.2002465394149064 " />
        <path style="fill:none;stroke:#50514F;stroke-width:0.1px;stroke-linecap:square" d="M 5.5067820265085,6.811720364163872 L 5.5067820265085,6.018069570513077 L 5.5067820265085,5.224418776862284 L 5.5067820265085,4.43076798321149 L 5.5067820265085,3.637117189560697 L 5.5067820265085,2.8434663959099034 L 5.5067820265085,2.04981560225911 L 5.5067820265085,1.2561648086083161 L 5.5067820265085,0.4625140149575224 L 5.5067820265085,-0.3311367786932712 L 5.5067820265085,-1.1247875723440648 L 5.5067820265085,-1.9184383659948583 L 5.5067820265085,-2.712089159645652 L 5.162608149851718,-3.427229652758426 L 4.818434273194937,-4.1423701458712 L 4.198179930005399,-4.637512682942141 L 3.5779255868158604,-5.132655220013083 " />
        <path style="fill:none;stroke:#50514F;stroke-width:0.1px;stroke-linecap:square" d="M 4.818434273194937,-4.1423701458712 L 4.818434273194937,-4.936020939521994 L 4.818434273194937,-5.729671733172787 " />
        <path style="fill:none;stroke:#50514F;stroke-width:0.1px;stroke-linecap:square" d="M 4.818434273194937,-4.1423701458712 L 4.474260396538155,-4.857510638983974 L 4.130086519881374,-5.572651132096747 L 3.785912643224593,-6.287791625209521 L 3.4417387665678114,-7.0029321183222955 " />
        <path style="fill:none;stroke:#50514F;stroke-width:0.1px;stroke-linecap:square" d="M 5.5067820265085,-2.712089159645652 L 5.850955903165281,-3.427229652758426 L 6.195129779822063,-4.1423701458712 L 6.195129779822063,-4.936020939521994 L 6.195129779822063,-5.729671733172787 " />
        <path style="fill:none;stroke:#50514F;stroke-width:0.1px;stroke-linecap:square" d="M 6.195129779822063,-4.1423701458712 L 6.815384123011601,-4.637512682942141 L 7.43563846620114,-5.132655220013083 " />
        <path style="fill:none;stroke:#50514F;stroke-width:0.1px;stroke-linecap:square" d="M 6.195129779822063,-4.1423701458712 L 6.539303656478843,-4.857510638983974 L 6.883477533135625,-5.572651132096747 L 7.227651409792406,-6.287791625209521 L 7.5718252864491875,-7.0029321183222955 " />
        <path style="fill:none;stroke:#50514F;stroke-width:0.1px;stroke-linecap:square" d="M 5.5067820265085,-2.712089159645652 L 5.5067820265085,-3.5057399532964455 L 5.5067820265085,-4.299390746947239 L 5.5067820265085,-5.0930415405980325 L 5.5067820265085,-5.886692334248826 L 5.5067820265085,-6.68034312789962 L 5.5067820265085,-7.473993921550414 L 5.162608149851718,-8.189134414663188 L 4.818434273194937,-8.904274907775962 " />
        <path style="fill:none;stroke:#50514F;stroke-width:0.1px;stroke-linecap:square" d="M 5.5067820265085,-7.473993921550414 L 5.850955903165281,-8.189134414663188 L 6.195129779822063,-8.904274907775962 " />
        <path style="fill:none;stroke:#50514F;stroke-width:0.1px;stroke-linecap:square" d="M 5.5067820265085,-7.473993921550414 L 5.5067820265085,-8.267644715201207 L 5.5067820265085,-9.061295508852 L 5.5067820265085,-9.854946302502794 L 5.5067820265085,-10.648597096153589 " />
        <path style="fill:none;stroke:#50514F;stroke-width:0.1px;stroke-linecap:square" d="M 5.5067820265085,13.16092671337022 L 6.127036369698038,12.665784176299278 L 6.747290712887577,12.170641639228338 L 7.367545056077116,11.675499102157396 L 7.987799399266655,11.180356565086454 L 8.608053742456194,10.685214028015512 L 9.228308085645732,10.19007149094457 L 9.848562428835272,9.69492895387363 L 10.46881677202481,9.199786416802688 L 10.812990648681593,8.484645923689914 L 11.157164525338374,7.76950543057714 L 11.501338401995154,7.054364937464366 L 11.845512278651936,6.339224444351592 L 11.845512278651936,5.545573650700798 L 11.845512278651936,4.751922857050005 L 11.501338401995154,4.036782363937236 L 11.157164525338374,3.3216418708244686 " />
        <path style="fill:none;stroke:#50514F;stroke-width:0.1px;stroke-linecap:square" d="M 11.845512278651936,4.751922857050005 L 12.189686155308717,4.036782363937236 L 12.5338600319655,3.3216418708244686 " />
        <path style="fill:none;stroke:#50514F;stroke-width:0.1px;stroke-linecap:square" d="M 11.845512278651936,4.751922857050005 L 11.845512278651936,3.9582720633992112 L 11.845512278651936,3.1646212697484177 L 11.845512278651936,2.3709704760976242 L 11.845512278651936,1.5773196824468305 " />
        <path style="fill:none;stroke:#50514F;stroke-width:0.1px;stroke-linecap:square" d="M 11.845512278651936,6.339224444351592 L 12.465766621841475,5.844081907280651 L 13.086020965031015,5.348939370209709 L 13.430194841687793,4.6337988770969405 L 13.774368718344574,3.9186583839841727 " />
        <path style="fill:none;stroke:#50514F;stroke-width:0.1px;stroke-linecap:square" d="M 13.086020965031015,5.348939370209709 L 13.859640960420872,5.171756738454985 L 14.63326095581073,4.994574106700261 " />
        <path style="fill:none;stroke:#50514F;stroke-width:0.1px;stroke-linecap:square" d="M 13.086020965031015,5.348939370209709 L 13.706275308220553,4.853796833138768 L 14.326529651410093,4.358654296067826 L 14.946783994599631,3.8635117589968844 L 15.567038337789171,3.3683692219259425 " />
        <path style="fill:none;stroke:#50514F;stroke-width:0.1px;stroke-linecap:square" d="M 11.845512278651936,6.339224444351592 L 12.189686155308717,5.624083951238818 L 12.5338600319655,4.9089434581260445 L 12.878033908622278,4.193802965013271 L 13.222207785279059,3.478662471900497 L 13.56638166193584,2.7635219787877228 L 13.910555538592618,2.048381485674949 L 13.910555538592618,1.2547306920241554 L 13.910555538592618,0.4610798983733618 " />
        <path style="fill:none;stroke:#50514F;stroke-width:0.1px;stroke-linecap:square" d="M 13.910555538592618,2.048381485674949 L 14.530809881782158,1.5532389486040075 L 15.151064224971696,1.0580964115330658 " />
        <path style="fill:none;stroke:#50514F;stroke-width:0.1px;stroke-linecap:square" d="M 13.910555538592618,2.048381485674949 L 14.254729415249399,1.333240992562175 L 14.59890329190618,0.6181004994494013 L 14.943077168562958,-9.703999366337257e-2 L 15.287251045219739,-0.8121804867761464 " />
        <path style="fill:none;stroke:#50514F;stroke-width:0.1px;stroke-linecap:square" d="M 10.46881677202481,9.199786416802688 L 11.24243676741467,9.022603785047963 L 12.016056762804528,8.84542115329324 L 12.789676758194386,8.668238521538516 L 13.563296753584243,8.491055889783793 L 14.183551096773783,7.995913352712851 L 14.803805439963321,7.500770815641909 L 15.147979316620102,6.785630322529141 L 15.49215319327688,6.070489829416372 " />
        <path style="fill:none;stroke:#50514F;stroke-width:0.1px;stroke-linecap:square" d="M 14.803805439963321,7.500770815641909 L 15.57742543535318,7.323588183887185 L 16.351045430743035,7.146405552132461 " />
        <path style="fill:none;stroke:#50514F;stroke-width:0.1px;stroke-linecap:square" d="M 14.803805439963321,7.500770815641909 L 15.42405978315286,7.005628278570967 L 16.0443141263424,6.510485741500026 L 16.66456846953194,6.015343204429084 L 17.284822812721476,5.520200667358142 " />
        <path style="fill:none;stroke:#50514F;stroke-width:0.1px;stroke-linecap:square" d="M 13.563296753584243,8.491055889783793 L 14.337224812556913,8.666888030751622 L 15.111152871529583,8.842720171719453 L 15.884772866919441,8.665537539964728 L 16.6583928623093,8.488354908210004 " />
        <path style="fill:none;stroke:#50514F;stroke-width:0.1px;stroke-linecap:square" d="M 15.111152871529583,8.842720171719453 L 15.732270456333088,9.336779407146134 L 16.353388041136594,9.830838642572814 " />
        <path style="fill:none;stroke:#50514F;stroke-width:0.1px;stroke-linecap:square" d="M 15.111152871529583,8.842720171719453 L 15.885080930502253,9.018552312687282 L 16.659008989474923,9.194384453655113 L 17.432937048447595,9.370216594622942 L 18.206865107420263,9.546048735590773 " />
        <path style="fill:none;stroke:#50514F;stroke-width:0.1px;stroke-linecap:square" d="M 13.563296753584243,8.491055889783793 L 14.336916748974101,8.313873258029068 L 15.110536744363959,8.136690626274344 L 15.884156739753816,7.95950799451962 L 16.657776735143674,7.7823253627648965 L 17.431396730533532,7.605142731010172 L 18.20501672592339,7.427960099255449 L 18.825271069112926,6.932817562184507 L 19.445525412302466,6.437675025113565 " />
        <path style="fill:none;stroke:#50514F;stroke-width:0.1px;stroke-linecap:square" d="M 18.20501672592339,7.427960099255449 L 18.978944784896058,7.603792240223279 L 19.75287284386873,7.779624381191109 " />
        <path style="fill:none;stroke:#50514F;stroke-width:0.1px;stroke-linecap:square" d="M 18.20501672592339,7.427960099255449 L 18.978636721313247,7.250777467500725 L 19.7522567167031,7.073594835746 L 20.52587671209296,6.896412203991277 L 21.299496707482817,6.719229572236553 " />
        <path style="fill:none;stroke:#50514F;stroke-width:0.1px;stroke-linecap:square" d="M 10.46881677202481,9.199786416802688 L 11.08907111521435,8.704643879731746 L 11.709325458403889,8.209501342660804 L 12.329579801593427,7.714358805589863 L 12.949834144782967,7.219216268518921 L 13.570088487972505,6.724073731447979 L 14.190342831162045,6.228931194377038 L 14.810597174351583,5.733788657306096 L 15.430851517541123,5.238646120235155 L 16.05110586073066,4.743503583164213 L 16.6713602039202,4.2483610460932715 L 17.291614547109738,3.75321850902233 L 17.911868890299278,3.2580759719513885 L 18.25604276695606,2.542935478838615 L 18.60021664361284,1.8277949857258409 L 18.60021664361284,1.0341441920750474 L 18.60021664361284,0.2404933984242537 " />
        <path style="fill:none;stroke:#50514F;stroke-width:0.1px;stroke-linecap:square" d="M 18.60021664361284,1.8277949857258409 L 19.22047098680238,1.3326524486548994 L 19.840725329991916,0.8375099115839578 " />
        <path style="fill:none;stroke:#50514F;stroke-width:0.1px;stroke-linecap:square" d="M 18.60021664361284,1.8277949857258409 L 18.944390520269618,1.112654492613067 L 19.2885643969264,0.3975139995002932 L 19.63273827358318,-0.31762649361248063 L 19.976912150239958,-1.0327669867252545 " />
        <path style="fill:none;stroke:#50514F;stroke-width:0.1px;stroke-linecap:square" d="M 17.911868890299278,3.2580759719513885 L 18.685488885689136,3.0808933401966647 L 19.459108881078993,2.903710708441941 L 20.079363224268533,2.4085681713709994 L 20.699617567458073,1.9134256343000577 " />
        <path style="fill:none;stroke:#50514F;stroke-width:0.1px;stroke-linecap:square" d="M 19.459108881078993,2.903710708441941 L 20.233036940051665,3.079542849409771 L 21.006964999024333,3.255374990377601 " />
        <path style="fill:none;stroke:#50514F;stroke-width:0.1px;stroke-linecap:square" d="M 19.459108881078993,2.903710708441941 L 20.23272887646885,2.726528076687217 L 21.00634887185871,2.549345444932493 L 21.779968867248567,2.372162813177769 L 22.553588862638424,2.194980181423045 " />
        <path style="fill:none;stroke:#50514F;stroke-width:0.1px;stroke-linecap:square" d="M 17.911868890299278,3.2580759719513885 L 18.532123233488818,2.762933434880447 L 19.152377576678358,2.2677908978095056 L 19.772631919867894,1.772648360738564 L 20.392886263057434,1.2775058236676224 L 21.013140606246974,0.7823632865966808 L 21.633394949436514,0.28722074952573917 L 21.977568826093293,-0.42791974358703466 L 22.321742702750072,-1.1430602366998086 " />
        <path style="fill:none;stroke:#50514F;stroke-width:0.1px;stroke-linecap:square" d="M 21.633394949436514,0.28722074952573917 L 22.40701494482637,0.11003811777101528 L 23.180634940216226,-6.714451398370862e-2 " />
        <path style="fill:none;stroke:#50514F;stroke-width:0.1px;stroke-linecap:square" d="M 21.633394949436514,0.28722074952573917 L 22.25364929262605,-0.20792178754520238 L 22.87390363581559,-0.703064324616144 L 23.49415797900513,-1.1982068616870856 L 24.114412322194667,-1.693349398758027 " />
        <path style="fill:none;stroke:#50514F;stroke-width:0.1px;stroke-linecap:square" d="M 5.5067820265085,13.16092671337022 L 5.850955903165281,12.445786220257446 L 6.195129779822063,11.730645727144672 L 6.539303656478843,11.015505234031899 L 6.883477533135625,10.300364740919125 L 7.227651409792406,9.585224247806352 L 7.5718252864491875,8.870083754693576 L 7.915999163105969,8.154943261580803 L 8.26017303976275,7.439802768468029 L 8.604346916419532,6.724662275355255 L 8.948520793076312,6.009521782242482 L 9.292694669733095,5.294381289129708 L 9.636868546389875,4.579240796016934 L 9.981042423046656,3.86410030290416 L 10.325216299703438,3.148959809791386 L 10.669390176360219,2.4338193166786124 L 11.013564053017001,1.7186788235658386 L 11.357737929673782,1.0035383304530645 L 11.701911806330564,0.2883978373402908 L 12.046085682987345,-0.4267426557724831 L 12.390259559644127,-1.141883148885257 L 12.734433436300906,-1.8570236419980308 L 13.078607312957686,-2.5721641351108047 L 13.422781189614467,-3.2873046282235787 L 13.766955066271246,-4.002445121336352 L 13.766955066271246,-4.796095914987146 L 13.766955066271246,-5.589746708637939 L 13.766955066271246,-6.383397502288733 L 13.766955066271246,-7.177048295939527 L 13.422781189614467,-7.892188789052301 L 13.078607312957686,-8.607329282165075 L 12.458352969768146,-9.102471819236015 L 11.838098626578608,-9.597614356306957 " />
        <path style="fill:none;stroke:#50514F;stroke-width:0.1px;stroke-linecap:square" d="M 13.078607312957686,-8.607329282165075 L 13.078607312957686,-9.400980075815868 L 13.078607312957686,-10.194630869466662 " />
        <path style="fill:none;stroke:#50514F;stroke-width:0.1px;stroke-linecap:square" d="M 13.078607312957686,-8.607329282165075 L 12.734433436300906,-9.322469775277849 L 12.390259559644125,-10.037610268390623 L 12.046085682987343,-10.752750761503396 L 11.701911806330562,-11.46789125461617 " />
        <path style="fill:none;stroke:#50514F;stroke-width:0.1px;stroke-linecap:square" d="M 13.766955066271246,-7.177048295939527 L 14.111128942928026,-7.892188789052301 L 14.455302819584807,-8.607329282165075 L 14.455302819584807,-9.400980075815868 L 14.455302819584807,-10.194630869466662 " />
        <path style="fill:none;stroke:#50514F;stroke-width:0.1px;stroke-linecap:square" d="M 14.455302819584807,-8.607329282165075 L 15.075557162774345,-9.102471819236015 L 15.695811505963883,-9.597614356306957 " />
        <path style="fill:none;stroke:#50514F;stroke-width:0.1px;stroke-linecap:square" d="M 14.455302819584807,-8.607329282165075 L 14.799476696241586,-9.322469775277849 L 15.143650572898366,-10.037610268390623 L 15.487824449555147,-10.752750761503396 L 15.831998326211925,-11.46789125461617 " />
        <path style="fill:none;stroke:#50514F;stroke-width:0.1px;stroke-linecap:square" d="M 13.766955066271246,-7.177048295939527 L 13.766955066271246,-7.970699089590321 L 13.766955066271246,-8.764349883241113 L 13.766955066271246,-9.558000676891908 L 13.766955066271246,-10.351651470542702 L 13.766955066271246,-11.145302264193495 L 13.766955066271246,-11.938953057844289 L 13.422781189614467,-12.654093550957063 L 13.078607312957686,-13.369234044069836 " />
        <path style="fill:none;stroke:#50514F;stroke-width:0.1px;stroke-linecap:square" d="M 13.766955066271246,-11.938953057844289 L 14.111128942928026,-12.654093550957063 L 14.455302819584807,-13.369234044069836 " />
        <path style="fill:none;stroke:#50514F;stroke-width:0.1px;stroke-linecap:square" d="M 13.766955066271246,-11.938953057844289 L 13.766955066271246,-12.732603851495082 L 13.766955066271246,-13.526254645145876 L 13.766955066271246,-14.319905438796669 L 13.766955066271246,-15.113556232447463 " />
        <path style="fill:none;stroke:#50514F;stroke-width:0.1px;stroke-linecap:square" d="M 13.766955066271246,-4.002445121336352 L 14.387209409460786,-4.497587658407294 L 15.007463752650324,-4.992730195478235 L 15.627718095839864,-5.487872732549177 L 16.2479724390294,-5.983015269620119 L 16.592146315686183,-6.698155762732893 L 16.93632019234296,-7.413296255845666 L 16.93632019234296,-8.20694704949646 L 16.93632019234296,-9.000597843147254 " />
        <path style="fill:none;stroke:#50514F;stroke-width:0.1px;stroke-linecap:square" d="M 16.93632019234296,-7.413296255845666 L 17.5565745355325,-7.908438792916608 L 18.17682887872204,-8.40358132998755 " />
        <path style="fill:none;stroke:#50514F;stroke-width:0.1px;stroke-linecap:square" d="M 16.93632019234296,-7.413296255845666 L 17.28049406899974,-8.12843674895844 L 17.624667945656523,-8.843577242071214 L 17.9688418223133,-9.558717735183988 L 18.31301569897008,-10.273858228296762 " />
        <path style="fill:none;stroke:#50514F;stroke-width:0.1px;stroke-linecap:square" d="M 16.2479724390294,-5.983015269620119 L 17.021592434419258,-6.160197901374837 L 17.795212429809116,-6.337380533129555 L 18.415466772998656,-6.832523070200497 L 19.035721116188196,-7.327665607271438 " />
        <path style="fill:none;stroke:#50514F;stroke-width:0.1px;stroke-linecap:square" d="M 17.795212429809116,-6.337380533129555 L 18.569140488781787,-6.161548392161725 L 19.343068547754456,-5.985716251193895 " />
        <path style="fill:none;stroke:#50514F;stroke-width:0.1px;stroke-linecap:square" d="M 17.795212429809116,-6.337380533129555 L 18.568832425198973,-6.514563164884273 L 19.34245242058883,-6.691745796638991 L 20.11607241597869,-6.86892842839371 L 20.889692411368546,-7.046111060148428 " />
        <path style="fill:none;stroke:#50514F;stroke-width:0.1px;stroke-linecap:square" d="M 16.2479724390294,-5.983015269620119 L 16.86822678221894,-6.47815780669106 L 17.48848112540848,-6.973300343762002 L 18.10873546859802,-7.468442880832943 L 18.728989811787557,-7.963585417903885 L 19.349244154977097,-8.458727954974826 L 19.969498498166637,-8.953870492045768 L 20.313672374823415,-9.669010985158542 L 20.657846251480194,-10.384151478271315 " />
        <path style="fill:none;stroke:#50514F;stroke-width:0.1px;stroke-linecap:square" d="M 19.969498498166637,-8.953870492045768 L 20.743118493556494,-9.131053123800486 L 21.516738488946352,-9.308235755555204 " />
        <path style="fill:none;stroke:#50514F;stroke-width:0.1px;stroke-linecap:square" d="M 19.969498498166637,-8.953870492045768 L 20.589752841356177,-9.44901302911671 L 21.210007184545713,-9.944155566187652 L 21.830261527735253,-10.439298103258594 L 22.450515870924793,-10.934440640329534 " />
        <path style="fill:none;stroke:#50514F;stroke-width:0.1px;stroke-linecap:square" d="M 13.766955066271246,-4.002445121336352 L 14.111128942928026,-4.717585614449126 L 14.455302819584807,-5.4327261075619 L 14.799476696241586,-6.147866600674674 L 15.143650572898366,-6.863007093787448 L 15.487824449555147,-7.578147586900221 L 15.831998326211925,-8.293288080012996 L 16.176172202868706,-9.00842857312577 L 16.520346079525485,-9.723569066238543 L 16.864519956182267,-10.438709559351317 L 17.208693832839046,-11.15385005246409 L 17.552867709495825,-11.868990545576866 L 17.897041586152607,-12.58413103868964 L 17.897041586152607,-13.377781832340432 L 17.897041586152607,-14.171432625991226 L 17.552867709495825,-14.886573119104 L 17.208693832839046,-15.601713612216773 " />
        <path style="fill:none;stroke:#50514F;stroke-width:0.1px;stroke-linecap:square" d="M 17.897041586152607,-14.171432625991226 L 18.241215462809386,-14.886573119104 L 18.585389339466165,-15.601713612216773 " />
        <path style="fill:none;stroke:#50514F;stroke-width:0.1px;stroke-linecap:square" d="M 17.897041586152607,-14.171432625991226 L 17.897041586152607,-14.965083419642019 L 17.897041586152607,-15.758734213292813 L 17.897041586152607,-16.552385006943606 L 17.897041586152607,-17.3460358005944 " />
        <path style="fill:none;stroke:#50514F;stroke-width:0.1px;stroke-linecap:square" d="M 17.897041586152607,-12.58413103868964 L 18.517295929342144,-13.07927357576058 L 19.137550272531684,-13.574416112831521 L 19.481724149188462,-14.289556605944295 L 19.825898025845245,-15.00469709905707 " />
        <path style="fill:none;stroke:#50514F;stroke-width:0.1px;stroke-linecap:square" d="M 19.137550272531684,-13.574416112831521 L 19.91117026792154,-13.75159874458624 L 20.6847902633114,-13.92878137634096 " />
        <path style="fill:none;stroke:#50514F;stroke-width:0.1px;stroke-linecap:square" d="M 19.137550272531684,-13.574416112831521 L 19.757804615721223,-14.069558649902463 L 20.37805895891076,-14.564701186973405 L 20.9983133021003,-15.059843724044347 L 21.61856764528984,-15.554986261115289 " />
        <path style="fill:none;stroke:#50514F;stroke-width:0.1px;stroke-linecap:square" d="M 17.897041586152607,-12.58413103868964 L 18.241215462809386,-13.299271531802413 L 18.585389339466165,-14.014412024915186 L 18.929563216122947,-14.72955251802796 L 19.273737092779726,-15.444693011140734 L 19.617910969436505,-16.15983350425351 L 19.962084846093287,-16.874973997366283 L 19.962084846093287,-17.668624791017077 L 19.962084846093287,-18.462275584667868 " />
        <path style="fill:none;stroke:#50514F;stroke-width:0.1px;stroke-linecap:square" d="M 19.962084846093287,-16.874973997366283 L 20.582339189282823,-17.370116534437223 L 21.202593532472363,-17.865259071508166 " />
        <path style="fill:none;stroke:#50514F;stroke-width:0.1px;stroke-linecap:square" d="M 19.962084846093287,-16.874973997366283 L 20.306258722750066,-17.590114490479056 L 20.650432599406845,-18.30525498359183 L 20.994606476063623,-19.020395476704604 L 21.338780352720406,-19.735535969817377 " />
        <path style="fill:none;stroke:#50514F;stroke-width:0.1px;stroke-linecap:square" d="M -1.2645069842577277e-15,24.6031746031746 L -1.2159098890534678e-15,23.809523809523807 L -1.1673127938492077e-15,23.015873015873016 L -1.1187156986449477e-15,22.22222222222222 L -1.0701186034406878e-15,21.428571428571427 L -1.0215215082364279e-15,20.634920634920633 L -9.729244130321678e-16,19.841269841269842 L -9.243273178279078e-16,19.047619047619047 L -8.757302226236479e-16,18.253968253968253 L -8.271331274193879e-16,17.46031746031746 L -7.785360322151279e-16,16.666666666666664 L -7.29938937010868e-16,15.873015873015872 L -6.813418418066079e-16,15.079365079365079 L -6.32744746602348e-16,14.285714285714285 L -5.84147651398088e-16,13.492063492063492 L -5.355505561938281e-16,12.698412698412698 L -4.86953460989568e-16,11.904761904761903 L -4.3835636578530807e-16,11.11111111111111 L -3.897592705810481e-16,10.317460317460316 L -3.4116217537678813e-16,9.523809523809524 L -2.9256508017252816e-16,8.73015873015873 L -2.439679849682682e-16,7.936507936507936 L -1.953708897640082e-16,7.142857142857142 L -1.4677379455974824e-16,6.349206349206349 L -9.817669935548826e-17,5.555555555555555 L -4.9579604151228277e-17,4.761904761904762 L -9.825089469682978e-19,3.968253968253968 L 4.761458625729168e-17,3.1746031746031744 L 9.621168146155166e-17,2.380952380952381 L 1.4480877666581164e-16,1.5873015873015872 L 1.9340587187007162e-16,0.7936507936507936 L 2.420029670743316e-16,0.0 L 2.9060006227859156e-16,-0.7936507936507936 L 3.3919715748285153e-16,-1.5873015873015872 L 3.877942526871115e-16,-2.380952380952381 L 4.363913478913715e-16,-3.1746031746031744 L 4.849884430956315e-16,-3.968253968253968 L 5.335855382998914e-16,-4.761904761904762 L 5.821826335041514e-16,-5.555555555555555 L 6.307797287084114e-16,-6.349206349206349 L 6.793768239126714e-16,-7.142857142857142 L 7.279739191169313e-16,-7.936507936507936 L 7.765710143211913e-16,-8.73015873015873 L 8.251681095254514e-16,-9.523809523809524 L 8.737652047297113e-16,-10.317460317460316 L 9.223622999339712e-16,-11.11111111111111 L 9.709593951382313e-16,-11.904761904761903 L 1.0195564903424912e-15,-12.698412698412698 L 1.0681535855467512e-15,-13.492063492063492 L -0.34417387665678006,-14.207203985176266 L -0.6883477533135612,-14.92234447828904 L -1.0325216299703424,-15.637484971401813 L -1.3766955066271236,-16.35262546451459 L -1.7208693832839046,-17.067765957627362 L -2.0650432599406856,-17.782906450740136 L -2.4092171365974666,-18.49804694385291 L -2.7533910132542476,-19.213187436965683 L -3.3736453564437863,-19.708329974036623 L -3.9938996996333245,-20.203472511107567 L -4.614154042822864,-20.698615048178507 L -5.234408386012403,-21.193757585249447 L -6.00802838140226,-21.37094021700417 L -6.781648376792119,-21.548122848758887 L -7.555576435764788,-21.372290707791056 L -8.329504494737456,-21.196458566823225 " />
        <path style="fill:none;stroke:#50514F;stroke-width:0.1px;stroke-linecap:square" d="M -6.781648376792119,-21.548122848758887 L -7.401902719981658,-22.043265385829827 L -8.022157063171196,-22.538407922900767 " />
        <path style="fill:none;stroke:#50514F;stroke-width:0.1px;stroke-linecap:square" d="M -6.781648376792119,-21.548122848758887 L -7.5552683721819776,-21.725305480513605 L -8.328888367571837,-21.902488112268323 L -9.102508362961695,-22.07967074402304 L -9.876128358351554,-22.25685337577776 " />
        <path style="fill:none;stroke:#50514F;stroke-width:0.1px;stroke-linecap:square" d="M -5.234408386012403,-21.193757585249447 L -5.578582262669184,-21.908898078362224 L -5.922756139325966,-22.624038571474998 L -6.543010482515505,-23.119181108545938 L -7.163264825705044,-23.614323645616878 " />
        <path style="fill:none;stroke:#50514F;stroke-width:0.1px;stroke-linecap:square" d="M -5.922756139325966,-22.624038571474998 L -5.922756139325966,-23.41768936512579 L -5.922756139325966,-24.211340158776583 " />
        <path style="fill:none;stroke:#50514F;stroke-width:0.1px;stroke-linecap:square" d="M -5.922756139325966,-22.624038571474998 L -6.266930015982747,-23.33917906458777 L -6.6111038926395285,-24.054319557700545 L -6.955277769296309,-24.76946005081332 L -7.2994516459530905,-25.484600543926092 " />
        <path style="fill:none;stroke:#50514F;stroke-width:0.1px;stroke-linecap:square" d="M -5.234408386012403,-21.193757585249447 L -5.854662729201942,-21.68890012232039 L -6.474917072391481,-22.18404265939133 L -7.09517141558102,-22.679185196462274 L -7.715425758770558,-23.174327733533215 L -8.335680101960097,-23.669470270604155 L -8.955934445149637,-24.1646128076751 L -9.729554440539495,-24.341795439429816 L -10.503174435929354,-24.518978071184534 " />
        <path style="fill:none;stroke:#50514F;stroke-width:0.1px;stroke-linecap:square" d="M -8.955934445149637,-24.1646128076751 L -9.300108321806418,-24.879753300787872 L -9.6442821984632,-25.594893793900646 " />
        <path style="fill:none;stroke:#50514F;stroke-width:0.1px;stroke-linecap:square" d="M -8.955934445149637,-24.1646128076751 L -9.576188788339175,-24.65975534474604 L -10.196443131528715,-25.154897881816982 L -10.816697474718254,-25.650040418887922 L -11.436951817907792,-26.145182955958862 " />
        <path style="fill:none;stroke:#50514F;stroke-width:0.1px;stroke-linecap:square" d="M -2.7533910132542476,-19.213187436965683 L -2.7533910132542476,-20.006838230616477 L -2.7533910132542476,-20.800489024267268 L -2.7533910132542476,-21.594139817918062 L -2.7533910132542476,-22.387790611568857 L -3.0975648899110286,-23.10293110468163 L -3.44173876656781,-23.818071597794404 L -4.061993109757348,-24.313214134865344 L -4.6822474529468865,-24.808356671936288 " />
        <path style="fill:none;stroke:#50514F;stroke-width:0.1px;stroke-linecap:square" d="M -3.44173876656781,-23.818071597794404 L -3.44173876656781,-24.6117223914452 L -3.44173876656781,-25.405373185095993 " />
        <path style="fill:none;stroke:#50514F;stroke-width:0.1px;stroke-linecap:square" d="M -3.44173876656781,-23.818071597794404 L -3.7859126432245915,-24.533212090907178 L -4.130086519881373,-25.24835258401995 L -4.474260396538154,-25.963493077132725 L -4.818434273194936,-26.6786335702455 " />
        <path style="fill:none;stroke:#50514F;stroke-width:0.1px;stroke-linecap:square" d="M -2.7533910132542476,-22.387790611568857 L -2.4092171365974666,-23.10293110468163 L -2.065043259940685,-23.818071597794404 L -2.065043259940685,-24.6117223914452 L -2.065043259940685,-25.405373185095993 " />
        <path style="fill:none;stroke:#50514F;stroke-width:0.1px;stroke-linecap:square" d="M -2.065043259940685,-23.818071597794404 L -1.4447889167511467,-24.313214134865344 L -0.8245345735616081,-24.808356671936288 " />
        <path style="fill:none;stroke:#50514F;stroke-width:0.1px;stroke-linecap:square" d="M -2.065043259940685,-23.818071597794404 L -1.720869383283904,-24.533212090907178 L -1.3766955066271227,-25.24835258401995 L -1.0325216299703417,-25.963493077132725 L -0.6883477533135605,-26.6786335702455 " />
        <path style="fill:none;stroke:#50514F;stroke-width:0.1px;stroke-linecap:square" d="M -2.7533910132542476,-22.387790611568857 L -2.7533910132542476,-23.18144140521965 L -2.7533910132542476,-23.975092198870446 L -2.7533910132542476,-24.768742992521236 L -2.7533910132542476,-25.56239378617203 L -2.7533910132542476,-26.356044579822825 L -2.7533910132542476,-27.14969537347362 L -3.0975648899110286,-27.864835866586393 L -3.44173876656781,-28.579976359699167 " />
        <path style="fill:none;stroke:#50514F;stroke-width:0.1px;stroke-linecap:square" d="M -2.7533910132542476,-27.14969537347362 L -2.4092171365974666,-27.864835866586393 L -2.065043259940685,-28.579976359699167 " />
        <path style="fill:none;stroke:#50514F;stroke-width:0.1px;stroke-linecap:square" d="M -2.7533910132542476,-27.14969537347362 L -2.7533910132542476,-27.94334616712441 L -2.7533910132542476,-28.736996960775205 L -2.7533910132542476,-29.530647754426 L -2.7533910132542476,-30.324298548076793 " />
        <path style="fill:none;stroke:#50514F;stroke-width:0.1px;stroke-linecap:square" d="M -2.7533910132542476,-19.213187436965683 L -3.0975648899110286,-19.928327930078456 L -3.44173876656781,-20.64346842319123 L -3.7859126432245915,-21.358608916304004 L -4.130086519881373,-22.073749409416777 L -4.474260396538154,-22.78888990252955 L -4.818434273194936,-23.504030395642324 L -5.162608149851717,-24.219170888755098 L -5.506782026508498,-24.93431138186787 L -5.850955903165279,-25.649451874980645 L -6.195129779822061,-26.364592368093422 L -6.539303656478841,-27.079732861206196 L -6.883477533135623,-27.79487335431897 L -7.503731876325162,-28.29001589138991 L -8.1239862195147,-28.78515842846085 L -8.89760621490456,-28.96234106021557 L -9.671226210294419,-29.13952369197029 " />
        <path style="fill:none;stroke:#50514F;stroke-width:0.1px;stroke-linecap:square" d="M -8.1239862195147,-28.78515842846085 L -8.468160096171482,-29.500298921573627 L -8.812333972828263,-30.2154394146864 " />
        <path style="fill:none;stroke:#50514F;stroke-width:0.1px;stroke-linecap:square" d="M -8.1239862195147,-28.78515842846085 L -8.74424056270424,-29.280300965531794 L -9.364494905893778,-29.775443502602734 L -9.984749249083318,-30.270586039673677 L -10.605003592272856,-30.765728576744618 " />
        <path style="fill:none;stroke:#50514F;stroke-width:0.1px;stroke-linecap:square" d="M -6.883477533135623,-27.79487335431897 L -6.883477533135623,-28.58852414796976 L -6.883477533135623,-29.382174941620555 L -7.227651409792404,-30.09731543473333 L -7.571825286449186,-30.812455927846102 " />
        <path style="fill:none;stroke:#50514F;stroke-width:0.1px;stroke-linecap:square" d="M -6.883477533135623,-29.382174941620555 L -6.539303656478841,-30.09731543473333 L -6.19512977982206,-30.812455927846102 " />
        <path style="fill:none;stroke:#50514F;stroke-width:0.1px;stroke-linecap:square" d="M -6.883477533135623,-29.382174941620555 L -6.883477533135623,-30.17582573527135 L -6.883477533135623,-30.969476528922144 L -6.883477533135623,-31.763127322572938 L -6.883477533135623,-32.55677811622373 " />
        <path style="fill:none;stroke:#50514F;stroke-width:0.1px;stroke-linecap:square" d="M -6.883477533135623,-27.79487335431897 L -7.227651409792404,-28.510013847431743 L -7.571825286449186,-29.225154340544517 L -7.915999163105967,-29.94029483365729 L -8.260173039762748,-30.655435326770064 L -8.60434691641953,-31.370575819882838 L -8.94852079307631,-32.085716312995615 L -9.56877513626585,-32.580858850066555 L -10.189029479455389,-33.076001387137495 " />
        <path style="fill:none;stroke:#50514F;stroke-width:0.1px;stroke-linecap:square" d="M -8.94852079307631,-32.085716312995615 L -8.94852079307631,-32.879367106646406 L -8.94852079307631,-33.6730179002972 " />
        <path style="fill:none;stroke:#50514F;stroke-width:0.1px;stroke-linecap:square" d="M -8.94852079307631,-32.085716312995615 L -9.292694669733093,-32.800856806108385 L -9.636868546389874,-33.51599729922116 L -9.981042423046656,-34.23113779233393 L -10.325216299703436,-34.94627828544671 " />
        <path style="fill:none;stroke:#50514F;stroke-width:0.1px;stroke-linecap:square" d="M 1.0681535855467512e-15,-13.492063492063492 L 0.3441738766567823,-14.207203985176266 L 0.6883477533135636,-14.92234447828904 L 1.0325216299703448,-15.637484971401813 L 1.376695506627126,-16.35262546451459 L 1.7208693832839073,-17.067765957627362 L 2.0650432599406887,-17.782906450740136 L 2.4092171365974697,-18.49804694385291 L 2.753391013254251,-19.213187436965683 L 2.753391013254251,-20.006838230616477 L 2.753391013254251,-20.800489024267268 L 2.753391013254251,-21.594139817918062 L 2.753391013254251,-22.387790611568857 L 2.40921713659747,-23.10293110468163 L 2.065043259940689,-23.818071597794404 L 1.4447889167511507,-24.313214134865344 L 0.8245345735616123,-24.808356671936288 " />
        <path style="fill:none;stroke:#50514F;stroke-width:0.1px;stroke-linecap:square" d="M 2.065043259940689,-23.818071597794404 L 2.065043259940689,-24.6117223914452 L 2.065043259940689,-25.405373185095993 " />
        <path style="fill:none;stroke:#50514F;stroke-width:0.1px;stroke-linecap:square" d="M 2.065043259940689,-23.818071597794404 L 1.7208693832839081,-24.533212090907178 L 1.3766955066271271,-25.24835258401995 L 1.0325216299703461,-25.963493077132725 L 0.6883477533135651,-26.6786335702455 " />
        <path style="fill:none;stroke:#50514F;stroke-width:0.1px;stroke-linecap:square" d="M 2.753391013254251,-22.387790611568857 L 3.097564889911032,-23.10293110468163 L 3.4417387665678136,-23.818071597794404 L 3.4417387665678136,-24.6117223914452 L 3.4417387665678136,-25.405373185095993 " />
        <path style="fill:none;stroke:#50514F;stroke-width:0.1px;stroke-linecap:square" d="M 3.4417387665678136,-23.818071597794404 L 4.061993109757353,-24.313214134865344 L 4.682247452946892,-24.808356671936288 " />
        <path style="fill:none;stroke:#50514F;stroke-width:0.1px;stroke-linecap:square" d="M 3.4417387665678136,-23.818071597794404 L 3.785912643224595,-24.533212090907178 L 4.1300865198813765,-25.24835258401995 L 4.474260396538158,-25.963493077132725 L 4.818434273194939,-26.6786335702455 " />
        <path style="fill:none;stroke:#50514F;stroke-width:0.1px;stroke-linecap:square" d="M 2.753391013254251,-22.387790611568857 L 2.753391013254251,-23.18144140521965 L 2.753391013254251,-23.975092198870446 L 2.753391013254251,-24.768742992521236 L 2.753391013254251,-25.56239378617203 L 2.753391013254251,-26.356044579822825 L 2.753391013254251,-27.14969537347362 L 2.40921713659747,-27.864835866586393 L 2.065043259940689,-28.579976359699167 " />
        <path style="fill:none;stroke:#50514F;stroke-width:0.1px;stroke-linecap:square" d="M 2.753391013254251,-27.14969537347362 L 3.097564889911032,-27.864835866586393 L 3.4417387665678136,-28.579976359699167 " />
        <path style="fill:none;stroke:#50514F;stroke-width:0.1px;stroke-linecap:square" d="M 2.753391013254251,-27.14969537347362 L 2.753391013254251,-27.94334616712441 L 2.753391013254251,-28.736996960775205 L 2.753391013254251,-29.530647754426 L 2.753391013254251,-30.324298548076793 " />
        <path style="fill:none;stroke:#50514F;stroke-width:0.1px;stroke-linecap:square" d="M 2.753391013254251,-19.213187436965683 L 3.37364535644379,-19.708329974036623 L 3.993899699633329,-20.203472511107567 L 4.614154042822868,-20.698615048178507 L 5.234408386012407,-21.193757585249447 L 5.5785822626691886,-21.908898078362224 L 5.92275613932597,-22.624038571474998 L 5.92275613932597,-23.41768936512579 L 5.92275613932597,-24.211340158776583 " />
        <path style="fill:none;stroke:#50514F;stroke-width:0.1px;stroke-linecap:square" d="M 5.92275613932597,-22.624038571474998 L 6.543010482515508,-23.119181108545938 L 7.163264825705047,-23.614323645616878 " />
        <path style="fill:none;stroke:#50514F;stroke-width:0.1px;stroke-linecap:square" d="M 5.92275613932597,-22.624038571474998 L 6.266930015982751,-23.33917906458777 L 6.611103892639532,-24.054319557700545 L 6.9552777692963135,-24.76946005081332 L 7.299451645953095,-25.484600543926092 " />
        <path style="fill:none;stroke:#50514F;stroke-width:0.1px;stroke-linecap:square" d="M 5.234408386012407,-21.193757585249447 L 6.008028381402265,-21.37094021700417 L 6.781648376792123,-21.548122848758887 L 7.4019027199816625,-22.043265385829827 L 8.022157063171202,-22.538407922900767 " />
        <path style="fill:none;stroke:#50514F;stroke-width:0.1px;stroke-linecap:square" d="M 6.781648376792123,-21.548122848758887 L 7.555576435764792,-21.372290707791056 L 8.32950449473746,-21.196458566823225 " />
        <path style="fill:none;stroke:#50514F;stroke-width:0.1px;stroke-linecap:square" d="M 6.781648376792123,-21.548122848758887 L 7.555268372181982,-21.725305480513605 L 8.32888836757184,-21.902488112268323 L 9.1025083629617,-22.07967074402304 L 9.876128358351558,-22.25685337577776 " />
        <path style="fill:none;stroke:#50514F;stroke-width:0.1px;stroke-linecap:square" d="M 5.234408386012407,-21.193757585249447 L 5.854662729201946,-21.68890012232039 L 6.474917072391484,-22.18404265939133 L 7.0951714155810235,-22.679185196462274 L 7.715425758770563,-23.174327733533215 L 8.335680101960103,-23.669470270604155 L 8.95593444514964,-24.1646128076751 L 9.300108321806421,-24.879753300787872 L 9.644282198463204,-25.594893793900646 " />
        <path style="fill:none;stroke:#50514F;stroke-width:0.1px;stroke-linecap:square" d="M 8.95593444514964,-24.1646128076751 L 9.7295544405395,-24.341795439429816 L 10.503174435929358,-24.518978071184534 " />
        <path style="fill:none;stroke:#50514F;stroke-width:0.1px;stroke-linecap:square" d="M 8.95593444514964,-24.1646128076751 L 9.576188788339179,-24.65975534474604 L 10.196443131528719,-25.154897881816982 L 10.816697474718257,-25.650040418887922 L 11.436951817907797,-26.145182955958862 " />
        <path style="fill:none;stroke:#50514F;stroke-width:0.1px;stroke-linecap:square" d="M 2.753391013254251,-19.213187436965683 L 3.0975648899110326,-19.928327930078456 L 3.4417387665678136,-20.64346842319123 L 3.785912643224595,-21.358608916304004 L 4.1300865198813765,-22.073749409416777 L 4.474260396538158,-22.78888990252955 L 4.818434273194939,-23.504030395642324 L 5.16260814985172,-24.219170888755098 L 5.5067820265085015,-24.93431138186787 L 5.850955903165283,-25.649451874980645 L 6.195129779822064,-26.364592368093422 L 6.539303656478846,-27.079732861206196 L 6.883477533135627,-27.79487335431897 L 6.883477533135627,-28.58852414796976 L 6.883477533135627,-29.382174941620555 L 6.539303656478846,-30.09731543473333 L 6.195129779822064,-30.812455927846102 " />
        <path style="fill:none;stroke:#50514F;stroke-width:0.1px;stroke-linecap:square" d="M 6.883477533135627,-29.382174941620555 L 7.227651409792409,-30.09731543473333 L 7.57182528644919,-30.812455927846102 " />
        <path style="fill:none;stroke:#50514F;stroke-width:0.1px;stroke-linecap:square" d="M 6.883477533135627,-29.382174941620555 L 6.883477533135627,-30.17582573527135 L 6.883477533135627,-30.969476528922144 L 6.883477533135627,-31.763127322572938 L 6.883477533135627,-32.55677811622373 " />
        <path style="fill:none;stroke:#50514F;stroke-width:0.1px;stroke-linecap:square" d="M 6.883477533135627,-27.79487335431897 L 7.503731876325166,-28.29001589138991 L 8.123986219514705,-28.78515842846085 L 8.468160096171486,-29.500298921573627 L 8.812333972828268,-30.2154394146864 " />
        <path style="fill:none;stroke:#50514F;stroke-width:0.1px;stroke-linecap:square" d="M 8.123986219514705,-28.78515842846085 L 8.897606214904565,-28.96234106021557 L 9.671226210294423,-29.13952369197029 " />
        <path style="fill:none;stroke:#50514F;stroke-width:0.1px;stroke-linecap:square" d="M 8.123986219514705,-28.78515842846085 L 8.744240562704244,-29.280300965531794 L 9.364494905893784,-29.775443502602734 L 9.984749249083322,-30.270586039673677 L 10.605003592272862,-30.765728576744618 " />
        <path style="fill:none;stroke:#50514F;stroke-width:0.1px;stroke-linecap:square" d="M 6.883477533135627,-27.79487335431897 L 7.227651409792409,-28.510013847431743 L 7.57182528644919,-29.225154340544517 L 7.915999163105972,-29.94029483365729 L 8.260173039762753,-30.655435326770064 L 8.604346916419534,-31.370575819882838 L 8.948520793076316,-32.085716312995615 L 8.948520793076316,-32.879367106646406 L 8.948520793076316,-33.6730179002972 " />
        <path style="fill:none;stroke:#50514F;stroke-width:0.1px;stroke-linecap:square" d="M 8.948520793076316,-32.085716312995615 L 9.568775136265854,-32.580858850066555 L 10.189029479455394,-33.076001387137495 " />
        <path style="fill:none;stroke:#50514F;stroke-width:0.1px;stroke-linecap:square" d="M 8.948520793076316,-32.085716312995615 L 9.292694669733097,-32.800856806108385 L 9.636868546389879,-33.51599729922116 L 9.98104242304666,-34.23113779233393 L 10.32521629970344,-34.94627828544671 " />
        <path style="fill:none;stroke:#50514F;stroke-width:0.1px;stroke-linecap:square" d="M 1.0681535855467512e-15,-13.492063492063492 L 1.116750680751011e-15,-14.285714285714285 L 1.1653477759552712e-15,-15.079365079365079 L 1.2139448711595311e-15,-15.873015873015872 L 1.262541966363791e-15,-16.666666666666664 L 1.311139061568051e-15,-17.46031746031746 L 1.3597361567723111e-15,-18.253968253968253 L 1.408333251976571e-15,-19.047619047619047 L 1.456930347180831e-15,-19.841269841269842 L 1.505527442385091e-15,-20.634920634920633 L 1.554124537589351e-15,-21.428571428571427 L 1.602721632793611e-15,-22.22222222222222 L 1.6513187279978708e-15,-23.015873015873016 L 1.699915823202131e-15,-23.809523809523807 L 1.7485129184063909e-15,-24.6031746031746 L 1.797110013610651e-15,-25.396825396825395 L 1.8457071088149107e-15,-26.19047619047619 L 1.8943042040191706e-15,-26.984126984126984 L 1.942901299223431e-15,-27.777777777777775 L 1.991498394427691e-15,-28.57142857142857 L 2.040095489631951e-15,-29.365079365079364 L 2.0886925848362107e-15,-30.158730158730158 L 2.1372896800404707e-15,-30.95238095238095 L 2.1858867752447306e-15,-31.746031746031743 L 2.2344838704489905e-15,-32.53968253968254 L -0.3441738766567789,-33.254823032795315 L -0.6883477533135601,-33.969963525908085 L -1.0325216299703412,-34.68510401902086 L -1.3766955066271225,-35.40024451213363 L -1.996949849816661,-35.89538704920457 L -2.6172041930061996,-36.39052958627552 L -3.390824188396058,-36.56771221803024 L -4.164444183785916,-36.744894849784956 " />
        <path style="fill:none;stroke:#50514F;stroke-width:0.1px;stroke-linecap:square" d="M -2.6172041930061996,-36.39052958627552 L -2.9613780696629806,-37.10567007938829 L -3.305551946319762,-37.82081057250107 " />
        <path style="fill:none;stroke:#50514F;stroke-width:0.1px;stroke-linecap:square" d="M -2.6172041930061996,-36.39052958627552 L -3.237458536195738,-36.88567212334646 L -3.8577128793852773,-37.3808146604174 L -4.477967222574816,-37.87595719748834 L -5.098221565764355,-38.37109973455928 " />
        <path style="fill:none;stroke:#50514F;stroke-width:0.1px;stroke-linecap:square" d="M -1.3766955066271225,-35.40024451213363 L -1.3766955066271225,-36.19389530578443 L -1.3766955066271225,-36.98754609943522 L -1.7208693832839037,-37.70268659254799 L -2.0650432599406847,-38.41782708566077 " />
        <path style="fill:none;stroke:#50514F;stroke-width:0.1px;stroke-linecap:square" d="M -1.3766955066271225,-36.98754609943522 L -1.0325216299703412,-37.70268659254799 L -0.6883477533135601,-38.41782708566077 " />
        <path style="fill:none;stroke:#50514F;stroke-width:0.1px;stroke-linecap:square" d="M -1.3766955066271225,-36.98754609943522 L -1.3766955066271225,-37.78119689308601 L -1.3766955066271225,-38.57484768673681 L -1.3766955066271225,-39.3684984803876 L -1.3766955066271225,-40.16214927403839 " />
        <path style="fill:none;stroke:#50514F;stroke-width:0.1px;stroke-linecap:square" d="M -1.3766955066271225,-35.40024451213363 L -1.7208693832839037,-36.11538500524641 L -2.0650432599406847,-36.83052549835918 L -2.4092171365974657,-37.54566599147196 L -2.7533910132542467,-38.26080648458473 L -3.0975648899110277,-38.975946977697504 L -3.4417387665678087,-39.691087470810274 L -4.061993109757347,-40.18623000788122 L -4.682247452946886,-40.68137254495216 " />
        <path style="fill:none;stroke:#50514F;stroke-width:0.1px;stroke-linecap:square" d="M -3.4417387665678087,-39.691087470810274 L -3.4417387665678087,-40.48473826446107 L -3.4417387665678087,-41.27838905811186 " />
        <path style="fill:none;stroke:#50514F;stroke-width:0.1px;stroke-linecap:square" d="M -3.4417387665678087,-39.691087470810274 L -3.78591264322459,-40.40622796392305 L -4.130086519881371,-41.12136845703582 L -4.474260396538153,-41.8365089501486 L -4.818434273194934,-42.55164944326137 " />
        <path style="fill:none;stroke:#50514F;stroke-width:0.1px;stroke-linecap:square" d="M 2.2344838704489905e-15,-32.53968253968254 L 0.34417387665678345,-33.254823032795315 L 0.6883477533135647,-33.969963525908085 L 1.032521629970346,-34.68510401902086 L 1.3766955066271271,-35.40024451213363 L 1.3766955066271271,-36.19389530578443 L 1.3766955066271271,-36.98754609943522 L 1.032521629970346,-37.70268659254799 L 0.6883477533135648,-38.41782708566077 " />
        <path style="fill:none;stroke:#50514F;stroke-width:0.1px;stroke-linecap:square" d="M 1.3766955066271271,-36.98754609943522 L 1.7208693832839081,-37.70268659254799 L 2.0650432599406896,-38.41782708566077 " />
        <path style="fill:none;stroke:#50514F;stroke-width:0.1px;stroke-linecap:square" d="M 1.3766955066271271,-36.98754609943522 L 1.3766955066271271,-37.78119689308601 L 1.3766955066271271,-38.57484768673681 L 1.3766955066271271,-39.3684984803876 L 1.3766955066271271,-40.16214927403839 " />
        <path style="fill:none;stroke:#50514F;stroke-width:0.1px;stroke-linecap:square" d="M 1.3766955066271271,-35.40024451213363 L 1.9969498498166658,-35.89538704920457 L 2.6172041930062044,-36.39052958627552 L 2.9613780696629854,-37.10567007938829 L 3.305551946319767,-37.82081057250107 " />
        <path style="fill:none;stroke:#50514F;stroke-width:0.1px;stroke-linecap:square" d="M 2.6172041930062044,-36.39052958627552 L 3.390824188396063,-36.56771221803024 L 4.164444183785921,-36.744894849784956 " />
        <path style="fill:none;stroke:#50514F;stroke-width:0.1px;stroke-linecap:square" d="M 2.6172041930062044,-36.39052958627552 L 3.237458536195743,-36.88567212334646 L 3.8577128793852813,-37.3808146604174 L 4.47796722257482,-37.87595719748834 L 5.0982215657643595,-38.37109973455928 " />
        <path style="fill:none;stroke:#50514F;stroke-width:0.1px;stroke-linecap:square" d="M 1.3766955066271271,-35.40024451213363 L 1.7208693832839081,-36.11538500524641 L 2.0650432599406896,-36.83052549835918 L 2.409217136597471,-37.54566599147196 L 2.7533910132542525,-38.26080648458473 L 3.0975648899110335,-38.975946977697504 L 3.441738766567815,-39.691087470810274 L 3.441738766567815,-40.48473826446107 L 3.441738766567815,-41.27838905811186 " />
        <path style="fill:none;stroke:#50514F;stroke-width:0.1px;stroke-linecap:square" d="M 3.441738766567815,-39.691087470810274 L 4.061993109757354,-40.18623000788122 L 4.682247452946893,-40.68137254495216 " />
        <path style="fill:none;stroke:#50514F;stroke-width:0.1px;stroke-linecap:square" d="M 3.441738766567815,-39.691087470810274 L 3.7859126432245964,-40.40622796392305 L 4.130086519881377,-41.12136845703582 L 4.474260396538159,-41.8365089501486 L 4.81843427319494,-42.55164944326137 " />
        <path style="fill:none;stroke:#50514F;stroke-width:0.1px;stroke-linecap:square" d="M 2.2344838704489905e-15,-32.53968253968254 L 2.2830809656532504e-15,-33.33333333333333 L 2.3316780608575107e-15,-34.12698412698413 L 2.3802751560617707e-15,-34.92063492063492 L 2.4288722512660306e-15,-35.714285714285715 L 2.4774693464702905e-15,-36.507936507936506 L 2.5260664416745504e-15,-37.3015873015873 L 2.5746635368788104e-15,-38.095238095238095 L 2.6232606320830703e-15,-38.888888888888886 L 2.6718577272873306e-15,-39.682539682539684 L 2.7204548224915905e-15,-40.476190476190474 L 2.7690519176958504e-15,-41.269841269841265 L 2.8176490129001104e-15,-42.06349206349206 L -0.34417387665677834,-42.77863255660483 L -0.6883477533135595,-43.49377304971761 L -1.3086020965030982,-43.98891558678855 L -1.9288564396926369,-44.48405812385949 " />
        <path style="fill:none;stroke:#50514F;stroke-width:0.1px;stroke-linecap:square" d="M -0.6883477533135595,-43.49377304971761 L -0.6883477533135594,-44.2874238433684 L -0.6883477533135594,-45.0810746370192 " />
        <path style="fill:none;stroke:#50514F;stroke-width:0.1px;stroke-linecap:square" d="M -0.6883477533135595,-43.49377304971761 L -1.0325216299703406,-44.20891354283038 L -1.3766955066271218,-44.92405403594316 L -1.720869383283903,-45.63919452905593 L -2.065043259940684,-46.354335022168705 " />
        <path style="fill:none;stroke:#50514F;stroke-width:0.1px;stroke-linecap:square" d="M 2.8176490129001104e-15,-42.06349206349206 L 0.34417387665678406,-42.77863255660483 L 0.6883477533135652,-43.49377304971761 L 0.6883477533135653,-44.2874238433684 L 0.6883477533135653,-45.0810746370192 " />
        <path style="fill:none;stroke:#50514F;stroke-width:0.1px;stroke-linecap:square" d="M 0.6883477533135652,-43.49377304971761 L 1.3086020965031038,-43.98891558678855 L 1.9288564396926424,-44.48405812385949 " />
        <path style="fill:none;stroke:#50514F;stroke-width:0.1px;stroke-linecap:square" d="M 0.6883477533135652,-43.49377304971761 L 1.0325216299703466,-44.20891354283038 L 1.3766955066271278,-44.92405403594316 L 1.720869383283909,-45.63919452905593 L 2.0650432599406905,-46.354335022168705 " />
        <path style="fill:none;stroke:#50514F;stroke-width:0.1px;stroke-linecap:square" d="M 2.8176490129001104e-15,-42.06349206349206 L 2.8662461081043703e-15,-42.857142857142854 L 2.9148432033086302e-15,-43.650793650793645 L 2.96344029851289e-15,-44.44444444444444 L 3.01203739371715e-15,-45.238095238095234 L 3.0606344889214104e-15,-46.03174603174603 L 3.1092315841256703e-15,-46.82539682539682 L -0.344173876656778,-47.5405373185096 L -0.6883477533135592,-48.25567781162237 " />
        <path style="fill:none;stroke:#50514F;stroke-width:0.1px;stroke-linecap:square" d="M 3.1092315841256703e-15,-46.82539682539682 L 0.34417387665678434,-47.5405373185096 L 0.6883477533135656,-48.25567781162237 " />
        <path style="fill:none;stroke:#50514F;stroke-width:0.1px;stroke-linecap:square" d="M 3.1092315841256703e-15,-46.82539682539682 L 3.1578286793299302e-15,-47.61904761904761 L 3.20642577453419e-15,-48.41269841269841 L 3.25502286973845e-15,-49.2063492063492 L 3.30361996494271e-15,-50.0 " />
    </g>
</svg>
