<?xml version="1.0" encoding="UTF-8"?>
<!DOCTYPE svg PUBLIC "-//W3C//DTD SVG 1.1//EN"
    "http://www.w3.org/Graphics/SVG/1.1/DTD/svg11.dtd">

<svg xmlns="http://www.w3.org/2000/svg" xmlns:xlink="http://www.w3.org/1999/xlink" version="1.1" width="167.45958878790387" height="500" viewBox="-14.42164062222774 -89.1 32.55414406036851 97.19999999999999">
    <g>
        <rect x="-14.42164062222774" y="-89.1" width="32.55414406036851" height="97.19999999999999" fill="#CBD4C2" />
        <path style="fill:none;stroke:#50514F;stroke-width:0.1px;stroke-linecap:square" d="M 0.0,0.0 L 6.123233995736766e-17,-1.0 L -0.4336590845875442,-1.9010770213220916 " />
        <path style="fill:none;stroke:#50514F;stroke-width:0.1px;stroke-linecap:square" d="M 6.123233995736766e-17,-1.0 L 1.2246467991473532e-16,-2.0 L 0.4336590845875445,-2.9010770213220916 " />
        <path style="fill:none;stroke:#50514F;stroke-width:0.1px;stroke-linecap:square" d="M 1.2246467991473532e-16,-2.0 L 1.8369701987210297e-16,-3.0 L -0.4336590845875441,-3.9010770213220916 L -1.2151795570063628,-4.524956618031478 " />
        <path style="fill:none;stroke:#50514F;stroke-width:0.1px;stroke-linecap:square" d="M -0.4336590845875441,-3.9010770213220916 L -0.8673181691750884,-4.802154042644183 L -0.8673181691750884,-5.802154042644183 " />
        <path style="fill:none;stroke:#50514F;stroke-width:0.1px;stroke-linecap:square" d="M -0.8673181691750884,-4.802154042644183 L -1.3009772537626327,-5.703231063966275 " />
        <path style="fill:none;stroke:#50514F;stroke-width:0.1px;stroke-linecap:square" d="M 1.8369701987210297e-16,-3.0 L 2.4492935982947064e-16,-4.0 L -0.43365908458754404,-4.9010770213220916 " />
        <path style="fill:none;stroke:#50514F;stroke-width:0.1px;stroke-linecap:square" d="M 2.4492935982947064e-16,-4.0 L 3.061616997868383e-16,-5.0 L 0.4336590845875447,-5.9010770213220916 " />
        <path style="fill:none;stroke:#50514F;stroke-width:0.1px;stroke-linecap:square" d="M 3.061616997868383e-16,-5.0 L 3.67394039744206e-16,-6.0 L 0.43365908458754476,-6.9010770213220916 L 0.4336590845875448,-7.9010770213220916 " />
        <path style="fill:none;stroke:#50514F;stroke-width:0.1px;stroke-linecap:square" d="M 0.43365908458754476,-6.9010770213220916 L 0.8673181691750891,-7.802154042644183 L 1.6488386415939078,-8.42603363935357 " />
        <path style="fill:none;stroke:#50514F;stroke-width:0.1px;stroke-linecap:square" d="M 0.8673181691750891,-7.802154042644183 L 1.3009772537626334,-8.703231063966275 " />
        <path style="fill:none;stroke:#50514F;stroke-width:0.1px;stroke-linecap:square" d="M 3.67394039744206e-16,-6.0 L 4.2862637970157366e-16,-7.0 L -0.4336590845875438,-7.9010770213220916 " />
        <path style="fill:none;stroke:#50514F;stroke-width:0.1px;stroke-linecap:square" d="M 4.2862637970157366e-16,-7.0 L 4.898587196589413e-16,-8.0 L 0.4336590845875449,-8.901077021322092 " />
        <path style="fill:none;stroke:#50514F;stroke-width:0.1px;stroke-linecap:square" d="M 4.898587196589413e-16,-8.0 L 5.51091059616309e-16,-9.0 L -0.4336590845875437,-9.901077021322092 L -1.2151795570063624,-10.524956618031478 " />
        <path style="fill:none;stroke:#50514F;stroke-width:0.1px;stroke-linecap:square" d="M -0.4336590845875437,-9.901077021322092 L -0.867318169175088,-10.802154042644183 L -0.867318169175088,-11.802154042644183 " />
        <path style="fill:none;stroke:#50514F;stroke-width:0.1px;stroke-linecap:square" d="M -0.867318169175088,-10.802154042644183 L -1.3009772537626323,-11.703231063966275 L -2.082497726181451,-12.327110660675661 L -3.0572589203726728,-12.550360776686613 " />
        <path style="fill:none;stroke:#50514F;stroke-width:0.1px;stroke-linecap:square" d="M -2.082497726181451,-12.327110660675661 L -2.8640181986002697,-12.950990257385047 L -3.297677283187814,-13.852067278707139 " />
        <path style="fill:none;stroke:#50514F;stroke-width:0.1px;stroke-linecap:square" d="M -2.8640181986002697,-12.950990257385047 L -3.6455386710190885,-13.574869854094434 " />
        <path style="fill:none;stroke:#50514F;stroke-width:0.1px;stroke-linecap:square" d="M -1.3009772537626323,-11.703231063966275 L -1.7346363383501766,-12.604308085288366 L -2.5161568107689956,-13.228187681997753 " />
        <path style="fill:none;stroke:#50514F;stroke-width:0.1px;stroke-linecap:square" d="M -1.7346363383501766,-12.604308085288366 L -2.168295422937721,-13.505385106610458 L -2.168295422937721,-14.505385106610458 " />
        <path style="fill:none;stroke:#50514F;stroke-width:0.1px;stroke-linecap:square" d="M -2.168295422937721,-13.505385106610458 L -2.601954507525265,-14.40646212793255 L -2.601954507525265,-15.40646212793255 L -3.035613592112809,-16.30753914925464 " />
        <path style="fill:none;stroke:#50514F;stroke-width:0.1px;stroke-linecap:square" d="M -2.601954507525265,-15.40646212793255 L -2.601954507525265,-16.40646212793255 L -2.168295422937721,-17.30753914925464 " />
        <path style="fill:none;stroke:#50514F;stroke-width:0.1px;stroke-linecap:square" d="M -2.601954507525265,-16.40646212793255 L -2.601954507525265,-17.40646212793255 " />
        <path style="fill:none;stroke:#50514F;stroke-width:0.1px;stroke-linecap:square" d="M -2.601954507525265,-14.40646212793255 L -3.035613592112809,-15.30753914925464 L -3.817134064531628,-15.931418745964027 " />
        <path style="fill:none;stroke:#50514F;stroke-width:0.1px;stroke-linecap:square" d="M -3.035613592112809,-15.30753914925464 L -3.469272676700353,-16.208616170576732 L -3.469272676700353,-17.208616170576732 " />
        <path style="fill:none;stroke:#50514F;stroke-width:0.1px;stroke-linecap:square" d="M -3.469272676700353,-16.208616170576732 L -3.9029317612878973,-17.109693191898824 " />
        <path style="fill:none;stroke:#50514F;stroke-width:0.1px;stroke-linecap:square" d="M 5.51091059616309e-16,-9.0 L 6.123233995736766e-16,-10.0 L -0.43365908458754365,-10.901077021322092 " />
        <path style="fill:none;stroke:#50514F;stroke-width:0.1px;stroke-linecap:square" d="M 6.123233995736766e-16,-10.0 L 6.735557395310443e-16,-11.0 L 0.43365908458754504,-11.901077021322092 " />
        <path style="fill:none;stroke:#50514F;stroke-width:0.1px;stroke-linecap:square" d="M 6.735557395310443e-16,-11.0 L 7.34788079488412e-16,-12.0 L -0.43365908458754354,-12.901077021322092 L -1.2151795570063624,-13.524956618031478 " />
        <path style="fill:none;stroke:#50514F;stroke-width:0.1px;stroke-linecap:square" d="M -0.43365908458754354,-12.901077021322092 L -0.8673181691750877,-13.802154042644183 L -0.8673181691750877,-14.802154042644183 " />
        <path style="fill:none;stroke:#50514F;stroke-width:0.1px;stroke-linecap:square" d="M -0.8673181691750877,-13.802154042644183 L -1.300977253762632,-14.703231063966275 " />
        <path style="fill:none;stroke:#50514F;stroke-width:0.1px;stroke-linecap:square" d="M 7.34788079488412e-16,-12.0 L 7.960204194457796e-16,-13.0 L -0.4336590845875435,-13.901077021322092 " />
        <path style="fill:none;stroke:#50514F;stroke-width:0.1px;stroke-linecap:square" d="M 7.960204194457796e-16,-13.0 L 8.572527594031473e-16,-14.0 L 0.4336590845875452,-14.901077021322092 " />
        <path style="fill:none;stroke:#50514F;stroke-width:0.1px;stroke-linecap:square" d="M 8.572527594031473e-16,-14.0 L 9.18485099360515e-16,-15.0 L 0.4336590845875453,-15.901077021322092 L 0.4336590845875454,-16.90107702132209 " />
        <path style="fill:none;stroke:#50514F;stroke-width:0.1px;stroke-linecap:square" d="M 0.4336590845875453,-15.901077021322092 L 0.8673181691750897,-16.802154042644183 L 1.6488386415939085,-17.42603363935357 " />
        <path style="fill:none;stroke:#50514F;stroke-width:0.1px;stroke-linecap:square" d="M 0.8673181691750897,-16.802154042644183 L 1.300977253762634,-17.703231063966275 " />
        <path style="fill:none;stroke:#50514F;stroke-width:0.1px;stroke-linecap:square" d="M 9.18485099360515e-16,-15.0 L 9.797174393178826e-16,-16.0 L -0.43365908458754326,-16.90107702132209 " />
        <path style="fill:none;stroke:#50514F;stroke-width:0.1px;stroke-linecap:square" d="M 9.797174393178826e-16,-16.0 L 1.0409497792752501e-15,-17.0 L 0.43365908458754543,-17.90107702132209 " />
        <path style="fill:none;stroke:#50514F;stroke-width:0.1px;stroke-linecap:square" d="M 1.0409497792752501e-15,-17.0 L 1.1021821192326177e-15,-18.0 L 0.4336590845875455,-18.90107702132209 L 0.43365908458754554,-19.90107702132209 " />
        <path style="fill:none;stroke:#50514F;stroke-width:0.1px;stroke-linecap:square" d="M 0.4336590845875455,-18.90107702132209 L 0.8673181691750899,-19.802154042644183 L 1.6488386415939087,-20.42603363935357 " />
        <path style="fill:none;stroke:#50514F;stroke-width:0.1px;stroke-linecap:square" d="M 0.8673181691750899,-19.802154042644183 L 1.3009772537626343,-20.703231063966275 L 1.3009772537626343,-21.703231063966275 L 0.8673181691750901,-22.604308085288366 " />
        <path style="fill:none;stroke:#50514F;stroke-width:0.1px;stroke-linecap:square" d="M 1.3009772537626343,-21.703231063966275 L 1.3009772537626343,-22.703231063966275 L 1.7346363383501786,-23.604308085288366 " />
        <path style="fill:none;stroke:#50514F;stroke-width:0.1px;stroke-linecap:square" d="M 1.3009772537626343,-22.703231063966275 L 1.3009772537626343,-23.703231063966275 " />
        <path style="fill:none;stroke:#50514F;stroke-width:0.1px;stroke-linecap:square" d="M 1.3009772537626343,-20.703231063966275 L 1.7346363383501786,-21.604308085288366 L 1.7346363383501786,-22.604308085288366 " />
        <path style="fill:none;stroke:#50514F;stroke-width:0.1px;stroke-linecap:square" d="M 1.7346363383501786,-21.604308085288366 L 2.168295422937723,-22.505385106610458 L 2.949815895356542,-23.129264703319844 " />
        <path style="fill:none;stroke:#50514F;stroke-width:0.1px;stroke-linecap:square" d="M 2.168295422937723,-22.505385106610458 L 2.6019545075252677,-23.40646212793255 L 3.3834749799440864,-24.030341724641936 L 3.8171340645316305,-24.931418745964027 " />
        <path style="fill:none;stroke:#50514F;stroke-width:0.1px;stroke-linecap:square" d="M 3.3834749799440864,-24.030341724641936 L 4.164995452362906,-24.654221321351322 L 5.139756646554127,-24.877471437362274 " />
        <path style="fill:none;stroke:#50514F;stroke-width:0.1px;stroke-linecap:square" d="M 4.164995452362906,-24.654221321351322 L 4.946515924781725,-25.27810091806071 " />
        <path style="fill:none;stroke:#50514F;stroke-width:0.1px;stroke-linecap:square" d="M 2.6019545075252677,-23.40646212793255 L 3.0356135921128122,-24.30753914925464 L 3.0356135921128122,-25.30753914925464 " />
        <path style="fill:none;stroke:#50514F;stroke-width:0.1px;stroke-linecap:square" d="M 3.0356135921128122,-24.30753914925464 L 3.4692726767003568,-25.208616170576732 L 4.2507931491191755,-25.83249576728612 " />
        <path style="fill:none;stroke:#50514F;stroke-width:0.1px;stroke-linecap:square" d="M 3.4692726767003568,-25.208616170576732 L 3.9029317612879013,-26.109693191898824 " />
        <path style="fill:none;stroke:#50514F;stroke-width:0.1px;stroke-linecap:square" d="M 1.1021821192326177e-15,-18.0 L 1.1634144591899853e-15,-19.0 L -0.4336590845875431,-19.90107702132209 " />
        <path style="fill:none;stroke:#50514F;stroke-width:0.1px;stroke-linecap:square" d="M 1.1634144591899853e-15,-19.0 L 1.2246467991473529e-15,-20.0 L 0.4336590845875456,-20.90107702132209 " />
        <path style="fill:none;stroke:#50514F;stroke-width:0.1px;stroke-linecap:square" d="M 1.2246467991473529e-15,-20.0 L 1.2858791391047204e-15,-21.0 L -0.433659084587543,-21.90107702132209 L -1.2151795570063617,-22.524956618031478 " />
        <path style="fill:none;stroke:#50514F;stroke-width:0.1px;stroke-linecap:square" d="M -0.433659084587543,-21.90107702132209 L -0.8673181691750873,-22.802154042644183 L -0.8673181691750873,-23.802154042644183 " />
        <path style="fill:none;stroke:#50514F;stroke-width:0.1px;stroke-linecap:square" d="M -0.8673181691750873,-22.802154042644183 L -1.3009772537626316,-23.703231063966275 " />
        <path style="fill:none;stroke:#50514F;stroke-width:0.1px;stroke-linecap:square" d="M 1.2858791391047204e-15,-21.0 L 1.347111479062088e-15,-22.0 L -0.43365908458754293,-22.90107702132209 " />
        <path style="fill:none;stroke:#50514F;stroke-width:0.1px;stroke-linecap:square" d="M 1.347111479062088e-15,-22.0 L 1.4083438190194556e-15,-23.0 L 0.43365908458754576,-23.90107702132209 " />
        <path style="fill:none;stroke:#50514F;stroke-width:0.1px;stroke-linecap:square" d="M 1.4083438190194556e-15,-23.0 L 1.4695761589768232e-15,-24.0 L 0.4336590845875458,-24.90107702132209 L 0.4336590845875459,-25.90107702132209 " />
        <path style="fill:none;stroke:#50514F;stroke-width:0.1px;stroke-linecap:square" d="M 0.4336590845875458,-24.90107702132209 L 0.8673181691750902,-25.802154042644183 L 1.648838641593909,-26.42603363935357 " />
        <path style="fill:none;stroke:#50514F;stroke-width:0.1px;stroke-linecap:square" d="M 0.8673181691750902,-25.802154042644183 L 1.3009772537626345,-26.703231063966275 " />
        <path style="fill:none;stroke:#50514F;stroke-width:0.1px;stroke-linecap:square" d="M 1.4695761589768232e-15,-24.0 L 1.5308084989341907e-15,-25.0 L -0.4336590845875427,-25.90107702132209 " />
        <path style="fill:none;stroke:#50514F;stroke-width:0.1px;stroke-linecap:square" d="M 1.5308084989341907e-15,-25.0 L 1.5920408388915583e-15,-26.0 L 0.433659084587546,-26.90107702132209 " />
        <path style="fill:none;stroke:#50514F;stroke-width:0.1px;stroke-linecap:square" d="M 1.5920408388915583e-15,-26.0 L 1.6532731788489259e-15,-27.0 L -0.4336590845875426,-27.90107702132209 L -1.2151795570063613,-28.524956618031478 " />
        <path style="fill:none;stroke:#50514F;stroke-width:0.1px;stroke-linecap:square" d="M -0.4336590845875426,-27.90107702132209 L -0.8673181691750869,-28.802154042644183 L -0.8673181691750869,-29.802154042644183 " />
        <path style="fill:none;stroke:#50514F;stroke-width:0.1px;stroke-linecap:square" d="M -0.8673181691750869,-28.802154042644183 L -1.3009772537626312,-29.703231063966275 L -2.08249772618145,-30.32711066067566 L -3.057258920372672,-30.550360776686613 " />
        <path style="fill:none;stroke:#50514F;stroke-width:0.1px;stroke-linecap:square" d="M -2.08249772618145,-30.32711066067566 L -2.864018198600269,-30.950990257385047 L -3.297677283187813,-31.85206727870714 " />
        <path style="fill:none;stroke:#50514F;stroke-width:0.1px;stroke-linecap:square" d="M -2.864018198600269,-30.950990257385047 L -3.6455386710190876,-31.574869854094434 " />
        <path style="fill:none;stroke:#50514F;stroke-width:0.1px;stroke-linecap:square" d="M -1.3009772537626312,-29.703231063966275 L -1.7346363383501755,-30.604308085288366 L -2.5161568107689942,-31.228187681997753 " />
        <path style="fill:none;stroke:#50514F;stroke-width:0.1px;stroke-linecap:square" d="M -1.7346363383501755,-30.604308085288366 L -2.1682954229377196,-31.505385106610458 L -2.1682954229377196,-32.505385106610454 " />
        <path style="fill:none;stroke:#50514F;stroke-width:0.1px;stroke-linecap:square" d="M -2.1682954229377196,-31.505385106610458 L -2.6019545075252637,-32.40646212793255 L -2.6019545075252637,-33.40646212793255 L -3.035613592112808,-34.30753914925464 " />
        <path style="fill:none;stroke:#50514F;stroke-width:0.1px;stroke-linecap:square" d="M -2.6019545075252637,-33.40646212793255 L -2.6019545075252637,-34.40646212793255 L -2.168295422937719,-35.30753914925464 " />
        <path style="fill:none;stroke:#50514F;stroke-width:0.1px;stroke-linecap:square" d="M -2.6019545075252637,-34.40646212793255 L -2.6019545075252637,-35.40646212793255 " />
        <path style="fill:none;stroke:#50514F;stroke-width:0.1px;stroke-linecap:square" d="M -2.6019545075252637,-32.40646212793255 L -3.035613592112808,-33.30753914925464 L -3.8171340645316265,-33.931418745964024 " />
        <path style="fill:none;stroke:#50514F;stroke-width:0.1px;stroke-linecap:square" d="M -3.035613592112808,-33.30753914925464 L -3.469272676700352,-34.20861617057673 L -3.469272676700352,-35.20861617057673 " />
        <path style="fill:none;stroke:#50514F;stroke-width:0.1px;stroke-linecap:square" d="M -3.469272676700352,-34.20861617057673 L -3.902931761287896,-35.10969319189883 L -4.684452233706715,-35.733572788608214 L -5.659213427897936,-35.956822904619166 " />
        <path style="fill:none;stroke:#50514F;stroke-width:0.1px;stroke-linecap:square" d="M -4.684452233706715,-35.733572788608214 L -5.465972706125534,-36.3574523853176 L -5.899631790713078,-37.258529406639695 " />
        <path style="fill:none;stroke:#50514F;stroke-width:0.1px;stroke-linecap:square" d="M -5.465972706125534,-36.3574523853176 L -6.247493178544353,-36.98133198202699 L -7.222254372735574,-37.20458209803794 L -8.197403727041138,-36.98303360041847 " />
        <path style="fill:none;stroke:#50514F;stroke-width:0.1px;stroke-linecap:square" d="M -7.222254372735574,-37.20458209803794 L -8.197015566926796,-37.42783221404889 L -8.978536039345615,-38.05171181075828 " />
        <path style="fill:none;stroke:#50514F;stroke-width:0.1px;stroke-linecap:square" d="M -8.197015566926796,-37.42783221404889 L -9.171776761118018,-37.65108233005984 " />
        <path style="fill:none;stroke:#50514F;stroke-width:0.1px;stroke-linecap:square" d="M -6.247493178544353,-36.98133198202699 L -7.029013650963172,-37.60521157873637 L -8.003774845154394,-37.828461694747325 " />
        <path style="fill:none;stroke:#50514F;stroke-width:0.1px;stroke-linecap:square" d="M -7.029013650963172,-37.60521157873637 L -7.810534123381991,-38.22909117544576 L -8.244193207969536,-39.130168196767855 " />
        <path style="fill:none;stroke:#50514F;stroke-width:0.1px;stroke-linecap:square" d="M -7.810534123381991,-38.22909117544576 L -8.59205459580081,-38.852970772155146 L -9.025713680388355,-39.75404779347724 L -9.807234152807174,-40.37792739018663 " />
        <path style="fill:none;stroke:#50514F;stroke-width:0.1px;stroke-linecap:square" d="M -9.025713680388355,-39.75404779347724 L -9.4593727649759,-40.655124814799336 L -9.4593727649759,-41.655124814799336 " />
        <path style="fill:none;stroke:#50514F;stroke-width:0.1px;stroke-linecap:square" d="M -9.4593727649759,-40.655124814799336 L -9.893031849563444,-41.55620183612143 " />
        <path style="fill:none;stroke:#50514F;stroke-width:0.1px;stroke-linecap:square" d="M -8.59205459580081,-38.852970772155146 L -9.37357506821963,-39.47685036886453 L -10.348336262410852,-39.700100484875485 " />
        <path style="fill:none;stroke:#50514F;stroke-width:0.1px;stroke-linecap:square" d="M -9.37357506821963,-39.47685036886453 L -10.155095540638449,-40.10072996557392 L -10.588754625225993,-41.001806986896014 " />
        <path style="fill:none;stroke:#50514F;stroke-width:0.1px;stroke-linecap:square" d="M -10.155095540638449,-40.10072996557392 L -10.936616013057268,-40.724609562283305 " />
        <path style="fill:none;stroke:#50514F;stroke-width:0.1px;stroke-linecap:square" d="M -3.902931761287896,-35.10969319189883 L -4.33659084587544,-36.01077021322092 L -5.118111318294259,-36.63464980993031 " />
        <path style="fill:none;stroke:#50514F;stroke-width:0.1px;stroke-linecap:square" d="M -4.33659084587544,-36.01077021322092 L -4.770249930462985,-36.91184723454302 L -4.770249930462985,-37.91184723454302 " />
        <path style="fill:none;stroke:#50514F;stroke-width:0.1px;stroke-linecap:square" d="M -4.770249930462985,-36.91184723454302 L -5.203909015050529,-37.81292425586511 L -5.985429487469348,-38.4368038525745 L -6.96019068166057,-38.66005396858545 " />
        <path style="fill:none;stroke:#50514F;stroke-width:0.1px;stroke-linecap:square" d="M -5.985429487469348,-38.4368038525745 L -6.7669499598881675,-39.060683449283886 L -7.200609044475712,-39.96176047060598 " />
        <path style="fill:none;stroke:#50514F;stroke-width:0.1px;stroke-linecap:square" d="M -6.7669499598881675,-39.060683449283886 L -7.548470432306987,-39.68456304599327 " />
        <path style="fill:none;stroke:#50514F;stroke-width:0.1px;stroke-linecap:square" d="M -5.203909015050529,-37.81292425586511 L -5.637568099638074,-38.71400127718721 L -6.419088572056893,-39.337880873896594 " />
        <path style="fill:none;stroke:#50514F;stroke-width:0.1px;stroke-linecap:square" d="M -5.637568099638074,-38.71400127718721 L -6.071227184225618,-39.6150782985093 L -6.071227184225618,-40.6150782985093 " />
        <path style="fill:none;stroke:#50514F;stroke-width:0.1px;stroke-linecap:square" d="M -6.071227184225618,-39.6150782985093 L -6.504886268813163,-40.5161553198314 L -6.504886268813163,-41.5161553198314 L -6.938545353400707,-42.417232341153486 " />
        <path style="fill:none;stroke:#50514F;stroke-width:0.1px;stroke-linecap:square" d="M -6.504886268813163,-41.5161553198314 L -6.504886268813163,-42.5161553198314 L -6.071227184225618,-43.417232341153486 " />
        <path style="fill:none;stroke:#50514F;stroke-width:0.1px;stroke-linecap:square" d="M -6.504886268813163,-42.5161553198314 L -6.504886268813163,-43.5161553198314 " />
        <path style="fill:none;stroke:#50514F;stroke-width:0.1px;stroke-linecap:square" d="M -6.504886268813163,-40.5161553198314 L -6.938545353400707,-41.41723234115349 L -7.7200658258195265,-42.04111193786288 " />
        <path style="fill:none;stroke:#50514F;stroke-width:0.1px;stroke-linecap:square" d="M -6.938545353400707,-41.41723234115349 L -7.372204437988252,-42.31830936247559 L -7.372204437988252,-43.31830936247559 " />
        <path style="fill:none;stroke:#50514F;stroke-width:0.1px;stroke-linecap:square" d="M -7.372204437988252,-42.31830936247559 L -7.805863522575796,-43.21938638379768 L -7.805863522575796,-44.21938638379768 L -8.239522607163341,-45.12046340511977 " />
        <path style="fill:none;stroke:#50514F;stroke-width:0.1px;stroke-linecap:square" d="M -7.805863522575796,-44.21938638379768 L -7.805863522575796,-45.21938638379768 L -7.372204437988252,-46.12046340511977 " />
        <path style="fill:none;stroke:#50514F;stroke-width:0.1px;stroke-linecap:square" d="M -7.805863522575796,-45.21938638379768 L -7.805863522575796,-46.21938638379768 L -8.239522607163341,-47.12046340511977 L -9.02104307958216,-47.74434300182916 " />
        <path style="fill:none;stroke:#50514F;stroke-width:0.1px;stroke-linecap:square" d="M -8.239522607163341,-47.12046340511977 L -8.673181691750885,-48.02154042644186 L -8.673181691750885,-49.02154042644186 " />
        <path style="fill:none;stroke:#50514F;stroke-width:0.1px;stroke-linecap:square" d="M -8.673181691750885,-48.02154042644186 L -9.10684077633843,-48.92261744776395 " />
        <path style="fill:none;stroke:#50514F;stroke-width:0.1px;stroke-linecap:square" d="M -7.805863522575796,-46.21938638379768 L -7.805863522575796,-47.21938638379768 L -8.239522607163341,-48.12046340511977 " />
        <path style="fill:none;stroke:#50514F;stroke-width:0.1px;stroke-linecap:square" d="M -7.805863522575796,-47.21938638379768 L -7.805863522575796,-48.21938638379768 L -7.372204437988252,-49.12046340511977 " />
        <path style="fill:none;stroke:#50514F;stroke-width:0.1px;stroke-linecap:square" d="M -7.805863522575796,-48.21938638379768 L -7.805863522575796,-49.21938638379768 L -7.372204437988252,-50.12046340511977 L -7.372204437988252,-51.12046340511977 " />
        <path style="fill:none;stroke:#50514F;stroke-width:0.1px;stroke-linecap:square" d="M -7.372204437988252,-50.12046340511977 L -6.938545353400707,-51.02154042644186 L -6.157024880981888,-51.645420023151246 " />
        <path style="fill:none;stroke:#50514F;stroke-width:0.1px;stroke-linecap:square" d="M -6.938545353400707,-51.02154042644186 L -6.504886268813163,-51.92261744776395 " />
        <path style="fill:none;stroke:#50514F;stroke-width:0.1px;stroke-linecap:square" d="M -7.805863522575796,-49.21938638379768 L -7.805863522575796,-50.21938638379768 L -8.239522607163341,-51.12046340511977 " />
        <path style="fill:none;stroke:#50514F;stroke-width:0.1px;stroke-linecap:square" d="M -7.805863522575796,-50.21938638379768 L -7.805863522575796,-51.21938638379768 L -7.372204437988252,-52.12046340511977 " />
        <path style="fill:none;stroke:#50514F;stroke-width:0.1px;stroke-linecap:square" d="M -7.805863522575796,-51.21938638379768 L -7.805863522575796,-52.21938638379768 " />
        <path style="fill:none;stroke:#50514F;stroke-width:0.1px;stroke-linecap:square" d="M -7.805863522575796,-43.21938638379768 L -8.239522607163341,-44.12046340511978 L -9.02104307958216,-44.744343001829165 " />
        <path style="fill:none;stroke:#50514F;stroke-width:0.1px;stroke-linecap:square" d="M -8.239522607163341,-44.12046340511978 L -8.673181691750885,-45.021540426441874 L -8.673181691750885,-46.021540426441874 " />
        <path style="fill:none;stroke:#50514F;stroke-width:0.1px;stroke-linecap:square" d="M -8.673181691750885,-45.021540426441874 L -9.10684077633843,-45.92261744776397 L -9.88836124875725,-46.546497044473355 L -10.863122442948471,-46.76974716048431 " />
        <path style="fill:none;stroke:#50514F;stroke-width:0.1px;stroke-linecap:square" d="M -9.88836124875725,-46.546497044473355 L -10.669881721176068,-47.17037664118274 L -11.103540805763613,-48.07145366250484 " />
        <path style="fill:none;stroke:#50514F;stroke-width:0.1px;stroke-linecap:square" d="M -10.669881721176068,-47.17037664118274 L -11.451402193594888,-47.79425623789213 " />
        <path style="fill:none;stroke:#50514F;stroke-width:0.1px;stroke-linecap:square" d="M -9.10684077633843,-45.92261744776397 L -9.540499860925975,-46.823694469086064 L -10.322020333344794,-47.44757406579545 " />
        <path style="fill:none;stroke:#50514F;stroke-width:0.1px;stroke-linecap:square" d="M -9.540499860925975,-46.823694469086064 L -9.97415894551352,-47.72477149040816 L -9.97415894551352,-48.72477149040816 " />
        <path style="fill:none;stroke:#50514F;stroke-width:0.1px;stroke-linecap:square" d="M -9.97415894551352,-47.72477149040816 L -10.407818030101064,-48.625848511730254 L -10.407818030101064,-49.625848511730254 L -10.841477114688608,-50.52692553305234 " />
        <path style="fill:none;stroke:#50514F;stroke-width:0.1px;stroke-linecap:square" d="M -10.407818030101064,-49.625848511730254 L -10.407818030101064,-50.625848511730254 L -9.97415894551352,-51.52692553305234 " />
        <path style="fill:none;stroke:#50514F;stroke-width:0.1px;stroke-linecap:square" d="M -10.407818030101064,-50.625848511730254 L -10.407818030101064,-51.625848511730254 " />
        <path style="fill:none;stroke:#50514F;stroke-width:0.1px;stroke-linecap:square" d="M -10.407818030101064,-48.625848511730254 L -10.841477114688608,-49.52692553305235 L -11.622997587107427,-50.150805129761736 " />
        <path style="fill:none;stroke:#50514F;stroke-width:0.1px;stroke-linecap:square" d="M -10.841477114688608,-49.52692553305235 L -11.275136199276153,-50.428002554374444 L -11.275136199276153,-51.428002554374444 " />
        <path style="fill:none;stroke:#50514F;stroke-width:0.1px;stroke-linecap:square" d="M -11.275136199276153,-50.428002554374444 L -11.708795283863697,-51.32907957569654 " />
        <path style="fill:none;stroke:#50514F;stroke-width:0.1px;stroke-linecap:square" d="M 1.6532731788489259e-15,-27.0 L 1.7145055188062935e-15,-28.0 L -0.43365908458754254,-28.90107702132209 " />
        <path style="fill:none;stroke:#50514F;stroke-width:0.1px;stroke-linecap:square" d="M 1.7145055188062935e-15,-28.0 L 1.775737858763661e-15,-29.0 L 0.43365908458754615,-29.90107702132209 " />
        <path style="fill:none;stroke:#50514F;stroke-width:0.1px;stroke-linecap:square" d="M 1.775737858763661e-15,-29.0 L 1.8369701987210288e-15,-30.0 L -0.43365908458754243,-30.90107702132209 L -1.215179557006361,-31.524956618031478 " />
        <path style="fill:none;stroke:#50514F;stroke-width:0.1px;stroke-linecap:square" d="M -0.43365908458754243,-30.90107702132209 L -0.8673181691750866,-31.802154042644183 L -0.8673181691750866,-32.80215404264418 " />
        <path style="fill:none;stroke:#50514F;stroke-width:0.1px;stroke-linecap:square" d="M -0.8673181691750866,-31.802154042644183 L -1.300977253762631,-32.70323106396627 " />
        <path style="fill:none;stroke:#50514F;stroke-width:0.1px;stroke-linecap:square" d="M 1.8369701987210288e-15,-30.0 L 1.8982025386783964e-15,-31.0 L -0.4336590845875424,-31.90107702132209 " />
        <path style="fill:none;stroke:#50514F;stroke-width:0.1px;stroke-linecap:square" d="M 1.8982025386783964e-15,-31.0 L 1.959434878635764e-15,-32.0 L 0.4336590845875463,-32.901077021322095 " />
        <path style="fill:none;stroke:#50514F;stroke-width:0.1px;stroke-linecap:square" d="M 1.959434878635764e-15,-32.0 L 2.0206672185931315e-15,-33.0 L 0.4336590845875464,-33.901077021322095 L 0.43365908458754643,-34.901077021322095 " />
        <path style="fill:none;stroke:#50514F;stroke-width:0.1px;stroke-linecap:square" d="M 0.4336590845875464,-33.901077021322095 L 0.8673181691750907,-34.80215404264419 L 1.6488386415939096,-35.42603363935358 " />
        <path style="fill:none;stroke:#50514F;stroke-width:0.1px;stroke-linecap:square" d="M 0.8673181691750907,-34.80215404264419 L 1.3009772537626352,-35.703231063966285 " />
        <path style="fill:none;stroke:#50514F;stroke-width:0.1px;stroke-linecap:square" d="M 2.0206672185931315e-15,-33.0 L 2.081899558550499e-15,-34.0 L -0.43365908458754215,-34.901077021322095 " />
        <path style="fill:none;stroke:#50514F;stroke-width:0.1px;stroke-linecap:square" d="M 2.081899558550499e-15,-34.0 L 2.1431318985078667e-15,-35.0 L 0.43365908458754654,-35.901077021322095 " />
        <path style="fill:none;stroke:#50514F;stroke-width:0.1px;stroke-linecap:square" d="M 2.1431318985078667e-15,-35.0 L 2.2043642384652342e-15,-36.0 L -0.43365908458754204,-36.901077021322095 L -1.2151795570063608,-37.52495661803148 " />
        <path style="fill:none;stroke:#50514F;stroke-width:0.1px;stroke-linecap:square" d="M -0.43365908458754204,-36.901077021322095 L -0.8673181691750863,-37.80215404264419 L -0.8673181691750862,-38.80215404264419 " />
        <path style="fill:none;stroke:#50514F;stroke-width:0.1px;stroke-linecap:square" d="M -0.8673181691750863,-37.80215404264419 L -1.3009772537626305,-38.703231063966285 L -2.0824977261814492,-39.32711066067567 L -3.057258920372671,-39.550360776686624 " />
        <path style="fill:none;stroke:#50514F;stroke-width:0.1px;stroke-linecap:square" d="M -2.0824977261814492,-39.32711066067567 L -2.864018198600268,-39.95099025738506 L -3.297677283187812,-40.85206727870715 " />
        <path style="fill:none;stroke:#50514F;stroke-width:0.1px;stroke-linecap:square" d="M -2.864018198600268,-39.95099025738506 L -3.6455386710190867,-40.574869854094445 " />
        <path style="fill:none;stroke:#50514F;stroke-width:0.1px;stroke-linecap:square" d="M -1.3009772537626305,-38.703231063966285 L -1.7346363383501748,-39.60430808528838 L -2.516156810768994,-40.22818768199777 " />
        <path style="fill:none;stroke:#50514F;stroke-width:0.1px;stroke-linecap:square" d="M -1.7346363383501748,-39.60430808528838 L -2.168295422937719,-40.505385106610476 L -2.168295422937719,-41.505385106610476 " />
        <path style="fill:none;stroke:#50514F;stroke-width:0.1px;stroke-linecap:square" d="M -2.168295422937719,-40.505385106610476 L -2.6019545075252632,-41.40646212793257 L -2.6019545075252632,-42.40646212793257 L -3.0356135921128073,-43.30753914925466 " />
        <path style="fill:none;stroke:#50514F;stroke-width:0.1px;stroke-linecap:square" d="M -2.6019545075252632,-42.40646212793257 L -2.6019545075252632,-43.40646212793257 L -2.168295422937719,-44.30753914925466 " />
        <path style="fill:none;stroke:#50514F;stroke-width:0.1px;stroke-linecap:square" d="M -2.6019545075252632,-43.40646212793257 L -2.6019545075252632,-44.40646212793257 " />
        <path style="fill:none;stroke:#50514F;stroke-width:0.1px;stroke-linecap:square" d="M -2.6019545075252632,-41.40646212793257 L -3.0356135921128073,-42.307539149254666 L -3.817134064531626,-42.93141874596405 " />
        <path style="fill:none;stroke:#50514F;stroke-width:0.1px;stroke-linecap:square" d="M -3.0356135921128073,-42.307539149254666 L -3.4692726767003514,-43.20861617057676 L -3.4692726767003514,-44.20861617057676 " />
        <path style="fill:none;stroke:#50514F;stroke-width:0.1px;stroke-linecap:square" d="M -3.4692726767003514,-43.20861617057676 L -3.9029317612878955,-44.109693191898856 " />
        <path style="fill:none;stroke:#50514F;stroke-width:0.1px;stroke-linecap:square" d="M 2.2043642384652342e-15,-36.0 L 2.265596578422602e-15,-37.0 L -0.433659084587542,-37.901077021322095 " />
        <path style="fill:none;stroke:#50514F;stroke-width:0.1px;stroke-linecap:square" d="M 2.265596578422602e-15,-37.0 L 2.3268289183799694e-15,-38.0 L 0.4336590845875467,-38.901077021322095 " />
        <path style="fill:none;stroke:#50514F;stroke-width:0.1px;stroke-linecap:square" d="M 2.3268289183799694e-15,-38.0 L 2.388061258337337e-15,-39.0 L -0.4336590845875419,-39.901077021322095 L -1.2151795570063606,-40.52495661803148 " />
        <path style="fill:none;stroke:#50514F;stroke-width:0.1px;stroke-linecap:square" d="M -0.4336590845875419,-39.901077021322095 L -0.8673181691750862,-40.80215404264419 L -0.8673181691750862,-41.80215404264419 " />
        <path style="fill:none;stroke:#50514F;stroke-width:0.1px;stroke-linecap:square" d="M -0.8673181691750862,-40.80215404264419 L -1.3009772537626305,-41.703231063966285 " />
        <path style="fill:none;stroke:#50514F;stroke-width:0.1px;stroke-linecap:square" d="M 2.388061258337337e-15,-39.0 L 2.4492935982947045e-15,-40.0 L -0.4336590845875418,-40.901077021322095 " />
        <path style="fill:none;stroke:#50514F;stroke-width:0.1px;stroke-linecap:square" d="M 2.4492935982947045e-15,-40.0 L 2.510525938252072e-15,-41.0 L 0.4336590845875469,-41.901077021322095 " />
        <path style="fill:none;stroke:#50514F;stroke-width:0.1px;stroke-linecap:square" d="M 2.510525938252072e-15,-41.0 L 2.5717582782094397e-15,-42.0 L 0.43365908458754693,-42.901077021322095 L 0.433659084587547,-43.901077021322095 " />
        <path style="fill:none;stroke:#50514F;stroke-width:0.1px;stroke-linecap:square" d="M 0.43365908458754693,-42.901077021322095 L 0.8673181691750913,-43.80215404264419 L 1.64883864159391,-44.42603363935358 " />
        <path style="fill:none;stroke:#50514F;stroke-width:0.1px;stroke-linecap:square" d="M 0.8673181691750913,-43.80215404264419 L 1.3009772537626356,-44.703231063966285 " />
        <path style="fill:none;stroke:#50514F;stroke-width:0.1px;stroke-linecap:square" d="M 2.5717582782094397e-15,-42.0 L 2.6329906181668073e-15,-43.0 L -0.43365908458754165,-43.901077021322095 " />
        <path style="fill:none;stroke:#50514F;stroke-width:0.1px;stroke-linecap:square" d="M 2.6329906181668073e-15,-43.0 L 2.694222958124175e-15,-44.0 L 0.4336590845875471,-44.901077021322095 " />
        <path style="fill:none;stroke:#50514F;stroke-width:0.1px;stroke-linecap:square" d="M 2.694222958124175e-15,-44.0 L 2.7554552980815424e-15,-45.0 L 0.43365908458754715,-45.901077021322095 L 0.4336590845875472,-46.901077021322095 " />
        <path style="fill:none;stroke:#50514F;stroke-width:0.1px;stroke-linecap:square" d="M 0.43365908458754715,-45.901077021322095 L 0.8673181691750915,-46.80215404264419 L 1.6488386415939102,-47.42603363935358 " />
        <path style="fill:none;stroke:#50514F;stroke-width:0.1px;stroke-linecap:square" d="M 0.8673181691750915,-46.80215404264419 L 1.3009772537626358,-47.703231063966285 L 1.3009772537626358,-48.703231063966285 L 0.8673181691750916,-49.60430808528837 " />
        <path style="fill:none;stroke:#50514F;stroke-width:0.1px;stroke-linecap:square" d="M 1.3009772537626358,-48.703231063966285 L 1.3009772537626358,-49.703231063966285 L 1.7346363383501802,-50.60430808528837 " />
        <path style="fill:none;stroke:#50514F;stroke-width:0.1px;stroke-linecap:square" d="M 1.3009772537626358,-49.703231063966285 L 1.3009772537626358,-50.703231063966285 " />
        <path style="fill:none;stroke:#50514F;stroke-width:0.1px;stroke-linecap:square" d="M 1.3009772537626358,-47.703231063966285 L 1.7346363383501802,-48.60430808528838 L 1.7346363383501802,-49.60430808528838 " />
        <path style="fill:none;stroke:#50514F;stroke-width:0.1px;stroke-linecap:square" d="M 1.7346363383501802,-48.60430808528838 L 2.1682954229377245,-49.505385106610476 L 2.949815895356543,-50.12926470331986 " />
        <path style="fill:none;stroke:#50514F;stroke-width:0.1px;stroke-linecap:square" d="M 2.1682954229377245,-49.505385106610476 L 2.601954507525269,-50.40646212793257 L 3.3834749799440877,-51.03034172464196 L 3.817134064531632,-51.93141874596405 " />
        <path style="fill:none;stroke:#50514F;stroke-width:0.1px;stroke-linecap:square" d="M 3.3834749799440877,-51.03034172464196 L 4.1649954523629065,-51.65422132135134 L 5.139756646554128,-51.877471437362296 " />
        <path style="fill:none;stroke:#50514F;stroke-width:0.1px;stroke-linecap:square" d="M 4.1649954523629065,-51.65422132135134 L 4.946515924781725,-52.27810091806073 " />
        <path style="fill:none;stroke:#50514F;stroke-width:0.1px;stroke-linecap:square" d="M 2.601954507525269,-50.40646212793257 L 3.0356135921128136,-51.307539149254666 L 3.0356135921128136,-52.307539149254666 " />
        <path style="fill:none;stroke:#50514F;stroke-width:0.1px;stroke-linecap:square" d="M 3.0356135921128136,-51.307539149254666 L 3.469272676700358,-52.20861617057676 L 4.250793149119177,-52.83249576728615 " />
        <path style="fill:none;stroke:#50514F;stroke-width:0.1px;stroke-linecap:square" d="M 3.469272676700358,-52.20861617057676 L 3.9029317612879026,-53.109693191898856 " />
        <path style="fill:none;stroke:#50514F;stroke-width:0.1px;stroke-linecap:square" d="M 2.7554552980815424e-15,-45.0 L 2.81668763803891e-15,-46.0 L -0.43365908458754143,-46.901077021322095 " />
        <path style="fill:none;stroke:#50514F;stroke-width:0.1px;stroke-linecap:square" d="M 2.81668763803891e-15,-46.0 L 2.8779199779962776e-15,-47.0 L 0.43365908458754726,-47.901077021322095 " />
        <path style="fill:none;stroke:#50514F;stroke-width:0.1px;stroke-linecap:square" d="M 2.8779199779962776e-15,-47.0 L 2.939152317953645e-15,-48.0 L -0.4336590845875413,-48.901077021322095 L -1.2151795570063602,-49.52495661803148 " />
        <path style="fill:none;stroke:#50514F;stroke-width:0.1px;stroke-linecap:square" d="M -0.4336590845875413,-48.901077021322095 L -0.8673181691750855,-49.80215404264419 L -0.8673181691750855,-50.80215404264419 " />
        <path style="fill:none;stroke:#50514F;stroke-width:0.1px;stroke-linecap:square" d="M -0.8673181691750855,-49.80215404264419 L -1.3009772537626298,-50.703231063966285 " />
        <path style="fill:none;stroke:#50514F;stroke-width:0.1px;stroke-linecap:square" d="M 2.939152317953645e-15,-48.0 L 3.0003846579110127e-15,-49.0 L -0.43365908458754127,-49.901077021322095 " />
        <path style="fill:none;stroke:#50514F;stroke-width:0.1px;stroke-linecap:square" d="M 3.0003846579110127e-15,-49.0 L 3.0616169978683803e-15,-50.0 L 0.4336590845875474,-50.901077021322095 " />
        <path style="fill:none;stroke:#50514F;stroke-width:0.1px;stroke-linecap:square" d="M 3.0616169978683803e-15,-50.0 L 3.122849337825748e-15,-51.0 L 0.4336590845875475,-51.901077021322095 L 0.43365908458754754,-52.901077021322095 " />
        <path style="fill:none;stroke:#50514F;stroke-width:0.1px;stroke-linecap:square" d="M 0.4336590845875475,-51.901077021322095 L 0.8673181691750919,-52.80215404264419 L 1.6488386415939105,-53.42603363935358 " />
        <path style="fill:none;stroke:#50514F;stroke-width:0.1px;stroke-linecap:square" d="M 0.8673181691750919,-52.80215404264419 L 1.3009772537626363,-53.703231063966285 " />
        <path style="fill:none;stroke:#50514F;stroke-width:0.1px;stroke-linecap:square" d="M 3.122849337825748e-15,-51.0 L 3.1840816777831154e-15,-52.0 L -0.4336590845875411,-52.901077021322095 " />
        <path style="fill:none;stroke:#50514F;stroke-width:0.1px;stroke-linecap:square" d="M 3.1840816777831154e-15,-52.0 L 3.245314017740483e-15,-53.0 L 0.4336590845875476,-53.901077021322095 " />
        <path style="fill:none;stroke:#50514F;stroke-width:0.1px;stroke-linecap:square" d="M 3.245314017740483e-15,-53.0 L 3.3065463576978506e-15,-54.0 L 0.4336590845875477,-54.901077021322095 L 0.43365908458754776,-55.901077021322095 " />
        <path style="fill:none;stroke:#50514F;stroke-width:0.1px;stroke-linecap:square" d="M 0.4336590845875477,-54.901077021322095 L 0.8673181691750921,-55.80215404264419 L 1.648838641593911,-56.42603363935358 " />
        <path style="fill:none;stroke:#50514F;stroke-width:0.1px;stroke-linecap:square" d="M 0.8673181691750921,-55.80215404264419 L 1.3009772537626365,-56.703231063966285 L 1.3009772537626365,-57.703231063966285 L 0.8673181691750923,-58.60430808528837 " />
        <path style="fill:none;stroke:#50514F;stroke-width:0.1px;stroke-linecap:square" d="M 1.3009772537626365,-57.703231063966285 L 1.3009772537626365,-58.703231063966285 L 1.7346363383501808,-59.60430808528837 " />
        <path style="fill:none;stroke:#50514F;stroke-width:0.1px;stroke-linecap:square" d="M 1.3009772537626365,-58.703231063966285 L 1.3009772537626365,-59.703231063966285 " />
        <path style="fill:none;stroke:#50514F;stroke-width:0.1px;stroke-linecap:square" d="M 1.3009772537626365,-56.703231063966285 L 1.7346363383501808,-57.60430808528838 L 1.7346363383501808,-58.60430808528838 " />
        <path style="fill:none;stroke:#50514F;stroke-width:0.1px;stroke-linecap:square" d="M 1.7346363383501808,-57.60430808528838 L 2.1682954229377254,-58.505385106610476 L 2.949815895356544,-59.12926470331986 " />
        <path style="fill:none;stroke:#50514F;stroke-width:0.1px;stroke-linecap:square" d="M 2.1682954229377254,-58.505385106610476 L 2.60195450752527,-59.40646212793257 L 3.3834749799440886,-60.03034172464196 L 3.8171340645316327,-60.93141874596405 " />
        <path style="fill:none;stroke:#50514F;stroke-width:0.1px;stroke-linecap:square" d="M 3.3834749799440886,-60.03034172464196 L 4.164995452362907,-60.65422132135134 L 5.139756646554129,-60.877471437362296 " />
        <path style="fill:none;stroke:#50514F;stroke-width:0.1px;stroke-linecap:square" d="M 4.164995452362907,-60.65422132135134 L 4.9465159247817265,-61.27810091806073 " />
        <path style="fill:none;stroke:#50514F;stroke-width:0.1px;stroke-linecap:square" d="M 2.60195450752527,-59.40646212793257 L 3.0356135921128145,-60.307539149254666 L 3.0356135921128145,-61.307539149254666 " />
        <path style="fill:none;stroke:#50514F;stroke-width:0.1px;stroke-linecap:square" d="M 3.0356135921128145,-60.307539149254666 L 3.469272676700359,-61.20861617057676 L 4.250793149119177,-61.83249576728615 " />
        <path style="fill:none;stroke:#50514F;stroke-width:0.1px;stroke-linecap:square" d="M 3.469272676700359,-61.20861617057676 L 3.9029317612879035,-62.109693191898856 L 3.9029317612879035,-63.109693191898856 L 3.4692726767003594,-64.01077021322095 " />
        <path style="fill:none;stroke:#50514F;stroke-width:0.1px;stroke-linecap:square" d="M 3.9029317612879035,-63.109693191898856 L 3.9029317612879035,-64.10969319189886 L 4.336590845875448,-65.01077021322095 " />
        <path style="fill:none;stroke:#50514F;stroke-width:0.1px;stroke-linecap:square" d="M 3.9029317612879035,-64.10969319189886 L 3.9029317612879035,-65.10969319189886 L 3.4692726767003594,-66.01077021322095 L 2.6877522042815407,-66.63464980993034 " />
        <path style="fill:none;stroke:#50514F;stroke-width:0.1px;stroke-linecap:square" d="M 3.4692726767003594,-66.01077021322095 L 3.0356135921128153,-66.91184723454305 L 3.0356135921128153,-67.91184723454305 " />
        <path style="fill:none;stroke:#50514F;stroke-width:0.1px;stroke-linecap:square" d="M 3.0356135921128153,-66.91184723454305 L 2.6019545075252712,-67.81292425586514 " />
        <path style="fill:none;stroke:#50514F;stroke-width:0.1px;stroke-linecap:square" d="M 3.9029317612879035,-65.10969319189886 L 3.9029317612879035,-66.10969319189886 L 3.4692726767003594,-67.01077021322095 " />
        <path style="fill:none;stroke:#50514F;stroke-width:0.1px;stroke-linecap:square" d="M 3.9029317612879035,-66.10969319189886 L 3.9029317612879035,-67.10969319189886 L 4.336590845875448,-68.01077021322095 " />
        <path style="fill:none;stroke:#50514F;stroke-width:0.1px;stroke-linecap:square" d="M 3.9029317612879035,-67.10969319189886 L 3.9029317612879035,-68.10969319189886 L 4.336590845875448,-69.01077021322095 L 4.336590845875448,-70.01077021322095 " />
        <path style="fill:none;stroke:#50514F;stroke-width:0.1px;stroke-linecap:square" d="M 4.336590845875448,-69.01077021322095 L 4.770249930462993,-69.91184723454305 L 5.551770402881811,-70.53572683125243 " />
        <path style="fill:none;stroke:#50514F;stroke-width:0.1px;stroke-linecap:square" d="M 4.770249930462993,-69.91184723454305 L 5.203909015050537,-70.81292425586514 " />
        <path style="fill:none;stroke:#50514F;stroke-width:0.1px;stroke-linecap:square" d="M 3.9029317612879035,-68.10969319189886 L 3.9029317612879035,-69.10969319189886 L 3.4692726767003594,-70.01077021322095 " />
        <path style="fill:none;stroke:#50514F;stroke-width:0.1px;stroke-linecap:square" d="M 3.9029317612879035,-69.10969319189886 L 3.9029317612879035,-70.10969319189886 L 4.336590845875448,-71.01077021322095 " />
        <path style="fill:none;stroke:#50514F;stroke-width:0.1px;stroke-linecap:square" d="M 3.9029317612879035,-70.10969319189886 L 3.9029317612879035,-71.10969319189886 " />
        <path style="fill:none;stroke:#50514F;stroke-width:0.1px;stroke-linecap:square" d="M 3.9029317612879035,-62.109693191898856 L 4.336590845875448,-63.01077021322095 L 4.336590845875448,-64.01077021322095 " />
        <path style="fill:none;stroke:#50514F;stroke-width:0.1px;stroke-linecap:square" d="M 4.336590845875448,-63.01077021322095 L 4.770249930462993,-63.911847234543046 L 5.551770402881811,-64.53572683125243 " />
        <path style="fill:none;stroke:#50514F;stroke-width:0.1px;stroke-linecap:square" d="M 4.770249930462993,-63.911847234543046 L 5.203909015050537,-64.81292425586514 L 5.203909015050537,-65.81292425586514 L 4.770249930462993,-66.71400127718724 " />
        <path style="fill:none;stroke:#50514F;stroke-width:0.1px;stroke-linecap:square" d="M 5.203909015050537,-65.81292425586514 L 5.203909015050537,-66.81292425586514 L 5.637568099638082,-67.71400127718724 " />
        <path style="fill:none;stroke:#50514F;stroke-width:0.1px;stroke-linecap:square" d="M 5.203909015050537,-66.81292425586514 L 5.203909015050537,-67.81292425586514 " />
        <path style="fill:none;stroke:#50514F;stroke-width:0.1px;stroke-linecap:square" d="M 5.203909015050537,-64.81292425586514 L 5.637568099638082,-65.71400127718724 L 5.637568099638082,-66.71400127718724 " />
        <path style="fill:none;stroke:#50514F;stroke-width:0.1px;stroke-linecap:square" d="M 5.637568099638082,-65.71400127718724 L 6.071227184225626,-66.61507829850933 L 6.8527476566444445,-67.23895789521872 " />
        <path style="fill:none;stroke:#50514F;stroke-width:0.1px;stroke-linecap:square" d="M 6.071227184225626,-66.61507829850933 L 6.504886268813171,-67.51615531983143 L 7.286406741231989,-68.14003491654081 L 7.720065825819534,-69.04111193786291 " />
        <path style="fill:none;stroke:#50514F;stroke-width:0.1px;stroke-linecap:square" d="M 7.286406741231989,-68.14003491654081 L 8.067927213650808,-68.7639145132502 L 9.04268840784203,-68.98716462926114 " />
        <path style="fill:none;stroke:#50514F;stroke-width:0.1px;stroke-linecap:square" d="M 8.067927213650808,-68.7639145132502 L 8.849447686069627,-69.38779410995959 " />
        <path style="fill:none;stroke:#50514F;stroke-width:0.1px;stroke-linecap:square" d="M 6.504886268813171,-67.51615531983143 L 6.938545353400715,-68.41723234115352 L 6.938545353400715,-69.41723234115352 " />
        <path style="fill:none;stroke:#50514F;stroke-width:0.1px;stroke-linecap:square" d="M 6.938545353400715,-68.41723234115352 L 7.37220443798826,-69.31830936247562 L 8.153724910407078,-69.942188959185 " />
        <path style="fill:none;stroke:#50514F;stroke-width:0.1px;stroke-linecap:square" d="M 7.37220443798826,-69.31830936247562 L 7.805863522575804,-70.21938638379771 L 8.587383994994623,-70.8432659805071 L 9.021043079582167,-71.7443430018292 " />
        <path style="fill:none;stroke:#50514F;stroke-width:0.1px;stroke-linecap:square" d="M 8.587383994994623,-70.8432659805071 L 9.368904467413442,-71.46714557721648 L 10.343665661604664,-71.69039569322743 " />
        <path style="fill:none;stroke:#50514F;stroke-width:0.1px;stroke-linecap:square" d="M 9.368904467413442,-71.46714557721648 L 10.150424939832261,-72.09102517392587 L 10.584084024419806,-72.99210219524797 L 10.584084024419806,-73.99210219524797 " />
        <path style="fill:none;stroke:#50514F;stroke-width:0.1px;stroke-linecap:square" d="M 10.584084024419806,-72.99210219524797 L 11.01774310900735,-73.89317921657006 L 11.79926358142617,-74.51705881327945 " />
        <path style="fill:none;stroke:#50514F;stroke-width:0.1px;stroke-linecap:square" d="M 11.01774310900735,-73.89317921657006 L 11.451402193594895,-74.79425623789216 " />
        <path style="fill:none;stroke:#50514F;stroke-width:0.1px;stroke-linecap:square" d="M 10.150424939832261,-72.09102517392587 L 10.93194541225108,-72.71490477063526 L 11.365604496838625,-73.61598179195735 " />
        <path style="fill:none;stroke:#50514F;stroke-width:0.1px;stroke-linecap:square" d="M 10.93194541225108,-72.71490477063526 L 11.7134658846699,-73.33878436734464 L 12.688227078861122,-73.56203448335559 " />
        <path style="fill:none;stroke:#50514F;stroke-width:0.1px;stroke-linecap:square" d="M 11.7134658846699,-73.33878436734464 L 12.494986357088719,-73.96266396405403 L 13.46974755127994,-74.18591408006498 L 14.25126802369876,-74.80979367677436 " />
        <path style="fill:none;stroke:#50514F;stroke-width:0.1px;stroke-linecap:square" d="M 13.46974755127994,-74.18591408006498 L 14.444508745471163,-74.40916419607592 L 15.419658099776726,-74.18761569845645 " />
        <path style="fill:none;stroke:#50514F;stroke-width:0.1px;stroke-linecap:square" d="M 14.444508745471163,-74.40916419607592 L 15.419269939662385,-74.63241431208687 " />
        <path style="fill:none;stroke:#50514F;stroke-width:0.1px;stroke-linecap:square" d="M 12.494986357088719,-73.96266396405403 L 13.276506829507538,-74.58654356076342 L 13.710165914095082,-75.48762058208551 " />
        <path style="fill:none;stroke:#50514F;stroke-width:0.1px;stroke-linecap:square" d="M 13.276506829507538,-74.58654356076342 L 14.058027301926357,-75.2104231574728 L 15.032788496117579,-75.43367327348375 " />
        <path style="fill:none;stroke:#50514F;stroke-width:0.1px;stroke-linecap:square" d="M 14.058027301926357,-75.2104231574728 L 14.839547774345176,-75.83430275418219 " />
        <path style="fill:none;stroke:#50514F;stroke-width:0.1px;stroke-linecap:square" d="M 7.805863522575804,-70.21938638379771 L 8.239522607163348,-71.1204634051198 L 8.239522607163348,-72.1204634051198 " />
        <path style="fill:none;stroke:#50514F;stroke-width:0.1px;stroke-linecap:square" d="M 8.239522607163348,-71.1204634051198 L 8.673181691750893,-72.0215404264419 L 9.454702164169712,-72.64542002315129 " />
        <path style="fill:none;stroke:#50514F;stroke-width:0.1px;stroke-linecap:square" d="M 8.673181691750893,-72.0215404264419 L 9.106840776338437,-72.922617447764 L 9.106840776338437,-73.922617447764 L 8.673181691750893,-74.82369446908609 " />
        <path style="fill:none;stroke:#50514F;stroke-width:0.1px;stroke-linecap:square" d="M 9.106840776338437,-73.922617447764 L 9.106840776338437,-74.922617447764 L 9.540499860925982,-75.82369446908609 " />
        <path style="fill:none;stroke:#50514F;stroke-width:0.1px;stroke-linecap:square" d="M 9.106840776338437,-74.922617447764 L 9.106840776338437,-75.922617447764 " />
        <path style="fill:none;stroke:#50514F;stroke-width:0.1px;stroke-linecap:square" d="M 9.106840776338437,-72.922617447764 L 9.540499860925982,-73.82369446908609 L 9.540499860925982,-74.82369446908609 " />
        <path style="fill:none;stroke:#50514F;stroke-width:0.1px;stroke-linecap:square" d="M 9.540499860925982,-73.82369446908609 L 9.974158945513526,-74.72477149040819 L 10.755679417932345,-75.34865108711757 " />
        <path style="fill:none;stroke:#50514F;stroke-width:0.1px;stroke-linecap:square" d="M 9.974158945513526,-74.72477149040819 L 10.40781803010107,-75.62584851173028 L 11.18933850251989,-76.24972810843967 L 11.622997587107434,-77.15080512976176 " />
        <path style="fill:none;stroke:#50514F;stroke-width:0.1px;stroke-linecap:square" d="M 11.18933850251989,-76.24972810843967 L 11.970858974938709,-76.87360770514906 L 12.945620169129931,-77.09685782116 " />
        <path style="fill:none;stroke:#50514F;stroke-width:0.1px;stroke-linecap:square" d="M 11.970858974938709,-76.87360770514906 L 12.752379447357528,-77.49748730185844 " />
        <path style="fill:none;stroke:#50514F;stroke-width:0.1px;stroke-linecap:square" d="M 10.40781803010107,-75.62584851173028 L 10.841477114688615,-76.52692553305238 L 10.841477114688615,-77.52692553305238 " />
        <path style="fill:none;stroke:#50514F;stroke-width:0.1px;stroke-linecap:square" d="M 10.841477114688615,-76.52692553305238 L 11.27513619927616,-77.42800255437447 L 12.056656671694979,-78.05188215108386 " />
        <path style="fill:none;stroke:#50514F;stroke-width:0.1px;stroke-linecap:square" d="M 11.27513619927616,-77.42800255437447 L 11.708795283863704,-78.32907957569657 " />
        <path style="fill:none;stroke:#50514F;stroke-width:0.1px;stroke-linecap:square" d="M 3.3065463576978506e-15,-54.0 L 3.367778697655218e-15,-55.0 L -0.4336590845875409,-55.901077021322095 " />
        <path style="fill:none;stroke:#50514F;stroke-width:0.1px;stroke-linecap:square" d="M 3.367778697655218e-15,-55.0 L 3.4290110376125857e-15,-56.0 L 0.4336590845875478,-56.901077021322095 " />
        <path style="fill:none;stroke:#50514F;stroke-width:0.1px;stroke-linecap:square" d="M 3.4290110376125857e-15,-56.0 L 3.4902433775699533e-15,-57.0 L -0.43365908458754077,-57.901077021322095 L -1.2151795570063595,-58.52495661803148 " />
        <path style="fill:none;stroke:#50514F;stroke-width:0.1px;stroke-linecap:square" d="M -0.43365908458754077,-57.901077021322095 L -0.8673181691750851,-58.80215404264419 L -0.8673181691750851,-59.80215404264419 " />
        <path style="fill:none;stroke:#50514F;stroke-width:0.1px;stroke-linecap:square" d="M -0.8673181691750851,-58.80215404264419 L -1.3009772537626294,-59.703231063966285 " />
        <path style="fill:none;stroke:#50514F;stroke-width:0.1px;stroke-linecap:square" d="M 3.4902433775699533e-15,-57.0 L 3.551475717527321e-15,-58.0 L -0.4336590845875407,-58.901077021322095 " />
        <path style="fill:none;stroke:#50514F;stroke-width:0.1px;stroke-linecap:square" d="M 3.551475717527321e-15,-58.0 L 3.6127080574846884e-15,-59.0 L 0.433659084587548,-59.901077021322095 " />
        <path style="fill:none;stroke:#50514F;stroke-width:0.1px;stroke-linecap:square" d="M 3.6127080574846884e-15,-59.0 L 3.673940397442056e-15,-60.0 L 0.43365908458754804,-60.901077021322095 L 0.4336590845875481,-61.901077021322095 " />
        <path style="fill:none;stroke:#50514F;stroke-width:0.1px;stroke-linecap:square" d="M 0.43365908458754804,-60.901077021322095 L 0.8673181691750924,-61.80215404264419 L 1.6488386415939111,-62.42603363935358 " />
        <path style="fill:none;stroke:#50514F;stroke-width:0.1px;stroke-linecap:square" d="M 0.8673181691750924,-61.80215404264419 L 1.3009772537626367,-62.703231063966285 " />
        <path style="fill:none;stroke:#50514F;stroke-width:0.1px;stroke-linecap:square" d="M 3.673940397442056e-15,-60.0 L 3.7351727373994236e-15,-61.0 L -0.43365908458754054,-61.901077021322095 " />
        <path style="fill:none;stroke:#50514F;stroke-width:0.1px;stroke-linecap:square" d="M 3.7351727373994236e-15,-61.0 L 3.796405077356791e-15,-62.0 L 0.43365908458754815,-62.901077021322095 " />
        <path style="fill:none;stroke:#50514F;stroke-width:0.1px;stroke-linecap:square" d="M 3.796405077356791e-15,-62.0 L 3.857637417314159e-15,-63.0 L -0.43365908458754043,-63.901077021322095 L -1.2151795570063593,-64.52495661803148 " />
        <path style="fill:none;stroke:#50514F;stroke-width:0.1px;stroke-linecap:square" d="M -0.43365908458754043,-63.901077021322095 L -0.8673181691750846,-64.80215404264419 L -0.8673181691750846,-65.80215404264419 " />
        <path style="fill:none;stroke:#50514F;stroke-width:0.1px;stroke-linecap:square" d="M -0.8673181691750846,-64.80215404264419 L -1.300977253762629,-65.70323106396629 L -2.0824977261814475,-66.32711066067567 L -3.057258920372669,-66.55036077668662 " />
        <path style="fill:none;stroke:#50514F;stroke-width:0.1px;stroke-linecap:square" d="M -2.0824977261814475,-66.32711066067567 L -2.864018198600266,-66.95099025738506 L -3.2976772831878103,-67.85206727870715 " />
        <path style="fill:none;stroke:#50514F;stroke-width:0.1px;stroke-linecap:square" d="M -2.864018198600266,-66.95099025738506 L -3.645538671019085,-67.57486985409444 " />
        <path style="fill:none;stroke:#50514F;stroke-width:0.1px;stroke-linecap:square" d="M -1.300977253762629,-65.70323106396629 L -1.7346363383501733,-66.60430808528838 L -2.516156810768992,-67.22818768199777 " />
        <path style="fill:none;stroke:#50514F;stroke-width:0.1px;stroke-linecap:square" d="M -1.7346363383501733,-66.60430808528838 L -2.1682954229377174,-67.50538510661048 L -2.1682954229377174,-68.50538510661048 " />
        <path style="fill:none;stroke:#50514F;stroke-width:0.1px;stroke-linecap:square" d="M -2.1682954229377174,-67.50538510661048 L -2.6019545075252615,-68.40646212793257 L -2.6019545075252615,-69.40646212793257 L -3.0356135921128056,-70.30753914925467 " />
        <path style="fill:none;stroke:#50514F;stroke-width:0.1px;stroke-linecap:square" d="M -2.6019545075252615,-69.40646212793257 L -2.6019545075252615,-70.40646212793257 L -2.1682954229377174,-71.30753914925467 " />
        <path style="fill:none;stroke:#50514F;stroke-width:0.1px;stroke-linecap:square" d="M -2.6019545075252615,-70.40646212793257 L -2.6019545075252615,-71.40646212793257 " />
        <path style="fill:none;stroke:#50514F;stroke-width:0.1px;stroke-linecap:square" d="M -2.6019545075252615,-68.40646212793257 L -3.0356135921128056,-69.30753914925467 L -3.8171340645316243,-69.93141874596405 " />
        <path style="fill:none;stroke:#50514F;stroke-width:0.1px;stroke-linecap:square" d="M -3.0356135921128056,-69.30753914925467 L -3.4692726767003497,-70.20861617057676 L -3.4692726767003497,-71.20861617057676 " />
        <path style="fill:none;stroke:#50514F;stroke-width:0.1px;stroke-linecap:square" d="M -3.4692726767003497,-70.20861617057676 L -3.9029317612878938,-71.10969319189886 " />
        <path style="fill:none;stroke:#50514F;stroke-width:0.1px;stroke-linecap:square" d="M 3.857637417314159e-15,-63.0 L 3.918869757271526e-15,-64.0 L -0.4336590845875403,-64.9010770213221 " />
        <path style="fill:none;stroke:#50514F;stroke-width:0.1px;stroke-linecap:square" d="M 3.918869757271526e-15,-64.0 L 3.980102097228894e-15,-65.0 L 0.43365908458754837,-65.9010770213221 " />
        <path style="fill:none;stroke:#50514F;stroke-width:0.1px;stroke-linecap:square" d="M 3.980102097228894e-15,-65.0 L 4.0413344371862615e-15,-66.0 L -0.4336590845875402,-66.9010770213221 L -1.2151795570063588,-67.52495661803148 " />
        <path style="fill:none;stroke:#50514F;stroke-width:0.1px;stroke-linecap:square" d="M -0.4336590845875402,-66.9010770213221 L -0.8673181691750844,-67.80215404264419 L -0.8673181691750844,-68.80215404264419 " />
        <path style="fill:none;stroke:#50514F;stroke-width:0.1px;stroke-linecap:square" d="M -0.8673181691750844,-67.80215404264419 L -1.3009772537626287,-68.70323106396629 " />
        <path style="fill:none;stroke:#50514F;stroke-width:0.1px;stroke-linecap:square" d="M 4.0413344371862615e-15,-66.0 L 4.102566777143629e-15,-67.0 L -0.43365908458754016,-67.9010770213221 " />
        <path style="fill:none;stroke:#50514F;stroke-width:0.1px;stroke-linecap:square" d="M 4.102566777143629e-15,-67.0 L 4.163799117100997e-15,-68.0 L 0.43365908458754854,-68.9010770213221 " />
        <path style="fill:none;stroke:#50514F;stroke-width:0.1px;stroke-linecap:square" d="M 4.163799117100997e-15,-68.0 L 4.225031457058364e-15,-69.0 L 0.4336590845875486,-69.9010770213221 L 0.43365908458754865,-70.9010770213221 " />
        <path style="fill:none;stroke:#50514F;stroke-width:0.1px;stroke-linecap:square" d="M 0.4336590845875486,-69.9010770213221 L 0.867318169175093,-70.80215404264419 L 1.6488386415939118,-71.42603363935358 " />
        <path style="fill:none;stroke:#50514F;stroke-width:0.1px;stroke-linecap:square" d="M 0.867318169175093,-70.80215404264419 L 1.3009772537626374,-71.70323106396629 " />
        <path style="fill:none;stroke:#50514F;stroke-width:0.1px;stroke-linecap:square" d="M 4.225031457058364e-15,-69.0 L 4.286263797015732e-15,-70.0 L -0.43365908458754,-70.9010770213221 " />
        <path style="fill:none;stroke:#50514F;stroke-width:0.1px;stroke-linecap:square" d="M 4.286263797015732e-15,-70.0 L 4.347496136973099e-15,-71.0 L 0.4336590845875487,-71.9010770213221 " />
        <path style="fill:none;stroke:#50514F;stroke-width:0.1px;stroke-linecap:square" d="M 4.347496136973099e-15,-71.0 L 4.408728476930467e-15,-72.0 L 0.43365908458754876,-72.9010770213221 L 0.4336590845875488,-73.9010770213221 " />
        <path style="fill:none;stroke:#50514F;stroke-width:0.1px;stroke-linecap:square" d="M 0.43365908458754876,-72.9010770213221 L 0.8673181691750931,-73.80215404264419 L 1.6488386415939118,-74.42603363935358 " />
        <path style="fill:none;stroke:#50514F;stroke-width:0.1px;stroke-linecap:square" d="M 0.8673181691750931,-73.80215404264419 L 1.3009772537626374,-74.70323106396629 L 1.3009772537626374,-75.70323106396629 L 0.8673181691750932,-76.60430808528838 " />
        <path style="fill:none;stroke:#50514F;stroke-width:0.1px;stroke-linecap:square" d="M 1.3009772537626374,-75.70323106396629 L 1.3009772537626374,-76.70323106396629 L 1.7346363383501817,-77.60430808528838 " />
        <path style="fill:none;stroke:#50514F;stroke-width:0.1px;stroke-linecap:square" d="M 1.3009772537626374,-76.70323106396629 L 1.3009772537626374,-77.70323106396629 " />
        <path style="fill:none;stroke:#50514F;stroke-width:0.1px;stroke-linecap:square" d="M 1.3009772537626374,-74.70323106396629 L 1.7346363383501817,-75.60430808528838 L 1.7346363383501817,-76.60430808528838 " />
        <path style="fill:none;stroke:#50514F;stroke-width:0.1px;stroke-linecap:square" d="M 1.7346363383501817,-75.60430808528838 L 2.1682954229377263,-76.50538510661048 L 2.949815895356545,-77.12926470331986 " />
        <path style="fill:none;stroke:#50514F;stroke-width:0.1px;stroke-linecap:square" d="M 2.1682954229377263,-76.50538510661048 L 2.601954507525271,-77.40646212793257 L 3.3834749799440895,-78.03034172464196 L 3.8171340645316336,-78.93141874596405 " />
        <path style="fill:none;stroke:#50514F;stroke-width:0.1px;stroke-linecap:square" d="M 3.3834749799440895,-78.03034172464196 L 4.164995452362908,-78.65422132135134 L 5.13975664655413,-78.87747143736229 " />
        <path style="fill:none;stroke:#50514F;stroke-width:0.1px;stroke-linecap:square" d="M 4.164995452362908,-78.65422132135134 L 4.9465159247817265,-79.27810091806073 " />
        <path style="fill:none;stroke:#50514F;stroke-width:0.1px;stroke-linecap:square" d="M 2.601954507525271,-77.40646212793257 L 3.0356135921128153,-78.30753914925467 L 3.0356135921128153,-79.30753914925467 " />
        <path style="fill:none;stroke:#50514F;stroke-width:0.1px;stroke-linecap:square" d="M 3.0356135921128153,-78.30753914925467 L 3.46927267670036,-79.20861617057676 L 4.250793149119179,-79.83249576728615 " />
        <path style="fill:none;stroke:#50514F;stroke-width:0.1px;stroke-linecap:square" d="M 3.46927267670036,-79.20861617057676 L 3.9029317612879044,-80.10969319189886 " />
        <path style="fill:none;stroke:#50514F;stroke-width:0.1px;stroke-linecap:square" d="M 4.408728476930467e-15,-72.0 L 4.4699608168878345e-15,-73.0 L -0.43365908458753977,-73.9010770213221 " />
        <path style="fill:none;stroke:#50514F;stroke-width:0.1px;stroke-linecap:square" d="M 4.4699608168878345e-15,-73.0 L 4.531193156845202e-15,-74.0 L 0.4336590845875489,-74.9010770213221 " />
        <path style="fill:none;stroke:#50514F;stroke-width:0.1px;stroke-linecap:square" d="M 4.531193156845202e-15,-74.0 L 4.59242549680257e-15,-75.0 L -0.43365908458753966,-75.9010770213221 L -1.2151795570063584,-76.52495661803148 " />
        <path style="fill:none;stroke:#50514F;stroke-width:0.1px;stroke-linecap:square" d="M -0.43365908458753966,-75.9010770213221 L -0.867318169175084,-76.80215404264419 L -0.867318169175084,-77.80215404264419 " />
        <path style="fill:none;stroke:#50514F;stroke-width:0.1px;stroke-linecap:square" d="M -0.867318169175084,-76.80215404264419 L -1.3009772537626283,-77.70323106396629 " />
        <path style="fill:none;stroke:#50514F;stroke-width:0.1px;stroke-linecap:square" d="M 4.59242549680257e-15,-75.0 L 4.653657836759937e-15,-76.0 L -0.4336590845875396,-76.9010770213221 " />
        <path style="fill:none;stroke:#50514F;stroke-width:0.1px;stroke-linecap:square" d="M 4.653657836759937e-15,-76.0 L 4.714890176717305e-15,-77.0 L 0.4336590845875491,-77.9010770213221 " />
        <path style="fill:none;stroke:#50514F;stroke-width:0.1px;stroke-linecap:square" d="M 4.714890176717305e-15,-77.0 L 4.776122516674672e-15,-78.0 L 0.43365908458754915,-78.9010770213221 L 0.4336590845875492,-79.9010770213221 " />
        <path style="fill:none;stroke:#50514F;stroke-width:0.1px;stroke-linecap:square" d="M 0.43365908458754915,-78.9010770213221 L 0.8673181691750935,-79.80215404264419 L 1.6488386415939122,-80.42603363935358 " />
        <path style="fill:none;stroke:#50514F;stroke-width:0.1px;stroke-linecap:square" d="M 0.8673181691750935,-79.80215404264419 L 1.3009772537626378,-80.70323106396629 " />
        <path style="fill:none;stroke:#50514F;stroke-width:0.1px;stroke-linecap:square" d="M 4.776122516674672e-15,-78.0 L 4.83735485663204e-15,-79.0 L -0.43365908458753943,-79.9010770213221 " />
        <path style="fill:none;stroke:#50514F;stroke-width:0.1px;stroke-linecap:square" d="M 4.83735485663204e-15,-79.0 L 4.8985871965894075e-15,-80.0 L 0.43365908458754926,-80.9010770213221 " />
        <path style="fill:none;stroke:#50514F;stroke-width:0.1px;stroke-linecap:square" d="M 4.8985871965894075e-15,-80.0 L 4.959819536546775e-15,-81.0 " />
    </g>
</svg>
