<?xml version="1.0" encoding="UTF-8"?>
<!DOCTYPE svg PUBLIC "-//W3C//DTD SVG 1.1//EN"
    "http://www.w3.org/Graphics/SVG/1.1/DTD/svg11.dtd">

<svg xmlns="http://www.w3.org/2000/svg" xmlns:xlink="http://www.w3.org/1999/xlink" version="1.1" width="167.4595887879038" height="500" viewBox="-20.09515065454846 -60.0 40.19030130909692 120.0">
    <g>
        <rect x="-20.09515065454846" y="-60.0" width="40.19030130909692" height="120.0" fill="#CBD4C2" />
        <path style="fill:none;stroke:#50514F;stroke-width:0.1px;stroke-linecap:square" d="M -2.290656059205573,50.0 L -2.290656059205573,48.76543209876543 L -2.8260376451161213,47.65299133170112 " />
        <path style="fill:none;stroke:#50514F;stroke-width:0.1px;stroke-linecap:square" d="M -2.290656059205573,48.76543209876543 L -2.2906560592055727,47.53086419753086 L -1.755274473295024,46.41842343046655 " />
        <path style="fill:none;stroke:#50514F;stroke-width:0.1px;stroke-linecap:square" d="M -2.2906560592055727,47.53086419753086 L -2.2906560592055727,46.29629629629629 L -2.8260376451161213,45.18385552923198 L -3.7908777345220703,44.413633804899405 " />
        <path style="fill:none;stroke:#50514F;stroke-width:0.1px;stroke-linecap:square" d="M -2.8260376451161213,45.18385552923198 L -3.3614192310266695,44.07141476216767 L -3.3614192310266695,42.83684686093311 " />
        <path style="fill:none;stroke:#50514F;stroke-width:0.1px;stroke-linecap:square" d="M -3.3614192310266695,44.07141476216767 L -3.896800816937218,42.958973995103364 " />
        <path style="fill:none;stroke:#50514F;stroke-width:0.1px;stroke-linecap:square" d="M -2.2906560592055727,46.29629629629629 L -2.2906560592055727,45.06172839506173 L -2.8260376451161213,43.949287627997414 " />
        <path style="fill:none;stroke:#50514F;stroke-width:0.1px;stroke-linecap:square" d="M -2.2906560592055727,45.06172839506173 L -2.2906560592055727,43.82716049382716 L -1.7552744732950238,42.714719726762844 " />
        <path style="fill:none;stroke:#50514F;stroke-width:0.1px;stroke-linecap:square" d="M -2.2906560592055727,43.82716049382716 L -2.2906560592055722,42.59259259259259 L -1.7552744732950238,41.480151825528274 L -1.7552744732950238,40.245583924293705 " />
        <path style="fill:none;stroke:#50514F;stroke-width:0.1px;stroke-linecap:square" d="M -1.7552744732950238,41.480151825528274 L -1.2198928873844754,40.36771105846397 L -0.25505279797852637,39.597489334131396 " />
        <path style="fill:none;stroke:#50514F;stroke-width:0.1px;stroke-linecap:square" d="M -1.2198928873844754,40.36771105846397 L -0.6845113014739268,39.25527029139966 " />
        <path style="fill:none;stroke:#50514F;stroke-width:0.1px;stroke-linecap:square" d="M -2.2906560592055722,42.59259259259259 L -2.2906560592055722,41.358024691358025 L -2.8260376451161204,40.245583924293705 " />
        <path style="fill:none;stroke:#50514F;stroke-width:0.1px;stroke-linecap:square" d="M -2.2906560592055722,41.358024691358025 L -2.2906560592055722,40.123456790123456 L -1.7552744732950236,39.01101602305914 " />
        <path style="fill:none;stroke:#50514F;stroke-width:0.1px;stroke-linecap:square" d="M -2.2906560592055722,40.123456790123456 L -2.2906560592055722,38.888888888888886 L -2.8260376451161204,37.77644812182458 L -3.7908777345220694,37.006226397492 " />
        <path style="fill:none;stroke:#50514F;stroke-width:0.1px;stroke-linecap:square" d="M -2.8260376451161204,37.77644812182458 L -3.3614192310266695,36.664007354760265 L -3.3614192310266695,35.429439453525696 " />
        <path style="fill:none;stroke:#50514F;stroke-width:0.1px;stroke-linecap:square" d="M -3.3614192310266695,36.664007354760265 L -3.8968008169372177,35.55156658769596 L -4.861640906343166,34.78134486336338 L -6.065049788060725,34.50572743618937 " />
        <path style="fill:none;stroke:#50514F;stroke-width:0.1px;stroke-linecap:square" d="M -4.861640906343166,34.78134486336338 L -5.826480995749116,34.0111231390308 L -6.361862581659664,32.898682371966494 " />
        <path style="fill:none;stroke:#50514F;stroke-width:0.1px;stroke-linecap:square" d="M -5.826480995749116,34.0111231390308 L -6.791321085155064,33.24090141469823 " />
        <path style="fill:none;stroke:#50514F;stroke-width:0.1px;stroke-linecap:square" d="M -3.8968008169372177,35.55156658769596 L -4.432182402847766,34.439125820631645 L -5.397022492253716,33.668904096299066 " />
        <path style="fill:none;stroke:#50514F;stroke-width:0.1px;stroke-linecap:square" d="M -4.432182402847766,34.439125820631645 L -4.9675639887583145,33.32668505356733 L -4.9675639887583145,32.09211715233277 " />
        <path style="fill:none;stroke:#50514F;stroke-width:0.1px;stroke-linecap:square" d="M -4.9675639887583145,33.32668505356733 L -5.502945574668863,32.214244286503025 L -5.502945574668863,30.979676385268455 L -6.038327160579411,29.867235618204145 " />
        <path style="fill:none;stroke:#50514F;stroke-width:0.1px;stroke-linecap:square" d="M -5.502945574668863,30.979676385268455 L -5.502945574668863,29.74510848403389 L -4.9675639887583145,28.63266771696958 " />
        <path style="fill:none;stroke:#50514F;stroke-width:0.1px;stroke-linecap:square" d="M -5.502945574668863,29.74510848403389 L -5.502945574668863,28.51054058279932 " />
        <path style="fill:none;stroke:#50514F;stroke-width:0.1px;stroke-linecap:square" d="M -5.502945574668863,32.214244286503025 L -6.038327160579411,31.101803519438715 L -7.00316724998536,30.33158179510614 " />
        <path style="fill:none;stroke:#50514F;stroke-width:0.1px;stroke-linecap:square" d="M -6.038327160579411,31.101803519438715 L -6.573708746489959,29.989362752374404 L -6.573708746489959,28.754794851139835 " />
        <path style="fill:none;stroke:#50514F;stroke-width:0.1px;stroke-linecap:square" d="M -6.573708746489959,29.989362752374404 L -7.109090332400507,28.87692198531009 " />
        <path style="fill:none;stroke:#50514F;stroke-width:0.1px;stroke-linecap:square" d="M -2.2906560592055722,38.888888888888886 L -2.2906560592055722,37.654320987654316 L -2.8260376451161204,36.54188022059001 " />
        <path style="fill:none;stroke:#50514F;stroke-width:0.1px;stroke-linecap:square" d="M -2.2906560592055722,37.654320987654316 L -2.2906560592055722,36.41975308641975 L -1.7552744732950236,35.30731231935544 " />
        <path style="fill:none;stroke:#50514F;stroke-width:0.1px;stroke-linecap:square" d="M -2.2906560592055722,36.41975308641975 L -2.2906560592055722,35.18518518518518 L -2.8260376451161204,34.07274441812087 L -3.7908777345220694,33.3025226937883 " />
        <path style="fill:none;stroke:#50514F;stroke-width:0.1px;stroke-linecap:square" d="M -2.8260376451161204,34.07274441812087 L -3.361419231026669,32.96030365105656 L -3.361419231026669,31.725735749821993 " />
        <path style="fill:none;stroke:#50514F;stroke-width:0.1px;stroke-linecap:square" d="M -3.361419231026669,32.96030365105656 L -3.8968008169372172,31.847862883992253 " />
        <path style="fill:none;stroke:#50514F;stroke-width:0.1px;stroke-linecap:square" d="M -2.2906560592055722,35.18518518518518 L -2.290656059205572,33.95061728395061 L -2.8260376451161204,32.83817651688631 " />
        <path style="fill:none;stroke:#50514F;stroke-width:0.1px;stroke-linecap:square" d="M -2.290656059205572,33.95061728395061 L -2.290656059205572,32.71604938271605 L -1.7552744732950234,31.603608615651737 " />
        <path style="fill:none;stroke:#50514F;stroke-width:0.1px;stroke-linecap:square" d="M -2.290656059205572,32.71604938271605 L -2.290656059205572,31.48148148148148 L -1.755274473295023,30.36904071441717 L -1.755274473295023,29.1344728131826 " />
        <path style="fill:none;stroke:#50514F;stroke-width:0.1px;stroke-linecap:square" d="M -1.755274473295023,30.36904071441717 L -1.2198928873844745,29.256599947352857 L -0.25505279797852554,28.48637822302028 " />
        <path style="fill:none;stroke:#50514F;stroke-width:0.1px;stroke-linecap:square" d="M -1.2198928873844745,29.256599947352857 L -0.684511301473926,28.144159180288547 " />
        <path style="fill:none;stroke:#50514F;stroke-width:0.1px;stroke-linecap:square" d="M -2.290656059205572,31.48148148148148 L -2.290656059205572,30.24691358024691 L -2.82603764511612,29.1344728131826 " />
        <path style="fill:none;stroke:#50514F;stroke-width:0.1px;stroke-linecap:square" d="M -2.290656059205572,30.24691358024691 L -2.2906560592055714,29.012345679012345 L -1.755274473295023,27.899904911948035 " />
        <path style="fill:none;stroke:#50514F;stroke-width:0.1px;stroke-linecap:square" d="M -2.2906560592055714,29.012345679012345 L -2.2906560592055714,27.777777777777775 L -1.755274473295023,26.665337010713465 L -1.755274473295023,25.4307691094789 " />
        <path style="fill:none;stroke:#50514F;stroke-width:0.1px;stroke-linecap:square" d="M -1.755274473295023,26.665337010713465 L -1.2198928873844743,25.552896243649155 L -0.25505279797852526,24.78267451931658 " />
        <path style="fill:none;stroke:#50514F;stroke-width:0.1px;stroke-linecap:square" d="M -1.2198928873844743,25.552896243649155 L -0.6845113014739258,24.440455476584845 L -0.6845113014739258,23.20588757535028 L -1.219892887384474,22.093446808285968 " />
        <path style="fill:none;stroke:#50514F;stroke-width:0.1px;stroke-linecap:square" d="M -0.6845113014739258,23.20588757535028 L -0.6845113014739258,21.97131967411571 L -0.14912971556337723,20.8588789070514 " />
        <path style="fill:none;stroke:#50514F;stroke-width:0.1px;stroke-linecap:square" d="M -0.6845113014739258,21.97131967411571 L -0.6845113014739258,20.736751772881142 " />
        <path style="fill:none;stroke:#50514F;stroke-width:0.1px;stroke-linecap:square" d="M -0.6845113014739258,24.440455476584845 L -0.14912971556337723,23.328014709520534 L -0.14912971556337723,22.093446808285968 " />
        <path style="fill:none;stroke:#50514F;stroke-width:0.1px;stroke-linecap:square" d="M -0.14912971556337723,23.328014709520534 L 0.38625187034717157,22.215573942456224 L 1.3510919597531206,21.44535221812365 " />
        <path style="fill:none;stroke:#50514F;stroke-width:0.1px;stroke-linecap:square" d="M 0.38625187034717157,22.215573942456224 L 0.9216334562577203,21.103133175391914 L 1.8864735456636694,20.33291145105934 L 2.4218551315742176,19.22047068399503 " />
        <path style="fill:none;stroke:#50514F;stroke-width:0.1px;stroke-linecap:square" d="M 1.8864735456636694,20.33291145105934 L 2.851313635069619,19.562689726726763 L 4.054722516787176,19.287072299552747 " />
        <path style="fill:none;stroke:#50514F;stroke-width:0.1px;stroke-linecap:square" d="M 2.851313635069619,19.562689726726763 L 3.8161537244755683,18.792468002394187 " />
        <path style="fill:none;stroke:#50514F;stroke-width:0.1px;stroke-linecap:square" d="M 0.9216334562577203,21.103133175391914 L 1.457015042168269,19.990692408327604 L 1.457015042168269,18.756124507093034 " />
        <path style="fill:none;stroke:#50514F;stroke-width:0.1px;stroke-linecap:square" d="M 1.457015042168269,19.990692408327604 L 1.992396628078818,18.878251641263294 L 2.9572367174847667,18.108029916930718 " />
        <path style="fill:none;stroke:#50514F;stroke-width:0.1px;stroke-linecap:square" d="M 1.992396628078818,18.878251641263294 L 2.5277782139893668,17.765810874198984 " />
        <path style="fill:none;stroke:#50514F;stroke-width:0.1px;stroke-linecap:square" d="M -2.2906560592055714,27.777777777777775 L -2.2906560592055714,26.54320987654321 L -2.82603764511612,25.4307691094789 " />
        <path style="fill:none;stroke:#50514F;stroke-width:0.1px;stroke-linecap:square" d="M -2.2906560592055714,26.54320987654321 L -2.2906560592055714,25.30864197530864 L -1.7552744732950227,24.19620120824433 " />
        <path style="fill:none;stroke:#50514F;stroke-width:0.1px;stroke-linecap:square" d="M -2.2906560592055714,25.30864197530864 L -2.2906560592055714,24.074074074074073 L -2.8260376451161195,22.961633307009762 L -3.790877734522069,22.191411582677187 " />
        <path style="fill:none;stroke:#50514F;stroke-width:0.1px;stroke-linecap:square" d="M -2.8260376451161195,22.961633307009762 L -3.361419231026668,21.849192539945452 L -3.361419231026668,20.614624638710882 " />
        <path style="fill:none;stroke:#50514F;stroke-width:0.1px;stroke-linecap:square" d="M -3.361419231026668,21.849192539945452 L -3.8968008169372172,20.736751772881142 " />
        <path style="fill:none;stroke:#50514F;stroke-width:0.1px;stroke-linecap:square" d="M -2.2906560592055714,24.074074074074073 L -2.2906560592055714,22.839506172839506 L -2.8260376451161195,21.727065405775196 " />
        <path style="fill:none;stroke:#50514F;stroke-width:0.1px;stroke-linecap:square" d="M -2.2906560592055714,22.839506172839506 L -2.2906560592055714,21.604938271604937 L -1.7552744732950225,20.492497504540626 " />
        <path style="fill:none;stroke:#50514F;stroke-width:0.1px;stroke-linecap:square" d="M -2.2906560592055714,21.604938271604937 L -2.290656059205571,20.37037037037037 L -1.7552744732950225,19.25792960330606 L -1.7552744732950225,18.02336170207149 " />
        <path style="fill:none;stroke:#50514F;stroke-width:0.1px;stroke-linecap:square" d="M -1.7552744732950225,19.25792960330606 L -1.2198928873844739,18.14548883624175 L -0.255052797978525,17.37526711190917 " />
        <path style="fill:none;stroke:#50514F;stroke-width:0.1px;stroke-linecap:square" d="M -1.2198928873844739,18.14548883624175 L -0.6845113014739255,17.033048069177436 " />
        <path style="fill:none;stroke:#50514F;stroke-width:0.1px;stroke-linecap:square" d="M -2.290656059205571,20.37037037037037 L -2.290656059205571,19.1358024691358 L -2.8260376451161195,18.02336170207149 " />
        <path style="fill:none;stroke:#50514F;stroke-width:0.1px;stroke-linecap:square" d="M -2.290656059205571,19.1358024691358 L -2.290656059205571,17.901234567901234 L -1.7552744732950225,16.788793800836924 " />
        <path style="fill:none;stroke:#50514F;stroke-width:0.1px;stroke-linecap:square" d="M -2.290656059205571,17.901234567901234 L -2.290656059205571,16.666666666666664 L -2.8260376451161195,15.554225899602356 L -3.790877734522068,14.784004175269779 " />
        <path style="fill:none;stroke:#50514F;stroke-width:0.1px;stroke-linecap:square" d="M -2.8260376451161195,15.554225899602356 L -3.3614192310266677,14.441785132538044 L -3.3614192310266677,13.207217231303478 " />
        <path style="fill:none;stroke:#50514F;stroke-width:0.1px;stroke-linecap:square" d="M -3.3614192310266677,14.441785132538044 L -3.896800816937216,13.329344365473734 L -4.861640906343165,12.559122641141158 L -6.065049788060723,12.283505213967144 " />
        <path style="fill:none;stroke:#50514F;stroke-width:0.1px;stroke-linecap:square" d="M -4.861640906343165,12.559122641141158 L -5.826480995749114,11.788900916808583 L -6.361862581659663,10.676460149744273 " />
        <path style="fill:none;stroke:#50514F;stroke-width:0.1px;stroke-linecap:square" d="M -5.826480995749114,11.788900916808583 L -6.791321085155063,11.018679192476007 " />
        <path style="fill:none;stroke:#50514F;stroke-width:0.1px;stroke-linecap:square" d="M -3.896800816937216,13.329344365473734 L -4.432182402847765,12.216903598409424 L -5.397022492253713,11.446681874076848 " />
        <path style="fill:none;stroke:#50514F;stroke-width:0.1px;stroke-linecap:square" d="M -4.432182402847765,12.216903598409424 L -4.967563988758313,11.104462831345113 L -4.967563988758313,9.869894930110549 " />
        <path style="fill:none;stroke:#50514F;stroke-width:0.1px;stroke-linecap:square" d="M -4.967563988758313,11.104462831345113 L -5.502945574668861,9.992022064280803 L -5.502945574668861,8.757454163046235 L -6.03832716057941,7.645013395981929 " />
        <path style="fill:none;stroke:#50514F;stroke-width:0.1px;stroke-linecap:square" d="M -5.502945574668861,8.757454163046235 L -5.502945574668861,7.522886261811667 L -4.967563988758313,6.410445494747361 " />
        <path style="fill:none;stroke:#50514F;stroke-width:0.1px;stroke-linecap:square" d="M -5.502945574668861,7.522886261811667 L -5.502945574668861,6.288318360577099 " />
        <path style="fill:none;stroke:#50514F;stroke-width:0.1px;stroke-linecap:square" d="M -5.502945574668861,9.992022064280803 L -6.03832716057941,8.879581297216497 L -7.003167249985358,8.109359572883921 " />
        <path style="fill:none;stroke:#50514F;stroke-width:0.1px;stroke-linecap:square" d="M -6.03832716057941,8.879581297216497 L -6.573708746489958,7.767140530152182 L -6.573708746489958,6.532572628917614 " />
        <path style="fill:none;stroke:#50514F;stroke-width:0.1px;stroke-linecap:square" d="M -6.573708746489958,7.767140530152182 L -7.1090903324005055,6.654699763087867 L -8.073930421806455,5.884478038755291 L -9.277339303524013,5.608860611581276 " />
        <path style="fill:none;stroke:#50514F;stroke-width:0.1px;stroke-linecap:square" d="M -8.073930421806455,5.884478038755291 L -9.038770511212405,5.1142563144227156 L -9.574152097122953,4.0018155473584 " />
        <path style="fill:none;stroke:#50514F;stroke-width:0.1px;stroke-linecap:square" d="M -9.038770511212405,5.1142563144227156 L -10.003610600618353,4.344034590090139 L -11.207019482335912,4.068417162916124 L -12.410907574071175,4.34193382664386 " />
        <path style="fill:none;stroke:#50514F;stroke-width:0.1px;stroke-linecap:square" d="M -11.207019482335912,4.068417162916124 L -12.410428364053468,3.7927997357421095 L -13.375268453459418,3.022578011409534 " />
        <path style="fill:none;stroke:#50514F;stroke-width:0.1px;stroke-linecap:square" d="M -12.410428364053468,3.7927997357421095 L -13.613837245771027,3.5171823085680947 " />
        <path style="fill:none;stroke:#50514F;stroke-width:0.1px;stroke-linecap:square" d="M -10.003610600618353,4.344034590090139 L -10.968450690024303,3.5738128657575636 L -12.171859571741862,3.298195438583549 " />
        <path style="fill:none;stroke:#50514F;stroke-width:0.1px;stroke-linecap:square" d="M -10.968450690024303,3.5738128657575636 L -11.933290779430253,2.803591141424988 L -12.468672365340803,1.691150374360673 " />
        <path style="fill:none;stroke:#50514F;stroke-width:0.1px;stroke-linecap:square" d="M -11.933290779430253,2.803591141424988 L -12.898130868836203,2.033369417092412 L -13.43351245474675,0.9209286500280973 L -14.3983525441527,0.1507069256955215 " />
        <path style="fill:none;stroke:#50514F;stroke-width:0.1px;stroke-linecap:square" d="M -13.43351245474675,0.9209286500280973 L -13.9688940406573,-0.1915121170362176 L -13.9688940406573,-1.4260800182707853 " />
        <path style="fill:none;stroke:#50514F;stroke-width:0.1px;stroke-linecap:square" d="M -13.9688940406573,-0.1915121170362176 L -14.50427562656785,-1.3039528841005326 " />
        <path style="fill:none;stroke:#50514F;stroke-width:0.1px;stroke-linecap:square" d="M -12.898130868836203,2.033369417092412 L -13.862970958242153,1.2631476927598364 L -15.06637983995971,0.9875302655858215 " />
        <path style="fill:none;stroke:#50514F;stroke-width:0.1px;stroke-linecap:square" d="M -13.862970958242153,1.2631476927598364 L -14.827811047648101,0.4929259684272606 L -15.36319263355865,-0.6195147986370543 " />
        <path style="fill:none;stroke:#50514F;stroke-width:0.1px;stroke-linecap:square" d="M -14.827811047648101,0.4929259684272606 L -15.792651137054051,-0.2772957559053152 " />
        <path style="fill:none;stroke:#50514F;stroke-width:0.1px;stroke-linecap:square" d="M -7.1090903324005055,6.654699763087867 L -7.644471918311054,5.542258996023552 L -8.609312007717003,4.7720372716909765 " />
        <path style="fill:none;stroke:#50514F;stroke-width:0.1px;stroke-linecap:square" d="M -7.644471918311054,5.542258996023552 L -8.179853504221603,4.429818228959237 L -8.179853504221603,3.1952503277246693 " />
        <path style="fill:none;stroke:#50514F;stroke-width:0.1px;stroke-linecap:square" d="M -8.179853504221603,4.429818228959237 L -8.715235090132152,3.3173774618949223 L -9.680075179538102,2.5471557375623464 L -10.883484061255658,2.2715383103883315 " />
        <path style="fill:none;stroke:#50514F;stroke-width:0.1px;stroke-linecap:square" d="M -9.680075179538102,2.5471557375623464 L -10.64491526894405,1.7769340132297706 L -11.1802968548546,0.6644932461654558 " />
        <path style="fill:none;stroke:#50514F;stroke-width:0.1px;stroke-linecap:square" d="M -10.64491526894405,1.7769340132297706 L -11.60975535835,1.0067122888971949 " />
        <path style="fill:none;stroke:#50514F;stroke-width:0.1px;stroke-linecap:square" d="M -8.715235090132152,3.3173774618949223 L -9.2506166760427,2.2049366948306073 L -10.21545676544865,1.4347149704980315 " />
        <path style="fill:none;stroke:#50514F;stroke-width:0.1px;stroke-linecap:square" d="M -9.2506166760427,2.2049366948306073 L -9.78599826195325,1.0924959277662925 L -9.78599826195325,-0.14207197346827538 " />
        <path style="fill:none;stroke:#50514F;stroke-width:0.1px;stroke-linecap:square" d="M -9.78599826195325,1.0924959277662925 L -10.321379847863799,-1.9944839298022436e-2 L -10.321379847863799,-1.2545127405325902 L -10.856761433774347,-2.3669535075968966 " />
        <path style="fill:none;stroke:#50514F;stroke-width:0.1px;stroke-linecap:square" d="M -10.321379847863799,-1.2545127405325902 L -10.321379847863799,-2.489080641767158 L -9.78599826195325,-3.601521408831464 " />
        <path style="fill:none;stroke:#50514F;stroke-width:0.1px;stroke-linecap:square" d="M -10.321379847863799,-2.489080641767158 L -10.321379847863799,-3.723648543001726 " />
        <path style="fill:none;stroke:#50514F;stroke-width:0.1px;stroke-linecap:square" d="M -10.321379847863799,-1.9944839298022436e-2 L -10.856761433774347,-1.1323856063623374 L -11.821601523180297,-1.9026073306949132 " />
        <path style="fill:none;stroke:#50514F;stroke-width:0.1px;stroke-linecap:square" d="M -10.856761433774347,-1.1323856063623374 L -11.392143019684896,-2.244826373426652 L -11.392143019684896,-3.47939427466122 " />
        <path style="fill:none;stroke:#50514F;stroke-width:0.1px;stroke-linecap:square" d="M -11.392143019684896,-2.244826373426652 L -11.927524605595444,-3.357267140490967 L -11.927524605595444,-4.591835041725535 L -12.462906191505994,-5.704275808789841 " />
        <path style="fill:none;stroke:#50514F;stroke-width:0.1px;stroke-linecap:square" d="M -11.927524605595444,-4.591835041725535 L -11.927524605595444,-5.826402942960103 L -11.392143019684896,-6.9388437100244085 " />
        <path style="fill:none;stroke:#50514F;stroke-width:0.1px;stroke-linecap:square" d="M -11.927524605595444,-5.826402942960103 L -11.927524605595444,-7.060970844194671 L -12.462906191505994,-8.173411611258977 L -13.427746280911943,-8.943633335591553 " />
        <path style="fill:none;stroke:#50514F;stroke-width:0.1px;stroke-linecap:square" d="M -12.462906191505994,-8.173411611258977 L -12.998287777416541,-9.285852378323282 L -12.998287777416541,-10.52042027955785 " />
        <path style="fill:none;stroke:#50514F;stroke-width:0.1px;stroke-linecap:square" d="M -12.998287777416541,-9.285852378323282 L -13.53366936332709,-10.398293145387589 " />
        <path style="fill:none;stroke:#50514F;stroke-width:0.1px;stroke-linecap:square" d="M -11.927524605595444,-7.060970844194671 L -11.927524605595444,-8.295538745429239 L -12.462906191505994,-9.407979512493544 " />
        <path style="fill:none;stroke:#50514F;stroke-width:0.1px;stroke-linecap:square" d="M -11.927524605595444,-8.295538745429239 L -11.927524605595444,-9.530106646663807 L -11.392143019684896,-10.642547413728112 " />
        <path style="fill:none;stroke:#50514F;stroke-width:0.1px;stroke-linecap:square" d="M -11.927524605595444,-9.530106646663807 L -11.927524605595444,-10.764674547898375 L -11.392143019684896,-11.87711531496268 L -11.392143019684896,-13.111683216197248 " />
        <path style="fill:none;stroke:#50514F;stroke-width:0.1px;stroke-linecap:square" d="M -11.392143019684896,-11.87711531496268 L -10.856761433774347,-12.989556082026986 L -9.891921344368397,-13.759777806359562 " />
        <path style="fill:none;stroke:#50514F;stroke-width:0.1px;stroke-linecap:square" d="M -10.856761433774347,-12.989556082026986 L -10.321379847863799,-14.101996849091293 " />
        <path style="fill:none;stroke:#50514F;stroke-width:0.1px;stroke-linecap:square" d="M -11.927524605595444,-10.764674547898375 L -11.927524605595444,-11.999242449132941 L -12.462906191505994,-13.111683216197248 " />
        <path style="fill:none;stroke:#50514F;stroke-width:0.1px;stroke-linecap:square" d="M -11.927524605595444,-11.999242449132941 L -11.927524605595444,-13.23381035036751 L -11.392143019684896,-14.346251117431816 " />
        <path style="fill:none;stroke:#50514F;stroke-width:0.1px;stroke-linecap:square" d="M -11.927524605595444,-13.23381035036751 L -11.927524605595444,-14.468378251602077 " />
        <path style="fill:none;stroke:#50514F;stroke-width:0.1px;stroke-linecap:square" d="M -11.927524605595444,-3.357267140490967 L -12.462906191505994,-4.469707907555282 L -13.427746280911943,-5.239929631887858 " />
        <path style="fill:none;stroke:#50514F;stroke-width:0.1px;stroke-linecap:square" d="M -12.462906191505994,-4.469707907555282 L -12.998287777416541,-5.582148674619597 L -12.998287777416541,-6.816716575854165 " />
        <path style="fill:none;stroke:#50514F;stroke-width:0.1px;stroke-linecap:square" d="M -12.998287777416541,-5.582148674619597 L -13.53366936332709,-6.694589441683911 L -14.49850945273304,-7.464811166016488 L -15.701918334450598,-7.740428593190503 " />
        <path style="fill:none;stroke:#50514F;stroke-width:0.1px;stroke-linecap:square" d="M -14.49850945273304,-7.464811166016488 L -15.46334954213899,-8.235032890349064 L -15.998731128049538,-9.347473657413378 " />
        <path style="fill:none;stroke:#50514F;stroke-width:0.1px;stroke-linecap:square" d="M -15.46334954213899,-8.235032890349064 L -16.42818963154494,-9.00525461468164 " />
        <path style="fill:none;stroke:#50514F;stroke-width:0.1px;stroke-linecap:square" d="M -13.53366936332709,-6.694589441683911 L -14.06905094923764,-7.807030208748227 L -15.033891038643588,-8.577251933080802 " />
        <path style="fill:none;stroke:#50514F;stroke-width:0.1px;stroke-linecap:square" d="M -14.06905094923764,-7.807030208748227 L -14.604432535148188,-8.919470975812542 L -14.604432535148188,-10.154038877047109 " />
        <path style="fill:none;stroke:#50514F;stroke-width:0.1px;stroke-linecap:square" d="M -14.604432535148188,-8.919470975812542 L -15.139814121058738,-10.031911742876856 L -15.139814121058738,-11.266479644111424 L -15.675195706969285,-12.37892041117573 " />
        <path style="fill:none;stroke:#50514F;stroke-width:0.1px;stroke-linecap:square" d="M -15.139814121058738,-11.266479644111424 L -15.139814121058738,-12.501047545345992 L -14.604432535148188,-13.613488312410299 " />
        <path style="fill:none;stroke:#50514F;stroke-width:0.1px;stroke-linecap:square" d="M -15.139814121058738,-12.501047545345992 L -15.139814121058738,-13.73561544658056 " />
        <path style="fill:none;stroke:#50514F;stroke-width:0.1px;stroke-linecap:square" d="M -15.139814121058738,-10.031911742876856 L -15.675195706969285,-11.144352509941172 L -16.640035796375237,-11.914574234273747 " />
        <path style="fill:none;stroke:#50514F;stroke-width:0.1px;stroke-linecap:square" d="M -15.675195706969285,-11.144352509941172 L -16.210577292879833,-12.256793277005487 L -16.210577292879833,-13.491361178240053 " />
        <path style="fill:none;stroke:#50514F;stroke-width:0.1px;stroke-linecap:square" d="M -16.210577292879833,-12.256793277005487 L -16.745958878790383,-13.3692340440698 " />
        <path style="fill:none;stroke:#50514F;stroke-width:0.1px;stroke-linecap:square" d="M -2.290656059205571,16.666666666666664 L -2.290656059205571,15.432098765432098 L -2.8260376451161195,14.319657998367788 " />
        <path style="fill:none;stroke:#50514F;stroke-width:0.1px;stroke-linecap:square" d="M -2.290656059205571,15.432098765432098 L -2.290656059205571,14.19753086419753 L -1.7552744732950223,13.08509009713322 " />
        <path style="fill:none;stroke:#50514F;stroke-width:0.1px;stroke-linecap:square" d="M -2.290656059205571,14.19753086419753 L -2.290656059205571,12.962962962962962 L -2.826037645116119,11.850522195898652 L -3.790877734522068,11.080300471566076 " />
        <path style="fill:none;stroke:#50514F;stroke-width:0.1px;stroke-linecap:square" d="M -2.826037645116119,11.850522195898652 L -3.3614192310266673,10.738081428834342 L -3.3614192310266673,9.503513527599774 " />
        <path style="fill:none;stroke:#50514F;stroke-width:0.1px;stroke-linecap:square" d="M -3.3614192310266673,10.738081428834342 L -3.896800816937216,9.625640661770035 " />
        <path style="fill:none;stroke:#50514F;stroke-width:0.1px;stroke-linecap:square" d="M -2.290656059205571,12.962962962962962 L -2.2906560592055705,11.728395061728394 L -2.826037645116119,10.615954294664084 " />
        <path style="fill:none;stroke:#50514F;stroke-width:0.1px;stroke-linecap:square" d="M -2.2906560592055705,11.728395061728394 L -2.2906560592055705,10.493827160493826 L -1.7552744732950218,9.381386393429512 " />
        <path style="fill:none;stroke:#50514F;stroke-width:0.1px;stroke-linecap:square" d="M -2.2906560592055705,10.493827160493826 L -2.2906560592055705,9.25925925925926 L -1.7552744732950218,8.146818492194944 L -1.7552744732950218,6.912250590960376 " />
        <path style="fill:none;stroke:#50514F;stroke-width:0.1px;stroke-linecap:square" d="M -1.7552744732950218,8.146818492194944 L -1.2198928873844732,7.0343777251306285 L -0.2550527979785242,6.264156000798053 " />
        <path style="fill:none;stroke:#50514F;stroke-width:0.1px;stroke-linecap:square" d="M -1.2198928873844732,7.0343777251306285 L -0.6845113014739247,5.921936958066314 " />
        <path style="fill:none;stroke:#50514F;stroke-width:0.1px;stroke-linecap:square" d="M -2.2906560592055705,9.25925925925926 L -2.2906560592055705,8.024691358024691 L -2.826037645116119,6.912250590960376 " />
        <path style="fill:none;stroke:#50514F;stroke-width:0.1px;stroke-linecap:square" d="M -2.2906560592055705,8.024691358024691 L -2.29065605920557,6.790123456790123 L -1.7552744732950216,5.677682689725808 " />
        <path style="fill:none;stroke:#50514F;stroke-width:0.1px;stroke-linecap:square" d="M -2.29065605920557,6.790123456790123 L -2.29065605920557,5.555555555555555 L -2.826037645116118,4.443114788491241 L -3.790877734522068,3.672893064158665 " />
        <path style="fill:none;stroke:#50514F;stroke-width:0.1px;stroke-linecap:square" d="M -2.826037645116118,4.443114788491241 L -3.3614192310266673,3.3306740214269253 L -3.3614192310266673,2.0961061201923576 " />
        <path style="fill:none;stroke:#50514F;stroke-width:0.1px;stroke-linecap:square" d="M -3.3614192310266673,3.3306740214269253 L -3.8968008169372155,2.2182332543626107 L -4.8616409063431645,1.448011530030035 L -6.065049788060723,1.1723941028560199 " />
        <path style="fill:none;stroke:#50514F;stroke-width:0.1px;stroke-linecap:square" d="M -4.8616409063431645,1.448011530030035 L -5.826480995749114,0.6777898056974591 L -6.361862581659661,-0.4346509613668559 " />
        <path style="fill:none;stroke:#50514F;stroke-width:0.1px;stroke-linecap:square" d="M -5.826480995749114,0.6777898056974591 L -6.7913210851550625,-9.243191863511675e-2 " />
        <path style="fill:none;stroke:#50514F;stroke-width:0.1px;stroke-linecap:square" d="M -3.8968008169372155,2.2182332543626107 L -4.432182402847764,1.1057924872982956 L -5.397022492253713,0.3355707629657199 " />
        <path style="fill:none;stroke:#50514F;stroke-width:0.1px;stroke-linecap:square" d="M -4.432182402847764,1.1057924872982956 L -4.967563988758313,-6.648279766019175e-3 L -4.967563988758313,-1.241216181000587 " />
        <path style="fill:none;stroke:#50514F;stroke-width:0.1px;stroke-linecap:square" d="M -4.967563988758313,-6.648279766019175e-3 L -5.502945574668861,-1.119089046830334 L -5.502945574668861,-2.353656948064902 L -6.038327160579409,-3.466097715129208 " />
        <path style="fill:none;stroke:#50514F;stroke-width:0.1px;stroke-linecap:square" d="M -5.502945574668861,-2.353656948064902 L -5.502945574668861,-3.5882248492994697 L -4.967563988758313,-4.700665616363776 " />
        <path style="fill:none;stroke:#50514F;stroke-width:0.1px;stroke-linecap:square" d="M -5.502945574668861,-3.5882248492994697 L -5.502945574668861,-4.822792750534037 " />
        <path style="fill:none;stroke:#50514F;stroke-width:0.1px;stroke-linecap:square" d="M -5.502945574668861,-1.119089046830334 L -6.038327160579409,-2.231529813894649 L -7.003167249985357,-3.0017515382272246 " />
        <path style="fill:none;stroke:#50514F;stroke-width:0.1px;stroke-linecap:square" d="M -6.038327160579409,-2.231529813894649 L -6.573708746489957,-3.3439705809589637 L -6.573708746489957,-4.578538482193531 " />
        <path style="fill:none;stroke:#50514F;stroke-width:0.1px;stroke-linecap:square" d="M -6.573708746489957,-3.3439705809589637 L -7.1090903324005055,-4.456411348023279 " />
        <path style="fill:none;stroke:#50514F;stroke-width:0.1px;stroke-linecap:square" d="M -2.29065605920557,5.555555555555555 L -2.29065605920557,4.320987654320987 L -2.826037645116118,3.2085468872566727 " />
        <path style="fill:none;stroke:#50514F;stroke-width:0.1px;stroke-linecap:square" d="M -2.29065605920557,4.320987654320987 L -2.29065605920557,3.0864197530864197 L -1.7552744732950214,1.9739789860221046 " />
        <path style="fill:none;stroke:#50514F;stroke-width:0.1px;stroke-linecap:square" d="M -2.29065605920557,3.0864197530864197 L -2.29065605920557,1.8518518518518516 L -2.826037645116118,0.7394110847875368 L -3.790877734522067,-3.0810639545038918e-2 " />
        <path style="fill:none;stroke:#50514F;stroke-width:0.1px;stroke-linecap:square" d="M -2.826037645116118,0.7394110847875368 L -3.3614192310266673,-0.373029682276778 L -3.3614192310266673,-1.6075975835113459 " />
        <path style="fill:none;stroke:#50514F;stroke-width:0.1px;stroke-linecap:square" d="M -3.3614192310266673,-0.373029682276778 L -3.8968008169372155,-1.4854704493410928 " />
        <path style="fill:none;stroke:#50514F;stroke-width:0.1px;stroke-linecap:square" d="M -2.29065605920557,1.8518518518518516 L -2.29065605920557,0.6172839506172839 L -2.826037645116118,-0.49515681644703097 " />
        <path style="fill:none;stroke:#50514F;stroke-width:0.1px;stroke-linecap:square" d="M -2.29065605920557,0.6172839506172839 L -2.29065605920557,-0.6172839506172839 L -1.7552744732950214,-1.7297247176815989 " />
        <path style="fill:none;stroke:#50514F;stroke-width:0.1px;stroke-linecap:square" d="M -2.29065605920557,-0.6172839506172839 L -2.2906560592055696,-1.8518518518518516 L -1.7552744732950212,-2.9642926189161667 L -1.7552744732950212,-4.198860520150735 " />
        <path style="fill:none;stroke:#50514F;stroke-width:0.1px;stroke-linecap:square" d="M -1.7552744732950212,-2.9642926189161667 L -1.2198928873844725,-4.076733385980481 L -0.25505279797852365,-4.846955110313058 " />
        <path style="fill:none;stroke:#50514F;stroke-width:0.1px;stroke-linecap:square" d="M -1.2198928873844725,-4.076733385980481 L -0.6845113014739241,-5.189174153044797 " />
        <path style="fill:none;stroke:#50514F;stroke-width:0.1px;stroke-linecap:square" d="M -2.2906560592055696,-1.8518518518518516 L -2.2906560592055696,-3.0864197530864197 L -2.826037645116118,-4.198860520150735 " />
        <path style="fill:none;stroke:#50514F;stroke-width:0.1px;stroke-linecap:square" d="M -2.2906560592055696,-3.0864197530864197 L -2.2906560592055696,-4.320987654320987 L -1.755274473295021,-5.433428421385302 " />
        <path style="fill:none;stroke:#50514F;stroke-width:0.1px;stroke-linecap:square" d="M -2.2906560592055696,-4.320987654320987 L -2.2906560592055696,-5.555555555555555 L -1.755274473295021,-6.66799632261987 L -1.755274473295021,-7.902564223854438 " />
        <path style="fill:none;stroke:#50514F;stroke-width:0.1px;stroke-linecap:square" d="M -1.755274473295021,-6.66799632261987 L -1.2198928873844723,-7.7804370896841855 L -0.25505279797852337,-8.55065881401676 " />
        <path style="fill:none;stroke:#50514F;stroke-width:0.1px;stroke-linecap:square" d="M -1.2198928873844723,-7.7804370896841855 L -0.6845113014739238,-8.8928778567485 L -0.6845113014739238,-10.127445757983068 L -1.219892887384472,-11.239886525047375 " />
        <path style="fill:none;stroke:#50514F;stroke-width:0.1px;stroke-linecap:square" d="M -0.6845113014739238,-10.127445757983068 L -0.6845113014739238,-11.362013659217636 L -0.14912971556337531,-12.474454426281941 " />
        <path style="fill:none;stroke:#50514F;stroke-width:0.1px;stroke-linecap:square" d="M -0.6845113014739238,-11.362013659217636 L -0.6845113014739238,-12.596581560452204 " />
        <path style="fill:none;stroke:#50514F;stroke-width:0.1px;stroke-linecap:square" d="M -0.6845113014739238,-8.8928778567485 L -0.14912971556337531,-10.005318623812816 L -0.14912971556337531,-11.239886525047382 " />
        <path style="fill:none;stroke:#50514F;stroke-width:0.1px;stroke-linecap:square" d="M -0.14912971556337531,-10.005318623812816 L 0.3862518703471732,-11.11775939087713 L 1.3510919597531221,-11.887981115209705 " />
        <path style="fill:none;stroke:#50514F;stroke-width:0.1px;stroke-linecap:square" d="M 0.3862518703471732,-11.11775939087713 L 0.921633456257722,-12.230200157941445 L 1.886473545663671,-13.00042188227402 L 2.4218551315742194,-14.112862649338336 " />
        <path style="fill:none;stroke:#50514F;stroke-width:0.1px;stroke-linecap:square" d="M 1.886473545663671,-13.00042188227402 L 2.8513136350696198,-13.770643606606596 L 4.054722516787177,-14.046261033780612 " />
        <path style="fill:none;stroke:#50514F;stroke-width:0.1px;stroke-linecap:square" d="M 2.8513136350696198,-13.770643606606596 L 3.8161537244755683,-14.540865330939171 " />
        <path style="fill:none;stroke:#50514F;stroke-width:0.1px;stroke-linecap:square" d="M 0.921633456257722,-12.230200157941445 L 1.4570150421682708,-13.34264092500576 L 1.4570150421682708,-14.577208826240327 " />
        <path style="fill:none;stroke:#50514F;stroke-width:0.1px;stroke-linecap:square" d="M 1.4570150421682708,-13.34264092500576 L 1.9923966280788195,-14.455081692070074 L 2.957236717484769,-15.22530341640265 " />
        <path style="fill:none;stroke:#50514F;stroke-width:0.1px;stroke-linecap:square" d="M 1.9923966280788195,-14.455081692070074 L 2.5277782139893685,-15.56752245913439 " />
        <path style="fill:none;stroke:#50514F;stroke-width:0.1px;stroke-linecap:square" d="M -2.2906560592055696,-5.555555555555555 L -2.2906560592055696,-6.790123456790123 L -2.8260376451161178,-7.902564223854438 " />
        <path style="fill:none;stroke:#50514F;stroke-width:0.1px;stroke-linecap:square" d="M -2.2906560592055696,-6.790123456790123 L -2.2906560592055696,-8.024691358024691 L -1.755274473295021,-9.137132125089005 " />
        <path style="fill:none;stroke:#50514F;stroke-width:0.1px;stroke-linecap:square" d="M -2.2906560592055696,-8.024691358024691 L -2.2906560592055696,-9.25925925925926 L -2.8260376451161178,-10.371700026323573 L -3.7908777345220668,-11.141921750656149 " />
        <path style="fill:none;stroke:#50514F;stroke-width:0.1px;stroke-linecap:square" d="M -2.8260376451161178,-10.371700026323573 L -3.361419231026666,-11.484140793387889 L -3.361419231026666,-12.718708694622457 " />
        <path style="fill:none;stroke:#50514F;stroke-width:0.1px;stroke-linecap:square" d="M -3.361419231026666,-11.484140793387889 L -3.896800816937215,-12.596581560452204 " />
        <path style="fill:none;stroke:#50514F;stroke-width:0.1px;stroke-linecap:square" d="M -2.2906560592055696,-9.25925925925926 L -2.290656059205569,-10.493827160493826 L -2.8260376451161178,-11.606267927558141 " />
        <path style="fill:none;stroke:#50514F;stroke-width:0.1px;stroke-linecap:square" d="M -2.290656059205569,-10.493827160493826 L -2.290656059205569,-11.728395061728394 L -1.7552744732950205,-12.84083582879271 " />
        <path style="fill:none;stroke:#50514F;stroke-width:0.1px;stroke-linecap:square" d="M -2.290656059205569,-11.728395061728394 L -2.290656059205569,-12.962962962962962 L -1.7552744732950205,-14.075403730027277 L -1.7552744732950203,-15.309971631261845 " />
        <path style="fill:none;stroke:#50514F;stroke-width:0.1px;stroke-linecap:square" d="M -1.7552744732950205,-14.075403730027277 L -1.2198928873844719,-15.187844497091593 L -0.2550527979785231,-15.958066221424168 " />
        <path style="fill:none;stroke:#50514F;stroke-width:0.1px;stroke-linecap:square" d="M -1.2198928873844719,-15.187844497091593 L -0.6845113014739233,-16.300285264155907 " />
        <path style="fill:none;stroke:#50514F;stroke-width:0.1px;stroke-linecap:square" d="M -2.290656059205569,-12.962962962962962 L -2.290656059205569,-14.19753086419753 L -2.8260376451161173,-15.309971631261845 " />
        <path style="fill:none;stroke:#50514F;stroke-width:0.1px;stroke-linecap:square" d="M -2.290656059205569,-14.19753086419753 L -2.2906560592055687,-15.432098765432098 L -1.7552744732950203,-16.54453953249641 " />
        <path style="fill:none;stroke:#50514F;stroke-width:0.1px;stroke-linecap:square" d="M -2.2906560592055687,-15.432098765432098 L -2.2906560592055687,-16.666666666666664 L -1.7552744732950203,-17.77910743373098 L -1.7552744732950203,-19.013675334965548 " />
        <path style="fill:none;stroke:#50514F;stroke-width:0.1px;stroke-linecap:square" d="M -1.7552744732950203,-17.77910743373098 L -1.2198928873844717,-18.891548200795295 L -0.25505279797852254,-19.66176992512787 " />
        <path style="fill:none;stroke:#50514F;stroke-width:0.1px;stroke-linecap:square" d="M -1.2198928873844717,-18.891548200795295 L -0.684511301473923,-20.00398896785961 L -0.684511301473923,-21.23855686909418 L -1.2198928873844714,-22.350997636158485 " />
        <path style="fill:none;stroke:#50514F;stroke-width:0.1px;stroke-linecap:square" d="M -0.684511301473923,-21.23855686909418 L -0.684511301473923,-22.473124770328745 L -0.1491297155633745,-23.58556553739305 " />
        <path style="fill:none;stroke:#50514F;stroke-width:0.1px;stroke-linecap:square" d="M -0.684511301473923,-22.473124770328745 L -0.684511301473923,-23.707692671563315 " />
        <path style="fill:none;stroke:#50514F;stroke-width:0.1px;stroke-linecap:square" d="M -0.684511301473923,-20.00398896785961 L -0.1491297155633745,-21.116429734923926 L -0.1491297155633745,-22.350997636158493 " />
        <path style="fill:none;stroke:#50514F;stroke-width:0.1px;stroke-linecap:square" d="M -0.1491297155633745,-21.116429734923926 L 0.3862518703471743,-22.22887050198824 L 1.3510919597531232,-22.999092226320816 " />
        <path style="fill:none;stroke:#50514F;stroke-width:0.1px;stroke-linecap:square" d="M 0.3862518703471743,-22.22887050198824 L 0.9216334562577231,-23.341311269052554 L 1.886473545663672,-24.11153299338513 L 2.4218551315742203,-25.223973760449447 " />
        <path style="fill:none;stroke:#50514F;stroke-width:0.1px;stroke-linecap:square" d="M 1.886473545663672,-24.11153299338513 L 2.851313635069621,-24.88175471771771 L 4.054722516787178,-25.15737214489172 " />
        <path style="fill:none;stroke:#50514F;stroke-width:0.1px;stroke-linecap:square" d="M 2.851313635069621,-24.88175471771771 L 3.8161537244755706,-25.651976442050284 " />
        <path style="fill:none;stroke:#50514F;stroke-width:0.1px;stroke-linecap:square" d="M 0.9216334562577231,-23.341311269052554 L 1.457015042168272,-24.45375203611687 L 1.457015042168272,-25.688319937351437 " />
        <path style="fill:none;stroke:#50514F;stroke-width:0.1px;stroke-linecap:square" d="M 1.457015042168272,-24.45375203611687 L 1.9923966280788206,-25.566192803181185 L 2.957236717484769,-26.33641452751376 " />
        <path style="fill:none;stroke:#50514F;stroke-width:0.1px;stroke-linecap:square" d="M 1.9923966280788206,-25.566192803181185 L 2.5277782139893694,-26.6786335702455 L 2.5277782139893694,-27.91320147148007 L 1.9923966280788212,-29.025642238544382 " />
        <path style="fill:none;stroke:#50514F;stroke-width:0.1px;stroke-linecap:square" d="M 2.5277782139893694,-27.91320147148007 L 2.5277782139893694,-29.147769372714635 L 3.063159799899918,-30.260210139778952 " />
        <path style="fill:none;stroke:#50514F;stroke-width:0.1px;stroke-linecap:square" d="M 2.5277782139893694,-29.147769372714635 L 2.5277782139893694,-30.382337273949204 L 1.9923966280788212,-31.494778041013518 L 1.0275565386728722,-32.2649997653461 " />
        <path style="fill:none;stroke:#50514F;stroke-width:0.1px;stroke-linecap:square" d="M 1.9923966280788212,-31.494778041013518 L 1.457015042168273,-32.60721880807783 L 1.457015042168273,-33.8417867093124 " />
        <path style="fill:none;stroke:#50514F;stroke-width:0.1px;stroke-linecap:square" d="M 1.457015042168273,-32.60721880807783 L 0.9216334562577247,-33.719659575142146 " />
        <path style="fill:none;stroke:#50514F;stroke-width:0.1px;stroke-linecap:square" d="M 2.5277782139893694,-30.382337273949204 L 2.5277782139893694,-31.61690517518377 L 1.9923966280788212,-32.72934594224809 " />
        <path style="fill:none;stroke:#50514F;stroke-width:0.1px;stroke-linecap:square" d="M 2.5277782139893694,-31.61690517518377 L 2.5277782139893694,-32.85147307641834 L 3.063159799899918,-33.96391384348265 " />
        <path style="fill:none;stroke:#50514F;stroke-width:0.1px;stroke-linecap:square" d="M 2.5277782139893694,-32.85147307641834 L 2.5277782139893694,-34.08604097765291 L 3.063159799899918,-35.19848174471722 L 3.063159799899918,-36.43304964595179 " />
        <path style="fill:none;stroke:#50514F;stroke-width:0.1px;stroke-linecap:square" d="M 3.063159799899918,-35.19848174471722 L 3.598541385810467,-36.310922511781534 L 4.563381475216415,-37.08114423611411 " />
        <path style="fill:none;stroke:#50514F;stroke-width:0.1px;stroke-linecap:square" d="M 3.598541385810467,-36.310922511781534 L 4.133922971721016,-37.42336327884585 " />
        <path style="fill:none;stroke:#50514F;stroke-width:0.1px;stroke-linecap:square" d="M 2.5277782139893694,-34.08604097765291 L 2.5277782139893694,-35.32060887888748 L 1.9923966280788212,-36.43304964595179 " />
        <path style="fill:none;stroke:#50514F;stroke-width:0.1px;stroke-linecap:square" d="M 2.5277782139893694,-35.32060887888748 L 2.5277782139893694,-36.55517678012204 L 3.063159799899918,-37.66761754718636 " />
        <path style="fill:none;stroke:#50514F;stroke-width:0.1px;stroke-linecap:square" d="M 2.5277782139893694,-36.55517678012204 L 2.5277782139893694,-37.78974468135661 " />
        <path style="fill:none;stroke:#50514F;stroke-width:0.1px;stroke-linecap:square" d="M 2.5277782139893694,-26.6786335702455 L 3.063159799899918,-27.791074337309816 L 3.063159799899918,-29.025642238544382 " />
        <path style="fill:none;stroke:#50514F;stroke-width:0.1px;stroke-linecap:square" d="M 3.063159799899918,-27.791074337309816 L 3.598541385810467,-28.90351510437413 L 4.563381475216415,-29.673736828706705 " />
        <path style="fill:none;stroke:#50514F;stroke-width:0.1px;stroke-linecap:square" d="M 3.598541385810467,-28.90351510437413 L 4.133922971721016,-30.015955871438443 L 4.133922971721016,-31.250523772673013 L 3.598541385810467,-32.36296453973733 " />
        <path style="fill:none;stroke:#50514F;stroke-width:0.1px;stroke-linecap:square" d="M 4.133922971721016,-31.250523772673013 L 4.133922971721016,-32.48509167390758 L 4.669304557631564,-33.5975324409719 " />
        <path style="fill:none;stroke:#50514F;stroke-width:0.1px;stroke-linecap:square" d="M 4.133922971721016,-32.48509167390758 L 4.133922971721016,-33.719659575142146 " />
        <path style="fill:none;stroke:#50514F;stroke-width:0.1px;stroke-linecap:square" d="M 4.133922971721016,-30.015955871438443 L 4.669304557631564,-31.12839663850276 L 4.669304557631564,-32.36296453973733 " />
        <path style="fill:none;stroke:#50514F;stroke-width:0.1px;stroke-linecap:square" d="M 4.669304557631564,-31.12839663850276 L 5.204686143542113,-32.24083740556708 L 6.169526232948062,-33.01105912989965 " />
        <path style="fill:none;stroke:#50514F;stroke-width:0.1px;stroke-linecap:square" d="M 5.204686143542113,-32.24083740556708 L 5.7400677294526625,-33.35327817263139 L 6.704907818858611,-34.12349989696396 L 7.240289404769159,-35.23594066402828 " />
        <path style="fill:none;stroke:#50514F;stroke-width:0.1px;stroke-linecap:square" d="M 6.704907818858611,-34.12349989696396 L 7.6697479082645605,-34.89372162129654 L 8.873156789982119,-35.16933904847055 " />
        <path style="fill:none;stroke:#50514F;stroke-width:0.1px;stroke-linecap:square" d="M 7.6697479082645605,-34.89372162129654 L 8.63458799767051,-35.663943345629114 " />
        <path style="fill:none;stroke:#50514F;stroke-width:0.1px;stroke-linecap:square" d="M 5.7400677294526625,-33.35327817263139 L 6.275449315363211,-34.465718939695705 L 6.275449315363211,-35.700286840930275 " />
        <path style="fill:none;stroke:#50514F;stroke-width:0.1px;stroke-linecap:square" d="M 6.275449315363211,-34.465718939695705 L 6.81083090127376,-35.57815970676002 L 7.775670990679708,-36.3483814310926 " />
        <path style="fill:none;stroke:#50514F;stroke-width:0.1px;stroke-linecap:square" d="M 6.81083090127376,-35.57815970676002 L 7.346212487184308,-36.69060047382433 L 8.311052576590257,-37.46082219815691 L 8.846434162500806,-38.573262965221225 " />
        <path style="fill:none;stroke:#50514F;stroke-width:0.1px;stroke-linecap:square" d="M 8.311052576590257,-37.46082219815691 L 9.275892665996206,-38.231043922489484 L 10.479301547713765,-38.50666134966349 " />
        <path style="fill:none;stroke:#50514F;stroke-width:0.1px;stroke-linecap:square" d="M 9.275892665996206,-38.231043922489484 L 10.240732755402156,-39.00126564682206 L 10.776114341312704,-40.113706413886376 L 10.776114341312704,-41.348274315120946 " />
        <path style="fill:none;stroke:#50514F;stroke-width:0.1px;stroke-linecap:square" d="M 10.776114341312704,-40.113706413886376 L 11.311495927223254,-41.22614718095069 L 12.276336016629203,-41.99636890528327 " />
        <path style="fill:none;stroke:#50514F;stroke-width:0.1px;stroke-linecap:square" d="M 11.311495927223254,-41.22614718095069 L 11.846877513133803,-42.338587948015004 " />
        <path style="fill:none;stroke:#50514F;stroke-width:0.1px;stroke-linecap:square" d="M 10.240732755402156,-39.00126564682206 L 11.205572844808106,-39.771487371154635 L 11.740954430718654,-40.88392813821895 " />
        <path style="fill:none;stroke:#50514F;stroke-width:0.1px;stroke-linecap:square" d="M 11.205572844808106,-39.771487371154635 L 12.170412934214054,-40.541709095487214 L 13.373821815931613,-40.81732652266122 " />
        <path style="fill:none;stroke:#50514F;stroke-width:0.1px;stroke-linecap:square" d="M 12.170412934214054,-40.541709095487214 L 13.135253023620004,-41.311930819819786 L 14.338661905337563,-41.5875482469938 L 15.303501994743513,-42.35776997132637 " />
        <path style="fill:none;stroke:#50514F;stroke-width:0.1px;stroke-linecap:square" d="M 14.338661905337563,-41.5875482469938 L 15.54207078705512,-41.8631656741678 L 16.745958878790383,-41.58964901044006 " />
        <path style="fill:none;stroke:#50514F;stroke-width:0.1px;stroke-linecap:square" d="M 15.54207078705512,-41.8631656741678 L 16.745479668772678,-42.13878310134181 " />
        <path style="fill:none;stroke:#50514F;stroke-width:0.1px;stroke-linecap:square" d="M 13.135253023620004,-41.311930819819786 L 14.100093113025954,-42.082152544152365 L 14.635474698936504,-43.19459331121668 " />
        <path style="fill:none;stroke:#50514F;stroke-width:0.1px;stroke-linecap:square" d="M 14.100093113025954,-42.082152544152365 L 15.064933202431904,-42.85237426848494 L 16.268342084149463,-43.12799169565895 " />
        <path style="fill:none;stroke:#50514F;stroke-width:0.1px;stroke-linecap:square" d="M 15.064933202431904,-42.85237426848494 L 16.029773291837852,-43.622595992817516 " />
        <path style="fill:none;stroke:#50514F;stroke-width:0.1px;stroke-linecap:square" d="M 7.346212487184308,-36.69060047382433 L 7.881594073094856,-37.803041240888646 L 7.881594073094856,-39.037609142123216 " />
        <path style="fill:none;stroke:#50514F;stroke-width:0.1px;stroke-linecap:square" d="M 7.881594073094856,-37.803041240888646 L 8.416975659005406,-38.91548200795296 L 9.381815748411354,-39.68570373228554 " />
        <path style="fill:none;stroke:#50514F;stroke-width:0.1px;stroke-linecap:square" d="M 8.416975659005406,-38.91548200795296 L 8.952357244915953,-40.02792277501728 L 8.952357244915953,-41.26249067625184 L 8.416975659005406,-42.374931443316164 " />
        <path style="fill:none;stroke:#50514F;stroke-width:0.1px;stroke-linecap:square" d="M 8.952357244915953,-41.26249067625184 L 8.952357244915953,-42.49705857748641 L 9.487738830826503,-43.60949934455073 " />
        <path style="fill:none;stroke:#50514F;stroke-width:0.1px;stroke-linecap:square" d="M 8.952357244915953,-42.49705857748641 L 8.952357244915953,-43.73162647872098 " />
        <path style="fill:none;stroke:#50514F;stroke-width:0.1px;stroke-linecap:square" d="M 8.952357244915953,-40.02792277501728 L 9.487738830826503,-41.140363542081595 L 9.487738830826503,-42.374931443316164 " />
        <path style="fill:none;stroke:#50514F;stroke-width:0.1px;stroke-linecap:square" d="M 9.487738830826503,-41.140363542081595 L 10.02312041673705,-42.25280430914591 L 10.987960506143,-43.02302603347849 " />
        <path style="fill:none;stroke:#50514F;stroke-width:0.1px;stroke-linecap:square" d="M 10.02312041673705,-42.25280430914591 L 10.5585020026476,-43.36524507621022 L 11.52334209205355,-44.1354668005428 L 12.058723677964098,-45.247907567607115 " />
        <path style="fill:none;stroke:#50514F;stroke-width:0.1px;stroke-linecap:square" d="M 11.52334209205355,-44.1354668005428 L 12.4881821814595,-44.90568852487537 L 13.691591063177057,-45.18130595204938 " />
        <path style="fill:none;stroke:#50514F;stroke-width:0.1px;stroke-linecap:square" d="M 12.4881821814595,-44.90568852487537 L 13.453022270865448,-45.67591024920795 " />
        <path style="fill:none;stroke:#50514F;stroke-width:0.1px;stroke-linecap:square" d="M 10.5585020026476,-43.36524507621022 L 11.09388358855815,-44.477685843274536 L 11.09388358855815,-45.712253744509106 " />
        <path style="fill:none;stroke:#50514F;stroke-width:0.1px;stroke-linecap:square" d="M 11.09388358855815,-44.477685843274536 L 11.629265174468697,-45.59012661033885 L 12.594105263874647,-46.36034833467143 " />
        <path style="fill:none;stroke:#50514F;stroke-width:0.1px;stroke-linecap:square" d="M 11.629265174468697,-45.59012661033885 L 12.164646760379247,-46.70256737740317 " />
        <path style="fill:none;stroke:#50514F;stroke-width:0.1px;stroke-linecap:square" d="M -2.2906560592055687,-16.666666666666664 L -2.2906560592055687,-17.901234567901234 L -2.8260376451161173,-19.013675334965548 " />
        <path style="fill:none;stroke:#50514F;stroke-width:0.1px;stroke-linecap:square" d="M -2.2906560592055687,-17.901234567901234 L -2.2906560592055687,-19.1358024691358 L -1.75527447329502,-20.248243236200118 " />
        <path style="fill:none;stroke:#50514F;stroke-width:0.1px;stroke-linecap:square" d="M -2.2906560592055687,-19.1358024691358 L -2.2906560592055687,-20.37037037037037 L -2.8260376451161173,-21.482811137434684 L -3.790877734522066,-22.25303286176726 " />
        <path style="fill:none;stroke:#50514F;stroke-width:0.1px;stroke-linecap:square" d="M -2.8260376451161173,-21.482811137434684 L -3.3614192310266655,-22.595251904498998 L -3.3614192310266655,-23.829819805733568 " />
        <path style="fill:none;stroke:#50514F;stroke-width:0.1px;stroke-linecap:square" d="M -3.3614192310266655,-22.595251904498998 L -3.8968008169372137,-23.707692671563315 " />
        <path style="fill:none;stroke:#50514F;stroke-width:0.1px;stroke-linecap:square" d="M -2.2906560592055687,-20.37037037037037 L -2.2906560592055687,-21.604938271604937 L -2.826037645116117,-22.71737903866925 " />
        <path style="fill:none;stroke:#50514F;stroke-width:0.1px;stroke-linecap:square" d="M -2.2906560592055687,-21.604938271604937 L -2.2906560592055687,-22.839506172839506 L -1.7552744732950198,-23.95194693990382 " />
        <path style="fill:none;stroke:#50514F;stroke-width:0.1px;stroke-linecap:square" d="M -2.2906560592055687,-22.839506172839506 L -2.2906560592055683,-24.074074074074073 L -1.7552744732950198,-25.186514841138386 L -1.7552744732950198,-26.421082742372956 " />
        <path style="fill:none;stroke:#50514F;stroke-width:0.1px;stroke-linecap:square" d="M -1.7552744732950198,-25.186514841138386 L -1.2198928873844712,-26.298955608202704 L -0.25505279797852226,-27.06917733253528 " />
        <path style="fill:none;stroke:#50514F;stroke-width:0.1px;stroke-linecap:square" d="M -1.2198928873844712,-26.298955608202704 L -0.6845113014739227,-27.411396375267017 " />
        <path style="fill:none;stroke:#50514F;stroke-width:0.1px;stroke-linecap:square" d="M -2.2906560592055683,-24.074074074074073 L -2.2906560592055683,-25.30864197530864 L -2.826037645116117,-26.421082742372956 " />
        <path style="fill:none;stroke:#50514F;stroke-width:0.1px;stroke-linecap:square" d="M -2.2906560592055683,-25.30864197530864 L -2.2906560592055683,-26.54320987654321 L -1.7552744732950198,-27.655650643607522 " />
        <path style="fill:none;stroke:#50514F;stroke-width:0.1px;stroke-linecap:square" d="M -2.2906560592055683,-26.54320987654321 L -2.2906560592055683,-27.777777777777775 L -2.826037645116117,-28.890218544842092 L -3.790877734522066,-29.660440269174668 " />
        <path style="fill:none;stroke:#50514F;stroke-width:0.1px;stroke-linecap:square" d="M -2.826037645116117,-28.890218544842092 L -3.361419231026665,-30.002659311906406 L -3.361419231026665,-31.237227213140972 " />
        <path style="fill:none;stroke:#50514F;stroke-width:0.1px;stroke-linecap:square" d="M -3.361419231026665,-30.002659311906406 L -3.8968008169372137,-31.11510007897072 L -4.861640906343162,-31.885321803303295 L -6.065049788060721,-32.160939230477304 " />
        <path style="fill:none;stroke:#50514F;stroke-width:0.1px;stroke-linecap:square" d="M -4.861640906343162,-31.885321803303295 L -5.826480995749112,-32.65554352763587 L -6.3618625816596595,-33.767984294700184 " />
        <path style="fill:none;stroke:#50514F;stroke-width:0.1px;stroke-linecap:square" d="M -5.826480995749112,-32.65554352763587 L -6.79132108515506,-33.42576525196845 " />
        <path style="fill:none;stroke:#50514F;stroke-width:0.1px;stroke-linecap:square" d="M -3.8968008169372137,-31.11510007897072 L -4.432182402847762,-32.22754084603503 L -5.397022492253711,-32.99776257036761 " />
        <path style="fill:none;stroke:#50514F;stroke-width:0.1px;stroke-linecap:square" d="M -4.432182402847762,-32.22754084603503 L -4.96756398875831,-33.33998161309935 L -4.96756398875831,-34.57454951433392 " />
        <path style="fill:none;stroke:#50514F;stroke-width:0.1px;stroke-linecap:square" d="M -4.96756398875831,-33.33998161309935 L -5.502945574668859,-34.45242238016367 L -5.502945574668859,-35.68699028139823 L -6.038327160579406,-36.79943104846255 " />
        <path style="fill:none;stroke:#50514F;stroke-width:0.1px;stroke-linecap:square" d="M -5.502945574668859,-35.68699028139823 L -5.502945574668859,-36.9215581826328 L -4.96756398875831,-38.033998949697114 " />
        <path style="fill:none;stroke:#50514F;stroke-width:0.1px;stroke-linecap:square" d="M -5.502945574668859,-36.9215581826328 L -5.502945574668859,-38.15612608386737 " />
        <path style="fill:none;stroke:#50514F;stroke-width:0.1px;stroke-linecap:square" d="M -5.502945574668859,-34.45242238016367 L -6.038327160579406,-35.56486314722798 L -7.0031672499853554,-36.335084871560554 " />
        <path style="fill:none;stroke:#50514F;stroke-width:0.1px;stroke-linecap:square" d="M -6.038327160579406,-35.56486314722798 L -6.573708746489954,-36.677303914292295 L -6.573708746489954,-37.911871815526865 " />
        <path style="fill:none;stroke:#50514F;stroke-width:0.1px;stroke-linecap:square" d="M -6.573708746489954,-36.677303914292295 L -7.109090332400503,-37.78974468135661 " />
        <path style="fill:none;stroke:#50514F;stroke-width:0.1px;stroke-linecap:square" d="M -2.2906560592055683,-27.777777777777775 L -2.290656059205568,-29.012345679012345 L -2.8260376451161164,-30.12478644607666 " />
        <path style="fill:none;stroke:#50514F;stroke-width:0.1px;stroke-linecap:square" d="M -2.290656059205568,-29.012345679012345 L -2.290656059205568,-30.24691358024691 L -1.7552744732950194,-31.35935434731123 " />
        <path style="fill:none;stroke:#50514F;stroke-width:0.1px;stroke-linecap:square" d="M -2.290656059205568,-30.24691358024691 L -2.290656059205568,-31.48148148148148 L -2.8260376451161164,-32.593922248545795 L -3.7908777345220654,-33.364143972878374 " />
        <path style="fill:none;stroke:#50514F;stroke-width:0.1px;stroke-linecap:square" d="M -2.8260376451161164,-32.593922248545795 L -3.361419231026665,-33.70636301561011 L -3.361419231026665,-34.94093091684468 " />
        <path style="fill:none;stroke:#50514F;stroke-width:0.1px;stroke-linecap:square" d="M -3.361419231026665,-33.70636301561011 L -3.8968008169372133,-34.81880378267442 " />
        <path style="fill:none;stroke:#50514F;stroke-width:0.1px;stroke-linecap:square" d="M -2.290656059205568,-31.48148148148148 L -2.290656059205568,-32.71604938271605 L -2.8260376451161164,-33.828490149780365 " />
        <path style="fill:none;stroke:#50514F;stroke-width:0.1px;stroke-linecap:square" d="M -2.290656059205568,-32.71604938271605 L -2.290656059205568,-33.95061728395061 L -1.7552744732950192,-35.06305805101493 " />
        <path style="fill:none;stroke:#50514F;stroke-width:0.1px;stroke-linecap:square" d="M -2.290656059205568,-33.95061728395061 L -2.290656059205568,-35.18518518518518 L -1.7552744732950192,-36.2976259522495 L -1.7552744732950192,-37.53219385348407 " />
        <path style="fill:none;stroke:#50514F;stroke-width:0.1px;stroke-linecap:square" d="M -1.7552744732950192,-36.2976259522495 L -1.2198928873844705,-37.41006671931381 L -0.25505279797852143,-38.18028844364639 " />
        <path style="fill:none;stroke:#50514F;stroke-width:0.1px;stroke-linecap:square" d="M -1.2198928873844705,-37.41006671931381 L -0.6845113014739219,-38.522507486378124 " />
        <path style="fill:none;stroke:#50514F;stroke-width:0.1px;stroke-linecap:square" d="M -2.290656059205568,-35.18518518518518 L -2.290656059205568,-36.41975308641975 L -2.8260376451161164,-37.53219385348407 " />
        <path style="fill:none;stroke:#50514F;stroke-width:0.1px;stroke-linecap:square" d="M -2.290656059205568,-36.41975308641975 L -2.2906560592055674,-37.654320987654316 L -1.755274473295019,-38.76676175471864 " />
        <path style="fill:none;stroke:#50514F;stroke-width:0.1px;stroke-linecap:square" d="M -2.2906560592055674,-37.654320987654316 L -2.2906560592055674,-38.888888888888886 L -1.755274473295019,-40.0013296559532 L -1.755274473295019,-41.23589755718777 " />
        <path style="fill:none;stroke:#50514F;stroke-width:0.1px;stroke-linecap:square" d="M -1.755274473295019,-40.0013296559532 L -1.2198928873844703,-41.11377042301751 L -0.25505279797852143,-41.88399214735009 " />
        <path style="fill:none;stroke:#50514F;stroke-width:0.1px;stroke-linecap:square" d="M -1.2198928873844703,-41.11377042301751 L -0.6845113014739219,-42.226211190081834 L -0.6845113014739219,-43.4607790913164 L -1.2198928873844703,-44.57321985838072 " />
        <path style="fill:none;stroke:#50514F;stroke-width:0.1px;stroke-linecap:square" d="M -0.6845113014739219,-43.4607790913164 L -0.6845113014739219,-44.69534699255097 L -0.1491297155633734,-45.80778775961528 " />
        <path style="fill:none;stroke:#50514F;stroke-width:0.1px;stroke-linecap:square" d="M -0.6845113014739219,-44.69534699255097 L -0.6845113014739219,-45.929914893785536 " />
        <path style="fill:none;stroke:#50514F;stroke-width:0.1px;stroke-linecap:square" d="M -0.6845113014739219,-42.226211190081834 L -0.1491297155633734,-43.33865195714615 L -0.1491297155633734,-44.57321985838072 " />
        <path style="fill:none;stroke:#50514F;stroke-width:0.1px;stroke-linecap:square" d="M -0.1491297155633734,-43.33865195714615 L 0.3862518703471754,-44.45109272421046 L 1.3510919597531243,-45.22131444854303 " />
        <path style="fill:none;stroke:#50514F;stroke-width:0.1px;stroke-linecap:square" d="M 0.3862518703471754,-44.45109272421046 L 0.9216334562577242,-45.563533491274775 L 1.8864735456636732,-46.333755215607354 L 2.4218551315742216,-47.44619598267167 " />
        <path style="fill:none;stroke:#50514F;stroke-width:0.1px;stroke-linecap:square" d="M 1.8864735456636732,-46.333755215607354 L 2.851313635069622,-47.103976939939926 L 4.054722516787179,-47.37959436711393 " />
        <path style="fill:none;stroke:#50514F;stroke-width:0.1px;stroke-linecap:square" d="M 2.851313635069622,-47.103976939939926 L 3.8161537244755706,-47.874198664272505 " />
        <path style="fill:none;stroke:#50514F;stroke-width:0.1px;stroke-linecap:square" d="M 0.9216334562577242,-45.563533491274775 L 1.457015042168273,-46.67597425833909 L 1.457015042168273,-47.91054215957366 " />
        <path style="fill:none;stroke:#50514F;stroke-width:0.1px;stroke-linecap:square" d="M 1.457015042168273,-46.67597425833909 L 1.9923966280788217,-47.7884150254034 L 2.957236717484771,-48.55863674973598 " />
        <path style="fill:none;stroke:#50514F;stroke-width:0.1px;stroke-linecap:square" d="M 1.9923966280788217,-47.7884150254034 L 2.5277782139893707,-48.90085579246772 " />
        <path style="fill:none;stroke:#50514F;stroke-width:0.1px;stroke-linecap:square" d="M -2.2906560592055674,-38.888888888888886 L -2.2906560592055674,-40.123456790123456 L -2.8260376451161155,-41.23589755718777 " />
        <path style="fill:none;stroke:#50514F;stroke-width:0.1px;stroke-linecap:square" d="M -2.2906560592055674,-40.123456790123456 L -2.2906560592055674,-41.358024691358025 L -1.7552744732950187,-42.47046545842234 " />
        <path style="fill:none;stroke:#50514F;stroke-width:0.1px;stroke-linecap:square" d="M -2.2906560592055674,-41.358024691358025 L -2.2906560592055674,-42.59259259259259 L -2.8260376451161155,-43.7050333596569 L -3.7908777345220646,-44.47525508398948 " />
        <path style="fill:none;stroke:#50514F;stroke-width:0.1px;stroke-linecap:square" d="M -2.8260376451161155,-43.7050333596569 L -3.3614192310266637,-44.81747412672122 L -3.3614192310266637,-46.052042027955785 " />
        <path style="fill:none;stroke:#50514F;stroke-width:0.1px;stroke-linecap:square" d="M -3.3614192310266637,-44.81747412672122 L -3.896800816937213,-45.929914893785536 " />
        <path style="fill:none;stroke:#50514F;stroke-width:0.1px;stroke-linecap:square" d="M -2.2906560592055674,-42.59259259259259 L -2.2906560592055674,-43.82716049382716 L -2.8260376451161155,-44.93960126089147 " />
        <path style="fill:none;stroke:#50514F;stroke-width:0.1px;stroke-linecap:square" d="M -2.2906560592055674,-43.82716049382716 L -2.2906560592055674,-45.06172839506173 L -1.7552744732950187,-46.17416916212604 " />
        <path style="fill:none;stroke:#50514F;stroke-width:0.1px;stroke-linecap:square" d="M -2.2906560592055674,-45.06172839506173 L -2.290656059205567,-46.29629629629629 L -1.7552744732950183,-47.40873706336061 L -1.7552744732950183,-48.643304964595174 " />
        <path style="fill:none;stroke:#50514F;stroke-width:0.1px;stroke-linecap:square" d="M -1.7552744732950183,-47.40873706336061 L -1.2198928873844699,-48.521177830424925 L -0.2550527979785209,-49.2913995547575 " />
        <path style="fill:none;stroke:#50514F;stroke-width:0.1px;stroke-linecap:square" d="M -1.2198928873844699,-48.521177830424925 L -0.6845113014739214,-49.63361859748924 " />
        <path style="fill:none;stroke:#50514F;stroke-width:0.1px;stroke-linecap:square" d="M -2.290656059205567,-46.29629629629629 L -2.290656059205567,-47.53086419753086 L -2.826037645116115,-48.643304964595174 " />
        <path style="fill:none;stroke:#50514F;stroke-width:0.1px;stroke-linecap:square" d="M -2.290656059205567,-47.53086419753086 L -2.290656059205567,-48.76543209876543 L -1.7552744732950183,-49.877872865829744 " />
        <path style="fill:none;stroke:#50514F;stroke-width:0.1px;stroke-linecap:square" d="M -2.290656059205567,-48.76543209876543 L -2.290656059205567,-50.0 " />
    </g>
</svg>
