<?xml version="1.0" encoding="UTF-8"?>
<!DOCTYPE svg PUBLIC "-//W3C//DTD SVG 1.1//EN"
    "http://www.w3.org/Graphics/SVG/1.1/DTD/svg11.dtd">

<svg xmlns="http://www.w3.org/2000/svg" xmlns:xlink="http://www.w3.org/1999/xlink" version="1.1" width="224.06070946840396" height="500" viewBox="-7.256770239812555 -34.1 16.670116784449256 37.2">
    <g>
        <rect x="-7.256770239812555" y="-34.1" width="16.670116784449256" height="37.2" fill="#CBD4C2" />
        <path style="fill:none;stroke:#50514F;stroke-width:0.1px;stroke-linecap:square" d="M 0.0,0.0 L 6.123233995736766e-17,-1.0 L -0.3420201433256686,-1.9396926207859084 " />
        <path style="fill:none;stroke:#50514F;stroke-width:0.1px;stroke-linecap:square" d="M 6.123233995736766e-17,-1.0 L 1.2246467991473532e-16,-2.0 L 0.3420201433256689,-2.9396926207859084 " />
        <path style="fill:none;stroke:#50514F;stroke-width:0.1px;stroke-linecap:square" d="M 1.2246467991473532e-16,-2.0 L 1.8369701987210297e-16,-3.0 " />
        <path style="fill:none;stroke:#50514F;stroke-width:0.1px;stroke-linecap:square" d="M 1.2246467991473532e-16,-2.0 L -0.34202014332566855,-2.9396926207859084 L -0.9848077530122078,-3.7057370639048868 " />
        <path style="fill:none;stroke:#50514F;stroke-width:0.1px;stroke-linecap:square" d="M -0.34202014332566855,-2.9396926207859084 L -0.6840402866513372,-3.879385241571817 L -0.6840402866513371,-4.879385241571817 " />
        <path style="fill:none;stroke:#50514F;stroke-width:0.1px;stroke-linecap:square" d="M -0.6840402866513372,-3.879385241571817 L -1.0260604299770058,-4.819077862357725 " />
        <path style="fill:none;stroke:#50514F;stroke-width:0.1px;stroke-linecap:square" d="M 1.2246467991473532e-16,-2.0 L 1.8369701987210297e-16,-3.0 L -0.3420201433256685,-3.9396926207859084 " />
        <path style="fill:none;stroke:#50514F;stroke-width:0.1px;stroke-linecap:square" d="M 1.8369701987210297e-16,-3.0 L 2.4492935982947064e-16,-4.0 L 0.342020143325669,-4.939692620785909 " />
        <path style="fill:none;stroke:#50514F;stroke-width:0.1px;stroke-linecap:square" d="M 2.4492935982947064e-16,-4.0 L 3.061616997868383e-16,-5.0 " />
        <path style="fill:none;stroke:#50514F;stroke-width:0.1px;stroke-linecap:square" d="M 2.4492935982947064e-16,-4.0 L 0.342020143325669,-4.939692620785909 L 0.34202014332566905,-5.939692620785909 " />
        <path style="fill:none;stroke:#50514F;stroke-width:0.1px;stroke-linecap:square" d="M 0.342020143325669,-4.939692620785909 L 0.6840402866513378,-5.879385241571818 L 1.3268278963378772,-6.645429684690796 " />
        <path style="fill:none;stroke:#50514F;stroke-width:0.1px;stroke-linecap:square" d="M 0.6840402866513378,-5.879385241571818 L 1.0260604299770066,-6.819077862357727 " />
        <path style="fill:none;stroke:#50514F;stroke-width:0.1px;stroke-linecap:square" d="M 2.4492935982947064e-16,-4.0 L 3.061616997868383e-16,-5.0 L -0.3420201433256683,-5.939692620785909 " />
        <path style="fill:none;stroke:#50514F;stroke-width:0.1px;stroke-linecap:square" d="M 3.061616997868383e-16,-5.0 L 3.67394039744206e-16,-6.0 L 0.34202014332566916,-6.939692620785909 " />
        <path style="fill:none;stroke:#50514F;stroke-width:0.1px;stroke-linecap:square" d="M 3.67394039744206e-16,-6.0 L 4.2862637970157366e-16,-7.0 " />
        <path style="fill:none;stroke:#50514F;stroke-width:0.1px;stroke-linecap:square" d="M 2.4492935982947064e-16,-4.0 L -0.34202014332566844,-4.939692620785909 L -0.9848077530122077,-5.705737063904887 " />
        <path style="fill:none;stroke:#50514F;stroke-width:0.1px;stroke-linecap:square" d="M -0.34202014332566844,-4.939692620785909 L -0.6840402866513371,-5.879385241571818 L -0.6840402866513371,-6.879385241571818 " />
        <path style="fill:none;stroke:#50514F;stroke-width:0.1px;stroke-linecap:square" d="M -0.6840402866513371,-5.879385241571818 L -1.0260604299770058,-6.819077862357727 " />
        <path style="fill:none;stroke:#50514F;stroke-width:0.1px;stroke-linecap:square" d="M -0.6840402866513371,-5.879385241571818 L -1.3268278963378763,-6.645429684690796 L -2.192853300122315,-7.145429684690796 " />
        <path style="fill:none;stroke:#50514F;stroke-width:0.1px;stroke-linecap:square" d="M -1.3268278963378763,-6.645429684690796 L -1.9696155060244156,-7.4114741278097735 L -2.3116356493500843,-8.351166748595682 " />
        <path style="fill:none;stroke:#50514F;stroke-width:0.1px;stroke-linecap:square" d="M -1.9696155060244156,-7.4114741278097735 L -2.612403115710955,-8.177518570928752 " />
        <path style="fill:none;stroke:#50514F;stroke-width:0.1px;stroke-linecap:square" d="M -0.6840402866513371,-5.879385241571818 L -1.0260604299770058,-6.819077862357727 L -1.668848039663545,-7.5851223054767045 " />
        <path style="fill:none;stroke:#50514F;stroke-width:0.1px;stroke-linecap:square" d="M -1.0260604299770058,-6.819077862357727 L -1.3680805733026744,-7.7587704831436355 L -1.3680805733026744,-8.758770483143635 " />
        <path style="fill:none;stroke:#50514F;stroke-width:0.1px;stroke-linecap:square" d="M -1.3680805733026744,-7.7587704831436355 L -1.710100716628343,-8.698463103929544 " />
        <path style="fill:none;stroke:#50514F;stroke-width:0.1px;stroke-linecap:square" d="M -1.3680805733026744,-7.7587704831436355 L -1.3680805733026744,-8.758770483143635 L -1.710100716628343,-9.698463103929544 " />
        <path style="fill:none;stroke:#50514F;stroke-width:0.1px;stroke-linecap:square" d="M -1.3680805733026744,-8.758770483143635 L -1.3680805733026744,-9.758770483143635 L -1.0260604299770058,-10.698463103929544 " />
        <path style="fill:none;stroke:#50514F;stroke-width:0.1px;stroke-linecap:square" d="M -1.3680805733026744,-9.758770483143635 L -1.3680805733026744,-10.758770483143635 " />
        <path style="fill:none;stroke:#50514F;stroke-width:0.1px;stroke-linecap:square" d="M -1.3680805733026744,-7.7587704831436355 L -1.710100716628343,-8.698463103929544 L -2.3528883263148823,-9.464507547048523 " />
        <path style="fill:none;stroke:#50514F;stroke-width:0.1px;stroke-linecap:square" d="M -1.710100716628343,-8.698463103929544 L -2.0521208599540115,-9.638155724715453 L -2.0521208599540115,-10.638155724715453 " />
        <path style="fill:none;stroke:#50514F;stroke-width:0.1px;stroke-linecap:square" d="M -2.0521208599540115,-9.638155724715453 L -2.39414100327968,-10.577848345501362 " />
        <path style="fill:none;stroke:#50514F;stroke-width:0.1px;stroke-linecap:square" d="M 2.4492935982947064e-16,-4.0 L 3.061616997868383e-16,-5.0 L -0.3420201433256683,-5.939692620785909 " />
        <path style="fill:none;stroke:#50514F;stroke-width:0.1px;stroke-linecap:square" d="M 3.061616997868383e-16,-5.0 L 3.67394039744206e-16,-6.0 L 0.34202014332566916,-6.939692620785909 " />
        <path style="fill:none;stroke:#50514F;stroke-width:0.1px;stroke-linecap:square" d="M 3.67394039744206e-16,-6.0 L 4.2862637970157366e-16,-7.0 " />
        <path style="fill:none;stroke:#50514F;stroke-width:0.1px;stroke-linecap:square" d="M 3.67394039744206e-16,-6.0 L -0.34202014332566827,-6.939692620785909 L -0.9848077530122075,-7.705737063904887 " />
        <path style="fill:none;stroke:#50514F;stroke-width:0.1px;stroke-linecap:square" d="M -0.34202014332566827,-6.939692620785909 L -0.6840402866513369,-7.879385241571818 L -0.6840402866513369,-8.879385241571818 " />
        <path style="fill:none;stroke:#50514F;stroke-width:0.1px;stroke-linecap:square" d="M -0.6840402866513369,-7.879385241571818 L -1.0260604299770055,-8.819077862357727 " />
        <path style="fill:none;stroke:#50514F;stroke-width:0.1px;stroke-linecap:square" d="M 3.67394039744206e-16,-6.0 L 4.2862637970157366e-16,-7.0 L -0.3420201433256682,-7.939692620785909 " />
        <path style="fill:none;stroke:#50514F;stroke-width:0.1px;stroke-linecap:square" d="M 4.2862637970157366e-16,-7.0 L 4.898587196589413e-16,-8.0 L 0.34202014332566927,-8.939692620785909 " />
        <path style="fill:none;stroke:#50514F;stroke-width:0.1px;stroke-linecap:square" d="M 4.898587196589413e-16,-8.0 L 5.51091059616309e-16,-9.0 " />
        <path style="fill:none;stroke:#50514F;stroke-width:0.1px;stroke-linecap:square" d="M 4.898587196589413e-16,-8.0 L 0.34202014332566927,-8.939692620785909 L 0.3420201433256693,-9.939692620785909 " />
        <path style="fill:none;stroke:#50514F;stroke-width:0.1px;stroke-linecap:square" d="M 0.34202014332566927,-8.939692620785909 L 0.684040286651338,-9.879385241571818 L 1.3268278963378775,-10.645429684690797 " />
        <path style="fill:none;stroke:#50514F;stroke-width:0.1px;stroke-linecap:square" d="M 0.684040286651338,-9.879385241571818 L 1.0260604299770066,-10.819077862357727 " />
        <path style="fill:none;stroke:#50514F;stroke-width:0.1px;stroke-linecap:square" d="M 4.898587196589413e-16,-8.0 L 5.51091059616309e-16,-9.0 L -0.3420201433256681,-9.939692620785909 " />
        <path style="fill:none;stroke:#50514F;stroke-width:0.1px;stroke-linecap:square" d="M 5.51091059616309e-16,-9.0 L 6.123233995736766e-16,-10.0 L 0.3420201433256694,-10.939692620785909 " />
        <path style="fill:none;stroke:#50514F;stroke-width:0.1px;stroke-linecap:square" d="M 6.123233995736766e-16,-10.0 L 6.735557395310443e-16,-11.0 " />
        <path style="fill:none;stroke:#50514F;stroke-width:0.1px;stroke-linecap:square" d="M 4.898587196589413e-16,-8.0 L 0.34202014332566927,-8.939692620785909 L 0.3420201433256693,-9.939692620785909 " />
        <path style="fill:none;stroke:#50514F;stroke-width:0.1px;stroke-linecap:square" d="M 0.34202014332566927,-8.939692620785909 L 0.684040286651338,-9.879385241571818 L 1.3268278963378775,-10.645429684690797 " />
        <path style="fill:none;stroke:#50514F;stroke-width:0.1px;stroke-linecap:square" d="M 0.684040286651338,-9.879385241571818 L 1.0260604299770066,-10.819077862357727 " />
        <path style="fill:none;stroke:#50514F;stroke-width:0.1px;stroke-linecap:square" d="M 0.684040286651338,-9.879385241571818 L 0.684040286651338,-10.879385241571818 L 0.3420201433256693,-11.819077862357727 " />
        <path style="fill:none;stroke:#50514F;stroke-width:0.1px;stroke-linecap:square" d="M 0.684040286651338,-10.879385241571818 L 0.684040286651338,-11.879385241571818 L 1.0260604299770066,-12.819077862357727 " />
        <path style="fill:none;stroke:#50514F;stroke-width:0.1px;stroke-linecap:square" d="M 0.684040286651338,-11.879385241571818 L 0.684040286651338,-12.879385241571818 " />
        <path style="fill:none;stroke:#50514F;stroke-width:0.1px;stroke-linecap:square" d="M 0.684040286651338,-9.879385241571818 L 1.0260604299770066,-10.819077862357727 L 1.0260604299770066,-11.819077862357727 " />
        <path style="fill:none;stroke:#50514F;stroke-width:0.1px;stroke-linecap:square" d="M 1.0260604299770066,-10.819077862357727 L 1.3680805733026755,-11.758770483143635 L 2.010868182989215,-12.524814926262614 " />
        <path style="fill:none;stroke:#50514F;stroke-width:0.1px;stroke-linecap:square" d="M 1.3680805733026755,-11.758770483143635 L 1.7101007166283444,-12.698463103929544 " />
        <path style="fill:none;stroke:#50514F;stroke-width:0.1px;stroke-linecap:square" d="M 1.3680805733026755,-11.758770483143635 L 2.010868182989215,-12.524814926262614 L 2.352888326314884,-13.464507547048523 " />
        <path style="fill:none;stroke:#50514F;stroke-width:0.1px;stroke-linecap:square" d="M 2.010868182989215,-12.524814926262614 L 2.653655792675755,-13.290859369381593 L 3.5196811964601937,-13.790859369381593 " />
        <path style="fill:none;stroke:#50514F;stroke-width:0.1px;stroke-linecap:square" d="M 2.653655792675755,-13.290859369381593 L 3.2964434023622946,-14.056903812500572 " />
        <path style="fill:none;stroke:#50514F;stroke-width:0.1px;stroke-linecap:square" d="M 1.3680805733026755,-11.758770483143635 L 1.7101007166283444,-12.698463103929544 L 1.7101007166283444,-13.698463103929544 " />
        <path style="fill:none;stroke:#50514F;stroke-width:0.1px;stroke-linecap:square" d="M 1.7101007166283444,-12.698463103929544 L 2.0521208599540133,-13.638155724715453 L 2.694908469640553,-14.404200167834432 " />
        <path style="fill:none;stroke:#50514F;stroke-width:0.1px;stroke-linecap:square" d="M 2.0521208599540133,-13.638155724715453 L 2.394141003279682,-14.577848345501362 " />
        <path style="fill:none;stroke:#50514F;stroke-width:0.1px;stroke-linecap:square" d="M 4.898587196589413e-16,-8.0 L 5.51091059616309e-16,-9.0 L -0.3420201433256681,-9.939692620785909 " />
        <path style="fill:none;stroke:#50514F;stroke-width:0.1px;stroke-linecap:square" d="M 5.51091059616309e-16,-9.0 L 6.123233995736766e-16,-10.0 L 0.3420201433256694,-10.939692620785909 " />
        <path style="fill:none;stroke:#50514F;stroke-width:0.1px;stroke-linecap:square" d="M 6.123233995736766e-16,-10.0 L 6.735557395310443e-16,-11.0 " />
        <path style="fill:none;stroke:#50514F;stroke-width:0.1px;stroke-linecap:square" d="M 6.123233995736766e-16,-10.0 L -0.34202014332566805,-10.939692620785909 L -0.9848077530122072,-11.705737063904888 " />
        <path style="fill:none;stroke:#50514F;stroke-width:0.1px;stroke-linecap:square" d="M -0.34202014332566805,-10.939692620785909 L -0.6840402866513366,-11.879385241571818 L -0.6840402866513366,-12.879385241571818 " />
        <path style="fill:none;stroke:#50514F;stroke-width:0.1px;stroke-linecap:square" d="M -0.6840402866513366,-11.879385241571818 L -1.0260604299770053,-12.819077862357727 " />
        <path style="fill:none;stroke:#50514F;stroke-width:0.1px;stroke-linecap:square" d="M 6.123233995736766e-16,-10.0 L 6.735557395310443e-16,-11.0 L -0.342020143325668,-11.939692620785909 " />
        <path style="fill:none;stroke:#50514F;stroke-width:0.1px;stroke-linecap:square" d="M 6.735557395310443e-16,-11.0 L 7.34788079488412e-16,-12.0 L 0.3420201433256695,-12.939692620785909 " />
        <path style="fill:none;stroke:#50514F;stroke-width:0.1px;stroke-linecap:square" d="M 7.34788079488412e-16,-12.0 L 7.960204194457796e-16,-13.0 " />
        <path style="fill:none;stroke:#50514F;stroke-width:0.1px;stroke-linecap:square" d="M 7.34788079488412e-16,-12.0 L 0.3420201433256695,-12.939692620785909 L 0.34202014332566955,-13.939692620785909 " />
        <path style="fill:none;stroke:#50514F;stroke-width:0.1px;stroke-linecap:square" d="M 0.3420201433256695,-12.939692620785909 L 0.6840402866513382,-13.879385241571818 L 1.3268278963378777,-14.645429684690797 " />
        <path style="fill:none;stroke:#50514F;stroke-width:0.1px;stroke-linecap:square" d="M 0.6840402866513382,-13.879385241571818 L 1.026060429977007,-14.819077862357727 " />
        <path style="fill:none;stroke:#50514F;stroke-width:0.1px;stroke-linecap:square" d="M 7.34788079488412e-16,-12.0 L 7.960204194457796e-16,-13.0 L -0.3420201433256679,-13.939692620785909 " />
        <path style="fill:none;stroke:#50514F;stroke-width:0.1px;stroke-linecap:square" d="M 7.960204194457796e-16,-13.0 L 8.572527594031473e-16,-14.0 L 0.3420201433256696,-14.939692620785909 " />
        <path style="fill:none;stroke:#50514F;stroke-width:0.1px;stroke-linecap:square" d="M 8.572527594031473e-16,-14.0 L 9.18485099360515e-16,-15.0 " />
        <path style="fill:none;stroke:#50514F;stroke-width:0.1px;stroke-linecap:square" d="M 4.898587196589413e-16,-8.0 L -0.34202014332566816,-8.939692620785909 L -0.9848077530122075,-9.705737063904888 " />
        <path style="fill:none;stroke:#50514F;stroke-width:0.1px;stroke-linecap:square" d="M -0.34202014332566816,-8.939692620785909 L -0.6840402866513369,-9.879385241571818 L -0.6840402866513369,-10.879385241571818 " />
        <path style="fill:none;stroke:#50514F;stroke-width:0.1px;stroke-linecap:square" d="M -0.6840402866513369,-9.879385241571818 L -1.0260604299770055,-10.819077862357727 " />
        <path style="fill:none;stroke:#50514F;stroke-width:0.1px;stroke-linecap:square" d="M -0.6840402866513369,-9.879385241571818 L -1.3268278963378761,-10.645429684690797 L -2.192853300122315,-11.145429684690797 " />
        <path style="fill:none;stroke:#50514F;stroke-width:0.1px;stroke-linecap:square" d="M -1.3268278963378761,-10.645429684690797 L -1.9696155060244154,-11.411474127809775 L -2.311635649350084,-12.351166748595684 " />
        <path style="fill:none;stroke:#50514F;stroke-width:0.1px;stroke-linecap:square" d="M -1.9696155060244154,-11.411474127809775 L -2.6124031157109546,-12.177518570928754 " />
        <path style="fill:none;stroke:#50514F;stroke-width:0.1px;stroke-linecap:square" d="M -0.6840402866513369,-9.879385241571818 L -1.0260604299770055,-10.819077862357727 L -1.6688480396635448,-11.585122305476705 " />
        <path style="fill:none;stroke:#50514F;stroke-width:0.1px;stroke-linecap:square" d="M -1.0260604299770055,-10.819077862357727 L -1.3680805733026742,-11.758770483143635 L -1.3680805733026742,-12.758770483143635 " />
        <path style="fill:none;stroke:#50514F;stroke-width:0.1px;stroke-linecap:square" d="M -1.3680805733026742,-11.758770483143635 L -1.7101007166283428,-12.698463103929544 " />
        <path style="fill:none;stroke:#50514F;stroke-width:0.1px;stroke-linecap:square" d="M -1.3680805733026742,-11.758770483143635 L -1.3680805733026742,-12.758770483143635 L -1.7101007166283428,-13.698463103929544 " />
        <path style="fill:none;stroke:#50514F;stroke-width:0.1px;stroke-linecap:square" d="M -1.3680805733026742,-12.758770483143635 L -1.3680805733026742,-13.758770483143635 L -1.0260604299770053,-14.698463103929544 " />
        <path style="fill:none;stroke:#50514F;stroke-width:0.1px;stroke-linecap:square" d="M -1.3680805733026742,-13.758770483143635 L -1.3680805733026742,-14.758770483143635 " />
        <path style="fill:none;stroke:#50514F;stroke-width:0.1px;stroke-linecap:square" d="M -1.3680805733026742,-11.758770483143635 L -1.7101007166283428,-12.698463103929544 L -2.352888326314882,-13.464507547048523 " />
        <path style="fill:none;stroke:#50514F;stroke-width:0.1px;stroke-linecap:square" d="M -1.7101007166283428,-12.698463103929544 L -2.0521208599540115,-13.638155724715453 L -2.0521208599540115,-14.638155724715453 " />
        <path style="fill:none;stroke:#50514F;stroke-width:0.1px;stroke-linecap:square" d="M -2.0521208599540115,-13.638155724715453 L -2.39414100327968,-14.577848345501362 " />
        <path style="fill:none;stroke:#50514F;stroke-width:0.1px;stroke-linecap:square" d="M -1.3680805733026742,-11.758770483143635 L -2.0108681829892134,-12.524814926262614 L -2.876893586773652,-13.024814926262614 " />
        <path style="fill:none;stroke:#50514F;stroke-width:0.1px;stroke-linecap:square" d="M -2.0108681829892134,-12.524814926262614 L -2.6536557926757527,-13.290859369381593 L -2.9956759360014216,-14.230551990167502 " />
        <path style="fill:none;stroke:#50514F;stroke-width:0.1px;stroke-linecap:square" d="M -2.6536557926757527,-13.290859369381593 L -3.296443402362292,-14.056903812500572 " />
        <path style="fill:none;stroke:#50514F;stroke-width:0.1px;stroke-linecap:square" d="M -2.6536557926757527,-13.290859369381593 L -3.5196811964601915,-13.790859369381593 L -4.5044889494724,-13.964507547048523 " />
        <path style="fill:none;stroke:#50514F;stroke-width:0.1px;stroke-linecap:square" d="M -3.5196811964601915,-13.790859369381593 L -4.38570660024463,-14.290859369381593 L -5.02849420993117,-15.056903812500572 " />
        <path style="fill:none;stroke:#50514F;stroke-width:0.1px;stroke-linecap:square" d="M -4.38570660024463,-14.290859369381593 L -5.251732004029068,-14.790859369381593 " />
        <path style="fill:none;stroke:#50514F;stroke-width:0.1px;stroke-linecap:square" d="M -2.6536557926757527,-13.290859369381593 L -3.296443402362292,-14.056903812500572 L -4.16246880614673,-14.556903812500572 " />
        <path style="fill:none;stroke:#50514F;stroke-width:0.1px;stroke-linecap:square" d="M -3.296443402362292,-14.056903812500572 L -3.939231012048831,-14.82294825561955 L -4.2812511553745,-15.76264087640546 " />
        <path style="fill:none;stroke:#50514F;stroke-width:0.1px;stroke-linecap:square" d="M -3.939231012048831,-14.82294825561955 L -4.5820186217353704,-15.58899269873853 " />
        <path style="fill:none;stroke:#50514F;stroke-width:0.1px;stroke-linecap:square" d="M -3.939231012048831,-14.82294825561955 L -4.2812511553745,-15.76264087640546 L -4.92403876506104,-16.52868531952444 " />
        <path style="fill:none;stroke:#50514F;stroke-width:0.1px;stroke-linecap:square" d="M -4.2812511553745,-15.76264087640546 L -4.6232712987001685,-16.70233349719137 L -4.6232712987001685,-17.70233349719137 " />
        <path style="fill:none;stroke:#50514F;stroke-width:0.1px;stroke-linecap:square" d="M -4.6232712987001685,-16.70233349719137 L -4.965291442025837,-17.642026117977277 " />
        <path style="fill:none;stroke:#50514F;stroke-width:0.1px;stroke-linecap:square" d="M -3.939231012048831,-14.82294825561955 L -4.5820186217353704,-15.58899269873853 L -5.448044025519809,-16.08899269873853 " />
        <path style="fill:none;stroke:#50514F;stroke-width:0.1px;stroke-linecap:square" d="M -4.5820186217353704,-15.58899269873853 L -5.22480623142191,-16.35503714185751 L -5.566826374747579,-17.294729762643417 " />
        <path style="fill:none;stroke:#50514F;stroke-width:0.1px;stroke-linecap:square" d="M -5.22480623142191,-16.35503714185751 L -5.86759384110845,-17.121081584976487 " />
        <path style="fill:none;stroke:#50514F;stroke-width:0.1px;stroke-linecap:square" d="M -1.3680805733026742,-11.758770483143635 L -1.7101007166283428,-12.698463103929544 L -2.352888326314882,-13.464507547048523 " />
        <path style="fill:none;stroke:#50514F;stroke-width:0.1px;stroke-linecap:square" d="M -1.7101007166283428,-12.698463103929544 L -2.0521208599540115,-13.638155724715453 L -2.0521208599540115,-14.638155724715453 " />
        <path style="fill:none;stroke:#50514F;stroke-width:0.1px;stroke-linecap:square" d="M -2.0521208599540115,-13.638155724715453 L -2.39414100327968,-14.577848345501362 " />
        <path style="fill:none;stroke:#50514F;stroke-width:0.1px;stroke-linecap:square" d="M -2.0521208599540115,-13.638155724715453 L -2.6949084696405508,-14.404200167834432 L -3.5609338734249896,-14.904200167834432 " />
        <path style="fill:none;stroke:#50514F;stroke-width:0.1px;stroke-linecap:square" d="M -2.6949084696405508,-14.404200167834432 L -3.33769607932709,-15.17024461095341 L -3.6797162226527584,-16.10993723173932 " />
        <path style="fill:none;stroke:#50514F;stroke-width:0.1px;stroke-linecap:square" d="M -3.33769607932709,-15.17024461095341 L -3.9804836890136293,-15.93628905407239 " />
        <path style="fill:none;stroke:#50514F;stroke-width:0.1px;stroke-linecap:square" d="M -2.0521208599540115,-13.638155724715453 L -2.39414100327968,-14.577848345501362 L -3.036928612966219,-15.343892788620341 " />
        <path style="fill:none;stroke:#50514F;stroke-width:0.1px;stroke-linecap:square" d="M -2.39414100327968,-14.577848345501362 L -2.7361611466053484,-15.517540966287271 L -2.7361611466053484,-16.51754096628727 " />
        <path style="fill:none;stroke:#50514F;stroke-width:0.1px;stroke-linecap:square" d="M -2.7361611466053484,-15.517540966287271 L -3.078181289931017,-16.45723358707318 " />
        <path style="fill:none;stroke:#50514F;stroke-width:0.1px;stroke-linecap:square" d="M -2.7361611466053484,-15.517540966287271 L -2.7361611466053484,-16.51754096628727 L -3.078181289931017,-17.45723358707318 " />
        <path style="fill:none;stroke:#50514F;stroke-width:0.1px;stroke-linecap:square" d="M -2.7361611466053484,-16.51754096628727 L -2.7361611466053484,-17.51754096628727 L -2.3941410032796795,-18.45723358707318 " />
        <path style="fill:none;stroke:#50514F;stroke-width:0.1px;stroke-linecap:square" d="M -2.7361611466053484,-17.51754096628727 L -2.7361611466053484,-18.51754096628727 " />
        <path style="fill:none;stroke:#50514F;stroke-width:0.1px;stroke-linecap:square" d="M -2.7361611466053484,-15.517540966287271 L -3.078181289931017,-16.45723358707318 L -3.720968899617556,-17.22327803019216 " />
        <path style="fill:none;stroke:#50514F;stroke-width:0.1px;stroke-linecap:square" d="M -3.078181289931017,-16.45723358707318 L -3.4202014332566852,-17.39692620785909 L -3.4202014332566852,-18.39692620785909 " />
        <path style="fill:none;stroke:#50514F;stroke-width:0.1px;stroke-linecap:square" d="M -3.4202014332566852,-17.39692620785909 L -3.7622215765823537,-18.336618828644998 " />
        <path style="fill:none;stroke:#50514F;stroke-width:0.1px;stroke-linecap:square" d="M -2.7361611466053484,-15.517540966287271 L -2.7361611466053484,-16.51754096628727 L -3.078181289931017,-17.45723358707318 " />
        <path style="fill:none;stroke:#50514F;stroke-width:0.1px;stroke-linecap:square" d="M -2.7361611466053484,-16.51754096628727 L -2.7361611466053484,-17.51754096628727 L -2.3941410032796795,-18.45723358707318 " />
        <path style="fill:none;stroke:#50514F;stroke-width:0.1px;stroke-linecap:square" d="M -2.7361611466053484,-17.51754096628727 L -2.7361611466053484,-18.51754096628727 " />
        <path style="fill:none;stroke:#50514F;stroke-width:0.1px;stroke-linecap:square" d="M -2.7361611466053484,-17.51754096628727 L -3.078181289931017,-18.45723358707318 L -3.720968899617556,-19.22327803019216 " />
        <path style="fill:none;stroke:#50514F;stroke-width:0.1px;stroke-linecap:square" d="M -3.078181289931017,-18.45723358707318 L -3.4202014332566852,-19.39692620785909 L -3.4202014332566852,-20.39692620785909 " />
        <path style="fill:none;stroke:#50514F;stroke-width:0.1px;stroke-linecap:square" d="M -3.4202014332566852,-19.39692620785909 L -3.7622215765823537,-20.336618828644998 " />
        <path style="fill:none;stroke:#50514F;stroke-width:0.1px;stroke-linecap:square" d="M -2.7361611466053484,-17.51754096628727 L -2.7361611466053484,-18.51754096628727 L -3.078181289931017,-19.45723358707318 " />
        <path style="fill:none;stroke:#50514F;stroke-width:0.1px;stroke-linecap:square" d="M -2.7361611466053484,-18.51754096628727 L -2.7361611466053484,-19.51754096628727 L -2.3941410032796795,-20.45723358707318 " />
        <path style="fill:none;stroke:#50514F;stroke-width:0.1px;stroke-linecap:square" d="M -2.7361611466053484,-19.51754096628727 L -2.7361611466053484,-20.51754096628727 " />
        <path style="fill:none;stroke:#50514F;stroke-width:0.1px;stroke-linecap:square" d="M -2.7361611466053484,-19.51754096628727 L -2.3941410032796795,-20.45723358707318 L -2.3941410032796795,-21.45723358707318 " />
        <path style="fill:none;stroke:#50514F;stroke-width:0.1px;stroke-linecap:square" d="M -2.3941410032796795,-20.45723358707318 L -2.0521208599540106,-21.39692620785909 L -1.4093332502674711,-22.162970650978068 " />
        <path style="fill:none;stroke:#50514F;stroke-width:0.1px;stroke-linecap:square" d="M -2.0521208599540106,-21.39692620785909 L -1.7101007166283417,-22.336618828644998 " />
        <path style="fill:none;stroke:#50514F;stroke-width:0.1px;stroke-linecap:square" d="M -2.7361611466053484,-19.51754096628727 L -2.7361611466053484,-20.51754096628727 L -3.078181289931017,-21.45723358707318 " />
        <path style="fill:none;stroke:#50514F;stroke-width:0.1px;stroke-linecap:square" d="M -2.7361611466053484,-20.51754096628727 L -2.7361611466053484,-21.51754096628727 L -2.3941410032796795,-22.45723358707318 " />
        <path style="fill:none;stroke:#50514F;stroke-width:0.1px;stroke-linecap:square" d="M -2.7361611466053484,-21.51754096628727 L -2.7361611466053484,-22.51754096628727 " />
        <path style="fill:none;stroke:#50514F;stroke-width:0.1px;stroke-linecap:square" d="M -2.7361611466053484,-15.517540966287271 L -3.078181289931017,-16.45723358707318 L -3.720968899617556,-17.22327803019216 " />
        <path style="fill:none;stroke:#50514F;stroke-width:0.1px;stroke-linecap:square" d="M -3.078181289931017,-16.45723358707318 L -3.4202014332566852,-17.39692620785909 L -3.4202014332566852,-18.39692620785909 " />
        <path style="fill:none;stroke:#50514F;stroke-width:0.1px;stroke-linecap:square" d="M -3.4202014332566852,-17.39692620785909 L -3.7622215765823537,-18.336618828644998 " />
        <path style="fill:none;stroke:#50514F;stroke-width:0.1px;stroke-linecap:square" d="M -3.4202014332566852,-17.39692620785909 L -4.062989042943224,-18.162970650978068 L -4.929014446727662,-18.662970650978068 " />
        <path style="fill:none;stroke:#50514F;stroke-width:0.1px;stroke-linecap:square" d="M -4.062989042943224,-18.162970650978068 L -4.705776652629764,-18.929015094097046 L -5.047796795955432,-19.868707714882955 " />
        <path style="fill:none;stroke:#50514F;stroke-width:0.1px;stroke-linecap:square" d="M -4.705776652629764,-18.929015094097046 L -5.348564262316303,-19.695059537216025 " />
        <path style="fill:none;stroke:#50514F;stroke-width:0.1px;stroke-linecap:square" d="M -3.4202014332566852,-17.39692620785909 L -3.7622215765823537,-18.336618828644998 L -4.405009186268893,-19.102663271763976 " />
        <path style="fill:none;stroke:#50514F;stroke-width:0.1px;stroke-linecap:square" d="M -3.7622215765823537,-18.336618828644998 L -4.104241719908022,-19.276311449430906 L -4.104241719908022,-20.276311449430906 " />
        <path style="fill:none;stroke:#50514F;stroke-width:0.1px;stroke-linecap:square" d="M -4.104241719908022,-19.276311449430906 L -4.4462618632336905,-20.216004070216815 " />
        <path style="fill:none;stroke:#50514F;stroke-width:0.1px;stroke-linecap:square" d="M -4.104241719908022,-19.276311449430906 L -4.104241719908022,-20.276311449430906 L -4.4462618632336905,-21.216004070216815 " />
        <path style="fill:none;stroke:#50514F;stroke-width:0.1px;stroke-linecap:square" d="M -4.104241719908022,-20.276311449430906 L -4.104241719908022,-21.276311449430906 L -3.7622215765823532,-22.216004070216815 " />
        <path style="fill:none;stroke:#50514F;stroke-width:0.1px;stroke-linecap:square" d="M -4.104241719908022,-21.276311449430906 L -4.104241719908022,-22.276311449430906 " />
        <path style="fill:none;stroke:#50514F;stroke-width:0.1px;stroke-linecap:square" d="M -4.104241719908022,-19.276311449430906 L -4.4462618632336905,-20.216004070216815 L -5.08904947292023,-20.982048513335794 " />
        <path style="fill:none;stroke:#50514F;stroke-width:0.1px;stroke-linecap:square" d="M -4.4462618632336905,-20.216004070216815 L -4.788282006559359,-21.155696691002724 L -4.788282006559359,-22.155696691002724 " />
        <path style="fill:none;stroke:#50514F;stroke-width:0.1px;stroke-linecap:square" d="M -4.788282006559359,-21.155696691002724 L -5.130302149885027,-22.095389311788633 " />
        <path style="fill:none;stroke:#50514F;stroke-width:0.1px;stroke-linecap:square" d="M 4.898587196589413e-16,-8.0 L 5.51091059616309e-16,-9.0 L -0.3420201433256681,-9.939692620785909 " />
        <path style="fill:none;stroke:#50514F;stroke-width:0.1px;stroke-linecap:square" d="M 5.51091059616309e-16,-9.0 L 6.123233995736766e-16,-10.0 L 0.3420201433256694,-10.939692620785909 " />
        <path style="fill:none;stroke:#50514F;stroke-width:0.1px;stroke-linecap:square" d="M 6.123233995736766e-16,-10.0 L 6.735557395310443e-16,-11.0 " />
        <path style="fill:none;stroke:#50514F;stroke-width:0.1px;stroke-linecap:square" d="M 6.123233995736766e-16,-10.0 L -0.34202014332566805,-10.939692620785909 L -0.9848077530122072,-11.705737063904888 " />
        <path style="fill:none;stroke:#50514F;stroke-width:0.1px;stroke-linecap:square" d="M -0.34202014332566805,-10.939692620785909 L -0.6840402866513366,-11.879385241571818 L -0.6840402866513366,-12.879385241571818 " />
        <path style="fill:none;stroke:#50514F;stroke-width:0.1px;stroke-linecap:square" d="M -0.6840402866513366,-11.879385241571818 L -1.0260604299770053,-12.819077862357727 " />
        <path style="fill:none;stroke:#50514F;stroke-width:0.1px;stroke-linecap:square" d="M 6.123233995736766e-16,-10.0 L 6.735557395310443e-16,-11.0 L -0.342020143325668,-11.939692620785909 " />
        <path style="fill:none;stroke:#50514F;stroke-width:0.1px;stroke-linecap:square" d="M 6.735557395310443e-16,-11.0 L 7.34788079488412e-16,-12.0 L 0.3420201433256695,-12.939692620785909 " />
        <path style="fill:none;stroke:#50514F;stroke-width:0.1px;stroke-linecap:square" d="M 7.34788079488412e-16,-12.0 L 7.960204194457796e-16,-13.0 " />
        <path style="fill:none;stroke:#50514F;stroke-width:0.1px;stroke-linecap:square" d="M 7.34788079488412e-16,-12.0 L 0.3420201433256695,-12.939692620785909 L 0.34202014332566955,-13.939692620785909 " />
        <path style="fill:none;stroke:#50514F;stroke-width:0.1px;stroke-linecap:square" d="M 0.3420201433256695,-12.939692620785909 L 0.6840402866513382,-13.879385241571818 L 1.3268278963378777,-14.645429684690797 " />
        <path style="fill:none;stroke:#50514F;stroke-width:0.1px;stroke-linecap:square" d="M 0.6840402866513382,-13.879385241571818 L 1.026060429977007,-14.819077862357727 " />
        <path style="fill:none;stroke:#50514F;stroke-width:0.1px;stroke-linecap:square" d="M 7.34788079488412e-16,-12.0 L 7.960204194457796e-16,-13.0 L -0.3420201433256679,-13.939692620785909 " />
        <path style="fill:none;stroke:#50514F;stroke-width:0.1px;stroke-linecap:square" d="M 7.960204194457796e-16,-13.0 L 8.572527594031473e-16,-14.0 L 0.3420201433256696,-14.939692620785909 " />
        <path style="fill:none;stroke:#50514F;stroke-width:0.1px;stroke-linecap:square" d="M 8.572527594031473e-16,-14.0 L 9.18485099360515e-16,-15.0 " />
        <path style="fill:none;stroke:#50514F;stroke-width:0.1px;stroke-linecap:square" d="M 7.34788079488412e-16,-12.0 L -0.34202014332566794,-12.939692620785909 L -0.9848077530122072,-13.705737063904888 " />
        <path style="fill:none;stroke:#50514F;stroke-width:0.1px;stroke-linecap:square" d="M -0.34202014332566794,-12.939692620785909 L -0.6840402866513366,-13.879385241571818 L -0.6840402866513366,-14.879385241571818 " />
        <path style="fill:none;stroke:#50514F;stroke-width:0.1px;stroke-linecap:square" d="M -0.6840402866513366,-13.879385241571818 L -1.0260604299770053,-14.819077862357727 " />
        <path style="fill:none;stroke:#50514F;stroke-width:0.1px;stroke-linecap:square" d="M -0.6840402866513366,-13.879385241571818 L -1.326827896337876,-14.645429684690797 L -2.1928533001223145,-15.145429684690797 " />
        <path style="fill:none;stroke:#50514F;stroke-width:0.1px;stroke-linecap:square" d="M -1.326827896337876,-14.645429684690797 L -1.9696155060244152,-15.411474127809775 L -2.311635649350084,-16.351166748595684 " />
        <path style="fill:none;stroke:#50514F;stroke-width:0.1px;stroke-linecap:square" d="M -1.9696155060244152,-15.411474127809775 L -2.612403115710954,-16.177518570928754 " />
        <path style="fill:none;stroke:#50514F;stroke-width:0.1px;stroke-linecap:square" d="M -0.6840402866513366,-13.879385241571818 L -1.0260604299770053,-14.819077862357727 L -1.6688480396635446,-15.585122305476705 " />
        <path style="fill:none;stroke:#50514F;stroke-width:0.1px;stroke-linecap:square" d="M -1.0260604299770053,-14.819077862357727 L -1.368080573302674,-15.758770483143635 L -1.368080573302674,-16.758770483143635 " />
        <path style="fill:none;stroke:#50514F;stroke-width:0.1px;stroke-linecap:square" d="M -1.368080573302674,-15.758770483143635 L -1.7101007166283426,-16.698463103929544 " />
        <path style="fill:none;stroke:#50514F;stroke-width:0.1px;stroke-linecap:square" d="M -1.368080573302674,-15.758770483143635 L -1.368080573302674,-16.758770483143635 L -1.7101007166283426,-17.698463103929544 " />
        <path style="fill:none;stroke:#50514F;stroke-width:0.1px;stroke-linecap:square" d="M -1.368080573302674,-16.758770483143635 L -1.368080573302674,-17.758770483143635 L -1.0260604299770053,-18.698463103929544 " />
        <path style="fill:none;stroke:#50514F;stroke-width:0.1px;stroke-linecap:square" d="M -1.368080573302674,-17.758770483143635 L -1.368080573302674,-18.758770483143635 " />
        <path style="fill:none;stroke:#50514F;stroke-width:0.1px;stroke-linecap:square" d="M -1.368080573302674,-15.758770483143635 L -1.7101007166283426,-16.698463103929544 L -2.352888326314882,-17.464507547048523 " />
        <path style="fill:none;stroke:#50514F;stroke-width:0.1px;stroke-linecap:square" d="M -1.7101007166283426,-16.698463103929544 L -2.0521208599540115,-17.638155724715453 L -2.0521208599540115,-18.638155724715453 " />
        <path style="fill:none;stroke:#50514F;stroke-width:0.1px;stroke-linecap:square" d="M -2.0521208599540115,-17.638155724715453 L -2.39414100327968,-18.577848345501362 " />
        <path style="fill:none;stroke:#50514F;stroke-width:0.1px;stroke-linecap:square" d="M 7.34788079488412e-16,-12.0 L 7.960204194457796e-16,-13.0 L -0.3420201433256679,-13.939692620785909 " />
        <path style="fill:none;stroke:#50514F;stroke-width:0.1px;stroke-linecap:square" d="M 7.960204194457796e-16,-13.0 L 8.572527594031473e-16,-14.0 L 0.3420201433256696,-14.939692620785909 " />
        <path style="fill:none;stroke:#50514F;stroke-width:0.1px;stroke-linecap:square" d="M 8.572527594031473e-16,-14.0 L 9.18485099360515e-16,-15.0 " />
        <path style="fill:none;stroke:#50514F;stroke-width:0.1px;stroke-linecap:square" d="M 8.572527594031473e-16,-14.0 L -0.3420201433256678,-14.939692620785909 L -0.984807753012207,-15.705737063904888 " />
        <path style="fill:none;stroke:#50514F;stroke-width:0.1px;stroke-linecap:square" d="M -0.3420201433256678,-14.939692620785909 L -0.6840402866513364,-15.879385241571818 L -0.6840402866513364,-16.879385241571818 " />
        <path style="fill:none;stroke:#50514F;stroke-width:0.1px;stroke-linecap:square" d="M -0.6840402866513364,-15.879385241571818 L -1.026060429977005,-16.819077862357727 " />
        <path style="fill:none;stroke:#50514F;stroke-width:0.1px;stroke-linecap:square" d="M 8.572527594031473e-16,-14.0 L 9.18485099360515e-16,-15.0 L -0.3420201433256677,-15.939692620785909 " />
        <path style="fill:none;stroke:#50514F;stroke-width:0.1px;stroke-linecap:square" d="M 9.18485099360515e-16,-15.0 L 9.797174393178826e-16,-16.0 L 0.34202014332566977,-16.93969262078591 " />
        <path style="fill:none;stroke:#50514F;stroke-width:0.1px;stroke-linecap:square" d="M 9.797174393178826e-16,-16.0 L 1.0409497792752501e-15,-17.0 " />
        <path style="fill:none;stroke:#50514F;stroke-width:0.1px;stroke-linecap:square" d="M 9.797174393178826e-16,-16.0 L 0.34202014332566977,-16.93969262078591 L 0.3420201433256698,-17.93969262078591 " />
        <path style="fill:none;stroke:#50514F;stroke-width:0.1px;stroke-linecap:square" d="M 0.34202014332566977,-16.93969262078591 L 0.6840402866513385,-17.879385241571818 L 1.326827896337878,-18.645429684690797 " />
        <path style="fill:none;stroke:#50514F;stroke-width:0.1px;stroke-linecap:square" d="M 0.6840402866513385,-17.879385241571818 L 1.0260604299770073,-18.819077862357727 " />
        <path style="fill:none;stroke:#50514F;stroke-width:0.1px;stroke-linecap:square" d="M 9.797174393178826e-16,-16.0 L 1.0409497792752501e-15,-17.0 L -0.3420201433256676,-17.93969262078591 " />
        <path style="fill:none;stroke:#50514F;stroke-width:0.1px;stroke-linecap:square" d="M 1.0409497792752501e-15,-17.0 L 1.1021821192326177e-15,-18.0 L 0.3420201433256699,-18.93969262078591 " />
        <path style="fill:none;stroke:#50514F;stroke-width:0.1px;stroke-linecap:square" d="M 1.1021821192326177e-15,-18.0 L 1.1634144591899853e-15,-19.0 " />
        <path style="fill:none;stroke:#50514F;stroke-width:0.1px;stroke-linecap:square" d="M 9.797174393178826e-16,-16.0 L 0.34202014332566977,-16.93969262078591 L 0.3420201433256698,-17.93969262078591 " />
        <path style="fill:none;stroke:#50514F;stroke-width:0.1px;stroke-linecap:square" d="M 0.34202014332566977,-16.93969262078591 L 0.6840402866513385,-17.879385241571818 L 1.326827896337878,-18.645429684690797 " />
        <path style="fill:none;stroke:#50514F;stroke-width:0.1px;stroke-linecap:square" d="M 0.6840402866513385,-17.879385241571818 L 1.0260604299770073,-18.819077862357727 " />
        <path style="fill:none;stroke:#50514F;stroke-width:0.1px;stroke-linecap:square" d="M 0.6840402866513385,-17.879385241571818 L 0.6840402866513386,-18.879385241571818 L 0.34202014332567,-19.819077862357727 " />
        <path style="fill:none;stroke:#50514F;stroke-width:0.1px;stroke-linecap:square" d="M 0.6840402866513386,-18.879385241571818 L 0.6840402866513386,-19.879385241571818 L 1.0260604299770075,-20.819077862357727 " />
        <path style="fill:none;stroke:#50514F;stroke-width:0.1px;stroke-linecap:square" d="M 0.6840402866513386,-19.879385241571818 L 0.6840402866513386,-20.879385241571818 " />
        <path style="fill:none;stroke:#50514F;stroke-width:0.1px;stroke-linecap:square" d="M 0.6840402866513385,-17.879385241571818 L 1.0260604299770073,-18.819077862357727 L 1.0260604299770073,-19.819077862357727 " />
        <path style="fill:none;stroke:#50514F;stroke-width:0.1px;stroke-linecap:square" d="M 1.0260604299770073,-18.819077862357727 L 1.368080573302676,-19.758770483143635 L 2.010868182989215,-20.524814926262614 " />
        <path style="fill:none;stroke:#50514F;stroke-width:0.1px;stroke-linecap:square" d="M 1.368080573302676,-19.758770483143635 L 1.7101007166283448,-20.698463103929544 " />
        <path style="fill:none;stroke:#50514F;stroke-width:0.1px;stroke-linecap:square" d="M 1.368080573302676,-19.758770483143635 L 2.010868182989215,-20.524814926262614 L 2.352888326314884,-21.464507547048523 " />
        <path style="fill:none;stroke:#50514F;stroke-width:0.1px;stroke-linecap:square" d="M 2.010868182989215,-20.524814926262614 L 2.653655792675755,-21.290859369381593 L 3.5196811964601937,-21.790859369381593 " />
        <path style="fill:none;stroke:#50514F;stroke-width:0.1px;stroke-linecap:square" d="M 2.653655792675755,-21.290859369381593 L 3.2964434023622946,-22.056903812500572 " />
        <path style="fill:none;stroke:#50514F;stroke-width:0.1px;stroke-linecap:square" d="M 1.368080573302676,-19.758770483143635 L 1.7101007166283448,-20.698463103929544 L 1.7101007166283448,-21.698463103929544 " />
        <path style="fill:none;stroke:#50514F;stroke-width:0.1px;stroke-linecap:square" d="M 1.7101007166283448,-20.698463103929544 L 2.0521208599540137,-21.638155724715453 L 2.694908469640553,-22.404200167834432 " />
        <path style="fill:none;stroke:#50514F;stroke-width:0.1px;stroke-linecap:square" d="M 2.0521208599540137,-21.638155724715453 L 2.3941410032796826,-22.577848345501362 " />
        <path style="fill:none;stroke:#50514F;stroke-width:0.1px;stroke-linecap:square" d="M 9.797174393178826e-16,-16.0 L 1.0409497792752501e-15,-17.0 L -0.3420201433256676,-17.93969262078591 " />
        <path style="fill:none;stroke:#50514F;stroke-width:0.1px;stroke-linecap:square" d="M 1.0409497792752501e-15,-17.0 L 1.1021821192326177e-15,-18.0 L 0.3420201433256699,-18.93969262078591 " />
        <path style="fill:none;stroke:#50514F;stroke-width:0.1px;stroke-linecap:square" d="M 1.1021821192326177e-15,-18.0 L 1.1634144591899853e-15,-19.0 " />
        <path style="fill:none;stroke:#50514F;stroke-width:0.1px;stroke-linecap:square" d="M 1.1021821192326177e-15,-18.0 L -0.34202014332566755,-18.93969262078591 L -0.9848077530122068,-19.705737063904888 " />
        <path style="fill:none;stroke:#50514F;stroke-width:0.1px;stroke-linecap:square" d="M -0.34202014332566755,-18.93969262078591 L -0.6840402866513362,-19.879385241571818 L -0.6840402866513362,-20.879385241571818 " />
        <path style="fill:none;stroke:#50514F;stroke-width:0.1px;stroke-linecap:square" d="M -0.6840402866513362,-19.879385241571818 L -1.0260604299770049,-20.819077862357727 " />
        <path style="fill:none;stroke:#50514F;stroke-width:0.1px;stroke-linecap:square" d="M 1.1021821192326177e-15,-18.0 L 1.1634144591899853e-15,-19.0 L -0.3420201433256675,-19.93969262078591 " />
        <path style="fill:none;stroke:#50514F;stroke-width:0.1px;stroke-linecap:square" d="M 1.1634144591899853e-15,-19.0 L 1.2246467991473529e-15,-20.0 L 0.34202014332567,-20.93969262078591 " />
        <path style="fill:none;stroke:#50514F;stroke-width:0.1px;stroke-linecap:square" d="M 1.2246467991473529e-15,-20.0 L 1.2858791391047204e-15,-21.0 " />
        <path style="fill:none;stroke:#50514F;stroke-width:0.1px;stroke-linecap:square" d="M 1.2246467991473529e-15,-20.0 L 0.34202014332567,-20.93969262078591 L 0.34202014332567005,-21.93969262078591 " />
        <path style="fill:none;stroke:#50514F;stroke-width:0.1px;stroke-linecap:square" d="M 0.34202014332567,-20.93969262078591 L 0.6840402866513388,-21.879385241571818 L 1.3268278963378783,-22.645429684690797 " />
        <path style="fill:none;stroke:#50514F;stroke-width:0.1px;stroke-linecap:square" d="M 0.6840402866513388,-21.879385241571818 L 1.0260604299770075,-22.819077862357727 " />
        <path style="fill:none;stroke:#50514F;stroke-width:0.1px;stroke-linecap:square" d="M 1.2246467991473529e-15,-20.0 L 1.2858791391047204e-15,-21.0 L -0.3420201433256674,-21.93969262078591 " />
        <path style="fill:none;stroke:#50514F;stroke-width:0.1px;stroke-linecap:square" d="M 1.2858791391047204e-15,-21.0 L 1.347111479062088e-15,-22.0 L 0.3420201433256701,-22.93969262078591 " />
        <path style="fill:none;stroke:#50514F;stroke-width:0.1px;stroke-linecap:square" d="M 1.347111479062088e-15,-22.0 L 1.4083438190194556e-15,-23.0 " />
        <path style="fill:none;stroke:#50514F;stroke-width:0.1px;stroke-linecap:square" d="M 9.797174393178826e-16,-16.0 L 0.34202014332566977,-16.93969262078591 L 0.3420201433256698,-17.93969262078591 " />
        <path style="fill:none;stroke:#50514F;stroke-width:0.1px;stroke-linecap:square" d="M 0.34202014332566977,-16.93969262078591 L 0.6840402866513385,-17.879385241571818 L 1.326827896337878,-18.645429684690797 " />
        <path style="fill:none;stroke:#50514F;stroke-width:0.1px;stroke-linecap:square" d="M 0.6840402866513385,-17.879385241571818 L 1.0260604299770073,-18.819077862357727 " />
        <path style="fill:none;stroke:#50514F;stroke-width:0.1px;stroke-linecap:square" d="M 0.6840402866513385,-17.879385241571818 L 0.6840402866513386,-18.879385241571818 L 0.34202014332567,-19.819077862357727 " />
        <path style="fill:none;stroke:#50514F;stroke-width:0.1px;stroke-linecap:square" d="M 0.6840402866513386,-18.879385241571818 L 0.6840402866513386,-19.879385241571818 L 1.0260604299770075,-20.819077862357727 " />
        <path style="fill:none;stroke:#50514F;stroke-width:0.1px;stroke-linecap:square" d="M 0.6840402866513386,-19.879385241571818 L 0.6840402866513386,-20.879385241571818 " />
        <path style="fill:none;stroke:#50514F;stroke-width:0.1px;stroke-linecap:square" d="M 0.6840402866513385,-17.879385241571818 L 1.0260604299770073,-18.819077862357727 L 1.0260604299770073,-19.819077862357727 " />
        <path style="fill:none;stroke:#50514F;stroke-width:0.1px;stroke-linecap:square" d="M 1.0260604299770073,-18.819077862357727 L 1.368080573302676,-19.758770483143635 L 2.010868182989215,-20.524814926262614 " />
        <path style="fill:none;stroke:#50514F;stroke-width:0.1px;stroke-linecap:square" d="M 1.368080573302676,-19.758770483143635 L 1.7101007166283448,-20.698463103929544 " />
        <path style="fill:none;stroke:#50514F;stroke-width:0.1px;stroke-linecap:square" d="M 1.368080573302676,-19.758770483143635 L 2.010868182989215,-20.524814926262614 L 2.352888326314884,-21.464507547048523 " />
        <path style="fill:none;stroke:#50514F;stroke-width:0.1px;stroke-linecap:square" d="M 2.010868182989215,-20.524814926262614 L 2.653655792675755,-21.290859369381593 L 3.5196811964601937,-21.790859369381593 " />
        <path style="fill:none;stroke:#50514F;stroke-width:0.1px;stroke-linecap:square" d="M 2.653655792675755,-21.290859369381593 L 3.2964434023622946,-22.056903812500572 " />
        <path style="fill:none;stroke:#50514F;stroke-width:0.1px;stroke-linecap:square" d="M 1.368080573302676,-19.758770483143635 L 1.7101007166283448,-20.698463103929544 L 1.7101007166283448,-21.698463103929544 " />
        <path style="fill:none;stroke:#50514F;stroke-width:0.1px;stroke-linecap:square" d="M 1.7101007166283448,-20.698463103929544 L 2.0521208599540137,-21.638155724715453 L 2.694908469640553,-22.404200167834432 " />
        <path style="fill:none;stroke:#50514F;stroke-width:0.1px;stroke-linecap:square" d="M 2.0521208599540137,-21.638155724715453 L 2.3941410032796826,-22.577848345501362 " />
        <path style="fill:none;stroke:#50514F;stroke-width:0.1px;stroke-linecap:square" d="M 1.368080573302676,-19.758770483143635 L 1.368080573302676,-20.758770483143635 L 1.0260604299770073,-21.698463103929544 " />
        <path style="fill:none;stroke:#50514F;stroke-width:0.1px;stroke-linecap:square" d="M 1.368080573302676,-20.758770483143635 L 1.368080573302676,-21.758770483143635 L 1.7101007166283448,-22.698463103929544 " />
        <path style="fill:none;stroke:#50514F;stroke-width:0.1px;stroke-linecap:square" d="M 1.368080573302676,-21.758770483143635 L 1.368080573302676,-22.758770483143635 " />
        <path style="fill:none;stroke:#50514F;stroke-width:0.1px;stroke-linecap:square" d="M 1.368080573302676,-21.758770483143635 L 1.0260604299770073,-22.698463103929544 L 0.38327282029046805,-23.464507547048523 " />
        <path style="fill:none;stroke:#50514F;stroke-width:0.1px;stroke-linecap:square" d="M 1.0260604299770073,-22.698463103929544 L 0.6840402866513386,-23.638155724715453 L 0.6840402866513386,-24.638155724715453 " />
        <path style="fill:none;stroke:#50514F;stroke-width:0.1px;stroke-linecap:square" d="M 0.6840402866513386,-23.638155724715453 L 0.34202014332567,-24.577848345501362 " />
        <path style="fill:none;stroke:#50514F;stroke-width:0.1px;stroke-linecap:square" d="M 1.368080573302676,-21.758770483143635 L 1.368080573302676,-22.758770483143635 L 1.0260604299770073,-23.698463103929544 " />
        <path style="fill:none;stroke:#50514F;stroke-width:0.1px;stroke-linecap:square" d="M 1.368080573302676,-22.758770483143635 L 1.368080573302676,-23.758770483143635 L 1.7101007166283448,-24.698463103929544 " />
        <path style="fill:none;stroke:#50514F;stroke-width:0.1px;stroke-linecap:square" d="M 1.368080573302676,-23.758770483143635 L 1.368080573302676,-24.758770483143635 " />
        <path style="fill:none;stroke:#50514F;stroke-width:0.1px;stroke-linecap:square" d="M 1.368080573302676,-23.758770483143635 L 1.7101007166283448,-24.698463103929544 L 1.7101007166283448,-25.698463103929544 " />
        <path style="fill:none;stroke:#50514F;stroke-width:0.1px;stroke-linecap:square" d="M 1.7101007166283448,-24.698463103929544 L 2.0521208599540137,-25.638155724715453 L 2.694908469640553,-26.404200167834432 " />
        <path style="fill:none;stroke:#50514F;stroke-width:0.1px;stroke-linecap:square" d="M 2.0521208599540137,-25.638155724715453 L 2.3941410032796826,-26.577848345501362 " />
        <path style="fill:none;stroke:#50514F;stroke-width:0.1px;stroke-linecap:square" d="M 1.368080573302676,-23.758770483143635 L 1.368080573302676,-24.758770483143635 L 1.0260604299770073,-25.698463103929544 " />
        <path style="fill:none;stroke:#50514F;stroke-width:0.1px;stroke-linecap:square" d="M 1.368080573302676,-24.758770483143635 L 1.368080573302676,-25.758770483143635 L 1.7101007166283448,-26.698463103929544 " />
        <path style="fill:none;stroke:#50514F;stroke-width:0.1px;stroke-linecap:square" d="M 1.368080573302676,-25.758770483143635 L 1.368080573302676,-26.758770483143635 " />
        <path style="fill:none;stroke:#50514F;stroke-width:0.1px;stroke-linecap:square" d="M 1.368080573302676,-19.758770483143635 L 1.7101007166283448,-20.698463103929544 L 1.7101007166283448,-21.698463103929544 " />
        <path style="fill:none;stroke:#50514F;stroke-width:0.1px;stroke-linecap:square" d="M 1.7101007166283448,-20.698463103929544 L 2.0521208599540137,-21.638155724715453 L 2.694908469640553,-22.404200167834432 " />
        <path style="fill:none;stroke:#50514F;stroke-width:0.1px;stroke-linecap:square" d="M 2.0521208599540137,-21.638155724715453 L 2.3941410032796826,-22.577848345501362 " />
        <path style="fill:none;stroke:#50514F;stroke-width:0.1px;stroke-linecap:square" d="M 2.0521208599540137,-21.638155724715453 L 2.0521208599540137,-22.638155724715453 L 1.710100716628345,-23.577848345501362 " />
        <path style="fill:none;stroke:#50514F;stroke-width:0.1px;stroke-linecap:square" d="M 2.0521208599540137,-22.638155724715453 L 2.0521208599540137,-23.638155724715453 L 2.3941410032796826,-24.577848345501362 " />
        <path style="fill:none;stroke:#50514F;stroke-width:0.1px;stroke-linecap:square" d="M 2.0521208599540137,-23.638155724715453 L 2.0521208599540137,-24.638155724715453 " />
        <path style="fill:none;stroke:#50514F;stroke-width:0.1px;stroke-linecap:square" d="M 2.0521208599540137,-21.638155724715453 L 2.3941410032796826,-22.577848345501362 L 2.3941410032796826,-23.577848345501362 " />
        <path style="fill:none;stroke:#50514F;stroke-width:0.1px;stroke-linecap:square" d="M 2.3941410032796826,-22.577848345501362 L 2.7361611466053515,-23.51754096628727 L 3.3789487562918907,-24.28358540940625 " />
        <path style="fill:none;stroke:#50514F;stroke-width:0.1px;stroke-linecap:square" d="M 2.7361611466053515,-23.51754096628727 L 3.0781812899310204,-24.45723358707318 " />
        <path style="fill:none;stroke:#50514F;stroke-width:0.1px;stroke-linecap:square" d="M 2.7361611466053515,-23.51754096628727 L 3.3789487562918907,-24.28358540940625 L 3.7209688996175596,-25.22327803019216 " />
        <path style="fill:none;stroke:#50514F;stroke-width:0.1px;stroke-linecap:square" d="M 3.3789487562918907,-24.28358540940625 L 4.02173636597843,-25.04962985252523 L 4.88776176976287,-25.54962985252523 " />
        <path style="fill:none;stroke:#50514F;stroke-width:0.1px;stroke-linecap:square" d="M 4.02173636597843,-25.04962985252523 L 4.66452397566497,-25.815674295644207 " />
        <path style="fill:none;stroke:#50514F;stroke-width:0.1px;stroke-linecap:square" d="M 2.7361611466053515,-23.51754096628727 L 3.0781812899310204,-24.45723358707318 L 3.0781812899310204,-25.45723358707318 " />
        <path style="fill:none;stroke:#50514F;stroke-width:0.1px;stroke-linecap:square" d="M 3.0781812899310204,-24.45723358707318 L 3.4202014332566892,-25.39692620785909 L 4.0629890429432285,-26.162970650978068 " />
        <path style="fill:none;stroke:#50514F;stroke-width:0.1px;stroke-linecap:square" d="M 3.4202014332566892,-25.39692620785909 L 3.762221576582358,-26.336618828644998 " />
        <path style="fill:none;stroke:#50514F;stroke-width:0.1px;stroke-linecap:square" d="M 2.7361611466053515,-23.51754096628727 L 3.3789487562918907,-24.28358540940625 L 3.7209688996175596,-25.22327803019216 " />
        <path style="fill:none;stroke:#50514F;stroke-width:0.1px;stroke-linecap:square" d="M 3.3789487562918907,-24.28358540940625 L 4.02173636597843,-25.04962985252523 L 4.88776176976287,-25.54962985252523 " />
        <path style="fill:none;stroke:#50514F;stroke-width:0.1px;stroke-linecap:square" d="M 4.02173636597843,-25.04962985252523 L 4.66452397566497,-25.815674295644207 " />
        <path style="fill:none;stroke:#50514F;stroke-width:0.1px;stroke-linecap:square" d="M 4.02173636597843,-25.04962985252523 L 4.3637565093041,-25.989322473311137 L 4.3637565093041,-26.989322473311137 " />
        <path style="fill:none;stroke:#50514F;stroke-width:0.1px;stroke-linecap:square" d="M 4.3637565093041,-25.989322473311137 L 4.705776652629769,-26.929015094097046 L 5.348564262316309,-27.695059537216025 " />
        <path style="fill:none;stroke:#50514F;stroke-width:0.1px;stroke-linecap:square" d="M 4.705776652629769,-26.929015094097046 L 5.047796795955438,-27.868707714882955 " />
        <path style="fill:none;stroke:#50514F;stroke-width:0.1px;stroke-linecap:square" d="M 4.02173636597843,-25.04962985252523 L 4.66452397566497,-25.815674295644207 L 5.0065441189906394,-26.755366916430116 " />
        <path style="fill:none;stroke:#50514F;stroke-width:0.1px;stroke-linecap:square" d="M 4.66452397566497,-25.815674295644207 L 5.30731158535151,-26.581718738763186 L 6.173336989135949,-27.081718738763186 " />
        <path style="fill:none;stroke:#50514F;stroke-width:0.1px;stroke-linecap:square" d="M 5.30731158535151,-26.581718738763186 L 5.9500991950380495,-27.347763181882165 " />
        <path style="fill:none;stroke:#50514F;stroke-width:0.1px;stroke-linecap:square" d="M 5.30731158535151,-26.581718738763186 L 6.173336989135949,-27.081718738763186 L 6.816124598822489,-27.847763181882165 " />
        <path style="fill:none;stroke:#50514F;stroke-width:0.1px;stroke-linecap:square" d="M 6.173336989135949,-27.081718738763186 L 7.039362392920388,-27.581718738763186 L 8.024170145932597,-27.755366916430116 " />
        <path style="fill:none;stroke:#50514F;stroke-width:0.1px;stroke-linecap:square" d="M 7.039362392920388,-27.581718738763186 L 7.905387796704828,-28.081718738763186 " />
        <path style="fill:none;stroke:#50514F;stroke-width:0.1px;stroke-linecap:square" d="M 5.30731158535151,-26.581718738763186 L 5.9500991950380495,-27.347763181882165 L 6.292119338363719,-28.287455802668074 " />
        <path style="fill:none;stroke:#50514F;stroke-width:0.1px;stroke-linecap:square" d="M 5.9500991950380495,-27.347763181882165 L 6.592886804724589,-28.113807625001144 L 7.4589122085090285,-28.613807625001144 " />
        <path style="fill:none;stroke:#50514F;stroke-width:0.1px;stroke-linecap:square" d="M 6.592886804724589,-28.113807625001144 L 7.235674414411129,-28.879852068120123 " />
        <path style="fill:none;stroke:#50514F;stroke-width:0.1px;stroke-linecap:square" d="M 2.7361611466053515,-23.51754096628727 L 3.0781812899310204,-24.45723358707318 L 3.0781812899310204,-25.45723358707318 " />
        <path style="fill:none;stroke:#50514F;stroke-width:0.1px;stroke-linecap:square" d="M 3.0781812899310204,-24.45723358707318 L 3.4202014332566892,-25.39692620785909 L 4.0629890429432285,-26.162970650978068 " />
        <path style="fill:none;stroke:#50514F;stroke-width:0.1px;stroke-linecap:square" d="M 3.4202014332566892,-25.39692620785909 L 3.762221576582358,-26.336618828644998 " />
        <path style="fill:none;stroke:#50514F;stroke-width:0.1px;stroke-linecap:square" d="M 3.4202014332566892,-25.39692620785909 L 3.4202014332566892,-26.39692620785909 L 3.0781812899310204,-27.336618828644998 " />
        <path style="fill:none;stroke:#50514F;stroke-width:0.1px;stroke-linecap:square" d="M 3.4202014332566892,-26.39692620785909 L 3.4202014332566892,-27.39692620785909 L 3.762221576582358,-28.336618828644998 " />
        <path style="fill:none;stroke:#50514F;stroke-width:0.1px;stroke-linecap:square" d="M 3.4202014332566892,-27.39692620785909 L 3.4202014332566892,-28.39692620785909 " />
        <path style="fill:none;stroke:#50514F;stroke-width:0.1px;stroke-linecap:square" d="M 3.4202014332566892,-25.39692620785909 L 3.762221576582358,-26.336618828644998 L 3.762221576582358,-27.336618828644998 " />
        <path style="fill:none;stroke:#50514F;stroke-width:0.1px;stroke-linecap:square" d="M 3.762221576582358,-26.336618828644998 L 4.1042417199080266,-27.276311449430906 L 4.747029329594566,-28.042355892549885 " />
        <path style="fill:none;stroke:#50514F;stroke-width:0.1px;stroke-linecap:square" d="M 4.1042417199080266,-27.276311449430906 L 4.446261863233695,-28.216004070216815 " />
        <path style="fill:none;stroke:#50514F;stroke-width:0.1px;stroke-linecap:square" d="M 4.1042417199080266,-27.276311449430906 L 4.747029329594566,-28.042355892549885 L 5.089049472920236,-28.982048513335794 " />
        <path style="fill:none;stroke:#50514F;stroke-width:0.1px;stroke-linecap:square" d="M 4.747029329594566,-28.042355892549885 L 5.389816939281106,-28.808400335668864 L 6.255842343065545,-29.308400335668864 " />
        <path style="fill:none;stroke:#50514F;stroke-width:0.1px;stroke-linecap:square" d="M 5.389816939281106,-28.808400335668864 L 6.032604548967646,-29.574444778787843 " />
        <path style="fill:none;stroke:#50514F;stroke-width:0.1px;stroke-linecap:square" d="M 4.1042417199080266,-27.276311449430906 L 4.446261863233695,-28.216004070216815 L 4.446261863233695,-29.216004070216815 " />
        <path style="fill:none;stroke:#50514F;stroke-width:0.1px;stroke-linecap:square" d="M 4.446261863233695,-28.216004070216815 L 4.788282006559363,-29.155696691002724 L 5.431069616245903,-29.921741134121703 " />
        <path style="fill:none;stroke:#50514F;stroke-width:0.1px;stroke-linecap:square" d="M 4.788282006559363,-29.155696691002724 L 5.130302149885032,-30.095389311788633 " />
        <path style="fill:none;stroke:#50514F;stroke-width:0.1px;stroke-linecap:square" d="M 9.797174393178826e-16,-16.0 L 1.0409497792752501e-15,-17.0 L -0.3420201433256676,-17.93969262078591 " />
        <path style="fill:none;stroke:#50514F;stroke-width:0.1px;stroke-linecap:square" d="M 1.0409497792752501e-15,-17.0 L 1.1021821192326177e-15,-18.0 L 0.3420201433256699,-18.93969262078591 " />
        <path style="fill:none;stroke:#50514F;stroke-width:0.1px;stroke-linecap:square" d="M 1.1021821192326177e-15,-18.0 L 1.1634144591899853e-15,-19.0 " />
        <path style="fill:none;stroke:#50514F;stroke-width:0.1px;stroke-linecap:square" d="M 1.1021821192326177e-15,-18.0 L -0.34202014332566755,-18.93969262078591 L -0.9848077530122068,-19.705737063904888 " />
        <path style="fill:none;stroke:#50514F;stroke-width:0.1px;stroke-linecap:square" d="M -0.34202014332566755,-18.93969262078591 L -0.6840402866513362,-19.879385241571818 L -0.6840402866513362,-20.879385241571818 " />
        <path style="fill:none;stroke:#50514F;stroke-width:0.1px;stroke-linecap:square" d="M -0.6840402866513362,-19.879385241571818 L -1.0260604299770049,-20.819077862357727 " />
        <path style="fill:none;stroke:#50514F;stroke-width:0.1px;stroke-linecap:square" d="M 1.1021821192326177e-15,-18.0 L 1.1634144591899853e-15,-19.0 L -0.3420201433256675,-19.93969262078591 " />
        <path style="fill:none;stroke:#50514F;stroke-width:0.1px;stroke-linecap:square" d="M 1.1634144591899853e-15,-19.0 L 1.2246467991473529e-15,-20.0 L 0.34202014332567,-20.93969262078591 " />
        <path style="fill:none;stroke:#50514F;stroke-width:0.1px;stroke-linecap:square" d="M 1.2246467991473529e-15,-20.0 L 1.2858791391047204e-15,-21.0 " />
        <path style="fill:none;stroke:#50514F;stroke-width:0.1px;stroke-linecap:square" d="M 1.2246467991473529e-15,-20.0 L 0.34202014332567,-20.93969262078591 L 0.34202014332567005,-21.93969262078591 " />
        <path style="fill:none;stroke:#50514F;stroke-width:0.1px;stroke-linecap:square" d="M 0.34202014332567,-20.93969262078591 L 0.6840402866513388,-21.879385241571818 L 1.3268278963378783,-22.645429684690797 " />
        <path style="fill:none;stroke:#50514F;stroke-width:0.1px;stroke-linecap:square" d="M 0.6840402866513388,-21.879385241571818 L 1.0260604299770075,-22.819077862357727 " />
        <path style="fill:none;stroke:#50514F;stroke-width:0.1px;stroke-linecap:square" d="M 1.2246467991473529e-15,-20.0 L 1.2858791391047204e-15,-21.0 L -0.3420201433256674,-21.93969262078591 " />
        <path style="fill:none;stroke:#50514F;stroke-width:0.1px;stroke-linecap:square" d="M 1.2858791391047204e-15,-21.0 L 1.347111479062088e-15,-22.0 L 0.3420201433256701,-22.93969262078591 " />
        <path style="fill:none;stroke:#50514F;stroke-width:0.1px;stroke-linecap:square" d="M 1.347111479062088e-15,-22.0 L 1.4083438190194556e-15,-23.0 " />
        <path style="fill:none;stroke:#50514F;stroke-width:0.1px;stroke-linecap:square" d="M 1.2246467991473529e-15,-20.0 L -0.34202014332566744,-20.93969262078591 L -0.9848077530122067,-21.705737063904888 " />
        <path style="fill:none;stroke:#50514F;stroke-width:0.1px;stroke-linecap:square" d="M -0.34202014332566744,-20.93969262078591 L -0.6840402866513361,-21.879385241571818 L -0.684040286651336,-22.879385241571818 " />
        <path style="fill:none;stroke:#50514F;stroke-width:0.1px;stroke-linecap:square" d="M -0.6840402866513361,-21.879385241571818 L -1.0260604299770049,-22.819077862357727 " />
        <path style="fill:none;stroke:#50514F;stroke-width:0.1px;stroke-linecap:square" d="M -0.6840402866513361,-21.879385241571818 L -1.3268278963378752,-22.645429684690797 L -2.192853300122314,-23.145429684690797 " />
        <path style="fill:none;stroke:#50514F;stroke-width:0.1px;stroke-linecap:square" d="M -1.3268278963378752,-22.645429684690797 L -1.9696155060244145,-23.411474127809775 L -2.311635649350083,-24.351166748595684 " />
        <path style="fill:none;stroke:#50514F;stroke-width:0.1px;stroke-linecap:square" d="M -1.9696155060244145,-23.411474127809775 L -2.6124031157109537,-24.177518570928754 " />
        <path style="fill:none;stroke:#50514F;stroke-width:0.1px;stroke-linecap:square" d="M -0.6840402866513361,-21.879385241571818 L -1.0260604299770049,-22.819077862357727 L -1.6688480396635441,-23.585122305476705 " />
        <path style="fill:none;stroke:#50514F;stroke-width:0.1px;stroke-linecap:square" d="M -1.0260604299770049,-22.819077862357727 L -1.3680805733026735,-23.758770483143635 L -1.3680805733026735,-24.758770483143635 " />
        <path style="fill:none;stroke:#50514F;stroke-width:0.1px;stroke-linecap:square" d="M -1.3680805733026735,-23.758770483143635 L -1.7101007166283422,-24.698463103929544 " />
        <path style="fill:none;stroke:#50514F;stroke-width:0.1px;stroke-linecap:square" d="M -1.3680805733026735,-23.758770483143635 L -1.3680805733026735,-24.758770483143635 L -1.7101007166283422,-25.698463103929544 " />
        <path style="fill:none;stroke:#50514F;stroke-width:0.1px;stroke-linecap:square" d="M -1.3680805733026735,-24.758770483143635 L -1.3680805733026735,-25.758770483143635 L -1.0260604299770049,-26.698463103929544 " />
        <path style="fill:none;stroke:#50514F;stroke-width:0.1px;stroke-linecap:square" d="M -1.3680805733026735,-25.758770483143635 L -1.3680805733026735,-26.758770483143635 " />
        <path style="fill:none;stroke:#50514F;stroke-width:0.1px;stroke-linecap:square" d="M -1.3680805733026735,-23.758770483143635 L -1.7101007166283422,-24.698463103929544 L -2.3528883263148814,-25.464507547048523 " />
        <path style="fill:none;stroke:#50514F;stroke-width:0.1px;stroke-linecap:square" d="M -1.7101007166283422,-24.698463103929544 L -2.0521208599540106,-25.638155724715453 L -2.0521208599540106,-26.638155724715453 " />
        <path style="fill:none;stroke:#50514F;stroke-width:0.1px;stroke-linecap:square" d="M -2.0521208599540106,-25.638155724715453 L -2.394141003279679,-26.577848345501362 " />
        <path style="fill:none;stroke:#50514F;stroke-width:0.1px;stroke-linecap:square" d="M 1.2246467991473529e-15,-20.0 L 1.2858791391047204e-15,-21.0 L -0.3420201433256674,-21.93969262078591 " />
        <path style="fill:none;stroke:#50514F;stroke-width:0.1px;stroke-linecap:square" d="M 1.2858791391047204e-15,-21.0 L 1.347111479062088e-15,-22.0 L 0.3420201433256701,-22.93969262078591 " />
        <path style="fill:none;stroke:#50514F;stroke-width:0.1px;stroke-linecap:square" d="M 1.347111479062088e-15,-22.0 L 1.4083438190194556e-15,-23.0 " />
        <path style="fill:none;stroke:#50514F;stroke-width:0.1px;stroke-linecap:square" d="M 1.347111479062088e-15,-22.0 L -0.3420201433256673,-22.93969262078591 L -0.9848077530122066,-23.705737063904888 " />
        <path style="fill:none;stroke:#50514F;stroke-width:0.1px;stroke-linecap:square" d="M -0.3420201433256673,-22.93969262078591 L -0.684040286651336,-23.879385241571818 L -0.684040286651336,-24.879385241571818 " />
        <path style="fill:none;stroke:#50514F;stroke-width:0.1px;stroke-linecap:square" d="M -0.684040286651336,-23.879385241571818 L -1.0260604299770046,-24.819077862357727 " />
        <path style="fill:none;stroke:#50514F;stroke-width:0.1px;stroke-linecap:square" d="M 1.347111479062088e-15,-22.0 L 1.4083438190194556e-15,-23.0 L -0.34202014332566727,-23.93969262078591 " />
        <path style="fill:none;stroke:#50514F;stroke-width:0.1px;stroke-linecap:square" d="M 1.4083438190194556e-15,-23.0 L 1.4695761589768232e-15,-24.0 L 0.3420201433256702,-24.93969262078591 " />
        <path style="fill:none;stroke:#50514F;stroke-width:0.1px;stroke-linecap:square" d="M 1.4695761589768232e-15,-24.0 L 1.5308084989341907e-15,-25.0 " />
        <path style="fill:none;stroke:#50514F;stroke-width:0.1px;stroke-linecap:square" d="M 1.4695761589768232e-15,-24.0 L 0.3420201433256702,-24.93969262078591 L 0.34202014332567027,-25.93969262078591 " />
        <path style="fill:none;stroke:#50514F;stroke-width:0.1px;stroke-linecap:square" d="M 0.3420201433256702,-24.93969262078591 L 0.684040286651339,-25.879385241571818 L 1.3268278963378783,-26.645429684690797 " />
        <path style="fill:none;stroke:#50514F;stroke-width:0.1px;stroke-linecap:square" d="M 0.684040286651339,-25.879385241571818 L 1.0260604299770077,-26.819077862357727 " />
        <path style="fill:none;stroke:#50514F;stroke-width:0.1px;stroke-linecap:square" d="M 1.4695761589768232e-15,-24.0 L 1.5308084989341907e-15,-25.0 L -0.3420201433256671,-25.93969262078591 " />
        <path style="fill:none;stroke:#50514F;stroke-width:0.1px;stroke-linecap:square" d="M 1.5308084989341907e-15,-25.0 L 1.5920408388915583e-15,-26.0 L 0.3420201433256704,-26.93969262078591 " />
        <path style="fill:none;stroke:#50514F;stroke-width:0.1px;stroke-linecap:square" d="M 1.5920408388915583e-15,-26.0 L 1.6532731788489259e-15,-27.0 " />
        <path style="fill:none;stroke:#50514F;stroke-width:0.1px;stroke-linecap:square" d="M 1.4695761589768232e-15,-24.0 L 0.3420201433256702,-24.93969262078591 L 0.34202014332567027,-25.93969262078591 " />
        <path style="fill:none;stroke:#50514F;stroke-width:0.1px;stroke-linecap:square" d="M 0.3420201433256702,-24.93969262078591 L 0.684040286651339,-25.879385241571818 L 1.3268278963378783,-26.645429684690797 " />
        <path style="fill:none;stroke:#50514F;stroke-width:0.1px;stroke-linecap:square" d="M 0.684040286651339,-25.879385241571818 L 1.0260604299770077,-26.819077862357727 " />
        <path style="fill:none;stroke:#50514F;stroke-width:0.1px;stroke-linecap:square" d="M 0.684040286651339,-25.879385241571818 L 0.6840402866513391,-26.879385241571818 L 0.34202014332567043,-27.819077862357727 " />
        <path style="fill:none;stroke:#50514F;stroke-width:0.1px;stroke-linecap:square" d="M 0.6840402866513391,-26.879385241571818 L 0.6840402866513391,-27.879385241571818 L 1.026060429977008,-28.819077862357727 " />
        <path style="fill:none;stroke:#50514F;stroke-width:0.1px;stroke-linecap:square" d="M 0.6840402866513391,-27.879385241571818 L 0.6840402866513391,-28.879385241571818 " />
        <path style="fill:none;stroke:#50514F;stroke-width:0.1px;stroke-linecap:square" d="M 0.684040286651339,-25.879385241571818 L 1.0260604299770077,-26.819077862357727 L 1.0260604299770077,-27.819077862357727 " />
        <path style="fill:none;stroke:#50514F;stroke-width:0.1px;stroke-linecap:square" d="M 1.0260604299770077,-26.819077862357727 L 1.3680805733026764,-27.758770483143635 L 2.010868182989216,-28.524814926262614 " />
        <path style="fill:none;stroke:#50514F;stroke-width:0.1px;stroke-linecap:square" d="M 1.3680805733026764,-27.758770483143635 L 1.7101007166283453,-28.698463103929544 " />
        <path style="fill:none;stroke:#50514F;stroke-width:0.1px;stroke-linecap:square" d="M 1.3680805733026764,-27.758770483143635 L 2.010868182989216,-28.524814926262614 L 2.352888326314885,-29.464507547048523 " />
        <path style="fill:none;stroke:#50514F;stroke-width:0.1px;stroke-linecap:square" d="M 2.010868182989216,-28.524814926262614 L 2.653655792675756,-29.290859369381593 L 3.5196811964601946,-29.790859369381593 " />
        <path style="fill:none;stroke:#50514F;stroke-width:0.1px;stroke-linecap:square" d="M 2.653655792675756,-29.290859369381593 L 3.2964434023622955,-30.056903812500572 " />
        <path style="fill:none;stroke:#50514F;stroke-width:0.1px;stroke-linecap:square" d="M 1.3680805733026764,-27.758770483143635 L 1.7101007166283453,-28.698463103929544 L 1.7101007166283453,-29.698463103929544 " />
        <path style="fill:none;stroke:#50514F;stroke-width:0.1px;stroke-linecap:square" d="M 1.7101007166283453,-28.698463103929544 L 2.052120859954014,-29.638155724715453 L 2.694908469640554,-30.404200167834432 " />
        <path style="fill:none;stroke:#50514F;stroke-width:0.1px;stroke-linecap:square" d="M 2.052120859954014,-29.638155724715453 L 2.394141003279683,-30.577848345501362 " />
        <path style="fill:none;stroke:#50514F;stroke-width:0.1px;stroke-linecap:square" d="M 1.4695761589768232e-15,-24.0 L 1.5308084989341907e-15,-25.0 L -0.3420201433256671,-25.93969262078591 " />
        <path style="fill:none;stroke:#50514F;stroke-width:0.1px;stroke-linecap:square" d="M 1.5308084989341907e-15,-25.0 L 1.5920408388915583e-15,-26.0 L 0.3420201433256704,-26.93969262078591 " />
        <path style="fill:none;stroke:#50514F;stroke-width:0.1px;stroke-linecap:square" d="M 1.5920408388915583e-15,-26.0 L 1.6532731788489259e-15,-27.0 " />
        <path style="fill:none;stroke:#50514F;stroke-width:0.1px;stroke-linecap:square" d="M 1.5920408388915583e-15,-26.0 L -0.34202014332566705,-26.93969262078591 L -0.9848077530122064,-27.705737063904888 " />
        <path style="fill:none;stroke:#50514F;stroke-width:0.1px;stroke-linecap:square" d="M -0.34202014332566705,-26.93969262078591 L -0.6840402866513358,-27.879385241571818 L -0.6840402866513358,-28.879385241571818 " />
        <path style="fill:none;stroke:#50514F;stroke-width:0.1px;stroke-linecap:square" d="M -0.6840402866513358,-27.879385241571818 L -1.0260604299770044,-28.819077862357727 " />
        <path style="fill:none;stroke:#50514F;stroke-width:0.1px;stroke-linecap:square" d="M 1.5920408388915583e-15,-26.0 L 1.6532731788489259e-15,-27.0 L -0.342020143325667,-27.93969262078591 " />
        <path style="fill:none;stroke:#50514F;stroke-width:0.1px;stroke-linecap:square" d="M 1.6532731788489259e-15,-27.0 L 1.7145055188062935e-15,-28.0 L 0.3420201433256705,-28.93969262078591 " />
        <path style="fill:none;stroke:#50514F;stroke-width:0.1px;stroke-linecap:square" d="M 1.7145055188062935e-15,-28.0 L 1.775737858763661e-15,-29.0 " />
        <path style="fill:none;stroke:#50514F;stroke-width:0.1px;stroke-linecap:square" d="M 1.7145055188062935e-15,-28.0 L 0.3420201433256705,-28.93969262078591 L 0.34202014332567054,-29.93969262078591 " />
        <path style="fill:none;stroke:#50514F;stroke-width:0.1px;stroke-linecap:square" d="M 0.3420201433256705,-28.93969262078591 L 0.6840402866513393,-29.879385241571818 L 1.3268278963378788,-30.645429684690797 " />
        <path style="fill:none;stroke:#50514F;stroke-width:0.1px;stroke-linecap:square" d="M 0.6840402866513393,-29.879385241571818 L 1.026060429977008,-30.819077862357727 " />
        <path style="fill:none;stroke:#50514F;stroke-width:0.1px;stroke-linecap:square" d="M 1.7145055188062935e-15,-28.0 L 1.775737858763661e-15,-29.0 L -0.3420201433256669,-29.93969262078591 " />
        <path style="fill:none;stroke:#50514F;stroke-width:0.1px;stroke-linecap:square" d="M 1.775737858763661e-15,-29.0 L 1.8369701987210288e-15,-30.0 L 0.3420201433256706,-30.93969262078591 " />
        <path style="fill:none;stroke:#50514F;stroke-width:0.1px;stroke-linecap:square" d="M 1.8369701987210288e-15,-30.0 L 1.8982025386783964e-15,-31.0 " />
    </g>
</svg>
