<?xml version="1.0" encoding="UTF-8"?>
<!DOCTYPE svg PUBLIC "-//W3C//DTD SVG 1.1//EN"
    "http://www.w3.org/Graphics/SVG/1.1/DTD/svg11.dtd">

<svg xmlns="http://www.w3.org/2000/svg" xmlns:xlink="http://www.w3.org/1999/xlink" version="1.1" width="241.14412322194673" height="500" viewBox="-36.460991431158334 -138.6 72.92198286231668 151.2">
    <g>
        <rect x="-36.460991431158334" y="-138.6" width="72.92198286231668" height="151.2" fill="#CBD4C2" />
        <path style="fill:none;stroke:#50514F;stroke-width:0.1px;stroke-linecap:square" d="M 0.0,0.0 L 6.123233995736766e-17,-1.0 L 1.2246467991473532e-16,-2.0 L 1.8369701987210297e-16,-3.0 L 2.4492935982947064e-16,-4.0 L 3.061616997868383e-16,-5.0 L 3.67394039744206e-16,-6.0 L 4.2862637970157366e-16,-7.0 L 4.898587196589413e-16,-8.0 L 5.51091059616309e-16,-9.0 L 6.123233995736766e-16,-10.0 L 6.735557395310443e-16,-11.0 L 7.34788079488412e-16,-12.0 L 7.960204194457796e-16,-13.0 L 8.572527594031473e-16,-14.0 L 9.18485099360515e-16,-15.0 L 9.797174393178826e-16,-16.0 L 1.0409497792752501e-15,-17.0 L 1.1021821192326177e-15,-18.0 L 1.1634144591899853e-15,-19.0 L 1.2246467991473529e-15,-20.0 L 1.2858791391047204e-15,-21.0 L 1.347111479062088e-15,-22.0 L 1.4083438190194556e-15,-23.0 L 1.4695761589768232e-15,-24.0 L 1.5308084989341907e-15,-25.0 L 1.5920408388915583e-15,-26.0 L 1.6532731788489259e-15,-27.0 L 1.7145055188062935e-15,-28.0 L 1.775737858763661e-15,-29.0 L 1.8369701987210288e-15,-30.0 L 1.8982025386783964e-15,-31.0 L 1.959434878635764e-15,-32.0 L -0.4336590845875423,-32.901077021322095 L -0.8673181691750866,-33.80215404264419 L -1.300977253762631,-34.703231063966285 L -1.7346363383501753,-35.60430808528838 L -2.1682954229377196,-36.505385106610476 L -2.6019545075252637,-37.40646212793257 L -3.035613592112808,-38.307539149254666 L -3.469272676700352,-39.20861617057676 L -3.902931761287896,-40.109693191898856 L -4.33659084587544,-41.01077021322095 L -4.770249930462985,-41.911847234543046 L -5.203909015050529,-42.81292425586514 L -5.637568099638074,-43.714001277187236 L -6.071227184225618,-44.61507829850933 L -6.504886268813163,-45.51615531983143 L -6.938545353400707,-46.41723234115352 L -7.7200658258195265,-47.04111193786291 L -8.501586298238346,-47.664991534572295 L -9.283106770657165,-48.28887113128168 L -10.064627243075984,-48.91275072799107 L -10.846147715494803,-49.536630324700454 L -11.627668187913622,-50.16050992140984 L -12.409188660332442,-50.78438951811923 L -13.19070913275126,-51.40826911482861 L -14.165470326942483,-51.631519230839565 L -15.140231521133705,-51.85476934685052 L -16.114992715324927,-52.07801946286147 L -17.089753909516148,-52.30126957887242 L -18.064903263821712,-52.079721081252956 L -19.040052618127277,-51.85817258363349 L -19.822660774979692,-51.23565794699587 L -20.605268931832107,-50.613143310358254 " />
        <path style="fill:none;stroke:#50514F;stroke-width:0.1px;stroke-linecap:square" d="M -19.040052618127277,-51.85817258363349 L -20.014813812318497,-52.08142269964444 L -20.989575006509718,-52.304672815655394 " />
        <path style="fill:none;stroke:#50514F;stroke-width:0.1px;stroke-linecap:square" d="M -19.040052618127277,-51.85817258363349 L -20.01520197243284,-51.636624086014024 L -20.990351326738406,-51.41507558839456 L -21.96550068104397,-51.19352709077509 L -22.940650035349535,-50.971978593155626 " />
        <path style="fill:none;stroke:#50514F;stroke-width:0.1px;stroke-linecap:square" d="M -17.089753909516148,-52.30126957887242 L -17.871274381934967,-52.92514917558181 L -18.652794854353786,-53.549028772291194 L -19.627556048545006,-53.77227888830215 L -20.602317242736227,-53.9955290043131 " />
        <path style="fill:none;stroke:#50514F;stroke-width:0.1px;stroke-linecap:square" d="M -18.652794854353786,-53.549028772291194 L -19.08645393894133,-54.45010579361328 L -19.52011302352887,-55.35118281493537 " />
        <path style="fill:none;stroke:#50514F;stroke-width:0.1px;stroke-linecap:square" d="M -18.652794854353786,-53.549028772291194 L -19.434315326772605,-54.17290836900058 L -20.215835799191424,-54.79678796570997 L -20.997356271610244,-55.420667562419354 L -21.778876744029063,-56.04454715912874 " />
        <path style="fill:none;stroke:#50514F;stroke-width:0.1px;stroke-linecap:square" d="M -17.089753909516148,-52.30126957887242 L -18.064515103707368,-52.524519694883374 L -19.03927629789859,-52.747769810894326 L -20.01403749208981,-52.97101992690528 L -20.98879868628103,-53.19427004291623 L -21.96355988047225,-53.41752015892718 L -22.93832107466347,-53.640770274938134 L -23.913470428969035,-53.41922177731867 L -24.8886197832746,-53.1976732796992 " />
        <path style="fill:none;stroke:#50514F;stroke-width:0.1px;stroke-linecap:square" d="M -22.93832107466347,-53.640770274938134 L -23.71984154708229,-54.26464987164752 L -24.50136201950111,-54.88852946835691 " />
        <path style="fill:none;stroke:#50514F;stroke-width:0.1px;stroke-linecap:square" d="M -22.93832107466347,-53.640770274938134 L -23.91308226885469,-53.86402039094909 L -24.88784346304591,-54.08727050696004 L -25.86260465723713,-54.31052062297099 L -26.837365851428352,-54.53377073898194 " />
        <path style="fill:none;stroke:#50514F;stroke-width:0.1px;stroke-linecap:square" d="M -13.19070913275126,-51.40826911482861 L -13.624368217338805,-52.30934613615071 L -14.05802730192635,-53.2104231574728 L -14.491686386513894,-54.1115001787949 L -14.925345471101439,-55.01257720011699 L -15.706865943520258,-55.63645679682638 L -16.488386415939075,-56.260336393535766 L -17.463147610130296,-56.48358650954672 L -18.437908804321516,-56.70683662555767 " />
        <path style="fill:none;stroke:#50514F;stroke-width:0.1px;stroke-linecap:square" d="M -16.488386415939075,-56.260336393535766 L -16.922045500526618,-57.161413414857854 L -17.35570458511416,-58.06249043617994 " />
        <path style="fill:none;stroke:#50514F;stroke-width:0.1px;stroke-linecap:square" d="M -16.488386415939075,-56.260336393535766 L -17.269906888357895,-56.88421599024515 L -18.051427360776714,-57.50809558695454 L -18.832947833195533,-58.131975183663926 L -19.614468305614352,-58.75585478037331 " />
        <path style="fill:none;stroke:#50514F;stroke-width:0.1px;stroke-linecap:square" d="M -14.925345471101439,-55.01257720011699 L -14.925345471101439,-56.01257720011699 L -14.925345471101439,-57.01257720011699 L -15.359004555688983,-57.91365422143908 L -15.792663640276528,-58.81473124276117 " />
        <path style="fill:none;stroke:#50514F;stroke-width:0.1px;stroke-linecap:square" d="M -14.925345471101439,-57.01257720011699 L -14.491686386513894,-57.91365422143908 L -14.05802730192635,-58.81473124276117 " />
        <path style="fill:none;stroke:#50514F;stroke-width:0.1px;stroke-linecap:square" d="M -14.925345471101439,-57.01257720011699 L -14.925345471101439,-58.01257720011699 L -14.925345471101439,-59.01257720011699 L -14.925345471101439,-60.01257720011699 L -14.925345471101439,-61.01257720011699 " />
        <path style="fill:none;stroke:#50514F;stroke-width:0.1px;stroke-linecap:square" d="M -14.925345471101439,-55.01257720011699 L -15.359004555688983,-55.91365422143909 L -15.792663640276528,-56.814731242761184 L -16.226322724864072,-57.71580826408328 L -16.659981809451615,-58.616885285405374 L -17.093640894039158,-59.51796230672747 L -17.5272999786267,-60.419039328049564 L -18.30882045104552,-61.04291892475895 L -19.09034092346434,-61.66679852146834 " />
        <path style="fill:none;stroke:#50514F;stroke-width:0.1px;stroke-linecap:square" d="M -17.5272999786267,-60.419039328049564 L -17.5272999786267,-61.419039328049564 L -17.5272999786267,-62.419039328049564 " />
        <path style="fill:none;stroke:#50514F;stroke-width:0.1px;stroke-linecap:square" d="M -17.5272999786267,-60.419039328049564 L -17.960959063214244,-61.32011634937166 L -18.394618147801786,-62.221193370693754 L -18.82827723238933,-63.12227039201585 L -19.261936316976872,-64.02334741333794 " />
        <path style="fill:none;stroke:#50514F;stroke-width:0.1px;stroke-linecap:square" d="M -13.19070913275126,-51.40826911482861 L -13.97222960517008,-52.032148711538 L -14.753750077588899,-52.656028308247386 L -15.535270550007718,-53.27990790495677 L -16.316791022426536,-53.90378750166616 L -17.098311494845355,-54.527667098375545 L -17.879831967264174,-55.15154669508493 L -18.661352439682993,-55.77542629179432 L -19.442872912101812,-56.399305888503704 L -20.22439338452063,-57.02318548521309 L -21.00591385693945,-57.64706508192248 L -21.78743432935827,-58.270944678631864 L -22.56895480177709,-58.89482427534125 L -23.54371599596831,-59.1180743913522 L -24.51847719015953,-59.341324507363154 L -25.493626544465094,-59.11977600974369 L -26.46877589877066,-58.89822751212422 " />
        <path style="fill:none;stroke:#50514F;stroke-width:0.1px;stroke-linecap:square" d="M -24.51847719015953,-59.341324507363154 L -25.29999766257835,-59.96520410407254 L -26.081518134997168,-60.58908370078193 " />
        <path style="fill:none;stroke:#50514F;stroke-width:0.1px;stroke-linecap:square" d="M -24.51847719015953,-59.341324507363154 L -25.49323838435075,-59.56457462337411 L -26.46799957854197,-59.78782473938506 L -27.44276077273319,-60.01107485539601 L -28.41752196692441,-60.23432497140696 " />
        <path style="fill:none;stroke:#50514F;stroke-width:0.1px;stroke-linecap:square" d="M -22.56895480177709,-58.89482427534125 L -23.00261388636463,-59.795901296663345 L -23.436272970952174,-60.69697831798544 L -24.217793443370994,-61.32085791469483 L -24.999313915789813,-61.94473751140421 " />
        <path style="fill:none;stroke:#50514F;stroke-width:0.1px;stroke-linecap:square" d="M -23.436272970952174,-60.69697831798544 L -23.436272970952174,-61.69697831798544 L -23.436272970952174,-62.69697831798544 " />
        <path style="fill:none;stroke:#50514F;stroke-width:0.1px;stroke-linecap:square" d="M -23.436272970952174,-60.69697831798544 L -23.869932055539717,-61.598055339307535 L -24.30359114012726,-62.49913236062963 L -24.737250224714803,-63.400209381951726 L -25.170909309302345,-64.30128640327382 " />
        <path style="fill:none;stroke:#50514F;stroke-width:0.1px;stroke-linecap:square" d="M -22.56895480177709,-58.89482427534125 L -23.350475274195908,-59.51870387205064 L -24.131995746614727,-60.14258346876002 L -24.913516219033546,-60.76646306546941 L -25.695036691452366,-61.390342662178796 L -26.476557163871185,-62.01422225888818 L -27.258077636290004,-62.63810185559757 L -28.232838830481224,-62.86135197160852 L -29.207600024672445,-63.08460208761947 " />
        <path style="fill:none;stroke:#50514F;stroke-width:0.1px;stroke-linecap:square" d="M -27.258077636290004,-62.63810185559757 L -27.691736720877547,-63.539178876919664 L -28.12539580546509,-64.44025589824176 " />
        <path style="fill:none;stroke:#50514F;stroke-width:0.1px;stroke-linecap:square" d="M -27.258077636290004,-62.63810185559757 L -28.039598108708823,-63.261981452306955 L -28.821118581127642,-63.88586104901634 L -29.60263905354646,-64.50974064572573 L -30.38415952596528,-65.13362024243511 " />
        <path style="fill:none;stroke:#50514F;stroke-width:0.1px;stroke-linecap:square" d="M -6.938545353400707,-46.41723234115352 L -6.938545353400707,-47.41723234115352 L -6.938545353400707,-48.41723234115352 L -6.938545353400707,-49.41723234115352 L -6.938545353400707,-50.41723234115352 L -6.938545353400707,-51.41723234115352 L -6.938545353400707,-52.41723234115352 L -6.938545353400707,-53.41723234115352 L -6.938545353400707,-54.41723234115352 L -7.372204437988252,-55.31830936247561 L -7.805863522575796,-56.2193863837977 L -8.239522607163341,-57.120463405119786 L -8.673181691750885,-58.021540426441874 L -9.454702164169705,-58.64542002315126 L -10.236222636588524,-59.26929961986065 L -11.210983830779746,-59.4925497358716 L -12.185745024970968,-59.71579985188255 " />
        <path style="fill:none;stroke:#50514F;stroke-width:0.1px;stroke-linecap:square" d="M -10.236222636588524,-59.26929961986065 L -10.669881721176068,-60.170376641182735 L -11.103540805763613,-61.07145366250482 " />
        <path style="fill:none;stroke:#50514F;stroke-width:0.1px;stroke-linecap:square" d="M -10.236222636588524,-59.26929961986065 L -11.017743109007343,-59.89317921657003 L -11.799263581426162,-60.51705881327942 L -12.580784053844981,-61.140938409988806 L -13.3623045262638,-61.76481800669819 " />
        <path style="fill:none;stroke:#50514F;stroke-width:0.1px;stroke-linecap:square" d="M -8.673181691750885,-58.021540426441874 L -8.673181691750885,-59.021540426441874 L -8.673181691750885,-60.021540426441874 L -9.10684077633843,-60.92261744776396 L -9.540499860925975,-61.82369446908605 " />
        <path style="fill:none;stroke:#50514F;stroke-width:0.1px;stroke-linecap:square" d="M -8.673181691750885,-60.021540426441874 L -8.239522607163341,-60.92261744776396 L -7.805863522575796,-61.82369446908605 " />
        <path style="fill:none;stroke:#50514F;stroke-width:0.1px;stroke-linecap:square" d="M -8.673181691750885,-60.021540426441874 L -8.673181691750885,-61.021540426441874 L -8.673181691750885,-62.021540426441874 L -8.673181691750885,-63.021540426441874 L -8.673181691750885,-64.02154042644187 " />
        <path style="fill:none;stroke:#50514F;stroke-width:0.1px;stroke-linecap:square" d="M -8.673181691750885,-58.021540426441874 L -9.10684077633843,-58.92261744776396 L -9.540499860925975,-59.82369446908605 L -9.97415894551352,-60.72477149040814 L -10.407818030101064,-61.625848511730226 L -10.841477114688608,-62.526925533052314 L -11.275136199276153,-63.4280025543744 L -12.056656671694972,-64.05188215108379 L -12.838177144113791,-64.67576174779317 " />
        <path style="fill:none;stroke:#50514F;stroke-width:0.1px;stroke-linecap:square" d="M -11.275136199276153,-63.4280025543744 L -11.275136199276153,-64.4280025543744 L -11.275136199276153,-65.4280025543744 " />
        <path style="fill:none;stroke:#50514F;stroke-width:0.1px;stroke-linecap:square" d="M -11.275136199276153,-63.4280025543744 L -11.708795283863697,-64.3290795756965 L -12.142454368451242,-65.23015659701859 L -12.576113453038786,-66.13123361834069 L -13.009772537626331,-67.03231063966278 " />
        <path style="fill:none;stroke:#50514F;stroke-width:0.1px;stroke-linecap:square" d="M -6.938545353400707,-54.41723234115352 L -6.504886268813163,-55.31830936247561 L -6.071227184225618,-56.2193863837977 L -5.637568099638074,-57.120463405119786 L -5.203909015050529,-58.021540426441874 L -5.203909015050529,-59.021540426441874 L -5.203909015050529,-60.021540426441874 L -5.637568099638074,-60.92261744776396 L -6.071227184225618,-61.82369446908605 " />
        <path style="fill:none;stroke:#50514F;stroke-width:0.1px;stroke-linecap:square" d="M -5.203909015050529,-60.021540426441874 L -4.770249930462985,-60.92261744776396 L -4.33659084587544,-61.82369446908605 " />
        <path style="fill:none;stroke:#50514F;stroke-width:0.1px;stroke-linecap:square" d="M -5.203909015050529,-60.021540426441874 L -5.203909015050529,-61.021540426441874 L -5.203909015050529,-62.021540426441874 L -5.203909015050529,-63.021540426441874 L -5.203909015050529,-64.02154042644187 " />
        <path style="fill:none;stroke:#50514F;stroke-width:0.1px;stroke-linecap:square" d="M -5.203909015050529,-58.021540426441874 L -4.42238854263171,-58.64542002315126 L -3.6408680702128913,-59.26929961986065 L -3.207208985625347,-60.17037664118274 L -2.773549901037803,-61.07145366250484 " />
        <path style="fill:none;stroke:#50514F;stroke-width:0.1px;stroke-linecap:square" d="M -3.6408680702128913,-59.26929961986065 L -2.6661068760216695,-59.4925497358716 L -1.6913456818304478,-59.71579985188255 " />
        <path style="fill:none;stroke:#50514F;stroke-width:0.1px;stroke-linecap:square" d="M -3.6408680702128913,-59.26929961986065 L -2.8593475977940725,-59.89317921657003 L -2.077827125375254,-60.51705881327942 L -1.296306652956435,-61.140938409988806 L -0.5147861805376164,-61.76481800669819 " />
        <path style="fill:none;stroke:#50514F;stroke-width:0.1px;stroke-linecap:square" d="M -5.203909015050529,-58.021540426441874 L -4.770249930462985,-58.92261744776396 L -4.33659084587544,-59.82369446908605 L -3.9029317612878955,-60.72477149040814 L -3.469272676700351,-61.625848511730226 L -3.0356135921128065,-62.526925533052314 L -2.601954507525262,-63.4280025543744 L -2.601954507525262,-64.4280025543744 L -2.601954507525262,-65.4280025543744 " />
        <path style="fill:none;stroke:#50514F;stroke-width:0.1px;stroke-linecap:square" d="M -2.601954507525262,-63.4280025543744 L -1.8204340351064432,-64.05188215108379 L -1.0389135626876245,-64.67576174779317 " />
        <path style="fill:none;stroke:#50514F;stroke-width:0.1px;stroke-linecap:square" d="M -2.601954507525262,-63.4280025543744 L -2.1682954229377174,-64.3290795756965 L -1.734636338350173,-65.23015659701859 L -1.3009772537626287,-66.13123361834069 L -0.8673181691750844,-67.03231063966278 " />
        <path style="fill:none;stroke:#50514F;stroke-width:0.1px;stroke-linecap:square" d="M -6.938545353400707,-54.41723234115352 L -6.938545353400707,-55.41723234115352 L -6.938545353400707,-56.41723234115352 L -6.938545353400707,-57.41723234115352 L -6.938545353400707,-58.41723234115352 L -6.938545353400707,-59.41723234115352 L -6.938545353400707,-60.41723234115352 L -6.938545353400707,-61.41723234115352 L -6.938545353400707,-62.41723234115352 L -6.938545353400707,-63.41723234115352 L -6.938545353400707,-64.41723234115352 L -6.938545353400707,-65.41723234115352 L -6.938545353400707,-66.41723234115352 L -7.372204437988252,-67.31830936247562 L -7.805863522575796,-68.21938638379771 L -8.587383994994616,-68.8432659805071 L -9.368904467413435,-69.46714557721648 " />
        <path style="fill:none;stroke:#50514F;stroke-width:0.1px;stroke-linecap:square" d="M -7.805863522575796,-68.21938638379771 L -7.805863522575796,-69.21938638379771 L -7.805863522575796,-70.21938638379771 " />
        <path style="fill:none;stroke:#50514F;stroke-width:0.1px;stroke-linecap:square" d="M -7.805863522575796,-68.21938638379771 L -8.239522607163341,-69.1204634051198 L -8.673181691750885,-70.0215404264419 L -9.10684077633843,-70.922617447764 L -9.540499860925975,-71.82369446908609 " />
        <path style="fill:none;stroke:#50514F;stroke-width:0.1px;stroke-linecap:square" d="M -6.938545353400707,-66.41723234115352 L -6.504886268813163,-67.31830936247562 L -6.071227184225618,-68.21938638379771 L -6.071227184225618,-69.21938638379771 L -6.071227184225618,-70.21938638379771 " />
        <path style="fill:none;stroke:#50514F;stroke-width:0.1px;stroke-linecap:square" d="M -6.071227184225618,-68.21938638379771 L -5.289706711806799,-68.8432659805071 L -4.50818623938798,-69.46714557721648 " />
        <path style="fill:none;stroke:#50514F;stroke-width:0.1px;stroke-linecap:square" d="M -6.071227184225618,-68.21938638379771 L -5.637568099638074,-69.1204634051198 L -5.203909015050529,-70.0215404264419 L -4.770249930462985,-70.922617447764 L -4.33659084587544,-71.82369446908609 " />
        <path style="fill:none;stroke:#50514F;stroke-width:0.1px;stroke-linecap:square" d="M -6.938545353400707,-66.41723234115352 L -6.938545353400707,-67.41723234115352 L -6.938545353400707,-68.41723234115352 L -6.938545353400707,-69.41723234115352 L -6.938545353400707,-70.41723234115352 L -6.938545353400707,-71.41723234115352 L -6.938545353400707,-72.41723234115352 L -7.372204437988252,-73.31830936247562 L -7.805863522575796,-74.21938638379771 " />
        <path style="fill:none;stroke:#50514F;stroke-width:0.1px;stroke-linecap:square" d="M -6.938545353400707,-72.41723234115352 L -6.504886268813163,-73.31830936247562 L -6.071227184225618,-74.21938638379771 " />
        <path style="fill:none;stroke:#50514F;stroke-width:0.1px;stroke-linecap:square" d="M -6.938545353400707,-72.41723234115352 L -6.938545353400707,-73.41723234115352 L -6.938545353400707,-74.41723234115352 L -6.938545353400707,-75.41723234115352 L -6.938545353400707,-76.41723234115352 " />
        <path style="fill:none;stroke:#50514F;stroke-width:0.1px;stroke-linecap:square" d="M -6.938545353400707,-46.41723234115352 L -7.372204437988252,-47.31830936247562 L -7.805863522575796,-48.21938638379771 L -8.239522607163341,-49.12046340511981 L -8.673181691750885,-50.0215404264419 L -9.10684077633843,-50.922617447764 L -9.540499860925975,-51.82369446908609 L -9.97415894551352,-52.72477149040819 L -10.407818030101064,-53.62584851173028 L -10.841477114688608,-54.52692553305238 L -11.275136199276153,-55.42800255437447 L -11.708795283863697,-56.32907957569657 L -12.142454368451242,-57.23015659701866 L -12.576113453038786,-58.13123361834076 L -13.009772537626331,-59.03231063966285 L -13.443431622213875,-59.93338766098495 L -13.87709070680142,-60.83446468230704 L -14.310749791388965,-61.73554170362914 L -14.744408875976509,-62.636618724951234 L -15.178067960564054,-63.53769574627333 L -15.611727045151598,-64.43877276759542 L -16.045386129739143,-65.33984978891752 L -16.479045214326685,-66.24092681023961 L -16.912704298914228,-67.14200383156171 L -17.34636338350177,-68.0430808528838 L -18.12788385592059,-68.66696044959319 L -18.90940432833941,-69.29084004630258 L -19.69092480075823,-69.91471964301196 L -20.472445273177048,-70.53859923972135 L -21.447206467368268,-70.7618493557323 L -22.42196766155949,-70.98509947174324 L -23.397117015865053,-70.76355097412377 L -24.372266370170617,-70.54200247650431 " />
        <path style="fill:none;stroke:#50514F;stroke-width:0.1px;stroke-linecap:square" d="M -22.42196766155949,-70.98509947174324 L -23.203488133978308,-71.60897906845263 L -23.985008606397127,-72.23285866516201 " />
        <path style="fill:none;stroke:#50514F;stroke-width:0.1px;stroke-linecap:square" d="M -22.42196766155949,-70.98509947174324 L -23.39672885575071,-71.20834958775418 L -24.37149004994193,-71.43159970376513 L -25.34625124413315,-71.65484981977608 L -26.32101243832437,-71.87809993578702 " />
        <path style="fill:none;stroke:#50514F;stroke-width:0.1px;stroke-linecap:square" d="M -20.472445273177048,-70.53859923972135 L -20.90610435776459,-71.43967626104345 L -21.339763442352133,-72.34075328236554 L -22.121283914770952,-72.96463287907493 L -22.90280438718977,-73.58851247578431 " />
        <path style="fill:none;stroke:#50514F;stroke-width:0.1px;stroke-linecap:square" d="M -21.339763442352133,-72.34075328236554 L -21.339763442352133,-73.34075328236554 L -21.339763442352133,-74.34075328236554 " />
        <path style="fill:none;stroke:#50514F;stroke-width:0.1px;stroke-linecap:square" d="M -21.339763442352133,-72.34075328236554 L -21.773422526939676,-73.24183030368764 L -22.20708161152722,-74.14290732500973 L -22.64074069611476,-75.04398434633183 L -23.074399780702304,-75.94506136765392 " />
        <path style="fill:none;stroke:#50514F;stroke-width:0.1px;stroke-linecap:square" d="M -20.472445273177048,-70.53859923972135 L -21.253965745595867,-71.16247883643074 L -22.035486218014686,-71.78635843314012 L -22.817006690433505,-72.41023802984951 L -23.598527162852324,-73.0341176265589 L -24.380047635271143,-73.65799722326828 L -25.161568107689963,-74.28187681997767 L -26.136329301881183,-74.50512693598861 L -27.111090496072404,-74.72837705199956 " />
        <path style="fill:none;stroke:#50514F;stroke-width:0.1px;stroke-linecap:square" d="M -25.161568107689963,-74.28187681997767 L -25.595227192277505,-75.18295384129976 L -26.028886276865048,-76.08403086262186 " />
        <path style="fill:none;stroke:#50514F;stroke-width:0.1px;stroke-linecap:square" d="M -25.161568107689963,-74.28187681997767 L -25.943088580108782,-74.90575641668705 L -26.7246090525276,-75.52963601339644 L -27.50612952494642,-76.15351561010583 L -28.28764999736524,-76.77739520681521 " />
        <path style="fill:none;stroke:#50514F;stroke-width:0.1px;stroke-linecap:square" d="M -17.34636338350177,-68.0430808528838 L -17.34636338350177,-69.0430808528838 L -17.34636338350177,-70.0430808528838 L -17.34636338350177,-71.0430808528838 L -17.34636338350177,-72.0430808528838 L -17.780022468089314,-72.9441578742059 L -18.213681552676857,-73.845234895528 L -18.995202025095676,-74.46911449223738 L -19.776722497514495,-75.09299408894677 " />
        <path style="fill:none;stroke:#50514F;stroke-width:0.1px;stroke-linecap:square" d="M -18.213681552676857,-73.845234895528 L -18.213681552676857,-74.845234895528 L -18.213681552676857,-75.845234895528 " />
        <path style="fill:none;stroke:#50514F;stroke-width:0.1px;stroke-linecap:square" d="M -18.213681552676857,-73.845234895528 L -18.6473406372644,-74.74631191685009 L -19.080999721851942,-75.64738893817218 L -19.514658806439485,-76.54846595949428 L -19.948317891027028,-77.44954298081637 " />
        <path style="fill:none;stroke:#50514F;stroke-width:0.1px;stroke-linecap:square" d="M -17.34636338350177,-72.0430808528838 L -16.912704298914228,-72.9441578742059 L -16.479045214326685,-73.845234895528 L -16.479045214326685,-74.845234895528 L -16.479045214326685,-75.845234895528 " />
        <path style="fill:none;stroke:#50514F;stroke-width:0.1px;stroke-linecap:square" d="M -16.479045214326685,-73.845234895528 L -15.697524741907866,-74.46911449223738 L -14.916004269489047,-75.09299408894677 " />
        <path style="fill:none;stroke:#50514F;stroke-width:0.1px;stroke-linecap:square" d="M -16.479045214326685,-73.845234895528 L -16.045386129739143,-74.74631191685009 L -15.611727045151598,-75.64738893817218 L -15.178067960564054,-76.54846595949428 L -14.744408875976509,-77.44954298081637 " />
        <path style="fill:none;stroke:#50514F;stroke-width:0.1px;stroke-linecap:square" d="M -17.34636338350177,-72.0430808528838 L -17.34636338350177,-73.0430808528838 L -17.34636338350177,-74.0430808528838 L -17.34636338350177,-75.0430808528838 L -17.34636338350177,-76.0430808528838 L -17.34636338350177,-77.0430808528838 L -17.34636338350177,-78.0430808528838 L -17.780022468089314,-78.9441578742059 L -18.213681552676857,-79.845234895528 " />
        <path style="fill:none;stroke:#50514F;stroke-width:0.1px;stroke-linecap:square" d="M -17.34636338350177,-78.0430808528838 L -16.912704298914228,-78.9441578742059 L -16.479045214326685,-79.845234895528 " />
        <path style="fill:none;stroke:#50514F;stroke-width:0.1px;stroke-linecap:square" d="M -17.34636338350177,-78.0430808528838 L -17.34636338350177,-79.0430808528838 L -17.34636338350177,-80.0430808528838 L -17.34636338350177,-81.0430808528838 L -17.34636338350177,-82.0430808528838 " />
        <path style="fill:none;stroke:#50514F;stroke-width:0.1px;stroke-linecap:square" d="M -17.34636338350177,-68.0430808528838 L -17.780022468089314,-68.9441578742059 L -18.213681552676857,-69.845234895528 L -18.6473406372644,-70.74631191685009 L -19.080999721851942,-71.64738893817218 L -19.514658806439485,-72.54846595949428 L -19.948317891027028,-73.44954298081637 L -20.38197697561457,-74.35062000213847 L -20.815636060202113,-75.25169702346057 L -21.249295144789656,-76.15277404478266 L -21.6829542293772,-77.05385106610476 L -22.11661331396474,-77.95492808742685 L -22.550272398552284,-78.85600510874895 L -23.331792870971103,-79.47988470545833 L -24.113313343389922,-80.10376430216772 L -25.088074537581143,-80.32701441817866 L -26.062835731772363,-80.55026453418961 " />
        <path style="fill:none;stroke:#50514F;stroke-width:0.1px;stroke-linecap:square" d="M -24.113313343389922,-80.10376430216772 L -24.546972427977465,-81.00484132348981 L -24.980631512565008,-81.90591834481191 " />
        <path style="fill:none;stroke:#50514F;stroke-width:0.1px;stroke-linecap:square" d="M -24.113313343389922,-80.10376430216772 L -24.89483381580874,-80.7276438988771 L -25.67635428822756,-81.35152349558649 L -26.45787476064638,-81.97540309229588 L -27.2393952330652,-82.59928268900526 " />
        <path style="fill:none;stroke:#50514F;stroke-width:0.1px;stroke-linecap:square" d="M -22.550272398552284,-78.85600510874895 L -22.550272398552284,-79.85600510874895 L -22.550272398552284,-80.85600510874895 L -22.983931483139827,-81.75708213007104 L -23.41759056772737,-82.65815915139314 " />
        <path style="fill:none;stroke:#50514F;stroke-width:0.1px;stroke-linecap:square" d="M -22.550272398552284,-80.85600510874895 L -22.11661331396474,-81.75708213007104 L -21.6829542293772,-82.65815915139314 " />
        <path style="fill:none;stroke:#50514F;stroke-width:0.1px;stroke-linecap:square" d="M -22.550272398552284,-80.85600510874895 L -22.550272398552284,-81.85600510874895 L -22.550272398552284,-82.85600510874895 L -22.550272398552284,-83.85600510874895 L -22.550272398552284,-84.85600510874895 " />
        <path style="fill:none;stroke:#50514F;stroke-width:0.1px;stroke-linecap:square" d="M -22.550272398552284,-78.85600510874895 L -22.983931483139827,-79.75708213007104 L -23.41759056772737,-80.65815915139314 L -23.851249652314912,-81.55923617271523 L -24.284908736902455,-82.46031319403733 L -24.718567821489998,-83.36139021535942 L -25.15222690607754,-84.26246723668152 L -25.93374737849636,-84.8863468333909 L -26.71526785091518,-85.51022643010029 " />
        <path style="fill:none;stroke:#50514F;stroke-width:0.1px;stroke-linecap:square" d="M -25.15222690607754,-84.26246723668152 L -25.15222690607754,-85.26246723668152 L -25.15222690607754,-86.26246723668152 " />
        <path style="fill:none;stroke:#50514F;stroke-width:0.1px;stroke-linecap:square" d="M -25.15222690607754,-84.26246723668152 L -25.585885990665084,-85.16354425800361 L -26.019545075252626,-86.0646212793257 L -26.45320415984017,-86.9656983006478 L -26.886863244427712,-87.8667753219699 " />
        <path style="fill:none;stroke:#50514F;stroke-width:0.1px;stroke-linecap:square" d="M 1.959434878635764e-15,-32.0 L 0.4336590845875463,-32.901077021322095 L 0.8673181691750906,-33.80215404264419 L 1.300977253762635,-34.703231063966285 L 1.7346363383501793,-35.60430808528838 L 2.1682954229377236,-36.505385106610476 L 2.601954507525268,-37.40646212793257 L 3.0356135921128127,-38.307539149254666 L 3.469272676700357,-39.20861617057676 L 3.9029317612879018,-40.109693191898856 L 4.336590845875446,-41.01077021322095 L 4.770249930462991,-41.911847234543046 L 5.203909015050535,-42.81292425586514 L 5.63756809963808,-43.714001277187236 L 6.0712271842256245,-44.61507829850933 L 6.504886268813169,-45.51615531983143 L 6.9385453534007135,-46.41723234115352 L 6.9385453534007135,-47.41723234115352 L 6.9385453534007135,-48.41723234115352 L 6.9385453534007135,-49.41723234115352 L 6.9385453534007135,-50.41723234115352 L 6.9385453534007135,-51.41723234115352 L 6.9385453534007135,-52.41723234115352 L 6.9385453534007135,-53.41723234115352 L 6.9385453534007135,-54.41723234115352 L 6.504886268813169,-55.31830936247561 L 6.0712271842256245,-56.2193863837977 L 5.63756809963808,-57.120463405119786 L 5.203909015050535,-58.021540426441874 L 4.422388542631717,-58.64542002315126 L 3.640868070212899,-59.26929961986065 L 2.6661068760216775,-59.4925497358716 L 1.691345681830456,-59.71579985188255 " />
        <path style="fill:none;stroke:#50514F;stroke-width:0.1px;stroke-linecap:square" d="M 3.640868070212899,-59.26929961986065 L 3.2072089856253547,-60.170376641182735 L 2.7735499010378106,-61.07145366250482 " />
        <path style="fill:none;stroke:#50514F;stroke-width:0.1px;stroke-linecap:square" d="M 3.640868070212899,-59.26929961986065 L 2.8593475977940805,-59.89317921657003 L 2.0778271253752623,-60.51705881327942 L 1.2963066529564438,-61.140938409988806 L 0.5147861805376253,-61.76481800669819 " />
        <path style="fill:none;stroke:#50514F;stroke-width:0.1px;stroke-linecap:square" d="M 5.203909015050535,-58.021540426441874 L 5.203909015050535,-59.021540426441874 L 5.203909015050535,-60.021540426441874 L 4.770249930462991,-60.92261744776396 L 4.336590845875446,-61.82369446908605 " />
        <path style="fill:none;stroke:#50514F;stroke-width:0.1px;stroke-linecap:square" d="M 5.203909015050535,-60.021540426441874 L 5.63756809963808,-60.92261744776396 L 6.0712271842256245,-61.82369446908605 " />
        <path style="fill:none;stroke:#50514F;stroke-width:0.1px;stroke-linecap:square" d="M 5.203909015050535,-60.021540426441874 L 5.203909015050535,-61.021540426441874 L 5.203909015050535,-62.021540426441874 L 5.203909015050535,-63.021540426441874 L 5.203909015050535,-64.02154042644187 " />
        <path style="fill:none;stroke:#50514F;stroke-width:0.1px;stroke-linecap:square" d="M 5.203909015050535,-58.021540426441874 L 4.770249930462991,-58.92261744776396 L 4.336590845875446,-59.82369446908605 L 3.902931761287902,-60.72477149040814 L 3.469272676700358,-61.625848511730226 L 3.035613592112814,-62.526925533052314 L 2.60195450752527,-63.4280025543744 L 1.8204340351064514,-64.05188215108379 L 1.038913562687633,-64.67576174779317 " />
        <path style="fill:none;stroke:#50514F;stroke-width:0.1px;stroke-linecap:square" d="M 2.60195450752527,-63.4280025543744 L 2.60195450752527,-64.4280025543744 L 2.60195450752527,-65.4280025543744 " />
        <path style="fill:none;stroke:#50514F;stroke-width:0.1px;stroke-linecap:square" d="M 2.60195450752527,-63.4280025543744 L 2.168295422937726,-64.3290795756965 L 1.7346363383501817,-65.23015659701859 L 1.3009772537626376,-66.13123361834069 L 0.8673181691750934,-67.03231063966278 " />
        <path style="fill:none;stroke:#50514F;stroke-width:0.1px;stroke-linecap:square" d="M 6.9385453534007135,-54.41723234115352 L 7.372204437988258,-55.31830936247561 L 7.805863522575803,-56.2193863837977 L 8.239522607163346,-57.120463405119786 L 8.67318169175089,-58.021540426441874 L 8.67318169175089,-59.021540426441874 L 8.67318169175089,-60.021540426441874 L 8.239522607163346,-60.92261744776396 L 7.805863522575802,-61.82369446908605 " />
        <path style="fill:none;stroke:#50514F;stroke-width:0.1px;stroke-linecap:square" d="M 8.67318169175089,-60.021540426441874 L 9.106840776338435,-60.92261744776396 L 9.54049986092598,-61.82369446908605 " />
        <path style="fill:none;stroke:#50514F;stroke-width:0.1px;stroke-linecap:square" d="M 8.67318169175089,-60.021540426441874 L 8.67318169175089,-61.021540426441874 L 8.67318169175089,-62.021540426441874 L 8.67318169175089,-63.021540426441874 L 8.67318169175089,-64.02154042644187 " />
        <path style="fill:none;stroke:#50514F;stroke-width:0.1px;stroke-linecap:square" d="M 8.67318169175089,-58.021540426441874 L 9.45470216416971,-58.64542002315126 L 10.23622263658853,-59.26929961986065 L 10.669881721176074,-60.17037664118274 L 11.103540805763618,-61.07145366250484 " />
        <path style="fill:none;stroke:#50514F;stroke-width:0.1px;stroke-linecap:square" d="M 10.23622263658853,-59.26929961986065 L 11.210983830779751,-59.4925497358716 L 12.185745024970974,-59.71579985188255 " />
        <path style="fill:none;stroke:#50514F;stroke-width:0.1px;stroke-linecap:square" d="M 10.23622263658853,-59.26929961986065 L 11.017743109007348,-59.89317921657003 L 11.799263581426167,-60.51705881327942 L 12.580784053844987,-61.140938409988806 L 13.362304526263806,-61.76481800669819 " />
        <path style="fill:none;stroke:#50514F;stroke-width:0.1px;stroke-linecap:square" d="M 8.67318169175089,-58.021540426441874 L 9.106840776338435,-58.92261744776396 L 9.54049986092598,-59.82369446908605 L 9.974158945513524,-60.72477149040814 L 10.407818030101069,-61.625848511730226 L 10.841477114688614,-62.526925533052314 L 11.275136199276158,-63.4280025543744 L 11.275136199276158,-64.4280025543744 L 11.275136199276158,-65.4280025543744 " />
        <path style="fill:none;stroke:#50514F;stroke-width:0.1px;stroke-linecap:square" d="M 11.275136199276158,-63.4280025543744 L 12.056656671694977,-64.05188215108379 L 12.838177144113796,-64.67576174779317 " />
        <path style="fill:none;stroke:#50514F;stroke-width:0.1px;stroke-linecap:square" d="M 11.275136199276158,-63.4280025543744 L 11.708795283863703,-64.3290795756965 L 12.142454368451247,-65.23015659701859 L 12.576113453038792,-66.13123361834069 L 13.009772537626336,-67.03231063966278 " />
        <path style="fill:none;stroke:#50514F;stroke-width:0.1px;stroke-linecap:square" d="M 6.9385453534007135,-54.41723234115352 L 6.9385453534007135,-55.41723234115352 L 6.9385453534007135,-56.41723234115352 L 6.9385453534007135,-57.41723234115352 L 6.9385453534007135,-58.41723234115352 L 6.9385453534007135,-59.41723234115352 L 6.9385453534007135,-60.41723234115352 L 6.9385453534007135,-61.41723234115352 L 6.9385453534007135,-62.41723234115352 L 6.9385453534007135,-63.41723234115352 L 6.9385453534007135,-64.41723234115352 L 6.9385453534007135,-65.41723234115352 L 6.9385453534007135,-66.41723234115352 L 6.504886268813169,-67.31830936247562 L 6.0712271842256245,-68.21938638379771 L 5.289706711806806,-68.8432659805071 L 4.508186239387988,-69.46714557721648 " />
        <path style="fill:none;stroke:#50514F;stroke-width:0.1px;stroke-linecap:square" d="M 6.0712271842256245,-68.21938638379771 L 6.0712271842256245,-69.21938638379771 L 6.0712271842256245,-70.21938638379771 " />
        <path style="fill:none;stroke:#50514F;stroke-width:0.1px;stroke-linecap:square" d="M 6.0712271842256245,-68.21938638379771 L 5.63756809963808,-69.1204634051198 L 5.203909015050535,-70.0215404264419 L 4.770249930462991,-70.922617447764 L 4.336590845875446,-71.82369446908609 " />
        <path style="fill:none;stroke:#50514F;stroke-width:0.1px;stroke-linecap:square" d="M 6.9385453534007135,-66.41723234115352 L 7.372204437988258,-67.31830936247562 L 7.805863522575803,-68.21938638379771 L 7.805863522575803,-69.21938638379771 L 7.805863522575803,-70.21938638379771 " />
        <path style="fill:none;stroke:#50514F;stroke-width:0.1px;stroke-linecap:square" d="M 7.805863522575803,-68.21938638379771 L 8.587383994994621,-68.8432659805071 L 9.36890446741344,-69.46714557721648 " />
        <path style="fill:none;stroke:#50514F;stroke-width:0.1px;stroke-linecap:square" d="M 7.805863522575803,-68.21938638379771 L 8.239522607163346,-69.1204634051198 L 8.67318169175089,-70.0215404264419 L 9.106840776338435,-70.922617447764 L 9.54049986092598,-71.82369446908609 " />
        <path style="fill:none;stroke:#50514F;stroke-width:0.1px;stroke-linecap:square" d="M 6.9385453534007135,-66.41723234115352 L 6.9385453534007135,-67.41723234115352 L 6.9385453534007135,-68.41723234115352 L 6.9385453534007135,-69.41723234115352 L 6.9385453534007135,-70.41723234115352 L 6.9385453534007135,-71.41723234115352 L 6.9385453534007135,-72.41723234115352 L 6.504886268813169,-73.31830936247562 L 6.0712271842256245,-74.21938638379771 " />
        <path style="fill:none;stroke:#50514F;stroke-width:0.1px;stroke-linecap:square" d="M 6.9385453534007135,-72.41723234115352 L 7.372204437988258,-73.31830936247562 L 7.805863522575803,-74.21938638379771 " />
        <path style="fill:none;stroke:#50514F;stroke-width:0.1px;stroke-linecap:square" d="M 6.9385453534007135,-72.41723234115352 L 6.9385453534007135,-73.41723234115352 L 6.9385453534007135,-74.41723234115352 L 6.9385453534007135,-75.41723234115352 L 6.9385453534007135,-76.41723234115352 " />
        <path style="fill:none;stroke:#50514F;stroke-width:0.1px;stroke-linecap:square" d="M 6.9385453534007135,-46.41723234115352 L 7.720065825819532,-47.04111193786291 L 8.501586298238351,-47.664991534572295 L 9.28310677065717,-48.28887113128168 L 10.06462724307599,-48.91275072799107 L 10.846147715494808,-49.536630324700454 L 11.627668187913628,-50.16050992140984 L 12.409188660332447,-50.78438951811923 L 13.190709132751266,-51.40826911482861 L 13.62436821733881,-52.30934613615071 L 14.058027301926355,-53.2104231574728 L 14.4916863865139,-54.1115001787949 L 14.925345471101444,-55.01257720011699 L 14.925345471101444,-56.01257720011699 L 14.925345471101444,-57.01257720011699 L 14.4916863865139,-57.91365422143908 L 14.058027301926355,-58.81473124276117 " />
        <path style="fill:none;stroke:#50514F;stroke-width:0.1px;stroke-linecap:square" d="M 14.925345471101444,-57.01257720011699 L 15.359004555688989,-57.91365422143908 L 15.792663640276533,-58.81473124276117 " />
        <path style="fill:none;stroke:#50514F;stroke-width:0.1px;stroke-linecap:square" d="M 14.925345471101444,-57.01257720011699 L 14.925345471101444,-58.01257720011699 L 14.925345471101444,-59.01257720011699 L 14.925345471101444,-60.01257720011699 L 14.925345471101444,-61.01257720011699 " />
        <path style="fill:none;stroke:#50514F;stroke-width:0.1px;stroke-linecap:square" d="M 14.925345471101444,-55.01257720011699 L 15.706865943520263,-55.63645679682638 L 16.488386415939082,-56.260336393535766 L 16.922045500526625,-57.161413414857854 L 17.355704585114168,-58.06249043617994 " />
        <path style="fill:none;stroke:#50514F;stroke-width:0.1px;stroke-linecap:square" d="M 16.488386415939082,-56.260336393535766 L 17.463147610130303,-56.48358650954672 L 18.437908804321523,-56.70683662555767 " />
        <path style="fill:none;stroke:#50514F;stroke-width:0.1px;stroke-linecap:square" d="M 16.488386415939082,-56.260336393535766 L 17.2699068883579,-56.88421599024515 L 18.05142736077672,-57.50809558695454 L 18.83294783319554,-58.131975183663926 L 19.61446830561436,-58.75585478037331 " />
        <path style="fill:none;stroke:#50514F;stroke-width:0.1px;stroke-linecap:square" d="M 14.925345471101444,-55.01257720011699 L 15.359004555688989,-55.91365422143909 L 15.792663640276533,-56.814731242761184 L 16.226322724864076,-57.71580826408328 L 16.65998180945162,-58.616885285405374 L 17.09364089403916,-59.51796230672747 L 17.527299978626704,-60.419039328049564 L 17.527299978626704,-61.419039328049564 L 17.527299978626704,-62.419039328049564 " />
        <path style="fill:none;stroke:#50514F;stroke-width:0.1px;stroke-linecap:square" d="M 17.527299978626704,-60.419039328049564 L 18.308820451045523,-61.04291892475895 L 19.090340923464343,-61.66679852146834 " />
        <path style="fill:none;stroke:#50514F;stroke-width:0.1px;stroke-linecap:square" d="M 17.527299978626704,-60.419039328049564 L 17.960959063214247,-61.32011634937166 L 18.39461814780179,-62.221193370693754 L 18.828277232389333,-63.12227039201585 L 19.261936316976875,-64.02334741333794 " />
        <path style="fill:none;stroke:#50514F;stroke-width:0.1px;stroke-linecap:square" d="M 13.190709132751266,-51.40826911482861 L 14.165470326942488,-51.631519230839565 L 15.14023152113371,-51.85476934685052 L 16.11499271532493,-52.07801946286147 L 17.08975390951615,-52.30126957887242 L 17.87127438193497,-52.92514917558181 L 18.65279485435379,-53.549028772291194 L 19.086453938941332,-54.45010579361328 L 19.520113023528875,-55.35118281493537 " />
        <path style="fill:none;stroke:#50514F;stroke-width:0.1px;stroke-linecap:square" d="M 18.65279485435379,-53.549028772291194 L 19.62755604854501,-53.77227888830215 L 20.60231724273623,-53.9955290043131 " />
        <path style="fill:none;stroke:#50514F;stroke-width:0.1px;stroke-linecap:square" d="M 18.65279485435379,-53.549028772291194 L 19.43431532677261,-54.17290836900058 L 20.215835799191428,-54.79678796570997 L 20.997356271610247,-55.420667562419354 L 21.778876744029066,-56.04454715912874 " />
        <path style="fill:none;stroke:#50514F;stroke-width:0.1px;stroke-linecap:square" d="M 17.08975390951615,-52.30126957887242 L 18.064903263821716,-52.079721081252956 L 19.04005261812728,-51.85817258363349 L 20.0148138123185,-52.08142269964444 L 20.98957500650972,-52.304672815655394 " />
        <path style="fill:none;stroke:#50514F;stroke-width:0.1px;stroke-linecap:square" d="M 19.04005261812728,-51.85817258363349 L 19.822660774979695,-51.23565794699587 L 20.60526893183211,-50.613143310358254 " />
        <path style="fill:none;stroke:#50514F;stroke-width:0.1px;stroke-linecap:square" d="M 19.04005261812728,-51.85817258363349 L 20.015201972432845,-51.636624086014024 L 20.99035132673841,-51.41507558839456 L 21.965500681043974,-51.19352709077509 L 22.940650035349538,-50.971978593155626 " />
        <path style="fill:none;stroke:#50514F;stroke-width:0.1px;stroke-linecap:square" d="M 17.08975390951615,-52.30126957887242 L 18.06451510370737,-52.524519694883374 L 19.039276297898592,-52.747769810894326 L 20.014037492089813,-52.97101992690528 L 20.988798686281033,-53.19427004291623 L 21.963559880472253,-53.41752015892718 L 22.938321074663474,-53.640770274938134 L 23.719841547082293,-54.26464987164752 L 24.501362019501112,-54.88852946835691 " />
        <path style="fill:none;stroke:#50514F;stroke-width:0.1px;stroke-linecap:square" d="M 22.938321074663474,-53.640770274938134 L 23.91347042896904,-53.41922177731867 L 24.888619783274603,-53.1976732796992 " />
        <path style="fill:none;stroke:#50514F;stroke-width:0.1px;stroke-linecap:square" d="M 22.938321074663474,-53.640770274938134 L 23.913082268854694,-53.86402039094909 L 24.887843463045915,-54.08727050696004 L 25.862604657237135,-54.31052062297099 L 26.837365851428356,-54.53377073898194 " />
        <path style="fill:none;stroke:#50514F;stroke-width:0.1px;stroke-linecap:square" d="M 13.190709132751266,-51.40826911482861 L 13.972229605170085,-52.032148711538 L 14.753750077588904,-52.656028308247386 L 15.535270550007724,-53.27990790495677 L 16.316791022426543,-53.90378750166616 L 17.098311494845362,-54.527667098375545 L 17.87983196726418,-55.15154669508493 L 18.661352439683,-55.77542629179432 L 19.44287291210182,-56.399305888503704 L 20.22439338452064,-57.02318548521309 L 21.005913856939458,-57.64706508192248 L 21.787434329358277,-58.270944678631864 L 22.568954801777096,-58.89482427534125 L 23.00261388636464,-59.795901296663345 L 23.43627297095218,-60.69697831798544 L 23.43627297095218,-61.69697831798544 L 23.43627297095218,-62.69697831798544 " />
        <path style="fill:none;stroke:#50514F;stroke-width:0.1px;stroke-linecap:square" d="M 23.43627297095218,-60.69697831798544 L 24.217793443371,-61.32085791469483 L 24.99931391578982,-61.94473751140421 " />
        <path style="fill:none;stroke:#50514F;stroke-width:0.1px;stroke-linecap:square" d="M 23.43627297095218,-60.69697831798544 L 23.869932055539724,-61.598055339307535 L 24.303591140127267,-62.49913236062963 L 24.73725022471481,-63.400209381951726 L 25.170909309302353,-64.30128640327382 " />
        <path style="fill:none;stroke:#50514F;stroke-width:0.1px;stroke-linecap:square" d="M 22.568954801777096,-58.89482427534125 L 23.543715995968316,-59.1180743913522 L 24.518477190159537,-59.341324507363154 L 25.299997662578356,-59.96520410407254 L 26.081518134997175,-60.58908370078193 " />
        <path style="fill:none;stroke:#50514F;stroke-width:0.1px;stroke-linecap:square" d="M 24.518477190159537,-59.341324507363154 L 25.4936265444651,-59.11977600974369 L 26.468775898770666,-58.89822751212422 " />
        <path style="fill:none;stroke:#50514F;stroke-width:0.1px;stroke-linecap:square" d="M 24.518477190159537,-59.341324507363154 L 25.493238384350757,-59.56457462337411 L 26.467999578541978,-59.78782473938506 L 27.442760772733198,-60.01107485539601 L 28.41752196692442,-60.23432497140696 " />
        <path style="fill:none;stroke:#50514F;stroke-width:0.1px;stroke-linecap:square" d="M 22.568954801777096,-58.89482427534125 L 23.350475274195915,-59.51870387205064 L 24.131995746614734,-60.14258346876002 L 24.913516219033554,-60.76646306546941 L 25.695036691452373,-61.390342662178796 L 26.476557163871192,-62.01422225888818 L 27.25807763629001,-62.63810185559757 L 27.691736720877554,-63.539178876919664 L 28.125395805465097,-64.44025589824176 " />
        <path style="fill:none;stroke:#50514F;stroke-width:0.1px;stroke-linecap:square" d="M 27.25807763629001,-62.63810185559757 L 28.23283883048123,-62.86135197160852 L 29.207600024672452,-63.08460208761947 " />
        <path style="fill:none;stroke:#50514F;stroke-width:0.1px;stroke-linecap:square" d="M 27.25807763629001,-62.63810185559757 L 28.03959810870883,-63.261981452306955 L 28.82111858112765,-63.88586104901634 L 29.60263905354647,-64.50974064572573 L 30.384159525965288,-65.13362024243511 " />
        <path style="fill:none;stroke:#50514F;stroke-width:0.1px;stroke-linecap:square" d="M 6.9385453534007135,-46.41723234115352 L 7.372204437988258,-47.31830936247562 L 7.805863522575803,-48.21938638379771 L 8.239522607163346,-49.12046340511981 L 8.67318169175089,-50.0215404264419 L 9.106840776338435,-50.922617447764 L 9.54049986092598,-51.82369446908609 L 9.974158945513524,-52.72477149040819 L 10.407818030101069,-53.62584851173028 L 10.841477114688614,-54.52692553305238 L 11.275136199276158,-55.42800255437447 L 11.708795283863703,-56.32907957569657 L 12.142454368451247,-57.23015659701866 L 12.576113453038792,-58.13123361834076 L 13.009772537626336,-59.03231063966285 L 13.44343162221388,-59.93338766098495 L 13.877090706801425,-60.83446468230704 L 14.31074979138897,-61.73554170362914 L 14.744408875976514,-62.636618724951234 L 15.178067960564059,-63.53769574627333 L 15.611727045151603,-64.43877276759542 L 16.045386129739146,-65.33984978891752 L 16.47904521432669,-66.24092681023961 L 16.91270429891423,-67.14200383156171 L 17.346363383501775,-68.0430808528838 L 17.346363383501775,-69.0430808528838 L 17.346363383501775,-70.0430808528838 L 17.346363383501775,-71.0430808528838 L 17.346363383501775,-72.0430808528838 L 16.91270429891423,-72.9441578742059 L 16.47904521432669,-73.845234895528 L 15.69752474190787,-74.46911449223738 L 14.91600426948905,-75.09299408894677 " />
        <path style="fill:none;stroke:#50514F;stroke-width:0.1px;stroke-linecap:square" d="M 16.47904521432669,-73.845234895528 L 16.47904521432669,-74.845234895528 L 16.47904521432669,-75.845234895528 " />
        <path style="fill:none;stroke:#50514F;stroke-width:0.1px;stroke-linecap:square" d="M 16.47904521432669,-73.845234895528 L 16.045386129739146,-74.74631191685009 L 15.611727045151602,-75.64738893817218 L 15.178067960564057,-76.54846595949428 L 14.744408875976513,-77.44954298081637 " />
        <path style="fill:none;stroke:#50514F;stroke-width:0.1px;stroke-linecap:square" d="M 17.346363383501775,-72.0430808528838 L 17.780022468089317,-72.9441578742059 L 18.21368155267686,-73.845234895528 L 18.21368155267686,-74.845234895528 L 18.21368155267686,-75.845234895528 " />
        <path style="fill:none;stroke:#50514F;stroke-width:0.1px;stroke-linecap:square" d="M 18.21368155267686,-73.845234895528 L 18.99520202509568,-74.46911449223738 L 19.7767224975145,-75.09299408894677 " />
        <path style="fill:none;stroke:#50514F;stroke-width:0.1px;stroke-linecap:square" d="M 18.21368155267686,-73.845234895528 L 18.647340637264403,-74.74631191685009 L 19.080999721851946,-75.64738893817218 L 19.51465880643949,-76.54846595949428 L 19.94831789102703,-77.44954298081637 " />
        <path style="fill:none;stroke:#50514F;stroke-width:0.1px;stroke-linecap:square" d="M 17.346363383501775,-72.0430808528838 L 17.346363383501775,-73.0430808528838 L 17.346363383501775,-74.0430808528838 L 17.346363383501775,-75.0430808528838 L 17.346363383501775,-76.0430808528838 L 17.346363383501775,-77.0430808528838 L 17.346363383501775,-78.0430808528838 L 16.91270429891423,-78.9441578742059 L 16.47904521432669,-79.845234895528 " />
        <path style="fill:none;stroke:#50514F;stroke-width:0.1px;stroke-linecap:square" d="M 17.346363383501775,-78.0430808528838 L 17.780022468089317,-78.9441578742059 L 18.21368155267686,-79.845234895528 " />
        <path style="fill:none;stroke:#50514F;stroke-width:0.1px;stroke-linecap:square" d="M 17.346363383501775,-78.0430808528838 L 17.346363383501775,-79.0430808528838 L 17.346363383501775,-80.0430808528838 L 17.346363383501775,-81.0430808528838 L 17.346363383501775,-82.0430808528838 " />
        <path style="fill:none;stroke:#50514F;stroke-width:0.1px;stroke-linecap:square" d="M 17.346363383501775,-68.0430808528838 L 18.127883855920594,-68.66696044959319 L 18.909404328339413,-69.29084004630258 L 19.690924800758232,-69.91471964301196 L 20.47244527317705,-70.53859923972135 L 20.906104357764594,-71.43967626104345 L 21.339763442352137,-72.34075328236554 L 21.339763442352137,-73.34075328236554 L 21.339763442352137,-74.34075328236554 " />
        <path style="fill:none;stroke:#50514F;stroke-width:0.1px;stroke-linecap:square" d="M 21.339763442352137,-72.34075328236554 L 22.121283914770956,-72.96463287907493 L 22.902804387189775,-73.58851247578431 " />
        <path style="fill:none;stroke:#50514F;stroke-width:0.1px;stroke-linecap:square" d="M 21.339763442352137,-72.34075328236554 L 21.77342252693968,-73.24183030368764 L 22.207081611527222,-74.14290732500973 L 22.640740696114765,-75.04398434633183 L 23.074399780702308,-75.94506136765392 " />
        <path style="fill:none;stroke:#50514F;stroke-width:0.1px;stroke-linecap:square" d="M 20.47244527317705,-70.53859923972135 L 21.44720646736827,-70.7618493557323 L 22.421967661559492,-70.98509947174324 L 23.20348813397831,-71.60897906845263 L 23.98500860639713,-72.23285866516201 " />
        <path style="fill:none;stroke:#50514F;stroke-width:0.1px;stroke-linecap:square" d="M 22.421967661559492,-70.98509947174324 L 23.397117015865057,-70.76355097412377 L 24.37226637017062,-70.54200247650431 " />
        <path style="fill:none;stroke:#50514F;stroke-width:0.1px;stroke-linecap:square" d="M 22.421967661559492,-70.98509947174324 L 23.396728855750712,-71.20834958775418 L 24.371490049941933,-71.43159970376513 L 25.346251244133153,-71.65484981977608 L 26.321012438324374,-71.87809993578702 " />
        <path style="fill:none;stroke:#50514F;stroke-width:0.1px;stroke-linecap:square" d="M 20.47244527317705,-70.53859923972135 L 21.25396574559587,-71.16247883643074 L 22.03548621801469,-71.78635843314012 L 22.81700669043351,-72.41023802984951 L 23.598527162852328,-73.0341176265589 L 24.380047635271147,-73.65799722326828 L 25.161568107689966,-74.28187681997767 L 25.59522719227751,-75.18295384129976 L 26.02888627686505,-76.08403086262186 " />
        <path style="fill:none;stroke:#50514F;stroke-width:0.1px;stroke-linecap:square" d="M 25.161568107689966,-74.28187681997767 L 26.136329301881187,-74.50512693598861 L 27.111090496072407,-74.72837705199956 " />
        <path style="fill:none;stroke:#50514F;stroke-width:0.1px;stroke-linecap:square" d="M 25.161568107689966,-74.28187681997767 L 25.943088580108785,-74.90575641668705 L 26.724609052527605,-75.52963601339644 L 27.506129524946424,-76.15351561010583 L 28.287649997365243,-76.77739520681521 " />
        <path style="fill:none;stroke:#50514F;stroke-width:0.1px;stroke-linecap:square" d="M 17.346363383501775,-68.0430808528838 L 17.780022468089317,-68.9441578742059 L 18.21368155267686,-69.845234895528 L 18.647340637264403,-70.74631191685009 L 19.080999721851946,-71.64738893817218 L 19.51465880643949,-72.54846595949428 L 19.94831789102703,-73.44954298081637 L 20.381976975614574,-74.35062000213847 L 20.815636060202117,-75.25169702346057 L 21.24929514478966,-76.15277404478266 L 21.682954229377202,-77.05385106610476 L 22.116613313964745,-77.95492808742685 L 22.550272398552288,-78.85600510874895 L 22.550272398552288,-79.85600510874895 L 22.550272398552288,-80.85600510874895 L 22.116613313964745,-81.75708213007104 L 21.682954229377202,-82.65815915139314 " />
        <path style="fill:none;stroke:#50514F;stroke-width:0.1px;stroke-linecap:square" d="M 22.550272398552288,-80.85600510874895 L 22.98393148313983,-81.75708213007104 L 23.417590567727373,-82.65815915139314 " />
        <path style="fill:none;stroke:#50514F;stroke-width:0.1px;stroke-linecap:square" d="M 22.550272398552288,-80.85600510874895 L 22.550272398552288,-81.85600510874895 L 22.550272398552288,-82.85600510874895 L 22.550272398552288,-83.85600510874895 L 22.550272398552288,-84.85600510874895 " />
        <path style="fill:none;stroke:#50514F;stroke-width:0.1px;stroke-linecap:square" d="M 22.550272398552288,-78.85600510874895 L 23.331792870971107,-79.47988470545833 L 24.113313343389926,-80.10376430216772 L 24.54697242797747,-81.00484132348981 L 24.98063151256501,-81.90591834481191 " />
        <path style="fill:none;stroke:#50514F;stroke-width:0.1px;stroke-linecap:square" d="M 24.113313343389926,-80.10376430216772 L 25.088074537581146,-80.32701441817866 L 26.062835731772367,-80.55026453418961 " />
        <path style="fill:none;stroke:#50514F;stroke-width:0.1px;stroke-linecap:square" d="M 24.113313343389926,-80.10376430216772 L 24.894833815808745,-80.7276438988771 L 25.676354288227564,-81.35152349558649 L 26.457874760646384,-81.97540309229588 L 27.239395233065203,-82.59928268900526 " />
        <path style="fill:none;stroke:#50514F;stroke-width:0.1px;stroke-linecap:square" d="M 22.550272398552288,-78.85600510874895 L 22.98393148313983,-79.75708213007104 L 23.417590567727373,-80.65815915139314 L 23.851249652314916,-81.55923617271523 L 24.28490873690246,-82.46031319403733 L 24.71856782149,-83.36139021535942 L 25.152226906077544,-84.26246723668152 L 25.152226906077544,-85.26246723668152 L 25.152226906077544,-86.26246723668152 " />
        <path style="fill:none;stroke:#50514F;stroke-width:0.1px;stroke-linecap:square" d="M 25.152226906077544,-84.26246723668152 L 25.933747378496363,-84.8863468333909 L 26.715267850915183,-85.51022643010029 " />
        <path style="fill:none;stroke:#50514F;stroke-width:0.1px;stroke-linecap:square" d="M 25.152226906077544,-84.26246723668152 L 25.585885990665087,-85.16354425800361 L 26.01954507525263,-86.0646212793257 L 26.453204159840173,-86.9656983006478 L 26.886863244427715,-87.8667753219699 " />
        <path style="fill:none;stroke:#50514F;stroke-width:0.1px;stroke-linecap:square" d="M 1.959434878635764e-15,-32.0 L 2.0206672185931315e-15,-33.0 L 2.081899558550499e-15,-34.0 L 2.1431318985078667e-15,-35.0 L 2.2043642384652342e-15,-36.0 L 2.265596578422602e-15,-37.0 L 2.3268289183799694e-15,-38.0 L 2.388061258337337e-15,-39.0 L 2.4492935982947045e-15,-40.0 L 2.510525938252072e-15,-41.0 L 2.5717582782094397e-15,-42.0 L 2.6329906181668073e-15,-43.0 L 2.694222958124175e-15,-44.0 L 2.7554552980815424e-15,-45.0 L 2.81668763803891e-15,-46.0 L 2.8779199779962776e-15,-47.0 L 2.939152317953645e-15,-48.0 L 3.0003846579110127e-15,-49.0 L 3.0616169978683803e-15,-50.0 L 3.122849337825748e-15,-51.0 L 3.1840816777831154e-15,-52.0 L 3.245314017740483e-15,-53.0 L 3.3065463576978506e-15,-54.0 L 3.367778697655218e-15,-55.0 L 3.4290110376125857e-15,-56.0 L 3.4902433775699533e-15,-57.0 L 3.551475717527321e-15,-58.0 L 3.6127080574846884e-15,-59.0 L 3.673940397442056e-15,-60.0 L 3.7351727373994236e-15,-61.0 L 3.796405077356791e-15,-62.0 L 3.857637417314159e-15,-63.0 L 3.918869757271526e-15,-64.0 L 3.980102097228894e-15,-65.0 L 4.0413344371862615e-15,-66.0 L 4.102566777143629e-15,-67.0 L 4.163799117100997e-15,-68.0 L 4.225031457058364e-15,-69.0 L 4.286263797015732e-15,-70.0 L 4.347496136973099e-15,-71.0 L 4.408728476930467e-15,-72.0 L 4.4699608168878345e-15,-73.0 L 4.531193156845202e-15,-74.0 L 4.59242549680257e-15,-75.0 L 4.653657836759937e-15,-76.0 L 4.714890176717305e-15,-77.0 L 4.776122516674672e-15,-78.0 L 4.83735485663204e-15,-79.0 L 4.8985871965894075e-15,-80.0 L -0.4336590845875394,-80.9010770213221 L -0.8673181691750836,-81.80215404264419 L -1.3009772537626278,-82.70323106396629 L -1.7346363383501722,-83.60430808528838 L -2.1682954229377165,-84.50538510661048 L -2.6019545075252606,-85.40646212793257 L -3.0356135921128047,-86.30753914925467 L -3.469272676700349,-87.20861617057676 L -4.2507931491191675,-87.83249576728615 L -5.032313621537986,-88.45637536399553 L -5.813834093956805,-89.08025496070492 L -6.595354566375624,-89.7041345574143 L -7.570115760566845,-89.92738467342525 L -8.544876954758067,-90.1506347894362 L -9.52002630906363,-89.92908629181673 L -10.495175663369192,-89.70753779419726 " />
        <path style="fill:none;stroke:#50514F;stroke-width:0.1px;stroke-linecap:square" d="M -8.544876954758067,-90.1506347894362 L -9.326397427176886,-90.77451438614558 L -10.107917899595705,-91.39839398285497 " />
        <path style="fill:none;stroke:#50514F;stroke-width:0.1px;stroke-linecap:square" d="M -8.544876954758067,-90.1506347894362 L -9.519638148949289,-90.37388490544714 L -10.494399343140511,-90.59713502145809 L -11.469160537331733,-90.82038513746903 L -12.443921731522956,-91.04363525347998 " />
        <path style="fill:none;stroke:#50514F;stroke-width:0.1px;stroke-linecap:square" d="M -6.595354566375624,-89.7041345574143 L -7.029013650963169,-90.6052115787364 L -7.462672735550713,-91.5062886000585 L -8.244193207969532,-92.13016819676788 L -9.025713680388352,-92.75404779347727 " />
        <path style="fill:none;stroke:#50514F;stroke-width:0.1px;stroke-linecap:square" d="M -7.462672735550713,-91.5062886000585 L -7.462672735550713,-92.5062886000585 L -7.462672735550713,-93.5062886000585 " />
        <path style="fill:none;stroke:#50514F;stroke-width:0.1px;stroke-linecap:square" d="M -7.462672735550713,-91.5062886000585 L -7.896331820138258,-92.40736562138059 L -8.329990904725802,-93.30844264270269 L -8.763649989313347,-94.20951966402478 L -9.197309073900891,-95.11059668534688 " />
        <path style="fill:none;stroke:#50514F;stroke-width:0.1px;stroke-linecap:square" d="M -6.595354566375624,-89.7041345574143 L -7.376875038794443,-90.3280141541237 L -8.158395511213262,-90.95189375083308 L -8.939915983632082,-91.57577334754247 L -9.7214364560509,-92.19965294425185 L -10.50295692846972,-92.82353254096124 L -11.28447740088854,-93.44741213767063 L -12.259238595079761,-93.67066225368157 L -13.233999789270984,-93.89391236969252 " />
        <path style="fill:none;stroke:#50514F;stroke-width:0.1px;stroke-linecap:square" d="M -11.28447740088854,-93.44741213767063 L -11.718136485476084,-94.34848915899272 L -12.151795570063628,-95.24956618031482 " />
        <path style="fill:none;stroke:#50514F;stroke-width:0.1px;stroke-linecap:square" d="M -11.28447740088854,-93.44741213767063 L -12.065997873307358,-94.07129173438001 L -12.847518345726177,-94.6951713310894 L -13.629038818144997,-95.31905092779878 L -14.410559290563816,-95.94293052450817 " />
        <path style="fill:none;stroke:#50514F;stroke-width:0.1px;stroke-linecap:square" d="M -3.469272676700349,-87.20861617057676 L -3.469272676700349,-88.20861617057676 L -3.469272676700349,-89.20861617057676 L -3.469272676700349,-90.20861617057676 L -3.469272676700349,-91.20861617057676 L -3.902931761287893,-92.10969319189886 L -4.336590845875437,-93.01077021322095 L -5.118111318294256,-93.63464980993034 L -5.899631790713074,-94.25852940663972 " />
        <path style="fill:none;stroke:#50514F;stroke-width:0.1px;stroke-linecap:square" d="M -4.336590845875437,-93.01077021322095 L -4.336590845875437,-94.01077021322095 L -4.336590845875437,-95.01077021322095 " />
        <path style="fill:none;stroke:#50514F;stroke-width:0.1px;stroke-linecap:square" d="M -4.336590845875437,-93.01077021322095 L -4.770249930462982,-93.91184723454305 L -5.2039090150505265,-94.81292425586514 L -5.637568099638071,-95.71400127718724 L -6.071227184225616,-96.61507829850933 " />
        <path style="fill:none;stroke:#50514F;stroke-width:0.1px;stroke-linecap:square" d="M -3.469272676700349,-91.20861617057676 L -3.0356135921128047,-92.10969319189886 L -2.60195450752526,-93.01077021322095 L -2.60195450752526,-94.01077021322095 L -2.60195450752526,-95.01077021322095 " />
        <path style="fill:none;stroke:#50514F;stroke-width:0.1px;stroke-linecap:square" d="M -2.60195450752526,-93.01077021322095 L -1.8204340351064414,-93.63464980993034 L -1.0389135626876227,-94.25852940663972 " />
        <path style="fill:none;stroke:#50514F;stroke-width:0.1px;stroke-linecap:square" d="M -2.60195450752526,-93.01077021322095 L -2.1682954229377156,-93.91184723454305 L -1.7346363383501713,-94.81292425586514 L -1.300977253762627,-95.71400127718724 L -0.8673181691750826,-96.61507829850933 " />
        <path style="fill:none;stroke:#50514F;stroke-width:0.1px;stroke-linecap:square" d="M -3.469272676700349,-91.20861617057676 L -3.469272676700349,-92.20861617057676 L -3.469272676700349,-93.20861617057676 L -3.469272676700349,-94.20861617057676 L -3.469272676700349,-95.20861617057676 L -3.469272676700349,-96.20861617057676 L -3.469272676700349,-97.20861617057676 L -3.902931761287893,-98.10969319189886 L -4.336590845875437,-99.01077021322095 " />
        <path style="fill:none;stroke:#50514F;stroke-width:0.1px;stroke-linecap:square" d="M -3.469272676700349,-97.20861617057676 L -3.0356135921128047,-98.10969319189886 L -2.60195450752526,-99.01077021322095 " />
        <path style="fill:none;stroke:#50514F;stroke-width:0.1px;stroke-linecap:square" d="M -3.469272676700349,-97.20861617057676 L -3.469272676700349,-98.20861617057676 L -3.469272676700349,-99.20861617057676 L -3.469272676700349,-100.20861617057676 L -3.469272676700349,-101.20861617057676 " />
        <path style="fill:none;stroke:#50514F;stroke-width:0.1px;stroke-linecap:square" d="M -3.469272676700349,-87.20861617057676 L -3.902931761287893,-88.10969319189886 L -4.336590845875437,-89.01077021322095 L -4.770249930462982,-89.91184723454305 L -5.2039090150505265,-90.81292425586514 L -5.637568099638071,-91.71400127718724 L -6.071227184225616,-92.61507829850933 L -6.50488626881316,-93.51615531983143 L -6.938545353400705,-94.41723234115352 L -7.372204437988249,-95.31830936247562 L -7.805863522575794,-96.21938638379771 L -8.239522607163337,-97.1204634051198 L -8.673181691750882,-98.0215404264419 L -9.454702164169701,-98.64542002315129 L -10.23622263658852,-99.26929961986067 L -11.210983830779742,-99.49254973587162 L -12.185745024970965,-99.71579985188257 " />
        <path style="fill:none;stroke:#50514F;stroke-width:0.1px;stroke-linecap:square" d="M -10.23622263658852,-99.26929961986067 L -10.669881721176065,-100.17037664118277 L -11.10354080576361,-101.07145366250487 " />
        <path style="fill:none;stroke:#50514F;stroke-width:0.1px;stroke-linecap:square" d="M -10.23622263658852,-99.26929961986067 L -11.01774310900734,-99.89317921657006 L -11.799263581426159,-100.51705881327945 L -12.580784053844978,-101.14093840998883 L -13.362304526263797,-101.76481800669822 " />
        <path style="fill:none;stroke:#50514F;stroke-width:0.1px;stroke-linecap:square" d="M -8.673181691750882,-98.0215404264419 L -8.673181691750882,-99.0215404264419 L -8.673181691750882,-100.0215404264419 L -9.106840776338426,-100.922617447764 L -9.540499860925971,-101.82369446908609 " />
        <path style="fill:none;stroke:#50514F;stroke-width:0.1px;stroke-linecap:square" d="M -8.673181691750882,-100.0215404264419 L -8.239522607163337,-100.922617447764 L -7.805863522575793,-101.82369446908609 " />
        <path style="fill:none;stroke:#50514F;stroke-width:0.1px;stroke-linecap:square" d="M -8.673181691750882,-100.0215404264419 L -8.673181691750882,-101.0215404264419 L -8.673181691750882,-102.0215404264419 L -8.673181691750882,-103.0215404264419 L -8.673181691750882,-104.0215404264419 " />
        <path style="fill:none;stroke:#50514F;stroke-width:0.1px;stroke-linecap:square" d="M -8.673181691750882,-98.0215404264419 L -9.106840776338426,-98.922617447764 L -9.540499860925971,-99.82369446908609 L -9.974158945513516,-100.72477149040819 L -10.40781803010106,-101.62584851173028 L -10.841477114688605,-102.52692553305238 L -11.27513619927615,-103.42800255437447 L -12.056656671694968,-104.05188215108386 L -12.838177144113788,-104.67576174779325 " />
        <path style="fill:none;stroke:#50514F;stroke-width:0.1px;stroke-linecap:square" d="M -11.27513619927615,-103.42800255437447 L -11.27513619927615,-104.42800255437447 L -11.27513619927615,-105.42800255437447 " />
        <path style="fill:none;stroke:#50514F;stroke-width:0.1px;stroke-linecap:square" d="M -11.27513619927615,-103.42800255437447 L -11.708795283863694,-104.32907957569657 L -12.142454368451238,-105.23015659701866 L -12.576113453038783,-106.13123361834076 L -13.009772537626327,-107.03231063966285 " />
        <path style="fill:none;stroke:#50514F;stroke-width:0.1px;stroke-linecap:square" d="M 4.8985871965894075e-15,-80.0 L 0.43365908458754926,-80.9010770213221 L 0.8673181691750936,-81.80215404264419 L 1.300977253762638,-82.70323106396629 L 1.7346363383501824,-83.60430808528838 L 2.1682954229377267,-84.50538510661048 L 2.6019545075252712,-85.40646212793257 L 3.035613592112816,-86.30753914925467 L 3.4692726767003603,-87.20861617057676 L 3.4692726767003603,-88.20861617057676 L 3.4692726767003603,-89.20861617057676 L 3.4692726767003603,-90.20861617057676 L 3.4692726767003603,-91.20861617057676 L 3.0356135921128162,-92.10969319189886 L 2.601954507525272,-93.01077021322095 L 1.8204340351064536,-93.63464980993034 L 1.0389135626876351,-94.25852940663972 " />
        <path style="fill:none;stroke:#50514F;stroke-width:0.1px;stroke-linecap:square" d="M 2.601954507525272,-93.01077021322095 L 2.601954507525272,-94.01077021322095 L 2.601954507525272,-95.01077021322095 " />
        <path style="fill:none;stroke:#50514F;stroke-width:0.1px;stroke-linecap:square" d="M 2.601954507525272,-93.01077021322095 L 2.168295422937728,-93.91184723454305 L 1.734636338350184,-94.81292425586514 L 1.3009772537626398,-95.71400127718724 L 0.8673181691750956,-96.61507829850933 " />
        <path style="fill:none;stroke:#50514F;stroke-width:0.1px;stroke-linecap:square" d="M 3.4692726767003603,-91.20861617057676 L 3.9029317612879044,-92.10969319189886 L 4.336590845875449,-93.01077021322095 L 4.336590845875449,-94.01077021322095 L 4.336590845875449,-95.01077021322095 " />
        <path style="fill:none;stroke:#50514F;stroke-width:0.1px;stroke-linecap:square" d="M 4.336590845875449,-93.01077021322095 L 5.118111318294268,-93.63464980993034 L 5.899631790713087,-94.25852940663972 " />
        <path style="fill:none;stroke:#50514F;stroke-width:0.1px;stroke-linecap:square" d="M 4.336590845875449,-93.01077021322095 L 4.7702499304629935,-93.91184723454305 L 5.203909015050538,-94.81292425586514 L 5.637568099638083,-95.71400127718724 L 6.071227184225627,-96.61507829850933 " />
        <path style="fill:none;stroke:#50514F;stroke-width:0.1px;stroke-linecap:square" d="M 3.4692726767003603,-91.20861617057676 L 3.4692726767003603,-92.20861617057676 L 3.4692726767003603,-93.20861617057676 L 3.4692726767003603,-94.20861617057676 L 3.4692726767003603,-95.20861617057676 L 3.4692726767003603,-96.20861617057676 L 3.4692726767003603,-97.20861617057676 L 3.0356135921128162,-98.10969319189886 L 2.601954507525272,-99.01077021322095 " />
        <path style="fill:none;stroke:#50514F;stroke-width:0.1px;stroke-linecap:square" d="M 3.4692726767003603,-97.20861617057676 L 3.9029317612879044,-98.10969319189886 L 4.336590845875449,-99.01077021322095 " />
        <path style="fill:none;stroke:#50514F;stroke-width:0.1px;stroke-linecap:square" d="M 3.4692726767003603,-97.20861617057676 L 3.4692726767003603,-98.20861617057676 L 3.4692726767003603,-99.20861617057676 L 3.4692726767003603,-100.20861617057676 L 3.4692726767003603,-101.20861617057676 " />
        <path style="fill:none;stroke:#50514F;stroke-width:0.1px;stroke-linecap:square" d="M 3.4692726767003603,-87.20861617057676 L 4.250793149119179,-87.83249576728615 L 5.032313621537998,-88.45637536399553 L 5.813834093956817,-89.08025496070492 L 6.5953545663756366,-89.7041345574143 L 7.029013650963181,-90.6052115787364 L 7.462672735550726,-91.5062886000585 L 7.462672735550726,-92.5062886000585 L 7.462672735550726,-93.5062886000585 " />
        <path style="fill:none;stroke:#50514F;stroke-width:0.1px;stroke-linecap:square" d="M 7.462672735550726,-91.5062886000585 L 8.244193207969545,-92.13016819676788 L 9.025713680388364,-92.75404779347727 " />
        <path style="fill:none;stroke:#50514F;stroke-width:0.1px;stroke-linecap:square" d="M 7.462672735550726,-91.5062886000585 L 7.89633182013827,-92.40736562138059 L 8.329990904725815,-93.30844264270269 L 8.76364998931336,-94.20951966402478 L 9.197309073900904,-95.11059668534688 " />
        <path style="fill:none;stroke:#50514F;stroke-width:0.1px;stroke-linecap:square" d="M 6.5953545663756366,-89.7041345574143 L 7.570115760566858,-89.92738467342525 L 8.54487695475808,-90.1506347894362 L 9.326397427176898,-90.77451438614558 L 10.107917899595718,-91.39839398285497 " />
        <path style="fill:none;stroke:#50514F;stroke-width:0.1px;stroke-linecap:square" d="M 8.54487695475808,-90.1506347894362 L 9.520026309063642,-89.92908629181673 L 10.495175663369205,-89.70753779419726 " />
        <path style="fill:none;stroke:#50514F;stroke-width:0.1px;stroke-linecap:square" d="M 8.54487695475808,-90.1506347894362 L 9.519638148949301,-90.37388490544714 L 10.494399343140524,-90.59713502145809 L 11.469160537331746,-90.82038513746903 L 12.443921731522968,-91.04363525347998 " />
        <path style="fill:none;stroke:#50514F;stroke-width:0.1px;stroke-linecap:square" d="M 6.5953545663756366,-89.7041345574143 L 7.376875038794456,-90.3280141541237 L 8.158395511213275,-90.95189375083308 L 8.939915983632094,-91.57577334754247 L 9.721436456050913,-92.19965294425185 L 10.502956928469732,-92.82353254096124 L 11.284477400888552,-93.44741213767063 L 11.718136485476096,-94.34848915899272 L 12.15179557006364,-95.24956618031482 " />
        <path style="fill:none;stroke:#50514F;stroke-width:0.1px;stroke-linecap:square" d="M 11.284477400888552,-93.44741213767063 L 12.259238595079774,-93.67066225368157 L 13.233999789270996,-93.89391236969252 " />
        <path style="fill:none;stroke:#50514F;stroke-width:0.1px;stroke-linecap:square" d="M 11.284477400888552,-93.44741213767063 L 12.06599787330737,-94.07129173438001 L 12.84751834572619,-94.6951713310894 L 13.629038818145009,-95.31905092779878 L 14.410559290563828,-95.94293052450817 " />
        <path style="fill:none;stroke:#50514F;stroke-width:0.1px;stroke-linecap:square" d="M 3.4692726767003603,-87.20861617057676 L 3.902931761287905,-88.10969319189886 L 4.336590845875449,-89.01077021322095 L 4.7702499304629935,-89.91184723454305 L 5.203909015050538,-90.81292425586514 L 5.637568099638083,-91.71400127718724 L 6.071227184225627,-92.61507829850933 L 6.504886268813172,-93.51615531983143 L 6.938545353400716,-94.41723234115352 L 7.372204437988261,-95.31830936247562 L 7.805863522575805,-96.21938638379771 L 8.23952260716335,-97.1204634051198 L 8.673181691750894,-98.0215404264419 L 8.673181691750894,-99.0215404264419 L 8.673181691750894,-100.0215404264419 L 8.23952260716335,-100.922617447764 L 7.805863522575805,-101.82369446908609 " />
        <path style="fill:none;stroke:#50514F;stroke-width:0.1px;stroke-linecap:square" d="M 8.673181691750894,-100.0215404264419 L 9.106840776338439,-100.922617447764 L 9.540499860925983,-101.82369446908609 " />
        <path style="fill:none;stroke:#50514F;stroke-width:0.1px;stroke-linecap:square" d="M 8.673181691750894,-100.0215404264419 L 8.673181691750894,-101.0215404264419 L 8.673181691750894,-102.0215404264419 L 8.673181691750894,-103.0215404264419 L 8.673181691750894,-104.0215404264419 " />
        <path style="fill:none;stroke:#50514F;stroke-width:0.1px;stroke-linecap:square" d="M 8.673181691750894,-98.0215404264419 L 9.454702164169714,-98.64542002315129 L 10.236222636588533,-99.26929961986067 L 10.669881721176077,-100.17037664118277 L 11.103540805763622,-101.07145366250487 " />
        <path style="fill:none;stroke:#50514F;stroke-width:0.1px;stroke-linecap:square" d="M 10.236222636588533,-99.26929961986067 L 11.210983830779755,-99.49254973587162 L 12.185745024970977,-99.71579985188257 " />
        <path style="fill:none;stroke:#50514F;stroke-width:0.1px;stroke-linecap:square" d="M 10.236222636588533,-99.26929961986067 L 11.017743109007352,-99.89317921657006 L 11.799263581426171,-100.51705881327945 L 12.58078405384499,-101.14093840998883 L 13.36230452626381,-101.76481800669822 " />
        <path style="fill:none;stroke:#50514F;stroke-width:0.1px;stroke-linecap:square" d="M 8.673181691750894,-98.0215404264419 L 9.106840776338439,-98.922617447764 L 9.540499860925983,-99.82369446908609 L 9.974158945513528,-100.72477149040819 L 10.407818030101073,-101.62584851173028 L 10.841477114688617,-102.52692553305238 L 11.275136199276162,-103.42800255437447 L 11.275136199276162,-104.42800255437447 L 11.275136199276162,-105.42800255437447 " />
        <path style="fill:none;stroke:#50514F;stroke-width:0.1px;stroke-linecap:square" d="M 11.275136199276162,-103.42800255437447 L 12.05665667169498,-104.05188215108386 L 12.8381771441138,-104.67576174779325 " />
        <path style="fill:none;stroke:#50514F;stroke-width:0.1px;stroke-linecap:square" d="M 11.275136199276162,-103.42800255437447 L 11.708795283863706,-104.32907957569657 L 12.14245436845125,-105.23015659701866 L 12.576113453038795,-106.13123361834076 L 13.00977253762634,-107.03231063966285 " />
        <path style="fill:none;stroke:#50514F;stroke-width:0.1px;stroke-linecap:square" d="M 4.8985871965894075e-15,-80.0 L 4.959819536546775e-15,-81.0 L 5.021051876504143e-15,-82.0 L 5.08228421646151e-15,-83.0 L 5.143516556418878e-15,-84.0 L 5.204748896376245e-15,-85.0 L 5.265981236333613e-15,-86.0 L 5.3272135762909805e-15,-87.0 L 5.388445916248348e-15,-88.0 L 5.449678256205716e-15,-89.0 L 5.510910596163083e-15,-90.0 L 5.572142936120451e-15,-91.0 L 5.633375276077818e-15,-92.0 L 5.694607616035186e-15,-93.0 L 5.7558399559925535e-15,-94.0 L 5.817072295949921e-15,-95.0 L 5.878304635907289e-15,-96.0 L 5.939536975864656e-15,-97.0 L 6.000769315822024e-15,-98.0 L 6.0620016557793914e-15,-99.0 L 6.123233995736759e-15,-100.0 L 6.1844663356941266e-15,-101.0 L 6.245698675651494e-15,-102.0 L 6.306931015608862e-15,-103.0 L 6.368163355566229e-15,-104.0 L -0.4336590845875379,-104.9010770213221 L -0.8673181691750822,-105.80215404264419 L -1.3009772537626265,-106.70323106396629 L -1.7346363383501708,-107.60430808528838 L -2.5161568107689893,-108.22818768199777 L -3.297677283187808,-108.85206727870715 L -4.27243847737903,-109.0753173947181 L -5.247199671570251,-109.29856751072904 " />
        <path style="fill:none;stroke:#50514F;stroke-width:0.1px;stroke-linecap:square" d="M -3.297677283187808,-108.85206727870715 L -3.731336367775352,-109.75314430002925 L -4.164995452362897,-110.65422132135134 " />
        <path style="fill:none;stroke:#50514F;stroke-width:0.1px;stroke-linecap:square" d="M -3.297677283187808,-108.85206727870715 L -4.079197755606627,-109.47594687541654 L -4.860718228025446,-110.09982647212593 L -5.642238700444265,-110.72370606883531 L -6.423759172863084,-111.3475856655447 " />
        <path style="fill:none;stroke:#50514F;stroke-width:0.1px;stroke-linecap:square" d="M -1.7346363383501708,-107.60430808528838 L -1.7346363383501708,-108.60430808528838 L -1.7346363383501708,-109.60430808528838 L -2.168295422937715,-110.50538510661048 L -2.6019545075252593,-111.40646212793257 " />
        <path style="fill:none;stroke:#50514F;stroke-width:0.1px;stroke-linecap:square" d="M -1.7346363383501708,-109.60430808528838 L -1.3009772537626265,-110.50538510661048 L -0.8673181691750822,-111.40646212793257 " />
        <path style="fill:none;stroke:#50514F;stroke-width:0.1px;stroke-linecap:square" d="M -1.7346363383501708,-109.60430808528838 L -1.7346363383501708,-110.60430808528838 L -1.7346363383501708,-111.60430808528838 L -1.7346363383501708,-112.60430808528838 L -1.7346363383501708,-113.60430808528838 " />
        <path style="fill:none;stroke:#50514F;stroke-width:0.1px;stroke-linecap:square" d="M -1.7346363383501708,-107.60430808528838 L -2.168295422937715,-108.50538510661048 L -2.6019545075252593,-109.40646212793257 L -3.0356135921128033,-110.30753914925467 L -3.4692726767003474,-111.20861617057676 L -3.9029317612878915,-112.10969319189886 L -4.336590845875436,-113.01077021322095 L -5.118111318294254,-113.63464980993034 L -5.899631790713073,-114.25852940663972 " />
        <path style="fill:none;stroke:#50514F;stroke-width:0.1px;stroke-linecap:square" d="M -4.336590845875436,-113.01077021322095 L -4.336590845875436,-114.01077021322095 L -4.336590845875436,-115.01077021322095 " />
        <path style="fill:none;stroke:#50514F;stroke-width:0.1px;stroke-linecap:square" d="M -4.336590845875436,-113.01077021322095 L -4.77024993046298,-113.91184723454305 L -5.203909015050525,-114.81292425586514 L -5.637568099638069,-115.71400127718724 L -6.071227184225614,-116.61507829850933 " />
        <path style="fill:none;stroke:#50514F;stroke-width:0.1px;stroke-linecap:square" d="M 6.368163355566229e-15,-104.0 L 0.43365908458755076,-104.9010770213221 L 0.8673181691750951,-105.80215404264419 L 1.3009772537626394,-106.70323106396629 L 1.7346363383501837,-107.60430808528838 L 1.7346363383501837,-108.60430808528838 L 1.7346363383501837,-109.60430808528838 L 1.3009772537626394,-110.50538510661048 L 0.8673181691750952,-111.40646212793257 " />
        <path style="fill:none;stroke:#50514F;stroke-width:0.1px;stroke-linecap:square" d="M 1.7346363383501837,-109.60430808528838 L 2.168295422937728,-110.50538510661048 L 2.6019545075252726,-111.40646212793257 " />
        <path style="fill:none;stroke:#50514F;stroke-width:0.1px;stroke-linecap:square" d="M 1.7346363383501837,-109.60430808528838 L 1.7346363383501837,-110.60430808528838 L 1.7346363383501837,-111.60430808528838 L 1.7346363383501837,-112.60430808528838 L 1.7346363383501837,-113.60430808528838 " />
        <path style="fill:none;stroke:#50514F;stroke-width:0.1px;stroke-linecap:square" d="M 1.7346363383501837,-107.60430808528838 L 2.5161568107690027,-108.22818768199777 L 3.2976772831878214,-108.85206727870715 L 3.7313363677753655,-109.75314430002925 L 4.16499545236291,-110.65422132135134 " />
        <path style="fill:none;stroke:#50514F;stroke-width:0.1px;stroke-linecap:square" d="M 3.2976772831878214,-108.85206727870715 L 4.272438477379043,-109.0753173947181 L 5.2471996715702645,-109.29856751072904 " />
        <path style="fill:none;stroke:#50514F;stroke-width:0.1px;stroke-linecap:square" d="M 3.2976772831878214,-108.85206727870715 L 4.07919775560664,-109.47594687541654 L 4.860718228025458,-110.09982647212593 L 5.6422387004442776,-110.72370606883531 L 6.423759172863097,-111.3475856655447 " />
        <path style="fill:none;stroke:#50514F;stroke-width:0.1px;stroke-linecap:square" d="M 1.7346363383501837,-107.60430808528838 L 2.168295422937728,-108.50538510661048 L 2.6019545075252726,-109.40646212793257 L 3.035613592112817,-110.30753914925467 L 3.4692726767003617,-111.20861617057676 L 3.902931761287906,-112.10969319189886 L 4.336590845875451,-113.01077021322095 L 4.336590845875451,-114.01077021322095 L 4.336590845875451,-115.01077021322095 " />
        <path style="fill:none;stroke:#50514F;stroke-width:0.1px;stroke-linecap:square" d="M 4.336590845875451,-113.01077021322095 L 5.11811131829427,-113.63464980993034 L 5.899631790713089,-114.25852940663972 " />
        <path style="fill:none;stroke:#50514F;stroke-width:0.1px;stroke-linecap:square" d="M 4.336590845875451,-113.01077021322095 L 4.770249930462995,-113.91184723454305 L 5.20390901505054,-114.81292425586514 L 5.637568099638084,-115.71400127718724 L 6.071227184225629,-116.61507829850933 " />
        <path style="fill:none;stroke:#50514F;stroke-width:0.1px;stroke-linecap:square" d="M 6.368163355566229e-15,-104.0 L 6.429395695523597e-15,-105.0 L 6.4906280354809644e-15,-106.0 L 6.551860375438332e-15,-107.0 L 6.6130927153956996e-15,-108.0 L 6.674325055353067e-15,-109.0 L 6.735557395310435e-15,-110.0 L 6.796789735267802e-15,-111.0 L 6.85802207522517e-15,-112.0 L 6.9192544151825374e-15,-113.0 L 6.980486755139905e-15,-114.0 L 7.0417190950972726e-15,-115.0 L 7.10295143505464e-15,-116.0 L -0.43365908458753716,-116.9010770213221 L -0.8673181691750814,-117.80215404264419 L -1.6488386415939003,-118.42603363935358 L -2.430359114012719,-119.04991323606296 " />
        <path style="fill:none;stroke:#50514F;stroke-width:0.1px;stroke-linecap:square" d="M -0.8673181691750814,-117.80215404264419 L -0.8673181691750813,-118.80215404264419 L -0.8673181691750813,-119.80215404264419 " />
        <path style="fill:none;stroke:#50514F;stroke-width:0.1px;stroke-linecap:square" d="M -0.8673181691750814,-117.80215404264419 L -1.3009772537626256,-118.70323106396629 L -1.73463633835017,-119.60430808528838 L -2.1682954229377143,-120.50538510661048 L -2.6019545075252584,-121.40646212793257 " />
        <path style="fill:none;stroke:#50514F;stroke-width:0.1px;stroke-linecap:square" d="M 7.10295143505464e-15,-116.0 L 0.4336590845875515,-116.9010770213221 L 0.8673181691750959,-117.80215404264419 L 0.867318169175096,-118.80215404264419 L 0.867318169175096,-119.80215404264419 " />
        <path style="fill:none;stroke:#50514F;stroke-width:0.1px;stroke-linecap:square" d="M 0.8673181691750959,-117.80215404264419 L 1.6488386415939145,-118.42603363935358 L 2.430359114012733,-119.04991323606296 " />
        <path style="fill:none;stroke:#50514F;stroke-width:0.1px;stroke-linecap:square" d="M 0.8673181691750959,-117.80215404264419 L 1.3009772537626403,-118.70323106396629 L 1.7346363383501846,-119.60430808528838 L 2.168295422937729,-120.50538510661048 L 2.6019545075252735,-121.40646212793257 " />
        <path style="fill:none;stroke:#50514F;stroke-width:0.1px;stroke-linecap:square" d="M 7.10295143505464e-15,-116.0 L 7.164183775012008e-15,-117.0 L 7.225416114969375e-15,-118.0 L 7.286648454926743e-15,-119.0 L 7.34788079488411e-15,-120.0 L 7.409113134841478e-15,-121.0 L 7.470345474798846e-15,-122.0 L -0.43365908458753677,-122.9010770213221 L -0.8673181691750811,-123.80215404264419 " />
        <path style="fill:none;stroke:#50514F;stroke-width:0.1px;stroke-linecap:square" d="M 7.470345474798846e-15,-122.0 L 0.43365908458755187,-122.9010770213221 L 0.8673181691750962,-123.80215404264419 " />
        <path style="fill:none;stroke:#50514F;stroke-width:0.1px;stroke-linecap:square" d="M 7.470345474798846e-15,-122.0 L 7.531577814756213e-15,-123.0 L 7.59281015471358e-15,-124.0 L 7.654042494670948e-15,-125.0 L 7.715274834628316e-15,-126.0 " />
    </g>
</svg>
